<svg id="圖層_4" data-name="圖層 4" xmlns="http://www.w3.org/2000/svg" viewBox="0 0 400 413.52"><defs><style>.cls-1,.cls-4{fill:#eee6db;}.cls-2{fill:#ebd6b0;}.cls-3{fill:#3a3832;}.cls-4{stroke:#3b3832;stroke-miterlimit:10;stroke-width:0.39px;}.cls-5{fill:#3c3832;}.cls-6{fill:#060001;opacity:0.4;}.cls-7{fill:#383b3b;}.cls-8{fill:#3e4546;}.cls-9{fill:#569a99;}.cls-10{fill:#5b8985;}.cls-11{fill:#4a7776;}.cls-12{fill:#94b9c4;}.cls-13{fill:#405b5c;}.cls-14{fill:#4f8b94;}.cls-15{fill:#5195a0;}.cls-16{fill:#5198a3;}.cls-17{fill:#5197a2;}.cls-18{fill:#45686a;}.cls-19{fill:#5296a1;}.cls-20{fill:#487074;}.cls-21{fill:#5397a1;}.cls-22{fill:#487377;}.cls-23{fill:#46787c;}.cls-24{fill:#476d70;}.cls-25{fill:#3c4f4e;}.cls-26{fill:#3d5353;}.cls-27{fill:#446364;}.cls-28{fill:#394544;}.cls-29{fill:#d7ae6e;}.cls-30{fill:#3b3832;}.cls-31{fill:#ebcb8f;}.cls-32{fill:#f5eedf;}.cls-33{fill:#f7f6f1;}.cls-34{fill:#c8dce3;}.cls-35{fill:#aac7d1;}.cls-36{fill:#47afc2;}.cls-37{fill:#4f9ea9;}.cls-38{fill:none;}.cls-39{fill:#ead2b9;}.cls-40{fill:#d2e0c5;}</style></defs><title>設計</title><circle class="cls-1" cx="205.24" cy="218.76" r="194.76"/><rect class="cls-2" x="293.3" y="874.67" width="334.75" height="36.1" transform="translate(-731.47 -371.23) rotate(-34.07)"/><path class="cls-3" d="M608.69,812.64l-7.43,5L581,831.34l-29.76,20.12-36.45,24.65-39.93,27-40.14,27.14-37.58,25.42-31.75,21.47-22.75,15.38-7.13,4.83a41.81,41.81,0,0,0-3.69,2.49c-.14.12-.31.21-.46.32l2,.52-17.65-26.1-2.57-3.8-.52,2,7.43-5L340.3,954.1,370.07,934l36.45-24.65,39.93-27,40.14-27.15,37.58-25.41,31.75-21.48,22.75-15.38,7.13-4.82a41.91,41.91,0,0,0,3.69-2.5c.14-.11.31-.21.46-.31l-2-.53,17.66,26.11,2.56,3.8c1.06,1.55,3.6.08,2.54-1.49l-17.65-26.1-2.57-3.8a1.49,1.49,0,0,0-2-.52l-7.43,5-20.22,13.67-29.76,20.13-36.45,24.65-39.93,27-40.14,27.14L377,925.78l-31.75,21.47-22.75,15.38c-3.61,2.44-7.24,4.84-10.82,7.32l-.46.31a1.49,1.49,0,0,0-.53,2l17.65,26.1,2.57,3.8a1.48,1.48,0,0,0,2,.53l7.43-5L360.52,984l29.77-20.13,36.45-24.65,39.93-27,40.14-27.15,37.58-25.41,31.75-21.47,22.75-15.39c3.6-2.44,7.24-4.84,10.82-7.32l.46-.31C611.73,814.12,610.26,811.58,608.69,812.64Z" transform="translate(-310.44 -782.53)"/><path class="cls-3" d="M342,953l6.5,9.61c1,1.52,3.51.09,2.47-1.44l-6.5-9.61c-1-1.51-3.5-.09-2.47,1.44Z" transform="translate(-310.44 -782.53)"/><path class="cls-3" d="M353.32,945.31l6.5,9.61c1,1.52,3.51.09,2.47-1.44l-6.5-9.61c-1-1.52-3.5-.09-2.47,1.44Z" transform="translate(-310.44 -782.53)"/><path class="cls-3" d="M364.62,937.67l6.5,9.61c1,1.52,3.5.09,2.47-1.44l-6.5-9.61c-1-1.52-3.5-.09-2.47,1.44Z" transform="translate(-310.44 -782.53)"/><path class="cls-3" d="M375.92,930l6.5,9.61c1,1.52,3.5.09,2.47-1.44l-6.5-9.61c-1-1.52-3.5-.09-2.47,1.44Z" transform="translate(-310.44 -782.53)"/><path class="cls-3" d="M387.22,922.39l6.5,9.61c1,1.51,3.5.08,2.47-1.45l-6.5-9.6c-1-1.52-3.5-.09-2.47,1.44Z" transform="translate(-310.44 -782.53)"/><path class="cls-3" d="M398.52,914.75l6.5,9.61c1,1.51,3.5.08,2.47-1.45l-6.5-9.6c-1-1.52-3.51-.09-2.47,1.44Z" transform="translate(-310.44 -782.53)"/><path class="cls-3" d="M409.82,907.11l6.5,9.61c1,1.51,3.5.08,2.46-1.45l-6.49-9.61c-1-1.51-3.51-.08-2.47,1.45Z" transform="translate(-310.44 -782.53)"/><path class="cls-3" d="M421.12,899.47l6.49,9.6c1,1.52,3.51.09,2.47-1.44L423.59,898c-1-1.51-3.51-.08-2.47,1.45Z" transform="translate(-310.44 -782.53)"/><path class="cls-3" d="M432.42,891.83l6.49,9.6c1,1.52,3.51.09,2.47-1.44l-6.49-9.61c-1-1.51-3.51-.08-2.47,1.45Z" transform="translate(-310.44 -782.53)"/><path class="cls-3" d="M443.71,884.18l6.5,9.61c1,1.52,3.51.09,2.47-1.44l-6.5-9.61c-1-1.52-3.5-.09-2.47,1.44Z" transform="translate(-310.44 -782.53)"/><path class="cls-3" d="M455,876.54l6.5,9.61c1,1.52,3.51.09,2.47-1.44l-6.5-9.61c-1-1.52-3.5-.09-2.47,1.44Z" transform="translate(-310.44 -782.53)"/><path class="cls-3" d="M466.31,868.9l6.5,9.61c1,1.52,3.5.09,2.47-1.44l-6.5-9.61c-1-1.52-3.5-.09-2.47,1.44Z" transform="translate(-310.44 -782.53)"/><path class="cls-3" d="M477.61,861.26l6.5,9.61c1,1.51,3.5.09,2.47-1.45l-6.5-9.6c-1-1.52-3.5-.09-2.47,1.44Z" transform="translate(-310.44 -782.53)"/><path class="cls-3" d="M488.91,853.62l6.5,9.61c1,1.51,3.5.08,2.47-1.45l-6.5-9.6c-1-1.52-3.5-.09-2.47,1.44Z" transform="translate(-310.44 -782.53)"/><path class="cls-3" d="M500.21,846l6.5,9.61c1,1.51,3.5.08,2.47-1.45l-6.5-9.61c-1-1.51-3.51-.08-2.47,1.45Z" transform="translate(-310.44 -782.53)"/><path class="cls-3" d="M511.51,838.34l6.5,9.6c1,1.52,3.5.09,2.47-1.44l-6.5-9.61c-1-1.51-3.51-.08-2.47,1.45Z" transform="translate(-310.44 -782.53)"/><path class="cls-3" d="M522.81,830.7l6.49,9.6c1,1.52,3.51.09,2.47-1.44l-6.49-9.61c-1-1.51-3.51-.08-2.47,1.45Z" transform="translate(-310.44 -782.53)"/><path class="cls-3" d="M534.11,823.05l6.49,9.61c1,1.52,3.51.09,2.47-1.44l-6.49-9.61c-1-1.51-3.51-.09-2.47,1.44Z" transform="translate(-310.44 -782.53)"/><path class="cls-3" d="M545.41,815.41,551.9,825c1,1.52,3.51.09,2.47-1.44l-6.5-9.61c-1-1.52-3.5-.09-2.46,1.44Z" transform="translate(-310.44 -782.53)"/><path class="cls-3" d="M556.7,807.77l6.5,9.61c1,1.52,3.51.09,2.47-1.44l-6.5-9.61c-1-1.52-3.5-.09-2.47,1.44Z" transform="translate(-310.44 -782.53)"/><path class="cls-3" d="M568,800.13l6.5,9.61c1,1.52,3.5.09,2.47-1.44l-6.5-9.61c-1-1.52-3.5-.09-2.47,1.44Z" transform="translate(-310.44 -782.53)"/><path class="cls-3" d="M579.3,792.49l6.5,9.61c1,1.51,3.5.08,2.47-1.45l-6.5-9.6c-1-1.52-3.5-.09-2.47,1.44Z" transform="translate(-310.44 -782.53)"/><rect class="cls-4" x="102.34" y="85.25" width="191.02" height="117.3"/><path class="cls-5" d="M439.25,899.74H479a1.18,1.18,0,0,0,0-2.35H439.25a1.18,1.18,0,0,0,0,2.35Z" transform="translate(-310.44 -782.53)"/><path class="cls-5" d="M439.25,907.47h34a1.18,1.18,0,0,0,0-2.35h-34a1.18,1.18,0,0,0,0,2.35Z" transform="translate(-310.44 -782.53)"/><path class="cls-5" d="M439.25,915.2h26.91a1.18,1.18,0,0,0,0-2.35H439.25a1.18,1.18,0,0,0,0,2.35Z" transform="translate(-310.44 -782.53)"/><path class="cls-5" d="M439.25,922.93h18.42a1.18,1.18,0,0,0,0-2.35H439.25a1.18,1.18,0,0,0,0,2.35Z" transform="translate(-310.44 -782.53)"/><path class="cls-5" d="M439.25,930.66H476a1.18,1.18,0,0,0,0-2.35H439.25a1.18,1.18,0,0,0,0,2.35Z" transform="translate(-310.44 -782.53)"/><path class="cls-5" d="M439.25,938.39h50a1.18,1.18,0,0,0,0-2.35h-50a1.18,1.18,0,0,0,0,2.35Z" transform="translate(-310.44 -782.53)"/><path class="cls-5" d="M497.59,888.43v69.24a1.17,1.17,0,0,0,2.34,0V888.43a1.17,1.17,0,0,0-2.34,0Z" transform="translate(-310.44 -782.53)"/><path class="cls-5" d="M492.58,960.32h12.36a1.17,1.17,0,0,0,0-2.34H492.58a1.17,1.17,0,0,0,0,2.34Z" transform="translate(-310.44 -782.53)"/><path class="cls-5" d="M492.58,889.6h12.36a1.18,1.18,0,0,0,0-2.35H492.58a1.18,1.18,0,0,0,0,2.35Z" transform="translate(-310.44 -782.53)"/><path class="cls-5" d="M450.4,954.55h-9.68l1.18,1.18v-9.68l-1.18,1.17h9.68l-1.17-1.17v9.68a1.18,1.18,0,0,0,2.35,0v-9.68a1.2,1.2,0,0,0-1.18-1.18h-9.68a1.19,1.19,0,0,0-1.17,1.18v9.68a1.19,1.19,0,0,0,1.17,1.17h9.68A1.18,1.18,0,0,0,450.4,954.55Z" transform="translate(-310.44 -782.53)"/><path class="cls-5" d="M470,954.55h-9.68l1.18,1.18v-9.68l-1.18,1.17H470l-1.17-1.17v9.68a1.18,1.18,0,0,0,2.35,0v-9.68a1.2,1.2,0,0,0-1.18-1.18h-9.68a1.19,1.19,0,0,0-1.17,1.18v9.68a1.19,1.19,0,0,0,1.17,1.17H470A1.18,1.18,0,0,0,470,954.55Z" transform="translate(-310.44 -782.53)"/><path class="cls-6" d="M676.37,1090.87s14.29,16.67,13,46c0,0-13.13,11.95-33.16.43,0,0-17-29.92-16-47.11C640.26,1090.22,654.51,1072.87,676.37,1090.87Z" transform="translate(-310.44 -782.53)"/><polygon class="cls-6" points="308.04 396.94 39.08 396.94 43.67 386.14 303.66 386.14 308.04 396.94"/><polygon class="cls-6" points="328.68 304.5 65.97 304.5 74.95 283.15 320.82 283.15 328.68 304.5"/><path class="cls-7" d="M635.39,882.36q.09-18.08.1-36.15c0-1.3-.21-2.61-.32-3.92l-6-5.31-1.14.82h0c-1.5,1.29,1.35,2.13.31,3.43a55.74,55.74,0,0,1-7.88.29H553.2a34.62,34.62,0,0,0-7.12.39,17.39,17.39,0,0,1-5.52.47q-64,0-128,0c-8.45,0-16.89.11-25.36,0-1.18-1.74.77-2,1.39-2.9s2.6-1.65,1-3.37c-.37,0-.89-.07-1.11.13-2.41,2.24-5.21,4.07-7.36,6.77v4.73q0,67.74,0,135.48a.77.77,0,0,0-.54.18c-2.52,2-3.27,5.65-4.19,8.6a46.22,46.22,0,0,0-2.35,11.62c-.32,7.51,3.29,14,7.07,20.21v3.1a12.66,12.66,0,0,0,1.37,5.69c2.75,5.71,7.33,8.53,13,9.45a47.19,47.19,0,0,1-13.69,35.34c-4.62,4.69-9.88,8.87-13.39,14.53-1.93,3.12-3.29,6.55-5,9.78-1.6,3-3.61,5.76-5.29,8.71-3.09,5.44-5,13-.09,18.07l0,0c.72.66,1.8-.45,1.1-1.17-.17-.18-.33-.35-.48-.53-4.11-4.91-1.4-12,1.51-16.79,1.77-2.93,3.71-5.73,5.25-8.8a88,88,0,0,1,4.86-9.28c3.66-5.53,9-9.61,13.56-14.39a48.47,48.47,0,0,0,9.94-15.56,47.93,47.93,0,0,0,3.3-19.75c.35,0,.69.07,1.05.09,2.71.16,5.43.23,8.15.25,4.56,6.53,14,7.25,21.29,8.06,10.62,1.18,21.52,1.57,32-1a28.63,28.63,0,0,0,3.63,1.93l-3.83,0c-3.57.06-7.14.21-10.71.17-7.15-.08-14.29-.27-21.44-.39a10.81,10.81,0,0,0-5.17.87c-1.26,3.65-2.93,7.23-3.69,11.14l0,.14c-.24.67.14,1,.78,1.24h0l.12-.07c1.74-1,1.85-2.9,2.49-4.51.86-2.15,1.31-4.53,3.48-5.9a4.14,4.14,0,0,1,1.89-.48c14.62,0,29.25,0,43.87,0h.05a32.53,32.53,0,0,0,8.87,0,3.26,3.26,0,0,1,2.79,1.19,2.65,2.65,0,0,1,.42,1.1c.26,7.34,2.7,7.4,8.91,7.38,9.54,0,19.08,0,28.62,0,7.07,0,7.68-.55,9.16-7.52a4.6,4.6,0,0,1,.76-1.7q30.88-.46,61.77-.22h.1l.38-.11a1.4,1.4,0,0,0,.85-2.13h0c-.37-.09-.59-.4-.88-.6-3.44-.11-6.87-.31-10.31-.31-5.14,0-10.28.13-15.43.14q-18.28.06-36.56,0c-.76,0-1.53-.17-2.38-.26v-8.21c1.12-.07,2.16-.18,3.19-.18,5.54,0,11.09.16,16.63.17a.77.77,0,0,0,.16.15c6.4,4,13.53,8.34,21.42,7.44a41.53,41.53,0,0,0,10.3-3.07,28,28,0,0,0,8.13-4.63q14.36,0,28.7-.06a17.45,17.45,0,0,0,9.39-2.61,31.07,31.07,0,0,0,6.68-5.57,9.42,9.42,0,0,0,2.58-6.83q-.07-49.86,0-99.73C635.15,912.56,635.31,897.46,635.39,882.36ZM381.08,1020.68c-3-5.12-5.61-10.49-5.48-16.6a40,40,0,0,1,2-10.71c.81-2.69,1.46-6.17,3.48-8.3Q381.08,1002.88,381.08,1020.68ZM585.6,971.34h-154V877.05h154ZM447.51,1049.8a105.88,105.88,0,0,1-16.32-.4,92.63,92.63,0,0,1-13.58-1.89c-3.48-.84-6.94-2.27-9.3-4.93h6.83q18.21,0,36.43,0h.13a30.5,30.5,0,0,0,6,5.83A64.35,64.35,0,0,1,447.51,1049.8Zm6.22-7.25q9.54,0,19.06-.1a48.54,48.54,0,0,1-13.08,5.44A28.31,28.31,0,0,1,453.73,1042.55Zm7.92,6.5a47.77,47.77,0,0,0,14.05-6.58l0,0,5.93,0c1,0,2,.15,3.12.24,0,1.58.06,2.9,0,4.22s.3,2.77-.41,4.28l-.5.15h-1.94l-14.26.2A27.73,27.73,0,0,1,461.65,1049.05Zm117.18-3.35c-3.15,1.2-6.56,2.6-9.94,2.9-6.64.6-12.65-2.64-18.16-6q17.24,0,34.45-.12A29.27,29.27,0,0,1,578.83,1045.7Z" transform="translate(-310.44 -782.53)"/><path class="cls-7" d="M593.53,1051.75v0h0Z" transform="translate(-310.44 -782.53)"/><path class="cls-8" d="M604.19,1107.49a28.5,28.5,0,0,1,1.13,2.67c1,3.29,2,6.58,2.91,9.89q5.28,18.93,10.51,37.86a6.47,6.47,0,0,1,.09,1,11.57,11.57,0,0,1-.64,1.64c-1.4,2.55-2.83,5.07-4.34,7.77-1.05.1-2.08.28-3.1.29-5.7,0-11.4,0-17.09,0H354.33c-2.7-2.45-4.37-5.63-6.27-8.63-.83-1.32-.47-2.75.05-4.18,2.06-5.58,4-11.2,6-16.79,3.25-8.94,6.54-17.88,9.8-26.82.49-1.35.91-2.73,1.41-4.22a17.58,17.58,0,0,1,2.28-.44c1.46-.07,2.92,0,4.38,0H604.19Z" transform="translate(-310.44 -782.53)"/><path class="cls-9" d="M628,837.8c-.13.7.47.8.86,1.13,1.18,1,2.31,2.09,3.37,3.05-.07.36-.06.5-.12.55a.63.63,0,0,1-.38.11l-85.16.17c-1.41.55-2.89.28-4.33.28q-65,0-130,0c-8.07,0-16.14,0-24.21,0-1.27,0-2.65.45-3.83-.46,1.65-1.61,3.29-3.24,5-4.82a1.47,1.47,0,0,0,.44-1.73l2.45-.78c16-.27,32,0,48-.13,59.3-.58,118.6-.35,177.9-.37,2,0,4-.35,5.88.5C625.68,835.36,626.75,836.73,628,837.8Z" transform="translate(-310.44 -782.53)"/><path class="cls-7" d="M418.28,1063.39l.79,1.19c1.29,2.18-.8,4.4.12,6.67,2,1.3,4.31.81,6.51.81q82.47,0,165,0a47.13,47.13,0,0,1,7.13.22c.62-.17.91,1,1.52.48.38-.31-.1.29-.27-.23-2.93-5.14-4.51-10.82-6.81-16.2a2.41,2.41,0,0,1,.43-2.91c.92-.24.71-1.06.87-1.7.6,1.3,1.28,2.56,1.79,3.89q3.31,8.71,6.56,17.45a10.49,10.49,0,0,1,.33,1.67c-1.77,3-3.49,6.12-6.07,8.56H419.57c-2.6-2.64-3.19-6.3-4.8-9.3.66-2.34,1.22-4.51,1.91-6.64C417.12,1066,417.74,1064.71,418.28,1063.39Z" transform="translate(-310.44 -782.53)"/><path class="cls-7" d="M623.84,835.29c-1.83.13-3.66.36-5.49.37l-143.94,0c-23.43,1-46.89.36-70.33.58-2.65,0-5.31-.15-7.95,0a10.5,10.5,0,0,1-4.1-1c-.5.36-.61-.06-.27-.21a16,16,0,0,1,3-.89,7.55,7.55,0,0,1,1.58,0q42.69.08,85.38.16,54.6.06,109.2.07c9.66,0,19.33-.07,29-.09,1.44,0,2.92-.12,4.21.74.08.05.11.19.16.29Z" transform="translate(-310.44 -782.53)"/><path class="cls-7" d="M671.36,1139.21c-4.59,1.57-9.14.4-13.69-.18a25.52,25.52,0,0,1-2.7-.59,12.28,12.28,0,0,1-8.13-5.82,44.21,44.21,0,0,1-2.23-4.19,121,121,0,0,1-8.44-23.4c-1.25-5.39-2.82-10.71-3.52-16.22a7.27,7.27,0,0,1,1.38-5.91.85.85,0,0,1,1.14.11A67.26,67.26,0,0,1,649,1108.09c2.1,7,2.28,14.05,2.18,21.14-.06,3.42,1,5.14,4.08,6.19,5.2,1.78,10.59,1.85,16,2.09A1.16,1.16,0,0,1,671.36,1139.21Z" transform="translate(-310.44 -782.53)"/><path class="cls-7" d="M635.3,1083.09l-1.27-.19c.59-1.86,2.25-2.52,3.78-3.22,5.65-2.58,11.58-3.74,17.69-2.3a19.88,19.88,0,0,1,9.45,4.72c1.8,1.74,3.57,3.53,5.35,5.3a22.65,22.65,0,0,1,3.81,6c1.56,3,3.12,6.1,4.52,9.22a22.43,22.43,0,0,1,1.88,9.23,40,40,0,0,0,.41,5.12c.57,4.22,0,8.42,0,12.63a38.29,38.29,0,0,1-.62,4.6c-2.68,2.46-5.22,4.72-8.89,5,0-.43,0-.87,0-1.3,7.86-4.05,7.31-11.25,6.95-18.41-.49-9.43-1.8-18.56-7.28-26.71-4.47-6.66-9.91-11.58-18.57-12.9,1.53,1.84,4.46,2.1,4.1,4.89-.37.71-1.09.62-2,.75,1.45,2.85,3.22,5.45,3.69,8.73.88-.82.71-2.55,2.36-1.7a5,5,0,0,1,1.1,2.92c.09,1.72-.42,3.24-2.19,3.81a2.76,2.76,0,0,1-3.71-2.09c-1.15-4.72-4.14-8.51-6.07-12.82-1.76-4-3.19-4.66-7.42-3.73C639.83,1081.19,638,1083.36,635.3,1083.09Z" transform="translate(-310.44 -782.53)"/><path class="cls-8" d="M593.55,1051.78l-.91-.61C593.15,1051.05,593.48,1051.22,593.55,1051.78Z" transform="translate(-310.44 -782.53)"/><path class="cls-10" d="M595.78,844.41c1.05,0,2.11-.14,3.17-.14l30.6-.06h3.19a12.1,12.1,0,0,1,.66,5.19c0,7.55,0,15.1,0,22.65,0,18.41.17,36.83.13,55.24,0,27.82-.21,55.64-.31,83.46,0,5.3,0,10.6,0,15.89v3c-2.55,4.51-6.36,7.25-10.68,9.43a10.71,10.71,0,0,1-5,1q-48.3-.08-96.59-.07H434.32c-1.06,0-2.11-.08-3.17-.12-.43-1.84.81-3,1.83-4.16,6.78-7.41,13-15.29,19.89-22.64a5.4,5.4,0,0,1,2.89-2,39.81,39.81,0,0,1,7.15-.29c52.45.06,104.9-.14,157.35.1a10.74,10.74,0,0,0,3.43-.39c.28-51.51.29-103,.26-154.86-11.64-1.35-22.5.16-33.26-.92-2.24-.81-2.3-2.46-1.13-4C591.34,848.38,592.85,845.68,595.78,844.41Z" transform="translate(-310.44 -782.53)"/><path class="cls-10" d="M394.59,1039.9c-1.58.18-2.78-.75-4-1.49a21.51,21.51,0,0,1-6-5.75,7.77,7.77,0,0,1-1.41-4.86c.07-4.76,0-9.53,0-14.3,0-22.24.34-44.49-.14-66.73-.34-15.34-.67-30.69-.22-46,.44-15.08.12-30.15.37-45.23.06-3.29,0-6.59,0-10.14,1.19-.09,2.21-.23,3.23-.23q40.32-.09,80.65-.15c10.2,0,20.41.3,30.59-.19,16.4-.79,32.8-.21,49.2-.46.93,0,1.85.07,2.78.1-1.82,4.54-5.22,7.51-9.52,9.61a42.6,42.6,0,0,1-7.14.26c-45.18,0-90.35.08-135.52,0a5.05,5.05,0,0,0-4.13,1.33v154.78c8.37,1,16.31-.08,24.15.71.72.24,1.55.37,1.87,1.42-.52,2.36-2.44,4-4,5.65q-9.63,10.26-19.14,20.65A9.28,9.28,0,0,1,394.59,1039.9Z" transform="translate(-310.44 -782.53)"/><path class="cls-9" d="M592.66,1053.45c.06,2.17,1.1,4,1.87,6q2.73,7,5.44,14l-.13.1c-3.83,0-7.67-.12-11.51-.12l-160.49,0H417.22c-.9-1.91.3-3.27.58-4.73a38.5,38.5,0,0,1,1.27-4.13l4.14-11.12a4.42,4.42,0,0,1,2.7-.38h56.24a4.87,4.87,0,0,1,2.33.29c.08,2,.12,4,.26,5.92a27.07,27.07,0,0,0,.49,2.79h37.9c.67,0,1.33,0,2,0,1.81-.11,2.7-.89,2.79-2.67.12-2.09.09-4.19.12-6.2,1.42-.82,2.77-.49,4.05-.49q27,0,54,0c1.46,0,2.92-.09,4.37,0A9.61,9.61,0,0,1,592.66,1053.45Z" transform="translate(-310.44 -782.53)"/><path class="cls-11" d="M486.89,1059.88c-.09-1-.19-1.46-.19-2,0-5,0-10,0-15.23a20.46,20.46,0,0,1,2.43-.31q17.07,0,34.15,0c.76,0,1.53.06,2.25.09a95.16,95.16,0,0,1,.07,17.13,4.21,4.21,0,0,1-1.07.28Z" transform="translate(-310.44 -782.53)"/><path class="cls-12" d="M394.59,1039.9a32.26,32.26,0,0,1,5.19-6.4c2.46-2.55,4.73-5.3,7.17-7.87s4.9-4.84,7.24-7.36c1.79-1.92,3.4-4,5.09-6,.89-1.21,2.24-1.3,3.54-1.3,5,0,9.94-.37,14.89.22,1.82.49,1.86,1.56,1,3a32.35,32.35,0,0,1-4,4.93c-6,6.3-12.69,12-18.15,18.81a10,10,0,0,1-2.91,2c-4.29.08-8.57.2-12.86.23C398.72,1040.13,396.66,1040,394.59,1039.9Z" transform="translate(-310.44 -782.53)"/><path class="cls-12" d="M454.2,1012.26c.14.91-.44,1.45-1,2-3,3.29-6.33,6.38-9,10-2,2.75-4.89,4.79-6.53,7.85a6.33,6.33,0,0,1-1.36,1.43,29,29,0,0,0-5.21,6.37l-11.1,0a1.87,1.87,0,0,1,.56-2.15c7.62-8.21,14-17.48,21.86-25.49a4,4,0,0,1,1.67-1C447.54,1011.13,451.05,1009.92,454.2,1012.26Z" transform="translate(-310.44 -782.53)"/><path class="cls-12" d="M595.78,844.41l-6.29,7.83c0,.23-.06.76-.11,1.28-.71,1.41-2.1,1.45-3.36,1.46-4.53.07-9.07.36-13.6-.19-2.71-.82-2.6-2.52-1.31-4.49a23.27,23.27,0,0,1,5.63-5.87Z" transform="translate(-310.44 -782.53)"/><path class="cls-12" d="M541.66,853.18c.81-1,1.59-2,2.45-2.9,1.84-2,3.72-3.89,5.58-5.83h19c-1.79,4.48-5.1,7.62-9,10.28A57.36,57.36,0,0,1,541.66,853.18Z" transform="translate(-310.44 -782.53)"/><path class="cls-10" d="M443.15,1012.3c0,1.05-.74,1.62-1.36,2.3-2.75,3-5.58,5.94-8.19,9.06-2.94,3.5-5.66,7.18-8.51,10.75-.66.82-1.49,1.49-2.2,2.27-1,1.06-1.9,2.16-2.84,3.25l-6.4,0a96.08,96.08,0,0,1,8.05-9.19c2.79-2.64,5.45-5.42,8.16-8.14,3.26-3.27,6.64-6.42,9.22-10.28A2.53,2.53,0,0,1,443.15,1012.3Z" transform="translate(-310.44 -782.53)"/><path class="cls-10" d="M560.76,853.55c1.32-1.59,2.62-3.22,4-4.78s2.64-2.88,4-4.31l8,0c.07,1-.64,1.62-1.25,2.3-1.71,1.9-3.37,3.83-5,5.72l.7,1.21C567.68,855.81,564.21,856,560.76,853.55Z" transform="translate(-310.44 -782.53)"/><path class="cls-9" d="M412.19,842.78a2.18,2.18,0,0,1-.2.61H384.41l-.23-.77Z" transform="translate(-310.44 -782.53)"/><path class="cls-9" d="M349.27,1157.56l17.63-47.88c6.08.28,12.13.1,18.17.1l17.89,0h18.28c6,0,11.93,0,17.89,0h18.28l18.29,0,17.89,0H602.64c2.07,5.22,3.16,10.64,4.91,15.86s3,10.37,4.44,15.56,3,10.62,4.51,15.91c-.4.18-.63.39-.86.39C527,1157.56,438.38,1157.56,349.27,1157.56Z" transform="translate(-310.44 -782.53)"/><path class="cls-10" d="M616.6,1159.93c-1.43,2.49-2.53,4.42-3.66,6.41H354.44l-4.47-6.8a13,13,0,0,1,5.3,0,6.17,6.17,0,0,0,3.87-.06,1.71,1.71,0,0,1,.78-.09c6.05.81,12.09-.33,18.15-.08s12.19,0,18.28,0h18.28l164.54,0c4.24,0,8.48,0,12.71,0,3.43,0,6.86-.26,10.27.5a22.85,22.85,0,0,0,4.76.11Z" transform="translate(-310.44 -782.53)"/><path class="cls-10" d="M599.12,1075.67l-4.11,5.59H420.51c-.91-1.6-2.22-3.09-2.07-5.26a5.2,5.2,0,0,1,1.21-.32Z" transform="translate(-310.44 -782.53)"/><path class="cls-13" d="M600,1073.41c.11,0,.26.06.33.14s0,.21,0,.31l-.46-.35Z" transform="translate(-310.44 -782.53)"/><path class="cls-9" d="M656.31,1085.26c.06-2-1.38-2.73-2.91-3.16s-2.49-1.68-3.52-3.21a20.49,20.49,0,0,1,14.82,5,28.32,28.32,0,0,1,6.16,6.67c3.31,5.24,6.26,10.65,7.58,16.79a9.08,9.08,0,0,1,.1,1.18,185,185,0,0,1,.81,21.32,6.41,6.41,0,0,1-2.75,5.4,12.63,12.63,0,0,1-5.25,2.62,20.77,20.77,0,0,1-9,.09c-2.54-.57-5.17-.68-7.69-1.55a11.61,11.61,0,0,1-4.82-3,9.48,9.48,0,0,1,0-1.84c.82-4.34,0-8.67-.13-13a44.78,44.78,0,0,0-1.94-10.44,65,65,0,0,0-8.27-17.83,62.23,62.23,0,0,0-4.79-5.9c.15-.39.33-.88.52-1.37,3.29-2.88,7.26-3.94,11.77-4.4l3.55,4.25v1.9c1.1,2.2,3.32,3.82,4.27,6.36s1,5.15,2.59,7.5l2,.12c.48-.82.92-1.59,1.34-2.3l-.68-4a12,12,0,0,1-1.54-1.8,14.38,14.38,0,0,1-.86-1.59,7.76,7.76,0,0,1-.37-.77c-.17-.38-.34-.77-.53-1.14a4.77,4.77,0,0,1-.36-.76,3,3,0,0,1-.2-.83Z" transform="translate(-310.44 -782.53)"/><path class="cls-10" d="M635,1087.88c2.65,2.12,6.09,6.8,8,11.62,4.21,10.41,6,17.4,5.16,30.3a6.92,6.92,0,0,1-1.32-1.44A126.5,126.5,0,0,1,638,1104c-.93-4.08-1.86-8.17-2.85-12.24A8,8,0,0,1,635,1087.88Z" transform="translate(-310.44 -782.53)"/><path class="cls-14" d="M659.08,1090a2.38,2.38,0,0,1,1.06,2.53c-.61.17-.69.62-.76,1.18-.14,1.09.36,2.32-.55,3.33a10.09,10.09,0,0,1-1.67-3.26,26.84,26.84,0,0,0-1-3.34,23.74,23.74,0,0,0-1.87-3.43c-.62-1-1.39-1.81-2.37-3.07,1-.11,1.7-.39,2.17-.19a12.27,12.27,0,0,1,2.23,1.47l0,0c.41.47.29,1.22.82,1.63l0,0c.42.47.29,1.22.83,1.63l0,0C658.29,1088.94,658.18,1089.86,659.08,1090Z" transform="translate(-310.44 -782.53)"/><path class="cls-5" d="M625.13,859.61A25,25,0,0,0,625,856a8.56,8.56,0,0,0-1-2.17h-4.86q-12.92,0-25.82-.11c-1.32,0-2.63-.16-4-.24H589l-17.84.14h-.62l-9.22-.09h-.58c-1.17.06-2.34.19-3.5.16-5.15-.15-10.3-.34-15.45-.52h-.15l-131.21-.12c-4.64,0-9.28.05-13.92.07-1.47,0-2.91,0-4.16,1.5-.05,2.57-.14,5.34-.14,8.11v143.51a23.59,23.59,0,0,0,.18,3.57,9,9,0,0,0,.91,2.15c2,0,3.85.12,5.69.14l20.27.15H439.2l3.27,0h.67l10.56,0h.5c.66,0,1.32-.11,2-.11q79.27,0,158.55,0c2.75,0,5.53-.32,8.28.43.59.17,1.39-.41,2.18-.67v-10.5ZM585.6,877.05v94.29h-154V877.05Z" transform="translate(-310.44 -782.53)"/><path class="cls-9" d="M408.88,1152.84l1.13-5.18c1.12-.8,2.63-.33,4-.33q37.36-.06,74.73,0h12.77c.74,2,.28,3.82.38,5.62a5.16,5.16,0,0,1-2.72.33H412C410.93,1153.24,409.84,1153.51,408.88,1152.84Z" transform="translate(-310.44 -782.53)"/><path class="cls-15" d="M394.57,1126.6l1.82-5.91c2.83-.53,20.74-.65,26-.16l-.33,2.12c-1.71.95-.13,2.86-1.18,4l0,0c-4.72,1.07-9.56-.31-14.28.75l-.85,0C402.08,1126.22,398.22,1127.77,394.57,1126.6Z" transform="translate(-310.44 -782.53)"/><path class="cls-16" d="M564.08,1113.87H597.4c1.18,1,.64,2.14.82,3.12-.77.94-1.86.86-2.9.87-9.2,0-18.4,0-27.6,0C565,1117.88,563.4,1116.93,564.08,1113.87Z" transform="translate(-310.44 -782.53)"/><path class="cls-17" d="M360.5,1144.26c-.21-1.86,1.1-3.12,1.92-4.85,2.13-.14,4.35-.05,6.57-.06s4.22,0,6.33,0,4.48.08,6.72.13c.63,1.82-.28,3.27-1.21,5C374.1,1144.37,367.3,1144.79,360.5,1144.26Z" transform="translate(-310.44 -782.53)"/><path class="cls-16" d="M503.52,1126.49c0-1.94.08-3.88.12-5.91,5.29-1,10.26.26,15.44.68.67,1.55.39,3.23.2,4.88,0,.18-.37.32-.57.47A51.56,51.56,0,0,1,503.52,1126.49Z" transform="translate(-310.44 -782.53)"/><path class="cls-17" d="M363.54,1136.06c.62-2.1,1-4.31,2.68-6.11a57.59,57.59,0,0,1,7-.14c2.37,0,4.73,0,7.1,0-.92,6.54-1.13,6.83-7.45,6.69C369.74,1136.45,366.59,1137.16,363.54,1136.06Z" transform="translate(-310.44 -782.53)"/><path class="cls-15" d="M506.75,1143.35v-3.46c2.77-.67,16.43-.83,22.73-.29a7.19,7.19,0,0,1,.11,4.09c-.05.18-.4.28-.61.42-5.45-.91-10.94-.14-16.41-.41C510.63,1143.6,508.65,1144.09,506.75,1143.35Z" transform="translate(-310.44 -782.53)"/><path class="cls-9" d="M504.32,1153.66c-.25-.27-.71-.54-.72-.82-.07-1.68,0-3.37,0-5,2.79-.67,8.92-.78,14.05-.27a18.39,18.39,0,0,1,0,6.45c0,.16-.41.27-.63.4C512.83,1153.32,508.5,1154.78,504.32,1153.66Z" transform="translate(-310.44 -782.53)"/><path class="cls-16" d="M513.08,1130.64c.15-.21.28-.6.44-.61,1.7-.09,3.55-.57,5.07-.06,2.1.7,4.15.54,6.22.61,1.45.05,2.9,0,4.52,0,.54,1.68,1,3.23-.2,4.76-5.28.9-10.56.2-16,.38A7.6,7.6,0,0,1,513.08,1130.64Z" transform="translate(-310.44 -782.53)"/><path class="cls-9" d="M380.26,1126.62l-.59.05c-1.07-2.44.31-4.38,1.34-6.38l1.55,1.29c.27.1.07-.77.66-1.19,3.37-.25,7-.12,10.66-.06.74,2-.63,3.68-.89,5.53l0,0c-1.17,1.84-3,1.18-4.63,1.15C385.68,1126.91,382.94,1127.46,380.26,1126.62Z" transform="translate(-310.44 -782.53)"/><path class="cls-16" d="M497.38,1136.07a1,1,0,0,1-1-1c-.32-1.77.59-3.27,1-4.86a54,54,0,0,1,13-.16c.63,1.68.15,3.52.31,5.29C506.31,1136.43,501.78,1135.14,497.38,1136.07Z" transform="translate(-310.44 -782.53)"/><path class="cls-16" d="M489.3,1126.73c.3-2,.61-4,.95-6.25a88.85,88.85,0,0,1,11.45-.13c.09,1.14.2,2.14.24,3.14s0,2.08,0,3.13h-.4l-.4,0A43.62,43.62,0,0,1,489.3,1126.73Z" transform="translate(-310.44 -782.53)"/><path class="cls-9" d="M381.78,1135.36c-.21-.28-.68-.65-.61-.83.55-1.57,1.2-3.1,1.84-4.7H396.2c-.56,6-.9,6.41-6.79,6.29C386.87,1136.07,384.2,1136.86,381.78,1135.36Z" transform="translate(-310.44 -782.53)"/><path class="cls-18" d="M408.88,1152.84l85.49,0c2.52,0,5,0,7.55.05-.26.26-.5.69-.79.74a17,17,0,0,1-2.37.06l-86.8,0a14.25,14.25,0,0,1-2.36-.11C409.32,1153.59,409.12,1153.11,408.88,1152.84Z" transform="translate(-310.44 -782.53)"/><path class="cls-17" d="M570.19,1147.43h12.42a17.56,17.56,0,0,1,1.26,3.81c.07.66,0,1.31-.72,1.62-3.91.85-7.84.16-11.82.42A12.24,12.24,0,0,1,570.19,1147.43Z" transform="translate(-310.44 -782.53)"/><path class="cls-19" d="M381.85,1153.66c-.07-2.3,1-4.2,2-6.38h10.71c-.23,6-1,6.8-6.9,6.74C385.72,1154,383.74,1154.47,381.85,1153.66Z" transform="translate(-310.44 -782.53)"/><path class="cls-17" d="M367.51,1126.54c.28-1.24.51-2.49.88-3.7a20,20,0,0,1,1.07-2.42h10.19c.82,4.92-.72,7-5.36,6.95C372,1127.32,369.59,1128.19,367.51,1126.54Z" transform="translate(-310.44 -782.53)"/><path class="cls-19" d="M397.06,1135.5l1.9-5.61c1.77,0,3.56-.07,5.35-.08s3.63,0,5.44.1c.26,0,.51.5.76.76,1,1.81,0,3.26-.87,5.08C405.46,1135.66,401.26,1136,397.06,1135.5Z" transform="translate(-310.44 -782.53)"/><path class="cls-19" d="M397.06,1154.41l-1.37-.09c-.08-.47-.35-1-.22-1.42.58-1.84,1.26-3.64,1.95-5.57h9.94c.47,2.32-.75,4.22-1.22,6.27C403,1154.64,399.93,1153.45,397.06,1154.41Z" transform="translate(-310.44 -782.53)"/><path class="cls-16" d="M426.36,1139.37c.37.31.73.63,1.58,1.34.32.15-.12-1,.43-1.1a98.24,98.24,0,0,1,12.5-.14c.49,1.64,0,3.09-.91,4.88a99.52,99.52,0,0,1-13.59-.07A3.66,3.66,0,0,1,426.36,1139.37Z" transform="translate(-310.44 -782.53)"/><path class="cls-9" d="M437.4,1129.88h11.51a3.88,3.88,0,0,1,.25,3.72c-.19.61-.37,1.23-.55,1.85a15.31,15.31,0,0,1-10.28-.07c0-.66.05-1.37-.81-1.6A2.85,2.85,0,0,1,437.4,1129.88Z" transform="translate(-310.44 -782.53)"/><path class="cls-20" d="M564.08,1113.87l1,2.91c3.44.42,23.45.54,33.12.21.5.29.81.65.5,1.26-2.93.55-25.36.72-34.58.24-1-1.49-2-3.06-1.53-5.06A1,1,0,0,1,564.08,1113.87Z" transform="translate(-310.44 -782.53)"/><path class="cls-9" d="M445.47,1126.57c.34-1.91.68-3.81,1.06-6,2.81-.75,5.78-.21,8.9-.29a13.1,13.1,0,0,1,.21,5.83c0,.18-.38.31-.58.47A22.8,22.8,0,0,1,445.47,1126.57Z" transform="translate(-310.44 -782.53)"/><path class="cls-17" d="M596.38,1147.46c3.63-.31,7.26-.09,10.87-.16.71,1.91,1.54,3.53,1.32,5.41-3.65,1.2-7.36.24-11,.55C596.64,1151.23,596,1149.46,596.38,1147.46Z" transform="translate(-310.44 -782.53)"/><path class="cls-16" d="M484.44,1135.27c0-1.68.06-3.37.09-5a34.94,34.94,0,0,1,10.9-.1,23.31,23.31,0,0,1,.05,5.35C491.79,1135.75,488.1,1136.2,484.44,1135.27Z" transform="translate(-310.44 -782.53)"/><path class="cls-16" d="M461.41,1135.4a26,26,0,0,1,0-3.53,6.89,6.89,0,0,1,1-2h9.69c.71,1.66.43,3.33.24,5,0,.18-.36.32-.56.48A29.91,29.91,0,0,1,461.41,1135.4Z" transform="translate(-310.44 -782.53)"/><path class="cls-9" d="M457.4,1126.55a11.06,11.06,0,0,1,1.31-6.14h7.91a13.23,13.23,0,0,1,.13,5.77c0,.18-.39.3-.6.45A19.58,19.58,0,0,1,457.4,1126.55Z" transform="translate(-310.44 -782.53)"/><path class="cls-9" d="M412.15,1134.67l1.12-4a2.72,2.72,0,0,1,2.53-.89c3.27,0,6.55,0,9.82,0a10.69,10.69,0,0,1-1,5.3C420.52,1135.27,416.33,1136,412.15,1134.67Z" transform="translate(-310.44 -782.53)"/><path class="cls-21" d="M398.66,1144.24c.31-1.51.63-3,1-4.7a30.69,30.69,0,0,1,5.9-.17c2,0,4,.08,5.94.13.94,1.85,0,3.27-1.2,5C406.51,1144.38,402.59,1144.79,398.66,1144.24Z" transform="translate(-310.44 -782.53)"/><path class="cls-9" d="M593.36,1130.65c2.55-.34,5-1.2,7.68-.82a7.93,7.93,0,0,1,.82.22c2,1.5,1.94,3.74,1.93,6-2.92,1.13-5.89.37-8.77.37A8.86,8.86,0,0,1,593.36,1130.65Z" transform="translate(-310.44 -782.53)"/><path class="cls-17" d="M434.32,1126.46c.14-2-.41-4.18,1.48-6.16,2.57-.06,5.4-.1,8.23.06a11.07,11.07,0,0,1-1,6.52C440.1,1126.81,437.18,1127.63,434.32,1126.46Z" transform="translate(-310.44 -782.53)"/><path class="cls-9" d="M369.1,1152.78a8.81,8.81,0,0,1,1.92-5.41h9.34c.27,5-.8,6.31-5.29,6.25C373.07,1153.59,370.91,1154.3,369.1,1152.78Z" transform="translate(-310.44 -782.53)"/><path class="cls-16" d="M357.19,1153.65c0-2.25,1-4.16,2-6.32,2.82,0,5.64-.1,8.47.05.36,2.34-1,4.19-1.61,6.47C363,1154,360.12,1154.44,357.19,1153.65Z" transform="translate(-310.44 -782.53)"/><path class="cls-19" d="M422.47,1126.7c-.13-2.29.94-4.2,1.92-6.35a53.67,53.67,0,0,1,6.59,0c.37,0,.71.61,1.06.94,1.1,1.88.17,3.52-.57,5.35A25.21,25.21,0,0,1,422.47,1126.7Z" transform="translate(-310.44 -782.53)"/><path class="cls-16" d="M468.58,1126.68c.05-2.16-.54-4.46,1.35-6.27h7.15a34,34,0,0,1,.18,6.27A24.34,24.34,0,0,1,468.58,1126.68Z" transform="translate(-310.44 -782.53)"/><path class="cls-16" d="M478.89,1126.62c.05-2-.37-4.17,1.06-6a1.86,1.86,0,0,1,.36-.25h7.12c.08,1.11.18,2.11.21,3.1s0,2.08,0,3.12A21.1,21.1,0,0,1,478.89,1126.62Z" transform="translate(-310.44 -782.53)"/><path class="cls-16" d="M450.26,1135.39c-.24-1.89.45-3.57,1.28-5.52,2.73-.12,5.58-.08,8.32,0a2,2,0,0,1,.55,2.6,7.91,7.91,0,0,0-.69,3A29.16,29.16,0,0,1,450.26,1135.39Z" transform="translate(-310.44 -782.53)"/><path class="cls-17" d="M520.21,1147.33h9.15c.81,1.89.27,3.74.44,5.53-3.17,1.57-6.37.57-9.52.59C519.25,1151.07,519.14,1149.21,520.21,1147.33Z" transform="translate(-310.44 -782.53)"/><path class="cls-19" d="M591.05,1121.75c.43-.23.85-.65,1.28-.67,2.24-.06,4.49,0,6.85,0a7.15,7.15,0,0,1,2.21,5.55,24,24,0,0,1-9.59,0l0,0c-.44-.46-.31-1.21-.83-1.63l0,0A3.36,3.36,0,0,1,591.05,1121.75Z" transform="translate(-310.44 -782.53)"/><path class="cls-16" d="M473.39,1135.47v-4.2a2.27,2.27,0,0,1,2.18-1.47c1.69,0,3.39-.07,5.07,0a7.36,7.36,0,0,1,2.13.88v4.77A33.87,33.87,0,0,1,473.39,1135.47Z" transform="translate(-310.44 -782.53)"/><path class="cls-9" d="M441.71,1140.9c1.17.21,1.32-1.06,2.31-1.54,3.37,0,7,0,10.66,0a10.37,10.37,0,0,1,.3,4,23.71,23.71,0,0,1-12.62,0c-.08-.62.07-1.36-.75-1.64C441.2,1141.42,441.23,1141.14,441.71,1140.9Z" transform="translate(-310.44 -782.53)"/><path class="cls-17" d="M543.24,1147.36H551a4.2,4.2,0,0,1,.94.4A29.75,29.75,0,0,1,552,1153c-2.8,1.37-5.64.55-8.54.46A10.16,10.16,0,0,1,543.24,1147.36Z" transform="translate(-310.44 -782.53)"/><path class="cls-17" d="M427.16,1135.26c.13-1.78-.4-3.71,1.82-5.43,2.22,0,5-.08,7.9.06.31,1.89-.41,3.61-.82,5.61C433,1135.7,430.1,1136.27,427.16,1135.26Z" transform="translate(-310.44 -782.53)"/><path class="cls-17" d="M384.22,1143.29a5.35,5.35,0,0,1,1.29-3.8,35.23,35.23,0,0,1,5.66-.13c2,0,3.92,0,5.88.05.5,1.53-.16,2.8-1,4.44C392.16,1144,388.18,1144.86,384.22,1143.29Z" transform="translate(-310.44 -782.53)"/><path class="cls-9" d="M556,1130.79c.24-.29.47-.83.72-.84,2.11-.09,4.23-.15,6.34-.06.55,0,1.08.6,1.75,1,0,1.27.05,2.45,0,3.62,0,.3-.45.57-.7.85-1.49.79-3.1.37-4.64.37C555.74,1135.72,555.2,1134.87,556,1130.79Z" transform="translate(-310.44 -782.53)"/><path class="cls-17" d="M535.37,1130.53c.07-.11.12-.29.21-.32a15.84,15.84,0,0,1,7.59,0c.21,0,.36.36.84.85,0,1,.1,2.22.06,3.5,0,.28-.45.55-.69.83-2.25.89-4.55.1-6.43.4-1.59-.67-.81-2.1-1.62-2.79l0,0A2.1,2.1,0,0,1,535.37,1130.53Z" transform="translate(-310.44 -782.53)"/><path class="cls-9" d="M416.05,1117a5.17,5.17,0,0,1,1.3-3.81,34.31,34.31,0,0,1,4.9-.11c1.58,0,3.16-.06,4.73.06.37,0,.71.6,1.07.92.62,1,.45,2-.27,3.34C424,1117.28,420,1117.94,416.05,1117Z" transform="translate(-310.44 -782.53)"/><path class="cls-19" d="M594,1140.9c-.18-.29-.37-.59-.55-.86.27-.26.45-.58.64-.58,3.54,0,7.09,0,10.62,0a4.52,4.52,0,0,1,1.42,3.93,35,35,0,0,1-11.15,0l0,0C594.31,1142.69,595,1141.44,594,1140.9Z" transform="translate(-310.44 -782.53)"/><path class="cls-9" d="M413.68,1143.34c.09-1.27-.42-2.69,1.28-3.88,3.32-.23,7-.09,10.7-.07.53,1.52-.12,2.79-.93,4.43C421.11,1144,417.38,1144.85,413.68,1143.34Z" transform="translate(-310.44 -782.53)"/><path class="cls-17" d="M534.59,1121.67a3.85,3.85,0,0,1,1.29-.6c1.94-.07,3.88,0,5.79,0,2,1.55,1.69,3.63,1.58,5.68-2.56.56-5.12.21-7.89.25C535.06,1125.08,533.73,1123.59,534.59,1121.67Z" transform="translate(-310.44 -782.53)"/><path class="cls-16" d="M456.62,1143.33v-3.66c3.66-.62,7.14-.22,10.87-.28.13,1.47.89,2.78-.54,3.93A14.81,14.81,0,0,1,456.62,1143.33Z" transform="translate(-310.44 -782.53)"/><path class="cls-19" d="M521.86,1121h7.54c.69,2,.27,3.83.37,5.62-2.58.69-5.17.29-7.94.23A9.8,9.8,0,0,1,521.86,1121Z" transform="translate(-310.44 -782.53)"/><path class="cls-9" d="M532.08,1147.36h7.6c.87,1.82.25,3.69.47,5.47-2.56.88-5.15.27-7.89.35A10.16,10.16,0,0,1,532.08,1147.36Z" transform="translate(-310.44 -782.53)"/><path class="cls-21" d="M554.35,1121.14H562c.39,1.28.83,2.59,1.16,3.93a1.19,1.19,0,0,1-.78,1.56c-2.27.76-4.59.27-6.89.3A6.91,6.91,0,0,1,554.35,1121.14Z" transform="translate(-310.44 -782.53)"/><path class="cls-17" d="M555.2,1147.33c1.84,0,3.68,0,5.52,0a2.48,2.48,0,0,1,2.5,1.63v3.88c-2.58,1.53-5.2.86-8,.37A11,11,0,0,1,555.2,1147.33Z" transform="translate(-310.44 -782.53)"/><path class="cls-16" d="M516.22,1113.93h12.46a4.06,4.06,0,0,1,1,.39c0,.87,0,1.87.07,2.86-4.45.55-8.9.24-13.13.18A2.42,2.42,0,0,1,516.22,1113.93Z" transform="translate(-310.44 -782.53)"/><path class="cls-9" d="M392.14,1114.72l2.34-1.56h9.71c.15,3.61-1.73,4.95-5.14,4.73-1.83-.12-3.68,0-5.52-.06a3,3,0,0,1-1.21-.35,2,2,0,0,1-.71-1.67A1.88,1.88,0,0,1,392.14,1114.72Z" transform="translate(-310.44 -782.53)"/><path class="cls-16" d="M451.27,1113.85c2-.49,4-1.45,6,0h5.15c.56,1.28,1.15,2.32-.21,3.24-3.39,1.65-7,.39-10.5.84h-.62A2.8,2.8,0,0,1,451.27,1113.85Z" transform="translate(-310.44 -782.53)"/><path class="cls-16" d="M480.51,1143.37v-3.67c3.33-.67,6.55-.25,10-.31.25,1.44.89,2.73-.42,3.93A13.35,13.35,0,0,1,480.51,1143.37Z" transform="translate(-310.44 -782.53)"/><path class="cls-9" d="M493.19,1142.53c-1.31-.68-.68-1.76-.56-2.89,2-.55,4.08-.22,6.13-.28s3.89,0,6,0c.26,1.23,1,2.27-.4,3.17A16.94,16.94,0,0,1,493.19,1142.53Z" transform="translate(-310.44 -782.53)"/><path class="cls-9" d="M586.87,1147.47H593c.28.38,1,1,1.07,1.59a11.42,11.42,0,0,0,.79,3c.07.18-.4.55-.61.83-2.25,1.16-4.71,1.43-6.72,0C585.8,1151.56,585.87,1149.42,586.87,1147.47Z" transform="translate(-310.44 -782.53)"/><path class="cls-18" d="M392.14,1114.72a.92.92,0,0,0,0,.52c-.27.63-.54,1.27.05,1.88l0,.22a.75.75,0,0,1,0,1c-3.29.09-6.66.65-9.85.14a104,104,0,0,0-10.54-.62c-.24,0-.46-.2-1-.44,2.52-1,5-.08,7.52-.63l1.56-2.77c.86-.08,1.09.32,1,.92s-.35,1.17-.52,1.74a3.69,3.69,0,0,0,.92.36h8.06c.63-1.27,1.25-2.5,1.86-3.71C392.26,1113.34,392.08,1114.11,392.14,1114.72Z" transform="translate(-310.44 -782.53)"/><path class="cls-16" d="M469.39,1143.4v-3.67c3-.75,6-.24,9.18-.35.22,1.46.91,2.76-.45,3.94A23.09,23.09,0,0,1,469.39,1143.4Z" transform="translate(-310.44 -782.53)"/><path class="cls-16" d="M495.63,1117.94v-3.7c3.1-.64,6.07-.24,9.09-.33.66,1.46.36,2.78.36,4.06A30,30,0,0,1,495.63,1117.94Z" transform="translate(-310.44 -782.53)"/><path class="cls-16" d="M484.44,1117.75c.05-1.14.1-2.29.15-3.55,1.63-.52,3.18-.25,4.71-.3s2.82,0,4.29,0c.66,1.44.33,2.74.4,4A21.53,21.53,0,0,1,484.44,1117.75Z" transform="translate(-310.44 -782.53)"/><path class="cls-17" d="M574.32,1121.07h6.41c1.84,1.66,1.57,3.65,1.55,5.58C576.34,1128.64,574.73,1127.51,574.32,1121.07Z" transform="translate(-310.44 -782.53)"/><path class="cls-19" d="M534.49,1114.12c.35-.32.68-.91,1-.93,1.81-.1,3.62,0,5.66,0,.37.47,1.16,1,1.2,1.63.06,1,.82,2.36-.66,3.11a14.28,14.28,0,0,1-7.2,0l.05,0A2.88,2.88,0,0,1,534.49,1114.12Z" transform="translate(-310.44 -782.53)"/><path class="cls-17" d="M430.35,1117c.14-1.25-.39-2.7,1.34-3.78a76,76,0,0,1,8.31-.07c.68,1.53,0,2.75-.89,4.11C436.19,1117.4,433.27,1117.93,430.35,1117Z" transform="translate(-310.44 -782.53)"/><path class="cls-9" d="M404.92,1114.69l1.38-1.43h7.54c.6,3.38,0,4.3-3.12,4.58-1.93.18-3.87-.16-5.8,0l-.86,0C403.34,1116.51,403,1115.28,404.92,1114.69Z" transform="translate(-310.44 -782.53)"/><path class="cls-9" d="M545.58,1121.15h6c.84,1.79.24,3.67.45,5.45-2.1,1.36-4.23.8-6.44.36A6.22,6.22,0,0,1,545.58,1121.15Z" transform="translate(-310.44 -782.53)"/><path class="cls-17" d="M565.56,1121.94c.38-.29.75-.81,1.14-.83,1.56-.1,3.12,0,4.94,0,.15,2,1.36,3.69,1,5.71a25.05,25.05,0,0,1-6.24.12C565.52,1125.21,564.79,1123.71,565.56,1121.94Z" transform="translate(-310.44 -782.53)"/><path class="cls-9" d="M546.48,1130.65c.83-1.59,2.3-.73,3.46-.8,2-.13,2,0,3.61,1.18v3.68c-1.28.9-2.76.67-4.17.63C545.79,1135.24,545.34,1134.48,546.48,1130.65Z" transform="translate(-310.44 -782.53)"/><path class="cls-17" d="M567.19,1130.53a5.47,5.47,0,0,1,1.24-.7c1.64-.47,3,.75,4.72.89a35.77,35.77,0,0,1,1.11,3.54c.07.3-.5.75-.78,1.12-1.9.78-3.78.22-5.69.3C567.3,1133.76,566.48,1132.25,567.19,1130.53Z" transform="translate(-310.44 -782.53)"/><path class="cls-22" d="M381.78,1135.36h12.28c.75-1.94,1.44-3.74,2.14-5.53a1.11,1.11,0,0,1,.79,1.52,14.11,14.11,0,0,1-2.12,5.47H382.18Z" transform="translate(-310.44 -782.53)"/><path class="cls-20" d="M367.51,1126.54a84.16,84.16,0,0,0,10.29-.09,12.32,12.32,0,0,0,1.85-6l1.36-.13c-.11,1-.14,2.06-.35,3.06s-.65,2.22-1,3.32a2.51,2.51,0,0,1-2.18,1.5c-3.43,0-6.86-.09-10.29-.16-.09,0-.17-.17-.33-.36C366.61,1127.11,367.05,1126.82,367.51,1126.54Z" transform="translate(-310.44 -782.53)"/><path class="cls-23" d="M520.21,1147.33l.17,5.19c1.59.61,3.17.3,4.69.35s3.15,0,4.73,0l1.49-.09c.24.14.35.3.31.49s-.09.3-.16.3a9.05,9.05,0,0,1-2.5.86c-3.23.1-6.48,0-9.84,0-.8-2.28-.28-4.45-.44-6.78Z" transform="translate(-310.44 -782.53)"/><path class="cls-16" d="M474.15,1117.13v-2.86c2.81-.75,5.52-.18,8.05-.38,1,1.12.53,2.22.65,3.22A11.27,11.27,0,0,1,474.15,1117.13Z" transform="translate(-310.44 -782.53)"/><path class="cls-20" d="M412.15,1134.67l12.14-.16,1.33-4.69c.85.2.95.85.8,1.52-.32,1.51-.72,3-1.08,4.46a59.52,59.52,0,0,1-13.07,0Z" transform="translate(-310.44 -782.53)"/><path class="cls-24" d="M369.1,1152.78c3.21,0,6.43.37,9.74-.22a17.22,17.22,0,0,0,1.52-5.19h1.42a30.17,30.17,0,0,1-1.95,6.33c-1.37,1.13-2.73.65-4,.73a32,32,0,0,1-3.53,0c-1.25-.06-2.57.32-3.67-.26C368.23,1153.36,368.64,1153.06,369.1,1152.78Z" transform="translate(-310.44 -782.53)"/><path class="cls-20" d="M413.68,1143.34h10.69l1.29-3.95a3.26,3.26,0,0,1,.7,0c0,1.71.05,3.41.08,5.11l0,.07c-1.15.12-2.29.31-3.44.33-3,0-5.92,0-9.06,0C413.86,1144.28,413.77,1143.81,413.68,1143.34Z" transform="translate(-310.44 -782.53)"/><path class="cls-20" d="M384.22,1143.29h11.5c.43-1.27.88-2.57,1.33-3.88.26.26.71.5.74.79a5.34,5.34,0,0,1-1.46,4.6,55.87,55.87,0,0,1-5.86.09c-1.94,0-3.87,0-6,0C384.39,1144.23,384.3,1143.76,384.22,1143.29Z" transform="translate(-310.44 -782.53)"/><path class="cls-20" d="M404.92,1114.69a4.7,4.7,0,0,0-.73,1.22,10.21,10.21,0,0,0-.13,1.93c-.58.27-1.16.79-1.74.78-3.39,0-6.78-.16-10.16-.26v-1l9.93-.4,2.11-3.78C405,1113.4,404.89,1114.08,404.92,1114.69Z" transform="translate(-310.44 -782.53)"/><path class="cls-13" d="M360.5,1144.26l16.19-.15h4.07l1.28-4.63,1.32.07c-.29,1.08-.49,2.07-.82,3-.25.73-.65,1.4-1.05,2.26-.94,0-1.84.08-2.74.08-5.39,0-10.78,0-16.17,0C361.84,1144.91,361,1145.18,360.5,1144.26Z" transform="translate(-310.44 -782.53)"/><path class="cls-20" d="M586.87,1147.47c.14,1.54.28,3.08.41,4.61,2.34,1.37,4.74.55,7,.78l-.24,1.31c-2.39.53-4.81.21-7.47.2l-1.85-6.9Z" transform="translate(-310.44 -782.53)"/><path class="cls-25" d="M363.54,1136.06h14.28c1.32-2,1.52-4.26,2.47-6.24.91.21.89.9.68,1.53-.56,1.74-1.2,3.45-1.91,5.45a61.83,61.83,0,0,1-7.73.17c-2.65,0-5.3,0-8.2,0C363.31,1136.57,363.42,1136.31,363.54,1136.06Z" transform="translate(-310.44 -782.53)"/><path class="cls-20" d="M404.92,1117.88c.39-.28.76-.75,1.17-.78,1.55-.09,3.12,0,4.68-.06.75,0,1.5-.19,2.47-.32l.6-3.46,1.27.14c.08,1.38.15,2.75.22,4.12l0,0a15.7,15.7,0,0,1-7.51,1.13A25.54,25.54,0,0,1,404.92,1117.88Z" transform="translate(-310.44 -782.53)"/><path class="cls-22" d="M545.58,1121.15c.09,1.67.17,3.34.27,5.25,1.11.08,2.11.17,3.11.21s2.08,0,3.12,0c-.07.38-.14.76-.22,1.26a12.28,12.28,0,0,1-5,.24,9.38,9.38,0,0,1-2.6-1v-5.61C544.53,1121,545.1,1121.19,545.58,1121.15Z" transform="translate(-310.44 -782.53)"/><path class="cls-24" d="M574.32,1121.07c.27.86.55,1.72.81,2.58a15.16,15.16,0,0,0,.43,1.5,13.45,13.45,0,0,0,.88,1.5h5.84c.13.19.38.41.35.58a.84.84,0,0,1-.47.54,14.41,14.41,0,0,1-7.46,0c-.45-2-.85-3.59-1.19-5.22C573.38,1121.9,573.48,1121.26,574.32,1121.07Z" transform="translate(-310.44 -782.53)"/><path class="cls-24" d="M546.48,1130.65v3.59c2.47.67,4.82.09,7.07.47-.07.38-.14.76-.24,1.27a49.68,49.68,0,0,1-7,.14c-2.09-1.4-1.13-3.38-1.49-5.32Z" transform="translate(-310.44 -782.53)"/><path class="cls-24" d="M555.2,1147.33c.07,1.69.13,3.37.2,5.1,1.3.76,2.63.38,3.89.43s2.62,0,3.93,0c.49.29.79.65.38,1.44a70.1,70.1,0,0,1-8.87.13,15.44,15.44,0,0,1-.14-6.65C554.62,1147.57,555,1147.46,555.2,1147.33Z" transform="translate(-310.44 -782.53)"/><path class="cls-24" d="M543.24,1147.36l.22,5.12c1.42.72,2.87.29,4.25.38s2.86.06,4.3.09c-.07.38-.13.76-.22,1.28a70.83,70.83,0,0,1-9,.16,15.79,15.79,0,0,1-.12-6.59C542.68,1147.63,543,1147.51,543.24,1147.36Z" transform="translate(-310.44 -782.53)"/><path class="cls-20" d="M586.48,1135.05c1.87.7,3.84-.31,5.78,1.33-2.75.91-4.93.45-7.23.51-.27-1.16-.43-2.17-.75-3.14s-.72-2,0-3c1.5,0,1,1.23,1.26,2S586.23,1134.42,586.48,1135.05Z" transform="translate(-310.44 -782.53)"/><path class="cls-20" d="M451.27,1113.85c0,1.35-.1,2.7-.16,4.05-2.63,1.34-5.43.66-8.17.63-.4,0-.79-.55-1.62-1.16,2.8-.6,5.14-.15,7.65-.42.47-1.14,1-2.39,1.51-3.7Z" transform="translate(-310.44 -782.53)"/><path class="cls-23" d="M442.36,1143.4H455a2,2,0,0,1-2,1.48q-4.27,0-8.55,0A2,2,0,0,1,442.36,1143.4Z" transform="translate(-310.44 -782.53)"/><path class="cls-18" d="M381.85,1153.66c2.35,0,4.7-.06,7,0a6.45,6.45,0,0,0,4-1.22l1.65-5.17c.85.13,1,.74.88,1.42a15.5,15.5,0,0,1-2,5.64c-3.54.21-7.16.12-10.78,0C382.37,1154.37,382.12,1153.91,381.85,1153.66Z" transform="translate(-310.44 -782.53)"/><path class="cls-20" d="M578,1135.15l4.3.47c-.86,1.38-.86,1.38-5,1.22-2.08-1.6-1-4.31-2.22-6.32l1.38-.59C576.92,1131.73,577.44,1133.43,578,1135.15Z" transform="translate(-310.44 -782.53)"/><path class="cls-25" d="M397.06,1135.5l12.35-.24c.51-1.57,1.29-3,1.1-4.59a1.31,1.31,0,0,1,1.23,1.66c-.18,1.15-.55,2.27-.89,3.63-.68.07-1.44.21-2.2.22-3.31,0-6.62,0-9.93,0C398.07,1136.19,397.38,1136.29,397.06,1135.5Z" transform="translate(-310.44 -782.53)"/><path class="cls-13" d="M426.47,1144.55l0-.07c1.41-.12,2.82-.33,4.23-.35,3-.06,5.93,0,9,0,.43-1.69.81-3.17,1.19-4.64l.84,1.43c0,.29-.06.57-.1.86-.1.9-.21,1.8-.34,2.89a14.27,14.27,0,0,1-1.89.26c-3.4,0-6.81,0-10.22,0A20.44,20.44,0,0,1,426.47,1144.55Z" transform="translate(-310.44 -782.53)"/><path class="cls-24" d="M506.75,1143.35l20.65,0c.68,0,1.33,0,1.58.81-6.74,0-13.48,0-20.23,0C508,1144.1,507.12,1144.38,506.75,1143.35Z" transform="translate(-310.44 -782.53)"/><path class="cls-26" d="M596.38,1147.46c.41,1.64.83,3.29,1.3,5.15a68.17,68.17,0,0,0,10.89.1l.39.6c-.19.12-.37.34-.55.34-3.76,0-7.53,0-11.1,0a7,7,0,0,1-.66-.79,4.45,4.45,0,0,1-.48-1.07c-.34-1.35-.64-2.72-1-4.17Z" transform="translate(-310.44 -782.53)"/><path class="cls-20" d="M493.19,1142.53h11.2c-.06.39-.13.77-.22,1.34-3.48.57-7,.05-10.62.32C493.4,1143.48,493.29,1143,493.19,1142.53Z" transform="translate(-310.44 -782.53)"/><path class="cls-25" d="M513.08,1130.64v4.47c2.85.48,5.56.2,8.25.24s5.2,0,7.8,0c-.27.25-.53.72-.8.72-5.22,0-10.44,0-15.9,0a13.81,13.81,0,0,1,0-5.09C512.49,1130.85,512.86,1130.76,513.08,1130.64Z" transform="translate(-310.44 -782.53)"/><path class="cls-18" d="M398.66,1144.24h10.81c1.94-1.27,1.74-3.09,2-4.74l1.3.11a9.47,9.47,0,0,1-1.43,5,77.23,77.23,0,0,1-12.18.21C399,1144.74,398.83,1144.42,398.66,1144.24Z" transform="translate(-310.44 -782.53)"/><path class="cls-22" d="M438.33,1135.38l10.28.07-.21,1.3a60.43,60.43,0,0,1-9.32.1c-.4,0-.78-.57-1.14-.92A4.4,4.4,0,0,1,438.33,1135.38Z" transform="translate(-310.44 -782.53)"/><path class="cls-18" d="M516.22,1113.93c0,.9.1,1.8.17,2.88,4.48.61,8.92,0,13.32.38-.29.23-.57.66-.86.66-4.54,0-9.08,0-13.86,0-.13-1.29-.24-2.4-.37-3.74Z" transform="translate(-310.44 -782.53)"/><path class="cls-22" d="M543.61,1113.53l.92-.24c.23,1.1.46,2.2.68,3.3.22.13.42.36.65.38,1.3.08,2.62.08,3.92.22.22,0,.39.54.69,1-2.05.83-4,.35-5.78.45C543.29,1116.86,543.29,1116.86,543.61,1113.53Z" transform="translate(-310.44 -782.53)"/><path class="cls-26" d="M570.19,1147.43l1.38,5.39,11.58,0a1.1,1.1,0,0,1-1.18.8H570.85a10.15,10.15,0,0,1-1.29-5.35C569.58,1148,570,1147.72,570.19,1147.43Z" transform="translate(-310.44 -782.53)"/><path class="cls-26" d="M593.36,1130.65c.56,1.72,1.13,3.45,1.73,5.27a47.77,47.77,0,0,0,8.7.1l.39.59c-.18.12-.36.34-.55.34-2.87,0-5.73,0-8.6,0a5.11,5.11,0,0,1-1.2-.3c-.4-1.48-.83-3-1.17-4.44C592.51,1131.59,592.55,1130.91,593.36,1130.65Z" transform="translate(-310.44 -782.53)"/><path class="cls-22" d="M451.73,1117.91a1.54,1.54,0,0,1,1.58-.84h8.92c-.05.38-.11.76-.17,1.21a3.43,3.43,0,0,1-1,.35c-2.57,0-5.13,0-7.7,0A1.57,1.57,0,0,1,451.73,1117.91Z" transform="translate(-310.44 -782.53)"/><path class="cls-23" d="M456.62,1143.33H467a2,2,0,0,1-2,1.56c-2.6,0-5.19,0-7.95,0C456.85,1144.27,456.74,1143.8,456.62,1143.33Z" transform="translate(-310.44 -782.53)"/><path class="cls-20" d="M568.36,1143.47c-.36-1.19-.69-2.29-1-3.47l1-.62,1.52,2.85a5.67,5.67,0,0,0,1.06.24,17.66,17.66,0,0,1,4.16.28c-.18.57-.21,1-.33,1A9.4,9.4,0,0,1,568.36,1143.47Z" transform="translate(-310.44 -782.53)"/><path class="cls-26" d="M357.19,1153.65h8.41c.71-2.15,1.4-4.21,2.08-6.27l1.26.17-2.29,6.71a52,52,0,0,1-8.72.13C357.68,1154.38,357.44,1153.91,357.19,1153.65Z" transform="translate(-310.44 -782.53)"/><path class="cls-25" d="M434.32,1126.46c2.45,0,4.9.1,7.35.13a8.67,8.67,0,0,0,1.34-.26c.1-1,.13-2,.3-3s.48-2,.72-3c.2.16.55.32.56.49.12,2.1.37,4.23-.95,6.35-3.07.59-6.37,0-9.94.32Z" transform="translate(-310.44 -782.53)"/><path class="cls-26" d="M422.47,1126.7l8.2-.18c1.53-1.56,1.41-3.41,1.37-5.24l1.45-.16c-.32,2-.63,3.86-1,6a15,15,0,0,1-2.14.33c-2.23,0-4.46,0-6.69,0A1.11,1.11,0,0,1,422.47,1126.7Z" transform="translate(-310.44 -782.53)"/><path class="cls-22" d="M480.51,1143.37l9.56,0-.23,1.32c-2.91.59-5.86.07-9,.31Z" transform="translate(-310.44 -782.53)"/><path class="cls-27" d="M397.06,1154.41a1,1,0,0,1,1.17-.76h6.86c1.75-1.93,1.36-4.35,2.27-6.32.82.2.93.84.78,1.5-.35,1.62-.77,3.23-1.15,4.82-1.49,1.36-3.26.67-4.87.77S398.75,1154.42,397.06,1154.41Z" transform="translate(-310.44 -782.53)"/><path class="cls-26" d="M415.36,1117.47l0,0,.72-.48c3.86,0,7.72,0,11.74,0,.11-1.19.18-2.07.26-3l1.13-.11c.1.29.3.56.25.76-.29,1-.64,2-1,3.09C424,1117.69,419.68,1118.37,415.36,1117.47Z" transform="translate(-310.44 -782.53)"/><path class="cls-26" d="M427.16,1135.26h8.15c.95-.86.53-1.88.76-2.73s.53-1.76.81-2.64a2.26,2.26,0,0,1,.52,0l.12,3.9c-.41.72-.83,1.45-1.3,2.3h-9.36C427,1135.78,427.07,1135.52,427.16,1135.26Z" transform="translate(-310.44 -782.53)"/><path class="cls-22" d="M474.15,1117.13l8.7,0c-.06.38-.11.75-.19,1.3-2.65.51-5.32.13-8.16.27C474.36,1118.06,474.26,1117.6,474.15,1117.13Z" transform="translate(-310.44 -782.53)"/><path class="cls-22" d="M472.49,1118.3a22,22,0,0,1-7.49.15c-.36,0-.66-.63-1.27-1.25a39.54,39.54,0,0,1,8.16,0C472.09,1117.26,472.22,1117.81,472.49,1118.3Z" transform="translate(-310.44 -782.53)"/><path class="cls-13" d="M556,1130.79c.07,1.29.14,2.57.2,3.86,2.69,1.29,5.34.44,7.87.71-.26.26-.53.73-.8.73-2.49.06-5,0-7.65,0l-1.11-4.72C554.92,1130.5,555.49,1130.77,556,1130.79Z" transform="translate(-310.44 -782.53)"/><path class="cls-26" d="M565.56,1121.94c-.15,1.62.61,3,1.08,4.52l6,.32c-.43.22-.86.61-1.31.62-2,.07-3.94,0-6.15,0-.14-.94-.27-1.8-.39-2.66s-.23-1.75-.36-2.71Z" transform="translate(-310.44 -782.53)"/><path class="cls-27" d="M583.34,1121.28c2.15,1.1.73,3.67,2.88,5.12l2.91.32c-.24.34-.35.62-.46.62-1.43,0-2.86,0-4.44,0C583.81,1125.34,582.51,1123.55,583.34,1121.28Z" transform="translate(-310.44 -782.53)"/><path class="cls-8" d="M503.52,1126.49l15.19.12c-.24.83-.92.8-1.57.8l-14.27-.05c-.25-.14-.34-.29-.26-.45s.15-.24.23-.24A2,2,0,0,0,503.52,1126.49Z" transform="translate(-310.44 -782.53)"/><path class="cls-13" d="M430.35,1117h8.1a5.12,5.12,0,0,0,1.55-3.85c.12,0,.31.07.36.16.89,1.58.28,3-.37,4.42-1.12,0-2,.12-2.95.13-2.33,0-4.67,0-7.18,0Z" transform="translate(-310.44 -782.53)"/><path class="cls-24" d="M552.52,1117.84a4.5,4.5,0,0,1-.17-3.73,5,5,0,0,1,1.63,2.68c2.35.67,4.91-.22,8,.74C558.43,1118.14,555.57,1117.85,552.52,1117.84Z" transform="translate(-310.44 -782.53)"/><path class="cls-25" d="M534.59,1121.67c.32,1.51.63,3,1,4.69,2.51.57,5.12,0,7.67.36-.28.23-.55.65-.84.65-2.46.06-4.93,0-7.59,0-.16-.69-.29-1.28-.45-1.86a12.62,12.62,0,0,1-.53-1.86C533.76,1122.93,533.66,1122.09,534.59,1121.67Z" transform="translate(-310.44 -782.53)"/><path class="cls-26" d="M531.44,1153.56l-.15-.79v-5.17l.79-.24c.06,1.69.13,3.37.2,5.09,1.33.71,2.66.35,3.93.4s2.63,0,3.94,0a.93.93,0,0,1-1,.84Z" transform="translate(-310.44 -782.53)"/><path class="cls-27" d="M567.19,1130.53l1,4.57c1.72.55,3.51.14,5.27.28-.15.21-.26.57-.44.6a29.16,29.16,0,0,1-6.35.09,15.5,15.5,0,0,1-.29-4.8C566.42,1131,566.91,1130.78,567.19,1130.53Z" transform="translate(-310.44 -782.53)"/><path class="cls-27" d="M521.86,1121v5c1.38.88,2.72.45,4,.52s2.62.05,3.93.07c-.28.24-.56.68-.84.68-2.49.06-5,0-7.68,0a13.88,13.88,0,0,1,0-6C521.25,1121.24,521.64,1121.16,521.86,1121Z" transform="translate(-310.44 -782.53)"/><path class="cls-18" d="M406.58,1127.38c.3-.78,1-.75,1.63-.75h12.65c-.21.81-.84.85-1.5.84Z" transform="translate(-310.44 -782.53)"/><path class="cls-24" d="M576.73,1140.53c.4-.48.64-.78,1.06-1.3.64,1.55,1.1,2.69,1.54,3.74,1.68.7,3.45-.11,5.53.85a31.36,31.36,0,0,1-6.87.29Z" transform="translate(-310.44 -782.53)"/><path class="cls-25" d="M497.38,1136.07c.26-.84,1-.7,1.59-.7h11.74a1,1,0,0,1-1.14.8Z" transform="translate(-310.44 -782.53)"/><path class="cls-13" d="M380.26,1126.62c3.15,0,6.3,0,9.44,0a5.89,5.89,0,0,0,3.32-.82l-.13,1.1c-.25.17-.45.43-.66.44-3.61,0-7.23.05-10.84.07A1,1,0,0,1,380.26,1126.62Z" transform="translate(-310.44 -782.53)"/><path class="cls-18" d="M394.57,1126.6c3.68-.07,7.37.34,11.07-.32l.09,1.15-11.24,0c-.08,0-.16-.15-.26-.24Z" transform="translate(-310.44 -782.53)"/><path class="cls-25" d="M542,1143v-2.54l.31-.07c.18.55.37,1.1.61,1.85,2.83.67,5.9-.16,9.18.55A24.94,24.94,0,0,1,542,1143Z" transform="translate(-310.44 -782.53)"/><path class="cls-18" d="M504.32,1153.66h11.09c.66,0,1.33-.05,1.59.77l-11.09,0C505.24,1154.48,504.59,1154.45,504.32,1153.66Z" transform="translate(-310.44 -782.53)"/><path class="cls-28" d="M484.44,1135.27l11,.26c-.37.73-1.06.63-1.69.63h-9.67Z" transform="translate(-310.44 -782.53)"/><path class="cls-28" d="M489.3,1126.73l11.86-.11c-.26.25-.51.71-.77.72-3.41.06-6.82.06-10.23,0C489.87,1127.36,489.59,1127,489.3,1126.73Z" transform="translate(-310.44 -782.53)"/><path class="cls-25" d="M595,1143.32l11.15,0c-.26.24-.52.68-.78.68-3.21,0-6.43,0-9.64,0C595.45,1144,595.22,1143.57,595,1143.32Z" transform="translate(-310.44 -782.53)"/><path class="cls-13" d="M586.78,1144.06a5.5,5.5,0,0,1-.13-4.2c.65,1.29,1.1,2.16,1.65,3.26l3.4.26c-.31.39-.42.66-.53.66C589.75,1144.07,588.33,1144.06,586.78,1144.06Z" transform="translate(-310.44 -782.53)"/><path class="cls-28" d="M445.47,1126.57l9.59,0c-.25.24-.5.7-.75.71-3,.05-6.08,0-9.25,0Z" transform="translate(-310.44 -782.53)"/><path class="cls-8" d="M484.44,1117.75l9.55.14c-.15.61-.59.77-1.16.77H484Z" transform="translate(-310.44 -782.53)"/><path class="cls-18" d="M461.41,1135.4l10.38,0c-.25.26-.5.74-.76.74-2.95.06-5.9.06-8.85,0C461.92,1136.11,461.66,1135.65,461.41,1135.4Z" transform="translate(-310.44 -782.53)"/><path class="cls-13" d="M535.33,1133c1.27.21.52,1.57,1.53,2.39h6.52c-.26.25-.52.7-.79.71-2.29,0-4.58,0-6.86,0C535.05,1135,535.35,1134,535.33,1133Z" transform="translate(-310.44 -782.53)"/><path class="cls-28" d="M495.63,1117.94l9.45,0c-.28.23-.55.67-.83.67q-3.9.06-7.8,0C496.17,1118.61,495.9,1118.18,495.63,1117.94Z" transform="translate(-310.44 -782.53)"/><path class="cls-26" d="M473.39,1135.47l9.38,0c-.28.22-.56.61-.85.62q-3.85.06-7.69,0C473.94,1136.1,473.67,1135.7,473.39,1135.47Z" transform="translate(-310.44 -782.53)"/><path class="cls-28" d="M450.26,1135.39l9.46.1c-.29.22-.58.62-.87.63q-3.92.06-7.82,0C450.77,1136.09,450.52,1135.63,450.26,1135.39Z" transform="translate(-310.44 -782.53)"/><path class="cls-13" d="M591.8,1126.63l9.59,0c-.12.22-.24.61-.37.61-2.94,0-5.89,0-8.83,0C592.05,1127.22,591.93,1126.83,591.8,1126.63Z" transform="translate(-310.44 -782.53)"/><path class="cls-25" d="M457.4,1126.55l8.75.08c-.25.24-.49.69-.75.7-2.77.17-5.53.06-8.48.09Z" transform="translate(-310.44 -782.53)"/><path class="cls-25" d="M469.39,1143.4l8.73-.08c-.26.25-.52.71-.78.71q-3.55.1-7.11,0C470,1144.05,469.67,1143.63,469.39,1143.4Z" transform="translate(-310.44 -782.53)"/><path class="cls-28" d="M468.58,1126.68h8.68c-.27.24-.53.67-.81.67q-3.52.09-7.05,0C469.13,1127.35,468.86,1126.92,468.58,1126.68Z" transform="translate(-310.44 -782.53)"/><path class="cls-28" d="M478.89,1126.62h8.74c-.24.24-.49.69-.74.7q-3.64.08-7.27,0C479.37,1127.32,479.13,1126.87,478.89,1126.62Z" transform="translate(-310.44 -782.53)"/><path class="cls-26" d="M534.49,1114.12l.09,3.79-1.16-.22a4.56,4.56,0,0,1-.14-3.69Z" transform="translate(-310.44 -782.53)"/><path class="cls-27" d="M554.35,1121.14c.32,1.81.65,3.62,1,5.43a.54.54,0,0,1-.9,0,6.61,6.61,0,0,1-.64-5C553.81,1121.39,554.15,1121.27,554.35,1121.14Z" transform="translate(-310.44 -782.53)"/><path class="cls-28" d="M554.42,1126.61l.9,0,7.07.06c-.25.24-.49.69-.75.7-2.16.06-4.33.06-6.49,0C554.9,1127.33,554.67,1126.86,554.42,1126.61Z" transform="translate(-310.44 -782.53)"/><path class="cls-28" d="M513.34,1118.19a17,17,0,0,1-7.22.17A16,16,0,0,1,513.34,1118.19Z" transform="translate(-310.44 -782.53)"/><path class="cls-26" d="M534.53,1117.87h7.2c-.25.25-.49.71-.75.72-1.91.06-3.83.06-5.74,0C535,1118.59,534.76,1118.12,534.53,1117.87Z" transform="translate(-310.44 -782.53)"/><path class="cls-13" d="M393,1125.86a5.85,5.85,0,0,1,.58-3.68,5,5,0,0,0,.31-1.85c.25.25.71.49.71.74A6.86,6.86,0,0,1,393,1125.86Z" transform="translate(-310.44 -782.53)"/><path class="cls-18" d="M420.84,1126.65c0-1,0-2,0-2.93a1,1,0,0,1,1.17-1.07c-.13,1-.2,1.95-.42,2.9A3.88,3.88,0,0,1,420.84,1126.65Z" transform="translate(-310.44 -782.53)"/><path class="cls-13" d="M591.05,1121.75c0,1.11,0,2.21,0,3.32-1.12-.44-.82-1.46-.81-2.27C590.24,1122.45,590.76,1122.1,591.05,1121.75Z" transform="translate(-310.44 -782.53)"/><path class="cls-25" d="M594,1140.9a1,1,0,0,1,1,.94c0,.51,0,1,.06,1.52a4.49,4.49,0,0,1-.79-1A6.11,6.11,0,0,1,594,1140.9Z" transform="translate(-310.44 -782.53)"/><path class="cls-13" d="M535.37,1130.53c0,.83,0,1.66,0,2.49C534.31,1132,534.31,1131.5,535.37,1130.53Z" transform="translate(-310.44 -782.53)"/><path class="cls-13" d="M591,1125c1,.15.83,1,.83,1.63C590.78,1126.51,591,1125.71,591,1125Z" transform="translate(-310.44 -782.53)"/><path class="cls-16" d="M502.84,1126.67a1,1,0,0,0,0,.69l-.92-.73h0Z" transform="translate(-310.44 -782.53)"/><path class="cls-7" d="M660.78,1095.05a18.39,18.39,0,0,0-.58-3.3,32.09,32.09,0,0,0-2.46-6.22c-.93-1.77-2.45-3.3-4.56-3.33a.8.8,0,0,0,0,1.6,3.73,3.73,0,0,1,3,2.21,27.32,27.32,0,0,1,1.79,4.07,19.69,19.69,0,0,1,1.13,4.26,11.65,11.65,0,0,1,.1,2.21c0,.28,0,.74-.33.84s-.48-.2-.47-.49c0-1-1.56-1-1.6,0a2,2,0,0,0,3.56,1.3A5,5,0,0,0,660.78,1095.05Z" transform="translate(-310.44 -782.53)"/><path class="cls-29" d="M621.73,857c-.78,0-1.54-.06-2.31-.06-3.18,0-6.36,0-9.54,0q-41.14-.13-82.3-.3c-2.11,0-4.22-.28-6.33-.3s-4,.24-5.94.23c-4.89,0-9.77-.24-14.65-.25-25.84-.08-51.68-.08-77.53-.2-9-.05-18-.39-27-.58a8.18,8.18,0,0,0-1.48.25v153.6c2.33-.07,4.54-.19,6.75-.2l214.29-.06c2,0,3.93,0,5.88-.07a5.56,5.56,0,0,0,.4-1.31q.07-74.73.11-149.46A5.31,5.31,0,0,0,621.73,857ZM585.6,877.05v94.29h-154V877.05Z" transform="translate(-310.44 -782.53)"/><path class="cls-9" d="M392.18,1117.12c-1-.67-1-.83-.05-1.88C392.15,1115.87,392.16,1116.49,392.18,1117.12Z" transform="translate(-310.44 -782.53)"/><path class="cls-5" d="M594.78,978l-8.35-7.44c-1.12-1-2.79.65-1.66,1.66l8.35,7.44c1.13,1,2.79-.65,1.66-1.66Z" transform="translate(-310.44 -782.53)"/><path class="cls-5" d="M430.79,970.51,423.05,978c-1.09,1,.57,2.71,1.66,1.66l7.74-7.44c1.1-1-.57-2.71-1.66-1.66Z" transform="translate(-310.44 -782.53)"/><path class="cls-5" d="M584.43,877.05v94.29l1.17-1.17H434a8.79,8.79,0,0,0-2.05,0,1.31,1.31,0,0,1-.28,0l1.18,1.17V877.05a1.19,1.19,0,0,0-1.18-1.17h-7.74a1.19,1.19,0,0,0-1.17,1.17V978.78a1.19,1.19,0,0,0,1.17,1.18H587c2.2,0,4.48.17,6.67,0h.3a1.2,1.2,0,0,0,1.18-1.18V877.05a1.19,1.19,0,0,0-1.18-1.17H585.6a1.18,1.18,0,0,0,0,2.35H594l-1.17-1.18V978.78l1.17-1.17H426.46a10.14,10.14,0,0,0-2.27,0,1.6,1.6,0,0,1-.31,0l1.18,1.17V877.05l-1.18,1.18h7.74l-1.17-1.18v94.29a1.19,1.19,0,0,0,1.17,1.17H579.31c2,0,4,.17,6,0h.27a1.19,1.19,0,0,0,1.18-1.17V877.05A1.18,1.18,0,0,0,584.43,877.05Z" transform="translate(-310.44 -782.53)"/><path class="cls-30" d="M431.62,878.23H579.31c2,0,4,.17,6,0h.27a1.18,1.18,0,0,0,0-2.35H437.92c-2,0-4-.17-6,0h-.28a1.18,1.18,0,0,0,0,2.35Z" transform="translate(-310.44 -782.53)"/><rect class="cls-31" x="335.77" y="32.67" width="22.79" height="22.79"/><path class="cls-3" d="M669,836.81H646.21l1.17,1.17V815.19l-1.17,1.18H669l-1.18-1.18V838a1.18,1.18,0,0,0,2.35,0V815.19A1.19,1.19,0,0,0,669,814H646.21a1.19,1.19,0,0,0-1.18,1.17V838a1.2,1.2,0,0,0,1.18,1.18H669A1.18,1.18,0,0,0,669,836.81Z" transform="translate(-310.44 -782.53)"/><rect class="cls-2" x="335.77" y="62.96" width="22.79" height="22.79"/><path class="cls-3" d="M669,867.1H646.21l1.17,1.17V845.49l-1.17,1.17H669l-1.18-1.17v22.78a1.18,1.18,0,0,0,2.35,0V845.49a1.19,1.19,0,0,0-1.17-1.18H646.21a1.2,1.2,0,0,0-1.18,1.18v22.78a1.2,1.2,0,0,0,1.18,1.18H669A1.18,1.18,0,0,0,669,867.1Z" transform="translate(-310.44 -782.53)"/><rect class="cls-32" x="335.77" y="93.25" width="22.79" height="22.79"/><path class="cls-3" d="M669,897.39H646.21l1.17,1.18V875.78L646.21,877H669l-1.18-1.17v22.79a1.18,1.18,0,0,0,2.35,0V875.78A1.19,1.19,0,0,0,669,874.6H646.21a1.2,1.2,0,0,0-1.18,1.18v22.79a1.19,1.19,0,0,0,1.18,1.17H669A1.18,1.18,0,0,0,669,897.39Z" transform="translate(-310.44 -782.53)"/><rect class="cls-33" x="335.77" y="123.54" width="22.79" height="22.79"/><path class="cls-3" d="M669,927.68H646.21l1.17,1.18V906.07l-1.17,1.17H669l-1.18-1.17v22.79a1.18,1.18,0,0,0,2.35,0V906.07A1.18,1.18,0,0,0,669,904.9H646.21a1.19,1.19,0,0,0-1.18,1.17v22.79a1.19,1.19,0,0,0,1.18,1.17H669A1.18,1.18,0,0,0,669,927.68Z" transform="translate(-310.44 -782.53)"/><rect class="cls-34" x="335.77" y="153.83" width="22.79" height="22.79"/><path class="cls-3" d="M669,958H646.21l1.17,1.17V936.36l-1.17,1.18H669l-1.18-1.18v22.79a1.18,1.18,0,0,0,2.35,0V936.36a1.19,1.19,0,0,0-1.17-1.17H646.21a1.19,1.19,0,0,0-1.18,1.17v22.79a1.19,1.19,0,0,0,1.18,1.17H669A1.17,1.17,0,0,0,669,958Z" transform="translate(-310.44 -782.53)"/><rect class="cls-35" x="335.77" y="184.13" width="22.79" height="22.79"/><path class="cls-3" d="M669,988.27H646.21l1.17,1.17V966.65l-1.17,1.18H669l-1.18-1.18v22.79a1.18,1.18,0,0,0,2.35,0V966.65a1.19,1.19,0,0,0-1.17-1.17H646.21a1.19,1.19,0,0,0-1.18,1.17v22.79a1.2,1.2,0,0,0,1.18,1.18H669A1.18,1.18,0,0,0,669,988.27Z" transform="translate(-310.44 -782.53)"/><rect class="cls-36" x="335.77" y="214.42" width="22.79" height="22.79"/><path class="cls-3" d="M669,1018.56H646.21l1.17,1.17V997l-1.17,1.17H669L667.82,997v22.78a1.18,1.18,0,0,0,2.35,0V997a1.19,1.19,0,0,0-1.17-1.18H646.21A1.2,1.2,0,0,0,645,997v22.78a1.2,1.2,0,0,0,1.18,1.18H669A1.18,1.18,0,0,0,669,1018.56Z" transform="translate(-310.44 -782.53)"/><rect class="cls-37" x="335.77" y="244.38" width="22.79" height="22.79"/><path class="cls-3" d="M669,1048.52H646.21l1.17,1.18v-22.79l-1.17,1.17H669l-1.18-1.17v22.79a1.18,1.18,0,0,0,2.35,0v-22.79a1.18,1.18,0,0,0-1.17-1.17H646.21a1.19,1.19,0,0,0-1.18,1.17v22.79a1.19,1.19,0,0,0,1.18,1.17H669A1.18,1.18,0,0,0,669,1048.52Z" transform="translate(-310.44 -782.53)"/><path class="cls-30" d="M559.66,924.42c-.08,2.13-1.1,5.31-3.74,5.31s-3.74-3.18-3.74-5.31,1-4.93,3.38-5.25c2.84-.39,4,3,4.1,5.25,0,.63,1,.64,1,0-.09-2.68-1.5-6.28-4.71-6.28s-4.71,3.6-4.72,6.28,1.58,6.29,4.72,6.29,4.62-3.6,4.71-6.29C560.66,923.79,559.68,923.8,559.66,924.42Z" transform="translate(-310.44 -782.53)"/><path class="cls-30" d="M574.2,924.2c-.08,12.84-6,26.85-18.21,32.52-11.8,5.47-24.61-.24-31.42-10.61-7.62-11.6-8.33-27.5-2.23-39.91,5.39-11,16.92-19.18,29.51-16,14.8,3.74,22.26,19.86,22.35,34a.49.49,0,0,0,1,0c-.09-13.4-6.4-28.08-19.35-33.67-11.89-5.13-24.62.38-31.67,10.61-8.23,11.94-9,28.62-2.67,41.55,5.56,11.3,17.45,19.64,30.38,16.5,15.37-3.72,23.21-20.36,23.31-35A.49.49,0,0,0,574.2,924.2Z" transform="translate(-310.44 -782.53)"/><path class="cls-30" d="M574,924.2c-.09,12.79-5.95,26.74-18.13,32.38-11.72,5.43-24.44-.26-31.2-10.55-7.58-11.55-8.3-27.39-2.23-39.75,5.36-10.91,16.8-19.09,29.32-15.92,14.73,3.72,22.14,19.77,22.24,33.84a.65.65,0,0,0,1.3,0c-.09-13.46-6.43-28.19-19.42-33.81-12-5.18-24.79.36-31.9,10.67-8.26,12-9.06,28.73-2.67,41.71,5.6,11.37,17.56,19.73,30.57,16.58,15.43-3.74,23.32-20.44,23.42-35.15A.65.65,0,0,0,574,924.2Z" transform="translate(-310.44 -782.53)"/><path class="cls-30" d="M574,924.2c-.09,13.07-6.5,26.84-18.94,32.36-12.17,5.39-25.59-.07-32.8-10.69-7.77-11.44-8.55-27.21-2.28-39.49,5.74-11.23,17.8-19.08,30.63-16,15.07,3.57,23.29,19.32,23.39,33.86a.67.67,0,0,0,1.34,0c-.1-13.69-6.94-28.12-20.06-33.71-12.48-5.32-26.1,0-33.73,10.73-8.46,11.87-9.31,28.56-2.72,41.47,6,11.77,18.73,19.82,32.14,16.65,15.64-3.71,24.26-20,24.37-35.14A.67.67,0,0,0,574,924.2Z" transform="translate(-310.44 -782.53)"/><path class="cls-30" d="M574.2,924.2c-.08,12.75-5.89,26.7-18,32.42-11.76,5.56-24.6,0-31.5-10.29a40.32,40.32,0,0,1-6.43-22.13.49.49,0,0,0-1,0c.09,13.4,6.4,28.07,19.34,33.66,11.89,5.14,24.62-.37,31.68-10.6a41.07,41.07,0,0,0,6.85-23.06.49.49,0,0,0-1,0Z" transform="translate(-310.44 -782.53)"/><path class="cls-30" d="M572.78,924.2c-.08,11.17-4.76,23.94-15.42,29.12-10.23,5-21-.54-26.6-9.61-6.42-10.42-6.94-24.44-1.87-35.51,4.35-9.5,14-17.34,24.93-14.45,13,3.43,18.87,18.24,19,30.45a.49.49,0,0,0,1,0c-.09-11.66-5.09-25-16.32-30.17-10.34-4.79-21.23.47-27.1,9.5-7,10.78-7.64,25.58-2.3,37.16,4.54,9.83,14.51,17.8,25.82,14.95,13.53-3.4,19.81-18.74,19.9-31.44A.49.49,0,0,0,572.78,924.2Z" transform="translate(-310.44 -782.53)"/><path class="cls-30" d="M570.85,923.91c-.07,8.6-3.36,18.65-11.49,22.88-7.87,4.1-16.05-.62-20.13-7.66a31.69,31.69,0,0,1-1.41-27.61c3.12-7.29,10.25-13.89,18.73-11.6,10,2.73,14.22,14.66,14.3,24a.49.49,0,0,0,1,0c-.08-9-3.67-19.71-12.38-23.93-8-3.87-16.28.51-20.66,7.54-5.36,8.6-5.79,20.28-1.74,29.47,3.33,7.55,10.79,14.12,19.54,11.9,10.62-2.69,15.15-15.15,15.24-25A.49.49,0,0,0,570.85,923.91Z" transform="translate(-310.44 -782.53)"/><path class="cls-30" d="M563.41,925.07c-.08,5.46-3,13.25-9.55,13.25s-9.56-7.8-9.56-13.25,3-13.25,9.56-13.25,9.47,7.79,9.55,13.25a.49.49,0,0,0,1,0c-.08-5.14-2.09-11.11-7.07-13.44-4.4-2.06-9,.28-11.42,4.1a18.12,18.12,0,0,0-1.11,16.6c1.87,4.25,6,7.93,11,6.74,6-1.45,8.56-8.47,8.65-14A.49.49,0,0,0,563.41,925.07Z" transform="translate(-310.44 -782.53)"/><ellipse class="cls-38" cx="245.48" cy="141.9" rx="4.23" ry="5.8"/><path class="cls-30" d="M549.36,923.94l-24,2.36c-.62.06-.63,1,0,1l24-2.37c.62-.06.63-1,0-1Z" transform="translate(-310.44 -782.53)"/><path class="cls-30" d="M551.7,918.34l-12-23.06c-.29-.56-1.14-.07-.85.49l12,23.06c.29.56,1.13.07.84-.49Z" transform="translate(-310.44 -782.53)"/><path class="cls-30" d="M557.28,916.91l7.1-17.75c.23-.59-.72-.84-1-.26l-7.09,17.75c-.24.59.71.84.94.26Z" transform="translate(-310.44 -782.53)"/><path class="cls-30" d="M560.07,923.85l11.27-1.06c.63,0,.63-1,0-1l-11.27,1c-.62.06-.63,1,0,1Z" transform="translate(-310.44 -782.53)"/><path class="cls-30" d="M551.22,930.58,542,953.86c-.23.59.72.84,1,.26l9.18-23.28c.23-.58-.72-.84-.95-.26Z" transform="translate(-310.44 -782.53)"/><path class="cls-30" d="M556.77,931.49,565.42,947c.3.55,1.15.06.84-.49L557.61,931a.49.49,0,0,0-.84.49Z" transform="translate(-310.44 -782.53)"/><path class="cls-30" d="M542.27,953.57l-6.55,3c-.57.26-.08,1.11.49.85l6.55-3c.57-.26.08-1.1-.49-.84Z" transform="translate(-310.44 -782.53)"/><path class="cls-30" d="M539.54,895.1l-6-2.65c-.57-.25-1.07.59-.5.84l6,2.66c.57.25,1.07-.59.49-.85Z" transform="translate(-310.44 -782.53)"/><path class="cls-30" d="M564.39,899v-2.42a.49.49,0,0,0-1,0V899a.49.49,0,0,0,1,0Z" transform="translate(-310.44 -782.53)"/><path class="cls-30" d="M559.66,924.42c-.08,2.8-1.4,7.16-4.91,7.16s-4.9-4.34-4.9-7.16,1.45-7.16,4.9-7.15,4.83,4.35,4.91,7.15a.49.49,0,0,0,1,0c-.09-3.34-1.8-8.14-5.88-8.12s-5.88,4.74-5.88,8.12,1.86,8.13,5.88,8.13,5.79-4.77,5.88-8.13C560.65,923.79,559.67,923.8,559.66,924.42Z" transform="translate(-310.44 -782.53)"/><path class="cls-39" d="M593.86,1017.89h24.4s-3.61,29.95,0,33c0,0-23.29-1.67-24.4,0S596.35,1017.62,593.86,1017.89Z" transform="translate(-310.44 -782.53)"/><path class="cls-5" d="M593.86,1019.07h24.4l-1.18-1.18c-.63,5.3-1.1,10.64-1.38,16a91.63,91.63,0,0,0-.1,11.24c.14,2.05.19,5.1,1.83,6.62l.83-2q-5.89-.42-11.79-.62c-2.72-.1-5.45-.17-8.17-.09-1.45,0-3.56-.1-4.85.72a1.59,1.59,0,0,0-.61.57l2,.26a.43.43,0,0,1,0-.11c-.07.13,0,.18,0,0a10.72,10.72,0,0,0,0-1.7c0-2.07.17-4.13.29-6.2.31-5.38.66-10.76.78-16.15,0-1.64,1-9.66-2-9.64a1.18,1.18,0,0,0,0,2.35c-.85,0-.69-.75-.49.4a15.59,15.59,0,0,1,.18,2.15c.09,2.27,0,4.54,0,6.81-.18,5.29-.54,10.57-.82,15.86-.07,1.22-1.26,7.83,1.11,7.83.4,0,.53-.22.87-.37.79-.36-.42.08,0,0a13.28,13.28,0,0,1,2.43-.33c2.52-.14,5.06-.09,7.59,0,4.52.12,9,.36,13.57.68a1.18,1.18,0,0,0,.83-2c-1.32-1.22-1.15-4.65-1.21-6.3-.15-3.7,0-7.42.23-11.12.3-4.93.73-9.85,1.32-14.75a1.18,1.18,0,0,0-1.17-1.17h-24.4A1.18,1.18,0,0,0,593.86,1019.07Z" transform="translate(-310.44 -782.53)"/><path class="cls-40" d="M576.16,1025.72h25s3.84,20.31-.87,36.11c-3-.54.42-4.81-26-2.28C574.22,1059.55,579.49,1052.89,576.16,1025.72Z" transform="translate(-310.44 -782.53)"/><path class="cls-5" d="M576.16,1026.9h25L600,1026c2.15,11.45,2.39,24.25-.87,35.48l1.44-.82c-.54-.11-.23,0-.66-.28.18.12-.35-.31-.55-.47a8.39,8.39,0,0,0-3.08-1.56,27.65,27.65,0,0,0-7.14-.8,135,135,0,0,0-14.9.78l.83,2c1.51-1.94,2.07-4.75,2.49-7.1,1.65-9,.88-18.5-.21-27.56-.17-1.48-2.52-1.5-2.34,0,1,8.73,1.87,17.92.34,26.65a24.54,24.54,0,0,1-1.41,5.25c-.07.17-.32.66-.47,1s-.45.64-.06.14c-.55.7-.3,2.11.83,2a136.17,136.17,0,0,1,14.7-.78,25.39,25.39,0,0,1,6.89.76c1.65.49,2.3,1.9,4.12,2.26a1.19,1.19,0,0,0,1.44-.82c3.39-11.65,3.1-24.85.87-36.73a1.17,1.17,0,0,0-1.13-.86h-25A1.18,1.18,0,0,0,576.16,1026.9Z" transform="translate(-310.44 -782.53)"/><path class="cls-39" d="M423,1028.44h28.91s-2.47,21.25,0,30.64c0,0-7.41,6.73-15.56,2.75,0,0-7.66-3.25-14.33-2.75C422.05,1059.08,425.51,1032.89,423,1028.44Z" transform="translate(-310.44 -782.53)"/><path class="cls-5" d="M423,1029.61h28.91l-1.17-1.17c-.46,4-.75,8-.94,12-.28,6.22-.56,12.83,1,18.92l.3-1.14c-3.47,3.11-8.8,4.62-13.23,3-5.13-1.92-10.26-3.62-15.83-3.31l1.17,1.18c.62-4.68,1.09-9.37,1.45-14.07.27-3.47.48-7,.42-10.44,0-2.19,0-4.74-1-6.72-.7-1.35-2.72-.16-2,1.18,1,1.86.73,4.61.73,6.62,0,3.4-.22,6.8-.49,10.19q-.52,6.63-1.39,13.24a1.17,1.17,0,0,0,1.18,1.17,31.41,31.41,0,0,1,11.24,1.71c2.2.71,4.29,1.84,6.6,2.16a16.55,16.55,0,0,0,12.88-4.21,1.15,1.15,0,0,0,.31-1.14c-1.53-6-1.18-12.62-.88-18.77.19-3.86.47-7.72.92-11.56a1.2,1.2,0,0,0-1.18-1.18H423A1.18,1.18,0,0,0,423,1029.61Z" transform="translate(-310.44 -782.53)"/></svg>