<svg id="圖層_6" data-name="圖層 6" xmlns="http://www.w3.org/2000/svg" viewBox="0 0 406.23 551.31"><defs><style>.cls-1{opacity:0.4;}.cls-2{fill:#eee6db;}.cls-3{fill:#3b3832;}.cls-4{opacity:0.49;}.cls-5{fill:#8fadad;}.cls-6{fill:#040000;}.cls-7{fill:#3a3832;}.cls-8{fill:#395a5a;}.cls-9{fill:#549594;}.cls-10{fill:#393832;}.cls-11{fill:#3b7071;}.cls-12{fill:#55637c;}.cls-13{fill:#d37e6f;}.cls-14{fill:#fff;}.cls-15{fill:#e7c694;}.cls-16{fill:#5b8985;}.cls-17{opacity:0.5;}.cls-18{fill:#ac5f51;}.cls-19{fill:#c97160;}</style></defs><title>風扇</title><g class="cls-1"><ellipse class="cls-2" cx="218.52" cy="185.45" rx="147.36" ry="182.24"/><path class="cls-3" d="M1158.27,956.14c-.23,66.85-31.43,139.9-95.16,169a120.35,120.35,0,0,1-89.58,4.08c-30-10.51-54.83-32.47-72.23-58.69-40-60.21-43.83-143.1-12.11-207.69,14.14-28.79,35.71-54.47,63.82-70.43,26.88-15.25,58.77-20.19,88.86-12.69,66.77,16.63,106.86,84.47,114.75,149.07a231.39,231.39,0,0,1,1.65,27.34c0,3,4.66,3,4.65,0-.23-68.7-32.71-144.18-98.58-173.52a125,125,0,0,0-92-4.06c-30.73,10.79-56.2,33-74.26,59.72-41.63,61.7-45.48,147.1-12.85,213.49,14.57,29.65,37,56.11,66,72.4,27.85,15.64,60.82,20.61,91.91,12.86,68.34-17,109.51-86,118-152.07a233.31,233.31,0,0,0,1.84-28.82C1162.93,953.15,1158.28,953.14,1158.27,956.14Z" transform="translate(-794.71 -770.69)"/></g><g class="cls-4"><path class="cls-5" d="M1010.15,1138.12c-81,0-146.93-81.56-146.93-181.81,0-47.06,14.48-91.7,40.77-125.68s61.39-53.72,99.12-55.92c2.32-.14,4.69-.21,7-.21,81,0,146.93,81.56,146.93,181.81,0,48.51-15.26,94.14-43,128.46s-64.49,53.24-103.65,53.35Z" transform="translate(-794.71 -770.69)"/><path class="cls-6" d="M1010.15,774.94c39.1,0,75.86,18.84,103.52,53s43,79.84,43,128.32-15.22,93.94-42.86,128.19-64.28,53.08-103.3,53.18h-.33c-39.09,0-75.86-18.84-103.52-53s-43-79.84-43-128.32c0-47,14.44-91.5,40.67-125.42,26.11-33.75,61.2-53.55,98.81-55.75,2.31-.13,4.67-.2,7-.2m0-.87c-2.36,0-4.72.07-7.06.21-78.11,4.56-140.3,84.31-140.3,182,0,100.65,66,182.24,147.36,182.24h.33c81.23-.21,147-81.72,147-182.24s-66-182.24-147.36-182.24Z" transform="translate(-794.71 -770.69)"/></g><path class="cls-7" d="M1167.56,1223.6,1117.25,1242,1014,1279.67l-84.67,30.91-9.91,3.62a11.12,11.12,0,0,0-2.48.9c-1.33,1,.6-.82,1,.2-.49-1.2-7.63-2.82-8.79-3.25l-19.77-7.31-88.47-32.68-2-.72v6.48l50.31-18.36,103.24-37.7,84.67-30.91,9.91-3.62a10.87,10.87,0,0,0,2.47-.9c1.34-1-.59.82-1-.2.49,1.2,7.64,2.82,8.79,3.25l19.78,7.3,88.47,32.69,2,.72c4.06,1.5,5.82-5,1.78-6.49l-78.43-29-38-14.05c-4.34-1.6-6.81-.12-11.08,1.44l-77.07,28.14-105.31,38.45c-20.36,7.44-41.27,14.05-61.29,22.38-.31.13-.64.23-1,.35a3.39,3.39,0,0,0,0,6.48l78.44,29,38,14c4.35,1.61,6.82.12,11.09-1.43l77.06-28.14,105.32-38.45c20.38-7.45,41.16-14.24,61.29-22.38.31-.13.63-.23.95-.35C1173.38,1228.62,1171.63,1222.12,1167.56,1223.6Z" transform="translate(-794.71 -770.69)"/><polygon class="cls-8" points="4.26 466.48 3.36 503.89 122.48 547.9 123.37 510.48 4.26 466.48"/><path class="cls-7" d="M795.61,1237.17l-.9,37.41a3.46,3.46,0,0,0,2.47,3.24l104.37,38.56,14.75,5.45c2.12.78,4.2-1.22,4.25-3.24l.9-37.42a3.45,3.45,0,0,0-2.47-3.24l-104.37-38.55-14.74-5.45c-4.07-1.5-5.82,5-1.79,6.48L902.45,1279l14.74,5.45-2.47-3.25-.89,37.42,4.25-3.25-104.36-38.55L799,1271.34l2.47,3.24.9-37.41C802.44,1232.84,795.72,1232.84,795.61,1237.17Z" transform="translate(-794.71 -770.69)"/><polygon class="cls-9" points="373.74 456.16 374.63 418.75 123.37 510.48 122.48 547.9 373.74 456.16"/><path class="cls-10" d="M1171.81,1226.85l.9-37.41c0-2.06-2.21-4-4.26-3.25l-85,31L948,1266.67l-30.85,11.26a3.51,3.51,0,0,0-2.47,3.24l-.89,37.42c-.05,2.05,2.21,4,4.25,3.24l85-31,135.37-49.43,30.85-11.26c4-1.47,2.29-8-1.78-6.49l-85,31.05-135.37,49.43-30.85,11.26,4.25,3.25.9-37.42-2.47,3.25,85-31.05,135.37-49.43,30.85-11.26-4.26-3.24-.89,37.41C1165,1231.18,1171.71,1231.17,1171.81,1226.85Z" transform="translate(-794.71 -770.69)"/><polygon class="cls-9" points="374.63 418.75 123.37 510.48 4.26 466.48 255.52 374.74 374.63 418.75"/><path class="cls-7" d="M1168.45,1186.19l-50.3,18.37-103.24,37.7-84.67,30.91-9.91,3.62a11,11,0,0,0-2.48.9c-1.34,1,.59-.82,1,.2-.49-1.2-7.64-2.82-8.79-3.25l-19.78-7.31-88.46-32.68-2-.72v6.48l50.3-18.37,103.25-37.69,84.66-30.91,9.92-3.62a10.43,10.43,0,0,0,2.47-.91c1.34-1-.59.83-1-.19.49,1.2,7.64,2.82,8.79,3.25l19.78,7.3L1166.5,1192l2,.72c4.07,1.5,5.82-5,1.79-6.49l-78.44-29-38-14c-4.35-1.6-6.82-.12-11.09,1.44l-77.06,28.14L860.32,1211.2c-20.35,7.43-41.27,14-61.28,22.38-.31.13-.64.23-1,.35a3.39,3.39,0,0,0,0,6.48l78.44,29,38,14c4.35,1.61,6.82.12,11.09-1.44l77.06-28.13L1108,1215.4c20.38-7.44,41.16-14.23,61.28-22.37.32-.13.64-.24,1-.35C1174.27,1191.21,1172.53,1184.7,1168.45,1186.19Z" transform="translate(-794.71 -770.69)"/><path class="cls-9" d="M946.15,898.52S904,903.5,899,946.83s23.59,57.52,23.59,57.52l20.3,12.07-17,196.17,36.65,12.22,47.52-17.65L987,1031.43s64.48,2.63,65.16-57.78-31.22-71.95-31.22-71.95S1004.42,889.22,946.15,898.52Z" transform="translate(-794.71 -770.69)"/><path class="cls-3" d="M946.15,896c-20,2.44-38.49,16.25-45.88,35-9.79,24.79-4.4,59.67,19.49,74.71,7.15,4.51,14.56,8.64,21.83,13l-1.26-2.19-5.73,66.3-9.14,105.65-2.1,24.22a2.57,2.57,0,0,0,1.86,2.44l16,5.33c6.55,2.18,13.3,5.23,20,6.68,3.21.69,7-1.64,9.94-2.74l23.1-8.58,16.46-6.12a2.57,2.57,0,0,0,1.86-2.44l-7.76-59.11-12.46-94.86-2.86-21.76L987,1034a79.34,79.34,0,0,0,31.9-5.88c19.64-7.9,32.49-24.33,35.18-45.42,3-24-1.42-53.46-17.78-72.27a42.73,42.73,0,0,0-12.36-10.1c-.43-.21-3.17-1.56-1.75-.81-.77-.41-1.49-.88-2.29-1.26-6.72-3.23-14.43-4.39-21.77-5.1-17.53-1.68-35.32.23-52.64,2.94-3.22.51-1.85,5.39,1.34,4.89,15.25-2.39,30.79-4,46.24-3.13,7.41.4,15.05,1.29,22.05,3.87a37,37,0,0,1,13,7.62c16.49,14.41,21.1,38.34,21.53,59.18.25,12.39-1.33,24.82-8.11,35.48a49.45,49.45,0,0,1-20.17,17.52,73.6,73.6,0,0,1-34.33,7.4,2.55,2.55,0,0,0-2.54,2.53l7.77,59.11,12.45,94.86,2.86,21.76,1.86-2.44L973.65,1218l-8.67,3.22a10,10,0,0,0-2.4.9c-.91.69-.44-.08.52.21-6-1.81-11.83-3.94-17.73-5.91l-18.8-6.26,1.86,2.44,5.74-66.3,9.13-105.65,2.1-24.22a2.51,2.51,0,0,0-1.25-2.19c-12.3-7.31-26.48-13.42-34.55-25.83-16.46-25.34-10.14-64.38,16.48-80A60.61,60.61,0,0,1,940,902.45c1.58-.45,3.18-.82,4.79-1.15.43-.09,2.42-.38,1.34-.25C949.35,900.66,949.39,895.59,946.15,896Z" transform="translate(-794.71 -770.69)"/><ellipse class="cls-11" cx="200.95" cy="192.78" rx="45.63" ry="51.59"/><path class="cls-3" d="M1038.76,963.47c-.24,19.23-10.28,39-28.88,46.34-17.5,6.93-36.77-.27-47.53-15.2-11.7-16.25-13-39.1-3.48-56.68,8.69-16.12,26.51-26.75,45-22.62,22,4.9,34.61,26.8,34.88,48.16,0,3.26,5.11,3.27,5.07,0-.26-21.12-11.31-42.35-31.44-50.75-19.51-8.13-41.25-.54-53.64,16-13.38,17.87-14.81,43.31-4.26,62.86,9.81,18.18,30,29.56,50.73,24.95,24.16-5.39,38.32-29.54,38.61-53.06C1043.87,960.21,1038.8,960.21,1038.76,963.47Z" transform="translate(-794.71 -770.69)"/><polygon class="cls-12" points="14.04 384.71 25.74 380.42 25.74 426.49 14.04 431.15 14.04 384.71"/><path class="cls-7" d="M809.42,1157.85l11.71-4.29-3.21-2.45v46.07l1.86-2.45-11.71,4.66,3.21,2.45V1155.4c0-3.26-5.07-3.26-5.07,0v46.44c0,1.5,1.65,3.06,3.21,2.44l11.71-4.66a2.64,2.64,0,0,0,1.86-2.44v-46.07a2.55,2.55,0,0,0-3.21-2.44L808.07,1153C805,1154.07,806.35,1159,809.42,1157.85Z" transform="translate(-794.71 -770.69)"/><path class="cls-13" d="M1139.52,1051.19c4.28-4,15.08-9.22,19.27.09,0,0,4.1,9.6-6,17.71a66.56,66.56,0,0,0-13.35,14.43c.27.38-10.54-12.09-14.45-16.94-3.72-4.61-9.87-16-3.17-20s17.69,4.71,17.69,4.71" transform="translate(-794.71 -770.69)"/><path class="cls-14" d="M1141.54,1053.21c3-2.62,8.79-6,12.63-3.34,2.77,2,3,6.06,2.24,9.06-1.66,6.47-8.59,10.18-12.88,14.82A60.9,60.9,0,0,0,1137,1082l3.91-1c1.08.77-.31-.45-.45-.7a13.48,13.48,0,0,0-1.54-1.76l-5-5.86c-3-3.56-6.38-7.05-8.8-11.06s-6.6-13.94,1.81-13.23a19.19,19.19,0,0,1,7.58,2.9c.71.42,1.41.87,2.1,1.32.13.09,1.82,1.33.94.65,2.87,2.23,7-1.79,4-4-4.15-3.22-9.31-6.2-14.66-6.54-7.23-.46-11.76,5.06-10.65,12s5.72,12.68,10.15,17.93c3.51,4.18,7.14,10.12,11.63,13.3a2.9,2.9,0,0,0,3.91-1c6.81-10.55,23.19-17.6,20.2-32.24-2.64-12.92-17.1-10.06-24.62-3.45-2.76,2.44,1.29,6.46,4,4Z" transform="translate(-794.71 -770.69)"/><path class="cls-13" d="M1178,1013.2c4.28-4,15.08-9.22,19.26.09,0,0,4.11,9.6-6,17.71a66.66,66.66,0,0,0-13.34,14.43c.26.38-10.54-12.09-14.45-16.94-3.72-4.61-9.87-16-3.18-20s17.7,4.71,17.7,4.71" transform="translate(-794.71 -770.69)"/><path class="cls-14" d="M1180,1015.22c3-2.62,8.78-6.05,12.62-3.34,2.78,2,3,6.06,2.24,9.06-1.65,6.47-8.58,10.18-12.88,14.82a61.69,61.69,0,0,0-6.54,8.23l3.91-1c1.08.76-.31-.46-.45-.71a14.19,14.19,0,0,0-1.53-1.76q-2.54-2.93-5-5.86c-3-3.55-6.39-7.05-8.81-11.06s-6.6-13.94,1.82-13.23a19.14,19.14,0,0,1,7.57,2.9c.72.42,1.41.87,2.1,1.32.13.09,1.82,1.33,1,.65,2.87,2.23,6.94-1.79,4-4-4.15-3.22-9.31-6.2-14.66-6.54-7.24-.46-11.77,5.06-10.66,12s5.73,12.68,10.15,17.93c3.51,4.18,7.14,10.12,11.64,13.3a2.9,2.9,0,0,0,3.91-1c6.8-10.55,23.19-17.6,20.19-32.24-2.64-12.92-17.1-10.06-24.61-3.45-2.77,2.44,1.29,6.46,4,4Z" transform="translate(-794.71 -770.69)"/><path class="cls-3" d="M1079.62,957.49c-.21,11-5.81,27.49-19.35,27.49-13.37,0-19.37-16.44-19.35-27.49s5.95-27.49,19.35-27.49,19.14,16.45,19.35,27.49c.06,3.26,5.13,3.27,5.07,0-.22-11.8-4.89-25.53-16.43-30.78-10.14-4.6-20.6.6-26.4,9.36-7.25,10.95-7.83,26.19-2.58,38.06,4.31,9.74,13.86,17.93,25.1,15.46,14.09-3.1,20.07-19.27,20.31-32.1C1084.75,954.23,1079.68,954.23,1079.62,957.49Z" transform="translate(-794.71 -770.69)"/><ellipse class="cls-11" cx="259.52" cy="186.8" rx="27.92" ry="39.57"/><ellipse class="cls-15" cx="265.56" cy="186.8" rx="21.89" ry="30.02"/><path class="cls-3" d="M1079.62,957.49c-.21,11-5.81,27.49-19.35,27.49-13.37,0-19.37-16.44-19.35-27.49s5.95-27.49,19.35-27.49,19.14,16.45,19.35,27.49c.06,3.26,5.13,3.27,5.07,0-.22-11.8-4.89-25.53-16.43-30.78-10.14-4.6-20.6.6-26.4,9.36-7.25,10.95-7.83,26.19-2.58,38.06,4.31,9.74,13.86,17.93,25.1,15.46,14.09-3.1,20.07-19.27,20.31-32.1C1084.75,954.23,1079.68,954.23,1079.62,957.49Z" transform="translate(-794.71 -770.69)"/><path class="cls-16" d="M919.31,806.92c-4.89,1.41-8.26,4.61-11.26,8.6a94.33,94.33,0,0,1-11.48,13.37,81.05,81.05,0,0,0-20.91,30.76c-1.56,4,4.93,5.77,6.47,1.79a73.77,73.77,0,0,1,19.18-27.81,67.68,67.68,0,0,0,9.28-10.16c2.86-4,5.49-8.64,10.5-10.08,4.14-1.19,2.38-7.67-1.78-6.47Z" transform="translate(-794.71 -770.69)"/><path class="cls-16" d="M877.81,850.2a361.11,361.11,0,0,0-16.51,33.71c-1.67,3.93,4.1,7.35,5.79,3.39a358.69,358.69,0,0,1,16.51-33.71c2.1-3.78-3.69-7.17-5.79-3.39Z" transform="translate(-794.71 -770.69)"/><path class="cls-16" d="M874.16,865.69q-9.7,17.32-20.56,33.94c-2.37,3.63,3.43,7,5.79,3.39Q870.24,886.4,880,869.07c2.11-3.76-3.68-7.15-5.79-3.38Z" transform="translate(-794.71 -770.69)"/><path class="cls-16" d="M863.09,886,849.79,915c-1.78,3.89,4,7.31,5.79,3.38l13.3-29.07c1.78-3.89-4-7.31-5.79-3.38Z" transform="translate(-794.71 -770.69)"/><path class="cls-16" d="M861.8,898.2q-4.56,12-7.94,24.4c-1.13,4.17,5.33,5.94,6.47,1.78q3.38-12.4,7.93-24.4c1.54-4-4.94-5.78-6.46-1.78Z" transform="translate(-794.71 -770.69)"/><path class="cls-16" d="M863.71,894.13c-6.36,18.64-13.79,37.57-13,57.59a3.38,3.38,0,0,0,6.25,1.7,40.26,40.26,0,0,0,5.95-29c-.7-4.24-7.16-2.44-6.47,1.79A33.17,33.17,0,0,1,851.15,950l6.25,1.69c-.75-19.4,6.62-37.76,12.78-55.81,1.39-4.09-5.08-5.85-6.47-1.78Z" transform="translate(-794.71 -770.69)"/><path class="cls-16" d="M851.22,952.14a84.16,84.16,0,0,0-2.56,22.41c.09,4.31,6.79,4.32,6.7,0a77.51,77.51,0,0,1,2.32-20.63c1.06-4.18-5.41-6-6.46-1.78Z" transform="translate(-794.71 -770.69)"/><path class="cls-16" d="M857,950.72l-1.52,27.8c-.23,4.31,6.48,4.3,6.71,0l1.52-27.8c.23-4.32-6.48-4.3-6.71,0Z" transform="translate(-794.71 -770.69)"/><path class="cls-16" d="M851.58,972.28a164.55,164.55,0,0,0,.4,19.23c.2,2.53,3.75,4.87,5.72,2.37a15,15,0,0,0,3.32-8c.51-4.28-6.2-4.24-6.71,0a5.75,5.75,0,0,1-1.35,3.24l5.72,2.38a166.77,166.77,0,0,1-.39-19.23c.16-4.31-6.54-4.31-6.71,0Z" transform="translate(-794.71 -770.69)"/><path class="cls-16" d="M853.77,961.5a160.38,160.38,0,0,0-1.14,18.72c0,4.31,6.7,4.32,6.71,0a160.37,160.37,0,0,1,1.13-18.72c.51-4.28-6.2-4.24-6.7,0Z" transform="translate(-794.71 -770.69)"/><path class="cls-16" d="M854.93,988.73a111,111,0,0,1,.52,17.58c-.21,4.31,6.49,4.3,6.71,0a113.42,113.42,0,0,0-.52-17.58c-.46-4.25-7.17-4.3-6.71,0Z" transform="translate(-794.71 -770.69)"/><path class="cls-16" d="M855,979.09a93.73,93.73,0,0,0,2.44,26.39c1,4.2,7.46,2.42,6.47-1.78a87.09,87.09,0,0,1-2.2-24.61c.22-4.32-6.49-4.3-6.71,0Z" transform="translate(-794.71 -770.69)"/><path class="cls-16" d="M858,995a136.57,136.57,0,0,0,1.47,17.37c.62,4.25,7.08,2.44,6.46-1.79A123,123,0,0,1,864.69,995c-.08-4.31-6.79-4.32-6.71,0Z" transform="translate(-794.71 -770.69)"/><path class="cls-16" d="M857.05,1010.7l8.25,22c1.5,4,8,2.27,6.46-1.78l-8.25-22c-1.5-4-8-2.27-6.46,1.78Z" transform="translate(-794.71 -770.69)"/><path class="cls-16" d="M861.86,1012a56,56,0,0,0,10.23,30.43c2.47,3.5,8.28.16,5.79-3.38a49.69,49.69,0,0,1-9.32-27c-.17-4.3-6.88-4.33-6.7,0Z" transform="translate(-794.71 -770.69)"/><path class="cls-16" d="M870.26,1036.13a21.6,21.6,0,0,0,3.2,8.63A23.55,23.55,0,0,0,876,1048a21.33,21.33,0,0,0,1.7,1.6l.74.58q1.5,1.53.39-1.37l2-1.54-.6.09c-4.25.64-2.44,7.1,1.78,6.47a4.17,4.17,0,0,0,3.46-3.85c.21-2.08-.93-3.4-2.41-4.65a16.82,16.82,0,0,1-6.34-11c-.62-4.25-7.08-2.44-6.46,1.78Z" transform="translate(-794.71 -770.69)"/><path class="cls-16" d="M867.77,1037.87a30,30,0,0,0,17.25,22.2c3.91,1.73,7.33-4,3.39-5.79a23.89,23.89,0,0,1-14.18-18.19c-.73-4.24-7.19-2.44-6.46,1.78Z" transform="translate(-794.71 -770.69)"/><path class="cls-16" d="M877.78,1061.08a21.61,21.61,0,0,0,5.16,4.07c2.75,1.52,2.52,1.84,3.61,4.89a51.86,51.86,0,0,0,7.66,13.88c6.82,8.95,16,15.62,25.3,21.74,3.62,2.37,7-3.43,3.38-5.79-9.49-6.23-19-13.12-25.32-22.75-2.81-4.27-4-8.86-6-13.42-1.67-3.72-6.31-4.52-9-7.36-3-3.12-7.74,1.62-4.75,4.74Z" transform="translate(-794.71 -770.69)"/><path class="cls-16" d="M881,1064.16a13.6,13.6,0,0,0,1.63,6.23,3.39,3.39,0,0,0,4.59,1.2,3.44,3.44,0,0,0,1.2-4.59c-.07-.12-.41-.88-.2-.34a8,8,0,0,1-.33-1.05c0-.11-.2-1-.15-.64a7.81,7.81,0,0,0,0-.81,3.36,3.36,0,0,0-6.71,0Z" transform="translate(-794.71 -770.69)"/><g class="cls-17"><ellipse class="cls-14" cx="215.44" cy="185.62" rx="147.36" ry="182.24"/></g><path class="cls-3" d="M1155,956.31c-.23,66.78-31.39,139.75-95.06,168.83a120.18,120.18,0,0,1-89.42,4.06c-29.9-10.49-54.73-32.43-72.1-58.59-39.94-60.15-43.79-142.95-12.11-207.48C900.42,834.37,922,808.71,950,792.78c26.83-15.23,58.67-20.16,88.7-12.68,66.67,16.61,106.72,84.36,114.6,148.88a231.09,231.09,0,0,1,1.65,27.33c0,3.26,5.08,3.27,5.06,0-.23-68.77-32.74-144.34-98.67-173.7a125.26,125.26,0,0,0-92.22-4.08c-30.78,10.81-56.29,33-74.39,59.82-41.67,61.76-45.51,147.24-12.84,213.7,14.58,29.68,37.05,56.17,66.09,72.47,27.9,15.67,60.93,20.64,92.07,12.89,68.44-17.05,109.66-86.07,118.13-152.28a231.36,231.36,0,0,0,1.83-28.82C1160.06,953.05,1155,953.05,1155,956.31Z" transform="translate(-794.71 -770.69)"/><path class="cls-3" d="M1154.13,956.31c-.22,66.51-31.23,139.14-94.64,168.1a119.31,119.31,0,0,1-88.77,4c-29.68-10.42-54.35-32.24-71.59-58.21C859.36,1010.3,855.46,927.82,887,863.56c14.07-28.65,35.48-54.18,63.44-70,26.63-15.12,58.23-20,88-12.59,66.28,16.51,106.13,83.91,114,148.06a231.09,231.09,0,0,1,1.65,27.33c0,4.35,6.77,4.36,6.76,0-.23-69-32.9-144.95-99.1-174.43a126.1,126.1,0,0,0-92.86-4.16c-31,10.88-56.67,33.19-74.9,60.2-41.84,62-45.64,147.84-12.84,214.56,14.64,29.79,37.23,56.4,66.39,72.77,28.1,15.78,61.37,20.78,92.72,13,68.83-17.14,110.25-86.51,118.76-153.09a233.3,233.3,0,0,0,1.83-28.82C1160.9,952,1154.15,952,1154.13,956.31Z" transform="translate(-794.71 -770.69)"/><path class="cls-3" d="M1154.05,956.31c-.23,67.83-34,139.54-98.66,167.86a130.18,130.18,0,0,1-93.3,4.15c-30.78-10.32-56.88-32-75.21-58.51-41.12-59.48-45.37-142.07-12.45-206.18,15-29.16,37.73-54.59,66.76-70.24a130.62,130.62,0,0,1,92.6-12.21c67,16.38,109.81,81.68,118.46,147.2a219.15,219.15,0,0,1,1.8,27.93c0,4.45,6.93,4.46,6.92,0-.25-70.83-36.07-145.63-103.81-174.57a137,137,0,0,0-96.91-4.11c-32.15,10.79-59.22,33-78.58,60.6-43.24,61.58-47.42,147.69-13.21,214.25,15.58,30.32,39.53,56.88,69.79,73a138,138,0,0,0,96.16,12.9c70.23-16.46,115.36-84.37,124.57-152.78a226.19,226.19,0,0,0,2-29.31C1161,951.86,1154.07,951.86,1154.05,956.31Z" transform="translate(-794.71 -770.69)"/><path class="cls-3" d="M1155,956.31c-.23,66.61-31.19,139.27-94.51,168.57a120.15,120.15,0,0,1-89.4,4.53c-30.14-10.42-55.2-32.46-72.67-58.8-22.37-33.71-32.94-74-33.08-114.3,0-3.26-5.08-3.27-5.07,0,.24,68.77,32.75,144.34,98.68,173.7a125.2,125.2,0,0,0,91.64,4.28c31-10.72,56.76-33,75-60,23.34-34.61,34.37-76.46,34.5-118,0-3.26-5-3.26-5.06,0Z" transform="translate(-794.71 -770.69)"/><path class="cls-3" d="M1147.61,956.31c-.21,58.05-24.91,124.11-80.1,151a96.67,96.67,0,0,1-75.43,3.93c-26.13-9.57-47.19-29.84-61.71-53.18-33.63-54.08-36.61-127.28-10-184.82,11.77-25.45,29.81-48.76,54.1-63.32,22.46-13.46,49.38-18,74.83-11.32,58,15.24,90.42,77.28,96.9,132.9a221.44,221.44,0,0,1,1.44,24.83c0,3.26,5.08,3.27,5.07,0-.22-60-26.22-128.68-83.69-155.87a101.57,101.57,0,0,0-78.81-3.71c-26.54,9.9-48,30-63.11,53.6C891.38,906.17,888.36,982.22,916,1042c12.27,26.57,31.45,50.83,56.95,65.75,23.4,13.69,51.37,18.14,77.69,11.23,59.85-15.73,93.33-78.91,100.45-136.28a218.89,218.89,0,0,0,1.62-26.35C1152.69,953.05,1147.62,953.05,1147.61,956.31Z" transform="translate(-794.71 -770.69)"/><path class="cls-3" d="M1137.63,954.82c-.2,44.92-18,97.8-60.82,119.18a69.53,69.53,0,0,1-56.43,2.57c-19.91-7.81-35.51-24.08-46.18-42.25C949,991.38,947.05,934,967.29,888.77c16.68-37.31,53.8-70.34,97.2-57.92,51.26,14.67,72.93,75.9,73.14,124,0,3.26,5.09,3.27,5.07,0-.21-46.76-19.06-101.88-63.85-123.81a74.52,74.52,0,0,0-59.82-2.83c-20.35,8-36.5,23.88-47.82,42.27-27.45,44.63-29.6,104.78-8.58,152.34,17.38,39.33,56.61,73.43,102.1,61.19,46.66-12.55,71.33-63.56,76.7-107.9a184.2,184.2,0,0,0,1.27-21.26C1142.72,951.56,1137.65,951.55,1137.63,954.82Z" transform="translate(-794.71 -770.69)"/><path class="cls-3" d="M1099.09,960.82c-.19,24.11-9.36,52.27-32.06,64.24-21.61,11.39-44.23-1.38-55.68-20.67-13.73-23.14-15-54.07-4.34-78.64,8.74-20.21,28.53-38.7,52.11-32.29,28.13,7.65,39.76,41.25,40,67.36,0,3.26,5.1,3.27,5.07,0-.21-26.27-10.77-57.26-36.12-69.39-23.39-11.19-47.6,1.51-60.38,22.13-15.38,24.81-16.65,58.37-5,84.89,9.71,22.16,31.66,41.36,57.28,34.76,30.75-7.91,44-43.82,44.25-72.39C1104.19,957.56,1099.12,957.56,1099.09,960.82Z" transform="translate(-794.71 -770.69)"/><path class="cls-3" d="M1079.62,957.49c-.17,12.72-4.52,28.15-16.54,34.7-11.37,6.19-22.76-1.18-28.49-11.31-7-12.41-7.55-28.66-2.37-41.82,4.18-10.64,14.32-21.49,26.83-17.93,14.9,4.23,20.38,22.71,20.57,36.36.05,3.26,5.12,3.27,5.07,0-.21-15-5.9-33-20.55-39.84-13-6.1-26.31,1.31-33.26,12.76-8.67,14.27-9.36,33.56-2.77,48.76,5.37,12.37,17.38,23.35,31.76,19.71,17.55-4.44,24.6-25.31,24.82-41.39C1084.74,954.23,1079.67,954.23,1079.62,957.49Z" transform="translate(-794.71 -770.69)"/><path class="cls-3" d="M1079.62,957.49c-.21,11-5.81,27.49-19.35,27.49-13.37,0-19.37-16.44-19.35-27.49s5.95-27.49,19.35-27.49,19.14,16.45,19.35,27.49c.06,3.26,5.13,3.27,5.07,0-.22-11.8-4.89-25.53-16.43-30.78-10.14-4.6-20.6.6-26.4,9.36-7.25,10.95-7.83,26.19-2.58,38.06,4.31,9.74,13.86,17.93,25.1,15.46,14.09-3.1,20.07-19.27,20.31-32.1C1084.75,954.23,1079.68,954.23,1079.62,957.49Z" transform="translate(-794.71 -770.69)"/><path class="cls-3" d="M1026.31,955l-109,10.73-15.53,1.53c-3.21.32-3.25,5.39,0,5.07l109-10.74,15.53-1.52c3.22-.32,3.25-5.39,0-5.07Z" transform="translate(-794.71 -770.69)"/><path class="cls-3" d="M1038.42,926,984.06,821.35l-7.71-14.84c-1.5-2.89-5.88-.33-4.38,2.56l54.36,104.61,7.71,14.84c1.51,2.9,5.88.34,4.38-2.56Z" transform="translate(-794.71 -770.69)"/><path class="cls-3" d="M1067.32,918.59l32.14-80.45,4.61-11.54c1.21-3-3.69-4.34-4.89-1.34L1067,905.7l-4.61,11.54c-1.21,3,3.69,4.35,4.89,1.35Z" transform="translate(-794.71 -770.69)"/><path class="cls-3" d="M1081.78,954.5l58.39-5.45c3.22-.3,3.25-5.38,0-5.07l-58.39,5.45c-3.22.3-3.25,5.38,0,5.07Z" transform="translate(-794.71 -770.69)"/><path class="cls-3" d="M1035.94,989.4,994.32,1095l-5.92,15c-1.2,3,3.7,4.35,4.89,1.35l41.62-105.57,5.92-15c1.19-3-3.71-4.35-4.89-1.34Z" transform="translate(-794.71 -770.69)"/><path class="cls-3" d="M1064.66,994.08l39.2,70.08,5.6,10c1.59,2.85,6,.3,4.38-2.56l-39.2-70.08-5.6-10c-1.6-2.85-6-.3-4.38,2.55Z" transform="translate(-794.71 -770.69)"/><path class="cls-3" d="M989.57,1108.45l-33.94,15.66c-3,1.36-.39,5.73,2.56,4.37l33.93-15.65c3-1.36.39-5.73-2.55-4.38Z" transform="translate(-794.71 -770.69)"/><path class="cls-3" d="M901.77,967.22,863.3,969c-3.25.15-3.27,5.22,0,5.07l38.47-1.81c3.25-.15,3.27-5.22,0-5.07Z" transform="translate(-794.71 -770.69)"/><path class="cls-3" d="M975.44,805.61l-31.16-13.76c-3-1.3-5.54,3.07-2.56,4.38L972.88,810c3,1.31,5.54-3.06,2.56-4.37Z" transform="translate(-794.71 -770.69)"/><path class="cls-3" d="M1104.16,825.93v-12.5c0-3.26-5.07-3.27-5.07,0v12.5c0,3.26,5.07,3.27,5.07,0Z" transform="translate(-794.71 -770.69)"/><path class="cls-14" d="M850,1027.83c-1,.28-2,.54-2.93.78a98.76,98.76,0,0,0,2.06,17c-7.69-2.6-13.35-10.45-16.24-15.3-14.49,0-26.23-5.84-29.11-15.73-4-13.6,10.27-29.74,31.82-36s42.25-.38,46.23,13.22S871.59,1021.52,850,1027.83Z" transform="translate(-794.71 -770.69)"/><path class="cls-7" d="M849.36,1025.38c-1,.29-2,.55-2.93.79a2.57,2.57,0,0,0-1.87,2.44,95.79,95.79,0,0,0,2.16,17.7l3.11-3.11a24.7,24.7,0,0,1-9.28-6.67c-2.07-2.26-3.38-5.3-5.44-7.46-1.67-1.75-3.84-1.23-6.14-1.42a37.48,37.48,0,0,1-11.3-2.55c-12.74-5.24-15-17.86-6.72-28.26,9.28-11.66,25.48-17.78,40-18.22,11.16-.34,28.82,3.55,29,17.72.18,15.35-18.17,25.23-30.62,29-3.11.95-1.78,5.85,1.35,4.89,13.25-4,27.77-12.34,32.87-26,4.41-11.83-2.2-22.72-13.29-27.43-14.59-6.2-32.47-3.23-46.28,3.61-11,5.45-23.12,15.82-23.4,29.13-.35,16.9,18.45,23.12,32.31,23.34l-2.19-1.26c4.31,7.09,9.85,13.43,17.76,16.47,1.93.74,3.48-1.41,3.11-3.12a89.18,89.18,0,0,1-2-16.36l-1.86,2.44c1-.23,2-.5,2.94-.78C853.84,1029.39,852.51,1024.5,849.36,1025.38Z" transform="translate(-794.71 -770.69)"/><path class="cls-13" d="M1157.57,1102.68c3.8-3.52,13.38-8.18,17.09.08,0,0,3.64,8.52-5.31,15.71a59,59,0,0,0-11.84,12.8c.23.34-9.35-10.73-12.82-15-3.3-4.09-8.75-14.22-2.81-17.74s15.69,4.18,15.69,4.18" transform="translate(-794.71 -770.69)"/><path class="cls-14" d="M1159.37,1104.47c3-2.62,9.52-6.17,12.47-1.63,1.45,2.24,1.21,5.38.36,7.77-1.92,5.35-8,8.67-11.71,12.79a53,53,0,0,0-5.17,6.59l4-.51c-2.18-1.79-4-4.54-5.79-6.68a106.19,106.19,0,0,1-8.1-9.87c-2.2-3.32-7-12.94.6-12.8,3.34.06,7.94,2.92,9.77,4.34,2.55,2,6.16-1.59,3.59-3.58-3.63-2.81-8.14-5.44-12.81-5.77-6.16-.44-10.48,3.91-9.73,10.08s4.65,11.19,8.47,15.74c3.25,3.89,6.49,8.9,10.42,12.13a2.58,2.58,0,0,0,4-.52c6-9.31,20.56-15.61,17.92-28.55-2.34-11.48-15.1-9-21.84-3.11-2.46,2.15,1.14,5.72,3.59,3.58Z" transform="translate(-794.71 -770.69)"/><path class="cls-13" d="M1150.32,1152.76c2.56-2.39,9-5.53,11.55,0,0,0,2.46,5.76-3.59,10.62a39.85,39.85,0,0,0-8,8.66c.15.23-6.33-7.26-8.67-10.16s-5.92-9.62-1.9-12,10.61,2.83,10.61,2.83" transform="translate(-794.71 -770.69)"/><path class="cls-14" d="M1151.53,1154c2.21-1.9,6.87-4.33,8.72-.63.84,1.67.39,3.91-.38,5.49-1.63,3.37-5.54,5.58-8,8.39a35.14,35.14,0,0,0-3.08,4l2.69-.34a68.75,68.75,0,0,1-9.42-11.23c-1.76-2.65-4.61-9.06,1-8.51,2.26.22,4.61,1.73,6.38,3.1s3.46-1.64,1.73-3c-4.5-3.47-15.5-6.51-14.93,2.75.25,4.07,2.92,7.65,5.42,10.65a98.26,98.26,0,0,0,7.4,8.62,1.73,1.73,0,0,0,2.69-.35c4.06-6.25,14.36-10.88,12-19.72-2-7.45-10.23-5.51-14.68-1.69-1.68,1.44.76,3.86,2.42,2.43Z" transform="translate(-794.71 -770.69)"/><path class="cls-13" d="M1119,1111.75c2.57-2.38,9-5.52,11.56.06,0,0,2.46,5.76-3.6,10.62a39.85,39.85,0,0,0-8,8.66c.16.22-6.32-7.26-8.67-10.17s-5.92-9.61-1.9-12,10.61,2.82,10.61,2.82" transform="translate(-794.71 -770.69)"/><path class="cls-14" d="M1120.24,1113c2.2-1.9,6.87-4.33,8.71-.63.84,1.67.39,3.91-.37,5.49-1.63,3.37-5.55,5.58-8,8.39a36.41,36.41,0,0,0-3.09,4l2.69-.35a69.26,69.26,0,0,1-9.42-11.22c-1.76-2.65-4.61-9.06,1-8.51,2.26.22,4.61,1.72,6.39,3.09s3.45-1.63,1.73-3c-4.5-3.46-15.5-6.5-14.93,2.76.25,4.06,2.91,7.64,5.42,10.65a101.15,101.15,0,0,0,7.39,8.62,1.74,1.74,0,0,0,2.69-.35c4.07-6.25,14.37-10.88,12-19.73-2-7.44-10.23-5.5-14.68-1.68-1.67,1.44.76,3.86,2.43,2.43Z" transform="translate(-794.71 -770.69)"/><path class="cls-18" d="M1089.25,1194.64v10.83c0,2.29-5.87,4.15-13.1,4.15s-13.11-1.86-13.11-4.15v-10.83Z" transform="translate(-794.71 -770.69)"/><path class="cls-3" d="M1087.66,1194.64v8.15c0,1.69.28,2.31-1,3.4-2.42,2-7.57,1.84-10.51,1.84-3.15,0-6.78-.12-9.68-1.5-2-1-1.84-1.35-1.84-3.32v-8.57l-1.59,1.59h26.21a1.59,1.59,0,0,0,0-3.18H1063a1.61,1.61,0,0,0-1.59,1.59c0,3.49-.69,7.65,0,11,1.15,5.41,10.46,5.53,14.67,5.53s13.3-.1,14.63-5.32c.85-3.36.06-7.77.06-11.25A1.59,1.59,0,0,0,1087.66,1194.64Z" transform="translate(-794.71 -770.69)"/><ellipse class="cls-19" cx="281.43" cy="423.96" rx="13.1" ry="4.15"/><path class="cls-3" d="M1087.72,1194.22c-1,4.62-22.09,3.79-22.09.43s21.11-4.19,22.09.42c.42,2,3.49,1.15,3.06-.85-1.16-5.44-11.53-5.38-15.53-5.29-3.32.07-13.8.41-13.8,5.72,0,5.06,9.65,5.55,12.92,5.7,4.09.18,15.21.38,16.41-5.28C1091.21,1193.07,1088.14,1192.22,1087.72,1194.22Z" transform="translate(-794.71 -770.69)"/><path class="cls-18" d="M1045.71,1214v10.83c0,2.3-5.86,4.15-13.1,4.15s-13.1-1.85-13.1-4.15V1214Z" transform="translate(-794.71 -770.69)"/><path class="cls-3" d="M1044.12,1214v8.16c0,1.69.29,2.31-1,3.4-2.41,2-7.56,1.83-10.51,1.83-3.15,0-6.77-.12-9.68-1.5-2-.95-1.83-1.34-1.83-3.32V1214l-1.59,1.59h26.2a1.59,1.59,0,0,0,0-3.17h-26.2a1.61,1.61,0,0,0-1.59,1.58c0,3.49-.69,7.65,0,11,1.14,5.42,10.46,5.53,14.66,5.53s13.31-.1,14.64-5.31c.85-3.37,0-7.78,0-11.26A1.59,1.59,0,0,0,1044.12,1214Z" transform="translate(-794.71 -770.69)"/><ellipse class="cls-19" cx="237.9" cy="443.3" rx="13.1" ry="4.15"/><path class="cls-3" d="M1044.18,1213.56c-1,4.62-22.08,3.8-22.08.43s21.1-4.19,22.08.42c.43,2,3.49,1.15,3.07-.85-1.16-5.44-11.54-5.38-15.53-5.29-3.32.07-13.8.41-13.8,5.72,0,5.06,9.65,5.55,12.91,5.7,4.1.18,15.21.38,16.42-5.28C1047.67,1212.41,1044.61,1211.56,1044.18,1213.56Z" transform="translate(-794.71 -770.69)"/><path class="cls-18" d="M1003.89,1229.8v10.83c0,2.29-5.86,4.14-13.1,4.14s-13.11-1.85-13.11-4.14V1229.8Z" transform="translate(-794.71 -770.69)"/><path class="cls-3" d="M1002.3,1229.8V1238c0,1.69.28,2.31-1,3.4-2.41,2.05-7.56,1.83-10.51,1.83-3.15,0-6.77-.12-9.68-1.49-2-1-1.84-1.35-1.84-3.32v-8.57l-1.59,1.59h26.21a1.59,1.59,0,0,0,0-3.18H977.68a1.62,1.62,0,0,0-1.59,1.59c0,3.48-.69,7.64,0,11,1.15,5.41,10.46,5.52,14.67,5.52s13.31-.1,14.63-5.31c.86-3.36.06-7.78.06-11.25A1.59,1.59,0,0,0,1002.3,1229.8Z" transform="translate(-794.71 -770.69)"/><ellipse class="cls-19" cx="196.07" cy="459.11" rx="13.1" ry="4.15"/><path class="cls-3" d="M1002.36,1229.38c-1,4.61-22.09,3.79-22.09.42s21.11-4.19,22.09.42c.42,2,3.49,1.16,3.07-.84-1.16-5.45-11.54-5.39-15.53-5.3-3.32.07-13.81.41-13.81,5.72,0,5.06,9.65,5.55,12.92,5.7,4.1.19,15.21.38,16.42-5.28C1005.85,1228.23,1002.79,1227.37,1002.36,1229.38Z" transform="translate(-794.71 -770.69)"/><path class="cls-18" d="M957,1244v10.83c0,2.29-5.86,4.14-13.1,4.14s-13.1-1.85-13.1-4.14V1244Z" transform="translate(-794.71 -770.69)"/><path class="cls-3" d="M955.37,1244v8.15c0,1.69.29,2.31-1,3.4-2.41,2-7.56,1.83-10.51,1.83-3.15,0-6.77-.12-9.68-1.49-2-1-1.83-1.35-1.83-3.32V1244l-1.59,1.59H957a1.59,1.59,0,0,0,0-3.18h-26.2a1.61,1.61,0,0,0-1.59,1.59c0,3.48-.69,7.64,0,11,1.14,5.41,10.46,5.52,14.66,5.52s13.31-.1,14.64-5.31c.85-3.36,0-7.78,0-11.25A1.59,1.59,0,0,0,955.37,1244Z" transform="translate(-794.71 -770.69)"/><ellipse class="cls-19" cx="149.15" cy="473.28" rx="13.1" ry="4.15"/><path class="cls-3" d="M955.43,1243.55c-1,4.61-22.08,3.79-22.08.42s21.1-4.19,22.08.42c.43,2,3.49,1.16,3.07-.84-1.16-5.45-11.54-5.39-15.53-5.3-3.32.07-13.8.41-13.8,5.72,0,5.06,9.65,5.55,12.91,5.7,4.1.19,15.21.38,16.42-5.28C958.92,1242.4,955.86,1241.54,955.43,1243.55Z" transform="translate(-794.71 -770.69)"/><polygon class="cls-14" points="25.74 385.04 36.36 381.3 50.03 353.14 57.26 351.11 57.26 374.74 69.69 370.86 70.5 412.02 40.92 423.95 35.35 418.75 25.74 419.81 25.74 385.04"/><path class="cls-3" d="M821.13,1158.17c3.39-1.19,9.42-2,11.94-4.64,2.33-2.47,3.63-7.33,5.09-10.35l7.46-15.37c.22-.44,1.06-1.64,1-2.13,0-.15.23-.32.24-.48,0,.69-1.89.52-.94.92,1.18.49,5.36-1.5,6.7-1.87l-3.21-2.45v23.63a2.57,2.57,0,0,0,3.21,2.45l12.43-3.89-3.21-2.44.8,41.16,1.87-2.45L835,1192.2l2.46.65c-1.95-1.82-4.56-5.53-7.36-5.95s-6.7.74-9.61,1.06l2.54,2.54v-34.78c0-3.26-5.07-3.26-5.07,0v34.78a2.55,2.55,0,0,0,2.53,2.53c1.74-.19,8.12.15,9.15-1,.16-.19-1-1-.92-.41.08.44,1.32,1.23,1.69,1.58l3.47,3.25a2.54,2.54,0,0,0,2.47.65l29.57-11.94a2.62,2.62,0,0,0,1.86-2.44l-.8-41.16a2.56,2.56,0,0,0-3.21-2.45L851.3,1143l3.21,2.44V1121.8a2.56,2.56,0,0,0-3.21-2.44c-3.09.86-7.33,1.07-9.1,3.92-2.65,4.27-4.5,9.29-6.7,13.8l-3.88,8c-.61,1.26-2.4,3.63-2.45,5.06s.73-.49.83-.44c-.4-.21-3.09,1.08-3.52,1.23l-6.7,2.36C816.72,1154.36,818,1159.25,821.13,1158.17Z" transform="translate(-794.71 -770.69)"/></svg>