<svg id="圖層_2" data-name="圖層 2" xmlns="http://www.w3.org/2000/svg" viewBox="0 0 400 400"><defs><style>.cls-1,.cls-2{fill:#eee6db;}.cls-2{stroke:#3b3832;stroke-miterlimit:10;stroke-width:0.38px;}.cls-3{fill:#fff;}.cls-4{fill:#3b3832;}.cls-5{fill:#376e70;}.cls-6{fill:#4b5d6d;}.cls-7{fill:#35474f;}.cls-8{fill:#efece7;}.cls-9{fill:#060001;opacity:0.4;}.cls-10{fill:#383b3b;}.cls-11{fill:#3e4546;}.cls-12{fill:#569a99;}.cls-13{fill:#5b8985;}.cls-14{fill:#4a7776;}.cls-15{fill:#94b9c4;}.cls-16{fill:#405b5c;}.cls-17{fill:#4f8b94;}.cls-18{fill:#3c3832;}.cls-19{fill:#5195a0;}.cls-20{fill:#5198a3;}.cls-21{fill:#5197a2;}.cls-22{fill:#45686a;}.cls-23{fill:#5296a1;}.cls-24{fill:#487074;}.cls-25{fill:#5397a1;}.cls-26{fill:#487377;}.cls-27{fill:#46787c;}.cls-28{fill:#476d70;}.cls-29{fill:#3c4f4e;}.cls-30{fill:#3d5353;}.cls-31{fill:#446364;}.cls-32{fill:#394544;}.cls-33{fill:#d7ae6e;}.cls-34{fill:#77ab7e;}.cls-35{fill:#a16b5c;}</style></defs><title>過濾</title><circle class="cls-1" cx="200" cy="200" r="200"/><rect class="cls-2" x="111.1" y="60.16" width="191.65" height="118.83"/><path class="cls-3" d="M1076.6,336.21h73s9.15,11.81,15,15.31l-108-2.15-4.67-13.16Z" transform="translate(-780.29 -114.13)"/><path class="cls-4" d="M1076.6,337.39h57.82c4.79,0,9.68.27,14.46,0,1.36-.08-.06.14,0-.26,0,.26.89,1.12,1,1.31.68.84,1.36,1.67,2.06,2.49,3.54,4.18,7.34,8.7,12,11.61l.6-2.2-36.71-.73-58-1.15-13.31-.27,1.13.87-4.66-13.17-1.14,1.5h24.69a1.18,1.18,0,0,0,0-2.36h-24.69a1.19,1.19,0,0,0-1.14,1.49l4.67,13.17a1.22,1.22,0,0,0,1.14.86l36.71.73,58,1.15,13.32.27a1.19,1.19,0,0,0,.59-2.2c-4.3-2.66-7.79-6.82-11-10.62-1.14-1.33-2.2-2.71-3.34-4a1.81,1.81,0,0,0-1.33-.81,29.1,29.1,0,0,0-3.85,0h-69A1.18,1.18,0,0,0,1076.6,337.39Z" transform="translate(-780.29 -114.13)"/><path class="cls-3" d="M1075,328.55h73s9.15,11.81,15,15.31l-108-2.14-4.66-13.17Z" transform="translate(-780.29 -114.13)"/><path class="cls-4" d="M1075,329.73h57.82c4.79,0,9.67.28,14.45,0,1.36-.07-.06.14,0-.25,0,.25.89,1.12,1,1.31.68.83,1.36,1.66,2.06,2.48,3.54,4.18,7.34,8.7,12,11.61l.6-2.2-36.71-.73-58-1.15-13.31-.26,1.14.86-4.67-13.16-1.13,1.49H1075a1.18,1.18,0,0,0,0-2.36h-24.69a1.19,1.19,0,0,0-1.14,1.5l4.66,13.16a1.23,1.23,0,0,0,1.14.87l36.71.73,58,1.15L1163,345a1.19,1.19,0,0,0,.6-2.2c-4.3-2.65-7.79-6.81-11-10.61-1.14-1.33-2.2-2.72-3.34-4.05a1.8,1.8,0,0,0-1.33-.81,30.75,30.75,0,0,0-3.84,0h-69A1.18,1.18,0,0,0,1075,329.73Z" transform="translate(-780.29 -114.13)"/><path class="cls-3" d="M1075,320.9h73s9.15,11.81,15,15.31l-108-2.15-4.66-13.16Z" transform="translate(-780.29 -114.13)"/><path class="cls-4" d="M1075,322.08h57.82c4.79,0,9.67.28,14.45,0,1.36-.08-.06.14,0-.26,0,.26.89,1.13,1,1.32.68.83,1.36,1.66,2.06,2.48,3.54,4.18,7.34,8.7,12,11.61l.6-2.2-36.71-.73-58-1.15-13.31-.27,1.14.87-4.67-13.16-1.13,1.49H1075a1.18,1.18,0,0,0,0-2.36h-24.69a1.18,1.18,0,0,0-1.14,1.49l4.66,13.17a1.22,1.22,0,0,0,1.14.86l36.71.73,58,1.15,13.31.27a1.19,1.19,0,0,0,.6-2.2c-4.3-2.65-7.79-6.82-11-10.62-1.14-1.32-2.2-2.71-3.34-4a1.8,1.8,0,0,0-1.33-.81,28.94,28.94,0,0,0-3.84,0h-69A1.18,1.18,0,0,0,1075,322.08Z" transform="translate(-780.29 -114.13)"/><path class="cls-3" d="M1075,313.82h73s9.15,11.81,15,15.31l-108-2.15-4.66-13.16Z" transform="translate(-780.29 -114.13)"/><path class="cls-4" d="M1075,315h57.82c4.79,0,9.67.28,14.45,0,1.36-.08-.06.14,0-.26,0,.26.89,1.13,1,1.32.68.83,1.36,1.66,2.06,2.48,3.54,4.18,7.34,8.7,12,11.61l.6-2.2-36.71-.73-58-1.15-13.31-.27,1.14.87-4.67-13.16-1.13,1.49H1075a1.18,1.18,0,0,0,0-2.36h-24.69a1.18,1.18,0,0,0-1.14,1.49l4.66,13.17a1.22,1.22,0,0,0,1.14.86l36.71.73,58,1.15,13.31.27a1.19,1.19,0,0,0,.6-2.2c-4.3-2.65-7.79-6.82-11-10.62-1.14-1.32-2.2-2.71-3.34-4a1.8,1.8,0,0,0-1.33-.81,28.94,28.94,0,0,0-3.84,0h-69A1.18,1.18,0,0,0,1075,315Z" transform="translate(-780.29 -114.13)"/><path class="cls-3" d="M1075,306.17h73s9.15,11.81,15,15.3l-108-2.14-4.66-13.16Z" transform="translate(-780.29 -114.13)"/><path class="cls-4" d="M1075,307.35h57.82c4.79,0,9.67.27,14.45,0,1.36-.08-.06.14,0-.26,0,.26.89,1.12,1,1.31.68.84,1.36,1.66,2.06,2.48,3.54,4.19,7.34,8.71,12,11.61l.6-2.2-36.71-.72-58-1.16-13.31-.26,1.14.87-4.67-13.17-1.13,1.5H1075a1.18,1.18,0,0,0,0-2.36h-24.69a1.18,1.18,0,0,0-1.14,1.49l4.66,13.16a1.22,1.22,0,0,0,1.14.87l36.71.73,58,1.15,13.31.26a1.18,1.18,0,0,0,.6-2.19c-4.3-2.66-7.79-6.82-11-10.62-1.14-1.33-2.2-2.72-3.34-4a1.8,1.8,0,0,0-1.33-.81,28.94,28.94,0,0,0-3.84,0h-69A1.18,1.18,0,0,0,1075,307.35Z" transform="translate(-780.29 -114.13)"/><path class="cls-3" d="M1075,298.51h73s9.15,11.81,15,15.31l-108-2.14-4.66-13.17Z" transform="translate(-780.29 -114.13)"/><path class="cls-4" d="M1075,299.69h57.82c4.79,0,9.67.28,14.45,0,1.36-.08-.06.14,0-.25,0,.25.89,1.12,1,1.31.68.83,1.36,1.66,2.06,2.48,3.54,4.18,7.34,8.7,12,11.61l.6-2.2-36.71-.73-58-1.15-13.31-.26,1.14.86-4.67-13.16-1.13,1.49H1075a1.18,1.18,0,0,0,0-2.36h-24.69a1.19,1.19,0,0,0-1.14,1.5l4.66,13.16a1.23,1.23,0,0,0,1.14.87l36.71.72,58,1.16L1163,315a1.19,1.19,0,0,0,.6-2.2c-4.3-2.65-7.79-6.81-11-10.61-1.14-1.33-2.2-2.72-3.34-4.05a1.8,1.8,0,0,0-1.33-.81,28.94,28.94,0,0,0-3.84,0h-69A1.18,1.18,0,0,0,1075,299.69Z" transform="translate(-780.29 -114.13)"/><path class="cls-3" d="M1075,290.86h73s9.15,11.81,15,15.31l-108-2.15-4.66-13.16Z" transform="translate(-780.29 -114.13)"/><path class="cls-4" d="M1075,292h57.82c4.79,0,9.67.27,14.45,0,1.36-.08-.06.14,0-.26,0,.26.89,1.12,1,1.31.68.84,1.36,1.67,2.06,2.49,3.54,4.18,7.34,8.7,12,11.61l.6-2.2-36.71-.73-58-1.15-13.31-.27,1.14.87-4.67-13.17-1.13,1.5H1075a1.18,1.18,0,0,0,0-2.36h-24.69a1.18,1.18,0,0,0-1.14,1.49l4.66,13.17a1.22,1.22,0,0,0,1.14.86l36.71.73,58,1.15,13.31.27a1.19,1.19,0,0,0,.6-2.2c-4.3-2.66-7.79-6.82-11-10.62-1.14-1.33-2.2-2.71-3.34-4a1.8,1.8,0,0,0-1.33-.81,28.94,28.94,0,0,0-3.84,0h-69A1.18,1.18,0,0,0,1075,292Z" transform="translate(-780.29 -114.13)"/><path class="cls-3" d="M1075,283.78h73s9.15,11.81,15,15.31l-108-2.15-4.66-13.16Z" transform="translate(-780.29 -114.13)"/><path class="cls-4" d="M1075,285h57.82c4.79,0,9.67.28,14.45,0,1.36-.08-.06.14,0-.26,0,.26.89,1.12,1,1.31.68.84,1.36,1.67,2.06,2.49,3.54,4.18,7.34,8.7,12,11.61l.6-2.2-36.71-.73-58-1.15-13.31-.27,1.14.87-4.67-13.17-1.13,1.5H1075a1.18,1.18,0,0,0,0-2.36h-24.69a1.18,1.18,0,0,0-1.14,1.49l4.66,13.17a1.22,1.22,0,0,0,1.14.86l36.71.73,58,1.15,13.31.27a1.19,1.19,0,0,0,.6-2.2c-4.3-2.66-7.79-6.82-11-10.62-1.14-1.32-2.2-2.71-3.34-4a1.8,1.8,0,0,0-1.33-.81,28.94,28.94,0,0,0-3.84,0h-69A1.18,1.18,0,0,0,1075,285Z" transform="translate(-780.29 -114.13)"/><path class="cls-3" d="M1075,276.12h73s9.15,11.81,15,15.31L1083,290l1.54-13.92Z" transform="translate(-780.29 -114.13)"/><path class="cls-4" d="M1075,277.3h57.82c4.79,0,9.67.28,14.45,0,1.36-.07-.06.14,0-.25,0,.25.89,1.12,1,1.31.68.83,1.36,1.66,2.06,2.48,3.54,4.18,7.34,8.7,12,11.61l.6-2.2-27-.47-43-.75-9.88-.17,1.18,1.18,1.54-13.92a1.19,1.19,0,0,0-1.18-1.18H1075a1.18,1.18,0,0,0,0,2.36h9.63l-1.18-1.18L1081.86,290a1.2,1.2,0,0,0,1.18,1.18l27,.47,43,.75,9.88.17a1.19,1.19,0,0,0,.6-2.2c-4.3-2.65-7.79-6.81-11-10.61-1.14-1.33-2.2-2.72-3.34-4a1.81,1.81,0,0,0-1.33-.82,30.75,30.75,0,0,0-3.84,0h-69A1.18,1.18,0,0,0,1075,277.3Z" transform="translate(-780.29 -114.13)"/><path class="cls-3" d="M1083,271.54h66.3s8.31,9.29,13.61,12l-74-1.33,1.4-10.71Z" transform="translate(-780.29 -114.13)"/><path class="cls-4" d="M1083,272.54h65.29a6.67,6.67,0,0,0,1,0c-.1.27-1.1-.73-.15.3.57.62,1.14,1.22,1.72,1.82,3.44,3.57,7.14,7.41,11.55,9.78l.5-1.86-24.94-.45-39.81-.71-9.21-.17,1,1,1.41-10.71c.07-.54-.52-1-1-1H1083a1,1,0,0,0,0,2h7.35l-1-1-1.4,10.71c-.07.54.51,1,1,1l24.93.44,39.81.72,9.22.16a1,1,0,0,0,.5-1.85c-4.09-2.21-7.52-5.75-10.74-9.05-1-1-2.14-3-3.65-3.13-3.85-.32-7.85,0-11.7,0H1083A1,1,0,0,0,1083,272.54Z" transform="translate(-780.29 -114.13)"/><path class="cls-3" d="M1083,264.66h66.3s8.31,9.29,13.61,12l-74-1.33,1.4-10.71Z" transform="translate(-780.29 -114.13)"/><path class="cls-4" d="M1083,265.66h65.29a6.67,6.67,0,0,0,1,0c-.1.27-1.1-.73-.15.3.57.62,1.14,1.22,1.72,1.83,3.44,3.56,7.14,7.4,11.55,9.77l.5-1.86-24.94-.45-39.81-.71-9.21-.17,1,1,1.41-10.71c.07-.54-.52-1-1-1H1083a1,1,0,0,0,0,2h7.35l-1-1-1.4,10.71c-.07.54.51,1,1,1l24.93.45,39.81.71,9.22.17a1,1,0,0,0,.5-1.86c-4.09-2.2-7.52-5.75-10.74-9-1-1-2.14-3-3.65-3.13-3.85-.31-7.85,0-11.7,0H1083A1,1,0,0,0,1083,265.66Z" transform="translate(-780.29 -114.13)"/><path class="cls-3" d="M1083,259.3h66.3s8.31,9.28,13.61,12L1089,270l1.4-10.71Z" transform="translate(-780.29 -114.13)"/><path class="cls-4" d="M1083,260.29h65.29a5.56,5.56,0,0,0,1,0c-.1.28-1.1-.72-.15.31.57.61,1.14,1.22,1.72,1.82,3.44,3.57,7.14,7.41,11.55,9.78l.5-1.86-24.94-.45-39.81-.71L1089,269l1,1,1.41-10.71c.07-.54-.52-1-1-1H1083a1,1,0,0,0,0,2h7.35l-1-1L1088,270a1,1,0,0,0,1,1l24.93.45,39.81.72,9.22.16a1,1,0,0,0,.5-1.85c-4.09-2.21-7.52-5.75-10.74-9.05-1-1-2.14-3-3.65-3.13-3.85-.32-7.85,0-11.7,0H1083A1,1,0,0,0,1083,260.29Z" transform="translate(-780.29 -114.13)"/><path class="cls-3" d="M1083,253.28h66.3s8.31,9.29,13.61,12L1089,264l1.4-10.71Z" transform="translate(-780.29 -114.13)"/><path class="cls-4" d="M1083,254.27h65.29a5.56,5.56,0,0,0,1,0c-.1.28-1.1-.72-.15.31.57.62,1.14,1.22,1.72,1.82,3.44,3.57,7.14,7.41,11.55,9.78l.5-1.86-24.94-.45-39.81-.71L1089,263l1,1,1.41-10.71c.07-.54-.52-1-1-1H1083a1,1,0,0,0,0,2h7.35l-1-1L1088,264a1,1,0,0,0,1,1l24.93.45,39.81.72,9.22.16a1,1,0,0,0,.5-1.85c-4.09-2.21-7.52-5.75-10.74-9-1-1-2.14-3-3.65-3.13-3.85-.32-7.85,0-11.7,0H1083A1,1,0,0,0,1083,254.27Z" transform="translate(-780.29 -114.13)"/><path class="cls-3" d="M1083,244.1h66.3s8.31,9.29,13.61,12l-74-1.33,1.4-10.71Z" transform="translate(-780.29 -114.13)"/><path class="cls-4" d="M1083,245.1h65.29a6.67,6.67,0,0,0,1,0c-.1.27-1.1-.73-.15.31.57.61,1.14,1.22,1.72,1.82,3.44,3.57,7.14,7.41,11.55,9.77l.5-1.85L1138,254.7,1098.2,254l-9.21-.16,1,1,1.41-10.71c.07-.53-.52-1-1-1H1083a1,1,0,0,0,0,2h7.35l-1-1-1.4,10.71c-.07.55.51,1,1,1l24.93.45,39.81.71,9.22.17a1,1,0,0,0,.5-1.86c-4.09-2.2-7.52-5.75-10.74-9.05-1-1-2.14-3-3.65-3.12-3.85-.32-7.85,0-11.7,0H1083A1,1,0,0,0,1083,245.1Z" transform="translate(-780.29 -114.13)"/><path class="cls-5" d="M983.31,193.67v76.07c0,5.91,9.2,5.92,9.2,0V193.67c0-5.91-9.2-5.92-9.2,0Z" transform="translate(-780.29 -114.13)"/><path class="cls-6" d="M802.8,343.86,783.51,208s41.7,2.41,123,0l-8.25,135.91S844.66,366.63,802.8,343.86Z" transform="translate(-780.29 -114.13)"/><path class="cls-4" d="M803.91,343.56,802,330.05l-4.6-32.45-5.58-39.26L787,224.39l-1.59-11.19-.49-3.46a8.19,8.19,0,0,0-.27-1.86,1.6,1.6,0,0,1,0-.23l-1.11,1.45c6.31.36,12.62.52,18.94.67,18.76.45,37.54.48,56.31.29q23.9-.24,47.8-1L905.41,208l-.81,13.46-2,32.52-2.38,39.18-2.07,34-.67,11.16-.22,3.48a8.08,8.08,0,0,0-.11,1.83,1,1,0,0,1,0,.24l.57-1c.6-.26,0,0-.16.06a12,12,0,0,0-1.13.44c-1.37.53-2.76,1-4.16,1.5a151,151,0,0,1-14.75,4.19c-14.86,3.45-30.41,4.89-45.58,2.86a83.36,83.36,0,0,1-28.57-9.05c-1.3-.7-2.46,1.28-1.16,2,27.24,14.67,60.86,12.06,89.4,2.67,2.45-.81,4.89-1.66,7.27-2.67a1.15,1.15,0,0,0,.57-1l.81-13.46,2-32.52,2.38-39.18,2.07-34,.67-11.16a49.63,49.63,0,0,0,.33-5.31,1.93,1.93,0,0,1,0-.24,1.16,1.16,0,0,0-1.15-1.15c-25.66.76-51.33,1.18-77,1-13.34-.07-26.7-.26-40-.78-2-.07-4-.15-6-.27a1.18,1.18,0,0,0-1.11,1.46l1.92,13.51,4.61,32.44,5.57,39.26,4.82,33.95,1.58,11.19a42.85,42.85,0,0,0,.76,5.32,2,2,0,0,1,0,.24C801.9,345.63,804.11,345,803.91,343.56Z" transform="translate(-780.29 -114.13)"/><ellipse class="cls-7" cx="64.75" cy="93.82" rx="61.52" ry="13.51"/><path class="cls-4" d="M905.41,208c0,1.64-1.8,2.82-3,3.59a34.85,34.85,0,0,1-8.47,3.43c-9.18,2.68-18.83,3.84-28.34,4.57a266.7,266.7,0,0,1-36.64.3,162,162,0,0,1-29.9-4.11,48.11,48.11,0,0,1-9.6-3.27c-1.58-.78-3.85-1.89-4.57-3.66-1.51-3.76,6.51-6.29,8.77-7.06,8.65-2.94,17.94-4.18,27-5a262.64,262.64,0,0,1,36-.87A184.42,184.42,0,0,1,888,199.45a66.38,66.38,0,0,1,10.61,3.08c2.09.83,4.58,1.89,6.06,3.68a2.92,2.92,0,0,1,.75,1.74,1.15,1.15,0,0,0,2.3,0c-.14-5-7.39-7.36-11.21-8.61-9.4-3.09-19.48-4.31-29.3-5.15a267.74,267.74,0,0,0-39.65-.35c-10.43.68-21,1.83-31.13,4.64a40.32,40.32,0,0,0-9.5,3.68c-1.76,1-3.74,2.46-4.36,4.51-1.45,4.81,5.06,7.65,8.47,9,8.64,3.38,18.19,4.65,27.35,5.62a259.41,259.41,0,0,0,39.32,1c11.06-.5,22.26-1.55,33-4.15a55,55,0,0,0,10.48-3.44c2.1-1,4.44-2.26,5.7-4.27a4.91,4.91,0,0,0,.78-2.51A1.15,1.15,0,0,0,905.41,208Z" transform="translate(-780.29 -114.13)"/><path class="cls-8" d="M798.35,193.85l.91-2.46,4.66-2.33,3.36,3.91,5.1,1.67,2.37,7-1.93,1.67,1.89,5.33-4.7,4-1.26,5.92-5.06.8-7-8.14-1.42,2.58-4.5-.67-.51-4.1-5.84-3.29,2.05-4.65,4.85.37-2.12-8.46s4.87-4.19,5.3-3.34A39.31,39.31,0,0,0,798.35,193.85Z" transform="translate(-780.29 -114.13)"/><path class="cls-4" d="M799.46,194.15a11.29,11.29,0,0,0,.74-2c.15-.91,0,.29-.24.18.08,0,.59-.29.68-.33l3.86-1.94-1.4-.17c1.11,1.28,2.26,3.3,3.73,4.14s3.59,1.19,5.24,1.73l-.8-.8,2.38,7,.29-1.12L812,202.52a1.14,1.14,0,0,0-.3,1.12L813.6,209l.3-1.11L811.41,210a12.66,12.66,0,0,0-2.3,2,9.09,9.09,0,0,0-.76,3l-.71,3.33.81-.8-5.06.8,1.12.3-7-8.14a1.15,1.15,0,0,0-1.8.23l-1.42,2.58,1.3-.53-4.51-.67.85,1.11c-.19-1.51.06-4.27-1.28-5.21-1.73-1.22-3.79-2.13-5.64-3.17l.41,1.57,2.05-4.65-1,.57,4.85.37a1.16,1.16,0,0,0,1.11-1.46l-2.12-8.46-.3,1.12c.44-.38,4.33-3,4.31-3.11s-.68-.64-.59-.12a3.32,3.32,0,0,0,.56.69c.38.45.78.87,1.19,1.28.67.7,1.35,1.37,2,2,1.06,1,2.69-.6,1.62-1.62s-1.87-1.82-2.75-2.78c-.7-.77-1.17-1.88-2.37-1.77-2,.19-4.19,2.52-5.64,3.77a1.15,1.15,0,0,0-.3,1.12l2.13,8.45,1.1-1.45-4.85-.37a1.12,1.12,0,0,0-1,.57l-2.06,4.65a1.18,1.18,0,0,0,.42,1.57l5.84,3.29-.57-1,.51,4.1a1.17,1.17,0,0,0,.84,1.11L795,215a1.19,1.19,0,0,0,1.29-.53l1.42-2.58-1.81.23,6.21,7.22c.73.85,1.09,1.32,2.29,1.16,1.56-.2,3.12-.5,4.68-.74a1.13,1.13,0,0,0,.8-.8l.63-3,.43-2c.14-.63.52-1.05-.07-.44,1.42-1.45,3.13-2.69,4.67-4a1.11,1.11,0,0,0,.3-1.12L813.93,203l-.3,1.12,1.94-1.66a1.13,1.13,0,0,0,.29-1.12l-1.65-4.89c-.45-1.34-.56-2.57-2-3.09-.92-.34-1.87-.61-2.8-.91A14.56,14.56,0,0,0,808,192c-.63-.14-.15-.13,0,.09-1-1.36-2.22-2.58-3.31-3.85a1.16,1.16,0,0,0-1.39-.18c-1.43.71-2.94,1.34-4.31,2.15-1.12.67-1.35,2.14-1.79,3.32C796.72,194.93,798.94,195.53,799.46,194.15Z" transform="translate(-780.29 -114.13)"/><path class="cls-8" d="M837.23,179.09,836,176.8l1.27-5.05h5.16L847,169l6.89,2.78v2.55l5.27,2v6.19l3.68,4.82-2.69,4.36H849.38l1,2.75-3.45,3-3.44-2.3-6.3,2.3L835,192.86l3.44-3.44-7.8-3.91s0-6.42.92-6.19A39.06,39.06,0,0,0,837.23,179.09Z" transform="translate(-780.29 -114.13)"/><path class="cls-4" d="M838.22,178.51a9.44,9.44,0,0,0-1-1.87c-.62-.67.21.18-.08.33.09,0,.16-.62.19-.73l1.05-4.19-1.11.85c1.63,0,3.33.16,4.95,0,1.42-.14,2.8-1.38,4-2.1a5.45,5.45,0,0,0,1.07-.65c.55-.6-.31.48-.48,0,.08.26,1.76.71,2,.81l4.78,1.94-.84-1.11v2.55a1.2,1.2,0,0,0,.84,1.11l5.28,2-.84-1.1v3.28a13.6,13.6,0,0,0,0,3.06,8.05,8.05,0,0,0,1.74,2.54l2.06,2.71v-1.16l-2.68,4.36,1-.57H849.38a1.15,1.15,0,0,0-1.1,1.46l1,2.75.29-1.12-3.44,3,1.39-.18c-1.27-.84-3-2.7-4.62-2.3a63.65,63.65,0,0,0-6,2.19l1.3.53L836,192.28l-.17,1.39,3.44-3.44a1.17,1.17,0,0,0-.24-1.81l-7.8-3.9.57,1c0-.7,0-1.4,0-2.1a30.5,30.5,0,0,0,.39-3.27c.14.12-1.3.06-.49.36a2.88,2.88,0,0,0,.83,0c.58,0,1.16,0,1.74-.06,1-.06,1.92-.14,2.88-.23,1.46-.14,1.47-2.44,0-2.3-1.29.13-2.59.24-3.89.28-1,0-2.21-.33-2.92.57-1.23,1.56-.88,4.85-.89,6.72a1.16,1.16,0,0,0,.57,1l7.8,3.9-.23-1.81L834.23,192a1.21,1.21,0,0,0-.18,1.4l2.19,4.59a1.13,1.13,0,0,0,1.29.52,52.44,52.44,0,0,0,5.63-2c.46-.23.85-.06.24-.29-.92-.35.35.45.54.58l2.45,1.64a1.2,1.2,0,0,0,1.4-.18l3.44-3a1.11,1.11,0,0,0,.29-1.12l-1-2.76-1.11,1.46h9.52c1.08,0,1.75.07,2.41-.9.89-1.29,1.66-2.69,2.49-4a1.15,1.15,0,0,0,0-1.16L862,184.36l-1.26-1.65c-.41-.55-.43-1.05-.42-.21,0-2.05,0-4.11,0-6.16a1.18,1.18,0,0,0-.84-1.11l-5.28-2,.85,1.11v-2.55a1.19,1.19,0,0,0-.85-1.11l-4.62-1.87c-1.36-.55-2.3-1.26-3.65-.49-.86.49-1.71,1-2.56,1.55a11.51,11.51,0,0,0-1.12.68c-.55.44-.14.07,0,.09a44.25,44.25,0,0,0-5,0,1.17,1.17,0,0,0-1.11.84c-.39,1.55-.86,3.1-1.17,4.67-.27,1.34.65,2.41,1.29,3.56S838.94,179.81,838.22,178.51Z" transform="translate(-780.29 -114.13)"/><path class="cls-8" d="M822.89,177.17l1.68-2,5.17-.65,1.86,4.81,4.25,3.27-.1,7.43-2.38.92v5.66l-5.77,2.24L824.44,204l-5-.93-3.88-10-2.19,2-4-2.13.9-4-4.42-5,3.49-3.7,4.45,2,.81-8.68s6-2.32,6.11-1.39A39.44,39.44,0,0,0,822.89,177.17Z" transform="translate(-780.29 -114.13)"/><path class="cls-4" d="M823.7,178a8.18,8.18,0,0,0,1.38-1.64c.33-.8,0,.19-.38-.05.11.07.62-.08.75-.09l4.29-.54-1.11-.84c.62,1.61,1,4,2.16,5.31s3.09,2.38,4.48,3.45l-.57-1-.1,7.43.85-1.11-2.38.92a1.21,1.21,0,0,0-.85,1.11v5.66l.85-1.11L830,196.67a14.54,14.54,0,0,0-3,1.17,9.08,9.08,0,0,0-1.8,2.68l-1.78,2.9,1.3-.53-5-.93.8.81-3.88-10a1.17,1.17,0,0,0-1.92-.51l-2.19,2,1.39-.18-4-2.13.53,1.3c.34-1.55,1.48-4,.45-5.33-1.29-1.71-2.86-3.26-4.27-4.87v1.62l3.49-3.7-1.39.18,4.45,2a1.17,1.17,0,0,0,1.73-1l.81-8.68-.84,1.11c.71-.28,1.43-.53,2.15-.77.29-.1,3.19-.71,3.22-.8-.07.19-.57-1.17-.61-.33a1.93,1.93,0,0,0,.24.67c.21.57.47,1.13.72,1.69.43.94.88,1.87,1.34,2.79.66,1.32,2.65.16,2-1.16-.55-1.1-1.1-2.21-1.58-3.35-.4-.93-.5-2.22-1.61-2.55-1.88-.55-4.73.92-6.46,1.59a1.21,1.21,0,0,0-.84,1.11l-.82,8.68,1.73-1-4.45-2a1.19,1.19,0,0,0-1.4.18L805,183a1.17,1.17,0,0,0,0,1.62l4.41,5-.29-1.12-.9,4a1.18,1.18,0,0,0,.53,1.29l4,2.13a1.18,1.18,0,0,0,1.39-.17l2.19-2-1.92-.51,3.45,8.88c.37.95.54,1.71,1.62,2,1.51.4,3.12.58,4.66.86a1.2,1.2,0,0,0,1.29-.53L827,202l1.08-1.78a2.68,2.68,0,0,0,.36-.58l.1-.16c.17-.26,0-.11-.62.45,0,0,5.18-2,5.75-2.23a1.19,1.19,0,0,0,.84-1.1v-5.66l-.84,1.11,2.38-.93a1.19,1.19,0,0,0,.84-1.1l.07-5.17c0-1.47.31-2.56-.91-3.53-.76-.62-1.55-1.2-2.33-1.8a13.2,13.2,0,0,0-1.18-.91c-.79-.47.27.21.13.33.2-.17-1.64-4.24-1.84-4.73a1.17,1.17,0,0,0-1.1-.85c-1.59.2-3.19.36-4.78.6-1.41.21-2,1.34-2.88,2.4S822.75,179.12,823.7,178Z" transform="translate(-780.29 -114.13)"/><path class="cls-8" d="M801.05,196.35l-1.26-2.29,1.26-5.05h5.16l4.59-2.78,6.88,2.78v2.55l5.28,2v6.19l3.67,4.82L823.94,209H813.21l1,2.75-3.44,3-3.44-2.3-6.31,2.3-2.18-4.59,3.44-3.44-7.8-3.9s0-6.43.92-6.2A39,39,0,0,0,801.05,196.35Z" transform="translate(-780.29 -114.13)"/><path class="cls-4" d="M802.05,195.77a10,10,0,0,0-1-1.87c-.62-.67.2.18-.08.33.09,0,.15-.62.18-.73l1-4.19-1.11.85c1.63,0,3.33.16,5,0,1.42-.14,2.8-1.38,4-2.1a5.37,5.37,0,0,0,1.06-.65c.55-.6-.31.48-.48,0,.09.26,1.77.71,2,.81l4.79,1.94-.85-1.11v2.55a1.21,1.21,0,0,0,.85,1.11l5.27,2-.84-1.11v3.28a14.22,14.22,0,0,0,0,3.06,8.27,8.27,0,0,0,1.74,2.54l2.07,2.71V204L823,208.39l1-.57H813.21a1.16,1.16,0,0,0-1.11,1.46l1,2.75.3-1.12-3.44,3,1.39-.18c-1.27-.84-3-2.7-4.62-2.3a61.68,61.68,0,0,0-6,2.19l1.3.53-2.19-4.59-.18,1.39,3.44-3.44a1.16,1.16,0,0,0-.23-1.81l-7.8-3.9.57,1c0-.71,0-1.41.05-2.11a30.5,30.5,0,0,0,.39-3.27c.13.12-1.31.06-.5.36a2.89,2.89,0,0,0,.83,0c.58,0,1.16,0,1.74-.06,1-.06,1.93-.14,2.88-.23,1.46-.14,1.48-2.44,0-2.3-1.29.13-2.59.24-3.89.28-1,0-2.21-.33-2.92.57-1.23,1.56-.88,4.85-.88,6.73a1.13,1.13,0,0,0,.57,1l7.8,3.9-.23-1.81-3.45,3.44a1.19,1.19,0,0,0-.17,1.4l2.18,4.59a1.15,1.15,0,0,0,1.3.52,51.51,51.51,0,0,0,5.62-2c.46-.23.86-.06.24-.29-.91-.35.35.45.54.58l2.46,1.64a1.18,1.18,0,0,0,1.39-.18l3.44-3a1.12,1.12,0,0,0,.3-1.12l-1-2.76-1.11,1.46h9.52c1.07,0,1.75.07,2.41-.9.89-1.29,1.66-2.69,2.48-4a1.1,1.1,0,0,0,0-1.16l-1.83-2.41L824.52,200c-.41-.55-.42-1.05-.41-.21,0-2,0-4.11,0-6.16a1.19,1.19,0,0,0-.85-1.11l-5.27-2,.84,1.11V189a1.19,1.19,0,0,0-.84-1.11L813.36,186c-1.36-.55-2.3-1.26-3.64-.49-.87.49-1.71,1-2.56,1.55a11.66,11.66,0,0,0-1.13.68c-.55.44-.14.07.05.09a44.42,44.42,0,0,0-5,0,1.17,1.17,0,0,0-1.1.84c-.39,1.55-.87,3.1-1.18,4.67-.26,1.34.65,2.41,1.29,3.56S802.76,197.07,802.05,195.77Z" transform="translate(-780.29 -114.13)"/><path class="cls-8" d="M840.55,193l1.68-2,5.17-.65,1.86,4.81,4.25,3.27-.1,7.43-2.37.92v5.66l-5.77,2.24-3.17,5.16-5-.93-3.89-10-2.19,2-4-2.13.9-4-4.42-5.05,3.49-3.7,4.45,2,.82-8.69s6-2.32,6.1-1.38A39.83,39.83,0,0,0,840.55,193Z" transform="translate(-780.29 -114.13)"/><path class="cls-4" d="M841.37,193.8a8.47,8.47,0,0,0,1.37-1.64c.33-.8,0,.19-.37,0,.1.07.61-.08.74-.09l4.29-.54-1.11-.84c.62,1.61,1.05,4,2.16,5.31s3.09,2.38,4.48,3.46l-.56-1-.11,7.43.85-1.11-2.38.92a1.2,1.2,0,0,0-.84,1.11v5.66l.85-1.11-3.06,1.19a13.37,13.37,0,0,0-3,1.17,8.91,8.91,0,0,0-1.8,2.67l-1.78,2.9,1.3-.53-5-.92.8.8-3.88-10a1.17,1.17,0,0,0-1.92-.51l-2.19,2,1.39-.18-4-2.13.53,1.3c.34-1.54,1.48-4,.45-5.33-1.29-1.71-2.86-3.26-4.27-4.87v1.62l3.49-3.7-1.39.18,4.45,2a1.17,1.17,0,0,0,1.73-1l.81-8.69-.84,1.11c.71-.27,1.43-.53,2.15-.77.29-.09,3.19-.71,3.23-.8-.07.2-.58-1.17-.62-.33a2.16,2.16,0,0,0,.24.67c.22.57.47,1.13.72,1.69.43.94.88,1.87,1.34,2.79.67,1.32,2.65.16,2-1.16-.56-1.1-1.11-2.21-1.59-3.35-.4-.92-.5-2.22-1.61-2.54-1.88-.55-4.73.92-6.46,1.58a1.21,1.21,0,0,0-.84,1.11l-.82,8.69,1.73-1-4.45-2a1.19,1.19,0,0,0-1.39.18l-3.49,3.7a1.17,1.17,0,0,0,0,1.62l4.42,5.05-.3-1.12-.89,4a1.18,1.18,0,0,0,.52,1.3l4,2.13a1.19,1.19,0,0,0,1.39-.18l2.2-2-1.92-.51,3.44,8.88c.37,1,.54,1.72,1.62,2,1.51.4,3.12.58,4.66.86a1.18,1.18,0,0,0,1.29-.53l1.59-2.58,1.08-1.78a2.68,2.68,0,0,0,.36-.58l.1-.16c.17-.26,0-.11-.62.46,0,0,5.18-2,5.75-2.24a1.18,1.18,0,0,0,.84-1.1v-5.66l-.84,1.11,2.38-.92a1.21,1.21,0,0,0,.84-1.11l.07-5.16c0-1.48.31-2.57-.91-3.54-.76-.61-1.55-1.2-2.32-1.8-.39-.29-.77-.65-1.19-.91-.78-.47.27.21.13.33.2-.17-1.64-4.24-1.83-4.73s-.59-.91-1.11-.84c-1.59.19-3.19.35-4.78.59-1.41.21-2,1.34-2.88,2.4S840.42,194.94,841.37,193.8Z" transform="translate(-780.29 -114.13)"/><path class="cls-8" d="M857.6,193.53l1.68-2,5.16-.64,1.87,4.81,4.25,3.27-.1,7.42-2.38.92V213l-5.78,2.24-3.16,5.17-5-.93-3.88-10-2.2,2-4-2.13.89-4-4.42-5.05,3.49-3.69,4.45,2,.82-8.68s6-2.33,6.11-1.39A39.44,39.44,0,0,0,857.6,193.53Z" transform="translate(-780.29 -114.13)"/><path class="cls-4" d="M858.41,194.34a8.52,8.52,0,0,0,1.37-1.65c.33-.79,0,.2-.37,0,.1.07.62-.08.75-.1l4.28-.53-1.11-.84c.63,1.6,1,4,2.16,5.31s3.09,2.38,4.49,3.45l-.57-1-.1,7.42.84-1.11-2.38.93a1.19,1.19,0,0,0-.84,1.1V213l.84-1.11L864.72,213a14.29,14.29,0,0,0-3,1.17,9.3,9.3,0,0,0-1.8,2.67l-1.78,2.91,1.3-.53-5-.93.8.8-3.88-10a1.18,1.18,0,0,0-1.93-.51l-2.19,2,1.39-.18-4-2.13.53,1.3c.34-1.55,1.47-4,.44-5.33-1.29-1.71-2.85-3.27-4.26-4.88V201l3.48-3.7-1.39.18,4.45,2a1.17,1.17,0,0,0,1.73-1l.82-8.68-.84,1.1c.71-.27,1.42-.53,2.15-.76.28-.1,3.19-.72,3.22-.8-.07.19-.58-1.18-.61-.34a2.19,2.19,0,0,0,.23.68c.22.57.47,1.13.73,1.68.42.94.87,1.87,1.33,2.8.67,1.32,2.65.15,2-1.16-.56-1.11-1.1-2.22-1.59-3.35-.39-.93-.49-2.23-1.6-2.55-1.89-.55-4.74.92-6.47,1.59a1.23,1.23,0,0,0-.84,1.11l-.81,8.68,1.72-1-4.45-2a1.21,1.21,0,0,0-1.39.18l-3.49,3.7a1.18,1.18,0,0,0,0,1.63l4.42,5-.3-1.11-.89,4a1.17,1.17,0,0,0,.53,1.3l4,2.13a1.21,1.21,0,0,0,1.4-.18l2.19-2-1.92-.5,3.44,8.87c.38,1,.54,1.72,1.62,2,1.51.4,3.12.57,4.66.86a1.21,1.21,0,0,0,1.3-.53l1.58-2.58,1.09-1.78a2.52,2.52,0,0,0,.36-.59l.09-.15c.17-.27,0-.12-.62.45,0,0,5.19-2,5.75-2.23a1.21,1.21,0,0,0,.85-1.11v-5.66l-.85,1.11,2.38-.92a1.2,1.2,0,0,0,.85-1.11l.07-5.16c0-1.47.31-2.56-.91-3.54-.77-.61-1.56-1.19-2.33-1.79a12.79,12.79,0,0,0-1.18-.91c-.79-.48.27.21.12.32.21-.16-1.64-4.23-1.83-4.73a1.19,1.19,0,0,0-1.11-.84c-1.59.2-3.19.36-4.77.6-1.41.21-2,1.33-2.89,2.39S857.46,195.47,858.41,194.34Z" transform="translate(-780.29 -114.13)"/><path class="cls-8" d="M817.81,202.15l-.63-2.32,2.24-4.22,4.59,1.14,4.69-1.47,5.51,4-.56,2.27,4.25,3L836.54,210l2.21,5.1-3.35,3.28-9.55-2.35.31,2.67-3.72,1.9-2.56-2.8-6.11.66-.94-4.56,3.82-2.31-6.08-5.19s1.41-5.71,2.18-5.31A35.31,35.31,0,0,0,817.81,202.15Z" transform="translate(-780.29 -114.13)"/><path class="cls-4" d="M818.82,201.87a8.42,8.42,0,0,0-.49-1.82c-.54-1,.33.5-.2.22l.34-.63,1.86-3.5-1.19.49c1.44.35,2.9.85,4.36,1.08,1.31.19,2.76-.56,4-1a5,5,0,0,0,1.1-.34c.75-.44-.42.13-.37-.19,0,.16,1.49,1.07,1.66,1.2l3.8,2.75L833.2,199l-.56,2.27a1.08,1.08,0,0,0,.48,1.18l4.25,3-.48-1.19-.73,2.94a10.56,10.56,0,0,0-.67,2.85,9.75,9.75,0,0,0,1.09,2.73l1.26,2.9.16-1.28-3.35,3.29,1-.27L826.13,215c-.6-.15-1.42.31-1.34,1l.32,2.67.52-.91-3.72,1.9,1.28.17c-1-1.06-2.1-3.07-3.64-3.08a53.74,53.74,0,0,0-5.78.63l1,.77-.94-4.56-.48,1.18,3.81-2.3a1.06,1.06,0,0,0,.22-1.66l-6.09-5.18.27,1c.15-.6.32-1.19.49-1.78s1.2-2.61,1.07-2.89c0,.07-.83-.2-.63.12.06.09.58.19.65.21a16.76,16.76,0,0,0,1.71.36c.88.17,1.77.31,2.66.44,1.32.2,1.89-1.83.56-2s-2.46-.37-3.67-.64c-.94-.21-1.83-.75-2.68-.06-1.38,1.14-1.78,4.07-2.19,5.71a1.08,1.08,0,0,0,.27,1l6.09,5.18.21-1.65L812.3,213a1.08,1.08,0,0,0-.48,1.19l.94,4.56a1,1,0,0,0,1,.77c1.76-.19,3.62-.23,5.35-.57.1,0,.71,0,.74-.08-.64,1.55-.78-.92-.53-.1.06.17.35.38.47.51l1.9,2.08a1.07,1.07,0,0,0,1.27.16l3.72-1.9a1,1,0,0,0,.52-.91l-.31-2.67-1.33,1,8.51,2.1c.95.24,1.48.45,2.29-.23,1.1-.94,2.09-2.05,3.12-3.07a1.1,1.1,0,0,0,.17-1.28L838.55,212l-.75-1.75c-.57-1.31,0-.09-.24,0,.26-.08.65-2.63.72-2.9l.64-2.58a1.09,1.09,0,0,0-.49-1.19l-4.24-3,.48,1.19.56-2.27a1.09,1.09,0,0,0-.48-1.19l-3.81-2.75c-1-.76-1.7-1.55-3-1.19-.86.24-1.7.53-2.55.79a6.25,6.25,0,0,0-1.27.4c-.45.26-.23,0,.09.1-1.51-.31-3-.74-4.5-1.11a1.06,1.06,0,0,0-1.19.48c-.69,1.3-1.49,2.59-2.09,3.93-.51,1.14.06,2.25.37,3.42A1.05,1.05,0,0,0,818.82,201.87Z" transform="translate(-780.29 -114.13)"/><path class="cls-4" d="M905.41,208c0,1.64-1.8,2.82-3,3.59a34.85,34.85,0,0,1-8.47,3.43c-9.18,2.68-18.83,3.84-28.34,4.57a266.53,266.53,0,0,1-36.3.32A162.16,162.16,0,0,1,799,215.73,44.73,44.73,0,0,1,788.59,212c-1.48-.8-3.88-2.14-3.93-4.09a1.15,1.15,0,0,0-2.3,0c.14,5,7.39,7.36,11.21,8.62,9.4,3.08,19.48,4.3,29.31,5.14a266.39,266.39,0,0,0,39.65.35c10.43-.68,21-1.83,31.13-4.64A36.54,36.54,0,0,0,904,213.23c1.85-1.22,3.67-2.92,3.73-5.28a1.15,1.15,0,0,0-2.3,0Z" transform="translate(-780.29 -114.13)"/><path class="cls-9" d="M1151.79,393.58s14,16.31,12.74,45.05c0,0-12.85,11.69-32.46.42,0,0-16.6-29.28-15.62-46.1C1116.45,393,1130.4,376,1151.79,393.58Z" transform="translate(-780.29 -114.13)"/><polygon class="cls-9" points="314.85 366.15 51.63 366.15 56.12 355.59 310.56 355.59 314.85 366.15"/><polygon class="cls-9" points="335.05 275.68 77.94 275.68 86.73 254.8 327.36 254.8 335.05 275.68"/><path class="cls-10" d="M1111.68,189.52q.09-17.69.1-35.38c0-1.27-.2-2.55-.32-3.83l-5.9-5.2-1.12.8h0c-1.47,1.26,1.31,2.08.3,3.35a54.88,54.88,0,0,1-7.71.29h-65.78a33.86,33.86,0,0,0-7,.38,17.22,17.22,0,0,1-5.4.46q-62.65,0-125.3,0c-8.27,0-16.53.11-24.82,0-1.16-1.71.75-2,1.36-2.84.7-1,2.54-1.62,1-3.3-.37,0-.87-.07-1.08.13-2.36,2.19-5.11,4-7.22,6.62v4.63q0,66.29,0,132.58a.85.85,0,0,0-.53.18c-2.47,2-3.2,5.53-4.1,8.42a45.21,45.21,0,0,0-2.3,11.37c-.31,7.36,3.22,13.7,6.92,19.78v3a12.36,12.36,0,0,0,1.34,5.57c2.69,5.59,7.17,8.35,12.69,9.25a46.19,46.19,0,0,1-13.4,34.59c-4.52,4.59-9.66,8.68-13.09,14.22-1.9,3.05-3.23,6.41-4.91,9.57-1.57,2.94-3.54,5.63-5.18,8.52-3,5.33-4.89,12.75-.09,17.69l0,0a.78.78,0,0,0,1.07-1.14c-.16-.17-.32-.34-.46-.52-4-4.8-1.37-11.7,1.48-16.43,1.73-2.87,3.63-5.61,5.14-8.61a84.24,84.24,0,0,1,4.75-9.08c3.59-5.42,8.84-9.41,13.27-14.08a47.06,47.06,0,0,0,13-34.56l1,.09c2.65.16,5.31.22,8,.24,4.47,6.39,13.72,7.09,20.83,7.89,10.4,1.16,21.07,1.54,31.3-1a27.4,27.4,0,0,0,3.55,1.89l-3.75,0c-3.49.05-7,.2-10.48.17-7-.08-14-.27-21-.39a10.77,10.77,0,0,0-5.07.86c-1.22,3.56-2.86,7.07-3.6,10.89l-.06.14c-.23.66.14,1,.77,1.22h0L900,368c1.7-1,1.81-2.84,2.44-4.41.84-2.11,1.27-4.44,3.4-5.78a4,4,0,0,1,1.85-.47c14.31-.05,28.62,0,42.93,0h.05a31.61,31.61,0,0,0,8.69,0,3.21,3.21,0,0,1,2.73,1.17,2.56,2.56,0,0,1,.41,1.07c.25,7.19,2.64,7.24,8.72,7.23,9.34,0,18.67,0,28,0,6.91,0,7.51-.53,9-7.35a4.75,4.75,0,0,1,.74-1.67q30.22-.47,60.46-.21h.1a1.9,1.9,0,0,0,.36-.12,1.36,1.36,0,0,0,.83-2.07h0c-.36-.08-.58-.39-.87-.58-3.36-.11-6.72-.3-10.08-.31-5,0-10.07.13-15.1.14q-17.9.06-35.78,0c-.75,0-1.5-.16-2.33-.25v-8c1.1-.06,2.11-.18,3.12-.17,5.42,0,10.85.15,16.27.16a.77.77,0,0,0,.16.15c6.27,3.93,13.24,8.16,21,7.28a41.6,41.6,0,0,0,10.08-3,27.53,27.53,0,0,0,7.95-4.54q14,0,28.09-.05a17.32,17.32,0,0,0,9.19-2.55,31.12,31.12,0,0,0,6.54-5.46,9.23,9.23,0,0,0,2.52-6.69q-.07-48.79,0-97.6C1111.45,219.07,1111.61,204.29,1111.68,189.52ZM862.8,324.88c-2.94-5-5.49-10.26-5.36-16.24a39.44,39.44,0,0,1,2-10.48c.79-2.63,1.44-6,3.41-8.12Q862.8,307.45,862.8,324.88ZM1063,276.6H912.27V184.33H1063ZM927.81,353.39a106.48,106.48,0,0,1-16-.39,92.78,92.78,0,0,1-13.29-1.85c-3.4-.83-6.79-2.22-9.1-4.83h6.69q17.82,0,35.65,0h.13a29.23,29.23,0,0,0,5.84,5.71A64.2,64.2,0,0,1,927.81,353.39Zm6.09-7.1q9.33,0,18.65-.1a47.52,47.52,0,0,1-12.79,5.33A27.45,27.45,0,0,1,933.9,346.29Zm7.75,6.36a46.73,46.73,0,0,0,13.75-6.44l0,0,5.81,0c1,0,2,.15,3,.24,0,1.54.06,2.84,0,4.13s.29,2.71-.4,4.19l-.49.14h-1.9l-14,.19A27.25,27.25,0,0,1,941.65,352.65Zm114.68-3.28c-3.08,1.18-6.42,2.54-9.73,2.84-6.49.59-12.38-2.58-17.77-5.9l33.71-.11A28.62,28.62,0,0,1,1056.33,349.37Z" transform="translate(-780.29 -114.13)"/><path class="cls-10" d="M1070.72,355.3h0Z" transform="translate(-780.29 -114.13)"/><path class="cls-11" d="M1081.15,409.85c.42,1,.85,1.77,1.11,2.6,1,3.22,1.94,6.45,2.84,9.69q5.18,18.53,10.29,37.05a6.16,6.16,0,0,1,.09,1,11.88,11.88,0,0,1-.63,1.6c-1.36,2.5-2.77,5-4.25,7.61-1,.1-2,.28-3,.28-5.58,0-11.15,0-16.73,0H836.62c-2.64-2.4-4.27-5.51-6.13-8.44-.82-1.3-.47-2.7,0-4.1,2-5.46,3.92-10.95,5.91-16.42q4.77-13.14,9.58-26.26c.48-1.32.9-2.66,1.38-4.12a15.47,15.47,0,0,1,2.24-.43c1.42-.08,2.85,0,4.28,0h227.22Z" transform="translate(-780.29 -114.13)"/><path class="cls-12" d="M1104.44,145.91c-.13.68.46.78.84,1.1,1.16,1,2.27,2.05,3.3,3-.07.35-.06.49-.12.54a.66.66,0,0,1-.37.1l-83.34.17c-1.38.54-2.83.28-4.24.28H893.27c-7.89,0-15.79,0-23.68,0-1.25,0-2.6.43-3.76-.46,1.62-1.57,3.22-3.16,4.85-4.72a1.41,1.41,0,0,0,.44-1.68l2.39-.77c15.67-.26,31.35,0,47-.12,58-.57,116.06-.35,174.09-.37,1.93,0,3.9-.34,5.76.49C1102.19,143.52,1103.22,144.86,1104.44,145.91Z" transform="translate(-780.29 -114.13)"/><path class="cls-10" d="M899.21,366.68l.77,1.17c1.26,2.13-.78,4.3.11,6.53,2,1.28,4.22.79,6.37.79q80.73,0,161.45,0a45.17,45.17,0,0,1,7,.22c.61-.17.88,1,1.49.46.36-.3-.11.29-.27-.22-2.87-5-4.41-10.59-6.67-15.86a2.36,2.36,0,0,1,.43-2.84c.9-.24.69-1,.85-1.66.58,1.26,1.25,2.5,1.75,3.8,2.17,5.68,4.29,11.38,6.42,17.08a11.48,11.48,0,0,1,.32,1.63c-1.73,3-3.41,6-5.94,8.38H900.47c-2.55-2.59-3.12-6.17-4.7-9.1.65-2.29,1.2-4.42,1.87-6.5C898.07,369.26,898.68,368,899.21,366.68Z" transform="translate(-780.29 -114.13)"/><path class="cls-10" d="M1100.38,143.45c-1.79.13-3.58.36-5.37.36q-70.42,0-140.87,0c-22.94,1-45.89.36-68.83.57-2.59,0-5.19-.14-7.78,0a10.31,10.31,0,0,1-4-1c-.48.35-.59-.06-.26-.21a16.22,16.22,0,0,1,2.91-.86,7.37,7.37,0,0,1,1.56,0q41.78.08,83.55.15,53.44.06,106.87.07c9.46,0,18.92-.06,28.37-.09,1.42,0,2.86-.11,4.13.73.08,0,.1.18.15.28Z" transform="translate(-780.29 -114.13)"/><path class="cls-10" d="M1146.88,440.89c-4.48,1.53-8.93.39-13.39-.17-.89-.12-1.76-.38-2.64-.59a12,12,0,0,1-8-5.69,46,46,0,0,1-2.18-4.1,118.77,118.77,0,0,1-8.26-22.9c-1.22-5.28-2.76-10.48-3.44-15.88a7.08,7.08,0,0,1,1.34-5.78.84.84,0,0,1,1.12.1A66,66,0,0,1,1125,410.43c2,6.81,2.23,13.76,2.12,20.7-.05,3.33,1,5,4,6.05,5.08,1.74,10.36,1.81,15.62,2A1.14,1.14,0,0,1,1146.88,440.89Z" transform="translate(-780.29 -114.13)"/><path class="cls-10" d="M1111.59,386l-1.24-.19c.58-1.82,2.21-2.47,3.7-3.15,5.53-2.53,11.34-3.66,17.32-2.25a19.42,19.42,0,0,1,9.24,4.62c1.77,1.7,3.5,3.45,5.24,5.18a22.26,22.26,0,0,1,3.73,5.86c1.53,3,3.05,6,4.43,9a22,22,0,0,1,1.83,9,40.11,40.11,0,0,0,.4,5c.56,4.13,0,8.25,0,12.37a38.51,38.51,0,0,1-.61,4.49c-2.63,2.41-5.11,4.63-8.71,4.92v-1.27c7.69-4,7.16-11,6.79-18-.47-9.23-1.76-18.17-7.12-26.14-4.37-6.52-9.7-11.33-18.17-12.63,1.5,1.8,4.37,2.06,4,4.79-.37.69-1.07.61-2,.74,1.42,2.79,3.15,5.33,3.61,8.54.86-.81.69-2.5,2.3-1.67a4.85,4.85,0,0,1,1.08,2.87c.1,1.68-.41,3.17-2.14,3.72a2.7,2.7,0,0,1-3.63-2c-1.13-4.62-4.06-8.33-5.94-12.55-1.73-3.86-3.13-4.57-7.26-3.65C1116,384.11,1114.24,386.24,1111.59,386Z" transform="translate(-780.29 -114.13)"/><path class="cls-11" d="M1070.74,355.32l-.9-.59C1070.35,354.61,1070.67,354.78,1070.74,355.32Z" transform="translate(-780.29 -114.13)"/><path class="cls-13" d="M1072.92,152.38c1,0,2.06-.13,3.1-.14q15,0,30-.06h3.12a11.76,11.76,0,0,1,.64,5.08c0,7.39,0,14.78,0,22.17,0,18,.16,36,.13,54.06,0,27.22-.21,54.45-.31,81.68,0,5.18,0,10.37,0,15.55v2.93c-2.49,4.42-6.23,7.1-10.45,9.23a10.41,10.41,0,0,1-4.87,1q-47.27-.06-94.53-.07H914.9c-1,0-2.06-.08-3.1-.12-.42-1.8.79-3,1.79-4.07,6.64-7.26,12.76-15,19.47-22.16a5.29,5.29,0,0,1,2.83-1.94,38.91,38.91,0,0,1,7-.28c51.34.06,102.67-.14,154,.09a9.94,9.94,0,0,0,3.35-.38c.27-50.4.28-100.8.26-151.55-11.39-1.32-22,.15-32.55-.91-2.19-.78-2.25-2.4-1.11-3.93C1068.57,156.27,1070.05,153.62,1072.92,152.38Z" transform="translate(-780.29 -114.13)"/><path class="cls-13" d="M876,343.7c-1.55.17-2.72-.74-3.92-1.46a21.29,21.29,0,0,1-5.84-5.63,7.61,7.61,0,0,1-1.37-4.75c.06-4.67,0-9.33,0-14,0-21.77.34-43.54-.14-65.3-.32-15-.65-30.05-.21-45,.43-14.76.12-29.51.37-44.27.05-3.22,0-6.45,0-9.92,1.17-.09,2.17-.23,3.17-.23L947,153c10,0,20,.29,29.94-.19,16-.77,32.1-.2,48.16-.46.9,0,1.8.07,2.71.11-1.78,4.44-5.11,7.34-9.31,9.4a43.1,43.1,0,0,1-7,.26c-44.2,0-88.41.08-132.62,0a5,5,0,0,0-4,1.29V314.82c8.19,1,16-.08,23.63.69.71.24,1.52.36,1.83,1.39-.51,2.32-2.39,3.9-3.92,5.53q-9.43,10.05-18.73,20.21A9.51,9.51,0,0,1,876,343.7Z" transform="translate(-780.29 -114.13)"/><path class="cls-12" d="M1069.87,357c.06,2.12,1.08,4,1.82,5.86q2.68,6.82,5.33,13.67l-.12.1c-3.76,0-7.52-.12-11.27-.12l-157.07,0h-10.4c-.87-1.86.3-3.2.58-4.63a39.91,39.91,0,0,1,1.24-4L904,357a4.3,4.3,0,0,1,2.64-.37q27.52,0,55,0a4.84,4.84,0,0,1,2.29.28c.08,1.93.12,3.87.25,5.8a23.43,23.43,0,0,0,.48,2.72h37.09c.65,0,1.3,0,1.95,0,1.76-.11,2.64-.88,2.73-2.61.11-2.05.08-4.11.11-6.08,1.39-.79,2.71-.47,4-.47q26.43,0,52.86,0c1.42,0,2.85-.08,4.27,0A10.34,10.34,0,0,1,1069.87,357Z" transform="translate(-780.29 -114.13)"/><path class="cls-14" d="M966.35,363.25c-.09-.93-.18-1.42-.18-1.92,0-4.91,0-9.82,0-14.9a20,20,0,0,1,2.38-.31q16.71,0,33.42,0c.75,0,1.51.06,2.21.09a92,92,0,0,1,.06,16.76,4,4,0,0,1-1,.28Z" transform="translate(-780.29 -114.13)"/><path class="cls-15" d="M876,343.7a31.52,31.52,0,0,1,5.08-6.26c2.41-2.51,4.63-5.19,7-7.71s4.79-4.74,7.09-7.2c1.75-1.88,3.32-3.91,5-5.88.88-1.19,2.2-1.27,3.47-1.27,4.86,0,9.73-.36,14.57.21,1.78.48,1.83,1.53.95,2.89a32.2,32.2,0,0,1-3.88,4.83c-5.89,6.17-12.43,11.71-17.76,18.41a9.87,9.87,0,0,1-2.86,2c-4.19.08-8.39.19-12.58.22C880.07,343.93,878,343.77,876,343.7Z" transform="translate(-780.29 -114.13)"/><path class="cls-15" d="M934.36,316.65c.13.89-.43,1.42-1,2-3,3.21-6.19,6.24-8.78,9.74-2,2.7-4.79,4.69-6.39,7.69a6.23,6.23,0,0,1-1.33,1.39,28.61,28.61,0,0,0-5.1,6.24H900.93a1.83,1.83,0,0,1,.56-2.1c7.45-8,13.7-17.1,21.39-24.94a3.85,3.85,0,0,1,1.64-1C927.85,315.54,931.28,314.36,934.36,316.65Z" transform="translate(-780.29 -114.13)"/><path class="cls-15" d="M1072.92,152.38l-6.15,7.66c0,.23-.07.74-.11,1.25-.7,1.39-2.06,1.42-3.29,1.44a98.54,98.54,0,0,1-13.31-.2c-2.65-.8-2.55-2.46-1.29-4.39a22.81,22.81,0,0,1,5.52-5.74Z" transform="translate(-780.29 -114.13)"/><path class="cls-15" d="M1020,161c.8-.95,1.56-1.94,2.4-2.84,1.8-1.93,3.64-3.81,5.46-5.71h18.61c-1.76,4.38-5,7.46-8.81,10A56.15,56.15,0,0,1,1020,161Z" transform="translate(-780.29 -114.13)"/><path class="cls-13" d="M923.54,316.68c0,1-.72,1.59-1.33,2.26-2.69,2.94-5.45,5.81-8,8.86-2.87,3.43-5.54,7-8.33,10.52-.64.8-1.46,1.46-2.16,2.23-.94,1-1.85,2.11-2.78,3.17l-6.26,0a93.58,93.58,0,0,1,7.89-9c2.73-2.58,5.33-5.3,8-8,3.19-3.2,6.5-6.28,9-10.07A2.48,2.48,0,0,1,923.54,316.68Z" transform="translate(-780.29 -114.13)"/><path class="cls-13" d="M1038.65,161.33c1.29-1.57,2.56-3.16,3.89-4.69s2.59-2.81,3.88-4.21l7.87,0c.06,1-.63,1.58-1.23,2.25-1.67,1.85-3.29,3.75-4.9,5.59l.68,1.19C1045.42,163.53,1042,163.68,1038.65,161.33Z" transform="translate(-780.29 -114.13)"/><path class="cls-12" d="M893.25,150.78a2.49,2.49,0,0,1-.2.6h-27l-.23-.76Z" transform="translate(-780.29 -114.13)"/><path class="cls-12" d="M831.66,458.84c5.87-15.91,11.57-31.38,17.27-46.85,6,.27,11.86.1,17.78.1l17.5,0,17.9,0,17.5,0h17.9c6,0,11.93,0,17.89,0l17.51,0h106.73c2,5.11,3.09,10.42,4.79,15.52s2.92,10.16,4.36,15.24,2.94,10.39,4.41,15.56c-.39.19-.62.39-.85.39Z" transform="translate(-780.29 -114.13)"/><path class="cls-13" d="M1093.29,461.17l-3.58,6.27h-253l-4.38-6.66a12.62,12.62,0,0,1,5.19,0,6,6,0,0,0,3.78-.06,1.69,1.69,0,0,1,.77-.09c5.92.79,11.83-.32,17.76-.08s11.93.05,17.89.05h17.9l161,0c4.15,0,8.3,0,12.45,0,3.35.05,6.7-.25,10.05.49a22.47,22.47,0,0,0,4.65.11Z" transform="translate(-780.29 -114.13)"/><path class="cls-13" d="M1076.19,378.7c-1.63,2.21-2.83,3.86-4,5.48H901.39c-.89-1.57-2.18-3-2-5.16a5.38,5.38,0,0,1,1.19-.31Z" transform="translate(-780.29 -114.13)"/><path class="cls-16" d="M1077,376.49c.11.05.25.06.32.14s0,.2,0,.31l-.44-.35Z" transform="translate(-780.29 -114.13)"/><path class="cls-12" d="M1132.16,388.09c.06-2-1.35-2.67-2.85-3.09s-2.44-1.64-3.44-3.14a20,20,0,0,1,14.5,4.93,27.55,27.55,0,0,1,6,6.53c3.24,5.12,6.13,10.42,7.42,16.42a9.08,9.08,0,0,1,.1,1.16,184.06,184.06,0,0,1,.79,20.87,6.29,6.29,0,0,1-2.69,5.28,12.41,12.41,0,0,1-5.14,2.57,20.37,20.37,0,0,1-8.76.08c-2.48-.55-5.06-.66-7.53-1.51a11.31,11.31,0,0,1-4.71-2.92,9.08,9.08,0,0,1,0-1.8c.8-4.25,0-8.48-.13-12.72a43.86,43.86,0,0,0-1.9-10.21,63.71,63.71,0,0,0-8.1-17.46,62.29,62.29,0,0,0-4.68-5.77c.14-.39.32-.86.5-1.34,3.23-2.83,7.11-3.86,11.53-4.31l3.47,4.16v1.86c1.08,2.15,3.25,3.74,4.17,6.23s1,5,2.54,7.34l2,.11,1.31-2.25c-.24-1.36-.45-2.62-.66-3.87a11,11,0,0,1-1.51-1.76,13.68,13.68,0,0,1-.84-1.55,7.51,7.51,0,0,1-.36-.76c-.17-.37-.34-.75-.52-1.12a4.61,4.61,0,0,1-.36-.74,3.19,3.19,0,0,1-.19-.81Z" transform="translate(-780.29 -114.13)"/><path class="cls-13" d="M1111.27,390.66c2.58,2.07,6,6.65,7.86,11.36,4.12,10.19,5.81,17,5,29.66-.54-.58-1.07-.92-1.29-1.41a124,124,0,0,1-8.6-23.86c-.91-4-1.83-8-2.79-12A7.61,7.61,0,0,1,1111.27,390.66Z" transform="translate(-780.29 -114.13)"/><path class="cls-17" d="M1134.87,392.77a2.32,2.32,0,0,1,1,2.47c-.6.17-.68.61-.75,1.15-.14,1.08.36,2.28-.53,3.27a9.73,9.73,0,0,1-1.64-3.2,24.51,24.51,0,0,0-1-3.26,22.77,22.77,0,0,0-1.83-3.36c-.6-.93-1.36-1.77-2.32-3,1-.11,1.67-.38,2.13-.19a12.64,12.64,0,0,1,2.18,1.44l0,0c.4.46.28,1.19.8,1.6l0-.05c.41.46.28,1.2.81,1.6l0,0C1134.1,391.69,1134,392.59,1134.87,392.77Z" transform="translate(-780.29 -114.13)"/><path class="cls-18" d="M1101.64,167.26a24,24,0,0,0-.08-3.5,8.54,8.54,0,0,0-1-2.12h-4.76c-8.42,0-16.85-.06-25.27-.11-1.29,0-2.58-.16-3.86-.24h-.35l-17.47.13h-.6l-9-.09h-.57c-1.14,0-2.29.18-3.43.15-5-.15-10.08-.33-15.12-.51H1020l-128.41-.11c-4.53,0-9.08.05-13.62.06-1.44,0-2.85,0-4.07,1.47-.05,2.51-.13,5.23-.13,7.94q0,70.22,0,140.45a23.93,23.93,0,0,0,.17,3.49,9.74,9.74,0,0,0,.9,2.11c2,0,3.77.12,5.57.13l19.83.15h19.5l3.2,0h.66l10.33,0h.49c.65,0,1.29-.11,1.94-.11q77.58,0,155.16,0c2.69,0,5.42-.32,8.11.42.58.16,1.36-.4,2.13-.66V306.07ZM1063,184.33V276.6H912.27V184.33Z" transform="translate(-780.29 -114.13)"/><path class="cls-12" d="M890,454.22c.35-1.61.7-3.22,1.11-5.06,1.09-.78,2.57-.32,3.93-.33q36.57,0,73.14,0h12.5c.72,1.92.27,3.73.37,5.49a4.94,4.94,0,0,1-2.66.33H893C892,454.62,890.94,454.88,890,454.22Z" transform="translate(-780.29 -114.13)"/><path class="cls-19" d="M876,428.55c.6-1.94,1.19-3.88,1.78-5.79,2.77-.52,20.3-.63,25.41-.15l-.32,2.08c-1.68.92-.14,2.79-1.16,3.91l0,0c-4.62,1-9.36-.3-14,.73l-.84.05C883.35,428.18,879.58,429.7,876,428.55Z" transform="translate(-780.29 -114.13)"/><path class="cls-20" d="M1041.9,416.09h32.6c1.16,1,.63,2.09.81,3.05-.76.92-1.82.85-2.84.85-9,0-18,0-27,0C1042.75,420,1041.23,419.08,1041.9,416.09Z" transform="translate(-780.29 -114.13)"/><path class="cls-21" d="M842.65,445.84c-.19-1.83,1.09-3.06,1.88-4.75,2.09-.14,4.27,0,6.44-.07s4.13,0,6.2,0,4.38.08,6.57.12c.62,1.79-.28,3.21-1.18,4.93C856,445.94,849.31,446.35,842.65,445.84Z" transform="translate(-780.29 -114.13)"/><path class="cls-20" d="M982.63,428.44c0-1.89.07-3.79.11-5.78,5.18-1,10,.25,15.11.66.66,1.52.39,3.16.2,4.78,0,.17-.36.31-.55.46A50.42,50.42,0,0,1,982.63,428.44Z" transform="translate(-780.29 -114.13)"/><path class="cls-21" d="M845.63,437.8c.61-2.05,1-4.21,2.63-6a57.11,57.11,0,0,1,6.82-.14c2.32,0,4.63,0,6.95,0-.9,6.4-1.11,6.68-7.3,6.55C851.7,438.18,848.61,438.89,845.63,437.8Z" transform="translate(-780.29 -114.13)"/><path class="cls-19" d="M985.79,444.94v-3.38c2.71-.66,16.08-.82,22.24-.29a7,7,0,0,1,.11,4c0,.18-.39.28-.6.41-5.33-.88-10.71-.13-16-.4C989.59,445.18,987.65,445.67,985.79,444.94Z" transform="translate(-780.29 -114.13)"/><path class="cls-12" d="M983.42,455c-.25-.27-.7-.52-.71-.8-.07-1.65,0-3.3,0-4.89,2.73-.65,8.73-.76,13.75-.26a17.84,17.84,0,0,1,0,6.31c0,.16-.4.26-.61.39C991.74,454.7,987.5,456.13,983.42,455Z" transform="translate(-780.29 -114.13)"/><path class="cls-20" d="M992,432.5c.14-.21.27-.58.42-.59,1.67-.09,3.48-.56,5-.06a20.71,20.71,0,0,0,6.09.6c1.41.05,2.83,0,4.41,0,.53,1.64,1,3.15-.19,4.65-5.17.88-10.34.19-15.67.38A7.43,7.43,0,0,1,992,432.5Z" transform="translate(-780.29 -114.13)"/><path class="cls-12" d="M862,428.57l-.58.05c-1-2.39.3-4.28,1.31-6.25l1.52,1.26c.26.11.07-.75.65-1.16,3.29-.25,6.86-.12,10.43-.06.72,2-.62,3.61-.88,5.42l0-.05c-1.15,1.81-3,1.16-4.54,1.13C867.3,428.85,864.62,429.39,862,428.57Z" transform="translate(-780.29 -114.13)"/><path class="cls-20" d="M976.61,437.81a1,1,0,0,1-1-.95c-.31-1.74.57-3.2,1-4.76a53.25,53.25,0,0,1,12.68-.16c.62,1.65.15,3.45.31,5.18C985.36,438.17,980.93,436.91,976.61,437.81Z" transform="translate(-780.29 -114.13)"/><path class="cls-20" d="M968.71,428.68l.93-6.12a86.92,86.92,0,0,1,11.21-.13c.09,1.12.2,2.09.23,3.07s0,2,0,3.07h-.78A43,43,0,0,1,968.71,428.68Z" transform="translate(-780.29 -114.13)"/><path class="cls-12" d="M863.49,437.13c-.21-.28-.67-.64-.6-.82.54-1.53,1.17-3,1.8-4.61h12.9c-.54,5.88-.88,6.28-6.63,6.17C868.47,437.82,865.85,438.59,863.49,437.13Z" transform="translate(-780.29 -114.13)"/><path class="cls-22" d="M890,454.22l83.66,0c2.46,0,4.93,0,7.39,0-.25.26-.48.69-.77.73a16.27,16.27,0,0,1-2.32.06l-85,0a13.65,13.65,0,0,1-2.31-.11C890.44,455,890.24,454.5,890,454.22Z" transform="translate(-780.29 -114.13)"/><path class="cls-21" d="M1047.88,448.93H1060a16.49,16.49,0,0,1,1.23,3.73c.07.65,0,1.28-.7,1.58-3.83.84-7.67.16-11.57.42A12,12,0,0,1,1047.88,448.93Z" transform="translate(-780.29 -114.13)"/><path class="cls-23" d="M863.56,455c-.07-2.25,1-4.11,1.93-6.25H876c-.22,5.87-1,6.67-6.75,6.6C867.34,455.36,865.4,455.83,863.56,455Z" transform="translate(-780.29 -114.13)"/><path class="cls-21" d="M849.52,428.49c.28-1.21.49-2.44.86-3.62a18.56,18.56,0,0,1,1-2.37h10c.8,4.82-.71,6.89-5.24,6.8C853.94,429.25,851.56,430.1,849.52,428.49Z" transform="translate(-780.29 -114.13)"/><path class="cls-23" d="M878.44,437.26c.59-1.76,1.19-3.53,1.86-5.5,1.73,0,3.48-.06,5.24-.07s3.55,0,5.32.09c.26,0,.49.49.74.75,1,1.78,0,3.19-.85,5C886.66,437.42,882.55,437.77,878.44,437.26Z" transform="translate(-780.29 -114.13)"/><path class="cls-23" d="M878.44,455.76l-1.34-.09c-.08-.45-.34-1-.22-1.38.57-1.8,1.24-3.56,1.91-5.45h9.73c.46,2.26-.73,4.13-1.2,6.13C884.25,456,881.24,454.82,878.44,455.76Z" transform="translate(-780.29 -114.13)"/><path class="cls-20" d="M907.11,441.05l1.55,1.31c.31.14-.12-1,.42-1.07a96,96,0,0,1,12.24-.15c.48,1.61,0,3-.89,4.78a98.65,98.65,0,0,1-13.31-.07A3.58,3.58,0,0,1,907.11,441.05Z" transform="translate(-780.29 -114.13)"/><path class="cls-12" d="M917.92,431.76h11.26a3.81,3.81,0,0,1,.25,3.64c-.19.6-.36,1.21-.55,1.81a14.89,14.89,0,0,1-10-.07c0-.64,0-1.34-.8-1.57A2.79,2.79,0,0,1,917.92,431.76Z" transform="translate(-780.29 -114.13)"/><path class="cls-24" d="M1041.9,416.09l1,2.84c3.37.41,22.95.54,32.42.21.48.29.79.64.48,1.24-2.86.54-24.81.7-33.84.23-1-1.45-1.94-3-1.49-4.95A1,1,0,0,1,1041.9,416.09Z" transform="translate(-780.29 -114.13)"/><path class="cls-12" d="M925.82,428.52c.33-1.87.66-3.73,1-5.83,2.74-.74,5.65-.2,8.7-.28a12.67,12.67,0,0,1,.21,5.7c0,.17-.37.3-.57.46A22.3,22.3,0,0,1,925.82,428.52Z" transform="translate(-780.29 -114.13)"/><path class="cls-21" d="M1073.51,449c3.55-.3,7.1-.09,10.64-.16.69,1.88,1.5,3.46,1.29,5.3-3.58,1.18-7.2.23-10.8.54C1073.76,452.65,1073.08,450.92,1073.51,449Z" transform="translate(-780.29 -114.13)"/><path class="cls-20" d="M964,437c0-1.64.07-3.29.1-4.88a34,34,0,0,1,10.66-.1,22.37,22.37,0,0,1,0,5.24C971.15,437.51,967.53,438,964,437Z" transform="translate(-780.29 -114.13)"/><path class="cls-20" d="M941.42,437.16a23.34,23.34,0,0,1,0-3.45,6.45,6.45,0,0,1,.94-1.92h9.49a9.28,9.28,0,0,1,.24,4.87c0,.17-.36.31-.56.46A29.08,29.08,0,0,1,941.42,437.16Z" transform="translate(-780.29 -114.13)"/><path class="cls-12" d="M937.49,428.5a10.87,10.87,0,0,1,1.29-6h7.74a13.14,13.14,0,0,1,.12,5.65c0,.17-.38.29-.58.43A18.93,18.93,0,0,1,937.49,428.5Z" transform="translate(-780.29 -114.13)"/><path class="cls-12" d="M893.21,436.45l1.09-3.9a2.67,2.67,0,0,1,2.48-.87c3.2,0,6.4,0,9.61,0a10.51,10.51,0,0,1-1,5.18C901.4,437,897.3,437.79,893.21,436.45Z" transform="translate(-780.29 -114.13)"/><path class="cls-25" d="M880,445.81c.3-1.47.61-2.95,1-4.6a31.76,31.76,0,0,1,5.76-.17c1.94,0,3.88.09,5.82.14.92,1.8,0,3.2-1.18,4.89C887.69,446,883.85,446.35,880,445.81Z" transform="translate(-780.29 -114.13)"/><path class="cls-12" d="M1070.55,432.51c2.5-.33,4.94-1.18,7.52-.8a8.08,8.08,0,0,1,.8.21c2,1.47,1.9,3.67,1.89,5.84-2.86,1.11-5.76.37-8.58.37A8.68,8.68,0,0,1,1070.55,432.51Z" transform="translate(-780.29 -114.13)"/><path class="cls-21" d="M914.9,428.41c.14-2-.4-4.09,1.45-6,2.51-.05,5.29-.09,8.06.06a11,11,0,0,1-1,6.38C920.56,428.76,917.71,429.55,914.9,428.41Z" transform="translate(-780.29 -114.13)"/><path class="cls-12" d="M851.08,454.17a8.54,8.54,0,0,1,1.88-5.3h9.14c.25,4.86-.79,6.18-5.18,6.12C855,455,852.85,455.66,851.08,454.17Z" transform="translate(-780.29 -114.13)"/><path class="cls-20" d="M839.42,455c0-2.2,1-4.07,2-6.19,2.77,0,5.53-.09,8.29.06.36,2.28-1,4.1-1.57,6.33C845.14,455.39,842.28,455.8,839.42,455Z" transform="translate(-780.29 -114.13)"/><path class="cls-23" d="M903.31,428.65c-.13-2.24.92-4.11,1.87-6.21a51.58,51.58,0,0,1,6.46,0c.35,0,.69.6,1,.92,1.08,1.85.17,3.44-.56,5.23A24.34,24.34,0,0,1,903.31,428.65Z" transform="translate(-780.29 -114.13)"/><path class="cls-20" d="M948.44,428.63c0-2.12-.53-4.36,1.32-6.14h7a33.42,33.42,0,0,1,.17,6.14A23.75,23.75,0,0,1,948.44,428.63Z" transform="translate(-780.29 -114.13)"/><path class="cls-20" d="M958.52,428.57c.05-2-.36-4.08,1.05-5.84a1.6,1.6,0,0,1,.35-.24h7c.08,1.09.17,2.06.2,3s0,2,0,3.05A20.92,20.92,0,0,1,958.52,428.57Z" transform="translate(-780.29 -114.13)"/><path class="cls-20" d="M930.51,437.15c-.24-1.85.43-3.49,1.24-5.4,2.68-.12,5.47-.08,8.15,0a1.94,1.94,0,0,1,.54,2.54,7.79,7.79,0,0,0-.68,3A28.43,28.43,0,0,1,930.51,437.15Z" transform="translate(-780.29 -114.13)"/><path class="cls-21" d="M999,448.84h9c.78,1.84.26,3.66.43,5.41-3.11,1.54-6.24.56-9.32.57C998,452.5,997.91,450.67,999,448.84Z" transform="translate(-780.29 -114.13)"/><path class="cls-23" d="M1068.29,423.8c.42-.22.83-.64,1.25-.65,2.2-.07,4.4,0,6.71,0a7,7,0,0,1,2.16,5.43,23.38,23.38,0,0,1-9.39,0l0,0c-.43-.46-.3-1.19-.81-1.6l0,0A3.28,3.28,0,0,1,1068.29,423.8Z" transform="translate(-780.29 -114.13)"/><path class="cls-20" d="M953.14,437.23v-4.11a2.22,2.22,0,0,1,2.13-1.44c1.66,0,3.32-.07,5,.05a7.42,7.42,0,0,1,2.08.86v4.67A33.21,33.21,0,0,1,953.14,437.23Z" transform="translate(-780.29 -114.13)"/><path class="cls-12" d="M922.14,442.55c1.14.2,1.28-1,2.25-1.52,3.31,0,6.83,0,10.44,0a10,10,0,0,1,.29,3.93,23.08,23.08,0,0,1-12.34,0c-.09-.61.06-1.33-.74-1.61C921.64,443.05,921.67,442.77,922.14,442.55Z" transform="translate(-780.29 -114.13)"/><path class="cls-21" d="M1021.5,448.87c2.53,0,5,0,7.58,0,.22,0,.44.18.92.39a28.5,28.5,0,0,1,.08,5.08c-2.74,1.34-5.51.53-8.35.45A9.89,9.89,0,0,1,1021.5,448.87Z" transform="translate(-780.29 -114.13)"/><path class="cls-21" d="M907.9,437c.12-1.74-.4-3.63,1.78-5.31,2.17,0,4.94-.08,7.73.06.3,1.85-.4,3.53-.81,5.49C913.65,437.45,910.78,438,907.9,437Z" transform="translate(-780.29 -114.13)"/><path class="cls-21" d="M865.88,444.88a5.14,5.14,0,0,1,1.25-3.71,33.78,33.78,0,0,1,5.54-.13c1.92,0,3.84,0,5.76,0,.49,1.5-.16,2.74-1,4.34C873.65,445.58,869.74,446.42,865.88,444.88Z" transform="translate(-780.29 -114.13)"/><path class="cls-12" d="M1034,432.65c.23-.29.46-.81.71-.82,2.06-.09,4.13-.15,6.2-.07.54,0,1.06.6,1.71,1,0,1.24.05,2.39,0,3.54,0,.29-.45.56-.69.83-1.46.77-3,.36-4.55.36C1033.74,437.47,1033.21,436.64,1034,432.65Z" transform="translate(-780.29 -114.13)"/><path class="cls-21" d="M1013.8,432.4c.07-.11.11-.29.2-.32a15.56,15.56,0,0,1,7.43,0c.21.05.36.35.82.84,0,.92.1,2.17.06,3.42,0,.28-.44.54-.68.81-2.19.87-4.44.1-6.28.4-1.56-.66-.8-2.06-1.59-2.74l0,.05A2,2,0,0,1,1013.8,432.4Z" transform="translate(-780.29 -114.13)"/><path class="cls-12" d="M897,419.2a5.1,5.1,0,0,1,1.28-3.74,35.84,35.84,0,0,1,4.79-.11c1.55,0,3.09-.05,4.63.06.37,0,.7.59,1,.91.6,1,.44,1.93-.27,3.27C904.8,419.43,900.91,420.08,897,419.2Z" transform="translate(-780.29 -114.13)"/><path class="cls-23" d="M1071.17,442.55l-.54-.85c.27-.25.44-.56.62-.56,3.47,0,6.94,0,10.4,0A4.45,4.45,0,0,1,1083,445a34.13,34.13,0,0,1-10.91,0l0,0C1071.48,444.3,1072.18,443.07,1071.17,442.55Z" transform="translate(-780.29 -114.13)"/><path class="cls-12" d="M894.71,444.93c.08-1.24-.42-2.63,1.25-3.8,3.25-.22,6.86-.09,10.47-.06.52,1.48-.12,2.73-.91,4.33C902,445.57,898.33,446.41,894.71,444.93Z" transform="translate(-780.29 -114.13)"/><path class="cls-21" d="M1013,423.73c.42-.21.84-.58,1.27-.59,1.89-.07,3.79,0,5.67,0,1.9,1.51,1.65,3.55,1.54,5.55-2.5.55-5,.21-7.72.25C1013.49,427.06,1012.19,425.6,1013,423.73Z" transform="translate(-780.29 -114.13)"/><path class="cls-20" d="M936.73,444.92v-3.59c3.58-.6,7-.21,10.63-.27.13,1.44.88,2.73-.52,3.86A14.53,14.53,0,0,1,936.73,444.92Z" transform="translate(-780.29 -114.13)"/><path class="cls-23" d="M1000.58,423.11H1008c.67,1.95.26,3.74.36,5.5-2.53.67-5.07.28-7.77.22A9.46,9.46,0,0,1,1000.58,423.11Z" transform="translate(-780.29 -114.13)"/><path class="cls-12" d="M1010.58,448.87H1018c.84,1.78.24,3.61.46,5.35-2.51.86-5,.26-7.72.34A9.88,9.88,0,0,1,1010.58,448.87Z" transform="translate(-780.29 -114.13)"/><path class="cls-25" d="M1032.37,423.2h7.5c.38,1.26.81,2.54,1.14,3.85a1.16,1.16,0,0,1-.77,1.52c-2.22.75-4.49.27-6.74.31A6.82,6.82,0,0,1,1032.37,423.2Z" transform="translate(-780.29 -114.13)"/><path class="cls-21" d="M1033.21,448.84c1.8,0,3.6,0,5.4,0a2.44,2.44,0,0,1,2.44,1.6v3.8c-2.52,1.5-5.08.84-7.82.36A10.68,10.68,0,0,1,1033.21,448.84Z" transform="translate(-780.29 -114.13)"/><path class="cls-20" d="M995.06,416.15h12.19c.23,0,.45.18.94.38,0,.85,0,1.83.06,2.8a92.14,92.14,0,0,1-12.84.17A2.36,2.36,0,0,1,995.06,416.15Z" transform="translate(-780.29 -114.13)"/><path class="cls-12" d="M873.63,416.92l2.28-1.52h9.51c.15,3.53-1.69,4.84-5,4.62-1.8-.11-3.6,0-5.4-.06a2.77,2.77,0,0,1-1.19-.34,2,2,0,0,1-.69-1.63A1.75,1.75,0,0,1,873.63,416.92Z" transform="translate(-780.29 -114.13)"/><path class="cls-20" d="M931.5,416.07c2-.48,3.91-1.42,5.88,0h5c.54,1.25,1.12,2.27-.21,3.18-3.32,1.61-6.86.38-10.28.81h-.6A2.72,2.72,0,0,1,931.5,416.07Z" transform="translate(-780.29 -114.13)"/><path class="cls-20" d="M960.11,445v-3.59c3.26-.66,6.4-.24,9.77-.3.24,1.41.87,2.67-.41,3.84A13.08,13.08,0,0,1,960.11,445Z" transform="translate(-780.29 -114.13)"/><path class="cls-12" d="M972.52,444.14c-1.29-.67-.66-1.72-.55-2.83,2-.54,4-.22,6-.27s3.8,0,5.9,0c.26,1.2,1,2.22-.39,3.1A16.61,16.61,0,0,1,972.52,444.14Z" transform="translate(-780.29 -114.13)"/><path class="cls-12" d="M1064.2,449h6c.27.38,1,.94,1,1.56a11,11,0,0,0,.78,2.91c.06.17-.39.53-.6.81-2.2,1.13-4.61,1.4-6.58,0C1063.15,453,1063.22,450.89,1064.2,449Z" transform="translate(-780.29 -114.13)"/><path class="cls-22" d="M873.63,416.92a.81.81,0,0,0,0,.51c-.27.62-.53,1.24,0,1.84l0,.22a.74.74,0,0,1,0,1c-3.22.08-6.51.63-9.64.13a99.47,99.47,0,0,0-10.31-.6c-.23,0-.45-.2-.94-.43,2.47-1,4.87-.09,7.36-.62l1.52-2.72c.85-.07,1.07.31.94.91s-.34,1.15-.51,1.7a3.53,3.53,0,0,0,.91.35c2.57,0,5.14,0,7.89,0,.61-1.24,1.22-2.44,1.81-3.63C873.74,415.57,873.56,416.32,873.63,416.92Z" transform="translate(-780.29 -114.13)"/><path class="cls-20" d="M949.23,445v-3.6c3-.72,5.87-.23,9-.34.2,1.43.88,2.7-.45,3.86A22.51,22.51,0,0,1,949.23,445Z" transform="translate(-780.29 -114.13)"/><path class="cls-20" d="M974.91,420.08v-3.63c3-.62,5.93-.24,8.89-.32.65,1.43.35,2.72.35,4A29.52,29.52,0,0,1,974.91,420.08Z" transform="translate(-780.29 -114.13)"/><path class="cls-20" d="M964,419.89c0-1.12.1-2.25.15-3.48,1.59-.51,3.12-.24,4.61-.29s2.76,0,4.2,0c.64,1.41.32,2.68.4,3.91A21.12,21.12,0,0,1,964,419.89Z" transform="translate(-780.29 -114.13)"/><path class="cls-21" d="M1051.91,423.14h6.28c1.8,1.62,1.54,3.57,1.52,5.45C1053.89,430.55,1052.31,429.44,1051.91,423.14Z" transform="translate(-780.29 -114.13)"/><path class="cls-23" d="M1012.94,416.34c.34-.32.66-.9,1-.92,1.76-.1,3.54,0,5.53,0,.37.46,1.14,1,1.18,1.59.06,1,.8,2.31-.65,3a13.88,13.88,0,0,1-7,0l0,.05A2.83,2.83,0,0,1,1012.94,416.34Z" transform="translate(-780.29 -114.13)"/><path class="cls-21" d="M911,419.16c.13-1.22-.38-2.64,1.31-3.69a72.78,72.78,0,0,1,8.13-.07c.67,1.49,0,2.69-.87,4C916.74,419.55,913.87,420.07,911,419.16Z" transform="translate(-780.29 -114.13)"/><path class="cls-12" d="M886.13,416.9l1.36-1.41h7.38c.58,3.32,0,4.21-3.06,4.49-1.89.17-3.79-.16-5.68,0l-.84,0C884.59,418.68,884.2,417.47,886.13,416.9Z" transform="translate(-780.29 -114.13)"/><path class="cls-12" d="M1023.79,423.21h5.92c.83,1.76.23,3.59.44,5.34-2.05,1.33-4.14.78-6.3.35A6.12,6.12,0,0,1,1023.79,423.21Z" transform="translate(-780.29 -114.13)"/><path class="cls-21" d="M1043.35,424c.37-.29.73-.79,1.11-.82,1.53-.09,3.06,0,4.83,0,.15,2,1.34,3.62,1,5.59a24.5,24.5,0,0,1-6.11.13C1043.31,427.19,1042.59,425.72,1043.35,424Z" transform="translate(-780.29 -114.13)"/><path class="cls-12" d="M1024.68,432.51c.81-1.56,2.24-.71,3.38-.78,1.92-.13,1.93,0,3.53,1.15v3.61c-1.25.88-2.7.65-4.08.61C1024,437,1023.56,436.26,1024.68,432.51Z" transform="translate(-780.29 -114.13)"/><path class="cls-21" d="M1044.93,432.4a5.75,5.75,0,0,1,1.22-.69c1.61-.46,2.92.73,4.62.87.36,1.1.82,2.26,1.09,3.46.06.3-.5.73-.77,1.11-1.85.75-3.69.2-5.57.29C1045,435.56,1044.25,434.08,1044.93,432.4Z" transform="translate(-780.29 -114.13)"/><path class="cls-26" d="M863.49,437.13h12l2.09-5.43a1.1,1.1,0,0,1,.78,1.5,13.79,13.79,0,0,1-2.08,5.35H863.88C863.74,438.05,863.61,437.59,863.49,437.13Z" transform="translate(-780.29 -114.13)"/><path class="cls-24" d="M849.52,428.49a80.6,80.6,0,0,0,10.07-.09,12,12,0,0,0,1.81-5.9l1.33-.13a27.26,27.26,0,0,1-.34,3c-.24,1.1-.64,2.17-1,3.25a2.44,2.44,0,0,1-2.13,1.46c-3.36,0-6.72-.09-10.08-.15-.08,0-.16-.17-.32-.35C848.64,429.05,849.06,428.76,849.52,428.49Z" transform="translate(-780.29 -114.13)"/><path class="cls-27" d="M999,448.84l.17,5.08c1.56.6,3.1.29,4.59.33s3.09,0,4.63,0l1.45-.09c.24.13.34.29.31.48s-.09.29-.16.29a8.33,8.33,0,0,1-2.44.84c-3.17.1-6.34,0-9.64,0-.78-2.23-.27-4.35-.42-6.63Z" transform="translate(-780.29 -114.13)"/><path class="cls-20" d="M953.89,419.28v-2.8c2.75-.73,5.4-.18,7.87-.37,1,1.1.53,2.17.64,3.15A11,11,0,0,1,953.89,419.28Z" transform="translate(-780.29 -114.13)"/><path class="cls-24" d="M893.21,436.45l11.88-.16,1.3-4.59c.83.19.93.84.79,1.49-.32,1.48-.71,2.94-1.06,4.36a58.3,58.3,0,0,1-12.8,0C893.28,437.21,893.25,436.83,893.21,436.45Z" transform="translate(-780.29 -114.13)"/><path class="cls-28" d="M851.08,454.17c3.14.05,6.29.36,9.52-.21a17,17,0,0,0,1.5-5.09h1.39a29.53,29.53,0,0,1-1.91,6.2c-1.35,1.1-2.68.64-3.92.71a30.54,30.54,0,0,1-3.45,0c-1.23-.06-2.52.31-3.6-.25C850.22,454.74,850.62,454.44,851.08,454.17Z" transform="translate(-780.29 -114.13)"/><path class="cls-24" d="M894.71,444.93h10.45l1.27-3.86a3.1,3.1,0,0,1,.68,0c0,1.66.06,3.33.08,5l0,.07c-1.12.11-2.24.3-3.37.32-2.89.05-5.79,0-8.86,0C894.88,445.85,894.79,445.39,894.71,444.93Z" transform="translate(-780.29 -114.13)"/><path class="cls-24" d="M865.88,444.88h11.25c.42-1.24.86-2.52,1.3-3.79.25.25.69.49.72.77a5.21,5.21,0,0,1-1.42,4.5,56.38,56.38,0,0,1-5.74.09c-1.9,0-3.79,0-5.84,0Z" transform="translate(-780.29 -114.13)"/><path class="cls-24" d="M886.13,416.9a4.26,4.26,0,0,0-.71,1.18,9.9,9.9,0,0,0-.13,1.89c-.57.27-1.14.77-1.71.77-3.31,0-6.63-.16-9.94-.25v-1l9.72-.4,2.07-3.69C886.21,415.63,886.1,416.3,886.13,416.9Z" transform="translate(-780.29 -114.13)"/><path class="cls-16" d="M842.65,445.84l15.86-.16h4c.45-1.62.85-3.08,1.25-4.53l1.29.07c-.28,1.06-.48,2-.8,3a20.88,20.88,0,0,1-1,2.2c-.92,0-1.8.09-2.68.09H844.7C844,446.46,843.12,446.73,842.65,445.84Z" transform="translate(-780.29 -114.13)"/><path class="cls-24" d="M1064.2,449c.14,1.51.27,3,.41,4.51,2.28,1.34,4.63.54,6.85.77-.07.37-.13.74-.23,1.28-2.35.52-4.71.2-7.31.2L1062.1,449Z" transform="translate(-780.29 -114.13)"/><path class="cls-29" d="M845.63,437.8h14c1.3-1.92,1.49-4.16,2.42-6.1.88.2.87.88.67,1.5-.56,1.7-1.19,3.38-1.88,5.33a59.2,59.2,0,0,1-7.56.16c-2.59,0-5.18,0-8,0Z" transform="translate(-780.29 -114.13)"/><path class="cls-24" d="M886.13,420c.38-.27.75-.73,1.14-.76,1.53-.09,3.06,0,4.59-.06a24.18,24.18,0,0,0,2.41-.31l.6-3.39,1.24.14.21,4,0,0a15.42,15.42,0,0,1-7.35,1.1A24.53,24.53,0,0,1,886.13,420Z" transform="translate(-780.29 -114.13)"/><path class="cls-26" d="M1023.79,423.21c.09,1.64.17,3.27.26,5.14,1.1.08,2.07.17,3,.2s2,0,3.06,0c-.07.37-.13.75-.22,1.23a12,12,0,0,1-4.89.24,9.21,9.21,0,0,1-2.55-1v-5.49C1022.76,423,1023.32,423.25,1023.79,423.21Z" transform="translate(-780.29 -114.13)"/><path class="cls-28" d="M1051.91,423.14c.27.84.55,1.68.8,2.52a14.55,14.55,0,0,0,.42,1.47,13.49,13.49,0,0,0,.86,1.46h5.72c.12.19.37.4.34.57a.82.82,0,0,1-.46.54,14.33,14.33,0,0,1-7.3,0c-.44-1.94-.84-3.52-1.16-5.12C1051,424,1051.09,423.32,1051.91,423.14Z" transform="translate(-780.29 -114.13)"/><path class="cls-28" d="M1024.68,432.51V436c2.41.65,4.7.09,6.91.46-.07.37-.14.74-.23,1.24a49.1,49.1,0,0,1-6.84.14c-2-1.38-1.11-3.31-1.47-5.21Z" transform="translate(-780.29 -114.13)"/><path class="cls-28" d="M1033.21,448.84c.06,1.65.13,3.3.19,5,1.27.74,2.57.37,3.81.41s2.56,0,3.84,0c.48.28.78.63.38,1.41a71,71,0,0,1-8.68.13,15,15,0,0,1-.14-6.51C1032.63,449.07,1033,449,1033.21,448.84Z" transform="translate(-780.29 -114.13)"/><path class="cls-28" d="M1021.5,448.87l.22,5c1.39.7,2.8.28,4.16.36s2.8.07,4.2.1c-.06.37-.13.74-.22,1.25a69.52,69.52,0,0,1-8.82.16,15.68,15.68,0,0,1-.12-6.46C1021,449.13,1021.3,449,1021.5,448.87Z" transform="translate(-780.29 -114.13)"/><path class="cls-24" d="M1063.82,436.82c1.83.68,3.76-.3,5.66,1.3-2.7.89-4.83.44-7.08.5-.27-1.13-.43-2.13-.74-3.08s-.7-1.94,0-2.91c1.47,0,1,1.2,1.24,1.95S1063.57,436.2,1063.82,436.82Z" transform="translate(-780.29 -114.13)"/><path class="cls-24" d="M931.5,416.07c-.06,1.32-.11,2.64-.16,4-2.58,1.32-5.32.65-8,.62-.39,0-.78-.53-1.58-1.13,2.73-.59,5-.15,7.48-.41l1.48-3.63C931.11,415.78,931.3,415.93,931.5,416.07Z" transform="translate(-780.29 -114.13)"/><path class="cls-27" d="M922.78,445h12.34a1.91,1.91,0,0,1-2,1.44q-4.18,0-8.37,0A2,2,0,0,1,922.78,445Z" transform="translate(-780.29 -114.13)"/><path class="cls-22" d="M863.56,455c2.29,0,4.59-.06,6.89,0a6.34,6.34,0,0,0,3.9-1.19l1.62-5.07c.83.13,1,.73.87,1.4a15.48,15.48,0,0,1-2,5.52c-3.47.2-7,.11-10.56,0C864.06,455.73,863.81,455.28,863.56,455Z" transform="translate(-780.29 -114.13)"/><path class="cls-24" d="M1055.48,436.91l4.21.47c-.84,1.34-.84,1.34-4.94,1.19-2-1.57-1-4.22-2.17-6.18l1.35-.59C1054.47,433.57,1055,435.23,1055.48,436.91Z" transform="translate(-780.29 -114.13)"/><path class="cls-29" d="M878.44,437.26l12.09-.24c.5-1.53,1.26-2.88,1.07-4.49a1.28,1.28,0,0,1,1.2,1.63c-.17,1.12-.53,2.22-.87,3.55-.66.07-1.4.2-2.15.21-3.24,0-6.48,0-9.72,0C879.43,437.93,878.75,438,878.44,437.26Z" transform="translate(-780.29 -114.13)"/><path class="cls-16" d="M907.22,446.12l0-.07c1.38-.12,2.76-.32,4.14-.35,2.9-.05,5.8,0,8.82,0l1.17-4.55.82,1.41c0,.27-.06.55-.1.83-.1.88-.21,1.77-.33,2.83a12.28,12.28,0,0,1-1.85.26c-3.33,0-6.67,0-10,0A21.54,21.54,0,0,1,907.22,446.12Z" transform="translate(-780.29 -114.13)"/><path class="cls-28" d="M985.79,444.94l20.21-.05c.66,0,1.3,0,1.54.79H987.75C987,445.68,986.16,446,985.79,444.94Z" transform="translate(-780.29 -114.13)"/><path class="cls-30" d="M1073.51,449c.4,1.61.81,3.22,1.27,5.05a67.67,67.67,0,0,0,10.66.09c.12.19.24.38.38.58-.18.12-.36.34-.54.34-3.68,0-7.37,0-10.86,0a8.25,8.25,0,0,1-.65-.77,4.28,4.28,0,0,1-.47-1.05c-.33-1.33-.63-2.66-1-4.08Z" transform="translate(-780.29 -114.13)"/><path class="cls-24" d="M972.52,444.14h11c-.06.38-.13.75-.22,1.31-3.4.55-6.82.05-10.39.31Z" transform="translate(-780.29 -114.13)"/><path class="cls-29" d="M992,432.5v4.38c2.78.47,5.43.19,8.06.24s5.09,0,7.64,0c-.26.25-.52.7-.78.7-5.11.05-10.22,0-15.56,0a13.48,13.48,0,0,1,0-5C991.41,432.7,991.77,432.62,992,432.5Z" transform="translate(-780.29 -114.13)"/><path class="cls-22" d="M880,445.81h10.57c1.9-1.24,1.71-3,2-4.63l1.27.1a9.21,9.21,0,0,1-1.4,4.85,76.15,76.15,0,0,1-11.91.2C880.31,446.3,880.17,446,880,445.81Z" transform="translate(-780.29 -114.13)"/><path class="cls-26" d="M918.83,437.14l10,.07-.2,1.27a59.09,59.09,0,0,1-9.12.1c-.39,0-.76-.56-1.11-.9A5.47,5.47,0,0,1,918.83,437.14Z" transform="translate(-780.29 -114.13)"/><path class="cls-22" d="M995.06,416.15l.16,2.82c4.39.59,8.73,0,13,.37-.27.23-.55.65-.83.65-4.45,0-8.89,0-13.57,0-.12-1.27-.23-2.36-.36-3.66Z" transform="translate(-780.29 -114.13)"/><path class="cls-26" d="M1021.86,415.76l.91-.24.66,3.23c.21.13.41.35.63.37,1.28.09,2.57.09,3.84.22.22,0,.38.53.67,1-2,.81-3.9.34-5.65.44C1021.55,419,1021.55,419,1021.86,415.76Z" transform="translate(-780.29 -114.13)"/><path class="cls-30" d="M1047.88,448.93c.43,1.68.86,3.36,1.34,5.28l11.34,0a1.07,1.07,0,0,1-1.16.79h-10.88a10,10,0,0,1-1.26-5.24C1047.27,449.5,1047.66,449.22,1047.88,448.93Z" transform="translate(-780.29 -114.13)"/><path class="cls-30" d="M1070.55,432.51c.55,1.69,1.11,3.38,1.69,5.16a45.81,45.81,0,0,0,8.52.09l.38.59c-.18.11-.36.32-.54.33-2.8,0-5.61,0-8.41,0a5.3,5.3,0,0,1-1.18-.29c-.39-1.45-.81-2.89-1.15-4.35C1069.72,433.43,1069.75,432.77,1070.55,432.51Z" transform="translate(-780.29 -114.13)"/><path class="cls-26" d="M931.94,420a1.52,1.52,0,0,1,1.55-.82c2.91,0,5.82,0,8.73,0-.05.36-.11.73-.17,1.17a3.51,3.51,0,0,1-1,.35c-2.51,0-5,0-7.53,0A1.54,1.54,0,0,1,931.94,420Z" transform="translate(-780.29 -114.13)"/><path class="cls-27" d="M936.73,444.92h10.11a1.93,1.93,0,0,1-2,1.52c-2.54,0-5.08,0-7.78,0C937,445.84,936.84,445.38,936.73,444.92Z" transform="translate(-780.29 -114.13)"/><path class="cls-24" d="M1046.08,445.06c-.34-1.16-.67-2.24-1-3.4l1-.6,1.49,2.79a6.23,6.23,0,0,0,1,.23,16.91,16.91,0,0,1,4.07.28c-.18.56-.2.95-.32,1A9.15,9.15,0,0,1,1046.08,445.06Z" transform="translate(-780.29 -114.13)"/><path class="cls-30" d="M839.42,455h8.23c.7-2.1,1.37-4.12,2-6.13l1.24.16c-.77,2.24-1.49,4.36-2.24,6.57a52,52,0,0,1-8.54.13C839.9,455.74,839.66,455.27,839.42,455Z" transform="translate(-780.29 -114.13)"/><path class="cls-29" d="M914.9,428.41c2.4,0,4.8.1,7.2.12a7.18,7.18,0,0,0,1.31-.25c.09-1,.13-2,.29-2.92s.47-1.94.71-2.92c.19.16.53.31.54.48.12,2.06.37,4.14-.92,6.21-3,.58-6.24,0-9.73.31C914.59,428.94,914.75,428.68,914.9,428.41Z" transform="translate(-780.29 -114.13)"/><path class="cls-30" d="M903.31,428.65l8-.18c1.5-1.53,1.39-3.34,1.34-5.13l1.42-.16c-.32,1.95-.61,3.79-.94,5.84a13.37,13.37,0,0,1-2.1.33c-2.18,0-4.37,0-6.55,0A1.08,1.08,0,0,1,903.31,428.65Z" transform="translate(-780.29 -114.13)"/><path class="cls-26" d="M960.11,445l9.36,0-.23,1.29c-2.85.58-5.73.07-8.77.31C960.32,445.87,960.22,445.42,960.11,445Z" transform="translate(-780.29 -114.13)"/><path class="cls-31" d="M878.44,455.76a1,1,0,0,1,1.15-.74h6.71c1.71-1.89,1.33-4.25,2.22-6.18.8.2.91.82.77,1.46-.35,1.59-.76,3.17-1.13,4.72-1.46,1.33-3.19.66-4.77.75S880.09,455.77,878.44,455.76Z" transform="translate(-780.29 -114.13)"/><path class="cls-30" d="M896.35,419.62l0,0,.7-.46c3.78,0,7.56,0,11.49,0,.11-1.17.18-2,.26-2.88l1.11-.12c.09.29.29.56.23.75-.28,1-.62,1.91-1,3C904.81,419.83,900.57,420.5,896.35,419.62Z" transform="translate(-780.29 -114.13)"/><path class="cls-30" d="M907.9,437h8c.93-.84.52-1.83.74-2.67s.53-1.72.8-2.58a2.18,2.18,0,0,1,.51,0l.11,3.81-1.27,2.25H907.6C907.71,437.53,907.81,437.28,907.9,437Z" transform="translate(-780.29 -114.13)"/><path class="cls-26" d="M953.89,419.28l8.51,0c-.06.37-.11.74-.19,1.27-2.59.51-5.21.13-8,.27C954.09,420.19,954,419.74,953.89,419.28Z" transform="translate(-780.29 -114.13)"/><path class="cls-26" d="M952.26,420.42a21.33,21.33,0,0,1-7.33.16c-.35-.05-.65-.62-1.24-1.23a38.5,38.5,0,0,1,8,0C951.87,419.41,952,419.94,952.26,420.42Z" transform="translate(-780.29 -114.13)"/><path class="cls-16" d="M1034,432.65c.07,1.26.13,2.51.2,3.78,2.63,1.26,5.22.43,7.7.69-.26.25-.52.71-.78.72-2.45.05-4.89,0-7.49,0-.4-1.68-.77-3.25-1.09-4.63C1032.94,432.36,1033.49,432.63,1034,432.65Z" transform="translate(-780.29 -114.13)"/><path class="cls-30" d="M1043.35,424c-.15,1.59.59,2.93,1.05,4.42l5.86.31c-.43.22-.85.6-1.29.62-1.92.06-3.85,0-6,0-.13-.92-.26-1.76-.38-2.6s-.23-1.72-.35-2.65Z" transform="translate(-780.29 -114.13)"/><path class="cls-31" d="M1060.74,423.34c2.11,1.08.72,3.59,2.83,5l2.84.32c-.24.33-.34.61-.45.61-1.4,0-2.8,0-4.34,0C1061.21,427.31,1059.93,425.56,1060.74,423.34Z" transform="translate(-780.29 -114.13)"/><path class="cls-11" d="M982.63,428.44l14.87.12c-.24.81-.9.78-1.54.78l-14,0c-.25-.14-.34-.28-.27-.44s.15-.23.23-.23A2.14,2.14,0,0,0,982.63,428.44Z" transform="translate(-780.29 -114.13)"/><path class="cls-16" d="M911,419.16h7.92a5,5,0,0,0,1.52-3.76c.12.05.3.06.35.15.87,1.54.28,2.9-.35,4.33-1.11.05-2,.12-2.89.13h-7Z" transform="translate(-780.29 -114.13)"/><path class="cls-28" d="M1030.59,420a4.38,4.38,0,0,1-.18-3.64A4.87,4.87,0,0,1,1032,419c2.3.66,4.81-.22,7.87.73A49.39,49.39,0,0,1,1030.59,420Z" transform="translate(-780.29 -114.13)"/><path class="cls-29" d="M1013,423.73l1,4.59c2.46.55,5,0,7.51.34-.27.23-.54.64-.82.65-2.41.05-4.82,0-7.43,0-.16-.68-.28-1.26-.44-1.83a13.39,13.39,0,0,1-.52-1.82C1012.22,425,1012.13,424.13,1013,423.73Z" transform="translate(-780.29 -114.13)"/><path class="cls-30" d="M1010,454.93l-.15-.77V449.1l.78-.23c.06,1.65.12,3.29.19,5,1.31.71,2.61.35,3.85.4s2.57,0,3.86,0a.91.91,0,0,1-1,.82Z" transform="translate(-780.29 -114.13)"/><path class="cls-31" d="M1044.93,432.4c.33,1.44.65,2.88,1,4.47,1.68.53,3.44.13,5.15.28-.14.2-.25.55-.42.57a28.58,28.58,0,0,1-6.22.1,15.5,15.5,0,0,1-.29-4.7C1044.18,432.86,1044.67,432.64,1044.93,432.4Z" transform="translate(-780.29 -114.13)"/><path class="cls-31" d="M1000.58,423.11V428c1.35.86,2.66.44,3.89.51s2.57,0,3.85.07c-.28.23-.55.66-.82.67-2.44.05-4.88,0-7.52,0a13.59,13.59,0,0,1,0-5.85C1000,423.3,1000.36,423.22,1000.58,423.11Z" transform="translate(-780.29 -114.13)"/><path class="cls-22" d="M887.76,429.31c.29-.76,1-.73,1.59-.73h12.38c-.2.79-.82.83-1.47.82Z" transform="translate(-780.29 -114.13)"/><path class="cls-28" d="M1054.28,442.18c.39-.47.62-.76,1-1.28.62,1.52,1.07,2.64,1.5,3.67,1.65.68,3.38-.1,5.41.83a31.22,31.22,0,0,1-6.72.29C1055.12,444.59,1054.76,443.55,1054.28,442.18Z" transform="translate(-780.29 -114.13)"/><path class="cls-29" d="M976.61,437.81c.27-.81.95-.68,1.57-.68h11.49a1,1,0,0,1-1.12.78Z" transform="translate(-780.29 -114.13)"/><path class="cls-16" d="M862,428.57c3.08,0,6.16,0,9.24,0a5.75,5.75,0,0,0,3.25-.81l-.13,1.08c-.25.17-.44.43-.64.43-3.54,0-7.08,0-10.62.07A1,1,0,0,1,862,428.57Z" transform="translate(-780.29 -114.13)"/><path class="cls-22" d="M876,428.55c3.6-.07,7.21.34,10.84-.31l.08,1.12-11,0c-.08,0-.15-.14-.25-.23Z" transform="translate(-780.29 -114.13)"/><path class="cls-29" d="M1020.24,444.58v-2.49l.3-.07.6,1.81c2.77.66,5.77-.15,9,.54A24.46,24.46,0,0,1,1020.24,444.58Z" transform="translate(-780.29 -114.13)"/><path class="cls-22" d="M983.42,455h10.85c.64,0,1.3,0,1.55.75l-10.85.05C984.31,455.83,983.67,455.8,983.42,455Z" transform="translate(-780.29 -114.13)"/><path class="cls-32" d="M964,437l10.81.26c-.36.72-1,.62-1.66.62h-9.46C963.78,437.53,963.86,437.28,964,437Z" transform="translate(-780.29 -114.13)"/><path class="cls-32" d="M968.71,428.68l11.61-.11c-.25.25-.5.7-.76.7-3.33.06-6.67.06-10,0C969.27,429.3,969,428.89,968.71,428.68Z" transform="translate(-780.29 -114.13)"/><path class="cls-29" d="M1072.13,444.91l10.91,0c-.25.23-.51.67-.77.67-3.14,0-6.28,0-9.43,0C1072.6,445.61,1072.37,445.16,1072.13,444.91Z" transform="translate(-780.29 -114.13)"/><path class="cls-16" d="M1064.11,445.63a5.41,5.41,0,0,1-.13-4.11c.64,1.27,1.08,2.12,1.62,3.2l3.33.25c-.31.38-.41.64-.53.64C1067,445.64,1065.63,445.63,1064.11,445.63Z" transform="translate(-780.29 -114.13)"/><path class="cls-32" d="M925.82,428.52l9.38.05c-.24.24-.48.69-.73.69-3,.05-6,0-9.05,0Z" transform="translate(-780.29 -114.13)"/><path class="cls-11" d="M964,419.89l9.36.13c-.15.6-.59.75-1.14.75h-8.69Z" transform="translate(-780.29 -114.13)"/><path class="cls-22" d="M941.42,437.16l10.15,0c-.24.26-.49.72-.74.73-2.89,0-5.78.06-8.66,0C941.91,437.86,941.67,437.41,941.42,437.16Z" transform="translate(-780.29 -114.13)"/><path class="cls-16" d="M1013.76,434.78c1.25.21.51,1.54,1.5,2.34h6.37c-.25.24-.5.69-.76.69-2.25.06-4.49,0-6.72,0C1013.48,436.76,1013.78,435.75,1013.76,434.78Z" transform="translate(-780.29 -114.13)"/><path class="cls-32" d="M974.91,420.08l9.24,0c-.27.23-.54.65-.81.66-2.54,0-5.09,0-7.63,0C975.44,420.73,975.17,420.3,974.91,420.08Z" transform="translate(-780.29 -114.13)"/><path class="cls-30" d="M953.14,437.23l9.18,0c-.28.21-.55.6-.83.6q-3.76.08-7.53,0C953.68,437.85,953.41,437.45,953.14,437.23Z" transform="translate(-780.29 -114.13)"/><path class="cls-32" d="M930.51,437.15l9.25.1c-.28.21-.56.61-.85.61-2.55,0-5.1,0-7.66,0C931,437.83,930.76,437.39,930.51,437.15Z" transform="translate(-780.29 -114.13)"/><path class="cls-16" d="M1069,428.57l9.39,0c-.12.21-.24.6-.36.6-2.88,0-5.77,0-8.65,0C1069.27,429.16,1069.15,428.78,1069,428.57Z" transform="translate(-780.29 -114.13)"/><path class="cls-29" d="M937.49,428.5l8.57.07c-.25.25-.48.68-.74.7-2.71.16-5.41.05-8.3.08Z" transform="translate(-780.29 -114.13)"/><path class="cls-29" d="M949.23,445l8.54-.08c-.25.24-.5.69-.77.7q-3.46.09-7,0C949.77,445.63,949.5,445.21,949.23,445Z" transform="translate(-780.29 -114.13)"/><path class="cls-32" d="M948.44,428.63h8.49c-.26.23-.52.65-.8.66q-3.43.07-6.89,0C949,429.28,948.71,428.86,948.44,428.63Z" transform="translate(-780.29 -114.13)"/><path class="cls-32" d="M958.52,428.57h8.56c-.24.24-.48.68-.73.68q-3.55.08-7.11,0C959,429.26,958.76,428.81,958.52,428.57Z" transform="translate(-780.29 -114.13)"/><path class="cls-30" d="M1012.94,416.34l.08,3.71-1.13-.23a4.43,4.43,0,0,1-.13-3.6Z" transform="translate(-780.29 -114.13)"/><path class="cls-31" d="M1032.37,423.2c.32,1.77.63,3.55,1,5.32a.52.52,0,0,1-.87,0,6.54,6.54,0,0,1-.64-4.95C1031.85,423.45,1032.18,423.34,1032.37,423.2Z" transform="translate(-780.29 -114.13)"/><path class="cls-32" d="M1032.45,428.56l.87,0,6.92.05c-.24.24-.48.68-.73.69-2.12.06-4.23.06-6.35,0C1032.91,429.26,1032.68,428.81,1032.45,428.56Z" transform="translate(-780.29 -114.13)"/><path class="cls-32" d="M992.24,420.32a16.69,16.69,0,0,1-7.07.16A15.78,15.78,0,0,1,992.24,420.32Z" transform="translate(-780.29 -114.13)"/><path class="cls-30" d="M1013,420h7c-.24.25-.48.7-.73.71-1.87.06-3.75.06-5.62,0C1013.43,420.71,1013.21,420.25,1013,420Z" transform="translate(-780.29 -114.13)"/><path class="cls-16" d="M874.45,427.83a5.79,5.79,0,0,1,.57-3.6,5,5,0,0,0,.31-1.82c.24.24.69.49.69.73A6.71,6.71,0,0,1,874.45,427.83Z" transform="translate(-780.29 -114.13)"/><path class="cls-22" d="M901.71,428.6c0-1,0-1.92,0-2.87a1,1,0,0,1,1.15-1c-.13.94-.2,1.9-.42,2.83C902.36,427.91,902,428.24,901.71,428.6Z" transform="translate(-780.29 -114.13)"/><path class="cls-16" d="M1068.29,423.8c0,1.09,0,2.17,0,3.25-1.1-.43-.8-1.43-.79-2.22C1067.5,424.48,1068,424.15,1068.29,423.8Z" transform="translate(-780.29 -114.13)"/><path class="cls-29" d="M1071.17,442.55a.93.93,0,0,1,.95.92c0,.49,0,1,.05,1.48a4.59,4.59,0,0,1-.77-1A6.21,6.21,0,0,1,1071.17,442.55Z" transform="translate(-780.29 -114.13)"/><path class="cls-16" d="M1013.8,432.4c0,.81,0,1.62,0,2.43C1012.76,433.85,1012.76,433.35,1013.8,432.4Z" transform="translate(-780.29 -114.13)"/><path class="cls-16" d="M1068.24,427c1,.15.81.93.81,1.6C1068,428.46,1068.23,427.68,1068.24,427Z" transform="translate(-780.29 -114.13)"/><path class="cls-20" d="M982,428.62a.91.91,0,0,0,0,.67l-.91-.71h0Z" transform="translate(-780.29 -114.13)"/><path class="cls-10" d="M1136.53,397.67a17,17,0,0,0-.57-3.23,30.89,30.89,0,0,0-2.4-6.08c-.91-1.74-2.4-3.23-4.46-3.27a.79.79,0,0,0,0,1.57,3.65,3.65,0,0,1,2.93,2.16,28.12,28.12,0,0,1,1.75,4,19.53,19.53,0,0,1,1.11,4.18,11.13,11.13,0,0,1,.1,2.16c0,.28,0,.72-.33.82s-.47-.19-.46-.48c0-1-1.53-1-1.56,0a1.94,1.94,0,0,0,3.48,1.28A4.81,4.81,0,0,0,1136.53,397.67Z" transform="translate(-780.29 -114.13)"/><path class="cls-33" d="M1098.31,164.67c-.76,0-1.51-.06-2.25-.06-3.12,0-6.23,0-9.34,0q-40.28-.13-80.54-.29c-2.07,0-4.13-.28-6.2-.29s-3.88.23-5.82.21c-4.77,0-9.55-.23-14.33-.24-25.29-.07-50.58-.07-75.87-.19-8.81,0-17.62-.38-26.43-.57a7.83,7.83,0,0,0-1.45.24V313.82c2.28-.07,4.44-.19,6.6-.19l209.72-.06c1.93,0,3.85-.05,5.76-.07a5.42,5.42,0,0,0,.39-1.28q.08-73.14.11-146.28A5.15,5.15,0,0,0,1098.31,164.67ZM1063,184.33V276.6H912.27V184.33Z" transform="translate(-780.29 -114.13)"/><path class="cls-12" d="M873.66,419.27c-1-.65-1-.81,0-1.84C873.63,418,873.65,418.66,873.66,419.27Z" transform="translate(-780.29 -114.13)"/><path class="cls-18" d="M1071.94,283.07l-8.17-7.28c-1.1-1-2.73.64-1.62,1.62l8.17,7.29c1.1,1,2.73-.64,1.62-1.63Z" transform="translate(-780.29 -114.13)"/><path class="cls-18" d="M911.45,275.79l-7.57,7.28c-1.07,1,.56,2.65,1.62,1.63l7.58-7.29c1.07-1-.56-2.65-1.63-1.62Z" transform="translate(-780.29 -114.13)"/><path class="cls-18" d="M1061.81,184.33V276.6l1.15-1.15H914.54a8.45,8.45,0,0,0-2,0,1.13,1.13,0,0,1-.26,0l1.14,1.15V184.33a1.16,1.16,0,0,0-1.14-1.15h-7.58a1.16,1.16,0,0,0-1.15,1.15v99.55a1.17,1.17,0,0,0,1.15,1.15h159.62c2.15,0,4.38.18,6.52,0h.3a1.16,1.16,0,0,0,1.15-1.15V184.33a1.17,1.17,0,0,0-1.15-1.15H1063a1.15,1.15,0,0,0,0,2.3h8.17l-1.15-1.15v99.55l1.15-1.15H907.21a10.3,10.3,0,0,0-2.22,0,1,1,0,0,1-.3,0l1.15,1.15V184.33l-1.15,1.15h7.58l-1.15-1.15V276.6a1.16,1.16,0,0,0,1.15,1.15H1056.8c1.94,0,4,.16,5.89,0h.27a1.17,1.17,0,0,0,1.15-1.15V184.33A1.15,1.15,0,0,0,1061.81,184.33Z" transform="translate(-780.29 -114.13)"/><path class="cls-4" d="M912.27,185.48H1056.8c1.94,0,4,.16,5.89,0h.27a1.15,1.15,0,0,0,0-2.3H918.43c-1.94,0-4-.17-5.9,0h-.26a1.15,1.15,0,0,0,0,2.3Z" transform="translate(-780.29 -114.13)"/><path class="cls-34" d="M1043.37,232.47c-.09,6.37-4.14,12.53-10.12,14.6a15.58,15.58,0,1,1,10.12-14.6c.07,5.91,9.26,5.93,9.19,0a25.15,25.15,0,0,0-16.39-23.28,24.8,24.8,0,0,0-27.2,7.26,24.73,24.73,0,0,0,23.74,40.27c11.52-2.12,19.7-12.75,19.85-24.25C1052.63,226.56,1043.44,226.55,1043.37,232.47Z" transform="translate(-780.29 -114.13)"/><path class="cls-35" d="M966.54,212.76,937,242.31l-4.15,4.15c-3.69,3.69,2,9.42,5.74,5.73l29.55-29.55,4.15-4.15c3.69-3.7-2-9.43-5.73-5.73Z" transform="translate(-780.29 -114.13)"/><path class="cls-35" d="M932.83,218.49,962.39,248l4.15,4.15c3.69,3.69,9.42-2,5.73-5.73l-29.55-29.55-4.15-4.15c-3.7-3.7-9.43,2-5.74,5.73Z" transform="translate(-780.29 -114.13)"/><polygon class="cls-3" points="34.07 234.2 34.07 225.82 38.38 225.64 42.69 225.64 41.63 229.92 49.6 231.01 53.1 227.52 55.17 231.23 62.92 229.58 64.02 235.79 70.57 235.79 70.57 244.06 66.91 245.83 68.97 250.26 65.87 255.72 60.12 256.61 59.67 250.99 52.32 252.25 49.71 255.42 43.74 252.25 44.18 248.19 49.71 248.19 48.31 245.98 48.46 243.02 42.41 245.24 37.09 250.99 34.73 249.96 32.96 243.32 27.21 242.04 29.42 235.06 34.07 234.2"/><path class="cls-4" d="M815.5,348.34V340l-1.15,1.15c2.89-.12,5.75-.18,8.63-.18l-1.11-1.45-1.06,4.28a1.15,1.15,0,0,0,.8,1.41c2.54.35,5.08.79,7.63,1,2,.21,3.64-2.42,5-3.74l-1.81-.23,2.08,3.71a1.17,1.17,0,0,0,1.29.53l7.76-1.64L842.1,344l1.09,6.21a1.16,1.16,0,0,0,1.11.84h6.55l-1.14-1.15v8.27l.56-1L846.61,359a1.18,1.18,0,0,0-.41,1.57l2.07,4.43v-1.16l-1.46,2.57c-.13.23-1.74,2.63-1.61,2.83-.34-.52,1.33-.41,0-.36a17.29,17.29,0,0,0-2,.31l-3.06.48,1.45,1.11-.44-5.62a1.17,1.17,0,0,0-1.45-1.11c-2.24.38-4.48.71-6.71,1.14-1.73.34-2.69,2.28-3.76,3.58l1.39-.18-6-3.17.57,1,.45-4.06-1.15,1.15H830a1.16,1.16,0,0,0,1-1.73l-.7-1.1a6.46,6.46,0,0,0-.44-.71c-.29-.33-.17-.61-.1.12a21.53,21.53,0,0,1,.15-2.89,1.16,1.16,0,0,0-1.46-1.11l-3.72,1.36a11.22,11.22,0,0,0-2.88,1.19,25,25,0,0,0-2.74,3l-2.53,2.73,1.39-.18c-.45-.19-1.72-1.05-2.15-.94s.5.34.3.53a2.22,2.22,0,0,0-.09-.33,5.23,5.23,0,0,0-.31-1.16l-1.35-5.08a1.13,1.13,0,0,0-.8-.8l-5.76-1.28.8,1.41,2.22-7-.81.81,4.65-.86c1.45-.26.84-2.48-.61-2.21l-4.65.85a1.15,1.15,0,0,0-.8.8l-2.21,7a1.15,1.15,0,0,0,.8,1.41l5.76,1.28-.81-.8,1.51,5.67a2.66,2.66,0,0,0,.82,1.67,10.83,10.83,0,0,0,2.33,1,1.21,1.21,0,0,0,1.4-.18l2.27-2.46a21.47,21.47,0,0,0,2.9-3.14c.19-.35-.16,0-.34.13a3.38,3.38,0,0,1,.56-.2c.7-.23,1.39-.52,2.09-.77l3.37-1.23-1.45-1.11a14.06,14.06,0,0,0-.13,3.1A9,9,0,0,0,829,362.9l1-1.73h-5.53a1.18,1.18,0,0,0-1.15,1.15l-.44,4.06a1.09,1.09,0,0,0,.56,1l6,3.18a1.16,1.16,0,0,0,1.39-.18l2-2.39a4.51,4.51,0,0,0,.49-.59c.19-.38-.08,0-.33.1.33-.08.67-.12,1-.17l6.35-1.09-1.46-1.1.45,5.62a1.17,1.17,0,0,0,1.45,1.1c1.72-.26,3.47-.46,5.18-.8,1.51-.31,1.91-1.76,2.63-3s2.17-2.86,1.72-4.25a42.8,42.8,0,0,0-2-4.4l-.42,1.57,3.66-1.77a1.12,1.12,0,0,0,.57-1v-8.27a1.16,1.16,0,0,0-1.15-1.15H844.3l1.11.85-1.09-6.21a1.17,1.17,0,0,0-1.41-.8l-7.76,1.64,1.3.53-2.07-3.71a1.16,1.16,0,0,0-1.81-.23l-3.49,3.49,1.12-.29-8-1.09.81,1.41,1.06-4.28a1.17,1.17,0,0,0-1.11-1.46c-2.88,0-5.74.06-8.63.18A1.18,1.18,0,0,0,813.2,340v8.39A1.15,1.15,0,0,0,815.5,348.34Z" transform="translate(-780.29 -114.13)"/><path class="cls-4" d="M828.9,345.72l3.27,6.38.18-1.4-4.42,5.65c-.9,1.15.72,2.78,1.63,1.62l4.41-5.64a1.2,1.2,0,0,0,.18-1.39l-3.27-6.38c-.67-1.31-2.66-.15-2,1.16Z" transform="translate(-780.29 -114.13)"/></svg>