<svg id="圖層_1" data-name="圖層 1" xmlns="http://www.w3.org/2000/svg" viewBox="0 0 2048 1890.82"><defs><style>.cls-1,.cls-2{fill:#eee6db;}.cls-2{stroke:#3b3832;stroke-miterlimit:10;stroke-width:1.8px;}.cls-3{fill:#fff;}.cls-4{fill:#3c3832;}.cls-5{fill:#3b7071;}.cls-6{fill:#3b3832;}.cls-7{fill:#6ea4ad;}.cls-8{fill:#c7bea8;}.cls-9{fill:#060001;opacity:0.4;}.cls-10{fill:#383b3b;}.cls-11{fill:#3e4546;}.cls-12{fill:#569a99;}.cls-13{fill:#5b8985;}.cls-14{fill:#4a7776;}.cls-15{fill:#94b9c4;}.cls-16{fill:#405b5c;}.cls-17{fill:#4f8b94;}.cls-18{fill:#5195a0;}.cls-19{fill:#5198a3;}.cls-20{fill:#5197a2;}.cls-21{fill:#45686a;}.cls-22{fill:#5296a1;}.cls-23{fill:#487074;}.cls-24{fill:#5397a1;}.cls-25{fill:#487377;}.cls-26{fill:#46787c;}.cls-27{fill:#476d70;}.cls-28{fill:#3c4f4e;}.cls-29{fill:#3d5353;}.cls-30{fill:#446364;}.cls-31{fill:#394544;}.cls-32{fill:#d7ae6e;}</style></defs><title>蒐集</title><circle class="cls-1" cx="993.5" cy="945.41" r="945.41"/><rect class="cls-2" x="549.6" y="297.2" width="911.44" height="570.65"/><path class="cls-3" d="M1517.89,1537.59l289.33-121.86s123.64,132,235.35,216.64c0,0-169.25,142.17-220,165.87C1822.54,1798.24,1643.13,1625.6,1517.89,1537.59Z" transform="translate(0 -121.96)"/><path class="cls-4" d="M1519.32,1542.79l97.42-41L1773,1436l35.69-15-5.25-1.39c51.55,55,106.19,107.58,162.92,157.21,23.86,20.87,48.28,41.1,73.53,60.28l-1.1-8.48c-55.68,46.76-112.26,93.07-171.57,135.16-15.11,10.73-30.55,21.91-47.36,29.86l6.54.85c-70.11-67.45-142.79-132.69-218.12-194.25-28.51-23.3-57.52-46-87.63-67.25-5.69-4-11.09,5.35-5.45,9.33,99.78,70.29,190.91,153.83,279.77,237.26,8,7.47,15.92,15,23.79,22.54a5.61,5.61,0,0,0,6.55.85c14.74-7,28.35-16.55,41.68-25.86,18.79-13.13,37.12-26.92,55.28-40.9,34.62-26.64,68.65-54.05,102.35-81.84q10.93-9,21.81-18.11c3-2.48,1.41-6.58-1.09-8.48-78.22-59.44-149.71-128.25-218-198.76-5.47-5.65-10.93-11.31-16.31-17a5.24,5.24,0,0,0-5.25-1.39l-97.41,41-156.23,65.8-35.69,15C1510.15,1535,1512.92,1545.49,1519.32,1542.79Z" transform="translate(0 -121.96)"/><polygon class="cls-5" points="1219.57 500.45 1219.57 768.71 785.89 768.71 785.89 453.1 1159.71 453.1 1159.71 500.45 1219.57 500.45"/><path class="cls-6" d="M1214.17,622.4V890.66l5.4-5.4H785.89l5.4,5.4V575.05l-5.4,5.4h373.82l-5.4-5.4V622.4a5.48,5.48,0,0,0,5.4,5.4h59.86c7,0,7-10.8,0-10.8h-59.86l5.4,5.4V575.05a5.48,5.48,0,0,0-5.4-5.4H785.89a5.48,5.48,0,0,0-5.4,5.4V890.66a5.48,5.48,0,0,0,5.4,5.4h433.68a5.48,5.48,0,0,0,5.4-5.4V622.4C1225,615.45,1214.17,615.44,1214.17,622.4Z" transform="translate(0 -121.96)"/><path class="cls-3" d="M887.79,510c-20.29-7.43,21.16,82.68-61,144.09L1139,692s18.79-129,58.7-144.72C1197.72,547.29,988.76,553.18,887.79,510Z" transform="translate(0 -121.96)"/><path class="cls-4" d="M889.36,504.3c-19.66-6.47-13.88,33.8-14.23,42.77C873.54,588,856.74,623.86,823.77,649c-4.81,3.66-3,10.27,3,11l105.32,12.8,168.09,20.42,38.86,4.72c2.29.28,5.36-2,5.7-4.34a526.53,526.53,0,0,1,13.37-62.85c4.46-16.26,9.61-32.54,17-47.74,5.22-10.77,12.46-25.07,24.22-30,5.64-2.37,5.7-11.8-1.57-11.6-75.59,2.1-153.07-1.44-227.53-14.78-26.93-4.82-54.13-11-79.42-21.7-6.91-2.93-12.94,7.24-6,10.19C931.46,534.8,983.07,542,1033.12,547c45.34,4.53,91,6.42,136.54,6.49,9.35,0,18.71,0,28.06-.27l-1.57-11.6c-28.39,11.94-39.58,52-47.39,78.74a516.68,516.68,0,0,0-15.43,70.11l5.69-4.33-105.32-12.8L865.61,652.89l-38.86-4.72,3,11c30.6-23.31,50.39-55.08,55.59-93.33,1.71-12.62,1.82-25.25,1.78-38,0-3.69,0-7.62.27-11.15a9.25,9.25,0,0,1,.62-2.56c1.33,1.06-5.16.38-1.77,1.5C893.46,518.07,896.56,506.67,889.36,504.3Z" transform="translate(0 -121.96)"/><path class="cls-3" d="M822.76,613s22.16,267.83,0,287.71h374.72s-15.19-226.65,0-287.71C1197.48,613,972.15,655.94,822.76,613Z" transform="translate(0 -121.96)"/><path class="cls-4" d="M816.86,613c2.49,30.07,4.43,60.19,6.1,90.31,2.77,49.92,5.44,100.27,3,150.25a232.31,232.31,0,0,1-2.7,28.61c-.9,5.19-2.58,12.39-4.66,14.38-3.72,3.55-.86,10.05,4.17,10.05h374.72c3,0,6.1-2.7,5.89-5.89-5-74.84-8.62-150.36-6.17-225.36.66-20.18,1.18-41.07,6-60.79,1.12-4.6-2.84-8.08-7.25-7.24-27.63,5.25-55.67,8.78-83.62,11.77-60,6.42-120.8,9.33-181.12,5.4-36.06-2.34-72-7.29-106.85-17.17-7.31-2.08-10.43,9.29-3.13,11.36,62.49,17.74,128.84,20.69,193.44,18.91a1285.91,1285.91,0,0,0,153.89-13.89c10.2-1.52,20.4-3.1,30.53-5l-7.25-7.25c-4.13,17-5.1,34.89-5.93,52.31-1.13,23.9-1.18,47.84-.91,71.76.52,45.43,2.38,90.86,4.89,136.22.54,9.67,1.09,19.33,1.74,29l5.89-5.89H822.76l4.16,10.06c8.92-8.52,9-26.64,9.94-37.86,1.93-22.91,1.83-46,1.49-69-.75-50.39-3.62-100.76-7.15-151q-1.19-17-2.55-34C828,605.46,816.24,605.4,816.86,613Z" transform="translate(0 -121.96)"/><path class="cls-3" d="M810.88,637.17s24.93,237,0,254.53h421.49s-17.08-200.51,0-254.53C1232.37,637.17,978.92,675.18,810.88,637.17Z" transform="translate(0 -121.96)"/><path class="cls-4" d="M805,637.17c2.73,26,4.89,52.15,6.74,78.26,3.14,44.14,6.14,88.87,3.56,133.12A173,173,0,0,1,812.39,874a46.11,46.11,0,0,1-2.63,9.3c-.66,1.47-2.41,3.72-1.85,3.3-4.36,3.3-3.37,11,3,11h421.49c3,0,6.15-2.7,5.88-5.88-5.62-66.08-9.69-133.1-6.94-199.4.74-17.8,1.46-36.43,6.73-53.57,1.45-4.71-3.07-7.85-7.23-7.23-97.76,14.63-199,20.22-297.79,15.18-40.49-2.06-81-6.32-120.58-15.18-7.37-1.65-10.52,9.68-3.13,11.34,70.53,15.77,143.85,18.28,215.87,16.78,58.39-1.21,116.77-5.5,174.77-12.36,11.34-1.34,22.69-2.73,34-4.42l-7.23-7.23c-4.54,14.74-5.68,30.66-6.61,46-1.3,21.3-1.37,42.66-1.06,64,.59,40.26,2.69,80.51,5.52,120.67.6,8.5,1.21,17,1.94,25.47l5.87-5.87H810.88l3,10.95c9.63-7.29,10.73-22.45,12-33.46,2.3-20.05,2.21-40.4,1.87-60.55-.77-44.91-4-89.8-8-134.53-.92-10.36-1.87-20.73-3-31.07C816,629.72,804.21,629.64,805,637.17Z" transform="translate(0 -121.96)"/><polygon class="cls-7" points="826.78 768.71 1219.03 768.71 1322.72 559.05 930.48 559.05 826.78 768.71"/><path class="cls-6" d="M826.78,896.06H1219a5.33,5.33,0,0,0,4.66-2.68l90.79-183.56,12.91-26.09c1.77-3.59-.36-8.12-4.67-8.12H930.48a5.36,5.36,0,0,0-4.67,2.67L835,861.85l-12.9,26.08c-3.07,6.21,6.24,11.69,9.32,5.45l90.79-183.56,12.91-26.09-4.66,2.67h392.24l-4.66-8.12-90.79,183.57-12.91,26.08,4.67-2.67H826.78C819.83,885.26,819.82,896.06,826.78,896.06Z" transform="translate(0 -121.96)"/><path class="cls-8" d="M934.2,894.11a238.89,238.89,0,0,1,63.21-.66c13.67,1.6,13.55-19.84,0-21.43a258.59,258.59,0,0,0-68.91,1.43c-13.59,2-7.81,22.68,5.7,20.66Z" transform="translate(0 -121.96)"/><path class="cls-9" d="M1794.26,1441.41s65.74,76.66,59.86,211.69c0,0-60.39,55-152.5,2,0,0-78-137.58-73.4-216.64C1628.22,1438.44,1693.75,1358.66,1794.26,1441.41Z" transform="translate(0 -121.96)"/><polygon class="cls-9" points="1528.03 1726.92 291.11 1726.92 312.21 1677.27 1507.87 1677.27 1528.03 1726.92"/><polygon class="cls-9" points="1622.96 1301.78 414.74 1301.78 456.04 1203.63 1586.82 1203.63 1622.96 1301.78"/><path class="cls-10" d="M1605.8,482.51q.4-83.14.46-166.27c0-6-1-12-1.49-18-9.61-8.46-18.66-16.45-27.75-24.44-2.39,1.73-3.82,2.75-5.26,3.76h0c-6.91,5.94,6.17,9.81,1.42,15.76-11.9,1.71-24.08,1.34-36.25,1.35q-154.55.06-309.09,0c-11,0-22-.47-32.77,1.8-8.28,2.7-16.85,2.18-25.36,2.18q-294.41,0-588.81,0c-38.86-.05-77.68.52-116.64-.2-5.43-8,3.55-9.27,6.37-13.33,3.31-4.75,12-7.63,4.72-15.52-1.73.17-4.09-.32-5.1.61-11.08,10.3-24,18.69-33.88,31.12v21.74q0,311.52-.09,623.06a3.81,3.81,0,0,0-2.49.83c-11.59,9.41-15,26-19.24,39.58-5.4,17.36-10,35.18-10.81,53.43-1.46,34.55,15.13,64.35,32.52,92.93v14.26a58.53,58.53,0,0,0,6.28,26.18c12.65,26.24,33.71,39.22,59.66,43.45,2.88,60.64-20.39,119.33-63,162.54-21.26,21.56-45.41,40.8-61.55,66.82-8.89,14.35-15.14,30.11-23.07,45-7.36,13.8-16.6,26.47-24.32,40.06-14.2,25-23,59.89-.41,83.09l.18.18c3.31,3,8.28-2,5-5.38-.78-.8-1.51-1.6-2.18-2.43-18.93-22.57-6.46-55,6.95-77.21C348,1516,356.9,1503.09,364,1489c7.2-14.35,13.43-29.27,22.33-42.69,16.87-25.45,41.56-44.22,62.38-66.18a221.29,221.29,0,0,0,60.9-162.38c1.59.14,3.19.29,4.82.4,12.48.75,25,1,37.49,1.15,21,30,64.43,33.33,97.89,37,48.84,5.46,99,7.24,147.05-4.62a133,133,0,0,0,16.68,8.87q-8.81.14-17.6.23c-16.43.26-32.85,1-49.26.78-32.86-.36-65.72-1.26-98.58-1.8-7.85-.13-15.77.11-23.81,4-5.76,16.76-13.48,33.24-16.94,51.2l-.27.65c-1.1,3.11.65,4.73,3.6,5.72h0c.2-.11.38-.2.56-.32,8-4.54,8.51-13.36,11.44-20.73,3.94-9.9,6-20.84,16-27.14a18.88,18.88,0,0,1,8.71-2.23c67.26-.22,134.51-.13,201.75-.13a1.11,1.11,0,0,0,.23,0,148.42,148.42,0,0,0,40.82,0c4.93.15,9.5,1.08,12.83,5.47.83,1.61,1.87,3.24,1.92,5.06,1.17,33.78,12.42,34,41,34,43.88-.11,87.74.07,131.61-.07,32.5-.09,35.31-2.52,42.13-34.55a21.66,21.66,0,0,1,3.48-7.83q142-2.19,284.11-1h.45c.61-.16,1.19-.34,1.73-.54,4.32-1.64,6-4.66,3.9-9.75v0a.06.06,0,0,1,0,0c-1.73-.38-2.74-1.84-4.09-2.75-15.8-.51-31.58-1.41-47.38-1.44-23.67-.08-47.32.63-71,.68q-84.06.24-168.13.14c-3.52,0-7-.73-11-1.17v-37.77c5.17-.29,9.92-.83,14.69-.79,25.48.2,51,.72,76.47.75a2.76,2.76,0,0,0,.74.7c29.44,18.49,62.23,38.37,98.53,34.23,16.12-1.83,32.32-8.22,47.36-14.12,13.5-5.29,26.35-11.9,37.38-21.31q66-.21,132-.25a81,81,0,0,0,43.21-12c11.56-7,21.54-15.82,30.72-25.64,8.28-8.86,11.88-19,11.86-31.42q-.35-229.31-.05-458.63C1604.72,621.36,1605.45,551.93,1605.8,482.51ZM436.25,1118.61c-13.84-23.54-25.83-48.24-25.22-76.33.35-16.79,4.43-33.27,9.24-49.27,3.72-12.35,6.75-28.35,16-38.14Q436.24,1036.73,436.25,1118.61ZM1376.84,891.7H668.69V458.09h708.15ZM741.76,1252.55c-25,1.53-50.12.45-75-1.83-20.84-1.91-42.11-3.74-62.48-8.69-16-3.89-31.89-10.44-42.76-22.7,10.47,0,21,0,31.42,0q83.76.17,167.53-.11H761a139,139,0,0,0,27.47,26.84A300.51,300.51,0,0,1,741.76,1252.55Zm28.61-33.34q43.82-.17,87.63-.47a222.43,222.43,0,0,1-60.13,25A128.43,128.43,0,0,1,770.37,1219.21Zm36.39,29.87c23-6.66,45-16.56,64.65-30.25.07,0,.09-.11.16-.16,9.11-.06,18.19-.13,27.3-.16,4.64,0,9.29.7,14.34,1.11,0,7.25.27,13.34-.07,19.4-.34,6.21,1.39,12.74-1.85,19.67-.78.25-1.55.49-2.32.7-3.06,0-6,0-8.93,0q-32.81.43-65.58.9A127.79,127.79,0,0,1,806.76,1249.08Zm538.93-15.4c-14.47,5.54-30.18,12-45.71,13.35-30.52,2.75-58.18-12.15-83.51-27.75q79.21-.19,158.41-.52C1365.92,1225,1356,1229.74,1345.69,1233.68Z" transform="translate(0 -121.96)"/><path class="cls-10" d="M1413.29,1261.53s0,0,0,.07,0,0,.08,0Z" transform="translate(0 -121.96)"/><path class="cls-11" d="M1462.31,1517.87c2,4.63,4,8.32,5.22,12.25,4.6,15.13,9.11,30.29,13.36,45.52q24.28,87,48.35,174.09a31.76,31.76,0,0,1,.43,4.62,56.68,56.68,0,0,1-3,7.53c-6.41,11.71-13,23.31-20,35.74-4.81.47-9.53,1.3-14.26,1.33-26.2.14-52.4.09-78.6.09L333.6,1799H313.2c-12.4-11.29-20.07-25.91-28.8-39.68-3.85-6.09-2.19-12.67.23-19.26,9.44-25.66,18.44-51.48,27.77-77.18,15-41.15,30.07-82.24,45.05-123.38,2.26-6.2,4.2-12.52,6.48-19.38,3.6-.72,7-1.83,10.52-2,6.69-.35,13.4-.22,20.1-.22H1462.31Z" transform="translate(0 -121.96)"/><path class="cls-12" d="M1571.76,277.55c-.6,3.22,2.18,3.68,4,5.2,5.45,4.66,10.65,9.62,15.5,14.06-.33,1.61-.27,2.3-.56,2.51a3,3,0,0,1-1.73.49q-195.83.42-391.65.8c-6.5,2.53-13.28,1.28-19.91,1.29q-299,.11-597.92.06c-37.1,0-74.21.1-111.31-.11-5.87,0-12.19,2-17.63-2.13,7.58-7.41,15.11-14.88,22.79-22.18,2.47-2.34,3.23-4.81,2-7.93l11.26-3.6c73.63-1.24,147.28.13,220.92-.59,272.7-2.67,545.41-1.61,818.12-1.72,9,0,18.31-1.61,27,2.31C1561.17,266.33,1566.05,272.63,1571.76,277.55Z" transform="translate(0 -121.96)"/><path class="cls-10" d="M607.34,1315l3.62,5.51c5.94,10-3.69,20.2.54,30.65,9.19,6,19.82,3.73,29.93,3.73q379.34.19,758.67.14c11,0,22-.66,32.8,1,2.84-.79,4.15,4.54,7,2.21,1.73-1.42-.48,1.32-1.26-1.08-13.49-23.6-20.73-49.75-31.32-74.49-1.88-4.4-2.22-9.44,2-13.36,4.24-1.12,3.28-4.89,4-7.81,2.76,6,5.88,11.76,8.22,17.87,10.2,26.7,20.19,53.47,30.17,80.26.83,2.22,1,4.7,1.53,7.67-8.12,13.92-16,28.15-27.93,39.38h-812c-12-12.17-14.67-29-22.09-42.77,3.06-10.77,5.63-20.76,8.78-30.56C602,1327.11,604.85,1321.13,607.34,1315Z" transform="translate(0 -121.96)"/><path class="cls-10" d="M1552.68,266c-8.41.59-16.81,1.69-25.22,1.69q-331,.18-662,.15c-107.79,4.85-215.64,1.67-323.46,2.66-12.19.11-24.41-.66-36.56-.05-7,.35-12.76-2.28-18.87-4.45-2.29,1.66-2.79-.29-1.23-1A72.57,72.57,0,0,1,499,261c2.33-.51,4.86-.15,7.29-.15q196.32.38,392.65.73,251.12.29,502.22.31c44.44,0,88.87-.29,133.31-.39,6.64,0,13.43-.54,19.39,3.4.37.24.49.87.72,1.31Z" transform="translate(0 -121.96)"/><path class="cls-10" d="M1771.21,1663.72c-21.07,7.22-42,1.86-62.94-.79-4.19-.53-8.29-1.79-12.43-2.74-16.17-3.73-28.83-12.48-37.37-26.76a202.81,202.81,0,0,1-10.25-19.26c-16-34.74-30.12-70.13-38.81-107.63-5.75-24.8-13-49.23-16.19-74.61-1.27-10.11-.3-19.15,6.31-27.17a3.94,3.94,0,0,1,5.27.5,309.67,309.67,0,0,1,63.71,115.36c9.65,32,10.48,64.63,10,97.24-.24,15.69,4.67,23.63,18.8,28.46,23.91,8.17,48.69,8.48,73.45,9.58C1773.11,1658.38,1773.38,1661,1771.21,1663.72Z" transform="translate(0 -121.96)"/><path class="cls-10" d="M1605.38,1405.66l-5.85-.9c2.72-8.52,10.38-11.59,17.39-14.79,26-11.87,53.29-17.21,81.38-10.57,15.78,3.74,31.26,9.94,43.44,21.69,8.31,8,16.42,16.24,24.61,24.38,7.91,7.85,12.54,17.84,17.52,27.53,7.19,14,14.35,28.06,20.81,42.41,6,13.4,8.55,27.68,8.64,42.45a184.09,184.09,0,0,0,1.87,23.55c2.64,19.39.15,38.73-.21,58.09-.13,7.17-1.9,14.31-2.88,21.14-12.32,11.3-24,21.72-40.89,23.08,0-2,0-4,0-6,36.11-18.62,33.62-51.75,31.93-84.67-2.24-43.39-8.28-85.37-33.47-122.86-20.57-30.61-45.58-53.24-85.39-59.32,7,8.45,20.52,9.66,18.86,22.51-1.72,3.25-5,2.83-9.28,3.45,6.65,13.11,14.8,25.06,17,40.13,4-3.78,3.26-11.72,10.82-7.83a22.76,22.76,0,0,1,5.06,13.46c.45,7.92-1.91,14.9-10,17.5-8.54,2.74-15.19-2-17.06-9.6-5.3-21.7-19.06-39.13-27.92-59-8.11-18.17-14.69-21.47-34.13-17.18C1626.24,1396.9,1617.8,1406.91,1605.38,1405.66Z" transform="translate(0 -121.96)"/><path class="cls-11" d="M1413.39,1261.63l-4.21-2.8C1411.56,1258.3,1413.06,1259.09,1413.39,1261.63Z" transform="translate(0 -121.96)"/><path class="cls-13" d="M1423.63,308c4.86-.23,9.71-.64,14.57-.66q70.38-.19,140.76-.28c4.8,0,9.61,0,14.66,0,3.6,8.19,3,16.09,3,23.88,0,34.72-.2,69.44-.13,104.17.17,84.67.77,169.35.62,254-.23,127.94-1,255.89-1.46,383.83-.09,24.37.09,48.74.13,73.11,0,4.85,0,9.7,0,13.76-11.69,20.77-29.25,33.37-49.07,43.37-7.2,3.64-14.79,4.8-22.9,4.79q-222.1-.32-444.21-.32-199.27,0-398.53,0c-4.86,0-9.72-.37-14.58-.56-2-8.45,3.72-14,8.42-19.13,31.19-34.1,60-70.32,91.47-104.15,3.8-4.07,7.5-8,13.31-9.09,10.92-2,21.91-1.34,32.86-1.32,241.22.27,482.44-.66,723.66.44A48.47,48.47,0,0,0,1552,1072c1.28-236.87,1.33-473.69,1.22-712.17-53.55-6.22-103.5.7-153-4.27-10.33-3.69-10.59-11.31-5.21-18.48C1403.21,326.23,1410.16,313.8,1423.63,308Z" transform="translate(0 -121.96)"/><path class="cls-13" d="M498.36,1207c-7.27.83-12.79-3.46-18.39-6.85-11.08-6.7-19.8-16.18-27.45-26.44-4.79-6.41-6.57-14.06-6.46-22.34.29-21.92,0-43.84,0-65.76,0-102.3,1.59-204.64-.63-306.89-1.54-70.58-3.07-141.17-1-211.64,2-69.37.56-138.68,1.73-208,.25-15.16,0-30.34,0-46.63,5.48-.42,10.17-1.08,14.86-1.09q185.46-.37,370.9-.66c46.9-.09,93.87,1.35,140.67-.9,75.45-3.62,150.88-.94,226.3-2.13,4.25-.06,8.5.33,12.76.51-8.36,20.87-24,34.5-43.76,44.17-10.93,1.78-21.91,1.22-32.87,1.22-207.74-.13-415.49.35-623.24-.22-5.44,0-11.05-.79-19,6.11,0,234.84,0,472.57,0,711.84,38.5,4.76,75-.37,111,3.26,3.34,1.13,7.17,1.69,8.6,6.53-2.39,10.89-11.2,18.31-18.4,26q-44.34,47.22-88,95C504,1204.31,500.84,1205.24,498.36,1207Z" transform="translate(0 -121.96)"/><path class="cls-12" d="M1409.29,1269.34c.29,10,5.07,18.55,8.59,27.53q12.57,32.1,25,64.24l-.57.47c-17.65-.19-35.3-.55-53-.55q-369,.06-738.07.21H602.43c-4.13-8.74,1.4-15,2.7-21.74,1.25-6.46,3.84-12.66,5.83-19l19-51.15c3.85-2.61,8.22-1.74,12.39-1.74q129.33-.06,258.66,0c3.62,0,7.31-.4,10.73,1.32.36,9.09.56,18.19,1.17,27.26.27,4,1.39,8,2.27,12.81h174.31c3,0,6.1.15,9.13,0,8.31-.5,12.42-4.12,12.86-12.27.52-9.62.37-19.27.51-28.54,6.53-3.74,12.74-2.23,18.67-2.23q124.18,0,248.38.16c6.69,0,13.42-.39,20.08.1C1402.6,1266.45,1405.92,1268.24,1409.29,1269.34Z" transform="translate(0 -121.96)"/><path class="cls-14" d="M922.86,1298.9c-.43-4.37-.86-6.7-.87-9,0-23.07,0-46.14,0-70,4.27-.57,7.73-1.44,11.2-1.45q78.51-.14,157-.05c3.53,0,7.06.29,10.37.43,2.48,15.14,2.59,63.64.3,78.76-1.52.42-3.21,1.29-4.89,1.3C1038.84,1298.92,981.71,1298.9,922.86,1298.9Z" transform="translate(0 -121.96)"/><path class="cls-15" d="M498.36,1207c6.32-11.14,15.06-20.25,23.88-29.41,11.32-11.76,21.76-24.36,33-36.22,10.87-11.5,22.52-22.26,33.31-33.83,8.22-8.81,15.62-18.39,23.39-27.62,4.09-5.58,10.31-6,16.27-6,22.84,0,45.72-1.68,68.49,1,8.37,2.22,8.57,7.16,4.46,13.58a150,150,0,0,1-18.24,22.68c-27.67,29-58.4,55-83.48,86.52-3.55,4.47-8.77,6.39-13.4,9.23-19.71.38-39.42.93-59.13,1.06C517.38,1208.08,507.87,1207.37,498.36,1207Z" transform="translate(0 -121.96)"/><path class="cls-15" d="M772.52,1079.91c.62,4.16-2,6.66-4.52,9.39-13.94,15.11-29.09,29.34-41.26,45.78-9.38,12.67-22.49,22-30,36.12-1.37,2.57-4.06,4.49-6.27,6.57a131.91,131.91,0,0,0-24,29.3l-51.07.06c-1.87-4,.19-7.26,2.6-9.86,35-37.78,64.39-80.4,100.52-117.21a18.26,18.26,0,0,1,7.7-4.7C741.91,1074.68,758,1069.14,772.52,1079.91Z" transform="translate(0 -121.96)"/><path class="cls-15" d="M1423.63,308l-28.9,36c-.09,1.07-.3,3.47-.51,5.88-3.29,6.5-9.67,6.64-15.47,6.72-20.85.3-41.73,1.63-62.52-.9-12.47-3.77-12-11.59-6.07-20.63a107.13,107.13,0,0,1,25.92-27Z" transform="translate(0 -121.96)"/><path class="cls-15" d="M1174.74,348.32c3.74-4.46,7.31-9.09,11.28-13.35,8.43-9,17.08-17.88,25.64-26.8l87.45,0c-8.25,20.59-23.48,35.07-41.4,47.26C1229.7,357.11,1202,355.41,1174.74,348.32Z" transform="translate(0 -121.96)"/><path class="cls-13" d="M721.68,1080.06c.12,4.84-3.4,7.47-6.26,10.6-12.63,13.81-25.62,27.33-37.65,41.67-13.49,16.09-26,33-39.13,49.42-3,3.77-6.86,6.88-10.13,10.46-4.46,4.89-8.72,9.94-13.07,14.92L586,1207c11.89-14.48,23.35-29.3,37.05-42.26,12.83-12.13,25-24.91,37.52-37.43,15-15,30.53-29.51,42.41-47.3C709.26,1073.78,715.48,1073.73,721.68,1080.06Z" transform="translate(0 -121.96)"/><path class="cls-13" d="M1262.58,350c6.09-7.34,12.05-14.81,18.32-22,5.9-6.76,12.13-13.23,18.21-19.82l37-.14c.31,4.75-3,7.45-5.77,10.57-7.84,8.73-15.48,17.64-23,26.3l3.22,5.57C1294.42,360.37,1278.44,361.06,1262.58,350Z" transform="translate(0 -121.96)"/><path class="cls-12" d="M579.32,300.45a10.8,10.8,0,0,1-.93,2.83H451.58c-.42-1.36-.75-2.46-1.08-3.56Z" transform="translate(0 -121.96)"/><path class="cls-12" d="M289.93,1748.11c27.55-74.77,54.34-147.5,81.12-220.16,28,1.26,55.76.44,83.55.44q41.13,0,82.26-.12,42-.06,84.09-.09,41.13,0,82.26.07c28,0,56.06,0,84.09,0s56.06.17,84.09.22q41.13.09,82.26.11,42,0,84.09,0l84.09,0h166.35l82.26,0h84.76c9.53,24,14.54,49,22.55,72.94,7.86,23.51,13.7,47.7,20.45,71.59q10.35,36.63,20.72,73.14c-1.82.86-2.89,1.81-4,1.81C1107.36,1748.11,699.76,1748.11,289.93,1748.11Z" transform="translate(0 -121.96)"/><path class="cls-13" d="M1519.38,1759l-16.83,29.47H313.73l-20.57-31.28c9.31-1.6,17-2,24.4-.19,6.18,1.5,11.85,2,17.76-.31a7.47,7.47,0,0,1,3.6-.4c27.83,3.72,55.61-1.53,83.48-.39s56,.26,84.07.26h84.07q378.35-.09,756.7-.16c19.49,0,39-.09,58.48.21,15.75.24,31.51-1.2,47.22,2.3,7,1.55,14.57.47,21.88.49C1488.76,1759.06,1502.71,1759,1519.38,1759Z" transform="translate(0 -121.96)"/><path class="cls-13" d="M1439,1371.5l-18.93,25.74H617.58c-4.2-7.38-10.22-14.23-9.53-24.22,2.15-.58,3.87-1.46,5.59-1.46C887.89,1371.5,1162.14,1371.5,1439,1371.5Z" transform="translate(0 -121.96)"/><path class="cls-16" d="M1442.9,1361.11c.53.21,1.19.3,1.52.67s0,.94,0,1.42l-2.09-1.62Z" transform="translate(0 -121.96)"/><path class="cls-12" d="M1702,1415.62c.28-9.2-6.36-12.53-13.4-14.53-7.71-2.19-11.45-7.71-16.17-14.77,27-1.7,48.88,7.42,68.14,23.2,10.8,8.84,20.84,18.76,28.36,30.68,15.2,24.08,28.79,49,34.84,77.18a41,41,0,0,1,.47,5.44c2.51,32.63,4.94,65.25,3.72,98-.39,10.62-4.14,18.8-12.65,24.82-7.41,5.24-14.8,10.63-24.13,12.08-13.69,2.84-27.06,3.53-41.16.39-11.68-2.61-23.79-3.11-35.39-7.13-8.29-2.87-15.45-6.7-22.14-13.71,0-2.5-.47-5.57.08-8.45,3.77-20-.12-39.87-.61-59.77-.4-16.31-4.62-32.12-8.9-48-8-29.69-21.88-56.38-38.07-82-6.06-9.59-14.34-17.78-22-27.11l2.39-6.31c15.14-13.28,33.38-18.14,54.14-20.25,4.84,5.78,9.85,11.78,16.33,19.54v8.73c5.07,10.14,15.26,17.58,19.62,29.28,4.15,11.16,4.53,23.66,11.91,34.49l9.21.55,6.14-10.59c-1.09-6.42-2.1-12.3-3.1-18.18-2.37-2.77-5.31-5-7.1-8.29a63.16,63.16,0,0,1-3.93-7.29,37.13,37.13,0,0,1-1.69-3.55c-.8-1.76-1.58-3.53-2.47-5.25a24.9,24.9,0,0,1-1.66-3.5,15.43,15.43,0,0,1-.9-3.78C1701.92,1416.92,1702,1416.27,1702,1415.62Z" transform="translate(0 -121.96)"/><path class="cls-13" d="M1603.84,1427.69c12.16,9.71,28,31.25,36.94,53.41,19.36,47.87,27.33,80,23.69,139.36-2.54-2.71-5-4.33-6-6.61-16.58-36.25-31.51-73.11-40.41-112.14-4.29-18.78-8.59-37.56-13.11-56.28C1603.5,1439.61,1602.31,1433.93,1603.84,1427.69Z" transform="translate(0 -121.96)"/><path class="cls-17" d="M1714.75,1437.61c3.62,3,6.19,6.51,4.88,11.62-2.79.77-3.16,2.88-3.5,5.42-.66,5,1.66,10.68-2.51,15.32a45.43,45.43,0,0,1-7.69-15c-1.42-5.16-2.57-10.47-4.66-15.35a107,107,0,0,0-8.59-15.77c-2.83-4.4-6.39-8.34-10.9-14.12,4.75-.52,7.82-1.79,10-.89,3.72,1.54,6.87,4.44,10.25,6.77l-.15-.15c1.89,2.19,1.32,5.62,3.78,7.53l-.16-.22c2,2.16,1.34,5.62,3.82,7.51l-.15-.19C1711.13,1432.53,1710.62,1436.79,1714.75,1437.61Z" transform="translate(0 -121.96)"/><path class="cls-4" d="M1558.61,377.88c0-5.49.4-11-.4-16.41-.45-3.22-2.84-6.17-4.73-10-7.83,0-15.08,0-22.35,0q-59.39-.24-118.78-.52c-6-.06-12.09-.72-18.12-1.1-.56,0-1.1,0-1.66,0q-41,.3-82.08.61l-2.83,0-42.4-.41-2.68,0c-5.36.27-10.74.87-16.1.72-23.69-.68-47.37-1.56-71-2.39l-.7,0Q873,348,571.31,347.75c-21.32,0-42.67.24-64,.29-6.77,0-13.41.18-19.15,6.91-.22,11.83-.63,24.57-.63,37.31q-.06,330,0,660a107.86,107.86,0,0,0,.81,16.39c.49,3.28,2.61,6.3,4.21,9.92,9.22.22,17.69.56,26.17.63q46.59.4,93.2.7H612l91,.06h.53l15.06.07c1,0,2.07,0,3.09,0l48.56-.15h2.29c3-.18,6.06-.52,9.1-.52q364.58,0,729.15.2c12.66,0,25.47-1.49,38.1,2,2.72.75,6.37-1.89,10-3.1v-48.28Q1558.77,704,1558.61,377.88Zm-181.77,80.21V891.7H668.69V458.09Z" transform="translate(0 -121.96)"/><path class="cls-12" d="M564.09,1726.4c1.67-7.58,3.33-15.17,5.22-23.82,5.14-3.66,12.07-1.5,18.49-1.51q171.86-.24,343.69-.12h58.76c3.38,9,1.27,17.55,1.73,25.83-4,2.26-8.29,1.51-12.49,1.51q-200.61,0-401.23,0C573.51,1728.26,568.48,1729.51,564.09,1726.4Z" transform="translate(0 -121.96)"/><path class="cls-18" d="M498.28,1605.75l8.36-27.21c13-2.42,95.39-3,119.39-.71-.51,3.3-1,6.54-1.49,9.77-7.89,4.33-.64,13.14-5.45,18.38l.08-.08c-21.68,4.89-44-1.42-65.64,3.43l-3.93.21C532.81,1604,515.09,1611.14,498.28,1605.75Z" transform="translate(0 -121.96)"/><path class="cls-19" d="M1277.87,1547.2h153.22c5.42,4.6,2.93,9.84,3.79,14.35-3.56,4.31-8.58,4-13.37,4-42.3.13-84.6,0-126.9.09C1281.88,1565.64,1274.74,1561.25,1277.87,1547.2Z" transform="translate(0 -121.96)"/><path class="cls-20" d="M341.57,1687c-.92-8.58,5.08-14.38,8.84-22.31,9.8-.65,20-.23,30.24-.3,9.71-.07,19.41-.09,29.12,0,10.3.11,20.6.39,30.9.59,2.9,8.39-1.31,15.06-5.57,23.17C404.13,1687.46,372.86,1689.39,341.57,1687Z" transform="translate(0 -121.96)"/><path class="cls-19" d="M999.36,1605.26c.16-8.93.33-17.85.51-27.19,24.34-4.72,47.19,1.19,71,3.09,3.11,7.18,1.82,14.86.94,22.47-.09.81-1.7,1.45-2.61,2.17C1045.9,1608.47,1022.61,1609.45,999.36,1605.26Z" transform="translate(0 -121.96)"/><path class="cls-20" d="M355.56,1649.24c2.85-9.63,4.51-19.79,12.33-28.07,10.43-1.43,21.28-.52,32.07-.66s21.77,0,32.65,0c-4.24,30.09-5.2,31.38-34.28,30.77C384.08,1651,369.58,1654.33,355.56,1649.24Z" transform="translate(0 -121.96)"/><path class="cls-18" d="M1014.19,1682.79v-15.91c12.74-3.1,75.55-3.85,104.53-1.37a32.86,32.86,0,0,1,.5,18.84c-.21.82-1.83,1.28-2.8,1.91-25.07-4.15-50.32-.62-75.45-1.89C1032,1683.92,1022.94,1686.19,1014.19,1682.79Z" transform="translate(0 -121.96)"/><path class="cls-12" d="M1003,1730.19c-1.16-1.25-3.27-2.47-3.32-3.76-.32-7.74-.16-15.5-.16-23,12.85-3.07,41-3.56,64.64-1.23a83.78,83.78,0,0,1,0,29.67c-.13.75-1.87,1.22-2.87,1.81C1042.14,1728.64,1022.23,1735.34,1003,1730.19Z" transform="translate(0 -121.96)"/><path class="cls-19" d="M1043.31,1624.3c.67-1,1.29-2.72,2-2.76,7.82-.42,16.35-2.62,23.33-.3,9.66,3.22,19.06,2.5,28.62,2.83,6.65.22,13.32,0,20.75,0,2.48,7.71,4.82,14.82-.92,21.88-24.26,4.11-48.57.9-73.61,1.76C1040.84,1639.16,1040.54,1631.8,1043.31,1624.3Z" transform="translate(0 -121.96)"/><path class="cls-12" d="M432.48,1605.85l-2.73.23c-4.91-11.25,1.41-20.13,6.18-29.35l7.11,5.91c1.25.49.34-3.54,3-5.47,15.49-1.14,32.25-.55,49-.28,3.4,9.26-2.91,16.95-4.1,25.47l.16-.22c-5.39,8.5-14,5.43-21.31,5.29C457.39,1607.18,444.78,1609.68,432.48,1605.85Z" transform="translate(0 -121.96)"/><path class="cls-19" d="M971.08,1649.28c-2.67-.33-4-1.69-4.5-4.48-1.44-8.16,2.7-15,4.81-22.37,12.53-2.47,37.45-2.82,59.58-.74,2.91,7.76.71,16.19,1.44,24.34C1012.17,1650.94,991.35,1645,971.08,1649.28Z" transform="translate(0 -121.96)"/><path class="cls-19" d="M933.93,1606.35c1.41-9.27,2.81-18.53,4.36-28.74,17.31-1.92,34.43-.93,52.69-.6.42,5.25.93,9.82,1.11,14.41.19,4.8.07,9.6.08,14.41l0,.05-1.81,0-1.82-.06C970.33,1608.91,952.14,1608.24,933.93,1606.35Z" transform="translate(0 -121.96)"/><path class="cls-12" d="M439.47,1646.05c-1-1.3-3.12-3-2.82-3.85,2.53-7.19,5.5-14.22,8.47-21.62h60.64c-2.55,27.63-4.13,29.49-31.19,29C462.86,1649.31,450.58,1652.92,439.47,1646.05Z" transform="translate(0 -121.96)"/><path class="cls-21" d="M564.09,1726.4q196.59.07,393.15.17c11.58,0,23.16.14,34.74.21-1.2,1.19-2.28,3.2-3.63,3.4a75.92,75.92,0,0,1-10.89.31q-199.6,0-399.22.06a65.27,65.27,0,0,1-10.85-.49C566.12,1729.85,565.18,1727.68,564.09,1726.4Z" transform="translate(0 -121.96)"/><path class="cls-20" d="M1306,1701.53h57.09c1.87,5.41,5.09,11,5.8,17.51.33,3.07.2,6-3.32,7.46-18,3.93-36,.74-54.35,1.94C1307.45,1719.26,1305.07,1710.75,1306,1701.53Z" transform="translate(0 -121.96)"/><path class="cls-22" d="M439.8,1730.2c-.32-10.6,4.83-19.34,9.09-29.36h49.26c-1.07,27.56-4.66,31.3-31.72,31C457.56,1731.76,448.47,1733.93,439.8,1730.2Z" transform="translate(0 -121.96)"/><path class="cls-20" d="M373.82,1605.45c1.31-5.68,2.34-11.45,4-17,1.18-3.87,3.28-7.45,4.95-11.11h46.87c3.76,22.62-3.34,32.37-24.66,31.94C394.61,1609.05,383.41,1613.05,373.82,1605.45Z" transform="translate(0 -121.96)"/><path class="cls-22" d="M509.72,1646.66l8.74-25.8c8.15-.12,16.39-.33,24.63-.34s16.68,0,25,.43c1.21.06,2.32,2.3,3.47,3.53,4.73,8.33,0,15-4,23.32C548.38,1647.42,529.06,1649.09,509.72,1646.66Z" transform="translate(0 -121.96)"/><path class="cls-22" d="M509.73,1733.63l-6.3-.41c-.38-2.15-1.6-4.62-1-6.53,2.64-8.44,5.81-16.71,9-25.59h45.69c2.17,10.63-3.41,19.39-5.61,28.8C537.05,1734.72,522.92,1729.22,509.73,1733.63Z" transform="translate(0 -121.96)"/><path class="cls-19" d="M644.46,1664.48l7.3,6.16c1.45.66-.58-4.7,2-5a445.94,445.94,0,0,1,57.49-.66c2.26,7.52-.18,14.22-4.17,22.42-20.45,1.06-41.46,1.48-62.52-.3C638.4,1679.54,639,1672,644.46,1664.48Z" transform="translate(0 -121.96)"/><path class="cls-12" d="M695.26,1620.84H748.2c4,5.52,3,11.25,1.16,17.08-.9,2.84-1.72,5.69-2.57,8.54-15.79,5-31.55,5.56-47.26-.33-.1-3,.25-6.31-3.74-7.39C690.73,1632.92,690.85,1627,695.26,1620.84Z" transform="translate(0 -121.96)"/><path class="cls-23" d="M1277.87,1547.2c1.55,4.47,3.11,8.94,4.65,13.36,15.83,1.93,107.85,2.52,152.36,1,2.27,1.35,3.73,3,2.26,5.8-13.46,2.54-116.6,3.29-159,1.08-4.59-6.82-9.15-14-7-23.27C1274.64,1543.75,1276.49,1544.88,1277.87,1547.2Z" transform="translate(0 -121.96)"/><path class="cls-12" d="M732.38,1605.61c1.56-8.77,3.12-17.54,4.88-27.41,12.88-3.45,26.57-1,40.91-1.32,2.93,9.15,2.09,18,1,26.8-.1.82-1.73,1.44-2.65,2.15C761.76,1608.64,747.06,1609.05,732.38,1605.61Z" transform="translate(0 -121.96)"/><path class="cls-20" d="M1426.41,1701.67c16.7-1.42,33.39-.42,50-.74,3.28,8.82,7.09,16.25,6.06,24.9-16.8,5.51-33.82,1.09-50.74,2.54C1427.57,1719,1424.4,1710.89,1426.41,1701.67Z" transform="translate(0 -121.96)"/><path class="cls-19" d="M911.58,1645.62c.15-7.74.3-15.48.44-23,14.42-2.76,32-2.9,50.09-.45,1.41,8,.77,16.3.25,24.61C945.4,1647.84,928.41,1649.91,911.58,1645.62Z" transform="translate(0 -121.96)"/><path class="cls-19" d="M805.67,1646.21c0-5.41-.55-10.91.19-16.22.44-3.16,2.91-6,4.46-9h44.56c3.26,7.65,2,15.31,1.12,22.89-.09.82-1.69,1.47-2.59,2.2A137.92,137.92,0,0,1,805.67,1646.21Z" transform="translate(0 -121.96)"/><path class="cls-12" d="M787.22,1605.54c-.81-9.77,1.27-18.94,6.06-28.27h36.37c2.42,8.9,2.05,17.72.57,26.55-.14.81-1.79,1.37-2.74,2C814,1608.52,800.61,1609,787.22,1605.54Z" transform="translate(0 -121.96)"/><path class="cls-12" d="M579.13,1642.88c1.75-6.22,3.5-12.44,5.15-18.34,3.13-4.17,7.34-4.09,11.62-4.07,15.06.08,30.12.06,45.18.08a49.27,49.27,0,0,1-4.77,24.37C617.63,1645.6,598.37,1649.15,579.13,1642.88Z" transform="translate(0 -121.96)"/><path class="cls-24" d="M517.09,1686.87c1.44-6.94,2.88-13.87,4.48-21.61,9-1.78,18.12-.74,27.1-.81s18.23.4,27.35.63c4.32,8.48,0,15.05-5.55,23C553.2,1687.51,535.16,1689.41,517.09,1686.87Z" transform="translate(0 -121.96)"/><path class="cls-12" d="M1412.49,1624.35c11.75-1.56,23.25-5.52,35.34-3.75a33.43,33.43,0,0,1,3.79,1c9.25,6.89,8.92,17.22,8.88,27.45-13.47,5.21-27.1,1.71-40.35,1.7C1413.9,1642.35,1412.36,1633.59,1412.49,1624.35Z" transform="translate(0 -121.96)"/><path class="cls-20" d="M681.08,1605.11c.65-9.29-1.87-19.24,6.8-28.33,11.82-.26,24.84-.46,37.89.28,1.8,10.26-.27,19.88-4.61,30C707.69,1606.72,694.26,1610.47,681.08,1605.11Z" transform="translate(0 -121.96)"/><path class="cls-12" d="M381.15,1726.15a40.37,40.37,0,0,1,8.84-24.89h42.95c1.21,22.83-3.69,29-24.33,28.74C399.42,1729.88,389.47,1733.14,381.15,1726.15Z" transform="translate(0 -121.96)"/><path class="cls-19" d="M326.37,1730.13c0-10.33,4.62-19.13,9.28-29.07,13-.19,26-.42,39,.26,1.68,10.75-4.65,19.28-7.39,29.75C353.26,1731.87,339.83,1733.8,326.37,1730.13Z" transform="translate(0 -121.96)"/><path class="cls-22" d="M626.6,1606.22c-.61-10.54,4.33-19.32,8.81-29.2a247.53,247.53,0,0,1,30.33-.08c1.68.07,3.23,2.82,4.85,4.33,5.06,8.68.8,16.18-2.61,24.59C654,1608.75,640.34,1608.33,626.6,1606.22Z" transform="translate(0 -121.96)"/><path class="cls-19" d="M838.67,1606.13c.19-10-2.49-20.51,6.2-28.84h32.89c1.83,9.91.75,19.41.83,28.84A112.26,112.26,0,0,1,838.67,1606.13Z" transform="translate(0 -121.96)"/><path class="cls-19" d="M886.06,1605.85c.22-9.39-1.71-19.18,4.9-27.42a8,8,0,0,1,1.65-1.17h32.72c.36,5.13.82,9.7,1,14.29.16,4.77,0,9.56,0,14.34A98.2,98.2,0,0,1,886.06,1605.85Z" transform="translate(0 -121.96)"/><path class="cls-19" d="M754.41,1646.15c-1.12-8.67,2.05-16.4,5.85-25.35,12.57-.59,25.7-.38,38.3-.07,4.63,3.71,4.29,8.41,2.51,12-2.3,4.57-2.74,9.17-3.16,14C783.39,1648.33,768.88,1649.22,754.41,1646.15Z" transform="translate(0 -121.96)"/><path class="cls-20" d="M1076.08,1701.09h42.11c3.69,8.68,1.21,17.21,2,25.41-14.59,7.24-29.28,2.65-43.75,2.71C1071.67,1718.3,1071.17,1709.71,1076.08,1701.09Z" transform="translate(0 -121.96)"/><path class="cls-22" d="M1401.89,1583.45c2-1.07,3.89-3,5.88-3.07,10.33-.31,20.66-.15,31.5-.15,7.41,6.86,10.19,15.6,10.16,25.53a109.94,109.94,0,0,1-44.11.1l.15.15c-2-2.12-1.41-5.57-3.8-7.51l.15.2C1399.23,1593.6,1399.11,1588.52,1401.89,1583.45Z" transform="translate(0 -121.96)"/><path class="cls-19" d="M860.78,1646.56v-19.34c2.2-4.4,5.21-6.81,10-6.74,7.78.11,15.59-.35,23.33.21,3.18.23,6.22,2.49,9.79,4v22A156.23,156.23,0,0,1,860.78,1646.56Z" transform="translate(0 -121.96)"/><path class="cls-12" d="M715.1,1671.52c5.37,1,6-4.88,10.59-7.11,15.51,0,32.06-.15,49,.11,2.5,6.72,1.4,12.63,1.35,18.43a108.43,108.43,0,0,1-58,0c-.41-2.85.31-6.22-3.45-7.53C712.73,1673.91,712.88,1672.59,715.1,1671.52Z" transform="translate(0 -121.96)"/><path class="cls-20" d="M1182,1701.23c11.89,0,23.77-.07,35.65,0,1,0,2.07.85,4.31,1.83,1.27,7.48.51,15.69.38,23.86-12.88,6.3-25.91,2.51-39.27,2.11C1179.51,1718.94,1179.84,1710.14,1182,1701.23Z" transform="translate(0 -121.96)"/><path class="cls-20" d="M648.18,1645.57c.56-8.18-1.88-17,8.37-25,10.17-.19,23.23-.37,36.3.28,1.42,8.68-1.86,16.57-3.77,25.8C675.21,1647.6,661.7,1650.22,648.18,1645.57Z" transform="translate(0 -121.96)"/><path class="cls-20" d="M450.69,1682.5c-.76-6.34,1.77-11.63,5.92-17.46,8.16-1.51,17.14-.48,26-.61s18,.15,27,.25c2.31,7-.72,12.87-4.7,20.4C487.22,1685.76,468.87,1689.71,450.69,1682.5Z" transform="translate(0 -121.96)"/><path class="cls-12" d="M1240.61,1625c1.1-1.34,2.15-3.8,3.31-3.85,9.7-.43,19.44-.72,29.14-.31,2.55.11,5,2.79,8,4.63,0,5.81.23,11.24-.15,16.63-.1,1.38-2.1,2.62-3.23,3.92-6.86,3.62-14.25,1.69-21.35,1.68C1239.51,1647.69,1237,1643.79,1240.61,1625Z" transform="translate(0 -121.96)"/><path class="cls-20" d="M1145.82,1623.83c.31-.51.54-1.37,1-1.48,11.62-3,23.28-2.76,34.92-.13,1,.22,1.66,1.64,3.84,3.91.11,4.34.48,10.22.27,16.07,0,1.32-2.06,2.56-3.18,3.84-10.31,4.07-20.9.45-29.54,1.84-7.32-3.08-3.76-9.66-7.46-12.83l.14.22C1143.31,1631.45,1143.26,1627.64,1145.82,1623.83Z" transform="translate(0 -121.96)"/><path class="cls-12" d="M597.05,1561.79c-.85-6.39,1.77-11.66,6-17.53,7-1.16,14.78-.41,22.52-.53,7.24-.11,14.51-.24,21.72.28,1.75.12,3.31,2.78,5,4.27,2.84,4.58,2.08,9.07-1.25,15.35C633.63,1562.89,615.34,1565.93,597.05,1561.79Z" transform="translate(0 -121.96)"/><path class="cls-22" d="M1415.43,1671.52l-2.56-4c1.26-1.18,2.1-2.64,2.94-2.64,16.3-.14,32.61-.1,48.83-.1,4.94,5.19,7.61,11,6.56,18.06-17.1,2.36-34.19,2.93-51.27-.21l.2.19C1416.89,1679.76,1420.16,1674,1415.43,1671.52Z" transform="translate(0 -121.96)"/><path class="cls-12" d="M586.17,1682.75c.39-5.86-1.93-12.41,5.88-17.87,15.29-1,32.27-.42,49.23-.31,2.44,7-.57,12.83-4.28,20.37C620.31,1685.74,603.19,1689.68,586.17,1682.75Z" transform="translate(0 -121.96)"/><path class="cls-20" d="M1142.21,1583.09c2-1,3.93-2.71,5.94-2.78,8.91-.3,17.83-.13,26.66-.13,9,7.1,7.77,16.7,7.26,26.11-11.78,2.56-23.56,1-36.3,1.17C1144.38,1598.73,1138.25,1591.89,1142.21,1583.09Z" transform="translate(0 -121.96)"/><path class="cls-19" d="M783.65,1682.67v-16.84c16.85-2.84,32.84-1,50-1.27.59,6.77,4.1,12.81-2.46,18.1C815.33,1688,799.49,1688.69,783.65,1682.67Z" transform="translate(0 -121.96)"/><path class="cls-22" d="M1083.69,1580.19h34.69c3.15,9.15,1.22,17.6,1.68,25.83-11.89,3.15-23.8,1.33-36.51,1.06C1081.28,1597.61,1080.46,1589,1083.69,1580.19Z" transform="translate(0 -121.96)"/><path class="cls-12" d="M1130.67,1701.22h35c4,8.38,1.13,17,2.16,25.17-11.76,4-23.67,1.21-36.27,1.61C1128.29,1718.71,1128.68,1710,1130.67,1701.22Z" transform="translate(0 -121.96)"/><path class="cls-24" d="M1233.09,1580.62h35.25c1.78,5.89,3.82,11.92,5.34,18.08.75,3,0,6-3.59,7.17-10.43,3.49-21.12,1.25-31.7,1.41A31.94,31.94,0,0,1,1233.09,1580.62Z" transform="translate(0 -121.96)"/><path class="cls-20" d="M1237,1701.09c8.47,0,16.93,0,25.39-.16,4.64-.1,8.24,1.34,11.49,7.52v17.83c-11.84,7-23.9,4-36.78,1.69C1234.82,1718.52,1234.44,1709.86,1237,1701.09Z" transform="translate(0 -121.96)"/><path class="cls-19" d="M1057.75,1547.47c19.1,0,38.21,0,57.32.07,1,0,2.11.81,4.41,1.75.09,4,.19,8.6.28,13.19-20.45,2.5-40.89,1.1-60.38.8C1053.62,1557.47,1054.51,1552.52,1057.75,1547.47Z" transform="translate(0 -121.96)"/><path class="cls-12" d="M487.12,1551.09l10.72-7.14h44.68c.7,16.58-7.93,22.73-23.64,21.72-8.43-.54-16.91.09-25.36-.27a12.91,12.91,0,0,1-5.58-1.62,9.17,9.17,0,0,1-3.26-7.66A8.64,8.64,0,0,1,487.12,1551.09Z" transform="translate(0 -121.96)"/><path class="cls-19" d="M759.06,1547.12c9.21-2.26,18.41-6.69,27.66-.09h23.71c2.57,5.87,5.25,10.63-1,14.91-15.6,7.57-32.26,1.79-48.31,3.82l-1.42,0h-1.41C753.18,1559.32,753.5,1553.11,759.06,1547.12Z" transform="translate(0 -121.96)"/><path class="cls-19" d="M893.53,1682.88V1666c15.3-3.08,30.09-1.12,45.88-1.4,1.14,6.62,4.11,12.56-1.91,18.05C922.88,1688.33,908.22,1688,893.53,1682.88Z" transform="translate(0 -121.96)"/><path class="cls-12" d="M951.84,1679c-6.05-3.1-3.12-8.06-2.6-13.28,9.22-2.54,18.79-1,28.21-1.27,8.93-.26,17.87-.06,27.72-.06,1.22,5.65,4.5,10.44-1.83,14.59A78,78,0,0,1,951.84,1679Z" transform="translate(0 -121.96)"/><path class="cls-12" d="M1382.67,1701.7h28.39c1.27,1.79,4.63,4.43,4.89,7.35.45,4.92,2,9.2,3.65,13.65.3.8-1.83,2.52-2.83,3.81-10.35,5.34-21.65,6.57-30.91-.1C1377.72,1720.54,1378.06,1710.72,1382.67,1701.7Z" transform="translate(0 -121.96)"/><path class="cls-21" d="M487.12,1551.09a4.24,4.24,0,0,0-.05,2.42c-1.26,2.91-2.49,5.82.21,8.63l-.13,1a3.47,3.47,0,0,1,0,4.69c-15.13.41-30.6,3-45.29.64-16.26-2.6-32.33-1.92-48.47-2.84-1.08-.06-2.11-.94-4.42-2,11.61-4.52,22.9-.38,34.59-2.88l7.16-12.78c4-.33,5,1.47,4.41,4.25s-1.58,5.4-2.38,8c2,.81,3.14,1.61,4.24,1.62,12.09.09,24.19.06,37.07.06l8.54-17.06C487.64,1544.75,486.82,1548.29,487.12,1551.09Z" transform="translate(0 -121.96)"/><path class="cls-19" d="M842.37,1683v-16.88c14-3.42,27.61-1.08,42.25-1.59,1,6.71,4.15,12.68-2.08,18.11C869.18,1685.62,855.78,1685.13,842.37,1683Z" transform="translate(0 -121.96)"/><path class="cls-19" d="M963.06,1565.93v-17c14.24-2.93,27.9-1.12,41.8-1.52,3,6.74,1.65,12.78,1.64,18.68A138.2,138.2,0,0,1,963.06,1565.93Z" transform="translate(0 -121.96)"/><path class="cls-19" d="M911.57,1565.07c.23-5.28.47-10.57.72-16.36,7.47-2.38,14.63-1.15,21.64-1.36,6.47-.2,13,0,19.75,0,3,6.59,1.5,12.6,1.85,18.37C940.84,1568,926.17,1569.33,911.57,1565.07Z" transform="translate(0 -121.96)"/><path class="cls-20" d="M1324.92,1580.32h29.5c8.48,7.64,7.24,16.78,7.13,25.64C1334.23,1615.14,1326.81,1609.94,1324.92,1580.32Z" transform="translate(0 -121.96)"/><path class="cls-22" d="M1141.78,1548.37c1.59-1.51,3.12-4.23,4.79-4.32,8.29-.45,16.63-.2,26-.2,1.7,2.17,5.35,4.74,5.52,7.51.28,4.72,3.75,10.85-3.06,14.26a65.43,65.43,0,0,1-33.09,0l.22.2C1137.88,1560.07,1137.34,1554.28,1141.78,1548.37Z" transform="translate(0 -121.96)"/><path class="cls-20" d="M662.84,1561.65c.62-5.78-1.81-12.41,6.15-17.38,11.72-1.26,25-.46,38.23-.32,3.14,7,0,12.65-4.12,18.91C689.71,1563.44,676.25,1565.89,662.84,1561.65Z" transform="translate(0 -121.96)"/><path class="cls-12" d="M545.88,1551l6.36-6.61h34.68c2.76,15.58,0,19.77-14.36,21.09-8.88.82-17.79-.77-26.67.15l-4-.18C538.62,1559.36,536.82,1553.69,545.88,1551Z" transform="translate(0 -121.96)"/><path class="cls-12" d="M1192.79,1580.68h27.79c3.9,8.24,1.1,16.86,2.07,25.07-9.65,6.24-19.45,3.67-29.61,1.65C1188.64,1597.83,1188.38,1589.31,1192.79,1580.68Z" transform="translate(0 -121.96)"/><path class="cls-20" d="M1284.67,1584.32c1.74-1.34,3.42-3.73,5.24-3.84,7.16-.45,14.36-.19,22.7-.19.69,9.34,6.27,17,4.53,26.28-9.56,2.13-19.07.83-28.7.57C1284.49,1599.35,1281.1,1592.46,1284.67,1584.32Z" transform="translate(0 -121.96)"/><path class="cls-12" d="M1196.93,1624.38c3.82-7.34,10.55-3.35,15.9-3.69,9-.59,9.05-.12,16.61,5.43V1643c-5.91,4.14-12.69,3.07-19.17,2.89C1193.75,1645.49,1191.68,1642,1196.93,1624.38Z" transform="translate(0 -121.96)"/><path class="cls-20" d="M1292.13,1623.83c1.9-1.11,3.67-2.67,5.72-3.25,7.54-2.13,13.71,3.46,21.69,4.11,1.71,5.17,3.87,10.62,5.13,16.27.31,1.39-2.32,3.44-3.6,5.18-8.72,3.57-17.35,1-26.17,1.37C1292.64,1638.69,1288.91,1631.72,1292.13,1623.83Z" transform="translate(0 -121.96)"/><path class="cls-25" d="M439.48,1646.05h56.44c3.45-8.93,6.64-17.2,9.84-25.47,3.81,1,4.38,4,3.63,7-2.15,8.62-3.89,17.45-9.75,25.16H441.31C440.66,1650.39,440.07,1648.22,439.48,1646.05Z" transform="translate(0 -121.96)"/><path class="cls-23" d="M373.82,1605.45c15.75.42,31.51,1.14,47.35-.41,5.69-8.73,7.77-18,8.51-27.71l6.25-.6c-.51,4.7-.64,9.48-1.63,14.07-1.12,5.18-3,10.2-4.55,15.28-2.19,4-5.45,6.88-10,6.87-15.78,0-31.56-.42-47.34-.73-.38,0-.75-.79-1.51-1.65C369.68,1608.11,371.69,1606.75,373.82,1605.45Z" transform="translate(0 -121.96)"/><path class="cls-26" d="M1076.08,1701.09c.25,7.76.51,15.53.79,23.88,7.34,2.8,14.58,1.35,21.6,1.57,7.23.22,14.48,0,21.72,0l6.85-.38c1.12.61,1.61,1.35,1.44,2.22s-.42,1.39-.73,1.39c-3.83,1.38-7.62,3.83-11.49,4-14.89.47-29.8.19-45.27.19-3.7-10.49-1.28-20.47-2-31.18Z" transform="translate(0 -121.96)"/><path class="cls-19" d="M864.28,1562.21V1549c12.93-3.44,25.37-.83,37-1.73,4.65,5.16,2.47,10.2,3,14.79C891,1567.59,877.63,1567.45,864.28,1562.21Z" transform="translate(0 -121.96)"/><path class="cls-23" d="M579.13,1642.88l55.84-.75,6.11-21.58c3.91.91,4.35,3.93,3.7,7-1.49,7-3.34,13.84-5,20.52-16.16,2.25-45.46,2.29-60.12.13C579.49,1646.46,579.31,1644.67,579.13,1642.88Z" transform="translate(0 -121.96)"/><path class="cls-27" d="M381.15,1726.15c14.76.22,29.56,1.69,44.77-1,3.06-8.07,6.58-15.47,7-23.88h6.53c-1.84,10.83-5.46,20.5-9,29.12-6.31,5.17-12.57,3-18.39,3.34a148.75,148.75,0,0,1-16.22,0c-5.78-.28-11.84,1.46-16.91-1.21C377.13,1728.84,379,1727.43,381.15,1726.15Z" transform="translate(0 -121.96)"/><path class="cls-23" d="M586.17,1682.75h49.15l6-18.18a15.38,15.38,0,0,1,3.18-.09q.21,11.76.4,23.5l.11.33c-5.27.53-10.53,1.43-15.81,1.52-13.62.22-27.23.07-41.65.07C587,1687,586.57,1684.89,586.17,1682.75Z" transform="translate(0 -121.96)"/><path class="cls-23" d="M450.69,1682.5h52.88l6.1-17.82c1.19,1.19,3.28,2.29,3.43,3.6.79,7.29-.23,14.27-6.7,21.18-8,1-17.54.25-27,.4-8.91.13-17.81,0-27.45,0C451.44,1686.84,451.07,1684.67,450.69,1682.5Z" transform="translate(0 -121.96)"/><path class="cls-23" d="M545.88,1551c-1.17,1.85-2.89,3.56-3.36,5.57-.68,2.84-.45,5.91-.6,8.88-2.67,1.26-5.35,3.63-8,3.62-15.57-.09-31.14-.74-46.72-1.2l0-4.69,45.66-1.86,9.71-17.36C546.26,1545.05,545.76,1548.17,545.88,1551Z" transform="translate(0 -121.96)"/><path class="cls-16" d="M341.57,1687q37.26-.36,74.5-.71c6-.06,12,0,18.7,0,2.11-7.64,4-14.46,5.9-21.29l6,.34c-1.3,5-2.25,9.53-3.74,13.9-1.14,3.34-3,6.44-4.86,10.35-4.31.15-8.44.41-12.58.41q-37.18.06-74.36,0C347.76,1689.94,343.76,1691.19,341.57,1687Z" transform="translate(0 -121.96)"/><path class="cls-23" d="M1382.67,1701.7c.63,7.09,1.27,14.18,1.9,21.22,10.75,6.29,21.76,2.51,32.2,3.59-.31,1.75-.62,3.5-1.08,6-11,2.43-22.14,1-34.35.93l-8.54-31.78Z" transform="translate(0 -121.96)"/><path class="cls-28" d="M355.56,1649.24h65.71c6.07-9,7-19.58,11.34-28.68,4.17,1,4.08,4.14,3.14,7-2.59,8-5.55,15.88-8.8,25-11.46,1.71-23.56.59-35.56.78-12.17.2-24.34,0-37.68,0C354.52,1651.6,355,1650.42,355.56,1649.24Z" transform="translate(0 -121.96)"/><path class="cls-23" d="M545.89,1565.62c1.78-1.24,3.5-3.45,5.36-3.56,7.16-.44,14.36-.07,21.54-.29,3.45-.11,6.87-.87,11.35-1.48,1-5.64,1.89-10.78,2.78-15.91l5.84.64c.33,6.37.66,12.66,1,19l.16-.2c-11.14,4.22-22.61,6.62-34.54,5.19C554.81,1568.41,550.38,1566.77,545.89,1565.62Z" transform="translate(0 -121.96)"/><path class="cls-25" d="M1192.79,1580.68c.38,7.68.77,15.36,1.2,24.14,5.15.35,9.72.81,14.3,1,4.78.15,9.57,0,14.36,0l-1,5.79c-7.53,2.7-15.39,1.54-23,1.1-3.87-.22-7.6-2.87-11.95-4.64v-25.8C1187.93,1579.8,1190.54,1580.84,1192.79,1580.68Z" transform="translate(0 -121.96)"/><path class="cls-27" d="M1324.92,1580.32c1.26,4,2.56,7.9,3.77,11.87a71.15,71.15,0,0,0,1.94,6.87,64,64,0,0,0,4,6.9h26.87c.58.9,1.73,1.88,1.6,2.66a3.78,3.78,0,0,1-2.16,2.52c-11.62,3.65-23,2.37-34.28,0-2.1-9.09-4-16.52-5.48-24C1320.6,1584.12,1321.08,1581.18,1324.92,1580.32Z" transform="translate(0 -121.96)"/><path class="cls-27" d="M1196.93,1624.38v16.5c11.35,3.08,22.13.44,32.51,2.16l-1.1,5.84c-10.86,1.61-21.69.57-32.15.66-9.62-6.46-5.23-15.55-6.89-24.49Z" transform="translate(0 -121.96)"/><path class="cls-27" d="M1237,1701.09c.31,7.75.62,15.5.94,23.45,6,3.49,12.07,1.73,17.88,2,6,.23,12-.11,18.06-.21,2.25,1.33,3.64,3,1.75,6.64-13,1.56-26.46.71-40.78.6-2.85-10.76-2.28-20.67-.66-30.59C1234.32,1702.19,1236,1701.7,1237,1701.09Z" transform="translate(0 -121.96)"/><path class="cls-27" d="M1182,1701.23c.34,7.7.68,15.41,1,23.53,6.52,3.3,13.19,1.33,19.54,1.74,6.57.42,13.17.31,19.76.43-.31,1.74-.61,3.47-1,5.88-13.54,1.71-27,.79-41.46.76-2.7-10.61-2.13-20.47-.56-30.34C1179.42,1702.44,1181.05,1701.89,1182,1701.23Z" transform="translate(0 -121.96)"/><path class="cls-23" d="M1380.86,1644.62c8.6,3.19,17.69-1.42,26.61,6.12-12.68,4.18-22.71,2-33.28,2.35-1.24-5.34-2-10-3.44-14.47-1.54-4.67-3.31-9.12.12-13.7,6.92,0,4.58,5.64,5.8,9.15C1378,1638,1379.7,1641.72,1380.86,1644.62Z" transform="translate(0 -121.96)"/><path class="cls-23" d="M759.06,1547.12q-.37,9.32-.74,18.62c-12.11,6.16-25,3-37.59,2.9-1.84,0-3.65-2.52-7.44-5.33,12.86-2.76,23.62-.69,35.19-1.93,2.14-5.28,4.48-11,6.93-17Z" transform="translate(0 -121.96)"/><path class="cls-26" d="M718.09,1683l58,0c-1.41,4.58-4.68,6.77-9.29,6.8q-19.66.12-39.32,0C722.84,1689.74,719.63,1687.43,718.09,1683Z" transform="translate(0 -121.96)"/><path class="cls-21" d="M439.8,1730.2c10.8,0,21.6-.29,32.39,0,6.22.18,11.75-1.23,18.35-5.6,2.25-7,4.93-15.41,7.61-23.78,3.89.61,4.57,3.42,4.05,6.55a72.48,72.48,0,0,1-9.2,25.95c-16.28,1-32.95.52-49.6.15C442.18,1733.46,441,1731.35,439.8,1730.2Z" transform="translate(0 -121.96)"/><path class="cls-23" d="M1341.69,1645.06l19.77,2.19c-3.94,6.3-3.94,6.3-23.19,5.57-9.57-7.35-4.6-19.81-10.2-29l6.33-2.74C1336.92,1629.32,1339.29,1637.14,1341.69,1645.06Z" transform="translate(0 -121.96)"/><path class="cls-28" d="M509.72,1646.66l56.83-1.09c2.34-7.22,5.9-13.56,5-21.09,4.61.52,6.27,3.73,5.66,7.63-.82,5.28-2.5,10.42-4.09,16.7-3.11.31-6.61.94-10.11,1-15.22.12-30.44.08-45.66.07C514.4,1649.85,511.2,1650.29,509.72,1646.66Z" transform="translate(0 -121.96)"/><path class="cls-16" d="M645,1688.31l-.11-.33c6.48-.57,12.95-1.5,19.43-1.62,13.63-.26,27.27-.08,41.44-.08,2-7.8,3.75-14.57,5.49-21.34,1.29,2.19,2.59,4.38,3.88,6.58-.16,1.31-.31,2.63-.46,3.94-.49,4.14-1,8.28-1.57,13.29-3,.44-5.85,1.19-8.69,1.22-15.67.12-31.35.17-47,0C653.22,1689.9,649.1,1688.88,645,1688.31Z" transform="translate(0 -121.96)"/><path class="cls-27" d="M1014.19,1682.79q47.49-.11,95-.25c3.12,0,6.11,0,7.27,3.72q-46.51,0-93,0C1020,1686.23,1015.92,1687.53,1014.19,1682.79Z" transform="translate(0 -121.96)"/><path class="cls-29" d="M1426.41,1701.67c1.9,7.56,3.79,15.12,5.95,23.71,16.45,1.93,33.27,1.16,50.09.45.58.87,1.15,1.75,1.8,2.74-.85.54-1.69,1.56-2.54,1.56-17.3.1-34.6.07-51,.07a30.74,30.74,0,0,1-3-3.65,21.15,21.15,0,0,1-2.21-4.91c-1.57-6.23-3-12.51-4.51-19.16Z" transform="translate(0 -121.96)"/><path class="cls-23" d="M951.84,1679l51.5,0c-.29,1.77-.59,3.54-1,6.14-16,2.61-32.09.25-48.85,1.48Z" transform="translate(0 -121.96)"/><path class="cls-28" d="M1043.31,1624.3v20.6c13.1,2.19,25.56.9,37.91,1.11,12,.2,23.92,0,35.88,0-1.22,1.15-2.43,3.29-3.67,3.3-24,.2-48,.15-73.1.15-1.33-8.3-1.52-15.86.1-23.43C1040.58,1625.27,1042.31,1624.86,1043.31,1624.3Z" transform="translate(0 -121.96)"/><path class="cls-21" d="M517.09,1686.87h49.7c8.92-5.84,8-14.21,9.23-21.79l6,.49c.51,8.77-3.07,15.93-6.59,22.79-11.21,1.63-47.2,2.29-56,.94C518.53,1689.17,517.86,1687.71,517.09,1686.87Z" transform="translate(0 -121.96)"/><path class="cls-25" d="M699.53,1646.13l47.26.33c-.29,1.75-.57,3.51-1,6-14.27,1.75-28.59.94-42.86.46-1.82-.07-3.59-2.63-5.21-4.21A17.36,17.36,0,0,1,699.53,1646.13Z" transform="translate(0 -121.96)"/><path class="cls-21" d="M1057.75,1547.47c.23,4.15.47,8.29.75,13.26,20.62,2.79,41-.13,61.26,1.75-1.31,1-2.61,3-3.93,3-20.89.19-41.78.13-63.76.13-.58-5.94-1.09-11.05-1.69-17.19Z" transform="translate(0 -121.96)"/><path class="cls-25" d="M1183.7,1545.63l4.25-1.12,3.13,15.2c1,.6,1.94,1.66,3,1.73,6,.4,12.07.4,18.06,1,1,.1,1.79,2.51,3.15,4.58-9.42,3.8-18.33,1.59-26.58,2.07C1182.22,1561,1182.22,1561,1183.7,1545.63Z" transform="translate(0 -121.96)"/><path class="cls-29" d="M1306,1701.53l6.31,24.8,53.26.17c-.82,2.68-2.77,3.71-5.42,3.71H1309c-4.19-8.14-6.47-16.07-6-24.61C1303.13,1704.19,1305,1702.89,1306,1701.53Z" transform="translate(0 -121.96)"/><path class="cls-29" d="M1412.49,1624.35l8,24.24c13.52,1.85,26.79,1.09,40,.46l1.79,2.73c-.86.55-1.7,1.55-2.54,1.56q-19.79.17-39.55.06c-1.68,0-3.35-.81-5.53-1.38-1.83-6.8-3.81-13.56-5.4-20.42C1408.59,1628.69,1408.77,1625.58,1412.49,1624.35Z" transform="translate(0 -121.96)"/><path class="cls-25" d="M761.15,1565.76c1.49-3.07,4.09-3.85,7.29-3.84,13.67.06,27.35,0,41,0-.25,1.73-.51,3.46-.82,5.52-1.55.57-3.1,1.61-4.67,1.64-11.8.16-23.6.09-35.4.16C765.47,1569.29,762.74,1568.8,761.15,1565.76Z" transform="translate(0 -121.96)"/><path class="cls-26" d="M783.65,1682.67h47.52c-1.36,4.56-4.47,7.11-9.16,7.16-12,.13-23.9,0-36.58,0C784.72,1687,784.18,1684.83,783.65,1682.67Z" transform="translate(0 -121.96)"/><path class="cls-23" d="M1297.53,1683.33c-1.63-5.47-3.15-10.54-4.76-16l4.63-2.85c2.41,4.53,4.62,8.66,7,13.12a31.43,31.43,0,0,0,4.87,1.11c6.28.46,12.8-.72,19.09,1.28-.81,2.63-.94,4.46-1.49,4.59C1317,1687,1307.22,1687.8,1297.53,1683.33Z" transform="translate(0 -121.96)"/><path class="cls-29" d="M326.37,1730.13h38.7c3.26-9.85,6.39-19.33,9.53-28.81l5.79.78c-3.58,10.51-7,20.49-10.5,30.84-13.75,1.94-26.95.93-40.11.61C328.61,1733.52,327.5,1731.32,326.37,1730.13Z" transform="translate(0 -121.96)"/><path class="cls-28" d="M681.08,1605.11c11.27.21,22.54.46,33.81.57,1.67,0,3.34-.62,6.17-1.19.43-4.6.6-9.21,1.37-13.71s2.2-9.15,3.34-13.72c.88.74,2.49,1.44,2.53,2.22.56,9.67,1.72,19.46-4.35,29.22-14.13,2.71-29.3,0-45.71,1.45C679.63,1607.58,680.35,1606.34,681.08,1605.11Z" transform="translate(0 -121.96)"/><path class="cls-29" d="M626.6,1606.22l37.71-.84c7-7.19,6.49-15.69,6.28-24.11l6.66-.74c-1.47,9.14-2.86,17.78-4.42,27.45-3,.5-6.42,1.48-9.85,1.55-10.26.21-20.53,0-30.79.06C629.61,1609.59,627.52,1608.91,626.6,1606.22Z" transform="translate(0 -121.96)"/><path class="cls-25" d="M893.53,1682.88l44-.25c-.31,1.75-.61,3.5-1.06,6.06-13.4,2.75-27,.34-41.24,1.47Z" transform="translate(0 -121.96)"/><path class="cls-30" d="M509.73,1733.63c.8-2.7,2.77-3.5,5.39-3.49,10.73,0,21.46,0,31.56,0,8-8.89,6.25-20,10.4-29.06,3.8.92,4.29,3.84,3.63,6.88-1.62,7.46-3.54,14.86-5.31,22.15-6.85,6.26-15,3.1-22.42,3.54C525.26,1734.13,517.48,1733.68,509.73,1733.63Z" transform="translate(0 -121.96)"/><path class="cls-29" d="M593.91,1563.77l-.16.2,3.3-2.18c17.77.17,35.54.15,54,0l1.21-13.53,5.2-.55c.45,1.33,1.38,2.6,1.11,3.52-1.31,4.53-2.94,9-4.73,14.21C633.66,1564.76,613.74,1567.9,593.91,1563.77Z" transform="translate(0 -121.96)"/><path class="cls-29" d="M648.18,1645.57h37.46c4.37-4,2.42-8.62,3.48-12.56s2.47-8.08,3.73-12.12a9.26,9.26,0,0,1,2.41-.05q.27,9,.53,17.9l-6,10.59h-43C647.29,1648,647.73,1646.77,648.18,1645.57Z" transform="translate(0 -121.96)"/><path class="cls-25" d="M864.28,1562.21l40-.12-.89,6c-12.19,2.39-24.46.62-37.5,1.26C865.24,1566.46,864.76,1564.34,864.28,1562.21Z" transform="translate(0 -121.96)"/><path class="cls-25" d="M856.63,1567.56c-12,2.7-23.26,2-34.45.72-1.66-.19-3-2.9-5.81-5.75,13.75-1.09,25.63-1.34,37.49.16C854.78,1562.8,855.4,1565.3,856.63,1567.56Z" transform="translate(0 -121.96)"/><path class="cls-16" d="M1240.61,1625c.31,5.91.62,11.81.93,17.76,12.36,5.91,24.52,2,36.18,3.26-1.22,1.17-2.42,3.33-3.67,3.36-11.49.26-23,.15-35.2.15-1.85-7.89-3.59-15.28-5.11-21.75C1235.75,1623.66,1238.34,1624.94,1240.61,1625Z" transform="translate(0 -121.96)"/><path class="cls-29" d="M1284.67,1584.32c-.71,7.46,2.77,13.78,5,20.8l27.51,1.45c-2,1-4,2.8-6,2.87-9,.32-18.13.14-28.31.14-.62-4.35-1.21-8.3-1.76-12.26s-1.09-8-1.67-12.45Z" transform="translate(0 -121.96)"/><path class="cls-30" d="M1366.42,1581.27c9.91,5.06,3.37,16.88,13.27,23.56l13.38,1.48c-1.14,1.56-1.62,2.85-2.14,2.86-6.57.14-13.14.09-20.41.09C1368.6,1599.93,1362.59,1591.72,1366.42,1581.27Z" transform="translate(0 -121.96)"/><path class="cls-11" d="M999.36,1605.26l69.85.54c-1.1,3.82-4.22,3.66-7.24,3.65q-32.81-.09-65.6-.21c-1.17-.65-1.58-1.34-1.24-2.06s.72-1.11,1.09-1.11A10.69,10.69,0,0,0,999.36,1605.26Z" transform="translate(0 -121.96)"/><path class="cls-16" d="M662.84,1561.65h37.24c5.59-4.82,6.63-11.15,7.14-17.7.56.23,1.41.31,1.64.72,4.09,7.25,1.31,13.6-1.68,20.35-5.18.23-9.38.55-13.58.58-10.73.08-21.47,0-33,0Z" transform="translate(0 -121.96)"/><path class="cls-27" d="M1224.71,1565.46c-2.73-6.74-3.12-11.78-.82-17.14,5.12,5.43,5.12,5.43,7.49,12.32,10.83,3.08,22.6-1,37,3.41C1251.88,1566.83,1238.71,1565.49,1224.71,1565.46Z" transform="translate(0 -121.96)"/><path class="cls-28" d="M1142.21,1583.09c1.47,6.93,2.93,13.85,4.56,21.56,11.54,2.62,23.56,0,35.3,1.64-1.29,1-2.56,3-3.86,3-11.33.24-22.67.14-34.9.14-.77-3.18-1.36-5.9-2.09-8.59-.77-2.85-2.1-5.62-2.43-8.52C1138.4,1588.87,1138,1585,1142.21,1583.09Z" transform="translate(0 -121.96)"/><path class="cls-29" d="M1127.75,1729.73l-.71-3.61V1702.3l3.63-1.08c.3,7.75.61,15.5.92,23.39,6.14,3.3,12.25,1.64,18.09,1.86,6,.24,12.08,0,18.12-.08-.45,2.75-2.25,3.88-4.84,3.85C1151.22,1730.1,1139.49,1729.91,1127.75,1729.73Z" transform="translate(0 -121.96)"/><path class="cls-30" d="M1292.13,1623.83c1.52,6.78,3,13.55,4.72,21,7.88,2.51,16.16.62,24.22,1.29-.66.95-1.2,2.59-2,2.72-9.5,1.55-19,1-29.21.44a72.86,72.86,0,0,1-1.36-22.09C1288.59,1626,1290.87,1625,1292.13,1623.83Z" transform="translate(0 -121.96)"/><path class="cls-30" d="M1083.69,1580.19v23.11c6.36,4,12.5,2.08,18.3,2.41,6,.34,12,.23,18.07.31-1.29,1.1-2.55,3.12-3.86,3.15-11.45.25-22.91.14-35.32.14-1.93-9.83-2.23-18.64-.18-27.5C1080.87,1581.08,1082.66,1580.73,1083.69,1580.19Z" transform="translate(0 -121.96)"/><path class="cls-21" d="M553.53,1609.33c1.37-3.59,4.45-3.43,7.48-3.43h58.16c-.93,3.72-3.84,3.87-6.88,3.85Z" transform="translate(0 -121.96)"/><path class="cls-27" d="M1336.05,1669.81l4.87-6c2.92,7.14,5.06,12.38,7,17.23,7.75,3.21,15.89-.5,25.46,3.9-12,2.46-21.43,1.26-31.62,1.35C1340,1681.15,1338.29,1676.23,1336.05,1669.81Z" transform="translate(0 -121.96)"/><path class="cls-28" d="M971.08,1649.28c1.23-3.83,4.46-3.21,7.34-3.22q27,0,54,0c-.64,2.8-2.63,3.7-5.24,3.68Z" transform="translate(0 -121.96)"/><path class="cls-16" d="M432.48,1605.85c14.47,0,28.95-.2,43.42.07,5.55.1,10.58-.87,15.26-3.78-.21,1.75-.42,3.49-.62,5.08-1.14.79-2.06,2-3,2-16.62.2-33.25.25-49.87.33C435.06,1609.56,433.18,1608.52,432.48,1605.85Z" transform="translate(0 -121.96)"/><path class="cls-21" d="M498.28,1605.75c16.92-.34,33.89,1.58,50.91-1.46.14,1.78.28,3.51.41,5.25q-25.85-.06-51.71-.18c-.36,0-.72-.66-1.17-1.09Z" transform="translate(0 -121.96)"/><path class="cls-28" d="M1176.09,1681.09v-11.71l1.42-.33c.84,2.55,1.67,5.09,2.79,8.52,13,3.11,27.15-.71,42.25,2.54C1209.81,1683.55,1194.64,1683.78,1176.09,1681.09Z" transform="translate(0 -121.96)"/><path class="cls-21" d="M1003,1730.19q25.49,0,51,0c3,0,6.12-.23,7.31,3.53l-51,.24C1007.23,1734,1004.24,1733.82,1003,1730.19Z" transform="translate(0 -121.96)"/><path class="cls-31" d="M911.58,1645.62l50.78,1.2c-1.69,3.37-4.85,2.9-7.78,2.9-14.43,0-28.87,0-44.46,0C910.75,1648,911.16,1646.79,911.58,1645.62Z" transform="translate(0 -121.96)"/><path class="cls-31" d="M933.93,1606.35l54.56-.5c-1.18,1.15-2.35,3.27-3.56,3.29q-23.5.39-47,.13C936.57,1609.26,935.26,1607.37,933.93,1606.35Z" transform="translate(0 -121.96)"/><path class="cls-28" d="M1419.93,1682.65l51.27.21c-1.2,1.1-2.39,3.14-3.6,3.16q-22.17.29-44.33-.08C1422.14,1685.92,1421,1683.79,1419.93,1682.65Z" transform="translate(0 -121.96)"/><path class="cls-16" d="M1382.25,1686c-2.4-6.92-3.32-11.86-.6-19.31,3,5.94,5,10,7.6,15l15.64,1.2c-1.44,1.8-1.94,3-2.47,3C1395.91,1686.07,1389.39,1686,1382.25,1686Z" transform="translate(0 -121.96)"/><path class="cls-31" d="M732.38,1605.61l44.1.22c-1.15,1.13-2.29,3.24-3.46,3.26-14,.23-28,.14-42.54.14Z" transform="translate(0 -121.96)"/><path class="cls-11" d="M911.57,1565.07l44,.61c-.7,2.81-2.75,3.54-5.33,3.53H909.34Z" transform="translate(0 -121.96)"/><path class="cls-21" d="M805.67,1646.21l47.74-.16c-1.16,1.18-2.3,3.37-3.49,3.4q-20.35.39-40.72.07C808,1649.5,806.85,1647.37,805.67,1646.21Z" transform="translate(0 -121.96)"/><path class="cls-16" d="M1145.63,1635.05c5.86,1,2.4,7.2,7,11h30c-1.19,1.13-2.37,3.21-3.6,3.24-10.54.26-21.1.15-31.57.15C1144.34,1644.34,1145.71,1639.6,1145.63,1635.05Z" transform="translate(0 -121.96)"/><path class="cls-31" d="M963.06,1565.93l43.44.13c-1.27,1.08-2.52,3.06-3.81,3.08q-17.94.3-35.88-.13C965.54,1569,964.31,1567,963.06,1565.93Z" transform="translate(0 -121.96)"/><path class="cls-29" d="M860.78,1646.56l43.14.12c-1.31,1-2.6,2.81-3.93,2.84q-17.68.32-35.37,0C863.32,1649.46,862.06,1647.58,860.78,1646.56Z" transform="translate(0 -121.96)"/><path class="cls-31" d="M754.41,1646.15l43.5.48c-1.33,1-2.65,2.85-4,2.88q-18,.3-36-.11C756.73,1649.38,755.58,1647.28,754.41,1646.15Z" transform="translate(0 -121.96)"/><path class="cls-16" d="M1405.32,1605.86l44.11-.1c-.56,1-1.12,2.8-1.69,2.8q-20.31.27-40.63.06C1406.51,1608.61,1405.92,1606.82,1405.32,1605.86Z" transform="translate(0 -121.96)"/><path class="cls-28" d="M787.22,1605.54l40.26.33c-1.16,1.13-2.26,3.17-3.48,3.25-12.71.77-25.42.25-39,.41Z" transform="translate(0 -121.96)"/><path class="cls-28" d="M842.37,1683l40.17-.36c-1.21,1.15-2.39,3.26-3.62,3.3q-16.32.43-32.67.11C844.94,1686,843.67,1684.05,842.37,1683Z" transform="translate(0 -121.96)"/><path class="cls-31" d="M838.67,1606.13h39.92c-1.25,1.07-2.48,3-3.75,3.08q-16.2.38-32.4,0C841.16,1609.18,839.93,1607.2,838.67,1606.13Z" transform="translate(0 -121.96)"/><path class="cls-31" d="M886.06,1605.85l40.22,0c-1.15,1.12-2.27,3.18-3.44,3.21q-16.71.38-33.42,0C888.28,1609.07,887.18,1607,886.06,1605.85Z" transform="translate(0 -121.96)"/><path class="cls-29" d="M1141.78,1548.37l.39,17.42-5.32-1c-2.88-5.58-2.53-11.1-.63-16.94Z" transform="translate(0 -121.96)"/><path class="cls-30" d="M1233.09,1580.62l4.47,25c-1.3,1.59-2.68,1.57-4.12.2-4.69-7.28-4.46-15.22-3-23.25C1230.62,1581.77,1232.18,1581.25,1233.09,1580.62Z" transform="translate(0 -121.96)"/><path class="cls-31" d="M1233.44,1605.8l4.12-.2,32.53.27c-1.15,1.12-2.27,3.19-3.44,3.22q-14.93.4-29.86,0C1235.65,1609.09,1234.56,1607,1233.44,1605.8Z" transform="translate(0 -121.96)"/><path class="cls-31" d="M1044.49,1567.08c-9.46,2.59-19.29,2.75-33.19.77C1024.88,1564,1034.53,1565.79,1044.49,1567.08Z" transform="translate(0 -121.96)"/><path class="cls-29" d="M1142,1565.59l33.09,0c-1.14,1.16-2.25,3.28-3.42,3.32q-13.2.42-26.42,0C1144.08,1568.91,1143,1566.76,1142,1565.59Z" transform="translate(0 -121.96)"/><path class="cls-16" d="M491,1602.36c-.38-5.83-.65-11.49,2.69-16.92,1.4-2.28,1-5.67,1.41-8.55,1.14,1.15,3.27,2.29,3.27,3.44C498.37,1588.42,496.6,1596.07,491,1602.36Z" transform="translate(0 -121.96)"/><path class="cls-21" d="M619.09,1606c0-4.5-.09-9,0-13.49.09-3.38,2.06-5,5.41-4.89-.61,4.44-.94,9-2,13.29C622.15,1602.76,620.3,1604.3,619.09,1606Z" transform="translate(0 -121.96)"/><path class="cls-16" d="M1401.89,1583.45q0,7.62-.07,15.25c-5.15-2-3.77-6.7-3.69-10.41C1398.17,1586.65,1400.56,1585.06,1401.89,1583.45Z" transform="translate(0 -121.96)"/><path class="cls-28" d="M1415.43,1671.52c2.58.31,4.26,1.59,4.43,4.32.15,2.33.18,4.67.27,7-1.24-1.57-2.91-3-3.62-4.74C1415.7,1676.08,1415.75,1673.73,1415.43,1671.52Z" transform="translate(0 -121.96)"/><path class="cls-16" d="M1145.82,1623.83c0,3.82,0,7.63,0,11.44C1140.94,1630.66,1141,1628.3,1145.82,1623.83Z" transform="translate(0 -121.96)"/><path class="cls-16" d="M1401.67,1598.5c4.81.71,3.79,4.38,3.8,7.51C1400.65,1605.31,1401.62,1601.67,1401.67,1598.5Z" transform="translate(0 -121.96)"/><path class="cls-19" d="M996.22,1606.07a4.44,4.44,0,0,0,.15,3.17l-4.25-3.36,0-.05Z" transform="translate(0 -121.96)"/><path class="cls-10" d="M1722.57,1460.64a81.32,81.32,0,0,0-2.68-15.17,145.74,145.74,0,0,0-11.3-28.6c-4.26-8.13-11.25-15.18-21-15.33-4.74-.08-4.74,7.29,0,7.36,6.37.11,10.83,5,13.78,10.17a127.26,127.26,0,0,1,8.24,18.71,91.33,91.33,0,0,1,5.21,19.62,54.6,54.6,0,0,1,.45,10.14c-.07,1.31,0,3.41-1.53,3.87s-2.2-.92-2.15-2.26c.18-4.74-7.19-4.73-7.37,0-.32,8.73,11,13.45,16.37,6C1723.45,1471.2,1722.91,1465.22,1722.57,1460.64Z" transform="translate(0 -121.96)"/><path class="cls-32" d="M1543,365.73c-3.58-.1-7.09-.3-10.6-.3-14.63,0-29.26.11-43.88.05q-189.26-.62-378.48-1.37c-9.72,0-19.42-1.29-29.12-1.36-9.11-.08-18.23,1.09-27.34,1-22.46-.18-44.9-1.08-67.36-1.15-118.85-.34-237.7-.32-356.55-.9-41.39-.22-82.79-1.8-124.18-2.66-2.21,0-4.42.72-6.82,1.13v706.42c10.71-.32,20.88-.9,31-.91q492.77-.17,985.53-.27c9,0,18.07-.22,27-.33.85-2.68,1.84-4.35,1.84-6q.38-343.69.52-687.38C1544.63,370,1543.71,368.34,1543,365.73Zm-166.13,92.36V891.7H668.69V458.09Z" transform="translate(0 -121.96)"/><path class="cls-12" d="M487.28,1562.14c-4.53-3.06-4.55-3.81-.21-8.63Z" transform="translate(0 -121.96)"/><path class="cls-4" d="M1419.05,922.12l-38.39-34.23c-5.17-4.62-12.83,3-7.63,7.63l38.38,34.23c5.17,4.61,12.84-3,7.64-7.63Z" transform="translate(0 -121.96)"/><path class="cls-4" d="M664.87,887.89l-35.59,34.23c-5,4.82,2.62,12.45,7.63,7.63l35.6-34.23c5-4.82-2.62-12.45-7.64-7.63Z" transform="translate(0 -121.96)"/><path class="cls-4" d="M1371.44,458.09V891.7l5.4-5.4H679.39c-2.77,0-6.74-.73-9.44,0a5.31,5.31,0,0,1-1.26,0l5.4,5.4V458.09a5.48,5.48,0,0,0-5.4-5.4H633.1a5.48,5.48,0,0,0-5.4,5.4V925.93a5.48,5.48,0,0,0,5.4,5.4h750.08c10.1,0,20.59.82,30.66,0,.46,0,.93,0,1.39,0a5.48,5.48,0,0,0,5.4-5.4V458.09a5.48,5.48,0,0,0-5.4-5.4h-38.39c-6.94,0-7,10.8,0,10.8h38.39l-5.4-5.4V925.93l5.4-5.4H644.94c-3.11,0-7.42-.78-10.46,0a5.79,5.79,0,0,1-1.38,0l5.39,5.4V458.09l-5.39,5.4h35.59l-5.4-5.4V891.7a5.48,5.48,0,0,0,5.4,5.4h679.18c9.12,0,18.62.78,27.71,0,.42,0,.85,0,1.26,0a5.48,5.48,0,0,0,5.4-5.4V458.09C1382.24,451.14,1371.44,451.13,1371.44,458.09Z" transform="translate(0 -121.96)"/><path class="cls-6" d="M668.69,463.49h679.18c9.12,0,18.62.78,27.71,0,.42,0,.85,0,1.26,0,7,0,7-10.8,0-10.8H697.66c-9.11,0-18.62-.77-27.71,0-.41,0-.84,0-1.26,0-7,0-7,10.8,0,10.8Z" transform="translate(0 -121.96)"/><path class="cls-3" d="M785.88,431.12S655.68,524,717.39,636.58c0,0-73.24,9.5-144.44-48.14,0,0-94.25-65.78-199.36-29.84,0,0,34.58-76.62-8.14-198.68,0,0,158.68-74.59,282.09,8.81S785.88,431.12,785.88,431.12Z" transform="translate(0 -121.96)"/><path class="cls-4" d="M783.15,426.46c-44.62,32-84.21,84.82-87.55,140.89-1.5,25.25,5.24,49.82,17.13,72l4.66-8.12c-44.69,5.61-93.58-12.88-129.38-38.1-11.77-8.29-22.28-15.94-35.25-22.41a270.88,270.88,0,0,0-69.7-23.87c-37.05-7.1-75-5.36-110.91,6.59l6.1,7.93c7.68-17.17,10.75-36.81,12.6-55.35,5-49.89-3.92-100.38-20.19-147.5l-2.48,6.1c16.52-7.74,35.21-13.42,53.15-18.08,40.17-10.42,82.31-14.87,123.64-9.8a232.15,232.15,0,0,1,72.21,20.8c24.64,11.88,46.52,28.93,69.89,43.05,24.36,14.72,51.55,31.61,80,37.15,7.17,1.4,18.41,3.08,23.49-3.86,4.11-5.61-5.25-11-9.32-5.45.76-1,.71-1.09,1.06-1.2-1.55.48.8,0-1.56.59a17.88,17.88,0,0,1-4.47.28,38.52,38.52,0,0,1-7.92-1.1c-30.09-6.58-58.47-24.89-84.2-40.88-22.87-14.21-44.39-30.58-69.18-41.42a246.73,246.73,0,0,0-66.69-18.33c-40.8-5.4-82.49-1.64-122.4,7.92-21.43,5.12-43.11,11.64-63.13,21a5.38,5.38,0,0,0-2.48,6.09c15.79,45.74,24.46,94.28,20,142.72a217.09,217.09,0,0,1-7,38.7c-1,3.48-2,6.93-3.28,10.32a26,26,0,0,0-1.05,2.79c-1.76,3.92,1.19,9.56,6.1,7.93,57.39-19.11,119.54-10.31,173,16.54,13.2,6.64,23.85,14.65,35.92,23a220,220,0,0,0,86.51,36c15.19,2.7,31.52,4.59,46.95,2.65,4-.5,6.77-4.2,4.66-8.12-19.88-37-20.3-78.42-2.21-116.21,12.87-26.9,32.39-50.35,54.53-70.14a182,182,0,0,1,14.23-11.73C794.2,431.77,788.82,422.4,783.15,426.46Z" transform="translate(0 -121.96)"/><path class="cls-3" d="M293.29,867.81S274,889.29,407.15,1024.64c0,0-189,148.23-350.18,150.38-9-10,49.59,17.34-51.56-173.32C-1.56,995.9,164.37,999.22,293.29,867.81Z" transform="translate(0 -121.96)"/><path class="cls-4" d="M289.47,864c-4.56,5.22-2.26,13.91-.32,19.67,8.61,25.48,27.73,48.06,44.49,68.47,21.87,26.63,45.56,51.75,69.69,76.32v-7.63c-.42.33-.69.2-.14.11s-1,.76-1.64,1.25q-3.75,2.83-7.54,5.63-13.29,9.76-27,19a988.24,988.24,0,0,1-92.71,55.91c-39.81,21.06-81.34,39.35-124.67,51.86a384.1,384.1,0,0,1-66,13.43q-7.89.84-15.81,1.26c-1.5.08-7.48-.51-8.45.32,0,0,1.7,2,1.7,2a41.58,41.58,0,0,0-.9,4.69c0,.31-1.08.66.57-.26a19.13,19.13,0,0,0,8.88-10.91c4.78-14.16-.76-31.71-5-45.24-12.57-40.44-32.44-78.88-52.1-116.21-1.81-3.44-2.93-8.93-3.83-1.94,0,0,.12,4.72-1.11,4.1.3.15,2.08-.56,2.47-.63,2.89-.52,5.78-1,8.69-1.42,10.34-1.54,20.67-3.08,30.95-5,79.35-14.67,155.23-47.4,217.32-99.42,10.47-8.76,20.46-18.06,30.06-27.78,4.89-4.94-2.75-12.58-7.64-7.63C225.65,928.57,142.91,969.37,54.3,987c-11.57,2.3-23.22,4.17-34.89,5.89-4.83.72-12.18.55-16.48,3.33-3.18,2.07-3.48,4.82-2.28,8.12,2.07,5.75,6.1,11.5,8.93,17q5.07,9.86,10,19.78c10.1,20.38,19.79,41,27.9,62.31,6.18,16.2,15.8,39.5,12.49,56.14-.73,3.7-1,4.49-3.35,6.39,1.07-.87-.61.26-1.47.9a16.36,16.36,0,0,0-2.56,1.83,7,7,0,0,0,.35,10c5.22,4.86,20.47,1.18,27,.56,11.16-1,22.27-2.65,33.28-4.74,45.7-8.64,89.73-25.22,131.71-45a904.17,904.17,0,0,0,162.59-98.36c1.14-.87,2.28-1.74,3.41-2.63,2.31-1.81,1.85-5.75,0-7.63-33.51-34.12-67.54-69.29-94.42-109-5.78-8.55-11.49-17.48-15.49-27a57.76,57.76,0,0,1-2.65-7.8,12.6,12.6,0,0,1-.7-4.49c-.1-2.83,0-.08.25-2.14,0,.35,0,.37-.85,1.3C301.67,866.42,294.06,858.75,289.47,864Z" transform="translate(0 -121.96)"/><path class="cls-3" d="M300.8,1302.23s144.29,51.1,183.37,108.21c0,0-102.2,36.08-213.43,192.39,0,0-21-66.13-222.44-99.2C48.3,1503.63,162.53,1377.38,300.8,1302.23Z" transform="translate(0 -121.96)"/><path class="cls-4" d="M299.37,1307.43a739.7,739.7,0,0,1,74.79,31.69c20.44,9.9,40.54,20.69,59.5,33.21,16.93,11.19,34.1,24,45.85,40.84l3.22-7.93c-15,5.31-29.13,13.71-42.52,22.07-37.81,23.63-71.84,53.31-102.56,85.5-26,27.25-49.67,56.65-71.57,87.29l9.87,1.29c-3.33-10.3-12.31-19.31-20.08-26.35-26.73-24.21-61.62-39-95.39-50.28-36-12.08-73.3-20.12-110.74-26.34l2.38,9c49-54.07,105.65-102.88,164.69-145.5a821.93,821.93,0,0,1,86.72-55.06c6.1-3.33.66-12.66-5.45-9.32C210,1345.72,130.59,1411.32,60.51,1483c-5.42,5.54-10.82,11.12-16,16.86-2.46,2.72-1.89,8.32,2.38,9,54.74,9.08,111,21.5,160.74,47,19.54,10,41.33,23.36,53.71,41.19A57.53,57.53,0,0,1,265,1603c1.21,2.31.08-.23.55,1.22,1.5,4.66,7.17,5.06,9.87,1.29,51.49-72.06,116.35-144,197-184a119.16,119.16,0,0,1,13.18-5.89c3-1.07,5.36-4.87,3.22-7.93-19.35-27.69-50.48-46.59-79.52-62.61-28.23-15.56-57.74-28.84-87.69-40.72-6.42-2.55-12.87-5.06-19.38-7.37S292.85,1305.12,299.37,1307.43Z" transform="translate(0 -121.96)"/><path class="cls-3" d="M1340.88,887.4s20.59-45.84,69.82-53.68c0,0,48.67-6.15,81.67-106.29,0,0,138.18,171.75,259,44.2,0,0,3.92,102.93-10.63,130.34,0,0-57.61,88.39-43.07,105.73,0,0-143.21,73.84-236.63-17.9S1418.75,943.31,1340.88,887.4Z" transform="translate(0 -121.96)"/><path class="cls-4" d="M1345.54,890.12c12.54-27.54,38.26-44.85,67-51.26,19.32-4.3,35.43-19.77,47.21-34.8,17.45-22.24,28.9-48.54,37.82-75.19l-9,2.38c16.09,19.94,36,37.49,56.63,52.53,36.69,26.76,81.78,46.16,128,38.64,32.17-5.23,59.83-23.83,82-47l-9.22-3.82c1.31,34.85,1.81,71-3.85,105.52-2.1,12.74-5.92,21.67-12.47,32.34-10.15,16.53-19.82,33.47-27.92,51.11-5.62,12.25-18.64,36.72-8.72,49.83L1695,1003c-41.83,21.47-94.15,31.86-140.7,25.8a158.72,158.72,0,0,1-55.11-17.46c-20.41-11-36.15-27.18-52.47-43.33-15.81-15.65-30.92-33-48.19-47.09s-36.89-25.33-54.88-38.22c-5.65-4.06-11,5.3-5.45,9.32,16.6,11.9,35.67,23.36,51.3,35.42,17.33,13.38,32.11,30.9,47.6,46.24,16.38,16.23,32.24,32.83,52.32,44.56a165.94,165.94,0,0,0,54.49,19.81c33.89,6,68.86,2.75,102-5.86,18.57-4.82,37.4-11.07,54.52-19.87,2.38-1.22,3.64-5.14,1.94-7.38-3.43-4.54-1.07-11.9.29-16.8,2.59-9.39,6.58-18.37,10.79-27.12A520.17,520.17,0,0,1,1740.19,913c17.54-28.32,16.48-64.94,17-97.3.22-14.67.17-29.37-.38-44-.17-4.53-5.86-7.31-9.21-3.82-19.64,20.44-43.28,37-71.35,43.08-22.21,4.79-45.18,2.22-66.59-4.87-36.78-12.18-69.16-36.57-96.3-63.74a242.08,242.08,0,0,1-17.14-18.66c-2.73-3.39-7.86-1.09-9,2.38-11.88,35.5-30.1,77.87-64.53,97.3a49.28,49.28,0,0,1-13.31,5.21c3.34-.77-2.94.52-3.89.71-2.86.59-5.69,1.31-8.47,2.18a94.38,94.38,0,0,0-15.35,6.36A100.63,100.63,0,0,0,1358,855.07c-8.6,8.39-16.73,18.59-21.74,29.6C1333.36,891,1342.66,896.45,1345.54,890.12Z" transform="translate(0 -121.96)"/><path class="cls-3" d="M1696.21,545.74s64.69,87.14,0,196.72c0,0,171.63-26.4,149.19,64.7,0,0,89.78-54.13,70-215.21,0,0-26.4-104.3-19.8-187.48,0,0-43.36,1.32-88.35,63.37C1807.22,467.84,1776.74,537.82,1696.21,545.74Z" transform="translate(0 -121.96)"/><path class="cls-4" d="M1691.54,548.47c11.54,15.65,18.77,35.29,23.26,54,11.36,47.42,1,95.54-23.26,137.27-2.57,4.44,1.66,8.61,6.1,7.93,3.21-.49,9.72-1.22,14.86-1.7,12.36-1.14,24.78-1.74,37.19-1.66,26,.18,59.91,1.64,80.37,20.1,12,10.86,13.69,26.17,10.13,41.31-1,4.46,3.77,8.63,7.93,6.1,26.88-16.32,45.93-47.55,57.5-75.74,13.67-33.31,18.62-69.75,18-105.59-.28-14.42-.53-29.58-3.89-43.67-2.7-11.33-5-22.75-7.2-34.2-9.15-48.58-15.21-98.69-11.51-148.15.21-2.84-2.65-5.5-5.4-5.4-29.48,1.11-57.92,25.05-76.49,45.56-18.75,20.71-29.34,46.11-50.8,64.73a131,131,0,0,1-72.07,31c-6.84.74-6.92,11.54,0,10.8,41-4.41,76.91-25,101.67-57.87,5.38-7.14,9.32-14.77,13.85-22.38,11.9-20,32.73-38.47,52.83-49.93,9.07-5.16,21.59-10.74,31-11.09l-5.4-5.4c-3.21,43,1.16,86.35,8,128.78,3.82,23.68,10.94,47.18,13.12,71,5.6,61.2-3.66,128.78-45.2,176.81-7,8.07-14.85,16.19-23.43,21.4l7.94,6.09c17.68-75.22-83-77.77-132.44-73.9-7.82.61-15.65,1.38-23.4,2.57l6.1,7.93c25-43,35.85-92.52,25.25-141.61-4.51-20.85-12.44-43.19-25.25-60.56C1696.79,537.48,1687.41,542.86,1691.54,548.47Z" transform="translate(0 -121.96)"/><path class="cls-3" d="M714.3,1503.76c-36.93,0-75.17,14.51-75.17,14.51-54.07,11.87-79.13-10.55-79.13-10.55,60.66,175.4,374.55,88.36,374.55,88.36,10.55-176.72,101.55-212.33,101.55-212.33-195.19,46.16-203.1-11.87-203.1-11.87s-82.49,4.43-107.23,97.39-69.72,128.5-69.72,128.5" transform="translate(0 -121.96)"/><path class="cls-4" d="M714.3,1498.36c-19.08.21-38,3.43-56.41,8.38-12.2,3.29-23.17,7.58-35.87,8.9-14.87,1.55-30.2.71-44.34-4.44a57.26,57.26,0,0,1-10.76-5.17,36.82,36.82,0,0,1-3.1-2.13c-3.73-3.27-11-.21-9,5.25a150.54,150.54,0,0,0,60.6,77.18c27.93,18.09,60.8,27.64,93.48,32.43,61.57,9,125,3.38,185.9-8.24,13.81-2.63,27.65-5.48,41.21-9.23a5.56,5.56,0,0,0,4-5.21c3.16-50.36,13-102.06,38.37-146.3,12.23-21.3,28.38-41.52,49.13-55.08,2.62-1.71,5.3-3.27,8.06-4.73.91-.49,4.28-1.9,2-1,6.34-2.5,4-12-2.87-10.41-48.18,11.31-100.57,22.59-150.35,16.13-10.69-1.39-21.79-3.78-31.38-8.91-4.83-2.57-10.17-6.8-12.3-10s-2-2.3-2.43-5.29c-.31-2.2-3.07-4.08-5.2-4-28.59,1.64-57.54,17.11-77.25,37.22-21.71,22.15-30.33,49.18-39.18,78.1-9,29.35-21.56,57.86-39.1,83.14-7.17,10.33-15.32,21.11-25.24,29-5.43,4.33,2.25,11.92,7.64,7.64,7.39-5.89,13.62-13.56,19.39-21,15.49-19.9,27.42-42.27,36.93-65.58,12.4-30.35,16.73-63.93,36.37-91a116.22,116.22,0,0,1,50.11-39c9.51-3.86,21.2-7.25,30.33-7.77l-5.21-4c1.22,8.52,9.83,15.78,16.55,20,24.8,15.46,59,14.78,86.93,13,35.85-2.29,71.35-9.15,106.26-17.35l-2.87-10.41c-12.81,5.06-24.24,14.6-34,24.1-26.09,25.55-43.24,59.21-54.22,93.7-10.28,32.27-15.23,66-17.34,99.74l4-5.21c-34.4,9.52-70.31,15.15-105.78,18.57-63.22,6.1-133.84,5.86-191.66-23.87-32.95-16.94-58.09-44.17-70.47-79.29l-9,5.26c14.91,13.09,38.5,16.21,57.42,15.5,13.72-.52,25.93-3.59,38.86-7.51,20.07-6.09,40.82-10.14,61.84-10.37,7-.08,7-10.87,0-10.8Z" transform="translate(0 -121.96)"/><path class="cls-3" d="M905.91,889.48s72.12-62.71,134.83,25.09c0,0,18.81,25.08,72.12,51.73,0,0,72.12-39.19,155.22-29.78,0,0-56.45,11-138-75.26,0,0-78.4,1.57-141.11,0S905.91,889.48,905.91,889.48Z" transform="translate(0 -121.96)"/><path class="cls-4" d="M909.72,893.3c9.42-8.12,24.32-15.13,37.5-18.17,32.94-7.58,62.18,9.11,82.74,34.16,14,17.1,28.73,30.81,47.54,43.08,8.53,5.57,17.38,10.68,26.4,15.41,4.91,2.57,7.76,4.72,12.78,2.61,7.82-3.28,15.33-7.17,23.29-10.21,40.73-15.51,84.61-22.87,128.11-18.27l-1.44-10.6s.93.33-1,.1-4.27.18-6.31.13a94.53,94.53,0,0,1-23.23-4c-32.47-9.34-60.95-30.46-85.27-53.26-4.95-4.63-9.62-9.53-14.44-14.28-2.18-2.14-3.27-3.62-6.34-4.17-2.22-.4-4.89.09-7.15.13q-21.18.35-42.34.48-31.15.19-62.3-.1c-20.68-.23-41.46-1.74-62,1.76-19.34,3.3-43.22,11.63-55.06,28.63-4,5.71,5.38,11.11,9.33,5.45-.79,1.13,1.09-1.32,2-2.2a58.43,58.43,0,0,1,8.13-6.84c11.08-7.68,24.12-12,37.3-14.41,20.78-3.76,42.28-1.77,63.27-1.56,20.61.21,41.23.19,61.84,0q19.92-.15,39.83-.46c1.57,0,5.63-.87,7.15-.13-3.23-1.57,1.4,3.94,1.15,3.53,1.54,2.57,5.09,5.13,7.25,7.22q6.84,6.66,14,13c23.17,20.22,49.62,38.28,79.34,47.2,11.7,3.51,25.41,6.46,37.68,4.15,6.44-1.21,4.15-10-1.43-10.6-52.66-5.58-111.06,5.19-157.94,30.52h5.45c-21.73-11-43.08-23.71-61-40.36a105.37,105.37,0,0,1-9.45-9.8c-.37-.44-.9-1.11.27.38-1.66-2.11-3.17-4.34-4.83-6.46a144.12,144.12,0,0,0-15-16.68c-28.25-26.49-65.74-33.26-100.93-17.1a96.17,96.17,0,0,0-22.52,14C896.82,890.21,904.48,897.82,909.72,893.3Z" transform="translate(0 -121.96)"/></svg>