<svg id="圖層_3" data-name="圖層 3" xmlns="http://www.w3.org/2000/svg" viewBox="0 0 400 426.28"><defs><style>.cls-1,.cls-2{fill:#eee6db;}.cls-2{stroke:#3b3832;stroke-miterlimit:10;stroke-width:0.38px;}.cls-3{fill:#fff;}.cls-4{fill:#060001;opacity:0.4;}.cls-5{fill:#383b3b;}.cls-6{fill:#3e4546;}.cls-7{fill:#569a99;}.cls-8{fill:#5b8985;}.cls-9{fill:#4a7776;}.cls-10{fill:#94b9c4;}.cls-11{fill:#405b5c;}.cls-12{fill:#4f8b94;}.cls-13{fill:#3c3832;}.cls-14{fill:#5195a0;}.cls-15{fill:#5198a3;}.cls-16{fill:#5197a2;}.cls-17{fill:#45686a;}.cls-18{fill:#5296a1;}.cls-19{fill:#487074;}.cls-20{fill:#5397a1;}.cls-21{fill:#487377;}.cls-22{fill:#46787c;}.cls-23{fill:#476d70;}.cls-24{fill:#3c4f4e;}.cls-25{fill:#3d5353;}.cls-26{fill:#446364;}.cls-27{fill:#394544;}.cls-28{fill:#d7ae6e;}.cls-29{fill:#3b3832;}.cls-30{fill:#c97160;}.cls-31{fill:#ac5f51;}.cls-32{fill:#eaeaea;}.cls-33{fill:#231815;}</style></defs><title>組織</title><circle class="cls-1" cx="200" cy="226.28" r="200"/><rect class="cls-2" x="107.81" y="98.88" width="191.04" height="118.46"/><circle class="cls-3" cx="74.95" cy="123.22" r="5.94"/><circle class="cls-3" cx="57.3" cy="135.1" r="5.94"/><circle class="cls-3" cx="47.56" cy="153.93" r="5.94"/><circle class="cls-3" cx="47.56" cy="177.23" r="5.94"/><circle class="cls-3" cx="59.44" cy="194.57" r="5.94"/><circle class="cls-3" cx="78.37" cy="203.55" r="5.94"/><circle class="cls-3" cx="325.58" cy="123.22" r="5.94"/><circle class="cls-3" cx="343.23" cy="135.1" r="5.94"/><circle class="cls-3" cx="352.97" cy="153.93" r="5.94"/><circle class="cls-3" cx="352.97" cy="177.23" r="5.94"/><circle class="cls-3" cx="341.09" cy="194.57" r="5.94"/><circle class="cls-3" cx="322.16" cy="203.55" r="5.94"/><path class="cls-4" d="M1737.2,452.52s14,16.26,12.7,44.91c0,0-12.81,11.65-32.35.42,0,0-16.55-29.19-15.57-46C1702,451.89,1715.88,435,1737.2,452.52Z" transform="translate(-1372.29 -135.99)"/><polygon class="cls-4" points="308.44 402.96 46.06 402.96 50.54 392.43 304.16 392.43 308.44 402.96"/><polygon class="cls-4" points="328.58 312.78 72.28 312.78 81.05 291.96 320.91 291.96 328.58 312.78"/><path class="cls-5" d="M1697.22,249.11q.09-17.62.1-35.27c0-1.27-.2-2.54-.31-3.82l-5.89-5.18-1.11.8h0c-1.46,1.26,1.31,2.08.3,3.34a56,56,0,0,1-7.68.29h-65.57a33.64,33.64,0,0,0-7,.39,17.12,17.12,0,0,1-5.38.46q-62.46,0-124.9,0c-8.25,0-16.48.12-24.75,0-1.15-1.7.76-2,1.36-2.83s2.53-1.62,1-3.29c-.37,0-.87-.07-1.08.13-2.36,2.19-5.09,4-7.19,6.6v4.61q0,66.09,0,132.17a.79.79,0,0,0-.53.18c-2.46,2-3.19,5.51-4.08,8.39a44.53,44.53,0,0,0-2.29,11.34c-.31,7.33,3.21,13.65,6.89,19.71v3a12.35,12.35,0,0,0,1.34,5.56c2.68,5.56,7.15,8.32,12.65,9.21a46,46,0,0,1-13.36,34.48c-4.5,4.58-9.63,8.66-13,14.18-1.89,3-3.21,6.39-4.9,9.54-1.56,2.93-3.52,5.61-5.15,8.5-3,5.3-4.88,12.7-.09,17.62l0,0c.7.65,1.75-.43,1.07-1.14-.17-.17-.32-.34-.47-.52-4-4.78-1.37-11.67,1.48-16.37,1.72-2.86,3.61-5.6,5.12-8.59a83.65,83.65,0,0,1,4.73-9.05c3.58-5.4,8.82-9.38,13.24-14a46.95,46.95,0,0,0,12.91-34.44l1,.08c2.64.16,5.3.22,8,.24,4.45,6.37,13.67,7.07,20.76,7.87,10.36,1.15,21,1.53,31.2-1a28.55,28.55,0,0,0,3.54,1.89l-3.74.05c-3.48,0-7,.2-10.45.16-7-.08-13.94-.27-20.91-.38a10.56,10.56,0,0,0-5,.85c-1.22,3.55-2.86,7-3.59,10.86l-.06.14c-.23.66.14,1,.76,1.21h0l.12-.07c1.69-1,1.8-2.83,2.42-4.39.84-2.1,1.28-4.43,3.39-5.76a4.1,4.1,0,0,1,1.85-.48c14.27,0,28.53,0,42.8,0h0a31.72,31.72,0,0,0,8.65,0,3.23,3.23,0,0,1,2.73,1.16,2.68,2.68,0,0,1,.4,1.07c.25,7.17,2.64,7.22,8.7,7.21,9.3,0,18.61,0,27.91,0,6.9,0,7.49-.53,8.94-7.33a4.64,4.64,0,0,1,.74-1.66q30.14-.46,60.27-.21h.09l.37-.12a1.36,1.36,0,0,0,.83-2.07h0c-.36-.08-.58-.39-.86-.59-3.35-.1-6.7-.3-10-.3-5,0-10,.13-15.06.14q-17.84.06-35.66,0a20.14,20.14,0,0,1-2.33-.25v-8c1.1-.06,2.11-.17,3.12-.17,5.4,0,10.81.16,16.22.16a.54.54,0,0,0,.15.15c6.25,3.92,13.21,8.14,20.91,7.26a41.27,41.27,0,0,0,10-3,27.7,27.7,0,0,0,7.93-4.52q14,0,28-.06a17.12,17.12,0,0,0,9.16-2.54,30.92,30.92,0,0,0,6.52-5.44,9.22,9.22,0,0,0,2.51-6.67q-.07-48.63,0-97.29C1697,278.57,1697.15,263.84,1697.22,249.11ZM1449.13,384.05c-2.93-5-5.47-10.24-5.34-16.19a39.29,39.29,0,0,1,2-10.46c.79-2.62,1.44-6,3.4-8.09Q1449.13,366.68,1449.13,384.05Zm199.53-48.14H1498.44v-92h150.22Zm-134.72,76.55a104.48,104.48,0,0,1-15.92-.39,90.83,90.83,0,0,1-13.25-1.84c-3.39-.83-6.77-2.22-9.07-4.82h6.66q17.78,0,35.54,0h.13a29.63,29.63,0,0,0,5.82,5.7A63.52,63.52,0,0,1,1513.94,412.46Zm6.07-7.07,18.59-.1a47.26,47.26,0,0,1-12.76,5.3A27.15,27.15,0,0,1,1520,405.39Zm7.72,6.33a46.69,46.69,0,0,0,13.71-6.41l0,0,5.79,0c1,0,2,.15,3,.23,0,1.54.06,2.83,0,4.12s.29,2.7-.4,4.17l-.49.15h-1.89l-13.92.19A26.76,26.76,0,0,1,1527.73,411.72Zm114.32-3.26c-3.07,1.17-6.4,2.53-9.7,2.83-6.47.58-12.34-2.58-17.71-5.89l33.6-.11A28.7,28.7,0,0,1,1642.05,408.46Z" transform="translate(-1372.29 -135.99)"/><path class="cls-5" d="M1656.39,414.36v0h0Z" transform="translate(-1372.29 -135.99)"/><path class="cls-6" d="M1666.79,468.74a26,26,0,0,1,1.1,2.6c1,3.21,1.94,6.42,2.84,9.66q5.14,18.45,10.25,36.92a7.46,7.46,0,0,1,.1,1,12.06,12.06,0,0,1-.64,1.6c-1.35,2.48-2.75,4.94-4.23,7.58-1,.1-2,.28-3,.28-5.56,0-11.12,0-16.68,0H1423c-2.63-2.39-4.26-5.49-6.11-8.41-.81-1.29-.46-2.69,0-4.09,2-5.44,3.91-10.92,5.89-16.37q4.77-13.1,9.56-26.17c.48-1.32.89-2.66,1.37-4.11a15.47,15.47,0,0,1,2.24-.43c1.41-.08,2.84-.05,4.26-.05h226.5Z" transform="translate(-1372.29 -135.99)"/><path class="cls-7" d="M1690,205.64c-.12.68.47.78.84,1.1,1.16,1,2.26,2,3.29,3-.07.34-.06.49-.12.54a.63.63,0,0,1-.36.1l-83.08.17c-1.38.54-2.82.27-4.23.27q-63.42,0-126.83,0c-7.87,0-15.74,0-23.61,0-1.25,0-2.59.44-3.74-.45,1.61-1.57,3.2-3.16,4.83-4.71a1.39,1.39,0,0,0,.43-1.68l2.39-.76c15.62-.26,31.25,0,46.87-.13,57.84-.56,115.69-.34,173.54-.36,1.92,0,3.88-.34,5.74.49C1687.76,203.26,1688.79,204.59,1690,205.64Z" transform="translate(-1372.29 -135.99)"/><path class="cls-5" d="M1485.43,425.71l.77,1.17c1.25,2.12-.79,4.28.11,6.5,2,1.28,4.2.79,6.35.79q80.46,0,160.93,0a44.87,44.87,0,0,1,7,.22c.6-.17.88,1,1.48.46.37-.3-.1.28-.27-.22-2.86-5-4.39-10.56-6.64-15.81a2.35,2.35,0,0,1,.42-2.83c.9-.24.7-1,.85-1.66.58,1.27,1.25,2.5,1.74,3.79,2.17,5.67,4.29,11.35,6.4,17a10.15,10.15,0,0,1,.33,1.63c-1.73,2.95-3.4,6-5.93,8.35H1486.68c-2.54-2.58-3.11-6.15-4.68-9.07.65-2.29,1.19-4.41,1.86-6.49C1484.29,428.28,1484.9,427,1485.43,425.71Z" transform="translate(-1372.29 -135.99)"/><path class="cls-5" d="M1686,203.19c-1.79.12-3.57.36-5.35.36l-140.43,0c-22.86,1-45.74.35-68.61.56-2.59,0-5.18-.14-7.76,0a10,10,0,0,1-4-.94c-.48.35-.59-.06-.26-.21a16.12,16.12,0,0,1,2.9-.86,7.28,7.28,0,0,1,1.55,0q41.64.07,83.29.15,53.26.06,106.53.07c9.43,0,18.86-.06,28.28-.08,1.41,0,2.85-.12,4.12.72.07.05.1.18.15.28Z" transform="translate(-1372.29 -135.99)"/><path class="cls-5" d="M1732.31,499.68c-4.47,1.53-8.91.39-13.35-.17a26.24,26.24,0,0,1-2.63-.58,12,12,0,0,1-7.93-5.68,44.28,44.28,0,0,1-2.18-4.08,118.94,118.94,0,0,1-8.23-22.83c-1.22-5.27-2.75-10.45-3.43-15.83a7,7,0,0,1,1.34-5.76.82.82,0,0,1,1.11.1,65.68,65.68,0,0,1,13.52,24.47c2,6.79,2.22,13.71,2.12,20.63-.05,3.33,1,5,4,6,5.07,1.73,10.32,1.8,15.57,2A1.13,1.13,0,0,1,1732.31,499.68Z" transform="translate(-1372.29 -135.99)"/><path class="cls-5" d="M1697.14,444.94l-1.24-.19c.57-1.81,2.2-2.46,3.68-3.14,5.52-2.52,11.31-3.65,17.27-2.24a19.2,19.2,0,0,1,9.21,4.6c1.76,1.7,3.48,3.44,5.22,5.17A21.8,21.8,0,0,1,1735,455c1.52,3,3,5.95,4.41,9a22,22,0,0,1,1.84,9,39.63,39.63,0,0,0,.39,5c.56,4.12,0,8.22,0,12.33a38.34,38.34,0,0,1-.61,4.48c-2.62,2.4-5.09,4.61-8.68,4.9v-1.26c7.66-3.95,7.13-11,6.77-18-.47-9.21-1.75-18.11-7.1-26.07-4.36-6.49-9.66-11.29-18.11-12.58,1.49,1.79,4.35,2.05,4,4.78-.36.68-1.06.6-2,.73,1.41,2.78,3.14,5.31,3.6,8.51.86-.8.69-2.49,2.3-1.66a4.84,4.84,0,0,1,1.07,2.85c.09,1.68-.41,3.16-2.13,3.72a2.69,2.69,0,0,1-3.62-2c-1.13-4.6-4-8.3-5.92-12.51-1.72-3.85-3.12-4.55-7.24-3.64C1701.56,443.08,1699.77,445.2,1697.14,444.94Z" transform="translate(-1372.29 -135.99)"/><path class="cls-6" d="M1656.41,414.39l-.89-.6C1656,413.68,1656.34,413.85,1656.41,414.39Z" transform="translate(-1372.29 -135.99)"/><path class="cls-8" d="M1658.58,212.09c1-.05,2.06-.13,3.09-.14l29.86-.06h3.11a11.85,11.85,0,0,1,.64,5.07c0,7.36,0,14.73,0,22.09,0,18,.16,35.93.13,53.89-.05,27.14-.21,54.28-.31,81.42,0,5.17,0,10.34,0,15.51v2.92c-2.49,4.4-6.21,7.07-10.41,9.2a10.51,10.51,0,0,1-4.86,1q-47.11-.06-94.23-.06h-84.54c-1,0-2.06-.08-3.09-.12-.42-1.79.79-3,1.78-4.06,6.62-7.23,12.72-14.91,19.41-22.09a5.3,5.3,0,0,1,2.82-1.93,38.73,38.73,0,0,1,7-.28c51.17.06,102.34-.14,153.51.1a10.41,10.41,0,0,0,3.34-.38c.27-50.25.28-100.48.26-151.07-11.36-1.32-22,.15-32.45-.91-2.19-.78-2.24-2.4-1.1-3.92C1654.25,216,1655.73,213.33,1658.58,212.09Z" transform="translate(-1372.29 -135.99)"/><path class="cls-8" d="M1462.31,402.8c-1.54.17-2.71-.74-3.9-1.46a20.87,20.87,0,0,1-5.82-5.61,7.44,7.44,0,0,1-1.37-4.73c.06-4.65,0-9.3,0-13.95,0-21.7.33-43.41-.14-65.1-.32-15-.65-29.95-.21-44.9.43-14.71.11-29.41.36-44.12.06-3.22,0-6.44,0-9.89,1.16-.09,2.16-.23,3.15-.23q39.34-.09,78.68-.14c10,0,19.91.28,29.84-.19,16-.77,32-.2,48-.46.9,0,1.81.07,2.71.11-1.77,4.43-5.1,7.32-9.28,9.37a42.86,42.86,0,0,1-7,.26c-44.06,0-88.13.07-132.2,0a5,5,0,0,0-4,1.3V374c8.17,1,15.91-.08,23.56.69.71.24,1.52.36,1.82,1.39-.51,2.31-2.37,3.88-3.9,5.51q-9.4,10-18.68,20.15A9,9,0,0,1,1462.31,402.8Z" transform="translate(-1372.29 -135.99)"/><path class="cls-7" d="M1655.54,416c.06,2.12,1.08,3.94,1.82,5.84q2.67,6.81,5.31,13.63l-.12.1c-3.74,0-7.49-.12-11.23-.12l-156.57,0h-10.36c-.88-1.86.29-3.19.57-4.62a34.47,34.47,0,0,1,1.24-4q2-5.43,4-10.85a4.26,4.26,0,0,1,2.63-.37q27.42,0,54.86,0a4.8,4.8,0,0,1,2.28.28c.08,1.92.12,3.85.25,5.78a23.29,23.29,0,0,0,.48,2.71h37c.65,0,1.3,0,1.94,0,1.76-.11,2.63-.87,2.73-2.6.11-2,.08-4.09.11-6.06,1.38-.79,2.7-.47,4-.47q26.34,0,52.68,0c1.42,0,2.85-.08,4.26,0A10.08,10.08,0,0,1,1655.54,416Z" transform="translate(-1372.29 -135.99)"/><path class="cls-9" d="M1552.36,422.29c-.09-.93-.19-1.42-.19-1.92,0-4.89,0-9.78,0-14.85a19.42,19.42,0,0,1,2.37-.3q16.67,0,33.31,0c.75,0,1.5.06,2.2.09a92.24,92.24,0,0,1,.07,16.7,4.1,4.1,0,0,1-1,.28Z" transform="translate(-1372.29 -135.99)"/><path class="cls-10" d="M1462.31,402.8a31.65,31.65,0,0,1,5.06-6.24c2.41-2.5,4.62-5.17,7-7.69s4.78-4.72,7.07-7.17c1.74-1.87,3.31-3.9,5-5.86.87-1.18,2.19-1.27,3.45-1.27,4.85,0,9.7-.36,14.53.22,1.77.47,1.82,1.51.95,2.88a33.14,33.14,0,0,1-3.87,4.81c-5.87,6.15-12.39,11.67-17.71,18.35a9.6,9.6,0,0,1-2.85,2c-4.18.08-8.36.19-12.54.22C1466.35,403,1464.33,402.87,1462.31,402.8Z" transform="translate(-1372.29 -135.99)"/><path class="cls-10" d="M1520.47,375.84c.13.88-.43,1.41-1,2-3,3.2-6.17,6.22-8.75,9.71-2,2.69-4.78,4.67-6.37,7.66a6.27,6.27,0,0,1-1.33,1.4,27.84,27.84,0,0,0-5.08,6.21h-10.83a1.81,1.81,0,0,1,.55-2.09c7.43-8,13.66-17.05,21.32-24.86a3.88,3.88,0,0,1,1.63-1C1514,374.73,1517.39,373.55,1520.47,375.84Z" transform="translate(-1372.29 -135.99)"/><path class="cls-10" d="M1658.58,212.09l-6.13,7.64c0,.22-.06.73-.11,1.24-.69,1.38-2,1.41-3.28,1.43-4.42.06-8.85.35-13.26-.19-2.64-.8-2.54-2.46-1.29-4.38a22.65,22.65,0,0,1,5.5-5.72Z" transform="translate(-1372.29 -135.99)"/><path class="cls-10" d="M1605.79,220.65c.79-1,1.55-1.93,2.39-2.83,1.79-1.92,3.62-3.8,5.44-5.69h18.55c-1.75,4.36-5,7.43-8.78,10A56.34,56.34,0,0,1,1605.79,220.65Z" transform="translate(-1372.29 -135.99)"/><path class="cls-8" d="M1509.68,375.87c0,1-.72,1.58-1.33,2.25-2.68,2.93-5.43,5.8-8,8.84-2.87,3.41-5.52,7-8.3,10.48-.64.8-1.46,1.46-2.15,2.22-1,1-1.85,2.11-2.77,3.16l-6.25,0a97,97,0,0,1,7.86-9c2.73-2.57,5.32-5.28,8-7.94,3.18-3.18,6.48-6.26,9-10A2.47,2.47,0,0,1,1509.68,375.87Z" transform="translate(-1372.29 -135.99)"/><path class="cls-8" d="M1624.42,221c1.29-1.56,2.56-3.14,3.89-4.67s2.57-2.81,3.86-4.2l7.84,0c.07,1-.63,1.58-1.22,2.24-1.67,1.85-3.29,3.74-4.89,5.58l.68,1.18C1631.17,223.21,1627.78,223.35,1624.42,221Z" transform="translate(-1372.29 -135.99)"/><path class="cls-7" d="M1479.48,210.49a2.27,2.27,0,0,1-.19.61h-26.9l-.23-.76Z" transform="translate(-1372.29 -135.99)"/><path class="cls-7" d="M1418.1,517.58c5.84-15.86,11.52-31.29,17.2-46.7,5.93.26,11.83.09,17.73.09l17.45,0,17.83,0h35.29l17.84.05,17.45,0h106.39c2,5.09,3.08,10.38,4.78,15.47s2.91,10.12,4.34,15.19l4.4,15.51c-.39.18-.62.39-.84.39Z" transform="translate(-1372.29 -135.99)"/><path class="cls-8" d="M1678.89,519.9c-1.38,2.43-2.46,4.31-3.57,6.25H1423.14l-4.36-6.64a12.57,12.57,0,0,1,5.18,0,6,6,0,0,0,3.77-.06,1.63,1.63,0,0,1,.76-.09c5.9.79,11.79-.32,17.71-.08s11.88,0,17.83,0h17.83l160.52,0c4.13,0,8.27,0,12.4,0,3.34.05,6.69-.25,10,.49a21.72,21.72,0,0,0,4.64.1Z" transform="translate(-1372.29 -135.99)"/><path class="cls-8" d="M1661.85,437.69l-4,5.46H1487.6c-.89-1.57-2.17-3-2-5.14a5.31,5.31,0,0,1,1.18-.31Z" transform="translate(-1372.29 -135.99)"/><path class="cls-11" d="M1662.67,435.49a.78.78,0,0,1,.32.14c0,.06,0,.2,0,.3l-.44-.34Z" transform="translate(-1372.29 -135.99)"/><path class="cls-7" d="M1717.64,447.05c.06-1.95-1.35-2.66-2.85-3.08s-2.43-1.64-3.43-3.13a19.94,19.94,0,0,1,14.46,4.92,27.53,27.53,0,0,1,6,6.5c3.23,5.11,6.11,10.39,7.39,16.38a7.23,7.23,0,0,1,.1,1.15,180.46,180.46,0,0,1,.79,20.8,6.24,6.24,0,0,1-2.68,5.26,12.34,12.34,0,0,1-5.12,2.57,20.23,20.23,0,0,1-8.73.08c-2.48-.56-5-.66-7.51-1.51a11.22,11.22,0,0,1-4.69-2.91,9.87,9.87,0,0,1,0-1.8c.8-4.23,0-8.45-.13-12.67a43.66,43.66,0,0,0-1.88-10.19A63.83,63.83,0,0,0,1701.3,452a59.23,59.23,0,0,0-4.67-5.76c.15-.38.33-.86.51-1.33,3.21-2.82,7.08-3.85,11.48-4.3l3.46,4.15v1.85c1.08,2.15,3.24,3.73,4.17,6.21s1,5,2.52,7.32l2,.11L1722,458c-.23-1.37-.45-2.61-.66-3.86a11.44,11.44,0,0,1-1.5-1.76,12.87,12.87,0,0,1-.84-1.55q-.19-.36-.36-.75c-.17-.37-.33-.75-.52-1.11a5.53,5.53,0,0,1-.35-.74,3.19,3.19,0,0,1-.19-.81Z" transform="translate(-1372.29 -135.99)"/><path class="cls-8" d="M1696.81,449.61c2.58,2.06,5.93,6.63,7.84,11.33,4.1,10.15,5.79,17,5,29.56a6.79,6.79,0,0,1-1.28-1.4,123.31,123.31,0,0,1-8.58-23.79q-1.35-6-2.77-11.94A7.69,7.69,0,0,1,1696.81,449.61Z" transform="translate(-1372.29 -135.99)"/><path class="cls-12" d="M1720.34,451.71a2.33,2.33,0,0,1,1,2.47c-.59.16-.67.61-.74,1.15-.14,1.07.35,2.26-.53,3.25a9.7,9.7,0,0,1-1.63-3.18,27.31,27.31,0,0,0-1-3.26,23.46,23.46,0,0,0-1.82-3.34c-.61-.94-1.36-1.77-2.32-3,1-.11,1.66-.38,2.12-.19a13.25,13.25,0,0,1,2.18,1.44l0,0c.41.46.29,1.19.81,1.59l0,0c.42.46.29,1.19.81,1.59l0,0C1719.57,450.64,1719.46,451.54,1720.34,451.71Z" transform="translate(-1372.29 -135.99)"/><path class="cls-13" d="M1687.22,226.92a23.69,23.69,0,0,0-.09-3.48,8,8,0,0,0-1-2.12h-4.74c-8.4,0-16.8-.06-25.2-.11-1.28,0-2.57-.15-3.84-.23H1652l-17.41.13h-.6l-9-.09h-.57c-1.14.05-2.28.18-3.42.15-5-.15-10-.33-15.06-.51h-.15l-128-.12c-4.52,0-9,.05-13.57.06-1.44,0-2.84,0-4.06,1.47-.05,2.5-.14,5.21-.14,7.91V370a23.73,23.73,0,0,0,.17,3.48,9.54,9.54,0,0,0,.9,2.11c2,0,3.75.11,5.55.13l19.77.15h23.28l10.3,0h.48c.65,0,1.29-.11,1.94-.11q77.32,0,154.67,0c2.68,0,5.4-.32,8.08.42.58.16,1.35-.4,2.13-.66V365.29Zm-38.56,17v92H1498.44v-92Z" transform="translate(-1372.29 -135.99)"/><path class="cls-7" d="M1476.25,513c.36-1.61.71-3.22,1.11-5.06,1.09-.78,2.56-.32,3.92-.32q36.45,0,72.91,0h12.46c.72,1.91.27,3.72.37,5.47a5,5,0,0,1-2.65.32h-85.11C1478.25,513.37,1477.19,513.63,1476.25,513Z" transform="translate(-1372.29 -135.99)"/><path class="cls-14" d="M1462.29,487.38c.6-1.93,1.19-3.86,1.78-5.77,2.76-.51,20.23-.63,25.32-.15l-.32,2.07c-1.67.92-.13,2.79-1.15,3.9l0,0c-4.6,1-9.33-.3-13.93.73l-.83.05C1469.62,487,1465.86,488.53,1462.29,487.38Z" transform="translate(-1372.29 -135.99)"/><path class="cls-15" d="M1627.66,475h32.5c1.15,1,.63,2.09.81,3.05-.76.91-1.82.84-2.84.84-9,0-17.94,0-26.92,0C1628.51,478.87,1627,477.94,1627.66,475Z" transform="translate(-1372.29 -135.99)"/><path class="cls-16" d="M1429.05,504.61c-.2-1.82,1.08-3.05,1.88-4.73,2.07-.14,4.25-.05,6.41-.06s4.12,0,6.18,0,4.37.08,6.55.12c.62,1.78-.28,3.2-1.18,4.92C1442.32,504.71,1435.69,505.12,1429.05,504.61Z" transform="translate(-1372.29 -135.99)"/><path class="cls-15" d="M1568.58,487.28c0-1.9.08-3.79.11-5.77,5.17-1,10,.25,15.07.66.65,1.52.38,3.15.2,4.76,0,.17-.37.31-.56.46A50.42,50.42,0,0,1,1568.58,487.28Z" transform="translate(-1372.29 -135.99)"/><path class="cls-16" d="M1432,496.61c.6-2.05,1-4.2,2.61-6a57,57,0,0,1,6.81-.14c2.3,0,4.61,0,6.92,0-.9,6.39-1.1,6.66-7.27,6.53C1438.07,497,1435,497.69,1432,496.61Z" transform="translate(-1372.29 -135.99)"/><path class="cls-14" d="M1571.73,503.72v-3.37c2.7-.66,16-.82,22.17-.29a6.94,6.94,0,0,1,.11,4c0,.18-.39.28-.59.41-5.32-.88-10.68-.13-16-.4C1575.52,504,1573.59,504.45,1571.73,503.72Z" transform="translate(-1372.29 -135.99)"/><path class="cls-7" d="M1569.36,513.78c-.24-.27-.69-.53-.7-.8-.07-1.64,0-3.29,0-4.87,2.72-.65,8.7-.76,13.71-.26a17.72,17.72,0,0,1,0,6.29c0,.16-.4.26-.61.39C1577.66,513.45,1573.44,514.87,1569.36,513.78Z" transform="translate(-1372.29 -135.99)"/><path class="cls-15" d="M1577.91,491.32c.14-.21.27-.58.42-.59,1.66-.09,3.47-.56,5-.06a20.64,20.64,0,0,0,6.07.6c1.41,0,2.83,0,4.41,0,.52,1.63,1,3.14-.2,4.64-5.15.87-10.3.19-15.61.37A7.32,7.32,0,0,1,1577.91,491.32Z" transform="translate(-1372.29 -135.99)"/><path class="cls-7" d="M1448.33,487.4l-.57.05c-1-2.39.3-4.27,1.31-6.22l1.51,1.25c.26.1.07-.75.64-1.16,3.29-.24,6.84-.12,10.4-.06.72,2-.62,3.6-.87,5.4l0,0c-1.14,1.8-3,1.15-4.52,1.12C1453.62,487.69,1450.94,488.22,1448.33,487.4Z" transform="translate(-1372.29 -135.99)"/><path class="cls-15" d="M1562.59,496.62a1,1,0,0,1-1-1c-.3-1.73.57-3.18,1-4.74a53.46,53.46,0,0,1,12.64-.16c.62,1.65.15,3.44.3,5.17C1571.3,497,1566.89,495.72,1562.59,496.62Z" transform="translate(-1372.29 -135.99)"/><path class="cls-15" d="M1554.71,487.51c.29-2,.59-3.93.92-6.1a84.73,84.73,0,0,1,11.18-.12c.09,1.11.19,2.08.23,3s0,2,0,3.06h-.4l-.38,0A42.7,42.7,0,0,1,1554.71,487.51Z" transform="translate(-1372.29 -135.99)"/><path class="cls-7" d="M1449.82,495.93c-.21-.28-.66-.64-.6-.82.54-1.52,1.17-3,1.8-4.58h12.86c-.54,5.86-.88,6.25-6.62,6.14C1454.78,496.62,1452.17,497.39,1449.82,495.93Z" transform="translate(-1372.29 -135.99)"/><path class="cls-17" d="M1476.25,513l83.4,0c2.46,0,4.91,0,7.37,0-.26.26-.48.68-.77.73a16.17,16.17,0,0,1-2.31.06h-84.69a13.58,13.58,0,0,1-2.3-.1C1476.68,513.71,1476.48,513.25,1476.25,513Z" transform="translate(-1372.29 -135.99)"/><path class="cls-16" d="M1633.62,507.7h12.11a16.49,16.49,0,0,1,1.23,3.71c.08.65,0,1.29-.7,1.58-3.81.84-7.64.16-11.53.42A11.9,11.9,0,0,1,1633.62,507.7Z" transform="translate(-1372.29 -135.99)"/><path class="cls-18" d="M1449.89,513.78c-.07-2.25,1-4.1,1.93-6.23h10.44c-.22,5.85-1,6.64-6.72,6.58C1453.66,514.11,1451.73,514.57,1449.89,513.78Z" transform="translate(-1372.29 -135.99)"/><path class="cls-16" d="M1435.89,487.32c.28-1.21.5-2.43.86-3.61a19.07,19.07,0,0,1,1-2.36h9.94c.8,4.8-.71,6.87-5.23,6.78C1440.3,488.08,1437.93,488.93,1435.89,487.32Z" transform="translate(-1372.29 -135.99)"/><path class="cls-18" d="M1464.72,496.06l1.85-5.47c1.73,0,3.48-.07,5.23-.08s3.54,0,5.3.1c.26,0,.49.48.74.74,1,1.77,0,3.18-.85,4.95C1472.92,496.22,1468.82,496.57,1464.72,496.06Z" transform="translate(-1372.29 -135.99)"/><path class="cls-18" d="M1464.72,514.51l-1.33-.09c-.08-.45-.34-1-.22-1.38.56-1.79,1.23-3.55,1.9-5.43h9.7c.46,2.25-.73,4.11-1.19,6.11C1470.52,514.74,1467.52,513.57,1464.72,514.51Z" transform="translate(-1372.29 -135.99)"/><path class="cls-15" d="M1493.3,499.84l1.55,1.31c.31.14-.12-1,.42-1.07a93.45,93.45,0,0,1,12.19-.14c.48,1.59,0,3-.88,4.75a96.28,96.28,0,0,1-13.26-.06A3.57,3.57,0,0,1,1493.3,499.84Z" transform="translate(-1372.29 -135.99)"/><path class="cls-7" d="M1504.08,490.58h11.23a3.81,3.81,0,0,1,.24,3.63c-.19.6-.36,1.2-.54,1.81a15,15,0,0,1-10-.07c0-.65.06-1.34-.79-1.57A2.77,2.77,0,0,1,1504.08,490.58Z" transform="translate(-1372.29 -135.99)"/><path class="cls-19" d="M1627.66,475l1,2.84c3.36.41,22.88.53,32.32.21.48.28.79.63.48,1.23-2.86.54-24.73.69-33.73.23-1-1.45-1.94-3-1.5-4.94A1,1,0,0,1,1627.66,475Z" transform="translate(-1372.29 -135.99)"/><path class="cls-7" d="M1512,487.35c.33-1.86.66-3.72,1-5.81,2.73-.73,5.63-.2,8.67-.28a12.58,12.58,0,0,1,.21,5.68c0,.18-.37.31-.56.46A22.21,22.21,0,0,1,1512,487.35Z" transform="translate(-1372.29 -135.99)"/><path class="cls-16" d="M1659.17,507.73c3.55-.3,7.09-.09,10.6-.16.7,1.87,1.51,3.45,1.29,5.28-3.56,1.17-7.17.23-10.76.54C1659.42,511.41,1658.75,509.68,1659.17,507.73Z" transform="translate(-1372.29 -135.99)"/><path class="cls-15" d="M1550,495.84c0-1.64.07-3.29.1-4.87a33.76,33.76,0,0,1,10.62-.1,22.2,22.2,0,0,1,.06,5.22C1557.14,496.31,1553.53,496.75,1550,495.84Z" transform="translate(-1372.29 -135.99)"/><path class="cls-15" d="M1527.5,496a24.67,24.67,0,0,1,0-3.44,6.78,6.78,0,0,1,.94-1.91h9.46a9.11,9.11,0,0,1,.23,4.85c0,.18-.35.31-.54.47A29.21,29.21,0,0,1,1527.5,496Z" transform="translate(-1372.29 -135.99)"/><path class="cls-7" d="M1523.59,487.34a10.72,10.72,0,0,1,1.28-6h7.72a12.9,12.9,0,0,1,.11,5.63c0,.17-.38.29-.58.44A19,19,0,0,1,1523.59,487.34Z" transform="translate(-1372.29 -135.99)"/><path class="cls-7" d="M1479.44,495.26c.37-1.32.74-2.64,1.1-3.89a2.63,2.63,0,0,1,2.46-.87c3.19,0,6.39,0,9.58,0a10.36,10.36,0,0,1-1,5.17C1487.61,495.83,1483.52,496.59,1479.44,495.26Z" transform="translate(-1372.29 -135.99)"/><path class="cls-20" d="M1466.28,504.59c.31-1.47.61-2.94,1-4.59a31.65,31.65,0,0,1,5.75-.17c1.93,0,3.87.09,5.8.14.92,1.8,0,3.19-1.17,4.88C1473.94,504.72,1470.12,505.13,1466.28,504.59Z" transform="translate(-1372.29 -135.99)"/><path class="cls-7" d="M1656.22,491.33c2.49-.33,4.93-1.17,7.5-.8.24,0,.48.13.8.21,2,1.46,1.89,3.66,1.88,5.83-2.85,1.1-5.75.36-8.56.36A8.67,8.67,0,0,1,1656.22,491.33Z" transform="translate(-1372.29 -135.99)"/><path class="cls-16" d="M1501.07,487.25c.14-2-.4-4.09,1.44-6,2.51-.06,5.27-.1,8,.06a10.91,10.91,0,0,1-1,6.35C1506.71,487.59,1503.87,488.38,1501.07,487.25Z" transform="translate(-1372.29 -135.99)"/><path class="cls-7" d="M1437.45,512.92a8.56,8.56,0,0,1,1.87-5.28h9.11c.26,4.84-.78,6.16-5.16,6.1C1441.32,513.71,1439.21,514.4,1437.45,512.92Z" transform="translate(-1372.29 -135.99)"/><path class="cls-15" d="M1425.83,513.77c0-2.2,1-4.06,2-6.17,2.75,0,5.5-.09,8.26,0,.35,2.28-1,4.09-1.57,6.31C1431.53,514.13,1428.68,514.54,1425.83,513.77Z" transform="translate(-1372.29 -135.99)"/><path class="cls-18" d="M1489.51,487.48c-.13-2.23.92-4.1,1.87-6.19a51.11,51.11,0,0,1,6.43,0c.36,0,.69.6,1,.92,1.08,1.84.17,3.43-.55,5.21A24.23,24.23,0,0,1,1489.51,487.48Z" transform="translate(-1372.29 -135.99)"/><path class="cls-15" d="M1534.5,487.46c0-2.11-.53-4.35,1.31-6.12h7a34.15,34.15,0,0,1,.18,6.12A23.64,23.64,0,0,1,1534.5,487.46Z" transform="translate(-1372.29 -135.99)"/><path class="cls-15" d="M1544.55,487.4c0-2-.36-4.07,1-5.81a1.76,1.76,0,0,1,.35-.25h6.94c.08,1.09.17,2.06.21,3s0,2,0,3A20.78,20.78,0,0,1,1544.55,487.4Z" transform="translate(-1372.29 -135.99)"/><path class="cls-15" d="M1516.63,496c-.24-1.84.43-3.48,1.24-5.38,2.66-.12,5.45-.08,8.12,0a1.92,1.92,0,0,1,.53,2.53,7.77,7.77,0,0,0-.67,3A28.24,28.24,0,0,1,1516.63,496Z" transform="translate(-1372.29 -135.99)"/><path class="cls-16" d="M1584.86,507.61h8.93c.78,1.84.26,3.65.43,5.39-3.1,1.53-6.22.56-9.29.57C1583.92,511.26,1583.82,509.43,1584.86,507.61Z" transform="translate(-1372.29 -135.99)"/><path class="cls-18" d="M1654,482.65c.42-.23.83-.64,1.25-.65,2.19-.07,4.38,0,6.68,0a7,7,0,0,1,2.16,5.41,23.23,23.23,0,0,1-9.36,0l0,0c-.43-.45-.3-1.19-.81-1.6l0,.05A3.28,3.28,0,0,1,1654,482.65Z" transform="translate(-1372.29 -135.99)"/><path class="cls-15" d="M1539.19,496v-4.1a2.17,2.17,0,0,1,2.12-1.43c1.65,0,3.31-.08,5,0a7.68,7.68,0,0,1,2.08.85v4.66A33,33,0,0,1,1539.19,496Z" transform="translate(-1372.29 -135.99)"/><path class="cls-7" d="M1508.28,501.33c1.14.21,1.28-1,2.25-1.5,3.29,0,6.8,0,10.4,0a9.85,9.85,0,0,1,.29,3.91,23.13,23.13,0,0,1-12.3,0c-.09-.61.07-1.32-.73-1.6C1507.78,501.84,1507.82,501.56,1508.28,501.33Z" transform="translate(-1372.29 -135.99)"/><path class="cls-16" d="M1607.32,507.63c2.53,0,5,0,7.57,0,.22,0,.44.18.91.39a28.26,28.26,0,0,1,.08,5.06c-2.73,1.33-5.49.53-8.33.44A10,10,0,0,1,1607.32,507.63Z" transform="translate(-1372.29 -135.99)"/><path class="cls-16" d="M1494.09,495.83c.12-1.74-.4-3.62,1.78-5.3,2.15,0,4.92-.07,7.7.06.3,1.84-.4,3.52-.8,5.48C1499.82,496.26,1497,496.81,1494.09,495.83Z" transform="translate(-1372.29 -135.99)"/><path class="cls-16" d="M1452.2,503.66a5.16,5.16,0,0,1,1.25-3.7,34.77,34.77,0,0,1,5.53-.13c1.91,0,3.82,0,5.73.05.49,1.49-.15,2.73-1,4.33C1460,504.35,1456.05,505.19,1452.2,503.66Z" transform="translate(-1372.29 -135.99)"/><path class="cls-7" d="M1619.76,491.47c.23-.29.46-.81.7-.82,2.06-.09,4.13-.15,6.18-.06.54,0,1.06.59,1.71,1,0,1.23.05,2.38,0,3.53,0,.29-.45.55-.69.83-1.45.77-3,.36-4.53.35C1619.53,496.28,1619,495.45,1619.76,491.47Z" transform="translate(-1372.29 -135.99)"/><path class="cls-16" d="M1599.65,491.22c.07-.11.12-.29.21-.32a15.56,15.56,0,0,1,7.4,0c.21.05.36.35.82.83,0,.93.1,2.17.06,3.41,0,.28-.44.55-.68.82-2.19.86-4.43.09-6.26.39-1.56-.65-.8-2.05-1.59-2.72l0,0A2,2,0,0,1,1599.65,491.22Z" transform="translate(-1372.29 -135.99)"/><path class="cls-7" d="M1483.24,478.06a5.06,5.06,0,0,1,1.28-3.72,32.64,32.64,0,0,1,4.78-.11c1.53,0,3.08-.06,4.61,0,.37,0,.7.59,1,.91.6,1,.44,1.92-.27,3.26C1491,478.29,1487.12,478.93,1483.24,478.06Z" transform="translate(-1372.29 -135.99)"/><path class="cls-18" d="M1656.84,501.33l-.54-.84c.27-.25.44-.56.62-.56,3.46,0,6.92,0,10.36,0a4.37,4.37,0,0,1,1.39,3.83,33.88,33.88,0,0,1-10.87-.05l0,0C1657.15,503.08,1657.85,501.85,1656.84,501.33Z" transform="translate(-1372.29 -135.99)"/><path class="cls-7" d="M1480.94,503.71c.08-1.24-.41-2.63,1.24-3.79,3.25-.22,6.85-.08,10.45-.06.51,1.48-.12,2.72-.91,4.32C1488.18,504.35,1484.55,505.19,1480.94,503.71Z" transform="translate(-1372.29 -135.99)"/><path class="cls-16" d="M1598.89,482.57c.42-.2.83-.57,1.26-.58,1.89-.07,3.78,0,5.65,0,1.9,1.5,1.65,3.54,1.54,5.54-2.5.54-5,.2-7.7.24C1599.35,485.89,1598.05,484.44,1598.89,482.57Z" transform="translate(-1372.29 -135.99)"/><path class="cls-15" d="M1522.83,503.7v-3.57c3.57-.61,7-.21,10.6-.27.12,1.43.87,2.71-.52,3.84A14.51,14.51,0,0,1,1522.83,503.7Z" transform="translate(-1372.29 -135.99)"/><path class="cls-18" d="M1586.47,482h7.36c.67,1.94.26,3.73.36,5.48-2.52.67-5,.28-7.75.22A9.55,9.55,0,0,1,1586.47,482Z" transform="translate(-1372.29 -135.99)"/><path class="cls-7" d="M1596.44,507.63h7.42c.84,1.78.24,3.61.45,5.34-2.49.86-5,.26-7.69.34A9.94,9.94,0,0,1,1596.44,507.63Z" transform="translate(-1372.29 -135.99)"/><path class="cls-20" d="M1618.16,482.05h7.48c.38,1.25.81,2.53,1.14,3.84a1.17,1.17,0,0,1-.77,1.52c-2.21.74-4.48.26-6.72.3A6.81,6.81,0,0,1,1618.16,482.05Z" transform="translate(-1372.29 -135.99)"/><path class="cls-16" d="M1619,507.61c1.79,0,3.59,0,5.38,0a2.44,2.44,0,0,1,2.44,1.6V513c-2.51,1.5-5.07.84-7.8.36A10.61,10.61,0,0,1,1619,507.61Z" transform="translate(-1372.29 -135.99)"/><path class="cls-15" d="M1581,475h12.16a4.12,4.12,0,0,1,.93.38c0,.85,0,1.82.07,2.79a91.71,91.71,0,0,1-12.81.17A2.34,2.34,0,0,1,1581,475Z" transform="translate(-1372.29 -135.99)"/><path class="cls-7" d="M1459.93,475.79l2.27-1.52h9.48c.15,3.52-1.69,4.82-5,4.61-1.78-.11-3.59,0-5.38-.06a2.73,2.73,0,0,1-1.18-.34,1.94,1.94,0,0,1-.69-1.63A1.73,1.73,0,0,1,1459.93,475.79Z" transform="translate(-1372.29 -135.99)"/><path class="cls-15" d="M1517.61,474.94c2-.48,3.91-1.42,5.87,0h5c.54,1.25,1.11,2.26-.21,3.17-3.31,1.6-6.84.38-10.25.81h-.6A2.72,2.72,0,0,1,1517.61,474.94Z" transform="translate(-1372.29 -135.99)"/><path class="cls-15" d="M1546.14,503.74v-3.58c3.24-.66,6.38-.24,9.73-.3.24,1.4.87,2.66-.41,3.83A13,13,0,0,1,1546.14,503.74Z" transform="translate(-1372.29 -135.99)"/><path class="cls-7" d="M1558.5,502.92c-1.28-.66-.66-1.71-.55-2.82,2-.54,4-.21,6-.27s3.79,0,5.88,0c.25,1.2,1,2.21-.39,3.09A16.52,16.52,0,0,1,1558.5,502.92Z" transform="translate(-1372.29 -135.99)"/><path class="cls-7" d="M1649.89,507.74h6c.26.37,1,.93,1,1.55a10.9,10.9,0,0,0,.78,2.9c.06.17-.39.53-.6.81-2.2,1.13-4.59,1.39-6.56,0C1648.84,511.73,1648.92,509.65,1649.89,507.74Z" transform="translate(-1372.29 -135.99)"/><path class="cls-17" d="M1459.93,475.79a.89.89,0,0,0,0,.51c-.26.62-.52,1.23,0,1.83l0,.22a.74.74,0,0,1,0,1c-3.21.09-6.49.64-9.61.14a98.9,98.9,0,0,0-10.28-.6,4.08,4.08,0,0,1-.94-.43c2.46-1,4.86-.09,7.34-.62l1.52-2.71c.84-.07,1.06.31.93.9s-.33,1.15-.5,1.71a3.26,3.26,0,0,0,.9.34c2.56,0,5.13,0,7.86,0l1.81-3.62C1460,474.44,1459.86,475.19,1459.93,475.79Z" transform="translate(-1372.29 -135.99)"/><path class="cls-15" d="M1535.28,503.77v-3.58c3-.73,5.86-.23,9-.34.21,1.42.89,2.69-.44,3.84A22.61,22.61,0,0,1,1535.28,503.77Z" transform="translate(-1372.29 -135.99)"/><path class="cls-15" d="M1560.88,478.93v-3.61c3-.62,5.92-.24,8.87-.32.64,1.43.35,2.71.35,4A29.1,29.1,0,0,1,1560.88,478.93Z" transform="translate(-1372.29 -135.99)"/><path class="cls-15" d="M1550,478.75c0-1.12.1-2.24.16-3.47a15.93,15.93,0,0,1,4.58-.29c1.38,0,2.76,0,4.19,0,.64,1.4.32,2.68.4,3.9A21,21,0,0,1,1550,478.75Z" transform="translate(-1372.29 -135.99)"/><path class="cls-16" d="M1637.64,482h6.26c1.8,1.62,1.54,3.56,1.51,5.44C1639.62,489.37,1638,488.27,1637.64,482Z" transform="translate(-1372.29 -135.99)"/><path class="cls-18" d="M1598.79,475.21c.34-.32.67-.9,1-.92,1.76-.09,3.53,0,5.52,0,.36.46,1.13,1,1.17,1.59.06,1,.8,2.31-.65,3a13.91,13.91,0,0,1-7,0l.05,0A2.8,2.8,0,0,1,1598.79,475.21Z" transform="translate(-1372.29 -135.99)"/><path class="cls-16" d="M1497.2,478c.13-1.23-.38-2.64,1.31-3.69a72.21,72.21,0,0,1,8.1-.07c.67,1.49,0,2.69-.87,4C1502.9,478.41,1500,478.93,1497.2,478Z" transform="translate(-1372.29 -135.99)"/><path class="cls-7" d="M1472.39,475.77c.41-.44.83-.87,1.35-1.41h7.36c.58,3.31,0,4.2-3,4.48-1.88.17-3.77-.17-5.66,0l-.84,0C1470.85,477.54,1470.47,476.34,1472.39,475.77Z" transform="translate(-1372.29 -135.99)"/><path class="cls-7" d="M1609.62,482.06h5.89c.83,1.75.24,3.58.44,5.32-2,1.32-4.13.78-6.28.35A6.05,6.05,0,0,1,1609.62,482.06Z" transform="translate(-1372.29 -135.99)"/><path class="cls-16" d="M1629.11,482.83c.37-.28.72-.79,1.11-.81,1.52-.1,3,0,4.81,0,.15,2,1.33,3.6,1,5.58a24.73,24.73,0,0,1-6.08.12C1629.07,486,1628.35,484.56,1629.11,482.83Z" transform="translate(-1372.29 -135.99)"/><path class="cls-7" d="M1610.49,491.33c.81-1.55,2.24-.71,3.38-.78,1.91-.13,1.92,0,3.52,1.15v3.59c-1.25.88-2.69.65-4.07.62C1609.82,495.81,1609.38,495.06,1610.49,491.33Z" transform="translate(-1372.29 -135.99)"/><path class="cls-16" d="M1630.69,491.22a5.45,5.45,0,0,1,1.21-.69c1.6-.46,2.91.73,4.6.87a34,34,0,0,1,1.09,3.45c.07.3-.49.73-.76,1.1-1.85.76-3.68.21-5.55.29C1630.8,494.37,1630,492.89,1630.69,491.22Z" transform="translate(-1372.29 -135.99)"/><path class="cls-21" d="M1449.82,495.93h12l2.09-5.4c.81.21.93.84.77,1.49a13.84,13.84,0,0,1-2.07,5.33h-12.37C1450.07,496.85,1449.94,496.39,1449.82,495.93Z" transform="translate(-1372.29 -135.99)"/><path class="cls-19" d="M1435.89,487.32a80.28,80.28,0,0,0,10-.09,12.13,12.13,0,0,0,1.8-5.88l1.33-.12a29.54,29.54,0,0,1-.35,3c-.24,1.1-.64,2.16-1,3.24a2.44,2.44,0,0,1-2.13,1.46c-3.35,0-6.7-.09-10-.16-.08,0-.16-.16-.32-.35C1435,487.88,1435.44,487.59,1435.89,487.32Z" transform="translate(-1372.29 -135.99)"/><path class="cls-22" d="M1584.86,507.61l.17,5.06c1.55.6,3.09.29,4.58.33s3.07,0,4.61,0l1.45-.09c.24.13.34.29.3.47s-.08.3-.15.3a9,9,0,0,1-2.44.84c-3.16.1-6.32,0-9.6,0-.78-2.23-.27-4.34-.43-6.61Z" transform="translate(-1372.29 -135.99)"/><path class="cls-15" d="M1539.93,478.15v-2.8c2.74-.73,5.38-.18,7.85-.37,1,1.1.52,2.17.63,3.14A10.94,10.94,0,0,1,1539.93,478.15Z" transform="translate(-1372.29 -135.99)"/><path class="cls-19" d="M1479.44,495.26l11.85-.16c.47-1.69.88-3.13,1.29-4.58.83.19.93.83.79,1.48-.32,1.48-.71,2.94-1.06,4.36a59.1,59.1,0,0,1-12.75,0Z" transform="translate(-1372.29 -135.99)"/><path class="cls-23" d="M1437.45,512.92c3.13.05,6.27.36,9.49-.21a16.81,16.81,0,0,0,1.49-5.07h1.39a28.94,28.94,0,0,1-1.91,6.18c-1.34,1.1-2.66.63-3.9.71a32.89,32.89,0,0,1-3.44,0c-1.23-.06-2.51.31-3.59-.26C1436.59,513.49,1437,513.19,1437.45,512.92Z" transform="translate(-1372.29 -135.99)"/><path class="cls-19" d="M1480.94,503.71h10.42l1.27-3.85a3,3,0,0,1,.67,0l.09,5,0,.07c-1.12.12-2.24.31-3.35.33-2.89,0-5.78,0-8.84,0C1481.11,504.62,1481,504.17,1480.94,503.71Z" transform="translate(-1372.29 -135.99)"/><path class="cls-19" d="M1452.2,503.66h11.21c.43-1.24.86-2.51,1.3-3.78.25.25.7.49.73.77a5.23,5.23,0,0,1-1.43,4.49,56.08,56.08,0,0,1-5.72.08c-1.89,0-3.78,0-5.82,0C1452.36,504.58,1452.28,504.12,1452.2,503.66Z" transform="translate(-1372.29 -135.99)"/><path class="cls-19" d="M1472.39,475.77a4.26,4.26,0,0,0-.71,1.18,9.74,9.74,0,0,0-.13,1.88c-.57.27-1.14.77-1.7.77-3.3,0-6.61-.16-9.91-.26v-1l9.69-.4,2.06-3.68C1472.47,474.51,1472.36,475.17,1472.39,475.77Z" transform="translate(-1372.29 -135.99)"/><path class="cls-11" d="M1429.05,504.61l15.8-.15h4l1.25-4.52,1.28.08c-.27,1.05-.47,2-.79,2.94a20.88,20.88,0,0,1-1,2.2c-.91,0-1.79.09-2.67.09q-7.89,0-15.77,0C1430.36,505.24,1429.52,505.51,1429.05,504.61Z" transform="translate(-1372.29 -135.99)"/><path class="cls-19" d="M1649.89,507.74c.14,1.5.27,3,.41,4.5,2.28,1.33,4.61.53,6.83.76-.07.37-.13.74-.23,1.28-2.34.51-4.7.2-7.29.2-.59-2.22-1.16-4.34-1.81-6.74Z" transform="translate(-1372.29 -135.99)"/><path class="cls-24" d="M1432,496.61H1446c1.28-1.92,1.47-4.16,2.4-6.09.89.2.87.88.67,1.5-.55,1.69-1.18,3.36-1.87,5.31a58.85,58.85,0,0,1-7.54.16c-2.58,0-5.17,0-8,0Z" transform="translate(-1372.29 -135.99)"/><path class="cls-19" d="M1472.39,478.87c.38-.27.75-.73,1.14-.76,1.52-.09,3,0,4.57-.06a24.18,24.18,0,0,0,2.41-.31l.59-3.38,1.23.14c.08,1.35.15,2.68.21,4l0,0a15.46,15.46,0,0,1-7.33,1.1A23.89,23.89,0,0,1,1472.39,478.87Z" transform="translate(-1372.29 -135.99)"/><path class="cls-21" d="M1609.62,482.06c.08,1.63.16,3.26.25,5.12,1.09.08,2.06.18,3,.21s2,0,3,0c-.07.37-.13.74-.22,1.23a12,12,0,0,1-4.88.23,9.05,9.05,0,0,1-2.53-1v-5.47C1608.58,481.88,1609.14,482.1,1609.62,482.06Z" transform="translate(-1372.29 -135.99)"/><path class="cls-23" d="M1637.64,482c.27.84.55,1.67.8,2.51a13.66,13.66,0,0,0,.42,1.46,13.23,13.23,0,0,0,.85,1.47h5.7c.13.19.37.4.34.56a.79.79,0,0,1-.46.53,14.11,14.11,0,0,1-7.27,0c-.44-1.93-.83-3.51-1.16-5.1C1636.73,482.79,1636.83,482.17,1637.64,482Z" transform="translate(-1372.29 -135.99)"/><path class="cls-23" d="M1610.49,491.33v3.5c2.41.66,4.7.1,6.9.46l-.23,1.24a48.82,48.82,0,0,1-6.82.14c-2-1.37-1.11-3.3-1.46-5.2Z" transform="translate(-1372.29 -135.99)"/><path class="cls-23" d="M1619,507.61c.06,1.64.13,3.28.19,5,1.27.74,2.57.37,3.8.41s2.55,0,3.83,0c.48.28.77.63.37,1.41a70.43,70.43,0,0,1-8.65.13,15.18,15.18,0,0,1-.14-6.49C1618.43,507.84,1618.79,507.73,1619,507.61Z" transform="translate(-1372.29 -135.99)"/><path class="cls-23" d="M1607.32,507.63l.23,5c1.38.7,2.79.28,4.14.36s2.79.07,4.19.1c-.06.36-.13.73-.21,1.24a67.44,67.44,0,0,1-8.8.16,15.53,15.53,0,0,1-.12-6.43C1606.78,507.89,1607.13,507.78,1607.32,507.63Z" transform="translate(-1372.29 -135.99)"/><path class="cls-19" d="M1649.51,495.63c1.82.67,3.75-.3,5.64,1.29-2.69.89-4.81.44-7.06.5-.26-1.13-.42-2.12-.73-3.07s-.7-1.93,0-2.9c1.47,0,1,1.19,1.23,1.94S1649.26,495,1649.51,495.63Z" transform="translate(-1372.29 -135.99)"/><path class="cls-19" d="M1517.61,474.94c0,1.32-.1,2.64-.16,3.95-2.57,1.31-5.3.64-8,.62-.39,0-.77-.54-1.58-1.13,2.73-.59,5-.15,7.47-.41.45-1.12,1-2.34,1.47-3.61Z" transform="translate(-1372.29 -135.99)"/><path class="cls-22" d="M1508.92,503.77h12.3a1.91,1.91,0,0,1-2,1.44q-4.17,0-8.34,0A2,2,0,0,1,1508.92,503.77Z" transform="translate(-1372.29 -135.99)"/><path class="cls-17" d="M1449.89,513.78c2.29,0,4.58-.06,6.87,0a6.37,6.37,0,0,0,3.89-1.19c.48-1.5,1-3.27,1.61-5.05.83.13,1,.73.86,1.39a15.22,15.22,0,0,1-1.95,5.51c-3.45.2-7,.11-10.52,0C1450.39,514.47,1450.14,514,1449.89,513.78Z" transform="translate(-1372.29 -135.99)"/><path class="cls-19" d="M1641.2,495.72l4.2.46c-.84,1.34-.84,1.34-4.92,1.19-2-1.56-1-4.21-2.17-6.16l1.35-.59Z" transform="translate(-1372.29 -135.99)"/><path class="cls-24" d="M1464.72,496.06l12-.23c.5-1.53,1.26-2.88,1.07-4.48A1.28,1.28,0,0,1,1479,493c-.17,1.12-.53,2.21-.87,3.55-.66.06-1.4.2-2.14.2-3.23,0-6.46,0-9.69,0C1465.71,496.74,1465,496.83,1464.72,496.06Z" transform="translate(-1372.29 -135.99)"/><path class="cls-11" d="M1493.41,504.89l0-.07c1.37-.12,2.74-.31,4.12-.34,2.89-.05,5.78,0,8.79,0l1.16-4.52c.28.46.55.93.82,1.39l-.09.84c-.11.88-.21,1.75-.34,2.82a15.35,15.35,0,0,1-1.84.26c-3.32,0-6.65,0-10,0A21.54,21.54,0,0,1,1493.41,504.89Z" transform="translate(-1372.29 -135.99)"/><path class="cls-23" d="M1571.73,503.72l20.14-.05c.67,0,1.3,0,1.55.79-6.58,0-13.16,0-19.73,0C1573,504.45,1572.1,504.73,1571.73,503.72Z" transform="translate(-1372.29 -135.99)"/><path class="cls-25" d="M1659.17,507.73c.4,1.6.81,3.21,1.27,5a67.16,67.16,0,0,0,10.62.09l.38.58c-.18.12-.36.34-.54.34-3.67,0-7.34,0-10.82,0a8.25,8.25,0,0,1-.65-.77A4.65,4.65,0,0,1,1659,512c-.34-1.32-.63-2.65-1-4.06Z" transform="translate(-1372.29 -135.99)"/><path class="cls-19" d="M1558.5,502.92h10.93l-.22,1.3c-3.39.56-6.8.06-10.36.32Z" transform="translate(-1372.29 -135.99)"/><path class="cls-24" d="M1577.91,491.32v4.37a52,52,0,0,0,8,.23c2.54,0,5.07,0,7.61,0-.26.24-.52.69-.78.7-5.09,0-10.18,0-15.5,0a13,13,0,0,1,0-5C1577.33,491.52,1577.7,491.44,1577.91,491.32Z" transform="translate(-1372.29 -135.99)"/><path class="cls-17" d="M1466.28,504.59h10.54c1.9-1.24,1.71-3,2-4.62l1.27.1a9.23,9.23,0,0,1-1.4,4.83,74.58,74.58,0,0,1-11.88.2C1466.59,505.08,1466.45,504.77,1466.28,504.59Z" transform="translate(-1372.29 -135.99)"/><path class="cls-21" d="M1505,496l10,.07-.21,1.26a58.69,58.69,0,0,1-9.09.1c-.38,0-.76-.56-1.1-.89C1504.58,496.46,1504.85,496.13,1505,496Z" transform="translate(-1372.29 -135.99)"/><path class="cls-17" d="M1581,475l.16,2.81c4.37.59,8.71,0,13,.37-.28.23-.56.64-.84.65-4.43,0-8.86,0-13.52,0-.13-1.27-.23-2.35-.36-3.65Z" transform="translate(-1372.29 -135.99)"/><path class="cls-21" d="M1607.69,474.63l.9-.24.66,3.23c.21.12.41.35.63.36,1.28.09,2.56.09,3.83.22.22,0,.38.53.67,1-2,.81-3.89.34-5.64.44C1607.37,477.88,1607.37,477.88,1607.69,474.63Z" transform="translate(-1372.29 -135.99)"/><path class="cls-25" d="M1633.62,507.7c.43,1.67.86,3.35,1.34,5.26l11.3,0a1.07,1.07,0,0,1-1.15.79h-10.84a9.87,9.87,0,0,1-1.27-5.22C1633,508.26,1633.41,508,1633.62,507.7Z" transform="translate(-1372.29 -135.99)"/><path class="cls-25" d="M1656.22,491.33l1.69,5.14a46.37,46.37,0,0,0,8.49.1l.38.58c-.18.11-.36.32-.54.33-2.79,0-5.59,0-8.38,0a5.3,5.3,0,0,1-1.18-.29c-.39-1.45-.81-2.88-1.14-4.33C1655.39,492.25,1655.43,491.59,1656.22,491.33Z" transform="translate(-1372.29 -135.99)"/><path class="cls-21" d="M1518.05,478.9a1.52,1.52,0,0,1,1.55-.82c2.9,0,5.8,0,8.7,0,0,.36-.11.73-.17,1.17a3.56,3.56,0,0,1-1,.35c-2.5,0-5,0-7.51,0A1.54,1.54,0,0,1,1518.05,478.9Z" transform="translate(-1372.29 -135.99)"/><path class="cls-22" d="M1522.83,503.7h10.08a1.93,1.93,0,0,1-2,1.51c-2.53,0-5.07,0-7.76,0Z" transform="translate(-1372.29 -135.99)"/><path class="cls-19" d="M1631.83,503.84c-.34-1.16-.66-2.24-1-3.39l1-.6,1.48,2.78a7.24,7.24,0,0,0,1,.24,16.28,16.28,0,0,1,4.05.27c-.18.56-.2.94-.32,1A9.15,9.15,0,0,1,1631.83,503.84Z" transform="translate(-1372.29 -135.99)"/><path class="cls-25" d="M1425.83,513.77H1434l2-6.12,1.23.17-2.23,6.54a50.6,50.6,0,0,1-8.51.13C1426.3,514.48,1426.07,514,1425.83,513.77Z" transform="translate(-1372.29 -135.99)"/><path class="cls-24" d="M1501.07,487.25l7.17.12a8.21,8.21,0,0,0,1.31-.26c.09-1,.13-1.95.29-2.9s.47-1.95.71-2.91c.19.15.53.3.54.47.11,2.05.36,4.12-.93,6.19-3,.58-6.21,0-9.69.31Z" transform="translate(-1372.29 -135.99)"/><path class="cls-25" d="M1489.51,487.48l8-.18c1.49-1.52,1.38-3.33,1.33-5.11l1.42-.16c-.32,1.94-.61,3.77-.94,5.82a13.24,13.24,0,0,1-2.09.33c-2.18.05-4.35,0-6.53,0A1.09,1.09,0,0,1,1489.51,487.48Z" transform="translate(-1372.29 -135.99)"/><path class="cls-21" d="M1546.14,503.74l9.32-.05-.22,1.29c-2.84.58-5.72.07-8.75.31C1546.34,504.65,1546.24,504.2,1546.14,503.74Z" transform="translate(-1372.29 -135.99)"/><path class="cls-26" d="M1464.72,514.51a1,1,0,0,1,1.14-.74h6.7c1.7-1.89,1.33-4.24,2.21-6.16.8.19.91.81.77,1.46-.35,1.58-.76,3.15-1.13,4.7-1.45,1.32-3.18.65-4.76.75S1466.37,514.52,1464.72,514.51Z" transform="translate(-1372.29 -135.99)"/><path class="cls-25" d="M1482.58,478.48l0,0,.7-.46c3.77,0,7.54,0,11.46,0,.1-1.16.18-2,.26-2.87l1.1-.12c.1.29.29.56.24.75-.28,1-.63,1.9-1,3C1491,478.69,1486.78,479.35,1482.58,478.48Z" transform="translate(-1372.29 -135.99)"/><path class="cls-25" d="M1494.09,495.83h8c.92-.84.51-1.83.73-2.67s.53-1.71.8-2.57a2.18,2.18,0,0,1,.51,0l.11,3.8-1.27,2.24h-9.13C1493.9,496.34,1494,496.08,1494.09,495.83Z" transform="translate(-1372.29 -135.99)"/><path class="cls-21" d="M1539.93,478.15l8.48,0c-.05.37-.1.74-.18,1.27-2.59.5-5.19.13-8,.26C1540.13,479.05,1540,478.6,1539.93,478.15Z" transform="translate(-1372.29 -135.99)"/><path class="cls-21" d="M1538.31,479.28a21.46,21.46,0,0,1-7.31.15c-.35,0-.64-.61-1.23-1.22a38.22,38.22,0,0,1,8,0C1537.92,478.27,1538.05,478.8,1538.31,479.28Z" transform="translate(-1372.29 -135.99)"/><path class="cls-11" d="M1619.76,491.47c.06,1.25.13,2.5.2,3.77,2.62,1.25,5.2.43,7.67.69-.26.25-.51.7-.78.71-2.43.05-4.87,0-7.46,0-.4-1.67-.76-3.24-1.09-4.61C1618.73,491.18,1619.28,491.45,1619.76,491.47Z" transform="translate(-1372.29 -135.99)"/><path class="cls-25" d="M1629.11,482.83c-.15,1.59.58,2.93,1.05,4.42l5.83.31c-.42.21-.84.59-1.28.6-1.92.07-3.84,0-6,0-.13-.92-.26-1.76-.37-2.6s-.23-1.71-.36-2.64Z" transform="translate(-1372.29 -135.99)"/><path class="cls-26" d="M1646.45,482.19c2.1,1.07.71,3.58,2.81,5l2.84.31c-.24.33-.34.6-.45.61-1.4,0-2.79,0-4.33,0C1646.91,486.15,1645.63,484.41,1646.45,482.19Z" transform="translate(-1372.29 -135.99)"/><path class="cls-6" d="M1568.58,487.28l14.82.11c-.23.81-.89.78-1.53.78l-13.92-.05c-.25-.14-.33-.28-.26-.44s.15-.23.23-.23A2.14,2.14,0,0,0,1568.58,487.28Z" transform="translate(-1372.29 -135.99)"/><path class="cls-11" d="M1497.2,478h7.9a5,5,0,0,0,1.51-3.76c.12.05.3.07.35.16.87,1.53.28,2.88-.35,4.31-1.1.05-2,.12-2.88.12-2.28,0-4.56,0-7,0C1497,478.4,1497.09,478.21,1497.2,478Z" transform="translate(-1372.29 -135.99)"/><path class="cls-23" d="M1616.39,478.83a4.39,4.39,0,0,1-.18-3.63,4.81,4.81,0,0,1,1.59,2.61c2.3.66,4.8-.21,7.85.73A49.93,49.93,0,0,1,1616.39,478.83Z" transform="translate(-1372.29 -135.99)"/><path class="cls-24" d="M1598.89,482.57c.31,1.47.62,2.94,1,4.58,2.45.55,5,0,7.49.35-.27.22-.54.63-.82.63-2.4.06-4.81,0-7.4,0-.16-.67-.29-1.25-.44-1.82a11.65,11.65,0,0,1-.52-1.81C1598.08,483.8,1598,483,1598.89,482.57Z" transform="translate(-1372.29 -135.99)"/><path class="cls-25" d="M1595.82,513.68l-.15-.77v-5l.77-.23c.06,1.65.13,3.29.19,5,1.31.69,2.6.34,3.84.39s2.56,0,3.84,0a.9.9,0,0,1-1,.82Z" transform="translate(-1372.29 -135.99)"/><path class="cls-26" d="M1630.69,491.22c.32,1.43.64,2.87,1,4.45,1.67.54,3.43.14,5.14.28-.14.2-.26.55-.43.58a28.33,28.33,0,0,1-6.19.09,15.42,15.42,0,0,1-.29-4.69C1629.94,491.68,1630.42,491.45,1630.69,491.22Z" transform="translate(-1372.29 -135.99)"/><path class="cls-26" d="M1586.47,482v4.9c1.35.86,2.66.44,3.89.51s2.55.05,3.83.07c-.28.23-.54.66-.82.67-2.43.05-4.86,0-7.49,0a13.55,13.55,0,0,1,0-5.84C1585.87,482.15,1586.25,482.07,1586.47,482Z" transform="translate(-1372.29 -135.99)"/><path class="cls-17" d="M1474,488.14c.29-.76,1-.73,1.59-.73h12.34c-.2.79-.82.82-1.46.82Z" transform="translate(-1372.29 -135.99)"/><path class="cls-23" d="M1640,501l1-1.27,1.49,3.65c1.65.68,3.37-.1,5.4.83a31,31,0,0,1-6.7.29C1640.85,503.38,1640.48,502.33,1640,501Z" transform="translate(-1372.29 -135.99)"/><path class="cls-24" d="M1562.59,496.62c.26-.82.94-.69,1.55-.69h11.45a1,1,0,0,1-1.11.78Z" transform="translate(-1372.29 -135.99)"/><path class="cls-11" d="M1448.33,487.4c3.07,0,6.15,0,9.21,0a5.77,5.77,0,0,0,3.24-.8l-.13,1.07c-.24.17-.44.42-.64.43-3.52,0-7,.05-10.58.07A1,1,0,0,1,1448.33,487.4Z" transform="translate(-1372.29 -135.99)"/><path class="cls-17" d="M1462.29,487.38c3.59-.07,7.19.34,10.8-.31l.09,1.12-11,0c-.08,0-.15-.14-.25-.23Z" transform="translate(-1372.29 -135.99)"/><path class="cls-24" d="M1606.07,503.36v-2.48l.31-.07c.17.54.35,1.08.59,1.81,2.76.66,5.76-.15,9,.54A24.51,24.51,0,0,1,1606.07,503.36Z" transform="translate(-1372.29 -135.99)"/><path class="cls-17" d="M1569.36,513.78h10.82c.65,0,1.3,0,1.55.75l-10.82.05C1570.25,514.58,1569.62,514.55,1569.36,513.78Z" transform="translate(-1372.29 -135.99)"/><path class="cls-27" d="M1550,495.84l10.78.25c-.36.72-1,.62-1.65.62h-9.44C1549.79,496.33,1549.88,496.09,1550,495.84Z" transform="translate(-1372.29 -135.99)"/><path class="cls-27" d="M1554.71,487.51l11.57-.11c-.25.25-.5.7-.76.7-3.32.06-6.65.06-10,0C1555.26,488.13,1555,487.72,1554.71,487.51Z" transform="translate(-1372.29 -135.99)"/><path class="cls-24" d="M1657.8,503.69l10.87.05c-.25.23-.5.66-.76.67-3.13,0-6.27,0-9.4,0C1658.27,504.39,1658,503.94,1657.8,503.69Z" transform="translate(-1372.29 -135.99)"/><path class="cls-11" d="M1649.81,504.41a5.34,5.34,0,0,1-.13-4.1c.64,1.26,1.07,2.11,1.61,3.19l3.32.25c-.31.38-.41.64-.53.64C1652.7,504.42,1651.32,504.41,1649.81,504.41Z" transform="translate(-1372.29 -135.99)"/><path class="cls-27" d="M1512,487.35l9.36,0c-.25.24-.49.68-.74.69-3,.05-5.93,0-9,0Z" transform="translate(-1372.29 -135.99)"/><path class="cls-6" d="M1550,478.75l9.33.13c-.15.6-.59.75-1.13.75h-8.67Z" transform="translate(-1372.29 -135.99)"/><path class="cls-17" d="M1527.5,496l10.13,0c-.25.25-.49.72-.75.72-2.87.06-5.75.06-8.63,0C1528,496.66,1527.75,496.21,1527.5,496Z" transform="translate(-1372.29 -135.99)"/><path class="cls-11" d="M1599.61,493.6c1.25.2.51,1.52,1.5,2.33h6.35c-.25.24-.5.68-.76.69-2.24.05-4.48,0-6.7,0C1599.34,495.57,1599.63,494.56,1599.61,493.6Z" transform="translate(-1372.29 -135.99)"/><path class="cls-27" d="M1560.88,478.93l9.22,0c-.27.23-.54.65-.81.66-2.54,0-5.07,0-7.61,0C1561.41,479.58,1561.15,479.16,1560.88,478.93Z" transform="translate(-1372.29 -135.99)"/><path class="cls-25" d="M1539.19,496l9.15,0c-.28.21-.55.6-.83.61-2.5,0-5,0-7.51,0C1539.73,496.65,1539.46,496.25,1539.19,496Z" transform="translate(-1372.29 -135.99)"/><path class="cls-27" d="M1516.63,496l9.22.1c-.28.22-.56.61-.85.61-2.54,0-5.09,0-7.63,0C1517.12,496.64,1516.87,496.19,1516.63,496Z" transform="translate(-1372.29 -135.99)"/><path class="cls-11" d="M1654.7,487.4l9.36,0c-.12.21-.24.6-.36.6q-4.32.06-8.62,0C1655,488,1654.83,487.61,1654.7,487.4Z" transform="translate(-1372.29 -135.99)"/><path class="cls-24" d="M1523.59,487.34l8.53.07c-.24.24-.47.67-.73.69-2.7.16-5.4,0-8.27.08C1523.38,487.71,1523.48,487.52,1523.59,487.34Z" transform="translate(-1372.29 -135.99)"/><path class="cls-24" d="M1535.28,503.77l8.52-.08c-.25.24-.5.69-.76.7q-3.46.09-6.93,0C1535.83,504.41,1535.56,504,1535.28,503.77Z" transform="translate(-1372.29 -135.99)"/><path class="cls-27" d="M1534.5,487.46H1543c-.27.23-.53.65-.8.66q-3.43.08-6.87,0C1535,488.11,1534.76,487.69,1534.5,487.46Z" transform="translate(-1372.29 -135.99)"/><path class="cls-27" d="M1544.55,487.4h8.53c-.24.24-.48.68-.73.68q-3.54.07-7.09,0C1545,488.09,1544.79,487.64,1544.55,487.4Z" transform="translate(-1372.29 -135.99)"/><path class="cls-25" d="M1598.79,475.21l.09,3.69-1.13-.22a4.4,4.4,0,0,1-.13-3.59Z" transform="translate(-1372.29 -135.99)"/><path class="cls-26" d="M1618.16,482.05c.32,1.77.64,3.53.95,5.3a.52.52,0,0,1-.87,0,6.44,6.44,0,0,1-.63-4.93C1617.64,482.29,1618,482.19,1618.16,482.05Z" transform="translate(-1372.29 -135.99)"/><path class="cls-27" d="M1618.24,487.39l.87,0,6.9.06c-.24.23-.48.67-.73.68q-3.16.09-6.33,0C1618.71,488.09,1618.48,487.64,1618.24,487.39Z" transform="translate(-1372.29 -135.99)"/><path class="cls-27" d="M1578.16,479.18a16.71,16.71,0,0,1-7,.16A15.65,15.65,0,0,1,1578.16,479.18Z" transform="translate(-1372.29 -135.99)"/><path class="cls-25" d="M1598.83,478.86h7c-.24.24-.48.69-.72.7q-2.81.09-5.61,0C1599.28,479.57,1599.06,479.11,1598.83,478.86Z" transform="translate(-1372.29 -135.99)"/><path class="cls-11" d="M1460.75,486.66a5.69,5.69,0,0,1,.57-3.59,5,5,0,0,0,.3-1.81c.24.24.69.49.69.73A6.69,6.69,0,0,1,1460.75,486.66Z" transform="translate(-1372.29 -135.99)"/><path class="cls-17" d="M1487.92,487.43c0-.95,0-1.91,0-2.86a1,1,0,0,1,1.14-1,26.6,26.6,0,0,1-.41,2.82C1488.57,486.75,1488.18,487.07,1487.92,487.43Z" transform="translate(-1372.29 -135.99)"/><path class="cls-11" d="M1654,482.65c0,1.08,0,2.16,0,3.24-1.1-.44-.8-1.42-.79-2.21C1653.18,483.33,1653.69,483,1654,482.65Z" transform="translate(-1372.29 -135.99)"/><path class="cls-24" d="M1656.84,501.33a.93.93,0,0,1,.94.92c0,.49,0,1,.06,1.48a4.78,4.78,0,0,1-.77-1A6.4,6.4,0,0,1,1656.84,501.33Z" transform="translate(-1372.29 -135.99)"/><path class="cls-11" d="M1599.65,491.22c0,.81,0,1.61,0,2.42C1598.62,492.66,1598.62,492.16,1599.65,491.22Z" transform="translate(-1372.29 -135.99)"/><path class="cls-11" d="M1653.92,485.84c1,.15.81.93.81,1.6C1653.71,487.29,1653.91,486.52,1653.92,485.84Z" transform="translate(-1372.29 -135.99)"/><path class="cls-15" d="M1567.92,487.45a1,1,0,0,0,0,.67l-.9-.71h0Z" transform="translate(-1372.29 -135.99)"/><path class="cls-5" d="M1722,456.6a18.4,18.4,0,0,0-.57-3.22,30.71,30.71,0,0,0-2.4-6.06c-.9-1.73-2.39-3.22-4.45-3.26a.79.79,0,0,0,0,1.57,3.66,3.66,0,0,1,2.93,2.15,26.4,26.4,0,0,1,1.74,4,19.36,19.36,0,0,1,1.11,4.16,11.92,11.92,0,0,1,.1,2.15c0,.28,0,.73-.33.82s-.47-.19-.46-.47c0-1-1.52-1-1.56,0a1.93,1.93,0,0,0,3.47,1.27A4.85,4.85,0,0,0,1722,456.6Z" transform="translate(-1372.29 -135.99)"/><path class="cls-28" d="M1683.9,224.34c-.76,0-1.51-.06-2.25-.06-3.1,0-6.21,0-9.31,0q-40.14-.14-80.28-.29c-2.07,0-4.12-.28-6.18-.29s-3.87.23-5.8.22c-4.76,0-9.53-.23-14.29-.25-25.21-.07-50.42-.07-75.63-.19-8.78,0-17.56-.38-26.34-.56a7.83,7.83,0,0,0-1.45.24V373c2.27-.07,4.43-.19,6.58-.2l209.06-.06c1.91,0,3.83,0,5.74-.06a5.82,5.82,0,0,0,.38-1.28q.09-72.92.12-145.81A6.23,6.23,0,0,0,1683.9,224.34Zm-35.24,19.59v92H1498.44v-92Z" transform="translate(-1372.29 -135.99)"/><path class="cls-7" d="M1460,478.13c-1-.65-1-.81,0-1.83C1459.93,476.91,1459.94,477.52,1460,478.13Z" transform="translate(-1372.29 -135.99)"/><path class="cls-13" d="M1657.61,342.37l-8.14-7.27c-1.1-1-2.72.64-1.62,1.62L1656,344c1.1,1,2.72-.63,1.62-1.61Z" transform="translate(-1372.29 -135.99)"/><path class="cls-13" d="M1497.63,335.1l-7.55,7.27c-1.06,1,.56,2.64,1.62,1.61l7.55-7.26c1.07-1-.56-2.64-1.62-1.62Z" transform="translate(-1372.29 -135.99)"/><path class="cls-13" d="M1647.51,243.93v92l1.15-1.14H1498.44l1.15,1.14v-92a1.16,1.16,0,0,0-1.15-1.14h-7.55a1.15,1.15,0,0,0-1.14,1.14v99.24a1.16,1.16,0,0,0,1.14,1.15H1656.8a1.16,1.16,0,0,0,1.15-1.15V243.93a1.16,1.16,0,0,0-1.15-1.14h-8.14a1.15,1.15,0,0,0,0,2.29h8.14l-1.14-1.15v99.24l1.14-1.14H1490.89l1.15,1.14V243.93l-1.15,1.15h7.55l-1.14-1.15v92a1.16,1.16,0,0,0,1.14,1.15h150.22a1.16,1.16,0,0,0,1.14-1.15v-92A1.15,1.15,0,0,0,1647.51,243.93Z" transform="translate(-1372.29 -135.99)"/><path class="cls-29" d="M1498.44,245.08h150.22a1.15,1.15,0,0,0,0-2.29H1498.44a1.15,1.15,0,0,0,0,2.29Z" transform="translate(-1372.29 -135.99)"/><polygon class="cls-30" points="263.58 159.93 139.54 160.1 147.21 132.83 256.54 132.65 263.58 159.93"/><path class="cls-29" d="M1635.87,294.77l-108.77.16-15.28,0,1.11,1.45,4.76-16.94c.76-2.69,2-5.62,2.37-8.4.09-.63.38-1.26.53-1.89-.62,2.53-1.6.25-.52.8,2,1,7.4,0,9.55,0l18.22,0,47.21-.07c10.48,0,21.41.87,31.85-.06,2.65-.23.89.47.87-.67,0,2.34,1.34,5.21,1.93,7.47l5.06,19.63a1.15,1.15,0,0,0,2.21-.6l-7-27.28a1.16,1.16,0,0,0-1.1-.84l-95.65.16-13.68,0a1.17,1.17,0,0,0-1.11.84l-7.67,27.27a1.15,1.15,0,0,0,1.1,1.45l108.77-.15,15.28,0A1.15,1.15,0,0,0,1635.87,294.77Z" transform="translate(-1372.29 -135.99)"/><rect class="cls-31" x="139.54" y="160.1" width="124.04" height="29.37"/><path class="cls-29" d="M1635.87,324.25h-124l1.22,1.22V296.1l-1.22,1.21h124l-1.22-1.21v29.37a1.22,1.22,0,0,0,2.43,0V296.1a1.23,1.23,0,0,0-1.21-1.22h-124a1.24,1.24,0,0,0-1.21,1.22v29.37a1.23,1.23,0,0,0,1.21,1.21h124A1.22,1.22,0,0,0,1635.87,324.25Z" transform="translate(-1372.29 -135.99)"/><path class="cls-31" d="M1582.73,268.76v7.34c0,1.56-4,2.81-8.88,2.81s-8.89-1.25-8.89-2.81v-7.34Z" transform="translate(-1372.29 -135.99)"/><path class="cls-29" d="M1581.65,268.76v5.33c0,1.31.2,1.55-.69,2.37-1.63,1.5-5.06,1.37-7.11,1.38a16.21,16.21,0,0,1-6.42-.93c-1.49-.68-1.39-1.12-1.39-2.51v-5.64l-1.08,1.08h17.77a1.08,1.08,0,0,0,0-2.16H1565a1.09,1.09,0,0,0-1.07,1.08c0,2.35-.49,5.21,0,7.48.81,3.67,7.09,3.75,9.94,3.75s9-.07,9.92-3.6c.57-2.29,0-5.27,0-7.63A1.08,1.08,0,0,0,1581.65,268.76Z" transform="translate(-1372.29 -135.99)"/><ellipse class="cls-30" cx="201.56" cy="132.77" rx="8.88" ry="2.81"/><path class="cls-29" d="M1581.69,268.48c-.5,2.13-6.32,2-7.84,2s-6.42.15-6.42-1.74,4.8-1.73,6.42-1.73c1.33,0,7.36-.06,7.84,2,.31,1.35,2.39.78,2.08-.57-.87-3.73-7.77-3.66-10.58-3.59-2.26.05-9.3.28-9.3,3.87,0,3.41,6.44,3.76,8.64,3.86,2.87.14,10.34.32,11.24-3.57C1584.08,267.7,1582,267.12,1581.69,268.48Z" transform="translate(-1372.29 -135.99)"/><path class="cls-31" d="M1621,268.76v7.34c0,1.56-4,2.81-8.88,2.81s-8.88-1.25-8.88-2.81v-7.34Z" transform="translate(-1372.29 -135.99)"/><path class="cls-29" d="M1619.91,268.76v5.33c0,1.31.21,1.55-.69,2.37-1.63,1.5-5,1.37-7.11,1.38a16.26,16.26,0,0,1-6.42-.93c-1.48-.68-1.38-1.12-1.38-2.51v-5.64l-1.08,1.08H1621a1.08,1.08,0,0,0,0-2.16h-17.76a1.1,1.1,0,0,0-1.08,1.08c0,2.35-.49,5.21,0,7.48.82,3.67,7.09,3.75,9.94,3.75s9-.07,9.92-3.6c.57-2.29,0-5.27,0-7.63A1.08,1.08,0,0,0,1619.91,268.76Z" transform="translate(-1372.29 -135.99)"/><ellipse class="cls-30" cx="239.82" cy="132.77" rx="8.88" ry="2.81"/><path class="cls-29" d="M1620,268.48c-.49,2.13-6.32,2-7.84,2s-6.42.15-6.42-1.74,4.81-1.73,6.42-1.73c1.34,0,7.36-.06,7.84,2,.32,1.35,2.39.78,2.08-.57-.86-3.73-7.76-3.66-10.58-3.59-2.26.05-9.3.28-9.3,3.87,0,3.41,6.45,3.76,8.65,3.86,2.86.14,10.33.32,11.23-3.57C1622.34,267.7,1620.27,267.12,1620,268.48Z" transform="translate(-1372.29 -135.99)"/><path class="cls-31" d="M1544.46,268.76v7.34c0,1.56-4,2.81-8.88,2.81s-8.88-1.25-8.88-2.81v-7.34Z" transform="translate(-1372.29 -135.99)"/><path class="cls-29" d="M1543.39,268.76v5.33c0,1.31.2,1.55-.7,2.37-1.62,1.5-5,1.37-7.11,1.38a16.26,16.26,0,0,1-6.42-.93c-1.48-.68-1.38-1.12-1.38-2.51v-5.64l-1.08,1.08h17.76a1.08,1.08,0,0,0,0-2.16H1526.7a1.1,1.1,0,0,0-1.08,1.08c0,2.35-.49,5.21,0,7.48.82,3.67,7.09,3.75,9.94,3.75s9-.07,9.92-3.6c.57-2.29,0-5.27,0-7.63A1.08,1.08,0,0,0,1543.39,268.76Z" transform="translate(-1372.29 -135.99)"/><ellipse class="cls-30" cx="163.29" cy="132.77" rx="8.88" ry="2.81"/><path class="cls-29" d="M1543.43,268.48c-.5,2.13-6.33,2-7.85,2s-6.42.15-6.42-1.74,4.81-1.73,6.42-1.73c1.34,0,7.36-.06,7.85,2,.31,1.35,2.39.78,2.07-.57-.86-3.73-7.76-3.66-10.57-3.59-2.26.05-9.31.28-9.31,3.87,0,3.41,6.45,3.76,8.65,3.86,2.87.14,10.33.32,11.23-3.57C1545.82,267.7,1543.74,267.12,1543.43,268.48Z" transform="translate(-1372.29 -135.99)"/><path class="cls-31" d="M1582.73,280.29v7.34c0,1.55-4,2.81-8.88,2.81s-8.89-1.26-8.89-2.81v-7.34Z" transform="translate(-1372.29 -135.99)"/><path class="cls-29" d="M1581.65,280.29v5.33c0,1.3.2,1.54-.69,2.37-1.63,1.5-5.06,1.37-7.11,1.37a15.86,15.86,0,0,1-6.42-.93c-1.49-.67-1.39-1.11-1.39-2.5v-5.64l-1.08,1.08h17.77a1.08,1.08,0,0,0,0-2.16H1565a1.09,1.09,0,0,0-1.07,1.08c0,2.34-.49,5.2,0,7.48.81,3.66,7.09,3.75,9.94,3.75s9-.07,9.92-3.61c.57-2.28,0-5.26,0-7.62A1.08,1.08,0,0,0,1581.65,280.29Z" transform="translate(-1372.29 -135.99)"/><ellipse class="cls-30" cx="201.56" cy="144.3" rx="8.88" ry="2.81"/><path class="cls-29" d="M1581.69,280c-.5,2.14-6.32,2-7.84,2s-6.42.15-6.42-1.73,4.8-1.73,6.42-1.73c1.33,0,7.36-.06,7.84,2,.31,1.35,2.39.78,2.08-.58-.87-3.72-7.77-3.65-10.58-3.58-2.26.05-9.3.28-9.3,3.87,0,3.4,6.44,3.75,8.64,3.86,2.87.14,10.34.31,11.24-3.57C1584.08,279.23,1582,278.65,1581.69,280Z" transform="translate(-1372.29 -135.99)"/><path class="cls-31" d="M1621,280.29v7.34c0,1.55-4,2.81-8.88,2.81s-8.88-1.26-8.88-2.81v-7.34Z" transform="translate(-1372.29 -135.99)"/><path class="cls-29" d="M1619.91,280.29v5.33c0,1.3.21,1.54-.69,2.37-1.63,1.5-5,1.37-7.11,1.37a15.91,15.91,0,0,1-6.42-.93c-1.48-.67-1.38-1.11-1.38-2.5v-5.64l-1.08,1.08H1621a1.08,1.08,0,0,0,0-2.16h-17.76a1.1,1.1,0,0,0-1.08,1.08c0,2.34-.49,5.2,0,7.48.82,3.66,7.09,3.75,9.94,3.75s9-.07,9.92-3.61c.57-2.28,0-5.26,0-7.62A1.08,1.08,0,0,0,1619.91,280.29Z" transform="translate(-1372.29 -135.99)"/><ellipse class="cls-30" cx="239.82" cy="144.3" rx="8.88" ry="2.81"/><path class="cls-29" d="M1620,280c-.49,2.14-6.32,2-7.84,2s-6.42.15-6.42-1.73,4.81-1.73,6.42-1.73c1.34,0,7.36-.06,7.84,2,.32,1.35,2.39.78,2.08-.58-.86-3.72-7.76-3.65-10.58-3.58-2.26.05-9.3.28-9.3,3.87,0,3.4,6.45,3.75,8.65,3.86,2.86.14,10.33.31,11.23-3.57C1622.34,279.23,1620.27,278.65,1620,280Z" transform="translate(-1372.29 -135.99)"/><path class="cls-31" d="M1544.46,280.29v7.34c0,1.55-4,2.81-8.88,2.81s-8.88-1.26-8.88-2.81v-7.34Z" transform="translate(-1372.29 -135.99)"/><path class="cls-29" d="M1543.39,280.29v5.33c0,1.3.2,1.54-.7,2.37-1.62,1.5-5,1.37-7.11,1.37a15.91,15.91,0,0,1-6.42-.93c-1.48-.67-1.38-1.11-1.38-2.5v-5.64l-1.08,1.08h17.76a1.08,1.08,0,0,0,0-2.16H1526.7a1.1,1.1,0,0,0-1.08,1.08c0,2.34-.49,5.2,0,7.48.82,3.66,7.09,3.75,9.94,3.75s9-.07,9.92-3.61c.57-2.28,0-5.26,0-7.62A1.08,1.08,0,0,0,1543.39,280.29Z" transform="translate(-1372.29 -135.99)"/><ellipse class="cls-30" cx="163.29" cy="144.3" rx="8.88" ry="2.81"/><path class="cls-29" d="M1543.43,280c-.5,2.14-6.33,2-7.85,2s-6.42.15-6.42-1.73,4.81-1.73,6.42-1.73c1.34,0,7.36-.06,7.85,2,.31,1.35,2.39.78,2.07-.58-.86-3.72-7.76-3.65-10.57-3.58-2.26.05-9.31.28-9.31,3.87,0,3.4,6.45,3.75,8.65,3.86,2.87.14,10.33.31,11.23-3.57C1545.82,279.23,1543.74,278.65,1543.43,280Z" transform="translate(-1372.29 -135.99)"/><rect class="cls-29" x="107.19" y="42.65" width="182.36" height="13.55" rx="6.77"/><rect class="cls-32" x="109.18" y="44.63" width="159.86" height="9.31" rx="4.65"/><path class="cls-33" d="M1549.67,171.11a2.61,2.61,0,0,1-2.77-1.38,8.24,8.24,0,0,1,.81-3.09q.75-4.6,1.56-9.26c.15-.63-.1-.93-.76-.9a14,14,0,0,1-2.24,0q-1.07,0-2.1,0a4.09,4.09,0,0,1-2-.8c-.56-.33-1.15-.67-1.74-1a4.13,4.13,0,0,1-1.39-1.48,6.81,6.81,0,0,1-1.47-3.62,18.31,18.31,0,0,1,1.47-8.81,8.55,8.55,0,0,1,2.37-3.49,4.3,4.3,0,0,1,1.84-.94,5.85,5.85,0,0,1,1.07-.09,2.59,2.59,0,0,1,1.07-.05,4.26,4.26,0,0,0,1.84,0,5.73,5.73,0,0,0,.76.13h1.12a4.71,4.71,0,0,1,1.83.49l1.61,1.17a7,7,0,0,1,2.69,3.08,4.84,4.84,0,0,0,1,1.35,3.42,3.42,0,0,1,.13,2.1c-.24,1.13-.45,2.27-.63,3.4l-.27,3.67c-.26,1.16-.47,2.32-.62,3.49l-.81,3.76c-.44,2.44-.83,4.89-1.16,7.33a25.06,25.06,0,0,1-.76,3.4,1.78,1.78,0,0,1-.94,1.21A9.26,9.26,0,0,1,1549.67,171.11Zm-2.32-17.8a8.4,8.4,0,0,0,1.34-1.43.4.4,0,0,1,.22-.27.43.43,0,0,0,.23-.23,1.15,1.15,0,0,1,.09-.44,4,4,0,0,0,.31-.45,10.66,10.66,0,0,0,1.12-4.21,14.59,14.59,0,0,0,.4-2,7.61,7.61,0,0,0-.58-2.19,8.29,8.29,0,0,0-1-1.7,9.69,9.69,0,0,0-1.7-1.43,2.3,2.3,0,0,0-3,1.07,9.23,9.23,0,0,0-1.61,3.85,11.8,11.8,0,0,0-.62,4.74,5.41,5.41,0,0,0,.67,1.88,3.07,3.07,0,0,0,1.25,1.25A4.83,4.83,0,0,0,1547.35,153.31Z" transform="translate(-1372.29 -135.99)"/><path class="cls-33" d="M1575.68,171.2a1.73,1.73,0,0,0-1.75-.22h-1.25a9.65,9.65,0,0,1-1.61,0h-1.52a12.63,12.63,0,0,1-1.48.09,4,4,0,0,0-.49-.13,8.69,8.69,0,0,0-.94,0,8.68,8.68,0,0,1-1.25,0,1.77,1.77,0,0,1-1.93-1,3.73,3.73,0,0,1,1.08-2.23,3,3,0,0,1,.76-1c.18-.36.38-.73.62-1.12a7.94,7.94,0,0,1,.72-1,.7.7,0,0,0,.36-.36.28.28,0,0,1,.31-.27,1.66,1.66,0,0,1,.85-1.47,4,4,0,0,0,.94-1.75,30.92,30.92,0,0,0,2.15-4,5.66,5.66,0,0,1,.89-1.79,5.8,5.8,0,0,0,1.12-1.88,3.85,3.85,0,0,1,.4-.94,4.73,4.73,0,0,0,.49-.8,13.5,13.5,0,0,1,.63-2.06c.12-.24.24-.51.36-.8a7,7,0,0,1,.18-1c.18-.77.36-1.56.53-2.37a7.92,7.92,0,0,0-.44-4.38c-.33-.42-.67-.82-1-1.21a2,2,0,0,0-1.79-.76,3.75,3.75,0,0,0-2.46,2.55,16.22,16.22,0,0,0-1.08,4.43,12.15,12.15,0,0,0-.22,2.32,4.38,4.38,0,0,1-.22,2.06,2.56,2.56,0,0,1-2.55.94,3.94,3.94,0,0,1-2.69-.49,4.69,4.69,0,0,1-.36-3.89,18.61,18.61,0,0,1,0-2.24,12.49,12.49,0,0,1,.4-2.37,8.07,8.07,0,0,1,5.5-5.82,11.29,11.29,0,0,1,2-.27,12.53,12.53,0,0,1,2.37.23c.68,0,1.36,0,2,.09a10.22,10.22,0,0,1,2.1.58,8.29,8.29,0,0,1,3.14,2.59,7.62,7.62,0,0,1,1.29,4.12q0,1.17-.09,2.19a10,10,0,0,1-.53,2.37,25.72,25.72,0,0,1-1.61,4.25c-.3.66-.62,1.29-.94,1.88s-.81,1.33-1.17,2-.67,1.3-1,1.93-.72,1.42-1.08,2.1c-.6,1-1.24,2-1.92,3a10.17,10.17,0,0,0-1,1.56c-.32.45-.65.91-1,1.39-.21.3-.47.64-.78,1s-.22.64.29.76l1.34-.09c.72,0,1.43.08,2.15.14,1.31.11,2.65.17,4,.17a4.44,4.44,0,0,1,1.88.14,1.57,1.57,0,0,1,.63,1.21,1.34,1.34,0,0,1-1.57,1.34,17.15,17.15,0,0,1-1.79-.09A9.14,9.14,0,0,0,1575.68,171.2Z" transform="translate(-1372.29 -135.99)"/><path class="cls-33" d="M1592.24,149.15a4.67,4.67,0,0,1-2.06-.36,3.47,3.47,0,0,1-1.3-1.48,6.91,6.91,0,0,1-.36-4.25,16.38,16.38,0,0,1,1.17-4.47,3.51,3.51,0,0,1,1.07-1.43,4.49,4.49,0,0,1,2-.67,10,10,0,0,1,2.15-.32,2.75,2.75,0,0,1,.85.23,1.67,1.67,0,0,0,.76.62c.27.09.54.2.81.32a2.47,2.47,0,0,1,.44.85,8.16,8.16,0,0,1,.59,2.23,15.63,15.63,0,0,1-.32,4.83,4.51,4.51,0,0,1-1.92,3.14A12,12,0,0,1,1592.24,149.15Zm-3,19.32a1,1,0,0,1-.49-.67c.15-.39.32-.77.49-1.16q.58-1.17,1.08-2.37.93-2.28,2-4.57a27.23,27.23,0,0,1,2.23-4.11c.3-.6.59-1.24.85-1.92a18.14,18.14,0,0,1,1.17-2.15,40.36,40.36,0,0,0,2.19-4.12c.59-1.37,1.24-2.77,1.92-4.2a22.47,22.47,0,0,0,.9-2.06,4.72,4.72,0,0,1,1-1.88,1.81,1.81,0,0,1,1.48-.18,3.08,3.08,0,0,1,1.52.31,2.71,2.71,0,0,1-.67,2.73q-1,2.12-1.93,4.21-2.1,4.15-4.38,8.19t-4.29,8.36q-.45,1-.9,2c-.36.66-.72,1.29-1.07,1.88a2.07,2.07,0,0,1-1.17,1,5.7,5.7,0,0,1-1,.27C1589.79,168.19,1589.49,168.32,1589.19,168.47Zm4.34-21.47a12,12,0,0,0,1.08-5.23,9.13,9.13,0,0,0-.36-2.55c-.21-.9-.58-1.14-1.12-.72a8.14,8.14,0,0,0-.62,2.42c-.15,1-.26,1.92-.32,2.9a4.49,4.49,0,0,0,.32,2.28C1592.62,146.73,1593,147,1593.53,147Zm6.45,24.34a4,4,0,0,1-1.7-.54,4.18,4.18,0,0,1-1.21-1.66,8.82,8.82,0,0,1-.58-4.42,16.79,16.79,0,0,1,1-4.66,4.91,4.91,0,0,1,1.65-2.77,5.12,5.12,0,0,1,1.92-.36,14.29,14.29,0,0,0,1.93.58,2,2,0,0,1,1.39.45,4.88,4.88,0,0,1,1.11,1.74,12.56,12.56,0,0,0,.9,1.3,10.62,10.62,0,0,1,.36,2.37,14.32,14.32,0,0,1-.63,4.52A6.36,6.36,0,0,1,1600,171.34Zm1.74-2.2a1.34,1.34,0,0,0,.72-1.34,25.21,25.21,0,0,0,.53-3,8.92,8.92,0,0,0-.18-3.09,7.23,7.23,0,0,0-1.43-2.28,24.8,24.8,0,0,0-1,2.82,12.77,12.77,0,0,0-.14,3.13,7.57,7.57,0,0,0,.63,2.82C1600.93,168.85,1601.21,169.14,1601.72,169.14Z" transform="translate(-1372.29 -135.99)"/></svg>