<svg xmlns="http://www.w3.org/2000/svg" viewBox="0 0 69.85 69.85"><defs><style>.cls-1{fill:#fff;}.cls-2{fill:#4a5f5d;}</style></defs><g id="圖層_2" data-name="圖層 2"><g id="圖層_10" data-name="圖層 10"><path class="cls-1" d="M32.66,12.47H20V57.38h8.86V40.2h4q19.59,0,19.59-13.86T32.66,12.47Zm2.41,19.66H28.86V20.49h6.21q8.15,0,8.14,5.85T35.07,32.13Z"/><path class="cls-2" d="M43.21,26.34q0,5.79-8.14,5.79H28.86V20.49h6.21Q43.22,20.49,43.21,26.34Z"/><path class="cls-2" d="M55.68,0H14.18A14.18,14.18,0,0,0,0,14.18v41.5A14.17,14.17,0,0,0,14.18,69.85h41.5A14.17,14.17,0,0,0,69.85,55.68V14.18A14.18,14.18,0,0,0,55.68,0ZM32.9,40.2h-4V57.38H20V12.47H32.66q19.83,0,19.83,13.87T32.9,40.2Z"/></g></g></svg>