<svg xmlns="http://www.w3.org/2000/svg" viewBox="0 0 36.95 32.98"><defs><style>.cls-1{fill:#da8b2e;}.cls-2{fill:#fff;}.cls-3{fill:#040000;}</style></defs><g id="圖層_2" data-name="圖層 2"><g id="圖層_10" data-name="圖層 10"><rect class="cls-1" x="26.4" y="2.97" width="5.86" height="10.66"/><rect class="cls-2" x="2.98" y="2.97" width="5.12" height="10.66"/><rect class="cls-1" x="8.1" y="2.97" width="5.12" height="10.66"/><rect class="cls-2" x="13.22" y="2.97" width="5.12" height="10.66"/><rect class="cls-1" x="18.35" y="2.97" width="5.12" height="10.66"/><rect class="cls-2" x="23.47" y="2.97" width="5.12" height="10.66"/><rect class="cls-1" x="28.59" y="2.97" width="5.69" height="10.66"/><path class="cls-3" d="M36.93,8.3c.32,6.86-2.46,8.67-12.09,8.91H3V33L0,33V0H24.62C34.48.24,36.58.85,36.93,8.3Zm-2.65,0Q34.28,3,26.83,3H3V13.62H26.83Q34.29,13.62,34.28,8.32Z"/></g></g></svg>