<svg xmlns="http://www.w3.org/2000/svg" viewBox="0 0 757.78 718.19"><defs><style>.cls-1{fill:#fbeed7;}.cls-2{fill:#63564d;}.cls-3{fill:#faedd6;}</style></defs><g id="圖層_2" data-name="圖層 2"><g id="圖層_2-2" data-name="圖層 2"><rect class="cls-1" x="3.08" y="3.08" width="751.62" height="712.04"/><path class="cls-2" d="M754.7,712.12H33.59c-9.63,0-19.63-.78-29.23,0-.42,0-.86,0-1.28,0l3,3V13.74c0-3.1.29-6.37,0-9.46,0-.4,0-.81,0-1.2l-3,3H724.19c9.62,0,19.62.78,29.23,0,.42,0,.85,0,1.28,0l-3-3V686.22c0,9.23-.19,18.47,0,27.7,0,.4,0,.8,0,1.2,0,3.85,6,3.86,6,0V32c0-9.22.19-18.47,0-27.69,0-.4,0-.8,0-1.2a3,3,0,0,0-3-3H33.59c-9.74,0-19.5-.18-29.23,0H3.08a3,3,0,0,0-3,3V686.22c0,9.23-.2,18.47,0,27.7v1.2a3,3,0,0,0,3,3H724.19c9.73,0,19.49.18,29.23,0h1.28C758.55,718.11,758.56,712.12,754.7,712.12Z"/><rect class="cls-1" x="68.05" y="3.08" width="207.23" height="94.01"/><path class="cls-2" d="M275.28,94.05H76.47c-2.68,0-5.39-.11-8.08,0-.11,0-.22,0-.34,0l3,3V6.94c0-1.22.09-2.48,0-3.69V3.08l-3,3H266.86c2.68,0,5.39.11,8.07,0,.12,0,.23,0,.35,0l-3-3V85.49c0,3.8-.13,7.63,0,11.42a1.08,1.08,0,0,1,0,.18c0,3.9,6.07,3.9,6.07,0V14.67c0-3.8.14-7.63,0-11.42V3.08a3.08,3.08,0,0,0-3-3H76.47c-2.69,0-5.39,0-8.08,0-.11,0-.22,0-.34,0a3.08,3.08,0,0,0-3,3V85.49c0,3.8-.14,7.63,0,11.42v.18a3.08,3.08,0,0,0,3,3H266.86c2.69,0,5.38,0,8.07,0h.35C279.18,100.12,279.18,94.05,275.28,94.05Z"/><rect class="cls-1" x="275.28" y="3.08" width="207.23" height="94.01"/><path class="cls-2" d="M482.5,94.05H283.69c-2.68,0-5.39-.11-8.07,0-.11,0-.23,0-.34,0l3,3V6.94c0-1.22.09-2.48,0-3.69a1,1,0,0,1,0-.17l-3,3h198.8c2.69,0,5.4.11,8.08,0,.11,0,.23,0,.34,0l-3-3V85.49c0,3.8-.14,7.63,0,11.43v.17c0,3.9,6.06,3.9,6.06,0V14.67c0-3.8.14-7.63,0-11.42V3.08a3.08,3.08,0,0,0-3-3H283.69c-2.68,0-5.38,0-8.07,0-.11,0-.23,0-.34,0a3.08,3.08,0,0,0-3,3V85.49c0,3.8-.13,7.63,0,11.42a1.08,1.08,0,0,1,0,.18,3.08,3.08,0,0,0,3,3h198.8c2.69,0,5.39,0,8.08,0h.34C486.4,100.12,486.41,94.05,482.5,94.05Z"/><rect class="cls-1" x="482.5" y="3.08" width="207.23" height="94.01"/><path class="cls-2" d="M689.73,94.05H490.92c-2.68,0-5.39-.11-8.07,0-.12,0-.23,0-.35,0l3,3V6.94c0-1.22.09-2.48,0-3.69V3.08l-3,3H681.31c2.68,0,5.39.11,8.07,0,.12,0,.23,0,.35,0l-3-3V85.49c0,3.8-.13,7.63,0,11.43a1,1,0,0,1,0,.17c0,3.9,6.07,3.9,6.07,0V14.67c0-3.8.14-7.63,0-11.42V3.08a3.08,3.08,0,0,0-3-3H490.92c-2.69,0-5.39,0-8.07,0-.12,0-.23,0-.35,0a3.08,3.08,0,0,0-3,3V85.49c0,3.8-.14,7.63,0,11.43v.17a3.08,3.08,0,0,0,3,3H681.31c2.69,0,5.38,0,8.07,0h.35C693.63,100.12,693.64,94.05,689.73,94.05Z"/><rect class="cls-1" x="101.13" y="621.11" width="207.23" height="94.01"/><path class="cls-2" d="M308.36,712.08H109.55c-2.68,0-5.39-.11-8.07,0h-.35l3,3V625c0-1.22.09-2.48,0-3.69a1,1,0,0,1,0-.17l-3,3H299.94c2.68,0,5.39.11,8.07,0h.35l-3-3v82.41c0,3.8-.14,7.63,0,11.43v.17c0,3.9,6.06,3.91,6.06,0V632.7c0-3.8.14-7.62,0-11.42v-.17a3.08,3.08,0,0,0-3-3H109.55c-2.69,0-5.38-.05-8.07,0h-.35a3.08,3.08,0,0,0-3,3v82.41c0,3.8-.14,7.63,0,11.43v.17a3.07,3.07,0,0,0,3,3H299.94c2.69,0,5.39.06,8.07,0h.35C312.26,718.15,312.27,712.08,308.36,712.08Z"/><rect class="cls-1" x="308.36" y="621.11" width="207.23" height="94.01"/><path class="cls-2" d="M515.58,712.08H316.78c-2.69,0-5.4-.11-8.08,0h-.34l3,3V625c0-1.22.09-2.48,0-3.69v-.17l-3,3H507.17c2.68,0,5.39.11,8.07,0h.34l-3-3v82.41c0,3.8-.14,7.63,0,11.43v.17c0,3.9,6.07,3.91,6.07,0V632.7c0-3.8.13-7.62,0-11.42a1,1,0,0,1,0-.17,3.08,3.08,0,0,0-3-3H316.78c-2.69,0-5.39-.06-8.08,0h-.34a3.07,3.07,0,0,0-3,3v82.41c0,3.8-.14,7.63,0,11.43v.17a3.07,3.07,0,0,0,3,3H507.17c2.68,0,5.38.06,8.07,0h.34C519.49,718.15,519.49,712.08,515.58,712.08Z"/><rect class="cls-1" x="515.58" y="621.11" width="207.23" height="94.01"/><path class="cls-2" d="M722.81,712.08H524c-2.68,0-5.39-.11-8.07,0h-.35l3,3V625c0-1.22.09-2.48,0-3.69a1,1,0,0,1,0-.17l-3,3H714.39c2.68,0,5.39.11,8.07,0h.35l-3-3v82.41c0,3.8-.14,7.63,0,11.43v.17c0,3.9,6.06,3.91,6.06,0V632.7c0-3.8.14-7.62,0-11.42v-.17a3.07,3.07,0,0,0-3-3H524c-2.69,0-5.38-.06-8.07,0h-.35a3.07,3.07,0,0,0-3,3v82.41c0,3.8-.14,7.63,0,11.43v.17a3.07,3.07,0,0,0,3,3H714.39c2.69,0,5.39.06,8.07,0h.35C726.71,718.15,726.72,712.08,722.81,712.08Z"/><polygon class="cls-1" points="298.76 318.27 298.76 400.36 3.08 400.36 3.08 317.83 298.76 318.27"/><path class="cls-2" d="M295.8,318.27v82.09l3-3H15.08c-3.82,0-7.68-.15-11.5,0-.16,0-.33,0-.5,0l3,3V317.83l-3,3h8l21.45,0,31.93.05,38.68.06,42.66.06,42.77.07,40.15.06,33.7.05,24.4,0c3.83,0,7.66.08,11.49,0h.5c3.81,0,3.81-5.91,0-5.92h-7.95l-21.45,0-31.93,0-38.68-.06-42.66-.06L113.32,315,73.17,315l-33.7-.05-24.4,0c-3.83,0-7.66-.08-11.49,0h-.5a3,3,0,0,0-3,3v82.53a3,3,0,0,0,3,3H286.76c3.83,0,7.66.07,11.5,0h.5a3,3,0,0,0,3-3V318.27C301.72,314.46,295.8,314.46,295.8,318.27Z"/><line class="cls-1" x1="23.66" y1="318.19" x2="23.66" y2="400.36"/><path class="cls-2" d="M20.63,318.19v82.17c0,3.91,6.07,3.91,6.07,0V318.19c0-3.9-6.07-3.91-6.07,0Z"/><line class="cls-1" x1="44.89" y1="318.19" x2="44.89" y2="400.36"/><path class="cls-2" d="M41.86,318.19v82.17c0,3.91,6.06,3.91,6.06,0V318.19c0-3.9-6.06-3.91-6.06,0Z"/><line class="cls-1" x1="66.12" y1="318.19" x2="66.12" y2="400.36"/><path class="cls-2" d="M63.09,318.19v82.17c0,3.91,6.06,3.91,6.06,0V318.19c0-3.9-6.06-3.91-6.06,0Z"/><line class="cls-1" x1="87.35" y1="318.19" x2="87.35" y2="400.36"/><path class="cls-2" d="M84.32,318.19v82.17c0,3.91,6.06,3.91,6.06,0V318.19c0-3.9-6.06-3.91-6.06,0Z"/><line class="cls-1" x1="108.58" y1="318.19" x2="108.58" y2="400.36"/><path class="cls-2" d="M105.54,318.19v82.17c0,3.91,6.07,3.91,6.07,0V318.19c0-3.9-6.07-3.91-6.07,0Z"/><line class="cls-1" x1="129.8" y1="318.19" x2="129.8" y2="400.36"/><path class="cls-2" d="M126.77,318.19v82.17c0,3.91,6.07,3.91,6.07,0V318.19c0-3.9-6.07-3.91-6.07,0Z"/><line class="cls-1" x1="151.03" y1="318.19" x2="151.03" y2="400.36"/><path class="cls-2" d="M148,318.19v82.17c0,3.91,6.06,3.91,6.06,0V318.19c0-3.9-6.06-3.91-6.06,0Z"/><line class="cls-1" x1="172.26" y1="318.19" x2="172.26" y2="400.36"/><path class="cls-2" d="M169.23,318.19v82.17c0,3.91,6.06,3.91,6.06,0V318.19c0-3.9-6.06-3.91-6.06,0Z"/><line class="cls-1" x1="193.49" y1="318.19" x2="193.49" y2="400.36"/><path class="cls-2" d="M190.46,318.19v82.17c0,3.91,6.06,3.91,6.06,0V318.19c0-3.9-6.06-3.91-6.06,0Z"/><line class="cls-1" x1="214.72" y1="318.19" x2="214.72" y2="400.36"/><path class="cls-2" d="M211.68,318.19v82.17c0,3.91,6.07,3.91,6.07,0V318.19c0-3.9-6.07-3.91-6.07,0Z"/><line class="cls-1" x1="235.94" y1="318.19" x2="235.94" y2="400.36"/><path class="cls-2" d="M232.91,318.19v82.17c0,3.91,6.07,3.91,6.07,0V318.19c0-3.9-6.07-3.91-6.07,0Z"/><line class="cls-1" x1="257.17" y1="318.19" x2="257.17" y2="400.36"/><path class="cls-2" d="M254.14,318.19v82.17c0,3.91,6.06,3.91,6.06,0V318.19c0-3.9-6.06-3.91-6.06,0Z"/><line class="cls-1" x1="278.4" y1="318.19" x2="278.4" y2="400.36"/><path class="cls-2" d="M275.37,318.19v82.17c0,3.91,6.06,3.91,6.06,0V318.19c0-3.9-6.06-3.91-6.06,0Z"/><rect class="cls-3" x="298.86" y="269.78" width="63.59" height="48.16"/><path class="cls-2" d="M362.45,266.86H298.86a3,3,0,0,0-2.91,2.92v48.16a3,3,0,0,0,2.91,2.91h63.59a3,3,0,0,0,2.92-2.91V269.78c0-3.76-5.83-3.76-5.83,0v48.16l2.91-2.92H298.86l2.92,2.92V269.78l-2.92,2.91h63.59C366.21,272.69,366.21,266.86,362.45,266.86Z"/></g></g></svg>