<svg xmlns="http://www.w3.org/2000/svg" viewBox="0 0 790.18 691.17"><defs><style>.cls-1{fill:#fdf0d8;}.cls-2{fill:#63564e;}</style></defs><g id="圖層_2" data-name="圖層 2"><g id="圖層_2-2" data-name="圖層 2"><rect class="cls-1" x="3.09" y="3.08" width="784" height="685"/><path class="cls-2" d="M787.09,685.08H34.92c-10,0-20.49-.83-30.5,0-.43,0-.89,0-1.33,0l3,3V13.35a87.08,87.08,0,0,0,0-9.14,10.65,10.65,0,0,1,0-1.13l-3,3H755.27c10,0,20.48.84,30.49,0,.44,0,.89,0,1.33,0l-3-3V660.3c0,8.88-.2,17.78,0,26.65,0,.38,0,.76,0,1.13,0,3.86,6,3.87,6,0V30.87c0-8.88.21-17.78,0-26.66,0-.37,0-.75,0-1.13a3,3,0,0,0-3-3H34.92C24.76.08,14.58-.1,4.42.08H3.09a3,3,0,0,0-3,3V660.3c0,8.88-.2,17.78,0,26.65,0,.38,0,.76,0,1.13a3,3,0,0,0,3,3H755.27c10.15,0,20.33.19,30.49,0h1.33C791,691.08,791,685.08,787.09,685.08Z"/><rect class="cls-1" x="3.09" y="3.08" width="205" height="93"/><path class="cls-2" d="M208.09,93.08H11.44c-2.66,0-5.35-.12-8,0-.12,0-.23,0-.35,0l3,3V6.89c0-1.2.09-2.45,0-3.65V3.08l-3,3H199.74c2.66,0,5.35.13,8,0h.35l-3-3V84.61c0,3.76-.14,7.55,0,11.31v.16c0,3.86,6,3.87,6,0V14.56c0-3.76.14-7.55,0-11.32V3.08a3,3,0,0,0-3-3H11.44c-2.66,0-5.34,0-8,0H3.09a3,3,0,0,0-3,3V84.61c0,3.76-.14,7.55,0,11.31v.16a3,3,0,0,0,3,3H199.74c2.67,0,5.34.06,8,0h.35C212,99.08,212,93.08,208.09,93.08Z"/><rect class="cls-1" x="208.09" y="3.08" width="205" height="93"/><path class="cls-2" d="M413.09,93.08H216.43c-2.65,0-5.34-.12-8,0-.12,0-.23,0-.35,0l3,3V6.89c0-1.2.09-2.45,0-3.65V3.08l-3,3H404.75c2.66,0,5.34.13,8,0h.35l-3-3V84.61c0,3.76-.14,7.55,0,11.31v.16c0,3.86,6,3.87,6,0V14.56c0-3.76.14-7.55,0-11.32V3.08a3,3,0,0,0-3-3H216.43c-2.66,0-5.33,0-8,0h-.35a3,3,0,0,0-3,3V84.61c0,3.76-.14,7.55,0,11.31v.16a3,3,0,0,0,3,3H404.75c2.67,0,5.33.06,8,0h.35C417,99.08,417,93.08,413.09,93.08Z"/><rect class="cls-1" x="413.09" y="3.08" width="205" height="93"/><path class="cls-2" d="M618.09,93.08H421.44c-2.66,0-5.35-.12-8,0-.12,0-.23,0-.35,0l3,3V6.89c0-1.2.09-2.45,0-3.65V3.08l-3,3H609.74c2.66,0,5.35.13,8,0h.35l-3-3V84.61c0,3.76-.14,7.55,0,11.31v.16c0,3.86,6,3.87,6,0V14.56c0-3.76.14-7.55,0-11.32V3.08a3,3,0,0,0-3-3H421.44c-2.66,0-5.34,0-8,0h-.35a3,3,0,0,0-3,3V84.61c0,3.76-.14,7.55,0,11.31v.16a3,3,0,0,0,3,3H609.74c2.67,0,5.34.06,8,0h.35C622,99.08,622,93.08,618.09,93.08Z"/><rect class="cls-1" x="3.09" y="595.08" width="205" height="93"/><path class="cls-2" d="M208.09,685.08H11.44c-2.66,0-5.35-.12-8,0H3.09l3,3V598.89c0-1.2.09-2.45,0-3.65v-.16l-3,3H199.74c2.66,0,5.35.13,8,0h.35l-3-3v81.53c0,3.76-.14,7.55,0,11.31v.16c0,3.86,6,3.87,6,0V606.56c0-3.76.14-7.55,0-11.32v-.16a3,3,0,0,0-3-3H11.44c-2.66,0-5.34-.05-8,0H3.09a3,3,0,0,0-3,3v81.53c0,3.76-.14,7.55,0,11.31v.16a3,3,0,0,0,3,3H199.74c2.67,0,5.34.06,8,0h.35C212,691.08,212,685.08,208.09,685.08Z"/><rect class="cls-1" x="305.09" y="595.08" width="205" height="93"/><path class="cls-2" d="M510.09,685.08H313.44c-2.66,0-5.35-.12-8,0h-.35l3,3V598.89c0-1.2.09-2.45,0-3.65v-.16l-3,3H501.74c2.66,0,5.35.13,8,0h.35l-3-3v81.53c0,3.76-.14,7.55,0,11.31v.16c0,3.86,6,3.87,6,0V606.56c0-3.76.14-7.55,0-11.32v-.16a3,3,0,0,0-3-3H313.44c-2.66,0-5.34-.05-8,0h-.35a3,3,0,0,0-3,3v81.53c0,3.76-.14,7.55,0,11.31v.16a3,3,0,0,0,3,3H501.74c2.67,0,5.34.06,8,0h.35C514,691.08,514,685.08,510.09,685.08Z"/><rect class="cls-1" x="510.09" y="595.08" width="205" height="93"/><path class="cls-2" d="M715.09,685.08H518.44c-2.66,0-5.35-.12-8,0h-.35l3,3V598.89c0-1.2.09-2.45,0-3.65v-.16l-3,3H706.74c2.66,0,5.35.13,8,0h.35l-3-3v81.53c0,3.76-.14,7.55,0,11.31v.16c0,3.86,6,3.87,6,0V606.56c0-3.76.14-7.55,0-11.32v-.16a3,3,0,0,0-3-3H518.44c-2.66,0-5.34-.05-8,0h-.35a3,3,0,0,0-3,3v81.53c0,3.76-.14,7.55,0,11.31v.16a3,3,0,0,0,3,3H706.74c2.67,0,5.34.06,8,0h.35C719,691.08,719,685.08,715.09,685.08Z"/><rect class="cls-1" x="131.09" y="239.16" width="379" height="164.03"/><path class="cls-2" d="M510.09,400.18H146.48c-4.9,0-9.86-.24-14.74,0h-.65l3,3V245.84a61.91,61.91,0,0,0,0-6.39,2.8,2.8,0,0,1,0-.29l-3,3H494.71c4.89,0,9.85.23,14.74,0h.64l-3-3V383c0,6.61-.26,13.29,0,19.9a2.81,2.81,0,0,1,0,.29c0,3.86,6,3.87,6,0V259.35c0-6.62.26-13.29,0-19.9v-.29a3,3,0,0,0-3-3H146.48c-4.91,0-9.83-.09-14.74,0h-.65a3,3,0,0,0-3,3V383c0,6.61-.26,13.29,0,19.9a2.81,2.81,0,0,1,0,.29,3,3,0,0,0,3,3H494.71c4.91,0,9.83.09,14.74,0h.64C514,406.18,514,400.18,510.09,400.18Z"/><rect class="cls-1" x="438.09" y="239.08" width="72" height="50.71"/><path class="cls-2" d="M438.09,292.79h72a3,3,0,0,0,3-3V239.08a3,3,0,0,0-3-3h-72a3,3,0,0,0-3,3v50.71c0,3.86,6,3.87,6,0V239.08l-3,3h72l-3-3v50.71l3-3h-72C434.23,286.79,434.22,292.79,438.09,292.79Z"/><polygon class="cls-1" points="438.09 289.88 438.09 371.08 131.09 371.08 131.09 289.44 438.09 289.88"/><path class="cls-2" d="M435.09,289.87v81.21l3-3H143.54c-4,0-8-.16-11.93,0h-.52l3,3V289.43l-3,3,8.26,0,22.27,0,33.15,0,40.16.05,44.29.07,44.41.06,41.69.06,35,.05,25.34,0c4,0,8,.08,11.92,0h.52c3.86,0,3.87-6,0-6h-8.26l-22.27,0-33.14-.05-40.17,0L290,286.66l-44.41-.06-41.68-.06-35-.05-25.33,0c-4,0-8-.08-11.93,0h-.52a3,3,0,0,0-3,3v81.65a3,3,0,0,0,3,3H425.65c4,0,8,.07,11.92,0h.52a3,3,0,0,0,3-3V289.87C441.09,286,435.09,286,435.09,289.87Z"/><line class="cls-1" x1="151.45" y1="289.79" x2="151.45" y2="371.08"/><path class="cls-2" d="M148.45,289.79v81.29c0,3.86,6,3.87,6,0V289.79c0-3.86-6-3.86-6,0Z"/><line class="cls-1" x1="172.45" y1="289.79" x2="172.45" y2="371.08"/><path class="cls-2" d="M169.45,289.79v81.29c0,3.86,6,3.87,6,0V289.79c0-3.86-6-3.86-6,0Z"/><line class="cls-1" x1="193.45" y1="289.79" x2="193.45" y2="371.08"/><path class="cls-2" d="M190.45,289.79v81.29c0,3.86,6,3.87,6,0V289.79c0-3.86-6-3.86-6,0Z"/><line class="cls-1" x1="214.45" y1="289.79" x2="214.45" y2="371.08"/><path class="cls-2" d="M211.45,289.79v81.29c0,3.86,6,3.87,6,0V289.79c0-3.86-6-3.86-6,0Z"/><line class="cls-1" x1="235.45" y1="289.79" x2="235.45" y2="371.08"/><path class="cls-2" d="M232.45,289.79v81.29c0,3.86,6,3.87,6,0V289.79c0-3.86-6-3.86-6,0Z"/><line class="cls-1" x1="256.45" y1="289.79" x2="256.45" y2="371.08"/><path class="cls-2" d="M253.45,289.79v81.29c0,3.86,6,3.87,6,0V289.79c0-3.86-6-3.86-6,0Z"/><line class="cls-1" x1="277.45" y1="289.79" x2="277.45" y2="371.08"/><path class="cls-2" d="M274.45,289.79v81.29c0,3.86,6,3.87,6,0V289.79c0-3.86-6-3.86-6,0Z"/><line class="cls-1" x1="298.45" y1="289.79" x2="298.45" y2="371.08"/><path class="cls-2" d="M295.45,289.79v81.29c0,3.86,6,3.87,6,0V289.79c0-3.86-6-3.86-6,0Z"/><line class="cls-1" x1="319.45" y1="289.79" x2="319.45" y2="371.08"/><path class="cls-2" d="M316.45,289.79v81.29c0,3.86,6,3.87,6,0V289.79c0-3.86-6-3.86-6,0Z"/><line class="cls-1" x1="340.45" y1="289.79" x2="340.45" y2="371.08"/><path class="cls-2" d="M337.45,289.79v81.29c0,3.86,6,3.87,6,0V289.79c0-3.86-6-3.86-6,0Z"/><line class="cls-1" x1="361.45" y1="289.79" x2="361.45" y2="371.08"/><path class="cls-2" d="M358.45,289.79v81.29c0,3.86,6,3.87,6,0V289.79c0-3.86-6-3.86-6,0Z"/><line class="cls-1" x1="382.45" y1="289.79" x2="382.45" y2="371.08"/><path class="cls-2" d="M379.45,289.79v81.29c0,3.86,6,3.87,6,0V289.79c0-3.86-6-3.86-6,0Z"/><line class="cls-1" x1="403.45" y1="289.79" x2="403.45" y2="371.08"/><path class="cls-2" d="M400.45,289.79v81.29c0,3.86,6,3.87,6,0V289.79c0-3.86-6-3.86-6,0Z"/></g></g></svg>