<svg id="圖層_6" data-name="圖層 6" xmlns="http://www.w3.org/2000/svg" viewBox="0 0 1112.76 588.76"><defs><style>.cls-1{opacity:0.4;}.cls-2{fill:#eee6db;}.cls-3{fill:#3b3832;}.cls-4{fill:#ebd9c1;opacity:0.6;}.cls-5{opacity:0.49;}.cls-6{fill:#8fadad;}.cls-7{fill:#040000;}.cls-8{fill:#3a3832;}.cls-9{fill:#395a5a;}.cls-10{fill:#549594;}.cls-11{fill:#393832;}.cls-12{fill:#3b7071;}.cls-13{fill:#55637c;}.cls-14{fill:#d37e6f;}.cls-15{fill:#fff;}.cls-16{fill:#e7c694;}.cls-17{fill:#5b8985;}.cls-18{opacity:0.5;}.cls-19{fill:#ac5f51;}.cls-20{fill:#c97160;}</style></defs><title>回饋</title><g class="cls-1"><ellipse class="cls-2" cx="177.2" cy="262.71" rx="119.5" ry="147.78"/><path class="cls-3" d="M1223,1622.18c-.23,54.15-25.39,113.28-77,137a97.63,97.63,0,0,1-72.66,3.46c-24.53-8.56-44.83-26.58-59-48.07-32.1-48.67-35.17-115.48-9.71-167.65,11.47-23.51,29-44.49,52-57.49a98.29,98.29,0,0,1,72.08-10.25c53.88,13.48,86.37,68.08,92.92,120.25a188.68,188.68,0,0,1,1.41,22.79c0,2.42,3.78,2.42,3.77,0-.23-55.73-26.51-116.94-80-140.73a101.41,101.41,0,0,0-74.45-3.33c-24.85,8.67-45.48,26.53-60.15,48.13-33.91,50-37.16,119.21-10.83,173.12,11.84,24.23,30.14,45.88,53.85,59.14a102.25,102.25,0,0,0,73.86,10.49c55.37-13.47,89-69.09,96.08-122.56a191.06,191.06,0,0,0,1.61-24.26C1226.76,1619.75,1223,1619.75,1223,1622.18Z" transform="translate(-928.17 -1359.47)"/></g><path class="cls-4" d="M2040.93,1359.47v588.76L1102.7,1769.6v-.21c61-.17,110.48-66.27,110.48-147.78s-49.57-147.78-110.72-147.78c-1.78,0-3.55.05-5.31.16v-.16Z" transform="translate(-928.17 -1359.47)"/><g class="cls-5"><path class="cls-6" d="M1102.87,1769.75c-65.7,0-119.15-66.14-119.15-147.43,0-78.87,49.83-143.55,113.44-147.27,1.87-.11,3.79-.17,5.71-.17,65.7,0,119.14,66.14,119.14,147.44,0,81.11-53.33,147.25-118.88,147.43Z" transform="translate(-928.17 -1359.47)"/><path class="cls-7" d="M1102.87,1475.24c31.7,0,61.51,15.28,84,43s34.84,64.74,34.84,104.06-12.34,76.17-34.76,104-52.12,43-83.77,43.12h-.26c-31.7,0-61.52-15.28-83.95-43s-34.85-64.74-34.85-104c0-38.09,11.72-74.21,33-101.71s49.62-43.42,80.12-45.21c1.88-.11,3.79-.16,5.69-.16m0-.71c-1.92,0-3.83.06-5.73.17-63.34,3.7-113.77,68.37-113.77,147.62,0,81.61,53.5,147.78,119.5,147.78h.26c65.88-.18,119.23-66.27,119.23-147.78s-53.5-147.79-119.49-147.79Z" transform="translate(-928.17 -1359.47)"/></g><path class="cls-8" d="M1230.51,1839.07l-125.13,45.68-68.05,24.85-8,2.93a7.31,7.31,0,0,0-2,.72c-.79.73-.76-.72.78.17-2.1-1.22-4.86-1.8-7.13-2.64l-16.43-6.06-72.92-26.94V1883l125.13-45.68,68-24.85,8-2.93a7.31,7.31,0,0,0,2-.72c.79-.73.76.73-.78-.17,2.1,1.22,4.86,1.8,7.13,2.64l16.43,6.07,72.92,26.94c3.3,1.21,4.72-4,1.45-5.26l-64.38-23.78-30.29-11.2c-3.4-1.25-5.55.09-8.87,1.3L980.79,1859.3l-50.62,18.48a2.75,2.75,0,0,0,0,5.25l64.37,23.79,30.3,11.19c3.39,1.25,5.55-.09,8.87-1.3l147.63-53.9,50.62-18.48C1235.23,1843.13,1233.82,1837.86,1230.51,1839.07Z" transform="translate(-928.17 -1359.47)"/><polygon class="cls-9" points="3.46 490.6 2.73 520.94 99.32 556.62 100.05 526.28 3.46 490.6"/><path class="cls-8" d="M928.89,1850.07l-.72,30.33a2.79,2.79,0,0,0,2,2.63l84.69,31.29,11.9,4.4c1.72.63,3.41-1,3.45-2.63l.73-30.34a2.8,2.8,0,0,0-2-2.63l-84.69-31.28-11.9-4.4c-3.3-1.22-4.72,4-1.45,5.26l84.68,31.28,11.91,4.4-2-2.63-.72,30.34,3.45-2.63-84.69-31.29-11.9-4.39,2,2.62.73-30.33C934.43,1846.56,929,1846.56,928.89,1850.07Z" transform="translate(-928.17 -1359.47)"/><polygon class="cls-10" points="303.07 482.23 303.8 451.89 100.05 526.28 99.32 556.62 303.07 482.23"/><path class="cls-11" d="M1234,1841.7l.73-30.34a2.74,2.74,0,0,0-3.45-2.63l-68.68,25.07-110,40.16-25.1,9.16a2.86,2.86,0,0,0-2,2.63l-.72,30.34a2.75,2.75,0,0,0,3.45,2.63l68.67-25.08,110-40.15,25.11-9.16c3.27-1.2,1.86-6.47-1.45-5.26l-68.67,25.07-110,40.15-25.1,9.17,3.45,2.63.73-30.34-2,2.63,68.67-25.07,110-40.15,25.11-9.17-3.45-2.63-.73,30.34C1228.42,1845.21,1233.88,1845.21,1234,1841.7Z" transform="translate(-928.17 -1359.47)"/><polygon class="cls-10" points="303.8 451.89 100.05 526.28 3.46 490.6 207.21 416.21 303.8 451.89"/><path class="cls-8" d="M1231.24,1808.73l-125.13,45.69-68,24.84-8,2.93a7.33,7.33,0,0,0-2,.73c-.8.73-.77-.73.78.16-2.1-1.21-4.86-1.79-7.14-2.63l-16.42-6.07-72.92-26.94v5.26L1057.48,1807l68-24.84,8-2.94a6.78,6.78,0,0,0,2-.72c.8-.73.77.73-.78-.17,2.1,1.22,4.87,1.8,7.14,2.64l16.43,6.07,72.92,26.94c3.29,1.22,4.72-4,1.45-5.26L1168.31,1785,1138,1773.76c-3.4-1.26-5.55.08-8.88,1.3L981.51,1829l-50.61,18.48a2.75,2.75,0,0,0,0,5.26l64.37,23.78,30.29,11.19c3.4,1.26,5.56-.09,8.88-1.3l147.63-53.9,50.62-18.48C1236,1812.79,1234.54,1807.52,1231.24,1808.73Z" transform="translate(-928.17 -1359.47)"/><path class="cls-10" d="M1051,1575.45s-34.21,4-38.25,39.18,19.12,46.64,19.12,46.64l16.47,9.79-13.77,159.08,29.73,9.9,38.53-14.31-18.72-142.5s52.3,2.13,52.85-46.85-25.32-58.35-25.32-58.35S1098.22,1567.91,1051,1575.45Z" transform="translate(-928.17 -1359.47)"/><path class="cls-3" d="M1051,1573.39c-16.09,2-31.07,13-37.1,28.08-8,20.08-3.8,48.31,15.43,60.69,5.85,3.76,12,7.12,18,10.67l-1-1.77-12,139.23-1.72,19.85a2.08,2.08,0,0,0,1.51,2l19.08,6.36c3.85,1.28,8.88,4.27,12.92,3.11,12.65-3.65,25-9.29,37.35-13.88a2.09,2.09,0,0,0,1.51-2l-16.4-124.85-2.32-17.65-2.06,2.06a64.67,64.67,0,0,0,26-4.83,44.8,44.8,0,0,0,28.39-37c2.36-19.3-1.18-42.84-14.18-58.08a35,35,0,0,0-10.14-8.41c-2.18-1.14-1.21-.69-3.42-1.76-5.31-2.6-11.47-3.52-17.28-4.1-14.34-1.44-28.9.14-43.07,2.35-2.6.4-1.5,4.36,1.09,4,17.37-2.71,38.5-5.76,55.54.66a30.82,30.82,0,0,1,10.62,6.35c13.35,11.9,16.95,31.49,17.2,48.5.26,18.17-6.45,34.33-23.42,42.47a59.79,59.79,0,0,1-27.37,5.77,2.06,2.06,0,0,0-2,2l16.4,124.86,2.31,17.64,1.51-2c-12.22,4.54-24.75,8.61-36.77,13.66a8.76,8.76,0,0,1-1.73.64c1.45-.25.77,0-.26-.43-3.21-1.47-6.9-2.3-10.24-3.41l-18.16-6.06,1.51,2,12-139.24,1.72-19.84a2,2,0,0,0-1-1.78c-9.83-5.84-21.24-10.76-27.78-20.6-13.55-20.39-8.63-52.22,12.84-65a48.48,48.48,0,0,1,11.7-5c1.23-.34,2.46-.64,3.7-.89.29-.06,2.1-.33,1.17-.22C1053.56,1577.19,1053.59,1573.07,1051,1573.39Z" transform="translate(-928.17 -1359.47)"/><ellipse class="cls-12" cx="162.95" cy="268.65" rx="37" ry="41.83"/><path class="cls-3" d="M1126.07,1628.12c-.24,15.26-7.91,30.84-22.44,37.17s-30.83.41-39.72-12.19a44.37,44.37,0,0,1-2.76-45.45c7.07-13.34,21.82-22.09,37-18.49,17.64,4.16,27.62,21.79,27.89,39,0,2.64,4.15,2.65,4.11,0-.27-17.26-9.29-34.61-25.87-41.3-15.78-6.37-33.23-.15-43.18,13.2-10.74,14.41-11.92,34.85-3.53,50.65,7.78,14.63,23.8,23.92,40.44,20.65,20.07-3.94,31.84-23.87,32.14-43.2C1130.22,1625.48,1126.11,1625.48,1126.07,1628.12Z" transform="translate(-928.17 -1359.47)"/><polygon class="cls-13" points="11.38 424.29 20.87 420.81 20.87 458.17 11.38 461.95 11.38 424.29"/><path class="cls-8" d="M940.09,1785.74l9.5-3.48-2.6-2v37.36l1.5-2-9.49,3.78,2.6,2v-37.66c0-2.64-4.11-2.65-4.11,0v37.66a2.07,2.07,0,0,0,2.6,2l9.5-3.78a2.15,2.15,0,0,0,1.51-2v-37.36a2.08,2.08,0,0,0-2.61-2l-9.49,3.48C936.54,1782.68,937.6,1786.66,940.09,1785.74Z" transform="translate(-928.17 -1359.47)"/><path class="cls-14" d="M1207.78,1699.25c3.47-3.21,12.22-7.47,15.62.08,0,0,3.33,7.78-4.86,14.36a54.17,54.17,0,0,0-10.82,11.7c.21.31-8.55-9.81-11.72-13.74-3-3.74-8-13-2.57-16.22s14.35,3.82,14.35,3.82" transform="translate(-928.17 -1359.47)"/><path class="cls-15" d="M1209.42,1700.89c2.65-2.3,7.51-5.06,10.62-2.26,2,1.82,2,5,1.28,7.42-1.55,5-7.23,8.13-10.63,11.87a50.23,50.23,0,0,0-5,6.3l3.64-.47c-1.86-1.58-3.38-3.86-5-5.71a110.54,110.54,0,0,1-7.52-9.09c-2.18-3.16-6.82-12.31.55-12,2.93.11,7,2.62,8.71,4,2.33,1.8,5.63-1.45,3.28-3.27-3.37-2.6-7.64-5.12-12-5.32-5.61-.26-9.32,3.86-8.59,9.37s4.11,10,7.51,14c3.06,3.66,6.09,8.23,9.73,11.33a2.36,2.36,0,0,0,3.64-.47c5.47-8.44,19.45-14.79,16.27-26.67-2.68-10-13.84-7.5-19.85-2.27-2.25,2,1,5.22,3.28,3.27Z" transform="translate(-928.17 -1359.47)"/><path class="cls-14" d="M1239,1668.45c3.47-3.22,12.23-7.48,15.62.07,0,0,3.33,7.79-4.86,14.36a54.17,54.17,0,0,0-10.82,11.7c.22.32-8.55-9.8-11.72-13.73-3-3.74-8-13-2.57-16.22s14.35,3.82,14.35,3.82" transform="translate(-928.17 -1359.47)"/><path class="cls-15" d="M1240.61,1670.09c2.65-2.31,7.51-5.07,10.62-2.27,2,1.82,2,5,1.29,7.43-1.56,5-7.24,8.12-10.64,11.86a49.62,49.62,0,0,0-5,6.31l3.64-.47c-1.85-1.59-3.38-3.87-5-5.71a110.54,110.54,0,0,1-7.52-9.09c-2.18-3.17-6.81-12.32.55-12,2.93.12,7,2.63,8.71,4,2.33,1.8,5.64-1.46,3.28-3.28-3.36-2.6-7.64-5.11-12-5.31-5.61-.26-9.32,3.86-8.59,9.37s4.11,10,7.51,14c3.06,3.66,6.1,8.23,9.73,11.33a2.35,2.35,0,0,0,3.64-.47c5.47-8.43,19.45-14.78,16.27-26.67-2.67-10-13.84-7.5-19.85-2.27-2.25,2,1,5.23,3.28,3.28Z" transform="translate(-928.17 -1359.47)"/><path class="cls-3" d="M1159.2,1623.27c-.21,8.94-4.68,22.29-15.69,22.29-10.85,0-15.69-13.33-15.69-22.29,0-8.8,4.6-21.77,15.11-22.26,11.33-.54,16.06,13.16,16.27,22.26.07,2.64,4.18,2.65,4.11,0-.26-11.29-6.41-26.4-19.8-26.4-13.24,0-19.8,15.11-19.8,26.4s6.56,26.4,19.8,26.4c13.39,0,19.54-15.1,19.8-26.4C1163.38,1620.63,1159.27,1620.63,1159.2,1623.27Z" transform="translate(-928.17 -1359.47)"/><ellipse class="cls-12" cx="210.45" cy="263.8" rx="22.64" ry="32.09"/><ellipse class="cls-16" cx="215.34" cy="263.8" rx="17.75" ry="24.35"/><path class="cls-3" d="M1159.2,1623.27c-.21,8.94-4.68,22.29-15.69,22.29-10.85,0-15.69-13.33-15.69-22.29,0-8.8,4.6-21.77,15.11-22.26,11.33-.54,16.06,13.16,16.27,22.26.07,2.64,4.18,2.65,4.11,0-.26-11.29-6.41-26.4-19.8-26.4-13.24,0-19.8,15.11-19.8,26.4s6.56,26.4,19.8,26.4c13.39,0,19.54-15.1,19.8-26.4C1163.38,1620.63,1159.27,1620.63,1159.2,1623.27Z" transform="translate(-928.17 -1359.47)"/><path class="cls-17" d="M1029.2,1501.17c-3.8,1.16-6.47,3.52-8.87,6.64a94.09,94.09,0,0,1-10.33,11.88,65.45,65.45,0,0,0-16.19,24.24c-1.27,3.27,4,4.68,5.24,1.45a59.34,59.34,0,0,1,14.79-21.84,61.61,61.61,0,0,0,7.93-8.46c2.49-3.39,4.6-7.37,8.88-8.66,3.34-1,1.92-6.26-1.45-5.25Z" transform="translate(-928.17 -1359.47)"/><path class="cls-17" d="M995.55,1536.27a296.68,296.68,0,0,0-13.39,27.34c-1.36,3.18,3.33,6,4.7,2.74a294.1,294.1,0,0,1,13.39-27.34c1.7-3.06-3-5.8-4.7-2.74Z" transform="translate(-928.17 -1359.47)"/><path class="cls-17" d="M992.59,1548.83q-7.87,14-16.67,27.52c-1.92,2.94,2.78,5.67,4.69,2.75q8.8-13.49,16.67-27.53c1.72-3-3-5.8-4.69-2.74Z" transform="translate(-928.17 -1359.47)"/><path class="cls-17" d="M983.61,1565.27l-10.78,23.58c-1.44,3.16,3.24,5.92,4.7,2.74L988.31,1568c1.44-3.16-3.24-5.93-4.7-2.75Z" transform="translate(-928.17 -1359.47)"/><path class="cls-17" d="M982.57,1575.19c-2.47,6.5-4.61,13.08-6.44,19.79-.92,3.38,4.32,4.82,5.24,1.44q2.75-10.05,6.44-19.78c1.24-3.28-4-4.69-5.24-1.45Z" transform="translate(-928.17 -1359.47)"/><path class="cls-17" d="M984.12,1571.89c-5.17,15.14-11.13,30.45-10.56,46.7a2.75,2.75,0,0,0,5.07,1.38,32.9,32.9,0,0,0,4.82-23.55c-.55-3.45-5.79-2-5.25,1.44a27.11,27.11,0,0,1-4.27,19.36l5.07,1.37c-.55-15.74,5.36-30.59,10.36-45.25,1.13-3.32-4.12-4.75-5.24-1.45Z" transform="translate(-928.17 -1359.47)"/><path class="cls-17" d="M974,1618.93a67.89,67.89,0,0,0-2.08,18.17c.07,3.5,5.51,3.51,5.44,0a62.39,62.39,0,0,1,1.88-16.72c.86-3.4-4.39-4.84-5.24-1.45Z" transform="translate(-928.17 -1359.47)"/><path class="cls-17" d="M978.68,1617.78l-1.22,22.54c-.2,3.5,5.24,3.49,5.43,0l1.23-22.54c.19-3.5-5.25-3.49-5.44,0Z" transform="translate(-928.17 -1359.47)"/><path class="cls-17" d="M974.28,1635.27a135.22,135.22,0,0,0,.32,15.59c.17,2.05,3,4,4.64,1.92a12,12,0,0,0,2.69-6.48c.42-3.47-5-3.44-5.44,0a4.67,4.67,0,0,1-1.09,2.63l4.64,1.93a133,133,0,0,1-.32-15.59c.13-3.5-5.3-3.5-5.44,0Z" transform="translate(-928.17 -1359.47)"/><path class="cls-17" d="M976.05,1626.52a130.6,130.6,0,0,0-.91,15.18c0,3.5,5.43,3.51,5.43,0a130.61,130.61,0,0,1,.92-15.18c.42-3.47-5-3.44-5.44,0Z" transform="translate(-928.17 -1359.47)"/><path class="cls-17" d="M977,1648.6a91.78,91.78,0,0,1,.42,14.26c-.17,3.49,5.27,3.49,5.44,0a91.78,91.78,0,0,0-.42-14.26c-.38-3.44-5.82-3.48-5.44,0Z" transform="translate(-928.17 -1359.47)"/><path class="cls-17" d="M977,1640.78a76,76,0,0,0,2,21.41c.8,3.4,6,2,5.24-1.45a70.89,70.89,0,0,1-1.78-20c.18-3.49-5.26-3.48-5.43,0Z" transform="translate(-928.17 -1359.47)"/><path class="cls-17" d="M979.47,1653.66a112.67,112.67,0,0,0,1.19,14.08c.5,3.45,5.74,2,5.24-1.45a98.9,98.9,0,0,1-1-12.63c-.07-3.5-5.5-3.51-5.44,0Z" transform="translate(-928.17 -1359.47)"/><path class="cls-17" d="M978.71,1666.42l6.69,17.85c1.22,3.24,6.48,1.84,5.25-1.45L984,1665c-1.22-3.25-6.48-1.84-5.25,1.44Z" transform="translate(-928.17 -1359.47)"/><path class="cls-17" d="M982.61,1667.46a45.86,45.86,0,0,0,8.3,24.68c2,2.84,6.71.12,4.69-2.75a40.55,40.55,0,0,1-7.55-21.93c-.15-3.49-5.59-3.51-5.44,0Z" transform="translate(-928.17 -1359.47)"/><path class="cls-17" d="M989.43,1687.05a17.44,17.44,0,0,0,2.6,7,18.64,18.64,0,0,0,2.06,2.63,16.83,16.83,0,0,0,1.37,1.3l.6.46c.81.83.92.46.32-1.1l1.62-1.25-.48.07c-3.45.52-2,5.76,1.44,5.24a3.38,3.38,0,0,0,2.81-3.12c.16-1.69-.76-2.75-2-3.77a13.61,13.61,0,0,1-5.13-8.9c-.51-3.45-5.75-2-5.24,1.45Z" transform="translate(-928.17 -1359.47)"/><path class="cls-17" d="M987.41,1688.46a24.25,24.25,0,0,0,14,18c3.17,1.41,5.94-3.28,2.75-4.69a19.36,19.36,0,0,1-11.5-14.75c-.59-3.44-5.83-2-5.24,1.45Z" transform="translate(-928.17 -1359.47)"/><path class="cls-17" d="M995.53,1707.27a24.22,24.22,0,0,0,4.58,3.49c1.81,1.15,1.66,1.24,2.42,3.44a41,41,0,0,0,6,11.2c5.57,7.45,13.11,13,20.81,18,2.93,1.93,5.66-2.78,2.74-4.69-7.64-5-15.28-10.55-20.42-18.27-2.4-3.6-3.11-7.86-5.24-11.45-1.59-2.69-4.87-3.34-7.07-5.58-2.46-2.5-6.31,1.34-3.85,3.84Z" transform="translate(-928.17 -1359.47)"/><path class="cls-17" d="M998.13,1709.77a11,11,0,0,0,1.32,5,2.74,2.74,0,0,0,3.72,1,2.79,2.79,0,0,0,1-3.72c-.06-.11-.34-.72-.16-.28a6.5,6.5,0,0,1-.28-.85c0-.09-.16-.81-.12-.52s0-.56,0-.66a2.72,2.72,0,0,0-5.44,0Z" transform="translate(-928.17 -1359.47)"/><g class="cls-18"><ellipse class="cls-15" cx="174.7" cy="262.85" rx="119.5" ry="147.78"/></g><path class="cls-3" d="M1220.31,1622.32c-.23,54.1-25.36,113.16-76.91,136.82a97.51,97.51,0,0,1-72.52,3.44c-24.49-8.55-44.76-26.55-58.91-48-32.07-48.62-35.14-115.37-9.71-167.48,11.45-23.49,29-44.44,51.9-57.43a98.09,98.09,0,0,1,71.95-10.24c53.8,13.46,86.25,68,92.79,120.09a188.68,188.68,0,0,1,1.41,22.79c0,2.64,4.12,2.65,4.11,0-.23-55.79-26.54-117.07-80.06-140.88a101.57,101.57,0,0,0-74.57-3.35c-24.9,8.69-45.56,26.58-60.26,48.22-33.94,50-37.18,119.33-10.82,173.29,11.84,24.26,30.17,45.92,53.91,59.2a102.43,102.43,0,0,0,74,10.5c55.43-13.48,89.14-69.18,96.21-122.72a191.05,191.05,0,0,0,1.6-24.26C1224.43,1619.67,1220.32,1619.67,1220.31,1622.32Z" transform="translate(-928.17 -1359.47)"/><path class="cls-3" d="M1219.62,1622.32c-.22,53.88-25.23,112.67-76.56,136.23a96.74,96.74,0,0,1-72,3.36c-24.31-8.48-44.45-26.38-58.5-47.67-31.92-48.4-35-114.89-9.71-166.79,11.41-23.38,28.84-44.24,51.65-57.18,21.61-12.24,47.25-16.21,71.43-10.17,53.48,13.38,85.77,67.63,92.28,119.43a188.68,188.68,0,0,1,1.41,22.79c0,3.52,5.5,3.53,5.48,0-.23-56-26.66-117.56-80.39-141.47a102.29,102.29,0,0,0-75.11-3.42c-25.07,8.76-45.86,26.74-60.66,48.53-34.08,50.21-37.28,119.81-10.83,174,11.9,24.36,30.33,46.12,54.16,59.45a103.08,103.08,0,0,0,74.52,10.57c55.74-13.56,89.62-69.54,96.71-123.38a191.05,191.05,0,0,0,1.6-24.26C1225.12,1618.79,1219.64,1618.78,1219.62,1622.32Z" transform="translate(-928.17 -1359.47)"/><path class="cls-3" d="M1219.56,1622.32c-.23,54.93-27.48,112.93-79.76,136a105.56,105.56,0,0,1-75.74,3.54c-25-8.35-46.2-25.91-61.1-47.43-33.32-48.12-36.85-115-10.33-166.91,12.06-23.64,30.42-44.31,53.87-57.08a106,106,0,0,1,75.14-10.24c54.67,13.14,89.56,66.38,96.5,119.75a179.88,179.88,0,0,1,1.42,22.37c0,3.6,5.62,3.61,5.61,0-.25-57.49-29.25-118.12-84.25-141.59a111,111,0,0,0-78.35-3.36c-26,8.69-48,26.64-63.69,48.92-35.18,49.83-38.68,119.63-11.09,173.66,12.67,24.8,32.23,46.53,57,59.67a111.87,111.87,0,0,0,77.75,10.36c56.92-13.33,93.57-68.39,101-123.84a186,186,0,0,0,1.62-23.82C1225.18,1618.71,1219.58,1618.7,1219.56,1622.32Z" transform="translate(-928.17 -1359.47)"/><path class="cls-3" d="M1220.31,1622.32c-.23,53.9-25.15,112.72-76.35,136.56a97.53,97.53,0,0,1-73.08,3.7c-24.26-8.47-44.44-26.23-58.54-47.44-18.21-27.37-26.78-60.12-26.91-92.82,0-2.65-4.13-2.65-4.12,0,.24,55.78,26.54,117.06,80.06,140.87a101.6,101.6,0,0,0,74.58,3.35c24.89-8.69,45.56-26.58,60.25-48.22,19.1-28.13,28.08-62.2,28.22-96,0-2.65-4.1-2.65-4.11,0Z" transform="translate(-928.17 -1359.47)"/><path class="cls-3" d="M1214.33,1622.32c-.21,47-20.13,100.52-64.83,122.37a78.35,78.35,0,0,1-61.2,3.27c-21.08-7.7-38.11-24-49.88-42.76-27.49-43.87-30-103.41-8.41-150.19,18.34-39.75,58.58-72.64,104.5-60.63,47.12,12.33,73.37,62.67,78.66,107.81a178.08,178.08,0,0,1,1.16,20.13c0,2.64,4.13,2.65,4.11,0-.21-48.73-21.26-104.41-67.94-126.44a82.41,82.41,0,0,0-63.85-3c-21.46,8-38.82,24.23-51.06,43.32-29,45.26-31.49,107-9.13,155.47,19.14,41.47,61.49,75,109.14,62.51,48.46-12.68,75.69-63.81,81.5-110.25a180.11,180.11,0,0,0,1.34-21.64C1218.46,1619.67,1214.35,1619.67,1214.33,1622.32Z" transform="translate(-928.17 -1359.47)"/><path class="cls-3" d="M1206.24,1621.11c-.19,36.29-14.4,78.87-48.84,96.4a56.46,56.46,0,0,1-46.05,2.4c-15.92-6.19-28.49-19.06-37.14-33.51-20.84-34.76-22.63-81.53-6.3-118.4,13.42-30.32,43.38-57.39,78.69-47.51,41.81,11.69,59.43,61.54,59.64,100.62,0,2.64,4.13,2.65,4.11,0-.2-38-15.48-82.75-51.92-100.48a60.48,60.48,0,0,0-48.71-2.08c-16.3,6.45-29.26,19.29-38.37,34-22.32,36.2-24.1,85.11-7,123.7,14.12,31.87,45.9,59.48,82.78,49.56,44-11.85,63-63.65,63.21-104.74C1210.37,1618.46,1206.26,1618.46,1206.24,1621.11Z" transform="translate(-928.17 -1359.47)"/><path class="cls-3" d="M1175,1626c-.19,19.48-7.5,42.18-25.78,52-17.55,9.41-36-.87-45.34-16.58-11-18.45-12.07-42.92-4-62.68,6.89-17,23.31-32.75,43-27.26,22.69,6.34,32,33.44,32.19,54.55,0,2.65,4.14,2.65,4.11,0-.21-21.36-8.74-46.44-29.36-56.3-18.82-9-38.35,1.18-48.72,17.7-12.71,20.24-13.71,47.75-4.12,69.41,7.93,17.9,25.76,33.26,46.44,27.87,24.89-6.49,35.53-35.56,35.76-58.68C1179.13,1623.33,1175,1623.32,1175,1626Z" transform="translate(-928.17 -1359.47)"/><path class="cls-3" d="M1159.2,1623.27c-.2,11.78-6,30-20.58,30s-20.59-18.26-20.59-30,6.11-30,20.59-30c14.63,0,20.38,18.26,20.58,30,0,2.64,4.16,2.65,4.11,0-.21-12.19-4.75-26.63-16.61-32.27-10.5-5-21.3,1-27,10.18-7,11.48-7.66,27-2.46,39.33,4.28,10.1,14,19.27,25.76,16.35,14.34-3.55,20-20.48,20.26-33.59C1163.36,1620.63,1159.25,1620.63,1159.2,1623.27Z" transform="translate(-928.17 -1359.47)"/><path class="cls-3" d="M1159.2,1623.27c-.21,8.94-4.68,22.29-15.69,22.29-10.85,0-15.69-13.33-15.69-22.29,0-8.8,4.6-21.77,15.11-22.26,11.33-.54,16.06,13.16,16.27,22.26.07,2.64,4.18,2.65,4.11,0-.26-11.29-6.41-26.4-19.8-26.4-13.24,0-19.8,15.11-19.8,26.4s6.56,26.4,19.8,26.4c13.39,0,19.54-15.1,19.8-26.4C1163.38,1620.63,1159.27,1620.63,1159.2,1623.27Z" transform="translate(-928.17 -1359.47)"/><path class="cls-3" d="M1116,1621.22l-88.24,8.69-12.75,1.25c-2.6.26-2.63,4.37,0,4.11l88.25-8.69,12.74-1.25c2.61-.26,2.64-4.37,0-4.11Z" transform="translate(-928.17 -1359.47)"/><path class="cls-3" d="M1125.79,1597.71l-44.12-84.91-6.21-12c-1.22-2.34-4.77-.27-3.55,2.08l44.12,84.91,6.21,12c1.22,2.35,4.77.27,3.55-2.07Z" transform="translate(-928.17 -1359.47)"/><path class="cls-3" d="M1149.23,1591.73l29.8-74.6c1-2.45-3-3.52-4-1.09l-29.81,74.59c-1,2.46,3,3.53,4,1.1Z" transform="translate(-928.17 -1359.47)"/><path class="cls-3" d="M1161,1620.85l47.35-4.43c2.61-.24,2.64-4.35,0-4.11l-47.35,4.43c-2.61.24-2.63,4.35,0,4.11Z" transform="translate(-928.17 -1359.47)"/><path class="cls-3" d="M1123.78,1649.14l-33.71,85.51-4.84,12.27c-1,2.46,3,3.53,4,1.09l33.72-85.5,4.83-12.27c1-2.46-3-3.53-4-1.1Z" transform="translate(-928.17 -1359.47)"/><path class="cls-3" d="M1147.07,1653l36.33,64.94c1.29,2.31,4.84.24,3.55-2.07l-36.33-65c-1.29-2.31-4.84-.24-3.55,2.08Z" transform="translate(-928.17 -1359.47)"/><path class="cls-3" d="M1086.17,1745.69l-27.52,12.69c-2.4,1.11-.31,4.65,2.08,3.55l27.52-12.69c2.4-1.11.31-4.65-2.08-3.55Z" transform="translate(-928.17 -1359.47)"/><path class="cls-3" d="M1015,1631.16l-31.2,1.47c-2.63.12-2.64,4.23,0,4.11l31.2-1.47c2.64-.12,2.65-4.23,0-4.11Z" transform="translate(-928.17 -1359.47)"/><path class="cls-3" d="M1074.72,1500.11,1049.45,1489c-2.39-1.06-4.49,2.48-2.07,3.54l25.27,11.16c2.4,1,4.49-2.49,2.07-3.55Z" transform="translate(-928.17 -1359.47)"/><path class="cls-3" d="M1179.1,1516.59v-10.14c0-2.65-4.11-2.65-4.11,0v10.14c0,2.64,4.11,2.65,4.11,0Z" transform="translate(-928.17 -1359.47)"/><path class="cls-15" d="M973,1680.31c-.8.23-1.59.44-2.38.63a80.09,80.09,0,0,0,1.67,13.81c-6.24-2.11-10.83-8.47-13.17-12.4-11.75,0-21.27-4.74-23.61-12.76-3.22-11,8.33-24.12,25.81-29.22s34.26-.32,37.49,10.71S990.51,1675.2,973,1680.31Z" transform="translate(-928.17 -1359.47)"/><path class="cls-8" d="M972.48,1678.33c-.79.23-1.58.44-2.38.63a2.1,2.1,0,0,0-1.51,2,79.82,79.82,0,0,0,1.75,14.36l2.53-2.53a21.8,21.8,0,0,1-8.93-7c-1.23-1.55-2.3-4.59-4.25-5.37-1.56-.63-4.5-.21-6.15-.47a33.79,33.79,0,0,1-4.22-.93,19.73,19.73,0,0,1-8.91-5c-11.27-12,6.77-25.94,16.87-30,10.75-4.31,32.9-7.36,39,6.2,6.3,13.95-13.47,25-23.82,28.2-2.52.78-1.44,4.75,1.09,4,10.82-3.34,22.72-10.1,26.77-21.38,3.34-9.33-1.82-18-10.49-21.81-11.84-5.23-26.46-2.87-37.74,2.67-9.1,4.47-19.31,13.15-19.15,24.25.18,13.42,15.1,18.17,26.19,18.39l-1.78-1c3.53,5.77,8,10.83,14.4,13.35,1.57.61,2.82-1.16,2.53-2.53a74.13,74.13,0,0,1-1.6-13.27l-1.51,2c.8-.2,1.59-.41,2.38-.64C976.12,1681.58,975,1677.61,972.48,1678.33Z" transform="translate(-928.17 -1359.47)"/><path class="cls-14" d="M1222.41,1741c3.08-2.86,10.85-6.63,13.86.07,0,0,3,6.9-4.31,12.73a47.9,47.9,0,0,0-9.6,10.39c.19.27-7.58-8.71-10.39-12.19-2.68-3.32-7.1-11.54-2.28-14.39s12.72,3.39,12.72,3.39" transform="translate(-928.17 -1359.47)"/><path class="cls-15" d="M1223.87,1742.46c2.52-2.17,7.54-4.88,10-1.37,1.44,2,1,5.15,0,7.23-1.89,3.87-6.42,6.43-9.26,9.62a43,43,0,0,0-4.07,5.22l3.23-.42a80.31,80.31,0,0,1-11.22-13.33c-2.23-3.32-5.54-11.4,1.63-10.29,2.52.4,5.15,2.12,7.15,3.66s4.14-2,2.07-3.55c-5.55-4.27-19.07-7.63-17.87,3.73.52,4.86,3.67,9,6.69,12.63,2.78,3.33,5.46,7.1,8.64,10.06a2.09,2.09,0,0,0,3.23-.42c4.88-7.51,17.09-13,14.46-23.53-2.24-9-12.28-6.77-17.64-2.14-2,1.73.91,4.62,2.91,2.9Z" transform="translate(-928.17 -1359.47)"/><path class="cls-14" d="M1216.53,1781.62c2.08-1.94,7.34-4.49,9.37,0,0,0,2,4.67-2.91,8.61a32.33,32.33,0,0,0-6.49,7c.13.19-5.13-5.88-7-8.24s-4.8-7.8-1.54-9.73,8.6,2.3,8.6,2.3" transform="translate(-928.17 -1359.47)"/><path class="cls-15" d="M1217.52,1782.6c1.78-1.54,5.57-3.51,7.07-.51a5.37,5.37,0,0,1-.31,4.45c-1.32,2.73-4.49,4.52-6.48,6.8a30.17,30.17,0,0,0-2.5,3.25l2.18-.28a56.27,56.27,0,0,1-7.64-9.1c-1.42-2.15-3.73-7.35.81-6.9a11,11,0,0,1,5.18,2.51c1.42,1.09,2.8-1.33,1.4-2.4-3.65-2.82-12.57-5.28-12.11,2.23.21,3.3,2.37,6.2,4.4,8.64a78.25,78.25,0,0,0,6,7,1.41,1.41,0,0,0,2.18-.28c3.3-5.07,11.65-8.82,9.75-16-1.59-6-8.29-4.47-11.9-1.37-1.36,1.17.61,3.13,2,2Z" transform="translate(-928.17 -1359.47)"/><path class="cls-14" d="M1191.15,1748.37c2.08-1.93,7.34-4.49,9.37,0,0,0,2,4.67-2.91,8.61a32.33,32.33,0,0,0-6.49,7c.13.19-5.13-5.88-7-8.24s-4.8-7.8-1.54-9.73,8.6,2.3,8.6,2.3" transform="translate(-928.17 -1359.47)"/><path class="cls-15" d="M1192.14,1749.35c1.78-1.54,5.57-3.51,7.07-.51a5.37,5.37,0,0,1-.31,4.45c-1.32,2.73-4.49,4.53-6.48,6.81a29.1,29.1,0,0,0-2.5,3.24l2.18-.28a56.27,56.27,0,0,1-7.64-9.1c-1.42-2.15-3.73-7.35.82-6.9a11.12,11.12,0,0,1,5.17,2.51c1.42,1.09,2.8-1.33,1.41-2.4-3.66-2.81-12.57-5.28-12.11,2.23.2,3.3,2.36,6.2,4.39,8.64a79.93,79.93,0,0,0,6,7,1.41,1.41,0,0,0,2.18-.28c3.3-5.07,11.65-8.82,9.76-16-1.6-6-8.3-4.47-11.91-1.37-1.36,1.17.62,3.13,2,2Z" transform="translate(-928.17 -1359.47)"/><path class="cls-19" d="M1167,1815.58v8.78c0,1.86-4.76,3.37-10.63,3.37s-10.62-1.51-10.62-3.37v-8.78Z" transform="translate(-928.17 -1359.47)"/><path class="cls-3" d="M1165.72,1815.58V1822c0,1.56.24,1.85-.83,2.84-2,1.79-6.05,1.63-8.51,1.64s-5.41-.08-7.68-1.11c-1.77-.81-1.65-1.33-1.65-3v-6.75l-1.29,1.29H1167a1.29,1.29,0,0,0,0-2.58h-21.25a1.31,1.31,0,0,0-1.29,1.29c0,2.81-.59,6.23,0,9,1,4.39,8.48,4.49,11.89,4.49s10.82-.09,11.87-4.31c.68-2.74,0-6.3,0-9.13A1.29,1.29,0,0,0,1165.72,1815.58Z" transform="translate(-928.17 -1359.47)"/><ellipse class="cls-20" cx="228.22" cy="456.12" rx="10.63" ry="3.36"/><path class="cls-3" d="M1165.77,1815.24c-.6,2.56-7.57,2.42-9.39,2.42s-7.68.18-7.68-2.08,5.75-2.07,7.68-2.07c1.6,0,8.81-.07,9.39,2.42.37,1.61,2.86.93,2.48-.69-1-4.45-9.29-4.37-12.65-4.29-2.71.06-11.13.34-11.13,4.63,0,4.07,7.71,4.49,10.34,4.62,3.43.17,12.36.38,13.44-4.27C1168.63,1814.31,1166.14,1813.62,1165.77,1815.24Z" transform="translate(-928.17 -1359.47)"/><path class="cls-19" d="M1131.71,1831.27v8.78c0,1.86-4.76,3.36-10.63,3.36s-10.63-1.5-10.63-3.36v-8.78Z" transform="translate(-928.17 -1359.47)"/><path class="cls-3" d="M1130.42,1831.27v6.37c0,1.56.24,1.85-.83,2.84-1.95,1.79-6,1.64-8.51,1.64s-5.41-.07-7.68-1.11c-1.77-.81-1.66-1.33-1.66-3v-6.74l-1.29,1.29h21.26a1.29,1.29,0,0,0,0-2.58h-21.26a1.3,1.3,0,0,0-1.28,1.29c0,2.8-.59,6.22,0,9,1,4.38,8.48,4.48,11.89,4.48s10.82-.09,11.87-4.31c.68-2.73,0-6.3,0-9.12A1.29,1.29,0,0,0,1130.42,1831.27Z" transform="translate(-928.17 -1359.47)"/><ellipse class="cls-20" cx="192.91" cy="471.8" rx="10.63" ry="3.36"/><path class="cls-3" d="M1130.46,1830.93c-.59,2.55-7.56,2.41-9.38,2.41s-7.68.18-7.68-2.07,5.75-2.07,7.68-2.08c1.6,0,8.81-.06,9.38,2.42.38,1.62,2.87.93,2.49-.68-1-4.46-9.29-4.38-12.65-4.3-2.71.07-11.14.34-11.14,4.64,0,4.07,7.72,4.49,10.35,4.61,3.43.17,12.36.38,13.44-4.27C1133.32,1830,1130.84,1829.31,1130.46,1830.93Z" transform="translate(-928.17 -1359.47)"/><path class="cls-19" d="M1097.79,1844.09v8.78c0,1.86-4.75,3.36-10.62,3.36s-10.63-1.5-10.63-3.36v-8.78Z" transform="translate(-928.17 -1359.47)"/><path class="cls-3" d="M1096.5,1844.09v6.37c0,1.57.25,1.85-.83,2.84-1.94,1.8-6,1.64-8.5,1.64s-5.41-.07-7.68-1.11c-1.78-.81-1.66-1.33-1.66-3v-6.74l-1.29,1.29h21.25a1.29,1.29,0,0,0,0-2.58h-21.25a1.31,1.31,0,0,0-1.29,1.29c0,2.8-.58,6.23,0,9,1,4.38,8.49,4.48,11.9,4.48s10.81-.08,11.86-4.31c.69-2.73,0-6.29,0-9.12A1.29,1.29,0,0,0,1096.5,1844.09Z" transform="translate(-928.17 -1359.47)"/><ellipse class="cls-20" cx="159" cy="484.62" rx="10.63" ry="3.36"/><path class="cls-3" d="M1096.55,1843.75c-.59,2.55-7.56,2.41-9.38,2.42s-7.68.17-7.68-2.08,5.74-2.07,7.68-2.07c1.6,0,8.8-.07,9.38,2.41.37,1.62,2.86.94,2.49-.68-1-4.46-9.29-4.37-12.66-4.29-2.7.06-11.13.34-11.13,4.63,0,4.07,7.71,4.49,10.35,4.62,3.43.16,12.36.37,13.44-4.28C1099.41,1842.82,1096.93,1842.13,1096.55,1843.75Z" transform="translate(-928.17 -1359.47)"/><path class="cls-19" d="M1059.74,1855.58v8.78c0,1.86-4.76,3.36-10.63,3.36s-10.62-1.5-10.62-3.36v-8.78Z" transform="translate(-928.17 -1359.47)"/><path class="cls-3" d="M1058.45,1855.58V1862c0,1.57.24,1.85-.83,2.84-1.95,1.8-6,1.64-8.51,1.65s-5.41-.08-7.68-1.11c-1.77-.82-1.65-1.34-1.65-3v-6.74l-1.29,1.29h21.25a1.29,1.29,0,0,0,0-2.58h-21.25a1.31,1.31,0,0,0-1.29,1.29c0,2.81-.59,6.23,0,9,1,4.38,8.48,4.48,11.89,4.48s10.82-.08,11.87-4.31c.68-2.73,0-6.29,0-9.12A1.29,1.29,0,0,0,1058.45,1855.58Z" transform="translate(-928.17 -1359.47)"/><ellipse class="cls-20" cx="120.95" cy="496.11" rx="10.63" ry="3.36"/><path class="cls-3" d="M1058.5,1855.24c-.6,2.55-7.57,2.41-9.39,2.42s-7.68.18-7.68-2.08,5.75-2.07,7.68-2.07c1.6,0,8.81-.07,9.39,2.41.37,1.62,2.86.94,2.48-.68-1-4.46-9.29-4.37-12.65-4.29-2.71.06-11.13.34-11.13,4.63,0,4.07,7.71,4.49,10.34,4.62,3.43.16,12.36.37,13.44-4.28C1061.36,1854.31,1058.87,1853.62,1058.5,1855.24Z" transform="translate(-928.17 -1359.47)"/><polygon class="cls-15" points="20.87 424.55 29.49 421.52 40.57 398.69 46.43 397.05 46.43 416.21 56.51 413.06 57.17 446.43 33.18 456.11 28.66 451.89 20.87 452.75 20.87 424.55"/><path class="cls-3" d="M949.59,1786c2.72-1,7.38-1.56,9.52-3.55,1.95-1.82,3-6,4.18-8.38l6.15-12.66a9.09,9.09,0,0,0,.82-1.69c.22-1.12-.62.32-.59.31,1.84-.34,3.67-1,5.48-1.53l-2.61-2v19.17a2.08,2.08,0,0,0,2.61,2l10.08-3.15-2.61-2,.66,33.37,1.51-2-24,9.68,2,.53c-1.56-1.46-3.56-4.28-5.69-4.79-2.29-.54-5.73.57-8.07.83l2.06,2V1784c0-2.64-4.11-2.65-4.11,0v28.2a2.07,2.07,0,0,0,2,2.06c2.48-.28,5-.57,7.43-.82.44,0-1.49-1.13-.62-.21.45.48,1,.91,1.45,1.36l2.6,2.43a2,2,0,0,0,2,.52l24-9.67a2.14,2.14,0,0,0,1.51-2l-.65-33.37a2.09,2.09,0,0,0-2.61-2l-10.08,3.15,2.61,2v-19.17a2.08,2.08,0,0,0-2.61-2c-2.43.68-5.74.88-7.27,3-2.29,3.13-3.67,7.57-5.36,11-1.5,3.09-4.8,7.46-5.29,10.89-.15,1.08.48-.25.68-.31-.9.27-1.77.62-2.65.93l-5.67,2C946,1782.91,947.08,1786.89,949.59,1786Z" transform="translate(-928.17 -1359.47)"/></svg>