<svg id="圖層_5" data-name="圖層 5" xmlns="http://www.w3.org/2000/svg" viewBox="0 0 421.09 376.4"><defs><style>.cls-1,.cls-2{fill:#eee6db;}.cls-2{stroke:#3b3832;stroke-miterlimit:10;stroke-width:0.4px;}.cls-3{fill:#060001;opacity:0.4;}.cls-4{fill:#383b3b;}.cls-5{fill:#3e4546;}.cls-6{fill:#569a99;}.cls-7{fill:#5b8985;}.cls-8{fill:#4a7776;}.cls-9{fill:#94b9c4;}.cls-10{fill:#405b5c;}.cls-11{fill:#4f8b94;}.cls-12{fill:#3c3832;}.cls-13{fill:#5195a0;}.cls-14{fill:#5198a3;}.cls-15{fill:#5197a2;}.cls-16{fill:#45686a;}.cls-17{fill:#5296a1;}.cls-18{fill:#487074;}.cls-19{fill:#5397a1;}.cls-20{fill:#487377;}.cls-21{fill:#46787c;}.cls-22{fill:#476d70;}.cls-23{fill:#3c4f4e;}.cls-24{fill:#3d5353;}.cls-25{fill:#446364;}.cls-26{fill:#394544;}.cls-27{fill:#d7ae6e;}.cls-28{fill:#3b3832;}.cls-29{fill:#d9a781;}.cls-30{fill:#fff;}.cls-31{fill:#e6c57c;}.cls-32{fill:#67a973;}.cls-33{fill:#5395b8;}</style></defs><title>傳遞</title><circle class="cls-1" cx="208.91" cy="188.2" r="188.2"/><rect class="cls-2" x="117.98" y="51.81" width="193.78" height="119"/><path class="cls-3" d="M1402.41,1024.64s14.5,16.91,13.21,46.7c0,0-13.33,12.12-33.64.44,0,0-17.21-30.35-16.2-47.79C1365.78,1024,1380.24,1006.39,1402.41,1024.64Z" transform="translate(-1020.04 -750.43)"/><polygon class="cls-3" points="323.64 364.09 50.79 364.09 55.45 353.14 319.19 353.14 323.64 364.09"/><polygon class="cls-3" points="344.58 270.31 78.06 270.31 87.17 248.66 336.61 248.66 344.58 270.31"/><path class="cls-4" d="M1360.84,813.12q.09-18.33.1-36.67c0-1.33-.21-2.65-.33-4l-6.12-5.39-1.16.83h0c-1.53,1.31,1.36,2.17.31,3.48a57.36,57.36,0,0,1-8,.3h-68.19a35,35,0,0,0-7.23.4,17.52,17.52,0,0,1-5.59.48q-64.94,0-129.88,0c-8.57,0-17.14.11-25.73-.05-1.2-1.76.78-2,1.4-2.94.73-1.05,2.64-1.68,1-3.42-.38,0-.9-.07-1.12.14-2.45,2.27-5.29,4.12-7.48,6.86V778q0,68.71,0,137.43a.84.84,0,0,0-.55.19c-2.56,2.07-3.32,5.73-4.25,8.73a46.6,46.6,0,0,0-2.38,11.78c-.32,7.63,3.34,14.2,7.17,20.5v3.15a12.88,12.88,0,0,0,1.39,5.77c2.79,5.79,7.43,8.65,13.16,9.59a47.93,47.93,0,0,1-13.89,35.85c-4.69,4.76-10,9-13.58,14.74-2,3.17-3.34,6.64-5.09,9.92-1.62,3.05-3.66,5.84-5.36,8.84-3.14,5.52-5.07,13.21-.09,18.33l0,0c.73.67,1.82-.45,1.11-1.19a4.88,4.88,0,0,1-.48-.54c-4.18-5-1.43-12.13,1.53-17,1.79-3,3.76-5.81,5.32-8.92a88.79,88.79,0,0,1,4.93-9.42c3.72-5.61,9.17-9.75,13.76-14.59A48.84,48.84,0,0,0,1119,975.31l1.07.08c2.75.17,5.51.23,8.27.26,4.62,6.62,14.21,7.35,21.59,8.17,10.77,1.2,21.83,1.6,32.43-1a30.16,30.16,0,0,0,3.68,2l-3.88,0c-3.62.06-7.24.21-10.86.17-7.25-.08-14.5-.28-21.75-.4a11.13,11.13,0,0,0-5.25.89c-1.27,3.7-3,7.33-3.74,11.29l-.06.15c-.24.68.15,1,.8,1.26h0l.12-.07c1.76-1,1.88-3,2.53-4.58.87-2.18,1.32-4.59,3.52-6a4.16,4.16,0,0,1,1.93-.49c14.83,0,29.67,0,44.5,0h0a32.69,32.69,0,0,0,9,0,3.33,3.33,0,0,1,2.83,1.21,2.71,2.71,0,0,1,.43,1.11c.26,7.45,2.74,7.51,9,7.49,9.67,0,19.35,0,29,0,7.17,0,7.79-.56,9.29-7.62a4.93,4.93,0,0,1,.77-1.73q31.34-.48,62.67-.22h.1l.38-.12a1.41,1.41,0,0,0,.86-2.15h0c-.38-.09-.6-.41-.9-.61-3.49-.11-7-.31-10.46-.32-5.22,0-10.43.14-15.65.15q-18.54.06-37.09,0c-.78,0-1.55-.16-2.42-.25v-8.34c1.14-.06,2.19-.18,3.24-.17,5.62,0,11.25.16,16.87.17a.77.77,0,0,0,.16.15c6.5,4.08,13.73,8.46,21.74,7.55,3.56-.4,7.13-1.81,10.45-3.11a28.78,28.78,0,0,0,8.24-4.7q14.57-.06,29.11-.06a17.89,17.89,0,0,0,9.54-2.65,31.63,31.63,0,0,0,6.77-5.66,9.58,9.58,0,0,0,2.62-6.93q-.08-50.58,0-101.16C1360.6,843.75,1360.76,828.44,1360.84,813.12Zm-258,140.32c-3-5.2-5.7-10.64-5.56-16.84a40.78,40.78,0,0,1,2-10.87c.82-2.72,1.48-6.25,3.53-8.41Q1102.84,935.38,1102.85,953.44Zm207.48-50.05h-156.2V807.74h156.2ZM1170.24,983a108.88,108.88,0,0,1-16.55-.4,95.19,95.19,0,0,1-13.78-1.92c-3.53-.86-7-2.3-9.44-5h6.93q18.48,0,37,0h.13a31.16,31.16,0,0,0,6.06,5.92A66.24,66.24,0,0,1,1170.24,983Zm6.31-7.35,19.33-.1a49.09,49.09,0,0,1-13.26,5.51A28.35,28.35,0,0,1,1176.55,975.63Zm8,6.59a48.54,48.54,0,0,0,14.26-6.67s0,0,0,0l6,0c1,0,2,.16,3.16.25,0,1.6.06,2.94,0,4.28s.3,2.81-.41,4.34l-.51.15h-2l-14.47.2A28.78,28.78,0,0,1,1184.58,982.22Zm118.88-3.4c-3.19,1.22-6.66,2.64-10.08,2.95-6.73.6-12.84-2.68-18.42-6.13q17.47,0,34.94-.11A30.09,30.09,0,0,1,1303.46,978.82Z" transform="translate(-1020.04 -750.43)"/><path class="cls-4" d="M1318.37,985v0h0Z" transform="translate(-1020.04 -750.43)"/><path class="cls-5" d="M1329.19,1041.51a29.34,29.34,0,0,1,1.15,2.7c1,3.34,2,6.68,3,10q5.36,19.2,10.66,38.4a6.79,6.79,0,0,1,.09,1,12,12,0,0,1-.65,1.67c-1.42,2.58-2.87,5.14-4.4,7.88-1.07.1-2.11.29-3.15.29-5.78,0-11.56,0-17.34,0H1075.71c-2.74-2.49-4.43-5.71-6.35-8.75-.85-1.34-.49-2.8.05-4.25,2.08-5.66,4.06-11.35,6.12-17q5-13.62,9.94-27.22c.5-1.37.93-2.76,1.43-4.27a16.35,16.35,0,0,1,2.32-.45c1.47-.08,3,0,4.43,0h235.54Z" transform="translate(-1020.04 -750.43)"/><path class="cls-6" d="M1353.33,767.91c-.13.71.48.81.87,1.15,1.2,1,2.35,2.12,3.42,3.1-.07.36-.06.51-.12.55a.63.63,0,0,1-.38.11l-86.4.18c-1.43.56-2.93.28-4.39.28q-65.94,0-131.89,0c-8.19,0-16.37,0-24.56,0-1.29,0-2.69.45-3.89-.47,1.68-1.63,3.34-3.28,5-4.89a1.47,1.47,0,0,0,.45-1.75l2.49-.79c16.24-.28,32.48,0,48.73-.13,60.15-.59,120.31-.36,180.46-.38,2,0,4-.36,6,.51C1351,765.44,1352.07,766.83,1353.33,767.91Z" transform="translate(-1020.04 -750.43)"/><path class="cls-4" d="M1140.59,996.76l.8,1.22c1.31,2.2-.81,4.46.12,6.76,2,1.33,4.37.82,6.6.82q83.69,0,167.35,0a47.24,47.24,0,0,1,7.24.23c.63-.18.91,1,1.54.48.38-.31-.11.29-.28-.23-3-5.21-4.57-11-6.91-16.44a2.45,2.45,0,0,1,.44-2.94c.94-.25.73-1.08.88-1.73.61,1.32,1.3,2.6,1.82,3.95,2.25,5.89,4.45,11.79,6.65,17.7a12.26,12.26,0,0,1,.34,1.69c-1.79,3.07-3.54,6.21-6.16,8.69H1141.9c-2.64-2.68-3.24-6.4-4.88-9.43.68-2.38,1.25-4.58,1.94-6.75C1139.41,999.43,1140,998.11,1140.59,996.76Z" transform="translate(-1020.04 -750.43)"/><path class="cls-4" d="M1349.12,765.37c-1.85.13-3.71.37-5.56.37q-73,0-146,0c-23.77,1.07-47.56.37-71.35.59-2.69,0-5.38-.15-8.06,0a10.58,10.58,0,0,1-4.16-1c-.51.36-.62-.07-.28-.22a15.86,15.86,0,0,1,3-.89,7.2,7.2,0,0,1,1.61,0q43.31.09,86.61.16,55.39.06,110.79.07c9.8,0,19.6-.06,29.4-.09,1.47,0,3-.11,4.28.75.08.06.11.2.16.29Z" transform="translate(-1020.04 -750.43)"/><path class="cls-4" d="M1397.33,1073.68c-4.65,1.59-9.27.41-13.89-.17-.92-.12-1.83-.4-2.74-.61a12.43,12.43,0,0,1-8.24-5.9,42.12,42.12,0,0,1-2.26-4.25,123,123,0,0,1-8.57-23.74c-1.26-5.47-2.86-10.86-3.57-16.46a7.35,7.35,0,0,1,1.4-6,.86.86,0,0,1,1.16.11,68.28,68.28,0,0,1,14.05,25.45c2.13,7.06,2.31,14.25,2.2,21.45,0,3.46,1,5.21,4.15,6.27,5.28,1.8,10.74,1.87,16.2,2.12A1.18,1.18,0,0,1,1397.33,1073.68Z" transform="translate(-1020.04 -750.43)"/><path class="cls-4" d="M1360.74,1016.76l-1.28-.2c.6-1.88,2.28-2.56,3.83-3.26,5.73-2.62,11.76-3.8,18-2.33a20.13,20.13,0,0,1,9.59,4.78c1.83,1.77,3.62,3.58,5.42,5.38a22.62,22.62,0,0,1,3.87,6.07c1.59,3.09,3.16,6.19,4.59,9.36a22.85,22.85,0,0,1,1.9,9.36,39.33,39.33,0,0,0,.42,5.19c.58,4.28,0,8.55,0,12.82a39.29,39.29,0,0,1-.63,4.66c-2.72,2.49-5.3,4.79-9,5.09,0-.43,0-.87,0-1.31,8-4.11,7.42-11.42,7-18.68-.5-9.57-1.83-18.83-7.39-27.1-4.53-6.75-10-11.74-18.83-13.08,1.55,1.86,4.52,2.13,4.16,5-.38.72-1.11.63-2,.76,1.47,2.9,3.27,5.53,3.74,8.85.89-.83.72-2.58,2.39-1.72a5,5,0,0,1,1.12,3c.09,1.74-.43,3.28-2.22,3.86a2.8,2.8,0,0,1-3.77-2.12c-1.16-4.79-4.2-8.63-6.15-13-1.79-4-3.24-4.73-7.53-3.78C1365.35,1014.82,1363.48,1017,1360.74,1016.76Z" transform="translate(-1020.04 -750.43)"/><path class="cls-5" d="M1318.4,985l-.93-.62C1318,984.25,1318.32,984.43,1318.4,985Z" transform="translate(-1020.04 -750.43)"/><path class="cls-7" d="M1320.65,774.62c1.08,0,2.15-.14,3.22-.14l31.05-.06h3.23a12.27,12.27,0,0,1,.67,5.26c0,7.66,0,15.32,0,23,0,18.68.17,37.36.14,56-.06,28.22-.22,56.44-.33,84.66,0,5.38,0,10.76,0,16.13,0,1.07,0,2.14,0,3-2.58,4.58-6.45,7.36-10.82,9.56a10.8,10.8,0,0,1-5,1.06q-49-.07-98-.07h-87.91c-1.07,0-2.14-.08-3.22-.12-.43-1.86.82-3.08,1.86-4.22,6.88-7.52,13.23-15.51,20.18-23a5.51,5.51,0,0,1,2.93-2,40.92,40.92,0,0,1,7.25-.29c53.21.06,106.42-.14,159.63.1a10.82,10.82,0,0,0,3.48-.4c.28-52.25.29-104.49.27-157.09-11.82-1.37-22.83.15-33.74-.94-2.28-.82-2.34-2.5-1.15-4.08C1316.15,778.65,1317.68,775.91,1320.65,774.62Z" transform="translate(-1020.04 -750.43)"/><path class="cls-7" d="M1116.55,972.94c-1.6.18-2.82-.77-4.06-1.51a21.84,21.84,0,0,1-6-5.84,7.76,7.76,0,0,1-1.42-4.93c.06-4.83,0-9.67,0-14.5,0-22.57.35-45.14-.14-67.7-.34-15.57-.68-31.14-.23-46.68.45-15.3.12-30.59.38-45.89.06-3.34,0-6.69,0-10.28,1.21-.09,2.24-.24,3.28-.24q40.9-.09,81.81-.15c10.35,0,20.71.3,31-.2,16.65-.8,33.28-.21,49.92-.47.94,0,1.88.08,2.82.11-1.85,4.61-5.3,7.62-9.66,9.75a45,45,0,0,1-7.25.27c-45.82,0-91.65.08-137.47,0a5.15,5.15,0,0,0-4.19,1.35V943c8.49,1,16.54-.08,24.49.72.74.25,1.58.37,1.9,1.44-.53,2.4-2.47,4-4.06,5.73q-9.78,10.41-19.42,21A9.78,9.78,0,0,1,1116.55,972.94Z" transform="translate(-1020.04 -750.43)"/><path class="cls-6" d="M1317.49,986.69c.06,2.2,1.12,4.09,1.9,6.07l5.52,14.17-.13.1c-3.89,0-7.79-.12-11.68-.12l-162.81.05h-10.78c-.91-1.93.31-3.31.59-4.8a39.47,39.47,0,0,1,1.29-4.18l4.2-11.29a4.54,4.54,0,0,1,2.74-.38h57.05a5,5,0,0,1,2.37.29c.08,2,.12,4,.26,6a25.38,25.38,0,0,0,.5,2.83H1247c.67,0,1.34,0,2,0,1.84-.11,2.74-.91,2.84-2.7.11-2.13.08-4.26.11-6.3,1.44-.83,2.81-.49,4.12-.49q27.39,0,54.79,0c1.48,0,3-.08,4.43,0A9.91,9.91,0,0,1,1317.49,986.69Z" transform="translate(-1020.04 -750.43)"/><path class="cls-8" d="M1210.19,993.21c-.09-1-.19-1.48-.19-2,0-5.08,0-10.17,0-15.44a21.51,21.51,0,0,1,2.47-.32q17.32,0,34.64,0c.78,0,1.56.06,2.29.1a96,96,0,0,1,.07,17.37,4.42,4.42,0,0,1-1.08.29Z" transform="translate(-1020.04 -750.43)"/><path class="cls-9" d="M1116.55,972.94a33.21,33.21,0,0,1,5.27-6.49c2.5-2.6,4.8-5.38,7.27-8s5-4.91,7.35-7.46c1.82-2,3.45-4.06,5.16-6.1.91-1.23,2.28-1.32,3.59-1.32,5,0,10.09-.37,15.11.23,1.85.49,1.89,1.58,1,3a32.82,32.82,0,0,1-4,5c-6.1,6.39-12.88,12.14-18.41,19.08a10.17,10.17,0,0,1-3,2c-4.35.08-8.7.2-13,.23C1120.75,973.17,1118.65,973,1116.55,972.94Z" transform="translate(-1020.04 -750.43)"/><path class="cls-9" d="M1177,944.9c.14.92-.44,1.47-1,2.07-3.07,3.34-6.42,6.48-9.1,10.1-2.07,2.8-5,4.86-6.62,8a6.29,6.29,0,0,1-1.38,1.45,29.1,29.1,0,0,0-5.29,6.46h-11.26a1.88,1.88,0,0,1,.57-2.17c7.73-8.33,14.21-17.74,22.18-25.86a4,4,0,0,1,1.69-1C1170.28,943.75,1173.83,942.53,1177,944.9Z" transform="translate(-1020.04 -750.43)"/><path class="cls-9" d="M1320.65,774.62l-6.37,8c0,.23-.07.76-.11,1.29-.73,1.44-2.14,1.47-3.42,1.49-4.59.06-9.2.35-13.79-.2-2.75-.84-2.64-2.56-1.34-4.56a23.78,23.78,0,0,1,5.72-6Z" transform="translate(-1020.04 -750.43)"/><path class="cls-9" d="M1265.75,783.52c.83-1,1.61-2,2.49-2.94,1.86-2,3.77-4,5.66-5.92h19.29c-1.82,4.54-5.18,7.74-9.13,10.42A58.17,58.17,0,0,1,1265.75,783.52Z" transform="translate(-1020.04 -750.43)"/><path class="cls-7" d="M1165.81,944.93c0,1.07-.75,1.65-1.38,2.34-2.78,3.05-5.65,6-8.3,9.19-3,3.55-5.74,7.28-8.63,10.9-.67.84-1.52,1.52-2.24,2.31-1,1.08-1.92,2.2-2.88,3.29l-6.49,0a96.44,96.44,0,0,1,8.17-9.32c2.83-2.68,5.53-5.5,8.28-8.26,3.3-3.32,6.73-6.51,9.35-10.44C1163.07,943.55,1164.45,943.54,1165.81,944.93Z" transform="translate(-1020.04 -750.43)"/><path class="cls-7" d="M1285.13,783.9c1.34-1.62,2.66-3.27,4-4.86s2.68-2.92,4-4.37l8.15,0c.07,1.05-.65,1.64-1.27,2.33-1.73,1.93-3.42,3.89-5.08,5.8l.71,1.23C1292.15,786.18,1288.63,786.33,1285.13,783.9Z" transform="translate(-1020.04 -750.43)"/><path class="cls-6" d="M1134.41,773a2.72,2.72,0,0,1-.2.63h-28l-.24-.79Z" transform="translate(-1020.04 -750.43)"/><path class="cls-6" d="M1070.58,1092.3c6.07-16.5,12-32.54,17.89-48.57,6.17.28,12.3.1,18.43.1l18.15,0,18.54,0,18.15,0h18.55c6.18,0,12.36,0,18.55,0l18.14,0h110.64c2.1,5.29,3.2,10.8,5,16.09s3,10.52,4.51,15.79,3.06,10.77,4.57,16.13c-.4.19-.63.4-.87.4C1250.89,1092.3,1161,1092.3,1070.58,1092.3Z" transform="translate(-1020.04 -750.43)"/><path class="cls-7" d="M1341.77,1094.71l-3.71,6.5H1075.83c-1.43-2.17-2.89-4.38-4.54-6.9a13,13,0,0,1,5.38,0,6.18,6.18,0,0,0,3.92-.06,1.52,1.52,0,0,1,.79-.09c6.14.82,12.27-.34,18.42-.09s12.36.06,18.54.06h18.55l166.91,0c4.3,0,8.6,0,12.9,0,3.48.05,7-.27,10.42.51a22.84,22.84,0,0,0,4.83.1Z" transform="translate(-1020.04 -750.43)"/><path class="cls-7" d="M1324.05,1009.22l-4.18,5.68h-177c-.93-1.63-2.25-3.14-2.1-5.34a5.21,5.21,0,0,1,1.23-.32C1202.48,1009.22,1263,1009.22,1324.05,1009.22Z" transform="translate(-1020.04 -750.43)"/><path class="cls-10" d="M1324.91,1006.93c.11.05.26.07.33.15s0,.2,0,.31l-.46-.36Z" transform="translate(-1020.04 -750.43)"/><path class="cls-6" d="M1382.06,1019c.07-2-1.4-2.76-3-3.2s-2.53-1.7-3.57-3.26a20.8,20.8,0,0,1,15,5.12,28.8,28.8,0,0,1,6.26,6.77c3.35,5.31,6.35,10.79,7.68,17a8,8,0,0,1,.11,1.2,192.83,192.83,0,0,1,.82,21.63,6.52,6.52,0,0,1-2.79,5.47,12.79,12.79,0,0,1-5.33,2.67,20.86,20.86,0,0,1-9.07.08c-2.58-.57-5.25-.68-7.81-1.57a11.67,11.67,0,0,1-4.89-3,9.8,9.8,0,0,1,0-1.87c.83-4.4,0-8.79-.13-13.18a45,45,0,0,0-2-10.59,66,66,0,0,0-8.39-18.09,64,64,0,0,0-4.86-6l.52-1.39c3.35-2.93,7.37-4,12-4.47l3.6,4.31v1.93c1.12,2.23,3.37,3.87,4.33,6.46s1,5.22,2.63,7.6l2,.13,1.35-2.34-.68-4a11.94,11.94,0,0,1-1.57-1.83,12.44,12.44,0,0,1-.86-1.61,6.23,6.23,0,0,1-.38-.78c-.17-.39-.35-.78-.54-1.16a6,6,0,0,1-.37-.77,4,4,0,0,1-.2-.84Z" transform="translate(-1020.04 -750.43)"/><path class="cls-7" d="M1360.41,1021.62c2.68,2.14,6.17,6.89,8.14,11.78,4.27,10.56,6,17.65,5.23,30.74-.56-.6-1.11-1-1.33-1.46-3.66-8-7-16.13-8.92-24.74-.94-4.14-1.89-8.28-2.89-12.41A7.94,7.94,0,0,1,1360.41,1021.62Z" transform="translate(-1020.04 -750.43)"/><path class="cls-11" d="M1384.87,1023.8a2.42,2.42,0,0,1,1.08,2.57c-.62.17-.7.63-.77,1.19-.15,1.12.36,2.36-.56,3.38a10,10,0,0,1-1.69-3.3,27.67,27.67,0,0,0-1-3.39,23.49,23.49,0,0,0-1.9-3.48c-.62-1-1.41-1.84-2.4-3.11,1.05-.12,1.72-.4,2.2-.2a13.17,13.17,0,0,1,2.26,1.49l0,0c.42.48.29,1.24.83,1.66l0-.05c.43.48.29,1.24.84,1.66l0,0C1384.07,1022.68,1384,1023.62,1384.87,1023.8Z" transform="translate(-1020.04 -750.43)"/><path class="cls-12" d="M1350.43,790a24.26,24.26,0,0,0-.09-3.62,8.77,8.77,0,0,0-1-2.2h-4.93c-8.74,0-17.47-.06-26.2-.12-1.34,0-2.67-.15-4-.24h-.37l-18.1.13h-.63l-9.35-.09h-.59c-1.18.06-2.37.19-3.55.16-5.23-.15-10.45-.34-15.67-.53h-.16q-66.55-.06-133.11-.12c-4.7,0-9.41.05-14.11.06-1.49,0-3,0-4.23,1.53,0,2.6-.13,5.41-.13,8.23q0,72.78,0,145.58a24.26,24.26,0,0,0,.18,3.62,10,10,0,0,0,.93,2.19c2,0,3.9.12,5.77.14q10.28.09,20.56.15h20.21l3.32,0h.68l10.71,0h.51c.67,0,1.33-.11,2-.11q80.42,0,160.84,0c2.79,0,5.61-.33,8.4.44.6.16,1.41-.42,2.21-.69V933.93Zm-40.1,17.7v95.65h-156.2V807.74Z" transform="translate(-1020.04 -750.43)"/><path class="cls-6" d="M1131.05,1087.51c.37-1.67.74-3.35,1.15-5.26,1.14-.8,2.67-.33,4.08-.33q37.9-.06,75.82,0h13c.74,2,.28,3.88.38,5.7a5.21,5.21,0,0,1-2.76.33h-88.5C1133.13,1087.92,1132,1088.19,1131.05,1087.51Z" transform="translate(-1020.04 -750.43)"/><path class="cls-13" d="M1116.54,1060.9c.61-2,1.23-4,1.84-6,2.87-.53,21-.65,26.33-.15l-.33,2.15c-1.74,1-.13,2.9-1.2,4.06l0,0c-4.78,1.08-9.69-.32-14.48.75l-.86,0C1124.15,1060.51,1120.24,1062.08,1116.54,1060.9Z" transform="translate(-1020.04 -750.43)"/><path class="cls-14" d="M1288.5,1048h33.8c1.19,1,.65,2.17.84,3.16-.79,1-1.9.88-3,.88-9.33,0-18.66,0-28,0C1289.39,1052.05,1287.81,1051.08,1288.5,1048Z" transform="translate(-1020.04 -750.43)"/><path class="cls-15" d="M1082,1078.81c-.21-1.89,1.12-3.17,2-4.92,2.16-.14,4.42-.05,6.67-.06s4.28,0,6.42,0,4.54.08,6.82.13c.64,1.85-.29,3.32-1.23,5.11C1095.77,1078.92,1088.87,1079.34,1082,1078.81Z" transform="translate(-1020.04 -750.43)"/><path class="cls-14" d="M1227.07,1060.79c0-2,.07-3.94.11-6,5.37-1,10.41.26,15.66.68.69,1.58.4,3.28.21,5,0,.18-.38.32-.58.48A52.64,52.64,0,0,1,1227.07,1060.79Z" transform="translate(-1020.04 -750.43)"/><path class="cls-15" d="M1085.05,1070.49c.63-2.13,1-4.37,2.72-6.19a57.37,57.37,0,0,1,7.08-.15c2.4,0,4.8,0,7.2,0-.94,6.64-1.15,6.92-7.56,6.79C1091.34,1070.88,1088.15,1071.61,1085.05,1070.49Z" transform="translate(-1020.04 -750.43)"/><path class="cls-13" d="M1230.34,1077.89v-3.51c2.81-.68,16.66-.85,23.05-.3a7.22,7.22,0,0,1,.12,4.15c0,.18-.41.29-.62.42-5.53-.91-11.1-.13-16.65-.41C1234.27,1078.14,1232.27,1078.64,1230.34,1077.89Z" transform="translate(-1020.04 -750.43)"/><path class="cls-6" d="M1227.88,1088.34c-.26-.27-.72-.54-.73-.83-.07-1.7,0-3.42,0-5.06,2.83-.68,9.05-.79,14.26-.27a18.66,18.66,0,0,1,0,6.54c0,.17-.41.27-.63.4C1236.5,1088,1232.11,1089.48,1227.88,1088.34Z" transform="translate(-1020.04 -750.43)"/><path class="cls-14" d="M1236.76,1065c.15-.21.29-.6.44-.61,1.73-.1,3.61-.58,5.15-.07,2.13.71,4.2.55,6.31.62,1.47,0,2.94,0,4.58,0,.55,1.71,1.06,3.27-.2,4.83-5.35.91-10.72.2-16.24.39A7.71,7.71,0,0,1,1236.76,1065Z" transform="translate(-1020.04 -750.43)"/><path class="cls-6" d="M1102,1060.92l-.6,0c-1.09-2.48.31-4.44,1.36-6.48l1.57,1.31c.27.1.07-.78.67-1.21,3.42-.25,7.12-.12,10.81-.06.75,2-.64,3.74-.9,5.62l0-.05c-1.18,1.87-3.08,1.2-4.7,1.16C1107.52,1061.21,1104.73,1061.76,1102,1060.92Z" transform="translate(-1020.04 -750.43)"/><path class="cls-14" d="M1220.83,1070.5a1.06,1.06,0,0,1-1-1c-.31-1.8.6-3.32,1.07-4.94a55.5,55.5,0,0,1,13.14-.16c.64,1.71.16,3.57.32,5.37C1229.89,1070.86,1225.3,1069.56,1220.83,1070.5Z" transform="translate(-1020.04 -750.43)"/><path class="cls-14" d="M1212.63,1061l1-6.34a88.1,88.1,0,0,1,11.63-.13c.09,1.15.2,2.16.24,3.17s0,2.12,0,3.18h-.81A45,45,0,0,1,1212.63,1061Z" transform="translate(-1020.04 -750.43)"/><path class="cls-6" d="M1103.56,1069.78c-.22-.28-.69-.66-.62-.84.56-1.59,1.21-3.14,1.87-4.77h13.37c-.56,6.09-.91,6.5-6.88,6.38C1108.72,1070.5,1106,1071.3,1103.56,1069.78Z" transform="translate(-1020.04 -750.43)"/><path class="cls-16" d="M1131.05,1087.51l86.73,0,7.66,0c-.27.26-.51.71-.8.75a16,16,0,0,1-2.4.07h-88.07a14.62,14.62,0,0,1-2.39-.1C1131.5,1088.27,1131.29,1087.79,1131.05,1087.51Z" transform="translate(-1020.04 -750.43)"/><path class="cls-15" d="M1294.7,1082h12.59a16.75,16.75,0,0,1,1.28,3.87c.08.67,0,1.33-.73,1.64-4,.87-7.95.16-12,.43A12.34,12.34,0,0,1,1294.7,1082Z" transform="translate(-1020.04 -750.43)"/><path class="cls-17" d="M1103.64,1088.35c-.08-2.34,1.06-4.27,2-6.48h10.87c-.24,6.08-1,6.9-7,6.84C1107.55,1088.69,1105.55,1089.17,1103.64,1088.35Z" transform="translate(-1020.04 -750.43)"/><path class="cls-15" d="M1089.08,1060.83c.29-1.25.52-2.53.89-3.75a20.73,20.73,0,0,1,1.09-2.45h10.34c.83,5-.73,7.14-5.44,7C1093.67,1061.62,1091.2,1062.5,1089.08,1060.83Z" transform="translate(-1020.04 -750.43)"/><path class="cls-17" d="M1119.06,1069.92c.62-1.83,1.23-3.65,1.93-5.69,1.79,0,3.61-.07,5.43-.08s3.68,0,5.52.1c.26,0,.51.5.76.78,1,1.83,0,3.3-.88,5.14C1127.59,1070.09,1123.33,1070.45,1119.06,1069.92Z" transform="translate(-1020.04 -750.43)"/><path class="cls-17" d="M1119.06,1089.1l-1.39-.09c-.08-.47-.35-1-.22-1.44.58-1.86,1.28-3.68,2-5.64h10.08c.47,2.34-.76,4.28-1.24,6.35C1125.09,1089.34,1122,1088.13,1119.06,1089.1Z" transform="translate(-1020.04 -750.43)"/><path class="cls-14" d="M1148.78,1073.85l1.61,1.36c.32.14-.13-1,.44-1.11a97.42,97.42,0,0,1,12.68-.15c.49,1.66,0,3.14-.92,5a102.62,102.62,0,0,1-13.8-.07A3.71,3.71,0,0,1,1148.78,1073.85Z" transform="translate(-1020.04 -750.43)"/><path class="cls-6" d="M1160,1064.22h11.67a4,4,0,0,1,.26,3.77c-.2.63-.38,1.26-.57,1.88a15.47,15.47,0,0,1-10.42-.07c0-.67,0-1.39-.83-1.63A2.88,2.88,0,0,1,1160,1064.22Z" transform="translate(-1020.04 -750.43)"/><path class="cls-18" d="M1288.5,1048l1,3c3.49.42,23.79.55,33.61.21.5.3.82.67.49,1.28-3,.57-25.72.73-35.07.24-1-1.5-2-3.1-1.55-5.13A1,1,0,0,1,1288.5,1048Z" transform="translate(-1020.04 -750.43)"/><path class="cls-6" d="M1168.17,1060.86c.35-1.93.69-3.87,1.08-6,2.84-.76,5.86-.21,9-.29a13.16,13.16,0,0,1,.22,5.91c0,.18-.39.31-.59.47A23.13,23.13,0,0,1,1168.17,1060.86Z" transform="translate(-1020.04 -750.43)"/><path class="cls-15" d="M1321.27,1082.05c3.68-.31,7.36-.09,11-.16.73,1.95,1.57,3.58,1.34,5.49-3.71,1.22-7.46.24-11.19.56C1321.52,1085.88,1320.82,1084.09,1321.27,1082.05Z" transform="translate(-1020.04 -750.43)"/><path class="cls-14" d="M1207.7,1069.69c0-1.71.07-3.42.1-5.07a35.59,35.59,0,0,1,11-.1,22.91,22.91,0,0,1,.05,5.43C1215.16,1070.18,1211.42,1070.64,1207.7,1069.69Z" transform="translate(-1020.04 -750.43)"/><path class="cls-14" d="M1184.34,1069.82a26.7,26.7,0,0,1,0-3.58,6.86,6.86,0,0,1,1-2h9.82c.72,1.69.44,3.38.25,5,0,.18-.37.32-.57.48A30.28,30.28,0,0,1,1184.34,1069.82Z" transform="translate(-1020.04 -750.43)"/><path class="cls-6" d="M1180.27,1060.85a11.24,11.24,0,0,1,1.34-6.24h8a13.64,13.64,0,0,1,.13,5.86c0,.18-.4.3-.61.45A19.73,19.73,0,0,1,1180.27,1060.85Z" transform="translate(-1020.04 -750.43)"/><path class="cls-6" d="M1134.37,1069.08c.38-1.37.77-2.74,1.14-4a2.75,2.75,0,0,1,2.56-.9c3.32,0,6.64,0,10,0a10.83,10.83,0,0,1-1,5.37C1142.86,1069.68,1138.61,1070.47,1134.37,1069.08Z" transform="translate(-1020.04 -750.43)"/><path class="cls-19" d="M1120.68,1078.79c.32-1.53.64-3.06,1-4.77a32.38,32.38,0,0,1,6-.18c2,0,4,.09,6,.14,1,1.87,0,3.32-1.22,5.08C1128.65,1078.93,1124.67,1079.35,1120.68,1078.79Z" transform="translate(-1020.04 -750.43)"/><path class="cls-6" d="M1318.2,1065c2.59-.35,5.12-1.22,7.79-.83a8.17,8.17,0,0,1,.84.22c2,1.52,2,3.8,2,6.06-3,1.15-6,.37-8.9.37A9,9,0,0,1,1318.2,1065Z" transform="translate(-1020.04 -750.43)"/><path class="cls-15" d="M1156.86,1060.75c.14-2-.42-4.24,1.5-6.25,2.61,0,5.48-.1,8.35.07a11.25,11.25,0,0,1-1,6.6C1162.73,1061.11,1159.77,1061.93,1156.86,1060.75Z" transform="translate(-1020.04 -750.43)"/><path class="cls-6" d="M1090.7,1087.45a8.9,8.9,0,0,1,2-5.49h9.47c.27,5-.81,6.4-5.36,6.34C1094.73,1088.28,1092.53,1089,1090.7,1087.45Z" transform="translate(-1020.04 -750.43)"/><path class="cls-14" d="M1078.61,1088.33c0-2.28,1-4.22,2.05-6.41,2.86,0,5.73-.09,8.59.06.37,2.37-1,4.25-1.63,6.56C1084.55,1088.72,1081.58,1089.14,1078.61,1088.33Z" transform="translate(-1020.04 -750.43)"/><path class="cls-17" d="M1144.84,1061c-.14-2.33,1-4.26,1.94-6.44a53.34,53.34,0,0,1,6.69,0c.37,0,.72.62,1.07,1,1.12,1.92.18,3.57-.57,5.43A25.48,25.48,0,0,1,1144.84,1061Z" transform="translate(-1020.04 -750.43)"/><path class="cls-14" d="M1191.62,1061c0-2.2-.55-4.53,1.37-6.36h7.25a35,35,0,0,1,.19,6.36A25.07,25.07,0,0,1,1191.62,1061Z" transform="translate(-1020.04 -750.43)"/><path class="cls-14" d="M1202.07,1060.92c0-2.08-.37-4.23,1.09-6.05a1.4,1.4,0,0,1,.36-.26h7.22c.08,1.13.18,2.14.21,3.15s0,2.11,0,3.17A21.77,21.77,0,0,1,1202.07,1060.92Z" transform="translate(-1020.04 -750.43)"/><path class="cls-14" d="M1173,1069.81c-.24-1.92.46-3.62,1.29-5.6,2.78-.12,5.67-.08,8.45,0a2,2,0,0,1,.56,2.63,8,8,0,0,0-.7,3.08A29.46,29.46,0,0,1,1173,1069.81Z" transform="translate(-1020.04 -750.43)"/><path class="cls-15" d="M1244,1081.93h9.29c.81,1.91.27,3.79.44,5.6-3.22,1.6-6.46.58-9.65.6C1243,1085.72,1242.91,1083.83,1244,1081.93Z" transform="translate(-1020.04 -750.43)"/><path class="cls-17" d="M1315.86,1056c.43-.23.86-.66,1.3-.67,2.27-.07,4.55,0,6.94,0a7.24,7.24,0,0,1,2.25,5.63,24.34,24.34,0,0,1-9.73,0l0,0c-.45-.47-.31-1.23-.84-1.65l0,0A3.4,3.4,0,0,1,1315.86,1056Z" transform="translate(-1020.04 -750.43)"/><path class="cls-14" d="M1196.5,1069.9v-4.27a2.3,2.3,0,0,1,2.21-1.49c1.71,0,3.44-.07,5.14,0a7.67,7.67,0,0,1,2.16.89v4.84A34.42,34.42,0,0,1,1196.5,1069.9Z" transform="translate(-1020.04 -750.43)"/><path class="cls-6" d="M1164.36,1075.4c1.19.22,1.33-1.07,2.34-1.57,3.42,0,7.07,0,10.81,0a10.06,10.06,0,0,1,.3,4.06,23.84,23.84,0,0,1-12.79,0c-.09-.63.07-1.37-.76-1.66C1163.84,1075.93,1163.87,1075.64,1164.36,1075.4Z" transform="translate(-1020.04 -750.43)"/><path class="cls-15" d="M1267.35,1082c2.62,0,5.25,0,7.87,0,.23,0,.45.19,1,.4a29.59,29.59,0,0,1,.08,5.26c-2.84,1.39-5.71.56-8.66.47A10.27,10.27,0,0,1,1267.35,1082Z" transform="translate(-1020.04 -750.43)"/><path class="cls-15" d="M1149.6,1069.68c.13-1.81-.41-3.76,1.85-5.51,2.24,0,5.12-.08,8,.06.32,1.92-.41,3.66-.83,5.7C1155.56,1070.13,1152.58,1070.7,1149.6,1069.68Z" transform="translate(-1020.04 -750.43)"/><path class="cls-15" d="M1106,1077.82a5.4,5.4,0,0,1,1.3-3.85,36.24,36.24,0,0,1,5.74-.13c2,0,4,0,6,.05.51,1.55-.16,2.84-1,4.5C1114.09,1078.54,1110.05,1079.41,1106,1077.82Z" transform="translate(-1020.04 -750.43)"/><path class="cls-6" d="M1280.28,1065.15c.24-.3.48-.84.73-.85,2.14-.1,4.29-.16,6.43-.07.56,0,1.1.61,1.77,1,0,1.28,0,2.48,0,3.67,0,.3-.46.58-.71.86-1.51.8-3.14.38-4.71.37C1280,1070.15,1279.49,1069.28,1280.28,1065.15Z" transform="translate(-1020.04 -750.43)"/><path class="cls-15" d="M1259.37,1064.88c.07-.11.12-.3.21-.32a16.09,16.09,0,0,1,7.71,0c.21,0,.36.36.84.86,0,1,.11,2.25.07,3.55,0,.29-.46.56-.71.84-2.27.9-4.61.1-6.51.41-1.62-.68-.83-2.13-1.65-2.83l0,.05A2.15,2.15,0,0,1,1259.37,1064.88Z" transform="translate(-1020.04 -750.43)"/><path class="cls-6" d="M1138.32,1051.2a5.24,5.24,0,0,1,1.33-3.87,35.22,35.22,0,0,1,5-.12c1.6,0,3.2,0,4.79.07.38,0,.73.61,1.09.94.63,1,.46,2-.27,3.38C1146.39,1051.44,1142.36,1052.11,1138.32,1051.2Z" transform="translate(-1020.04 -750.43)"/><path class="cls-17" d="M1318.84,1075.4l-.56-.88c.28-.26.46-.58.65-.58,3.6,0,7.19,0,10.77,0a4.59,4.59,0,0,1,1.45,4,35.47,35.47,0,0,1-11.31,0l0,0C1319.17,1077.22,1319.89,1075.94,1318.84,1075.4Z" transform="translate(-1020.04 -750.43)"/><path class="cls-6" d="M1135.92,1077.88c.09-1.29-.42-2.74,1.3-3.94,3.37-.23,7.12-.09,10.86-.07.54,1.54-.13,2.83-.94,4.49C1143.45,1078.54,1139.68,1079.41,1135.92,1077.88Z" transform="translate(-1020.04 -750.43)"/><path class="cls-15" d="M1258.58,1055.9a3.73,3.73,0,0,1,1.31-.62c2-.06,3.93,0,5.88,0,2,1.57,1.71,3.69,1.6,5.76-2.6.57-5.2.22-8,.26C1259.06,1059.35,1257.7,1057.84,1258.58,1055.9Z" transform="translate(-1020.04 -750.43)"/><path class="cls-14" d="M1179.48,1077.86v-3.71c3.72-.63,7.25-.22,11-.28.13,1.49.9,2.82-.54,4A15.08,15.08,0,0,1,1179.48,1077.86Z" transform="translate(-1020.04 -750.43)"/><path class="cls-17" d="M1245.67,1055.26h7.65c.7,2,.27,3.88.37,5.69-2.62.7-5.25.3-8,.24A9.9,9.9,0,0,1,1245.67,1055.26Z" transform="translate(-1020.04 -750.43)"/><path class="cls-6" d="M1256,1082h7.72c.87,1.85.24,3.75.47,5.56-2.59.88-5.22.26-8,.35A10.38,10.38,0,0,1,1256,1082Z" transform="translate(-1020.04 -750.43)"/><path class="cls-19" d="M1278.62,1055.35h7.78c.39,1.3.84,2.63,1.18,4a1.21,1.21,0,0,1-.79,1.58c-2.31.77-4.66.28-7,.31A7,7,0,0,1,1278.62,1055.35Z" transform="translate(-1020.04 -750.43)"/><path class="cls-15" d="M1279.49,1081.93c1.87,0,3.73,0,5.6,0a2.53,2.53,0,0,1,2.53,1.66v3.93c-2.61,1.56-5.27.88-8.11.37A11.12,11.12,0,0,1,1279.49,1081.93Z" transform="translate(-1020.04 -750.43)"/><path class="cls-14" d="M1240,1048h12.64a4.25,4.25,0,0,1,1,.39c0,.89,0,1.9.07,2.91-4.52.55-9,.24-13.32.18A2.44,2.44,0,0,1,1240,1048Z" transform="translate(-1020.04 -750.43)"/><path class="cls-6" d="M1114.07,1048.84l2.37-1.58h9.85c.16,3.66-1.75,5-5.21,4.79-1.86-.11-3.73,0-5.6-.06a2.85,2.85,0,0,1-1.23-.35,2.06,2.06,0,0,1-.72-1.69A1.94,1.94,0,0,1,1114.07,1048.84Z" transform="translate(-1020.04 -750.43)"/><path class="cls-14" d="M1174.06,1048c2-.5,4.06-1.48,6.1,0h5.23c.57,1.3,1.16,2.35-.21,3.29-3.45,1.67-7.12.4-10.66.84h-.62A2.82,2.82,0,0,1,1174.06,1048Z" transform="translate(-1020.04 -750.43)"/><path class="cls-14" d="M1203.72,1077.91v-3.73c3.38-.68,6.64-.25,10.12-.31.25,1.46.91,2.77-.42,4A13.57,13.57,0,0,1,1203.72,1077.91Z" transform="translate(-1020.04 -750.43)"/><path class="cls-6" d="M1216.58,1077.05c-1.33-.68-.68-1.78-.57-2.93,2-.56,4.15-.22,6.22-.28s4,0,6.12,0c.27,1.24,1,2.3-.41,3.22A17.22,17.22,0,0,1,1216.58,1077.05Z" transform="translate(-1020.04 -750.43)"/><path class="cls-6" d="M1311.62,1082.06h6.26c.28.39,1,1,1.08,1.62a11.25,11.25,0,0,0,.81,3c.06.18-.41.56-.63.84-2.28,1.18-4.77,1.45-6.82,0C1310.53,1086.22,1310.6,1084.05,1311.62,1082.06Z" transform="translate(-1020.04 -750.43)"/><path class="cls-16" d="M1114.07,1048.84a1,1,0,0,0,0,.53c-.28.64-.55,1.28,0,1.9l0,.23a.78.78,0,0,1,0,1c-3.34.09-6.75.66-10,.14-3.59-.58-7.14-.42-10.7-.63-.23,0-.46-.21-1-.45,2.56-1,5-.08,7.63-.63.49-.88,1-1.89,1.58-2.82.87-.08,1.1.32,1,.93s-.35,1.2-.52,1.77a3.48,3.48,0,0,0,.93.36c2.67,0,5.34,0,8.18,0,.64-1.28,1.27-2.53,1.88-3.76C1114.19,1047.44,1114,1048.22,1114.07,1048.84Z" transform="translate(-1020.04 -750.43)"/><path class="cls-14" d="M1192.44,1077.93v-3.72c3.08-.76,6.09-.24,9.32-.35.21,1.48.91,2.8-.46,4A23.37,23.37,0,0,1,1192.44,1077.93Z" transform="translate(-1020.04 -750.43)"/><path class="cls-14" d="M1219.06,1052.11v-3.76c3.14-.64,6.15-.24,9.22-.33.67,1.48.36,2.82.36,4.12A30.48,30.48,0,0,1,1219.06,1052.11Z" transform="translate(-1020.04 -750.43)"/><path class="cls-14" d="M1207.7,1051.92c0-1.16.1-2.33.16-3.61,1.65-.52,3.23-.25,4.77-.3s2.86,0,4.36,0c.67,1.46.33,2.78.41,4.06C1214.16,1052.56,1210.92,1052.86,1207.7,1051.92Z" transform="translate(-1020.04 -750.43)"/><path class="cls-15" d="M1298.88,1055.28h6.51c1.87,1.69,1.59,3.71,1.57,5.66C1300.93,1063,1299.3,1061.82,1298.88,1055.28Z" transform="translate(-1020.04 -750.43)"/><path class="cls-17" d="M1258.48,1048.24c.35-.33.69-.94,1.06-1,1.83-.09,3.67,0,5.74,0,.37.48,1.18,1,1.21,1.66.06,1,.83,2.39-.67,3.14a14.45,14.45,0,0,1-7.3,0l0,0A2.91,2.91,0,0,1,1258.48,1048.24Z" transform="translate(-1020.04 -750.43)"/><path class="cls-15" d="M1152.84,1051.17c.13-1.28-.41-2.74,1.35-3.84a78.24,78.24,0,0,1,8.43-.07c.7,1.55,0,2.79-.91,4.17C1158.76,1051.56,1155.79,1052.1,1152.84,1051.17Z" transform="translate(-1020.04 -750.43)"/><path class="cls-6" d="M1127,1048.82l1.41-1.46h7.65c.61,3.43,0,4.36-3.17,4.65-2,.18-3.92-.17-5.88,0l-.88,0C1125.43,1050.66,1125,1049.41,1127,1048.82Z" transform="translate(-1020.04 -750.43)"/><path class="cls-6" d="M1269.73,1055.36h6.13c.86,1.82.25,3.72.46,5.53-2.13,1.38-4.29.81-6.53.37A6.35,6.35,0,0,1,1269.73,1055.36Z" transform="translate(-1020.04 -750.43)"/><path class="cls-15" d="M1290,1056.17c.39-.3.76-.83,1.16-.85,1.58-.1,3.17,0,5,0,.15,2.06,1.38,3.75,1,5.8a25.3,25.3,0,0,1-6.33.12C1290,1059.48,1289.21,1058,1290,1056.17Z" transform="translate(-1020.04 -750.43)"/><path class="cls-6" d="M1270.65,1065c.84-1.61,2.32-.73,3.5-.81,2-.13,2,0,3.67,1.2v3.73c-1.3.91-2.8.68-4.23.64C1270,1069.66,1269.49,1068.88,1270.65,1065Z" transform="translate(-1020.04 -750.43)"/><path class="cls-15" d="M1291.65,1064.88a5.87,5.87,0,0,1,1.26-.71c1.66-.47,3,.76,4.78.9a34.25,34.25,0,0,1,1.13,3.59c.07.31-.51.76-.79,1.15-1.92.78-3.83.21-5.77.3C1291.76,1068.16,1290.94,1066.62,1291.65,1064.88Z" transform="translate(-1020.04 -750.43)"/><path class="cls-20" d="M1103.56,1069.78H1116c.76-2,1.47-3.79,2.17-5.61a1.12,1.12,0,0,1,.8,1.54,14.05,14.05,0,0,1-2.15,5.55H1104C1103.83,1070.74,1103.69,1070.26,1103.56,1069.78Z" transform="translate(-1020.04 -750.43)"/><path class="cls-18" d="M1089.08,1060.83a84.78,84.78,0,0,0,10.45-.09,12.54,12.54,0,0,0,1.87-6.11l1.38-.14a29.3,29.3,0,0,1-.36,3.11c-.25,1.14-.66,2.25-1,3.37a2.5,2.5,0,0,1-2.21,1.51c-3.48,0-7-.09-10.45-.16-.08,0-.16-.17-.33-.36C1088.17,1061.41,1088.61,1061.12,1089.08,1060.83Z" transform="translate(-1020.04 -750.43)"/><path class="cls-21" d="M1244,1081.93l.17,5.26c1.62.62,3.22.3,4.77.35s3.19,0,4.79,0l1.51-.08c.25.13.35.29.32.49s-.09.3-.16.3a8.7,8.7,0,0,1-2.54.87c-3.28.11-6.57.05-10,.05-.82-2.32-.28-4.52-.45-6.88Z" transform="translate(-1020.04 -750.43)"/><path class="cls-14" d="M1197.27,1051.29v-2.91c2.85-.76,5.6-.18,8.16-.38,1,1.14.54,2.25.66,3.26A11.34,11.34,0,0,1,1197.27,1051.29Z" transform="translate(-1020.04 -750.43)"/><path class="cls-18" d="M1134.37,1069.08l12.32-.16,1.34-4.76c.87.2,1,.87.82,1.54-.33,1.54-.74,3.06-1.1,4.53a60.63,60.63,0,0,1-13.26,0Z" transform="translate(-1020.04 -750.43)"/><path class="cls-22" d="M1090.7,1087.45c3.25,0,6.52.38,9.87-.22a17.48,17.48,0,0,0,1.55-5.27h1.44a29.79,29.79,0,0,1-2,6.43c-1.39,1.14-2.77.66-4.06.73a35.42,35.42,0,0,1-3.57,0c-1.28-.07-2.61.32-3.73-.27C1089.81,1088.05,1090.23,1087.74,1090.7,1087.45Z" transform="translate(-1020.04 -750.43)"/><path class="cls-18" d="M1135.92,1077.88h10.84c.45-1.36.88-2.69,1.32-4a3.28,3.28,0,0,1,.7,0l.09,5.18,0,.08c-1.16.11-2.32.31-3.49.33-3,0-6,0-9.18,0Z" transform="translate(-1020.04 -750.43)"/><path class="cls-18" d="M1106,1077.82h11.66c.44-1.28.89-2.61,1.35-3.93.26.27.72.51.75.8a5.41,5.41,0,0,1-1.48,4.67,57.53,57.53,0,0,1-6,.09c-2,0-3.92,0-6,0C1106.2,1078.78,1106.12,1078.3,1106,1077.82Z" transform="translate(-1020.04 -750.43)"/><path class="cls-18" d="M1127,1048.82a4.86,4.86,0,0,0-.74,1.22,10.65,10.65,0,0,0-.13,2c-.59.28-1.18.8-1.77.8-3.43,0-6.87-.16-10.3-.26v-1l10.07-.41c.65-1.16,1.4-2.49,2.14-3.83C1127.12,1047.5,1127,1048.19,1127,1048.82Z" transform="translate(-1020.04 -750.43)"/><path class="cls-10" d="M1082,1078.81c5.47,0,11-.11,16.43-.15,1.32,0,2.64,0,4.12,0l1.31-4.69,1.33.07c-.29,1.1-.5,2.1-.83,3.07a22.48,22.48,0,0,1-1.07,2.28c-1,0-1.86.09-2.77.09-5.47,0-10.94,0-16.41,0C1083.33,1079.47,1082.45,1079.74,1082,1078.81Z" transform="translate(-1020.04 -750.43)"/><path class="cls-18" d="M1311.62,1082.06l.42,4.68c2.37,1.39,4.8.56,7.1.79-.07.39-.14.77-.24,1.34-2.43.53-4.88.2-7.57.2-.62-2.31-1.21-4.51-1.89-7Z" transform="translate(-1020.04 -750.43)"/><path class="cls-23" d="M1085.05,1070.49h14.5c1.34-2,1.53-4.32,2.5-6.33.92.21.9.91.69,1.55-.57,1.77-1.22,3.51-1.94,5.53a61.74,61.74,0,0,1-7.84.17c-2.69,0-5.37,0-8.32,0C1084.82,1071,1084.94,1070.75,1085.05,1070.49Z" transform="translate(-1020.04 -750.43)"/><path class="cls-18" d="M1127,1052c.39-.27.77-.76,1.18-.78,1.58-.1,3.17,0,4.75-.07.76,0,1.52-.19,2.51-.32l.61-3.51,1.29.14.21,4.18,0,0a15.81,15.81,0,0,1-7.62,1.15A22.22,22.22,0,0,1,1127,1052Z" transform="translate(-1020.04 -750.43)"/><path class="cls-20" d="M1269.73,1055.36c.09,1.7.17,3.39.27,5.33,1.13.08,2.14.18,3.15.21s2.11,0,3.17,0c-.07.39-.14.78-.22,1.28a12.45,12.45,0,0,1-5.08.24,9.16,9.16,0,0,1-2.63-1v-5.69C1268.66,1055.17,1269.24,1055.4,1269.73,1055.36Z" transform="translate(-1020.04 -750.43)"/><path class="cls-22" d="M1298.88,1055.28c.28.88.56,1.75.83,2.62a14.79,14.79,0,0,0,.43,1.52,15.57,15.57,0,0,0,.89,1.52H1307c.13.2.38.42.35.59a.81.81,0,0,1-.47.55,14.61,14.61,0,0,1-7.57,0c-.46-2-.87-3.64-1.2-5.29C1297.93,1056.12,1298,1055.48,1298.88,1055.28Z" transform="translate(-1020.04 -750.43)"/><path class="cls-22" d="M1270.65,1065v3.64c2.5.68,4.88.1,7.17.48-.08.39-.15.77-.24,1.29a51.17,51.17,0,0,1-7.09.14c-2.13-1.42-1.16-3.43-1.53-5.4Z" transform="translate(-1020.04 -750.43)"/><path class="cls-22" d="M1279.49,1081.93c.07,1.71.14,3.41.21,5.17,1.31.77,2.66.38,3.94.43s2.66,0,4,0c.5.29.81.66.39,1.47a74.15,74.15,0,0,1-9,.13,15.74,15.74,0,0,1-.14-6.75C1278.9,1082.17,1279.27,1082.06,1279.49,1081.93Z" transform="translate(-1020.04 -750.43)"/><path class="cls-22" d="M1267.35,1082l.23,5.19c1.44.73,2.91.29,4.31.38s2.91.07,4.36.09c-.07.39-.13.77-.23,1.3a70.82,70.82,0,0,1-9.14.17,15.93,15.93,0,0,1-.12-6.69C1266.78,1082.22,1267.15,1082.1,1267.35,1082Z" transform="translate(-1020.04 -750.43)"/><path class="cls-18" d="M1311.22,1069.47c1.9.7,3.9-.31,5.87,1.35-2.8.92-5,.45-7.34.52-.27-1.18-.44-2.21-.76-3.19s-.73-2,0-3c1.52,0,1,1.25,1.28,2S1311,1068.83,1311.22,1069.47Z" transform="translate(-1020.04 -750.43)"/><path class="cls-18" d="M1174.06,1048c-.06,1.37-.11,2.74-.16,4.11-2.68,1.36-5.52.66-8.3.64-.4,0-.8-.56-1.64-1.18,2.84-.61,5.21-.15,7.76-.42l1.53-3.76Z" transform="translate(-1020.04 -750.43)"/><path class="cls-21" d="M1165,1077.93h12.79a2,2,0,0,1-2,1.5q-4.34,0-8.67,0A2.06,2.06,0,0,1,1165,1077.93Z" transform="translate(-1020.04 -750.43)"/><path class="cls-16" d="M1103.64,1088.35c2.38,0,4.76-.07,7.14,0a6.56,6.56,0,0,0,4-1.23c.49-1.56,1.08-3.4,1.68-5.25.85.13,1,.75.89,1.45a16.08,16.08,0,0,1-2,5.72c-3.59.21-7.27.11-10.94,0C1104.16,1089.07,1103.9,1088.6,1103.64,1088.35Z" transform="translate(-1020.04 -750.43)"/><path class="cls-18" d="M1302.58,1069.57l4.36.48c-.87,1.39-.87,1.39-5.12,1.23-2.11-1.62-1-4.37-2.25-6.41l1.4-.6C1301.53,1066.09,1302.05,1067.82,1302.58,1069.57Z" transform="translate(-1020.04 -750.43)"/><path class="cls-23" d="M1119.06,1069.92l12.53-.24c.52-1.59,1.31-3,1.11-4.65a1.32,1.32,0,0,1,1.25,1.68c-.18,1.16-.55,2.3-.9,3.68-.69.07-1.46.21-2.23.22-3.36,0-6.72,0-10.08,0C1120.09,1070.62,1119.38,1070.72,1119.06,1069.92Z" transform="translate(-1020.04 -750.43)"/><path class="cls-10" d="M1148.89,1079.11l0-.08c1.43-.12,2.85-.33,4.28-.35,3-.06,6,0,9.15,0,.44-1.72.82-3.22,1.21-4.71l.85,1.45c0,.29-.07.58-.1.87-.11.91-.22,1.83-.35,2.93a13.29,13.29,0,0,1-1.91.27c-3.46,0-6.92,0-10.38,0A23.2,23.2,0,0,1,1148.89,1079.11Z" transform="translate(-1020.04 -750.43)"/><path class="cls-22" d="M1230.34,1077.89l21-.06c.68,0,1.34,0,1.6.82h-20.52C1231.62,1078.65,1230.72,1078.93,1230.34,1077.89Z" transform="translate(-1020.04 -750.43)"/><path class="cls-24" d="M1321.27,1082.05c.42,1.67.83,3.34,1.31,5.23a69,69,0,0,0,11.05.1l.4.61c-.19.12-.38.34-.56.34-3.82,0-7.64,0-11.26,0a7.07,7.07,0,0,1-.67-.81,4.78,4.78,0,0,1-.49-1.08c-.35-1.38-.65-2.76-1-4.23Z" transform="translate(-1020.04 -750.43)"/><path class="cls-18" d="M1216.58,1077.05h11.36c-.06.39-.13.78-.22,1.35-3.53.58-7.08.06-10.78.33C1216.79,1078,1216.69,1077.53,1216.58,1077.05Z" transform="translate(-1020.04 -750.43)"/><path class="cls-23" d="M1236.76,1065v4.54a53.67,53.67,0,0,0,8.36.24c2.64,0,5.28,0,7.92,0-.27.25-.54.73-.81.73-5.3,0-10.59,0-16.13,0a14,14,0,0,1,0-5.17C1236.16,1065.2,1236.54,1065.11,1236.76,1065Z" transform="translate(-1020.04 -750.43)"/><path class="cls-16" d="M1120.68,1078.79h11c2-1.29,1.77-3.14,2-4.81l1.32.11a9.59,9.59,0,0,1-1.46,5,78.12,78.12,0,0,1-12.35.2C1121,1079.29,1120.85,1079,1120.68,1078.79Z" transform="translate(-1020.04 -750.43)"/><path class="cls-20" d="M1160.93,1069.8l10.42.07-.21,1.32a59.65,59.65,0,0,1-9.45.1c-.4,0-.8-.58-1.15-.93A3.94,3.94,0,0,1,1160.93,1069.8Z" transform="translate(-1020.04 -750.43)"/><path class="cls-16" d="M1240,1048l.16,2.92c4.55.62,9.06,0,13.52.39-.29.23-.58.67-.87.67-4.61,0-9.22,0-14.07,0-.13-1.31-.24-2.44-.37-3.79Z" transform="translate(-1020.04 -750.43)"/><path class="cls-20" d="M1267.73,1047.63l.94-.24.69,3.35c.21.13.42.36.65.38,1.33.09,2.66.09,4,.22.23,0,.4.56.7,1-2.08.83-4,.35-5.86.45C1267.4,1051,1267.4,1051,1267.73,1047.63Z" transform="translate(-1020.04 -750.43)"/><path class="cls-24" d="M1294.7,1082c.44,1.75.89,3.49,1.39,5.47l11.75,0a1.11,1.11,0,0,1-1.19.82h-11.28a10.39,10.39,0,0,1-1.32-5.43C1294.07,1082.61,1294.48,1082.32,1294.7,1082Z" transform="translate(-1020.04 -750.43)"/><path class="cls-24" d="M1318.2,1065c.57,1.75,1.15,3.5,1.75,5.34a48.4,48.4,0,0,0,8.84.11l.39.6c-.19.12-.37.34-.56.34-2.91,0-5.81,0-8.72,0a5.25,5.25,0,0,1-1.22-.3c-.41-1.5-.84-3-1.19-4.5C1317.34,1066,1317.38,1065.27,1318.2,1065Z" transform="translate(-1020.04 -750.43)"/><path class="cls-20" d="M1174.52,1052.07a1.56,1.56,0,0,1,1.61-.84h9c-.06.38-.12.76-.18,1.22a4,4,0,0,1-1,.36c-2.61,0-5.21,0-7.81,0A1.6,1.6,0,0,1,1174.52,1052.07Z" transform="translate(-1020.04 -750.43)"/><path class="cls-21" d="M1179.48,1077.86H1190a2,2,0,0,1-2,1.58c-2.63,0-5.27,0-8.06,0Z" transform="translate(-1020.04 -750.43)"/><path class="cls-18" d="M1292.84,1078c-.36-1.21-.7-2.33-1-3.52l1-.63,1.55,2.89a6.46,6.46,0,0,0,1.07.25c1.39.1,2.82-.16,4.21.28-.18.58-.21,1-.33,1A9.54,9.54,0,0,1,1292.84,1078Z" transform="translate(-1020.04 -750.43)"/><path class="cls-24" d="M1078.61,1088.33h8.54l2.1-6.35,1.28.17-2.32,6.8a52.52,52.52,0,0,1-8.85.14C1079.11,1089.08,1078.86,1088.59,1078.61,1088.33Z" transform="translate(-1020.04 -750.43)"/><path class="cls-23" d="M1156.86,1060.75c2.48,0,5,.1,7.46.13a9.3,9.3,0,0,0,1.36-.26c.09-1,.13-2,.3-3s.48-2,.73-3c.2.16.55.31.56.49.13,2.13.38,4.29-1,6.44-3.12.6-6.47,0-10.09.32Z" transform="translate(-1020.04 -750.43)"/><path class="cls-24" d="M1144.84,1061l8.32-.19c1.55-1.58,1.43-3.46,1.38-5.32l1.47-.16c-.32,2-.63,3.92-1,6.06a15.89,15.89,0,0,1-2.17.34c-2.27,0-4.53,0-6.8,0A1.12,1.12,0,0,1,1144.84,1061Z" transform="translate(-1020.04 -750.43)"/><path class="cls-20" d="M1203.72,1077.91l9.7-.06-.23,1.34c-3,.61-6,.07-9.1.32C1203.94,1078.85,1203.83,1078.38,1203.72,1077.91Z" transform="translate(-1020.04 -750.43)"/><path class="cls-25" d="M1119.06,1089.1a1.07,1.07,0,0,1,1.19-.77h7c1.77-2,1.38-4.42,2.3-6.41.83.2.94.85.8,1.51-.36,1.65-.79,3.28-1.18,4.89-1.51,1.38-3.3.69-4.94.78S1120.77,1089.11,1119.06,1089.1Z" transform="translate(-1020.04 -750.43)"/><path class="cls-24" d="M1137.63,1051.63l0,0,.73-.48c3.92,0,7.84,0,11.92,0,.1-1.21.18-2.09.26-3l1.15-.12c.1.29.3.57.24.77-.29,1-.64,2-1,3.14C1146.4,1051.85,1142,1052.55,1137.63,1051.63Z" transform="translate(-1020.04 -750.43)"/><path class="cls-24" d="M1149.6,1069.68h8.26c1-.88.54-1.9.77-2.77s.55-1.79.82-2.68a2.44,2.44,0,0,1,.54,0l.11,4c-.41.74-.83,1.48-1.32,2.34h-9.49Z" transform="translate(-1020.04 -750.43)"/><path class="cls-20" d="M1197.27,1051.29l8.82,0c-.06.39-.11.77-.19,1.32-2.69.53-5.4.14-8.28.28C1197.48,1052.23,1197.38,1051.76,1197.27,1051.29Z" transform="translate(-1020.04 -750.43)"/><path class="cls-20" d="M1195.58,1052.47a22.14,22.14,0,0,1-7.6.16c-.36,0-.67-.64-1.28-1.27a39.91,39.91,0,0,1,8.27,0C1195.17,1051.42,1195.31,1052,1195.58,1052.47Z" transform="translate(-1020.04 -750.43)"/><path class="cls-10" d="M1280.28,1065.15l.21,3.91c2.72,1.31,5.41.45,8,.72-.27.26-.54.74-.81.74-2.54.06-5.07,0-7.76,0-.41-1.74-.8-3.37-1.13-4.8C1279.21,1064.85,1279.78,1065.13,1280.28,1065.15Z" transform="translate(-1020.04 -750.43)"/><path class="cls-24" d="M1290,1056.17c-.15,1.64.61,3,1.1,4.58l6.06.33c-.44.22-.88.61-1.33.63-2,.07-4,0-6.24,0-.14-1-.27-1.83-.39-2.7l-.37-2.75Z" transform="translate(-1020.04 -750.43)"/><path class="cls-25" d="M1308,1055.5c2.19,1.11.75,3.72,2.93,5.19l3,.33c-.25.34-.35.63-.47.63-1.45,0-2.9,0-4.5,0C1308.52,1059.61,1307.19,1057.8,1308,1055.5Z" transform="translate(-1020.04 -750.43)"/><path class="cls-5" d="M1227.07,1060.79l15.4.12c-.24.84-.93.8-1.59.8l-14.47,0c-.26-.15-.35-.3-.28-.46s.16-.24.24-.24A2.88,2.88,0,0,0,1227.07,1060.79Z" transform="translate(-1020.04 -750.43)"/><path class="cls-10" d="M1152.84,1051.17h8.21a5.23,5.23,0,0,0,1.57-3.91c.13,0,.31.07.37.16.9,1.6.28,3-.37,4.49-1.15,0-2.07.12-3,.13h-7.28C1152.61,1051.56,1152.72,1051.36,1152.84,1051.17Z" transform="translate(-1020.04 -750.43)"/><path class="cls-22" d="M1276.78,1052a4.55,4.55,0,0,1-.19-3.78,5,5,0,0,1,1.66,2.71c2.39.68,5-.22,8.16.76C1282.77,1052.31,1279.86,1052,1276.78,1052Z" transform="translate(-1020.04 -750.43)"/><path class="cls-23" d="M1258.58,1055.9l1,4.75c2.55.58,5.2,0,7.79.36-.29.24-.56.66-.85.67-2.5,0-5,0-7.7,0-.17-.7-.3-1.3-.46-1.9a14.3,14.3,0,0,1-.54-1.88C1257.74,1057.17,1257.64,1056.32,1258.58,1055.9Z" transform="translate(-1020.04 -750.43)"/><path class="cls-24" d="M1255.39,1088.24l-.16-.79v-5.26l.8-.24c.07,1.71.14,3.42.2,5.16,1.36.73,2.71.36,4,.41s2.66,0,4,0a1,1,0,0,1-1.07.85Z" transform="translate(-1020.04 -750.43)"/><path class="cls-25" d="M1291.65,1064.88c.33,1.5.67,3,1,4.64,1.74.55,3.56.14,5.34.29-.14.2-.26.57-.44.59a28.75,28.75,0,0,1-6.44.1,15.67,15.67,0,0,1-.3-4.87C1290.87,1065.36,1291.37,1065.13,1291.65,1064.88Z" transform="translate(-1020.04 -750.43)"/><path class="cls-25" d="M1245.67,1055.26v5.09c1.4.9,2.76.46,4,.54s2.65,0,4,.06c-.28.25-.56.69-.85.7-2.53,0-5.06,0-7.79,0a14.13,14.13,0,0,1,0-6.07C1245.05,1055.45,1245.44,1055.37,1245.67,1055.26Z" transform="translate(-1020.04 -750.43)"/><path class="cls-16" d="M1128.72,1061.68c.3-.79,1-.75,1.65-.75h12.83c-.2.82-.84.85-1.52.85Z" transform="translate(-1020.04 -750.43)"/><path class="cls-22" d="M1301.34,1075c.39-.5.64-.79,1.07-1.33.64,1.58,1.12,2.73,1.55,3.8,1.72.71,3.51-.11,5.62.86a32.33,32.33,0,0,1-7,.3C1302.21,1077.53,1301.83,1076.44,1301.34,1075Z" transform="translate(-1020.04 -750.43)"/><path class="cls-23" d="M1220.83,1070.5c.27-.85,1-.71,1.62-.71h11.91a1,1,0,0,1-1.16.81Z" transform="translate(-1020.04 -750.43)"/><path class="cls-10" d="M1102,1060.92c3.19,0,6.39-.05,9.58,0a6,6,0,0,0,3.36-.83c0,.38-.09.77-.13,1.12-.25.17-.46.44-.67.44q-5.49.06-11,.07A1,1,0,0,1,1102,1060.92Z" transform="translate(-1020.04 -750.43)"/><path class="cls-16" d="M1116.54,1060.9c3.73-.08,7.47.34,11.22-.33,0,.39.07.78.1,1.16l-11.41,0c-.08,0-.16-.14-.26-.24Z" transform="translate(-1020.04 -750.43)"/><path class="cls-23" d="M1266.05,1077.51v-2.58l.31-.07c.19.56.37,1.12.62,1.88,2.87.68,6-.16,9.32.56A25.33,25.33,0,0,1,1266.05,1077.51Z" transform="translate(-1020.04 -750.43)"/><path class="cls-16" d="M1227.88,1088.34h11.24c.68,0,1.36,0,1.62.78l-11.25.05C1228.8,1089.18,1228.14,1089.15,1227.88,1088.34Z" transform="translate(-1020.04 -750.43)"/><path class="cls-26" d="M1207.7,1069.69l11.2.26c-.37.75-1.07.64-1.71.64h-9.81Z" transform="translate(-1020.04 -750.43)"/><path class="cls-26" d="M1212.63,1061l12-.11c-.26.25-.52.72-.79.72q-5.18.09-10.37,0C1213.21,1061.67,1212.93,1061.25,1212.63,1061Z" transform="translate(-1020.04 -750.43)"/><path class="cls-23" d="M1319.84,1077.86l11.31,0c-.27.25-.53.7-.8.7-3.26,0-6.52,0-9.78,0C1320.33,1078.58,1320.08,1078.11,1319.84,1077.86Z" transform="translate(-1020.04 -750.43)"/><path class="cls-10" d="M1311.53,1078.6a5.6,5.6,0,0,1-.14-4.26c.67,1.31,1.12,2.2,1.68,3.31l3.45.27c-.32.39-.43.66-.55.66C1314.54,1078.61,1313.1,1078.6,1311.53,1078.6Z" transform="translate(-1020.04 -750.43)"/><path class="cls-26" d="M1168.17,1060.86l9.73.05c-.25.25-.5.72-.76.72-3.08,0-6.17,0-9.38,0Z" transform="translate(-1020.04 -750.43)"/><path class="cls-5" d="M1207.7,1051.92l9.7.14c-.16.62-.61.78-1.18.78h-9Z" transform="translate(-1020.04 -750.43)"/><path class="cls-16" d="M1184.34,1069.82l10.53,0c-.25.26-.51.75-.77.75-3,.06-6,.07-9,0C1184.86,1070.55,1184.6,1070.07,1184.34,1069.82Z" transform="translate(-1020.04 -750.43)"/><path class="cls-10" d="M1259.33,1067.36c1.29.21.53,1.59,1.56,2.42h6.6c-.26.25-.52.71-.79.72-2.33,0-4.65,0-7,0C1259.05,1069.41,1259.35,1068.36,1259.33,1067.36Z" transform="translate(-1020.04 -750.43)"/><path class="cls-26" d="M1219.06,1052.11l9.58,0c-.28.24-.56.67-.84.68q-4,.06-7.91,0C1219.61,1052.78,1219.33,1052.35,1219.06,1052.11Z" transform="translate(-1020.04 -750.43)"/><path class="cls-24" d="M1196.5,1069.9l9.51,0c-.28.22-.57.62-.86.63-2.6,0-5.21,0-7.81,0C1197.06,1070.54,1196.78,1070.12,1196.5,1069.9Z" transform="translate(-1020.04 -750.43)"/><path class="cls-26" d="M1173,1069.81l9.6.1c-.29.22-.59.63-.88.64q-4,.06-7.94,0C1173.54,1070.52,1173.29,1070.06,1173,1069.81Z" transform="translate(-1020.04 -750.43)"/><path class="cls-10" d="M1316.62,1060.92l9.73,0c-.13.21-.25.61-.38.62-3,0-6,0-9,0C1316.88,1061.53,1316.75,1061.13,1316.62,1060.92Z" transform="translate(-1020.04 -750.43)"/><path class="cls-23" d="M1180.27,1060.85l8.88.07c-.25.25-.5.7-.77.72-2.8.17-5.6,0-8.59.09Z" transform="translate(-1020.04 -750.43)"/><path class="cls-23" d="M1192.44,1077.93l8.86-.08c-.27.26-.53.72-.8.73-2.4.07-4.81.07-7.21,0C1193,1078.6,1192.72,1078.17,1192.44,1077.93Z" transform="translate(-1020.04 -750.43)"/><path class="cls-26" d="M1191.62,1061h8.81c-.28.24-.55.67-.83.68-2.38,0-4.77,0-7.15,0C1192.17,1061.65,1191.9,1061.22,1191.62,1061Z" transform="translate(-1020.04 -750.43)"/><path class="cls-26" d="M1202.07,1060.92H1211c-.26.24-.51.7-.76.7q-3.69.09-7.37,0C1202.56,1061.63,1202.32,1061.17,1202.07,1060.92Z" transform="translate(-1020.04 -750.43)"/><path class="cls-24" d="M1258.48,1048.24l.09,3.84-1.18-.23a4.64,4.64,0,0,1-.13-3.74Z" transform="translate(-1020.04 -750.43)"/><path class="cls-25" d="M1278.62,1055.35l1,5.51a.54.54,0,0,1-.91,0,6.74,6.74,0,0,1-.65-5.12C1278.08,1055.6,1278.42,1055.49,1278.62,1055.35Z" transform="translate(-1020.04 -750.43)"/><path class="cls-26" d="M1278.7,1060.9l.91,0,7.18.06c-.26.25-.5.7-.76.71q-3.3.09-6.59,0C1279.19,1061.63,1279,1061.16,1278.7,1060.9Z" transform="translate(-1020.04 -750.43)"/><path class="cls-26" d="M1237,1052.36a17.18,17.18,0,0,1-7.32.17A16.32,16.32,0,0,1,1237,1052.36Z" transform="translate(-1020.04 -750.43)"/><path class="cls-24" d="M1258.52,1052h7.3c-.25.26-.5.73-.76.73q-2.91.11-5.82,0C1259,1052.77,1258.76,1052.29,1258.52,1052Z" transform="translate(-1020.04 -750.43)"/><path class="cls-10" d="M1114.93,1060.15a6,6,0,0,1,.59-3.74,5.12,5.12,0,0,0,.31-1.88c.26.25.72.5.72.76A7,7,0,0,1,1114.93,1060.15Z" transform="translate(-1020.04 -750.43)"/><path class="cls-16" d="M1143.18,1061c0-1,0-2,0-3a1,1,0,0,1,1.19-1.08,28.72,28.72,0,0,1-.43,2.93C1143.86,1060.24,1143.45,1060.57,1143.18,1061Z" transform="translate(-1020.04 -750.43)"/><path class="cls-10" d="M1315.86,1056c0,1.13,0,2.25,0,3.37-1.13-.45-.83-1.48-.81-2.3C1315,1056.68,1315.57,1056.33,1315.86,1056Z" transform="translate(-1020.04 -750.43)"/><path class="cls-23" d="M1318.84,1075.4a1,1,0,0,1,1,1c0,.51,0,1,.06,1.54a5,5,0,0,1-.8-1.05A7.44,7.44,0,0,1,1318.84,1075.4Z" transform="translate(-1020.04 -750.43)"/><path class="cls-10" d="M1259.37,1064.88c0,.84,0,1.69,0,2.53C1258.3,1066.39,1258.3,1065.87,1259.37,1064.88Z" transform="translate(-1020.04 -750.43)"/><path class="cls-10" d="M1315.81,1059.3c1.06.15.84,1,.84,1.65C1315.59,1060.8,1315.8,1060,1315.81,1059.3Z" transform="translate(-1020.04 -750.43)"/><path class="cls-14" d="M1226.37,1061a1,1,0,0,0,0,.7l-.94-.75h0Z" transform="translate(-1020.04 -750.43)"/><path class="cls-4" d="M1386.6,1028.89a18,18,0,0,0-.6-3.35,31.15,31.15,0,0,0-2.49-6.31c-.94-1.79-2.48-3.35-4.62-3.38a.81.81,0,0,0,0,1.62,3.81,3.81,0,0,1,3,2.25,28,28,0,0,1,1.82,4.12,21,21,0,0,1,1.15,4.33,12.88,12.88,0,0,1,.09,2.24c0,.29,0,.75-.33.85s-.49-.2-.48-.5c0-1-1.58-1-1.62,0a2,2,0,0,0,3.61,1.32A5,5,0,0,0,1386.6,1028.89Z" transform="translate(-1020.04 -750.43)"/><path class="cls-27" d="M1347,787.36c-.79,0-1.57-.06-2.34-.06-3.23,0-6.45,0-9.68,0q-41.74-.13-83.49-.3c-2.14,0-4.28-.29-6.42-.31s-4,.25-6,.23c-5,0-9.9-.24-14.86-.25-26.22-.08-52.43-.07-78.65-.2-9.13-.05-18.26-.4-27.39-.59a8.49,8.49,0,0,0-1.51.25V942c2.37-.07,4.61-.2,6.85-.2q108.69,0,217.39-.06c2,0,4-.05,6-.08a5.44,5.44,0,0,0,.41-1.33q.07-75.81.11-151.62A6.2,6.2,0,0,0,1347,787.36Zm-36.65,20.38v95.65h-156.2V807.74Z" transform="translate(-1020.04 -750.43)"/><path class="cls-6" d="M1114.11,1051.27c-1-.67-1-.84,0-1.9C1114.08,1050,1114.09,1050.64,1114.11,1051.27Z" transform="translate(-1020.04 -750.43)"/><path class="cls-12" d="M1319.64,910.09l-8.46-7.55c-1.15-1-2.84.67-1.69,1.69l8.47,7.55c1.14,1,2.83-.66,1.68-1.69Z" transform="translate(-1020.04 -750.43)"/><path class="cls-12" d="M1153.28,902.54l-7.85,7.55c-1.11,1.07.58,2.75,1.69,1.69l7.85-7.55c1.1-1.07-.58-2.75-1.69-1.69Z" transform="translate(-1020.04 -750.43)"/><path class="cls-12" d="M1309.14,807.74v95.65l1.19-1.2h-156.2l1.19,1.2V807.74a1.21,1.21,0,0,0-1.19-1.19h-7.86a1.21,1.21,0,0,0-1.19,1.19v103.2a1.21,1.21,0,0,0,1.19,1.19H1318.8a1.21,1.21,0,0,0,1.19-1.19V807.74a1.2,1.2,0,0,0-1.19-1.19h-8.47a1.19,1.19,0,0,0,0,2.38h8.47l-1.19-1.19v103.2l1.19-1.19H1146.27l1.19,1.19V807.74l-1.19,1.19h7.86l-1.2-1.19v95.65a1.21,1.21,0,0,0,1.2,1.19h156.2a1.21,1.21,0,0,0,1.19-1.19V807.74A1.19,1.19,0,0,0,1309.14,807.74Z" transform="translate(-1020.04 -750.43)"/><path class="cls-28" d="M1154.13,808.93h156.2a1.19,1.19,0,0,0,0-2.38h-156.2a1.19,1.19,0,0,0,0,2.38Z" transform="translate(-1020.04 -750.43)"/><rect class="cls-29" x="96.95" y="187.93" width="72.31" height="34.51"/><path class="cls-12" d="M1189.31,971.68H1117l1.19,1.19V938.36l-1.19,1.19h72.31l-1.19-1.19v34.51a1.19,1.19,0,0,0,2.38,0V938.36a1.21,1.21,0,0,0-1.19-1.19H1117a1.2,1.2,0,0,0-1.19,1.19v34.51a1.21,1.21,0,0,0,1.19,1.19h72.31A1.19,1.19,0,0,0,1189.31,971.68Z" transform="translate(-1020.04 -750.43)"/><rect class="cls-30" x="148.31" y="78.23" width="24.03" height="24.03"/><path class="cls-12" d="M1192.39,851.51h-24l1.2,1.19v-24l-1.2,1.19h24l-1.19-1.19v24a1.19,1.19,0,0,0,2.38,0v-24a1.21,1.21,0,0,0-1.19-1.19h-24a1.21,1.21,0,0,0-1.19,1.19v24a1.21,1.21,0,0,0,1.19,1.19h24A1.19,1.19,0,0,0,1192.39,851.51Z" transform="translate(-1020.04 -750.43)"/><rect class="cls-31" x="218.16" y="147.66" width="42.73" height="32.05"/><path class="cls-12" d="M1280.93,929H1238.2l1.19,1.19v-32l-1.19,1.19h42.73l-1.19-1.19v32a1.19,1.19,0,0,0,2.38,0v-32a1.21,1.21,0,0,0-1.19-1.2H1238.2a1.21,1.21,0,0,0-1.19,1.2v32a1.2,1.2,0,0,0,1.19,1.19h42.73A1.19,1.19,0,0,0,1280.93,929Z" transform="translate(-1020.04 -750.43)"/><rect class="cls-32" x="276.5" y="96.31" width="30.81" height="20.54"/><path class="cls-12" d="M1327.36,866.09h-30.82l1.19,1.19V846.74l-1.19,1.19h30.82l-1.2-1.19v20.54a1.2,1.2,0,0,0,2.39,0V846.74a1.21,1.21,0,0,0-1.19-1.19h-30.82a1.21,1.21,0,0,0-1.19,1.19v20.54a1.21,1.21,0,0,0,1.19,1.19h30.82A1.19,1.19,0,0,0,1327.36,866.09Z" transform="translate(-1020.04 -750.43)"/><rect class="cls-33" x="222.27" y="63.85" width="22.8" height="22.8"/><path class="cls-12" d="M1265.11,835.89h-22.8l1.19,1.19v-22.8l-1.19,1.19h22.8l-1.19-1.19v22.8a1.19,1.19,0,0,0,2.38,0v-22.8a1.21,1.21,0,0,0-1.19-1.19h-22.8a1.21,1.21,0,0,0-1.19,1.19v22.8a1.2,1.2,0,0,0,1.19,1.19h22.8A1.19,1.19,0,0,0,1265.11,835.89Z" transform="translate(-1020.04 -750.43)"/><polygon class="cls-29" points="96.95 187.93 155.3 129.59 189.4 129.59 169.26 187.93 96.95 187.93"/><path class="cls-12" d="M1117.84,939.2l33.39-33.39,20.09-20.09a48.18,48.18,0,0,1,4.63-4.63c.57-.43-1.31.17.12.12,1.65-.06,3.32,0,5,0h28.39l-1.15-1.51-18.81,54.53c-.25.71-1.28,2.54-1.15,3.32.09.6,1.1.1.34-.38-1.65-1-7.48,0-9.39,0H1117a1.19,1.19,0,0,0,0,2.38h72.31a1.23,1.23,0,0,0,1.15-.87l20.13-58.35a1.2,1.2,0,0,0-1.15-1.5h-25.55c-2.41,0-6.41-.82-8.71,0-1.21.44-2.15,1.79-3,2.68l-42,42-14,14A1.19,1.19,0,0,0,1117.84,939.2Z" transform="translate(-1020.04 -750.43)"/><polygon class="cls-29" points="189.4 129.59 189.4 147.66 169.26 222.44 169.26 187.93 189.4 129.59"/><path class="cls-12" d="M1208.25,880c0,5.56.69,13.1,0,17.78-.54,3.82-2.09,7.76-3.1,11.48l-13.34,49.55-3.69,13.72,2.34.32V953.63c0-4.61-.68-11.82.12-15.44,1.23-5.5,3.81-11,5.64-16.34l8.82-25.55,5.51-16c.5-1.45-1.8-2.07-2.3-.63l-13.42,38.88c-2.08,6-4.56,12.09-6.29,18.24-1.1,3.93-.46,8.41-.46,12.46v23.59a1.2,1.2,0,0,0,2.34.32l9.68-36,6.75-25.11c1.19-4.41,2.94-9,3.64-13.52.93-5.94.1-12.57.1-18.59A1.19,1.19,0,0,0,1208.25,880Z" transform="translate(-1020.04 -750.43)"/><polygon class="cls-31" points="218.16 147.66 211.58 112.74 233.67 112.74 260.89 147.66 218.16 147.66"/><path class="cls-12" d="M1239.35,897.78l-6.58-34.92-1.14,1.5h18.26a17.64,17.64,0,0,1,3.33,0c1,.22-.88-.85,0,.11,1.46,1.58,2.69,3.45,4,5.15l22.85,29.32.84-2H1238.2a1.2,1.2,0,0,0,0,2.39h42.73a1.21,1.21,0,0,0,.84-2L1258,866.8c-2.72-3.5-3-4.82-7.41-4.82h-19a1.21,1.21,0,0,0-1.15,1.51l6.57,34.92C1237.33,899.92,1239.63,899.28,1239.35,897.78Z" transform="translate(-1020.04 -750.43)"/><polygon class="cls-31" points="218.16 179.71 211.58 145.2 211.58 112.74 218.16 147.66 218.16 179.71"/><path class="cls-12" d="M1239.35,929.83c-2.15-11.31-5.36-22.85-6.53-34.28-.39-3.79,0-10.51,0-15.16V863.17l-2.34.32c2.15,11.43,5.29,23.06,6.51,34.61.38,3.59,0,10.09,0,14.55v17.49a1.19,1.19,0,0,0,2.38,0c0-10.68,1-21.89-.07-32.5-1.22-11.61-4.38-23.3-6.55-34.78-.25-1.34-2.33-1-2.33.31v17.72c0,5-.49,10.21,0,15.15,1.28,11.5,4.4,23.05,6.56,34.42C1237.34,932,1239.63,931.33,1239.35,929.83Z" transform="translate(-1020.04 -750.43)"/><polygon class="cls-32" points="276.5 116.85 251.44 104.11 251.44 90.25 276.5 96.31 276.5 116.85"/><path class="cls-12" d="M1297.14,866.25l-20.64-10.49c-1.27-.64-2.55-1.27-3.81-1.93-.88-.47-.33-.38,0,.62a6.3,6.3,0,0,1,0-1.89c.43-3.86,0-8,0-11.88l-1.51,1.15,10.14,2.45,8,1.93c1.55.38,4.39,1.66,6,1.45.58-.07,1.25.76.47-.32s-.3.19-.41.83c-.36,2.15,0,4.7,0,6.87v12.24a1.19,1.19,0,0,0,2.38,0V846.74a1.21,1.21,0,0,0-.87-1.15l-25.06-6.06a1.21,1.21,0,0,0-1.51,1.15v13.87a1.16,1.16,0,0,0,.59,1l25.06,12.74C1297.3,869,1298.51,867,1297.14,866.25Z" transform="translate(-1020.04 -750.43)"/><polygon class="cls-32" points="251.44 90.25 276.5 90.25 307.31 96.31 276.5 96.31 251.44 90.25"/><path class="cls-12" d="M1271.48,841.87c8.26,0,18.52-1,25.87.18,9.94,1.54,19.82,3.9,29.69,5.84l.32-2.34c-9.95,0-20.1.63-30,0-7.43-.47-17.49-4.07-25.54-6-1.49-.36-2.13,1.94-.64,2.3,8.39,2,17.29,5.34,25.88,6.1,9.94.88,20.33,0,30.32,0,1.3,0,1.66-2.07.31-2.34-10-2-20-4.46-30-5.91-8.44-1.22-17.62-.19-26.15-.19A1.19,1.19,0,0,0,1271.48,841.87Z" transform="translate(-1020.04 -750.43)"/><polygon class="cls-30" points="172.35 78.23 191.28 78.23 191.28 86.65 172.35 102.26 172.35 78.23"/><path class="cls-12" d="M1192.39,829.85h18.93l-1.19-1.19c0,2.37.76,6.08,0,8.3.47-1.36-.36-.05-1.06.44-1.22.87-2.35,1.94-3.5,2.89l-14,11.56,2,.85v-24a1.19,1.19,0,0,0-2.38,0v24a1.21,1.21,0,0,0,2,.84L1208.49,841c1.35-1.11,3.41-2.21,4-3.87.79-2.14,0-6.1,0-8.42a1.21,1.21,0,0,0-1.19-1.19h-18.93A1.19,1.19,0,0,0,1192.39,829.85Z" transform="translate(-1020.04 -750.43)"/><polygon class="cls-33" points="222.26 63.85 211.58 73.3 211.58 79.53 222.26 86.65 222.26 63.85"/><path class="cls-12" d="M1241.47,813.44l-7.92,7c-2.58,2.28-3.11,2.53-3.11,6s-.23,4,2.54,5.87l8.73,5.82a1.2,1.2,0,0,0,1.79-1v-22.8a1.19,1.19,0,0,0-2.38,0v22.8l1.79-1-7.47-5a17.28,17.28,0,0,1-3.15-2.1c.85.93.2.91.53-.15a11,11,0,0,0,0-2.81,8,8,0,0,1,0-2.13c-.18.56-.4.91.11.29a29.79,29.79,0,0,1,3.56-3.15l6.66-5.9C1244.3,814.11,1242.61,812.43,1241.47,813.44Z" transform="translate(-1020.04 -750.43)"/><path class="cls-30" d="M1152.84,845.59l-105.6,29.62L1032,879.49a1.19,1.19,0,0,0,.63,2.29l105.6-29.62,15.25-4.27a1.19,1.19,0,0,0-.63-2.3Z" transform="translate(-1020.04 -750.43)"/><path class="cls-30" d="M1140.85,893.72l-78.67,56.45-11.3,8.1c-1.23.89,0,3,1.21,2.06l78.67-56.45,11.29-8.1c1.23-.89,0-3-1.2-2.06Z" transform="translate(-1020.04 -750.43)"/><path class="cls-30" d="M1153.58,860.23l-65.42,24c-1.43.52-.81,2.83.63,2.3l65.42-24c1.43-.52.82-2.83-.63-2.3Z" transform="translate(-1020.04 -750.43)"/><path class="cls-30" d="M1077.4,888.2,1020.85,909c-1.42.53-.81,2.83.64,2.3L1078,890.49c1.43-.52.81-2.82-.64-2.29Z" transform="translate(-1020.04 -750.43)"/><path class="cls-30" d="M1186.79,859.38l-34.24,24.56c-1.23.89,0,3,1.2,2.06L1188,861.43c1.24-.88,0-2.95-1.2-2Z" transform="translate(-1020.04 -750.43)"/><path class="cls-30" d="M1220.18,840.36l-11.89,30.42c-.56,1.43,1.75,2.05,2.3.63L1222.47,841c.56-1.43-1.74-2-2.29-.64Z" transform="translate(-1020.04 -750.43)"/><path class="cls-30" d="M1210.29,846.14l-9.46,12.29c-.94,1.21,1.13,2.4,2.05,1.2l9.47-12.29c.93-1.21-1.14-2.4-2.06-1.2Z" transform="translate(-1020.04 -750.43)"/><path class="cls-30" d="M1222,867l-7.72,48.53c-.23,1.5,2.06,2.15,2.3.64l7.72-48.53c.24-1.5-2.06-2.15-2.3-.64Z" transform="translate(-1020.04 -750.43)"/><path class="cls-30" d="M1214.19,924l-4.06,31.62c-.2,1.51,2.19,1.5,2.38,0l4.06-31.62c.2-1.51-2.19-1.5-2.38,0Z" transform="translate(-1020.04 -750.43)"/><path class="cls-30" d="M1208.25,968.69l-8,65.29c-.18,1.52,2.2,1.51,2.38,0l8-65.29c.19-1.52-2.2-1.51-2.38,0Z" transform="translate(-1020.04 -750.43)"/><path class="cls-30" d="M1078.8,1019.92l49-58.91c1-1.17-.7-2.86-1.68-1.68l-49,58.91c-1,1.17.71,2.86,1.69,1.68Z" transform="translate(-1020.04 -750.43)"/><path class="cls-30" d="M1339.89,874.54l85.49,35.68,12.1,5c1.41.59,2-1.72.63-2.3l-85.48-35.68-12.11-5c-1.41-.59-2,1.72-.63,2.3Z" transform="translate(-1020.04 -750.43)"/><path class="cls-30" d="M1321.86,884.55l49,27.68a1.19,1.19,0,0,0,1.2-2.06l-49-27.68a1.2,1.2,0,0,0-1.21,2.06Z" transform="translate(-1020.04 -750.43)"/><path class="cls-30" d="M1384,919.68l55.36,28c1.36.69,2.57-1.36,1.2-2.05l-55.36-28c-1.37-.69-2.57,1.36-1.2,2.06Z" transform="translate(-1020.04 -750.43)"/><path class="cls-30" d="M1364.92,951.43l14.19,12.07c1.16,1,2.86-.69,1.69-1.69l-14.2-12.06c-1.16-1-2.85.69-1.68,1.68Z" transform="translate(-1020.04 -750.43)"/><path class="cls-30" d="M1321.27,922.69l13.48,14.19c1.06,1.11,2.74-.57,1.69-1.68L1323,921c-1.06-1.11-2.74.57-1.68,1.69Z" transform="translate(-1020.04 -750.43)"/><path class="cls-30" d="M1358.53,973.71l29.63,31.66c1,1.12,2.73-.56,1.69-1.68L1360.21,972c-1-1.12-2.73.56-1.68,1.68Z" transform="translate(-1020.04 -750.43)"/><path class="cls-30" d="M1266.26,868.12l32.31,30.82c1.11,1.06,2.8-.63,1.69-1.69L1268,866.44c-1.11-1.06-2.8.62-1.69,1.68Z" transform="translate(-1020.04 -750.43)"/><path class="cls-30" d="M1272.82,942.67l33.28,77.8,4.82,11.28c.6,1.4,2.65.19,2.06-1.21l-33.28-77.79-4.83-11.28c-.6-1.4-2.65-.19-2,1.2Z" transform="translate(-1020.04 -750.43)"/><path class="cls-30" d="M1241.12,936.75l7.76,62.1c.19,1.5,2.57,1.52,2.38,0l-7.76-62.1c-.19-1.5-2.57-1.52-2.38,0Z" transform="translate(-1020.04 -750.43)"/><path class="cls-30" d="M1226.88,926.44v89.45a1.19,1.19,0,0,0,2.38,0V926.44a1.19,1.19,0,0,0-2.38,0Z" transform="translate(-1020.04 -750.43)"/></svg>