<svg id="圖層_1" data-name="圖層 1" xmlns="http://www.w3.org/2000/svg" viewBox="0 0 180.1 264.06"><defs><style>.cls-1{fill:#57a09f;}.cls-2,.cls-9{fill:#040000;}.cls-3{fill:#538b87;}.cls-4{fill:#e1b974;}.cls-5{fill:#2f4948;}.cls-6{fill:#406564;}.cls-7{fill:#99745c;}.cls-8{fill:#f9f3ec;}.cls-9{opacity:0.5;}.cls-10{fill:#baa289;}.cls-11{fill:#443929;}.cls-12{fill:#836d5d;}.cls-13{fill:#a19488;}.cls-14{fill:#6b6762;}.cls-15{fill:#e9e0d9;}.cls-16{fill:#070001;}.cls-17{fill:#504f4f;}.cls-18{fill:#424242;}.cls-19{fill:#799275;}</style></defs><title>風車</title><path class="cls-1" d="M211.12,98.69l-56-6.33-32.42-3.67V301.75l120.86,13.68V102.36Z" transform="translate(-109.46 -57)"/><path class="cls-2" d="M211.12,98l-37.53-4.24-29.81-3.38L122.68,88a.66.66,0,0,0-.66.66V293c0,2.67-.43,5.74,0,8.38,0,.12,0,.25,0,.37a.67.67,0,0,0,.66.66L163.56,307l65.11,7.36,14.87,1.69a.67.67,0,0,0,.66-.66V111.11c0-2.67.43-5.74,0-8.38,0-.12,0-.25,0-.37a.68.68,0,0,0-.66-.66L211.12,98c-.84-.09-.83,1.23,0,1.32L243.54,103l-.66-.66V312.21c0,.69-.29,2.2,0,2.85a1.15,1.15,0,0,1,0,.37l.66-.66-40.88-4.63-65.11-7.37-14.87-1.68.66.66V91.91c0-.7.29-2.21,0-2.85a1.15,1.15,0,0,1,0-.37l-.66.66L155.3,93l40.11,4.53,15.71,1.78C212,99.45,212,98.13,211.12,98Z" transform="translate(-109.46 -57)"/><polygon class="cls-3" points="13.21 31.69 0.86 39.63 0.86 250.93 13.21 244.75 13.21 31.69"/><path class="cls-2" d="M122.34,88.12,112,94.76c-1.13.73-2.2,1-2.34,2.37-.32,3.18,0,6.56,0,9.76V298c0,3-.45,6.48,0,9.5a2.94,2.94,0,0,1,0,.42.67.67,0,0,0,1,.57L123,302.32a.65.65,0,0,0,.32-.57V97.44c0-2.67.43-5.74,0-8.38,0-.12,0-.25,0-.37a.66.66,0,0,0-1.31,0V299.11c0,.84,0,1.69,0,2.53,0,.2-.06.13.15-.17.39-.56-1,.29-1.29.44l-6.67,3.34L110,307.36l1,.57V98.87c0-.72-.06-1.48,0-2.2,0,.08-.62.54-.11.39a9.41,9.41,0,0,0,1.95-1.26l6.42-4.12L123,89.26C123.72,88.8,123.06,87.66,122.34,88.12Z" transform="translate(-109.46 -57)"/><polygon class="cls-3" points="0.86 250.93 119.41 263.4 134.08 258.43 13.21 244.75 0.86 250.93"/><path class="cls-2" d="M110.32,308.59l49.14,5.17,65.11,6.85a19.5,19.5,0,0,0,4.56.4c2.47-.35,5.13-1.74,7.49-2.54l7.1-2.41a.66.66,0,0,0-.18-1.29l-49.31-5.58L128,301.69c-1.58-.18-3.68-.81-5.27-.6-1.82.24-4,1.93-5.63,2.74L110,307.36c-.76.38-.09,1.52.67,1.14l5.73-2.87c2-1,4.37-2.77,6.54-3.27-.57.13.33.11.69.16.93.13,1.87.21,2.81.32l25.76,2.91,73.3,8.29,18,2-.17-1.3c-4.6,1.56-9.22,3-13.79,4.68a8.43,8.43,0,0,1-3.54,0l-24.71-2.6-72.67-7.64-18.34-1.93C109.48,307.18,109.49,308.5,110.32,308.59Z" transform="translate(-109.46 -57)"/><polygon class="cls-4" points="123.49 57.14 123.49 240.61 23.8 228.83 23.8 45.36 45.63 47.94 45.63 57.43 101.66 64.05 101.66 54.56 123.49 57.14"/><path class="cls-2" d="M232.3,114.14v180.7a7.68,7.68,0,0,0,0,2.44c0,.07,0,.24,0,.33L233,297l-33.72-4-53.7-6.34-12.28-1.45.66.65V105.13a7.68,7.68,0,0,0,0-2.44c0-.07,0-.24,0-.33l-.66.65,21.84,2.58-.65-.65v9.49a.67.67,0,0,0,.65.65l49.05,5.8,7,.82a.66.66,0,0,0,.65-.65v-9.49l-.65.65L233,114.79c.83.1.82-1.21,0-1.31l-21.84-2.57c-.35,0-.65.33-.65.65v9.49l.65-.65-49.05-5.8-7-.82.65.65v-9.49a.67.67,0,0,0-.65-.65l-21.84-2.58a.66.66,0,0,0-.65.65v176c0,2.27-.38,4.92,0,7.17a1.82,1.82,0,0,1,0,.33.67.67,0,0,0,.65.65l33.72,4,53.7,6.34L233,298.26a.66.66,0,0,0,.65-.65v-176c0-2.27.38-4.93,0-7.18a1.71,1.71,0,0,1,0-.32A.66.66,0,0,0,232.3,114.14Z" transform="translate(-109.46 -57)"/><polygon class="cls-5" points="9.07 56.9 9.07 89.08 4.88 91.77 4.88 59.59 9.07 56.9"/><path class="cls-2" d="M117.87,113.9v30.36a6,6,0,0,0,0,1.34c.15.53-.39.56.27-.06A29.41,29.41,0,0,1,114,148.2l1,.56V118.4a6,6,0,0,0,0-1.34c-.16-.53.38-.56-.28.06a29,29,0,0,1,4.13-2.65c.72-.46,0-1.6-.66-1.14-1.14.73-3.38,1.61-4.19,2.69a2.09,2.09,0,0,0-.32,1.52c0,3.49,0,7,0,10.47v20.75a.66.66,0,0,0,1,.57c1.13-.72,3.38-1.61,4.18-2.68a2.11,2.11,0,0,0,.33-1.53c0-3.49,0-7,0-10.47V113.9A.66.66,0,0,0,117.87,113.9Z" transform="translate(-109.46 -57)"/><polygon class="cls-5" points="9.07 94.02 9.07 126.2 4.88 128.89 4.88 96.71 9.07 94.02"/><path class="cls-2" d="M117.87,151v30.37a5.91,5.91,0,0,0,0,1.33c.15.54-.39.56.27-.05a28.48,28.48,0,0,1-4.13,2.65l1,.57V155.53a6,6,0,0,0,0-1.34c-.16-.54.38-.56-.28.06a30,30,0,0,1,4.13-2.66c.72-.45,0-1.6-.66-1.14-1.14.73-3.38,1.61-4.19,2.69a2.11,2.11,0,0,0-.32,1.53c0,3.49,0,7,0,10.47v20.75a.66.66,0,0,0,1,.57c1.13-.73,3.38-1.61,4.18-2.69a2.1,2.1,0,0,0,.33-1.52c0-3.49,0-7,0-10.47V151A.66.66,0,0,0,117.87,151Z" transform="translate(-109.46 -57)"/><path class="cls-6" d="M166.12,109.48l8.37.94,13.28,1.51,3.09.35a1.71,1.71,0,0,0,1.69-1.7,1.74,1.74,0,0,0-1.69-1.7l-8.38-.95-13.28-1.5-3.08-.35a1.72,1.72,0,0,0-1.7,1.7,1.75,1.75,0,0,0,1.7,1.7Z" transform="translate(-109.46 -57)"/><path class="cls-2" d="M166.12,110.14l22.42,2.53c1.77.2,4.06.69,4.58-1.6.35-1.55-.77-2.54-2.18-2.84-3.34-.7-6.95-.79-10.35-1.17l-11.39-1.29c-1.76-.2-4.46-1-5.28,1.2-.57,1.58.54,2.81,2,3.14.83.19,1.18-1.08.35-1.27-.22-1.67.23-2.31,1.37-1.92l1.16.13,3.23.36,5.69.65,6.6.74,2.79.32,1.86.21c.95-.2,1.29.18,1,1.15.43,1,.19,1.32-.69,1l-1.54-.17-2.84-.33-6.17-.69-12.64-1.43C165.27,108.72,165.28,110,166.12,110.14Z" transform="translate(-109.46 -57)"/><circle class="cls-6" cx="91.24" cy="54.47" r="2.55"/><path class="cls-2" d="M202.6,111.47c-.13,2.43-3.79,2.45-3.79,0s3.66-2.42,3.79,0c0,.85,1.36.85,1.32,0a3.22,3.22,0,0,0-6.43,0,3.22,3.22,0,0,0,6.43,0C204,110.63,202.64,110.63,202.6,111.47Z" transform="translate(-109.46 -57)"/><circle class="cls-1" cx="90.54" cy="54.47" r="1.19"/><ellipse class="cls-6" cx="128.22" cy="306.44" rx="1.15" ry="1.67" transform="translate(-298.45 348.05) rotate(-84.56)"/><path class="cls-2" d="M129.25,306.43c-.15.76-2.08.64-2-.07s2-.51,2,.24a.66.66,0,0,0,1.32,0c0-2.33-4.36-2.76-4.63-.4s4.18,2.86,4.61.58C130.67,306,129.4,305.59,129.25,306.43Z" transform="translate(-109.46 -57)"/><ellipse class="cls-6" cx="134.95" cy="307.08" rx="1.15" ry="1.67" transform="translate(-293 355.33) rotate(-84.56)"/><path class="cls-2" d="M136,307.07c-.14.76-2.07.64-2-.07s2-.51,2,.24a.66.66,0,0,0,1.32,0c0-2.33-4.37-2.76-4.63-.4s4.18,2.86,4.61.58C137.4,306.59,136.13,306.23,136,307.07Z" transform="translate(-109.46 -57)"/><ellipse class="cls-6" cx="141.56" cy="307.98" rx="1.15" ry="1.67" transform="translate(-287.91 362.72) rotate(-84.56)"/><path class="cls-2" d="M142.58,308c-.14.77-2.08.64-2-.07s2-.5,2,.25a.66.66,0,0,0,1.32,0c0-2.34-4.37-2.76-4.63-.41s4.17,2.87,4.6.58C144,307.48,142.74,307.13,142.58,308Z" transform="translate(-109.46 -57)"/><path class="cls-7" d="M226.41,184.35s3-2.16,3-4.14c0,0-40.29-25.68-77.78-2.68,0,0-2.42,3.05,1.28,7.1Z" transform="translate(-109.46 -57)"/><path class="cls-2" d="M226.75,184.92c1.59-1.17,3.12-2.67,3.36-4.71a.63.63,0,0,0-.32-.57C221.48,174.37,211.54,171,202,169a75.25,75.25,0,0,0-26.3-.91,64.52,64.52,0,0,0-14.77,4,67.39,67.39,0,0,0-7.22,3.47c-1.19.67-2.41,1.09-3,2.35-.92,2-.28,6.43,2.08,7.33a5.1,5.1,0,0,0,1.56,0l10.76,0,36.13-.13,25.19-.1a.66.66,0,0,0,0-1.32l-54.49.2L158.3,184h-4c-1.27,0-1.27.23-1.88-1.05-.68-1.44-1.48-3.46-.3-4.92a9.29,9.29,0,0,1,2.59-1.48q2.12-1.17,4.31-2.17a63.58,63.58,0,0,1,14.66-4.62,72.75,72.75,0,0,1,27.59.47,92,92,0,0,1,21.3,7.11c1.84.87,3.65,1.8,5.42,2.82.13.08,1,.44,1,.6.11.48-2.3,2.59-2.95,3.06S226.06,185.42,226.75,184.92Z" transform="translate(-109.46 -57)"/><path class="cls-8" d="M151.67,254.94V227.53l2.56-2.71L153,184.63s1.2-10.62,33.82-12c0,0,16.11-1.58,39.64,11.76v38.56l2.47,3V263.1H151.67Z" transform="translate(-109.46 -57)"/><path class="cls-2" d="M152.33,254.94v-23c0-1.33-.1-2.7,0-4,0-.66-.43.26.21-.31a10.07,10.07,0,0,0,2.1-2.23c.76-1.41.13-4.08.08-5.63l-.89-28.14c-.07-2.21-.49-4.73-.22-6.94,0,.35.11-.37.18-.52a6.84,6.84,0,0,1,1.05-1.71c2-2.44,5-4,7.92-5.08,6.31-2.44,13.2-3.34,19.91-3.83A64.28,64.28,0,0,1,208,176.81a95.62,95.62,0,0,1,12.18,5c1,.48,1.93,1,2.89,1.47a11.56,11.56,0,0,0,1.69.92c-.45-.15,1.45.76,1,.16.09.11,0,.58,0,.72a19.91,19.91,0,0,1,0,3.86v32.51a5.05,5.05,0,0,0,.09,1.78,8.87,8.87,0,0,0,1.48,1.82,13.49,13.49,0,0,1,.9,1.1c.36.58-.08-.51,0-.14.43,2.61,0,5.67,0,8.31V263.1l.66-.66H151.67l.66.66v-8.16a.66.66,0,0,0-1.32,0v8.16a.67.67,0,0,0,.66.66h77.21a.67.67,0,0,0,.66-.66V228.22c0-1.32.19-2.18-.58-3.24a15.41,15.41,0,0,0-1.69-2.07c-.5-.47-.24-.34-.2-.08a12.31,12.31,0,0,1,0-1.92V184.35a.67.67,0,0,0-.32-.57c-11.85-6.65-26-12.5-39.89-11.85-8.06.37-16.42,1.13-24,4-3.42,1.27-7.14,3.07-9.34,6.12a5.41,5.41,0,0,0-1.18,3.06c-.15,4.47.29,9,.43,13.51l.6,18.9.2,6.05a6.43,6.43,0,0,1,0,1.16c-.06.4.39-.64,0-.14a22.33,22.33,0,0,1-1.7,1.81c-1.09,1.17-.86,1.95-.86,3.53v25.05A.66.66,0,0,0,152.33,254.94Z" transform="translate(-109.46 -57)"/><path class="cls-9" d="M166.92,175.44v68.45l-14.66-4.69V227.53l2.55-2.71-1.27-40.19S155,178.78,166.92,175.44Z" transform="translate(-109.46 -57)"/><path class="cls-10" d="M180.45,263.1s-2-21.63,11.64-22c0,0,11.3-1.22,11.3,22Z" transform="translate(-109.46 -57)"/><path class="cls-2" d="M181.23,263.1c-.51-5.85,0-13.49,4.06-18.08a8.26,8.26,0,0,1,12.87,0c4,4.82,4.41,12.16,4.45,18.12l.78-.78H180.45a.78.78,0,0,0,0,1.56h22.94a.78.78,0,0,0,.78-.78c0-7.38-1-20.72-10.34-22.62-7.81-1.6-12.42,6.05-13.63,12.61a37.35,37.35,0,0,0-.53,10C179.76,264.1,181.32,264.11,181.23,263.1Z" transform="translate(-109.46 -57)"/><path class="cls-11" d="M183.9,263.1s-1.37-18.38,8.12-18.69c0,0,7.89-1,7.89,18.69Z" transform="translate(-109.46 -57)"/><path class="cls-2" d="M184.77,263.1c-.37-5.15-.18-17.78,7.26-17.82a4.5,4.5,0,0,1,3.33,1.69C199,251.05,199,258,199,263.1l.87-.86h-16a.87.87,0,0,0,0,1.73h16a.88.88,0,0,0,.86-.87c0-5.55-.16-17.59-7.42-19.41-6.16-1.55-9.14,5.9-9.89,10.61a38.14,38.14,0,0,0-.42,8.8C183.12,264.2,184.85,264.21,184.77,263.1Z" transform="translate(-109.46 -57)"/><polygon class="cls-2" points="44.84 113.69 39.37 112.14 39.37 104.4 36.58 104.4 27.23 185.21 30.82 185.21 37.56 115.72 40.74 117.69 44.84 113.69"/><polygon class="cls-12" points="106.28 169.37 106.28 187.29 112.38 189.44 112.38 172.6 106.28 169.37"/><path class="cls-2" d="M215.09,226.37v17.92a.68.68,0,0,0,.48.63l6.09,2.15a.66.66,0,0,0,.84-.63V229.6a.63.63,0,0,0-.33-.57l-6.09-3.23c-.75-.4-1.42.74-.66,1.14l2.39,1.27c.95.5,2.19,1.52,3.24,1.71.69.13.19.26.13-.25a3.09,3.09,0,0,1,0,.68,29.42,29.42,0,0,0,0,3v13.12l.84-.64-2.6-.91c-.7-.25-2.59-1.32-3.33-1.18,0,0,.14.76.32.36a3,3,0,0,0,0-.85V226.37A.66.66,0,0,0,215.09,226.37Z" transform="translate(-109.46 -57)"/><rect class="cls-12" x="64.83" y="134.62" width="10.44" height="20.36"/><path class="cls-2" d="M173.64,191.62V212a.66.66,0,0,0,.66.65h10.44a.66.66,0,0,0,.66-.65V191.62a.67.67,0,0,0-.66-.66H174.3a.66.66,0,0,0,0,1.32h10.44l-.66-.66V212l.66-.66H174.3l.66.66V191.62A.66.66,0,0,0,173.64,191.62Z" transform="translate(-109.46 -57)"/><path class="cls-13" d="M229.45,180.21c-12.38-9.06-32.54-11.45-32.54-11.45a22.83,22.83,0,0,1,11.38-22.24h0C237.68,162.06,229.45,180.21,229.45,180.21Z" transform="translate(-109.46 -57)"/><path class="cls-2" d="M229.79,179.64c-9.35-6.7-21.54-10.17-32.88-11.54l.66.66a22.47,22.47,0,0,1,5.77-17.46,22.9,22.9,0,0,1,4-3.45c.26-.17.74-.61,1.06-.65.07,0,.12-.1.19-.1a12,12,0,0,0,1.79,1.34c9.37,5.39,19.6,14.14,19.44,26a16.9,16.9,0,0,1-1,5.48c-.34.77.8,1.44,1.14.66,1.57-3.5,1.42-7.88.51-11.52-2.69-10.8-12.62-18.09-21.9-23.07a.68.68,0,0,0-.8.1c-.08.08-1.62,1-2.11,1.36a24.17,24.17,0,0,0-4.49,4.32,23.72,23.72,0,0,0-5,17,.68.68,0,0,0,.66.66c11.11,1.34,23.06,4.8,32.21,11.36C229.81,181.28,230.47,180.13,229.79,179.64Z" transform="translate(-109.46 -57)"/><path class="cls-14" d="M208.29,146.52h0a22.83,22.83,0,0,0-11.38,22.24c-41,0-46,11.45-46,11.45-2.06-4.42.78-6.56.78-6.56l36.84-36.17Z" transform="translate(-109.46 -57)"/><path class="cls-2" d="M207.83,146.05c-.08.08-1.62,1-2.11,1.36a24.17,24.17,0,0,0-4.49,4.32,23.72,23.72,0,0,0-5,17l.66-.66c-11.26,0-23,.57-33.8,4-4.08,1.28-8.59,3-11.6,6.22a6.61,6.61,0,0,0-1.19,1.59l1.21.16c-1.08-2.62-.75-4.61,1.14-6.44l3.89-3.82,14.53-14.27,14.06-13.8c1-1,2.78-2.17,3.47-3.41.46-.85,0,.18-.32-.2.38.49,1.94.89,2.48,1.14L208,147.09c.77.35,1.44-.79.67-1.14l-19.79-9a.68.68,0,0,0-.8.1l-35.39,34.75c-2.56,2.52-4,4.79-2.4,8.63.19.45.95.73,1.21.15,1.19-2.66,5-4.39,7.4-5.48,11.65-5.23,25.53-5.61,38-5.64a.67.67,0,0,0,.66-.66,22.44,22.44,0,0,1,5.48-17.14,23.09,23.09,0,0,1,4-3.56,12.35,12.35,0,0,0,1.69-1.07C209.36,146.39,208.43,145.45,207.83,146.05Z" transform="translate(-109.46 -57)"/><path class="cls-2" d="M218.58,171,186.87,194.1l-44.23,32.3c-1.08.78-3.33,1.83-4.07,3,0,.07-.18.12-.25.18s.69.36.51.07a10.25,10.25,0,0,0-.62-.85l-4.27-5.85c-.21-.29-1.1-1.82-1.19-1.23s-.13.24.1.15a7.55,7.55,0,0,0,1.35-1l6-4.39,46.65-34.06,20-14.64,5.18-3.78.84-.61c-.27.2-.64-.45-.44.06a4.8,4.8,0,0,0,.64.86l2.1,2.89,3.19,4.37c.34.45,1.1,0,.76-.45l-6.09-8.34a.44.44,0,0,0-.6-.15l-27,19.73L142.14,214l-9.93,7.25a.45.45,0,0,0-.16.6l6.09,8.34a.45.45,0,0,0,.61.16l27-19.73L209.1,179l9.93-7.25C219.48,171.38,219,170.61,218.58,171Z" transform="translate(-109.46 -57)"/><path class="cls-2" d="M135.7,226.15l27-19.73,43.33-31.63,9.93-7.25c.45-.33,0-1.1-.44-.76l-27,19.73-43.32,31.63-9.93,7.25c-.46.33,0,1.09.44.76Z" transform="translate(-109.46 -57)"/><path class="cls-2" d="M134.9,219.74l6.09,8.35c.33.45,1.09,0,.76-.45l-6.09-8.34c-.33-.45-1.1,0-.76.44Z" transform="translate(-109.46 -57)"/><path class="cls-2" d="M138,217.47l6.09,8.34c.33.46,1.1,0,.76-.44L138.77,217c-.33-.46-1.09,0-.76.44Z" transform="translate(-109.46 -57)"/><path class="cls-2" d="M141.12,215.2l6.09,8.34c.33.45,1.1,0,.76-.44l-6.09-8.34c-.33-.46-1.09,0-.76.44Z" transform="translate(-109.46 -57)"/><path class="cls-2" d="M144.24,212.93l6.09,8.34c.33.45,1.09,0,.76-.45L145,212.48c-.33-.45-1.1,0-.76.45Z" transform="translate(-109.46 -57)"/><path class="cls-2" d="M206.49,167.48l6.09,8.34c.33.45,1.09,0,.76-.44L207.25,167c-.34-.45-1.1,0-.76.45Z" transform="translate(-109.46 -57)"/><path class="cls-2" d="M203.37,169.75l6.09,8.34c.33.45,1.1,0,.76-.44l-6.09-8.34c-.33-.46-1.09,0-.76.44Z" transform="translate(-109.46 -57)"/><path class="cls-2" d="M200.26,172l6.09,8.34c.33.46,1.09,0,.76-.44L201,171.58c-.33-.45-1.09,0-.76.44Z" transform="translate(-109.46 -57)"/><path class="cls-2" d="M197.15,174.3l6.09,8.34c.33.45,1.09,0,.76-.45l-6.09-8.34c-.33-.45-1.1,0-.76.45Z" transform="translate(-109.46 -57)"/><path class="cls-2" d="M194,176.57l6.09,8.34c.33.45,1.09,0,.76-.45l-6.09-8.34c-.34-.45-1.1,0-.76.45Z" transform="translate(-109.46 -57)"/><path class="cls-2" d="M190.92,178.84l6.09,8.34c.33.45,1.1,0,.76-.44l-6.09-8.34c-.33-.46-1.09,0-.76.44Z" transform="translate(-109.46 -57)"/><path class="cls-2" d="M187.81,181.11l6.09,8.34c.33.46,1.09,0,.76-.44l-6.09-8.34c-.33-.45-1.09,0-.76.44Z" transform="translate(-109.46 -57)"/><path class="cls-2" d="M184.7,183.39l6.09,8.34c.33.45,1.09,0,.76-.45l-6.09-8.34c-.33-.45-1.1,0-.76.45Z" transform="translate(-109.46 -57)"/><path class="cls-2" d="M181.59,185.66l6.09,8.34c.33.45,1.09,0,.76-.45l-6.09-8.34c-.34-.45-1.1,0-.76.45Z" transform="translate(-109.46 -57)"/><path class="cls-2" d="M178.47,187.93l6.09,8.34c.33.45,1.1,0,.76-.44l-6.09-8.34c-.33-.46-1.09,0-.76.44Z" transform="translate(-109.46 -57)"/><path class="cls-2" d="M175.36,190.2l6.09,8.34c.33.46,1.1,0,.76-.44l-6.09-8.34c-.33-.45-1.09,0-.76.44Z" transform="translate(-109.46 -57)"/><path class="cls-2" d="M172.25,192.47l6.09,8.35c.33.45,1.09,0,.76-.45L173,192c-.33-.45-1.1,0-.76.44Z" transform="translate(-109.46 -57)"/><path class="cls-2" d="M169.14,194.75l6.09,8.34c.33.45,1.09,0,.76-.45l-6.09-8.34c-.33-.45-1.1,0-.76.45Z" transform="translate(-109.46 -57)"/><path class="cls-2" d="M166,197l6.09,8.34c.33.45,1.1,0,.76-.44l-6.09-8.34c-.33-.46-1.09,0-.76.44Z" transform="translate(-109.46 -57)"/><path class="cls-2" d="M162.91,199.29l6.09,8.34c.33.46,1.1,0,.76-.44l-6.09-8.34c-.33-.45-1.09,0-.76.44Z" transform="translate(-109.46 -57)"/><path class="cls-2" d="M159.8,201.56l6.09,8.35c.33.45,1.09,0,.76-.45l-6.09-8.34c-.33-.45-1.1,0-.76.44Z" transform="translate(-109.46 -57)"/><path class="cls-2" d="M156.69,203.84l6.09,8.34c.33.45,1.09,0,.76-.45l-6.09-8.34c-.33-.45-1.1,0-.76.45Z" transform="translate(-109.46 -57)"/><path class="cls-2" d="M153.57,206.11l6.09,8.34c.33.45,1.1,0,.76-.44l-6.09-8.34c-.33-.46-1.09,0-.76.44Z" transform="translate(-109.46 -57)"/><path class="cls-2" d="M150.46,208.38l6.09,8.34c.33.46,1.1,0,.76-.44l-6.09-8.34c-.33-.45-1.09,0-.76.44Z" transform="translate(-109.46 -57)"/><path class="cls-2" d="M147.35,210.65l6.09,8.35c.33.45,1.09,0,.76-.45l-6.09-8.34c-.33-.45-1.1,0-.76.44Z" transform="translate(-109.46 -57)"/><path class="cls-2" d="M209.6,165.21l6.09,8.34c.33.45,1.09,0,.76-.45l-6.09-8.34c-.33-.45-1.1,0-.76.45Z" transform="translate(-109.46 -57)"/><path class="cls-2" d="M203.35,150.42,184,120.76l-26.93-41.3c-.68-1-1.53-3.15-2.55-3.9a.89.89,0,0,1-.16-.25c0-.07-.37.67-.06.5s.54-.35.81-.52l5.5-3.59c.28-.18,1.67-.91,1.07-1s-.24-.15-.16.11a6.31,6.31,0,0,0,.8,1.23L166,77.72l28.46,43.64,12.26,18.81c1,1.59,2,3.34,3.16,4.84a6,6,0,0,1,.49.75c-.13-.23.4-.61,0-.47a3.9,3.9,0,0,0-.74.48l-2.78,1.81-4.11,2.68c-.47.31,0,1.07.44.76l7.81-5.09a.45.45,0,0,0,.16-.6l-16.57-25.41L168.2,79.45l-6-9.25a.43.43,0,0,0-.6-.16l-7.81,5.09a.45.45,0,0,0-.16.6l16.57,25.41,26.4,40.47,6,9.25C202.9,151.34,203.66,150.9,203.35,150.42Z" transform="translate(-109.46 -57)"/><path class="cls-2" d="M157.5,73.19l16.57,25.4,26.39,40.47,6,9.26c.3.47,1.07,0,.76-.44l-16.57-25.41L164.29,82l-6-9.26c-.31-.47-1.07,0-.76.45Z" transform="translate(-109.46 -57)"/><path class="cls-2" d="M163.29,72.7l-7.8,5.09c-.47.31,0,1.07.44.76l7.81-5.09c.47-.31,0-1.07-.45-.76Z" transform="translate(-109.46 -57)"/><path class="cls-2" d="M165.19,75.61l-7.8,5.09c-.47.31,0,1.07.44.76l7.81-5.09c.47-.31,0-1.07-.45-.76Z" transform="translate(-109.46 -57)"/><path class="cls-2" d="M167.09,78.53l-7.8,5.09c-.47.31,0,1.07.44.76l7.81-5.09c.47-.31,0-1.07-.45-.76Z" transform="translate(-109.46 -57)"/><path class="cls-2" d="M169,81.44l-7.8,5.09c-.48.31,0,1.07.44.76l7.81-5.09c.47-.31,0-1.07-.45-.76Z" transform="translate(-109.46 -57)"/><path class="cls-2" d="M207,139.7l-7.81,5.09c-.47.31,0,1.07.44.76l7.81-5.09c.47-.31,0-1.07-.44-.76Z" transform="translate(-109.46 -57)"/><path class="cls-2" d="M205.09,136.78l-7.81,5.1c-.47.3,0,1.07.45.76l7.8-5.1c.47-.3,0-1.07-.44-.76Z" transform="translate(-109.46 -57)"/><path class="cls-2" d="M203.19,133.87,195.38,139c-.47.31,0,1.07.45.76l7.8-5.09c.47-.31,0-1.07-.44-.76Z" transform="translate(-109.46 -57)"/><path class="cls-2" d="M201.29,131l-7.81,5.09c-.47.31,0,1.07.45.76l7.8-5.09c.47-.31,0-1.07-.44-.76Z" transform="translate(-109.46 -57)"/><path class="cls-2" d="M199.39,128.05l-7.81,5.09c-.47.31,0,1.07.45.76l7.8-5.09c.48-.31,0-1.07-.44-.76Z" transform="translate(-109.46 -57)"/><path class="cls-2" d="M197.49,125.13l-7.81,5.09c-.47.31,0,1.07.45.76l7.8-5.09c.48-.31,0-1.07-.44-.76Z" transform="translate(-109.46 -57)"/><path class="cls-2" d="M195.59,122.22l-7.81,5.09c-.47.31,0,1.07.45.76L196,123c.48-.31,0-1.07-.44-.76Z" transform="translate(-109.46 -57)"/><path class="cls-2" d="M193.69,119.31l-7.81,5.09c-.47.31,0,1.07.45.76l7.8-5.09c.48-.31,0-1.07-.44-.76Z" transform="translate(-109.46 -57)"/><path class="cls-2" d="M191.79,116.39l-7.81,5.1c-.47.3,0,1.07.45.75l7.8-5.09c.48-.3,0-1.07-.44-.76Z" transform="translate(-109.46 -57)"/><path class="cls-2" d="M189.89,113.48l-7.81,5.09c-.47.31,0,1.07.45.76l7.8-5.09c.48-.31,0-1.07-.44-.76Z" transform="translate(-109.46 -57)"/><path class="cls-2" d="M188,110.57l-7.81,5.09c-.47.31,0,1.07.45.76l7.8-5.09c.48-.31,0-1.07-.44-.76Z" transform="translate(-109.46 -57)"/><path class="cls-2" d="M186.09,107.66l-7.81,5.09c-.47.3,0,1.07.45.76l7.8-5.09c.48-.31,0-1.07-.44-.76Z" transform="translate(-109.46 -57)"/><path class="cls-2" d="M184.19,104.74l-7.81,5.09c-.47.31,0,1.07.45.76l7.81-5.09c.47-.31,0-1.07-.45-.76Z" transform="translate(-109.46 -57)"/><path class="cls-2" d="M182.29,101.83l-7.8,5.09c-.48.31,0,1.07.44.76l7.81-5.09c.47-.31,0-1.07-.45-.76Z" transform="translate(-109.46 -57)"/><path class="cls-2" d="M180.39,98.92l-7.8,5.09c-.48.31,0,1.07.44.76l7.81-5.09c.47-.31,0-1.07-.45-.76Z" transform="translate(-109.46 -57)"/><path class="cls-2" d="M178.49,96l-7.8,5.09c-.48.31,0,1.08.44.76l7.81-5.09c.47-.3,0-1.07-.45-.76Z" transform="translate(-109.46 -57)"/><path class="cls-2" d="M176.59,93.09l-7.8,5.09c-.48.31,0,1.07.44.76L177,93.85c.47-.31,0-1.07-.45-.76Z" transform="translate(-109.46 -57)"/><path class="cls-2" d="M174.69,90.18l-7.8,5.09c-.48.31,0,1.07.44.76l7.81-5.09c.47-.31,0-1.07-.45-.76Z" transform="translate(-109.46 -57)"/><path class="cls-2" d="M172.79,87.27,165,92.36c-.48.3,0,1.07.44.76l7.81-5.1c.47-.3,0-1.07-.45-.75Z" transform="translate(-109.46 -57)"/><path class="cls-2" d="M170.89,84.35l-7.8,5.09c-.48.31,0,1.07.44.76l7.81-5.09c.47-.31,0-1.07-.45-.76Z" transform="translate(-109.46 -57)"/><path class="cls-2" d="M208.89,142.61l-7.81,5.09c-.47.31,0,1.07.44.76l7.81-5.09c.47-.31,0-1.07-.44-.76Z" transform="translate(-109.46 -57)"/><path class="cls-2" d="M281.56,107.66l-53.4,39a34.85,34.85,0,0,0-2.95,2.16l-.17.12c.66-.46.54.5.21-.34-.56-1.48-2.18-3-3.13-4.29-.15-.21-.79-1.4-.84-.76,0,.33-.17.33,0,.19s.65-.48,1-.72l4.25-3.11,32.81-24,15.23-11.12a24.47,24.47,0,0,0,3-2.21c.1-.1-.43-.49-.29.07s1,1.36,1.35,1.84l2.73,3.73c.33.46,1.09,0,.76-.44L277.88,102a.45.45,0,0,0-.61-.16L227.69,138l-6.95,5.08a.44.44,0,0,0-.16.6l4.29,5.87a.44.44,0,0,0,.6.16l49.59-36.2,6.95-5.08C282.46,108.09,282,107.33,281.56,107.66Z" transform="translate(-109.46 -57)"/><path class="cls-2" d="M223.33,146.76l49.58-36.2,6.95-5.08c.46-.33,0-1.09-.44-.75l-49.59,36.2-7,5.07c-.45.33,0,1.1.45.76Z" transform="translate(-109.46 -57)"/><path class="cls-2" d="M222.58,142.21l4.29,5.87c.33.45,1.1,0,.76-.44l-4.29-5.88c-.33-.45-1.09,0-.76.45Z" transform="translate(-109.46 -57)"/><path class="cls-2" d="M224.78,140.61l4.28,5.87c.33.45,1.1,0,.76-.44l-4.29-5.88c-.33-.45-1.09,0-.75.45Z" transform="translate(-109.46 -57)"/><path class="cls-2" d="M227,139l4.29,5.88c.33.45,1.09,0,.76-.45l-4.29-5.87c-.33-.45-1.1,0-.76.44Z" transform="translate(-109.46 -57)"/><path class="cls-2" d="M229.16,137.4l4.29,5.88c.33.45,1.09,0,.76-.45L229.92,137c-.33-.45-1.1,0-.76.44Z" transform="translate(-109.46 -57)"/><path class="cls-2" d="M273,105.4l4.29,5.87c.33.45,1.09,0,.76-.44L273.76,105c-.33-.45-1.1,0-.76.45Z" transform="translate(-109.46 -57)"/><path class="cls-2" d="M270.81,107l4.28,5.87c.34.45,1.1,0,.76-.44l-4.28-5.88c-.34-.45-1.1,0-.76.45Z" transform="translate(-109.46 -57)"/><path class="cls-2" d="M268.61,108.6l4.29,5.87c.33.45,1.1,0,.76-.44l-4.29-5.88c-.33-.45-1.09,0-.76.45Z" transform="translate(-109.46 -57)"/><path class="cls-2" d="M266.42,110.2l4.29,5.87c.33.46,1.09,0,.76-.44l-4.29-5.88c-.33-.45-1.09,0-.76.45Z" transform="translate(-109.46 -57)"/><path class="cls-2" d="M264.23,111.8l4.29,5.87c.33.46,1.09,0,.76-.44L265,111.35c-.33-.45-1.09,0-.76.45Z" transform="translate(-109.46 -57)"/><path class="cls-2" d="M262,113.4l4.29,5.87c.33.46,1.09,0,.76-.44L262.8,113c-.33-.46-1.1,0-.76.44Z" transform="translate(-109.46 -57)"/><path class="cls-2" d="M259.85,115l4.28,5.87c.34.46,1.1,0,.76-.44l-4.28-5.87c-.33-.46-1.1,0-.76.44Z" transform="translate(-109.46 -57)"/><path class="cls-2" d="M257.65,116.6l4.29,5.87c.33.46,1.1,0,.76-.44l-4.29-5.87c-.33-.46-1.09,0-.76.44Z" transform="translate(-109.46 -57)"/><path class="cls-2" d="M255.46,118.2l4.29,5.87c.33.46,1.1,0,.76-.44l-4.29-5.87c-.33-.46-1.09,0-.76.44Z" transform="translate(-109.46 -57)"/><path class="cls-2" d="M253.27,119.8l4.29,5.87c.33.46,1.09,0,.76-.44L254,119.36c-.33-.46-1.09,0-.76.44Z" transform="translate(-109.46 -57)"/><path class="cls-2" d="M251.08,121.4l4.29,5.88c.33.45,1.09,0,.76-.45L251.84,121c-.33-.46-1.1,0-.76.44Z" transform="translate(-109.46 -57)"/><path class="cls-2" d="M248.89,123l4.29,5.88c.33.45,1.09,0,.75-.45l-4.28-5.87c-.33-.46-1.1,0-.76.44Z" transform="translate(-109.46 -57)"/><path class="cls-2" d="M246.69,124.6l4.29,5.88c.33.45,1.1,0,.76-.45l-4.29-5.87c-.33-.46-1.09,0-.76.44Z" transform="translate(-109.46 -57)"/><path class="cls-2" d="M244.5,126.2l4.29,5.88c.33.45,1.1,0,.76-.45l-4.29-5.87c-.33-.45-1.09,0-.76.44Z" transform="translate(-109.46 -57)"/><path class="cls-2" d="M242.31,127.8l4.29,5.88c.33.45,1.09,0,.76-.45l-4.29-5.87c-.33-.45-1.09,0-.76.44Z" transform="translate(-109.46 -57)"/><path class="cls-2" d="M240.12,129.4l4.29,5.88c.33.45,1.09,0,.76-.45L240.88,129c-.33-.45-1.1,0-.76.44Z" transform="translate(-109.46 -57)"/><path class="cls-2" d="M237.93,131l4.29,5.88c.33.45,1.09,0,.76-.45l-4.29-5.87c-.33-.45-1.1,0-.76.44Z" transform="translate(-109.46 -57)"/><path class="cls-2" d="M235.73,132.6l4.29,5.88c.33.45,1.1,0,.76-.45l-4.29-5.87c-.33-.45-1.09,0-.76.44Z" transform="translate(-109.46 -57)"/><path class="cls-2" d="M233.54,134.2l4.29,5.88c.33.45,1.1,0,.76-.45l-4.29-5.87c-.33-.45-1.09,0-.76.44Z" transform="translate(-109.46 -57)"/><path class="cls-2" d="M231.35,135.8l4.29,5.88c.33.45,1.09,0,.76-.45l-4.29-5.87c-.33-.45-1.09,0-.76.44Z" transform="translate(-109.46 -57)"/><path class="cls-2" d="M275.19,103.8l4.29,5.87c.33.45,1.09,0,.76-.44L276,103.35c-.33-.45-1.09,0-.76.45Z" transform="translate(-109.46 -57)"/><path class="cls-2" d="M277.94,242.13,258.6,212.47l-26.93-41.3c-.68-1-1.53-3.15-2.55-3.9A1.07,1.07,0,0,1,229,167c0-.08-.37.67-.06.5s.54-.35.81-.52l5.5-3.59c.28-.18,1.67-.91,1.07-1s-.24-.15-.16.1a5.77,5.77,0,0,0,.8,1.23l3.69,5.66,28.46,43.64,12.26,18.81c1,1.59,2,3.34,3.16,4.84a5.37,5.37,0,0,1,.49.75c-.13-.24.4-.61,0-.47a3.61,3.61,0,0,0-.74.48l-2.78,1.81L277.34,242c-.47.31,0,1.07.44.76l7.81-5.09a.45.45,0,0,0,.16-.6l-16.57-25.41-26.39-40.47-6-9.26a.44.44,0,0,0-.6-.15l-7.81,5.09a.45.45,0,0,0-.16.6l16.57,25.4,26.4,40.47,6,9.26C277.49,243,278.25,242.6,277.94,242.13Z" transform="translate(-109.46 -57)"/><path class="cls-2" d="M232.09,164.89l16.57,25.41,26.39,40.47,6,9.26c.3.47,1.07,0,.76-.45l-16.57-25.4-26.4-40.47-6-9.26c-.31-.47-1.07,0-.76.44Z" transform="translate(-109.46 -57)"/><path class="cls-2" d="M237.88,164.41l-7.8,5.09c-.47.31,0,1.07.44.76l7.81-5.09c.47-.31,0-1.07-.45-.76Z" transform="translate(-109.46 -57)"/><path class="cls-2" d="M239.78,167.32l-7.8,5.09c-.47.31,0,1.07.44.76l7.81-5.09c.47-.31,0-1.07-.45-.76Z" transform="translate(-109.46 -57)"/><path class="cls-2" d="M241.68,170.23l-7.8,5.09c-.48.31,0,1.08.44.76l7.81-5.09c.47-.3,0-1.07-.45-.76Z" transform="translate(-109.46 -57)"/><path class="cls-2" d="M243.58,173.15l-7.8,5.09c-.48.31,0,1.07.44.76l7.81-5.09c.47-.31,0-1.07-.45-.76Z" transform="translate(-109.46 -57)"/><path class="cls-2" d="M281.58,231.41l-7.81,5.09c-.47.3,0,1.07.44.76l7.81-5.09c.47-.31,0-1.08-.44-.76Z" transform="translate(-109.46 -57)"/><path class="cls-2" d="M279.68,228.49l-7.81,5.09c-.47.31,0,1.07.44.76l7.81-5.09c.47-.31,0-1.07-.44-.76Z" transform="translate(-109.46 -57)"/><path class="cls-2" d="M277.78,225.58,270,230.67c-.47.31,0,1.07.45.76l7.8-5.09c.47-.31,0-1.07-.44-.76Z" transform="translate(-109.46 -57)"/><path class="cls-2" d="M275.88,222.67l-7.81,5.09c-.47.31,0,1.07.45.76l7.8-5.09c.47-.31,0-1.07-.44-.76Z" transform="translate(-109.46 -57)"/><path class="cls-2" d="M274,219.75l-7.81,5.09c-.47.31,0,1.07.45.76l7.8-5.09c.47-.3,0-1.07-.44-.76Z" transform="translate(-109.46 -57)"/><path class="cls-2" d="M272.08,216.84l-7.81,5.09c-.47.31,0,1.07.45.76l7.8-5.09c.47-.31,0-1.07-.44-.76Z" transform="translate(-109.46 -57)"/><path class="cls-2" d="M270.18,213.93,262.37,219c-.47.31,0,1.07.45.76l7.8-5.09c.48-.31,0-1.07-.44-.76Z" transform="translate(-109.46 -57)"/><path class="cls-2" d="M268.28,211l-7.81,5.1c-.47.3,0,1.07.45.76l7.8-5.1c.48-.3,0-1.07-.44-.76Z" transform="translate(-109.46 -57)"/><path class="cls-2" d="M266.38,208.1l-7.81,5.09c-.47.31,0,1.07.45.76l7.8-5.09c.48-.31,0-1.07-.44-.76Z" transform="translate(-109.46 -57)"/><path class="cls-2" d="M264.48,205.19l-7.81,5.09c-.47.31,0,1.07.45.76l7.8-5.09c.48-.31,0-1.07-.44-.76Z" transform="translate(-109.46 -57)"/><path class="cls-2" d="M262.58,202.28l-7.81,5.09c-.47.31,0,1.07.45.76L263,203c.48-.31,0-1.07-.44-.76Z" transform="translate(-109.46 -57)"/><path class="cls-2" d="M260.68,199.36l-7.81,5.09c-.47.31,0,1.07.45.76l7.8-5.09c.48-.31,0-1.07-.44-.76Z" transform="translate(-109.46 -57)"/><path class="cls-2" d="M258.78,196.45,251,201.54c-.47.31,0,1.07.45.76l7.8-5.09c.48-.31,0-1.07-.44-.76Z" transform="translate(-109.46 -57)"/><path class="cls-2" d="M256.88,193.54l-7.81,5.09c-.47.31,0,1.07.45.76l7.81-5.09c.47-.31,0-1.07-.45-.76Z" transform="translate(-109.46 -57)"/><path class="cls-2" d="M255,190.62l-7.81,5.1c-.47.3,0,1.07.45.76l7.81-5.1c.47-.3,0-1.07-.45-.76Z" transform="translate(-109.46 -57)"/><path class="cls-2" d="M253.08,187.71l-7.8,5.09c-.48.31,0,1.07.44.76l7.81-5.09c.47-.31,0-1.07-.45-.76Z" transform="translate(-109.46 -57)"/><path class="cls-2" d="M251.18,184.8l-7.8,5.09c-.48.31,0,1.07.44.76l7.81-5.09c.47-.31,0-1.07-.45-.76Z" transform="translate(-109.46 -57)"/><path class="cls-2" d="M249.28,181.89l-7.8,5.09c-.48.3,0,1.07.44.76l7.81-5.09c.47-.31,0-1.07-.45-.76Z" transform="translate(-109.46 -57)"/><path class="cls-2" d="M247.38,179l-7.8,5.09c-.48.31,0,1.07.44.76l7.81-5.09c.47-.31,0-1.07-.45-.76Z" transform="translate(-109.46 -57)"/><path class="cls-2" d="M245.48,176.06l-7.8,5.09c-.48.31,0,1.07.44.76l7.81-5.09c.47-.31,0-1.07-.45-.76Z" transform="translate(-109.46 -57)"/><path class="cls-2" d="M283.48,234.32l-7.81,5.09c-.47.31,0,1.07.44.76l7.81-5.09c.47-.31,0-1.07-.44-.76Z" transform="translate(-109.46 -57)"/><polygon class="cls-15" points="49.64 0.66 173.82 190.98 168.66 194.41 44.84 3.44 49.64 0.66"/><path class="cls-16" d="M158.53,58l12.33,18.89,29.61,45.38,36,55.13,31,47.49,10.21,15.66,3.17,4.85c.41.63,1,2.18,1.69,2.59a1.1,1.1,0,0,1,.21.33l.24-.91-5.16,3.43.9.24-12.34-19-29.63-45.7L201,131.3,170.17,83.69,159.92,67.88,156.77,63c-.41-.63-1-2.17-1.68-2.59-.09,0-.16-.24-.22-.33l-.23.91,4.79-2.78a.66.66,0,0,0-.66-1.14L154,59.87a.65.65,0,0,0-.23.9l12.34,19,29.63,45.7,35.68,55,30.87,47.61L272.51,244c1.55,2.39,2.94,5.3,4.83,7.45a2.66,2.66,0,0,1,.21.33.66.66,0,0,0,.9.23l5.17-3.43a.66.66,0,0,0,.23-.9l-12.32-18.89-29.61-45.38-36-55.14L175,80.76,164.74,65.1c-1.56-2.39-3-5.29-4.85-7.44a2.37,2.37,0,0,1-.22-.33C159.21,56.62,158.06,57.28,158.53,58Z" transform="translate(-109.46 -57)"/><polygon class="cls-17" points="46.85 2.27 109.33 97.54 105.85 97.54 44.84 3.44 46.85 2.27"/><path class="cls-2" d="M155.74,59.61l21.13,32.21,33.66,51.32,7.69,11.73.57-1a12.84,12.84,0,0,0-2.84,0c-.87.22,0,.32-.15.21a11.54,11.54,0,0,1-.8-1.25l-3.92-6-14.28-22-34-52.47-7.91-12.2-.23.91,2-1.17a.66.66,0,0,0-.67-1.13l-2,1.16a.65.65,0,0,0-.23.9L175.92,95l33.31,51.38,4.63,7.15a6.29,6.29,0,0,0,.84,1.3c1,.83,2.85.39,4.09.39a.66.66,0,0,0,.57-1L198.24,122,164.58,70.68l-7.7-11.74C156.42,58.23,155.28,58.9,155.74,59.61Z" transform="translate(-109.46 -57)"/><polygon class="cls-17" points="171.54 192.24 109.06 96.97 112.54 96.97 173.55 191.07 171.54 192.24"/><path class="cls-2" d="M281.57,248.9l-21.12-32.21-33.66-51.32-7.7-11.73-.57,1a12.35,12.35,0,0,0,2.85,0c.87-.22,0-.32.14-.21a10.27,10.27,0,0,1,.81,1.25l3.91,6,14.29,22,34,52.47,7.91,12.2.24-.91-2,1.17a.66.66,0,0,0,.67,1.14l2-1.17a.66.66,0,0,0,.23-.9L261.4,213.53l-33.31-51.38L223.46,155a6.33,6.33,0,0,0-.85-1.3c-1-.83-2.84-.39-4.09-.39a.66.66,0,0,0-.57,1l21.13,32.22,33.66,51.31,7.69,11.74C280.9,250.28,282,249.62,281.57,248.9Z" transform="translate(-109.46 -57)"/><polygon class="cls-15" points="175.73 48.32 179.45 52.94 18.84 169.52 15.53 164.87 175.73 48.32"/><path class="cls-16" d="M284.73,105.79l3.72,4.62.13-1-15.93,11.57-38.28,27.78-46.54,33.79-40.07,29.08-13.22,9.59-4.12,3c-.51.36-1.88,1-2.17,1.57,0,.07-.21.15-.28.2l.9.24-3.3-4.65-.24.9,15.94-11.6L179.55,183l46.31-33.69,39.87-29L279,110.68a60.52,60.52,0,0,0,6.29-4.58,3.06,3.06,0,0,1,.29-.21c.68-.49,0-1.64-.67-1.14l-15.94,11.6L230.64,144.2l-46.31,33.69-39.87,29-13.22,9.62A60.52,60.52,0,0,0,125,221.1a2.11,2.11,0,0,1-.29.2.68.68,0,0,0-.23.9l3.3,4.66a.68.68,0,0,0,.91.23l15.93-11.56,38.28-27.79L229.39,154l40.07-29.08,13.21-9.6a60.34,60.34,0,0,0,6.29-4.56,3.06,3.06,0,0,1,.29-.21.67.67,0,0,0,.13-1l-3.72-4.62C285.13,104.19,284.2,105.13,284.73,105.79Z" transform="translate(-109.46 -57)"/><polygon class="cls-17" points="17.53 167.58 15.53 164.87 106.48 99.33 107.3 102.09 17.53 167.58"/><path class="cls-2" d="M127.56,224.25l-2-2.71-.24.9L156,200.32,205,165l11.29-8.14-1-.39a10.24,10.24,0,0,0,.79,2.66c-.55-.77.72-.74.13-.51a6.91,6.91,0,0,0-1.29,1L209,163.93l-21.08,15.38-49.72,36.28L126.66,224c-.68.5,0,1.64.67,1.14L157.73,203,206,167.78l11.13-8.12a.7.7,0,0,0,.31-.75l-.82-2.76a.66.66,0,0,0-1-.39l-30.7,22.12-49,35.29-11.3,8.13a.67.67,0,0,0-.23.9l2,2.71C126.92,225.59,128.07,224.93,127.56,224.25Z" transform="translate(-109.46 -57)"/><polygon class="cls-17" points="109.95 96.24 175.47 48.54 177.3 50.81 110.54 99.33 109.95 96.24"/><path class="cls-2" d="M219.74,153.81l59.12-43L284,107a5.84,5.84,0,0,0,1.14-.83c.25-.3-.42-.21-.45.1s1.32,1.64,1.6,2l.13-1-58.37,42.42-8.39,6.1,1,.39-.59-3.09c-.16-.83-1.44-.48-1.28.35l.59,3.1a.66.66,0,0,0,1,.39l58.37-42.42,8.4-6.1a.66.66,0,0,0,.13-1l-1.83-2.28a.65.65,0,0,0-.8-.1l-57.53,41.88-8,5.82C218.4,153.16,219.05,154.31,219.74,153.81Z" transform="translate(-109.46 -57)"/><ellipse class="cls-18" cx="111.13" cy="99.33" rx="4.06" ry="4.94"/><path class="cls-16" d="M224,156.33c-.1,1.91-1.14,4.28-3.4,4.28s-3.4-2.36-3.4-4.28,1.21-4.27,3.4-4.27,3.3,2.36,3.4,4.27c0,.85,1.36.85,1.31,0-.12-2.64-1.71-5.59-4.71-5.59s-4.7,2.94-4.72,5.59,1.7,5.42,4.48,5.58c3.11.17,4.83-2.84,5-5.58C225.35,155.48,224,155.48,224,156.33Z" transform="translate(-109.46 -57)"/><ellipse class="cls-2" cx="112.09" cy="99.33" rx="3.09" ry="3.99"/><path class="cls-9" d="M166.92,171.69c1.34-3.08,2.86-6.28,4.6-9.55a131.48,131.48,0,0,1,17-24.66l-36.84,36.17s-2.84,2.15-.78,6.56C150.89,180.21,153.71,174.57,166.92,171.69Z" transform="translate(-109.46 -57)"/><path class="cls-19" d="M133.26,235.59s19.28,1.12,50.57,15.54S233,256.26,233,256.26v41.35l-99.7-11.78Z" transform="translate(-109.46 -57)"/><path class="cls-2" d="M133.26,236.25c11.17.67,22.57,4.5,33,8.3,11.4,4.16,22.14,10.17,34,13.13a62.65,62.65,0,0,0,23.52,1.72,29.74,29.74,0,0,0,9.58-2.58l-1-.56v41.35L233,297l-33.72-4-53.7-6.34-12.28-1.45.66.65V235.59a.66.66,0,0,0-1.31,0v50.24a.67.67,0,0,0,.65.65l33.72,4,53.7,6.34L233,298.26a.66.66,0,0,0,.65-.65V256.26a.66.66,0,0,0-1-.57,27.11,27.11,0,0,1-7.89,2.25,60.06,60.06,0,0,1-23.83-1.43c-11.57-2.85-22.07-8.67-33.19-12.8a171.36,171.36,0,0,0-24.48-7.23,70.17,70.17,0,0,0-10-1.54C132.42,234.89,132.43,236.2,133.26,236.25Z" transform="translate(-109.46 -57)"/></svg>