<svg xmlns="http://www.w3.org/2000/svg" viewBox="0 0 1692.45 1407.84"><defs><style>.cls-1{isolation:isolate;}.cls-2{opacity:0.5;mix-blend-mode:multiply;}.cls-3{fill:#231815;}.cls-4{fill:#607474;}.cls-5{fill:#3a5d60;}.cls-6{fill:#739c94;}.cls-7{fill:#fff;}.cls-8{fill:#f9cd8c;}</style></defs><title>交通資訊</title><g class="cls-1"><g id="圖層_4" data-name="圖層 4"><g class="cls-2"><path class="cls-3" d="M420,938l-37,662,996,257,62-919L872,916s3,39-66,38S420,938,420,938Z" transform="translate(-118.95 -645.94)"/><path class="cls-3" d="M415.5,938l-3.69,66L403,1162.55,392.3,1353.12,383,1518.71l-3,54.5c-.48,8.52-1.36,17.13-1.44,25.67,0,.37,0,.75-.06,1.12a4.54,4.54,0,0,0,3.3,4.34l26.65,6.88L481,1629.93l107.26,27.67,130.85,33.77,142.81,36.85,145.16,37.45,134.39,34.68,114,29.41,82,21.15c12.91,3.33,25.77,6.88,38.73,10l1.69.44a4.57,4.57,0,0,0,5.7-4.34l1.66-24.57,4.51-66.86,6.67-98.89,8.14-120.65,8.92-132.17,9-133.42,8.39-124.4,7.09-105.13,5.1-75.59c.81-11.9,2-23.87,2.42-35.79,0-.51.07-1,.1-1.53.17-2.49-2.2-4.41-4.5-4.5l-56.76-2.19-135.75-5.25-164.17-6.35L942,914.2c-22.9-.88-46.05-2.85-69-2.66-.33,0-.65,0-1,0a4.53,4.53,0,0,0-4.5,4.5,11.31,11.31,0,0,1,0,1.54,9.58,9.58,0,0,1-.43,3.25,27.38,27.38,0,0,1-5.81,11.91c-13,15.57-37.36,17-56,16.79-28.88-.41-57.77-1.7-86.63-2.83q-62.25-2.43-124.5-5.22-57.76-2.55-115.53-5.21l-38.87-1.8c-6.24-.29-12.69-1.1-18.93-.89-.28,0-.56,0-.84,0-5.79-.27-5.78,8.73,0,9q24.69,1.17,49.38,2.3,57.12,2.64,114.23,5.17,64.1,2.84,128.21,5.42c30.42,1.2,60.85,2.51,91.29,3.06,20.35.37,43.54-1.24,59.9-14.85,7.29-6.07,13.65-16.09,13.49-26,0-.55,0-1.1,0-1.65l-4.5,4.5,56.76,2.19,135.75,5.25,164.17,6.35,142.37,5.51,46.87,1.81c7.07.27,15,1.64,22.1.85a8.11,8.11,0,0,1,1,0l-4.5-4.5-1.66,24.57-4.51,66.86-6.67,98.89L1415.52,1249l-8.92,132.17-9,133.42-8.39,124.4-7.09,105.13-5.1,75.59-1.58,23.44c-.28,4-1,8.3-.84,12.35,0,.5-.07,1-.1,1.53l5.7-4.34-26.65-6.88L1281,1827.07l-107.26-27.67-130.85-33.77-142.81-36.85L755,1691.33l-134.39-34.68-114-29.41-81.95-21.15c-12.78-3.3-25.73-7.66-38.73-10-.57-.1-1.13-.29-1.69-.44l3.3,4.34,3.69-66,8.86-158.51,10.65-190.57L420,1019.29l3-54.5c.48-8.52,1.36-17.13,1.44-25.67,0-.37,0-.75.06-1.12C424.82,932.21,415.82,932.23,415.5,938Z" transform="translate(-118.95 -645.94)"/></g><path class="cls-4" d="M420,923l-37,662,996,257,62-919L872,901s3,39-66,38S420,923,420,923Z" transform="translate(-118.95 -645.94)"/><path class="cls-5" d="M415.5,923l-3.69,66L403,1147.55,392.3,1338.12,383,1503.71l-3,54.5c-.48,8.52-1.36,17.13-1.44,25.67,0,.37,0,.75-.06,1.12a4.54,4.54,0,0,0,3.3,4.34l26.65,6.88L481,1614.93l107.26,27.67,130.85,33.77,142.81,36.85,145.16,37.45,134.39,34.68,114,29.41,82,21.15c12.91,3.33,25.77,6.88,38.73,10l1.69.44a4.57,4.57,0,0,0,5.7-4.34l1.66-24.57,4.51-66.86,6.67-98.89,8.14-120.65,8.92-132.17,9-133.42,8.39-124.4,7.09-105.13,5.1-75.59c.81-11.9,2-23.87,2.42-35.79,0-.51.07-1,.1-1.53.17-2.49-2.2-4.41-4.5-4.5l-56.76-2.19-135.75-5.25-164.17-6.35L942,899.2c-22.9-.88-46.05-2.85-69-2.66-.33,0-.65,0-1,0a4.53,4.53,0,0,0-4.5,4.5,11.31,11.31,0,0,1,0,1.54,9.58,9.58,0,0,1-.43,3.25,27.38,27.38,0,0,1-5.81,11.91c-13,15.57-37.36,17-56,16.79-28.88-.41-57.77-1.7-86.63-2.83q-62.25-2.43-124.5-5.22-57.76-2.55-115.53-5.21l-38.87-1.8c-6.24-.29-12.69-1.1-18.93-.89-.28,0-.56,0-.84,0-5.79-.27-5.78,8.73,0,9q24.69,1.17,49.38,2.3,57.12,2.64,114.23,5.17,64.1,2.84,128.21,5.42c30.42,1.2,60.85,2.51,91.29,3.06,20.35.37,43.54-1.24,59.9-14.85,7.29-6.07,13.65-16.09,13.49-26,0-.55,0-1.1,0-1.65l-4.5,4.5,56.76,2.19,135.75,5.25,164.17,6.35,142.37,5.51,46.87,1.81c7.07.27,15,1.64,22.1.85a8.11,8.11,0,0,1,1,0l-4.5-4.5-1.66,24.57-4.51,66.86-6.67,98.89L1415.52,1234l-8.92,132.17-9,133.42-8.39,124.4-7.09,105.13-5.1,75.59-1.58,23.44c-.28,4-1,8.3-.84,12.35,0,.5-.07,1-.1,1.53l5.7-4.34-26.65-6.88L1281,1812.07l-107.26-27.67-130.85-33.77-142.81-36.85L755,1676.33l-134.39-34.68-114-29.41-81.95-21.15c-12.78-3.3-25.73-7.66-38.73-10-.57-.1-1.13-.29-1.69-.44l3.3,4.34,3.69-66,8.86-158.51,10.65-190.57L420,1004.29l3-54.5c.48-8.52,1.36-17.13,1.44-25.67,0-.37,0-.75.06-1.12C424.82,917.21,415.82,917.23,415.5,923Z" transform="translate(-118.95 -645.94)"/><g class="cls-2"><polygon class="cls-3" points="240.54 19.56 190.54 937.56 5.54 894.56 5.54 19.56 240.54 19.56"/><path class="cls-3" d="M355,665.5l-1.34,24.63-3.65,67-5.36,98.33L338.08,976.2l-7.21,132.27-7.24,133-6.76,124.08-5.73,105.2L307,1546.18c-.64,11.82-2.12,23.92-1.95,35.77,0,.51-.05,1-.08,1.55l5.7-4.34-62.65-14.56-99.38-23.1-23-5.34,3.3,4.34V701c0-11.24.83-22.84,0-34.06,0-.48,0-1,0-1.46l-4.5,4.5h235c5.79,0,5.8-9,0-9h-235a4.57,4.57,0,0,0-4.5,4.5V1505c0,11.35-.2,22.72,0,34.06,0,.49,0,1,0,1.46a4.57,4.57,0,0,0,3.3,4.34L186,1559.4l99.38,23.1,23,5.34a4.57,4.57,0,0,0,5.7-4.34l1.34-24.63,3.65-67,5.36-98.33,6.57-120.74,7.21-132.27,7.24-133,6.76-124.08,5.73-105.2L362,702.82c.65-11.91,1.62-23.85,1.95-35.77,0-.51.05-1,.08-1.55C364.32,659.71,355.31,659.73,355,665.5Z" transform="translate(-118.95 -645.94)"/></g><polygon class="cls-4" points="240.54 4.56 190.54 922.56 5.54 879.56 5.54 4.56 240.54 4.56"/><path class="cls-5" d="M355,650.5l-1.34,24.63-3.65,67-5.36,98.33L338.08,961.2l-7.21,132.27-7.24,133-6.76,124.08-5.73,105.2L307,1531.18c-.64,11.82-2.12,23.92-1.95,35.77,0,.51-.05,1-.08,1.55l5.7-4.34-62.65-14.56-99.38-23.1-23-5.34,3.3,4.34V686c0-11.24.83-22.84,0-34.06,0-.48,0-1,0-1.46l-4.5,4.5h235c5.79,0,5.8-9,0-9h-235a4.57,4.57,0,0,0-4.5,4.5V1490c0,11.35-.2,22.72,0,34.06,0,.49,0,1,0,1.46a4.57,4.57,0,0,0,3.3,4.34L186,1544.4l99.38,23.1,23,5.34a4.57,4.57,0,0,0,5.7-4.34l1.34-24.63,3.65-67,5.36-98.33,6.57-120.74,7.21-132.27,7.24-133,6.76-124.08,5.73-105.2L362,687.82c.65-11.91,1.62-23.85,1.95-35.77,0-.51.05-1,.08-1.55C364.32,644.71,355.31,644.73,355,650.5Z" transform="translate(-118.95 -645.94)"/><g class="cls-2"><polygon class="cls-3" points="4.54 955.56 187.54 1006.56 169.54 1403.22 4.54 1403.22 4.54 955.56"/><path class="cls-3" d="M122.3,1605.84l18.24,5.08,43.79,12.21,52.73,14.69,45.61,12.71,15.17,4.23c2.35.65,4.74,1.54,7.14,2a3,3,0,0,1,.32.09l-3.3-4.34-.48,10.61L300.21,1692l-1.94,42.72-2.37,52.11-2.59,57.08-2.6,57.39L288.27,1955l-2.06,45.4-1.48,32.64c-.23,5.12-.68,10.29-.7,15.42,0,.23,0,.46,0,.68l4.5-4.5H130.28c-2.13,0-4.37-.19-6.49,0h-.29l4.5,4.5V1619.67c0-5.8.1-11.61,0-17.41v-.76c0-5.79-9-5.8-9,0V2031c0,5.8-.1,11.61,0,17.41v.76a4.57,4.57,0,0,0,4.5,4.5H268.1c6.69,0,13.43.27,20.11,0h.29a4.59,4.59,0,0,0,4.5-4.5l.48-10.61,1.31-28.88,1.94-42.72,2.37-52.11,2.59-57.08,2.6-57.39,2.44-53.73,2.06-45.4,1.48-32.64c.23-5.13.61-10.28.7-15.42,0-.23,0-.45,0-.68a4.56,4.56,0,0,0-3.3-4.34l-18.24-5.08-43.79-12.21-52.73-14.69-45.61-12.71c-7.42-2.07-14.82-4.44-22.31-6.22l-.32-.09C119.11,1595.6,116.72,1604.28,122.3,1605.84Z" transform="translate(-118.95 -645.94)"/></g><polygon class="cls-4" points="4.54 940.56 187.54 991.56 169.54 1388.22 4.54 1388.22 4.54 940.56"/><path class="cls-5" d="M122.3,1590.84l18.24,5.08,43.79,12.21,52.73,14.69,45.61,12.71,15.17,4.23c2.35.65,4.74,1.54,7.14,2a3,3,0,0,1,.32.09l-3.3-4.34-.48,10.61L300.21,1677l-1.94,42.72-2.37,52.11-2.59,57.08-2.6,57.39L288.27,1940l-2.06,45.4-1.48,32.64c-.23,5.12-.68,10.29-.7,15.42,0,.23,0,.46,0,.68l4.5-4.5H130.28c-2.13,0-4.37-.19-6.49,0h-.29l4.5,4.5V1604.67c0-5.8.1-11.61,0-17.41v-.76c0-5.79-9-5.8-9,0V2016c0,5.8-.1,11.61,0,17.41v.76a4.57,4.57,0,0,0,4.5,4.5H268.1c6.69,0,13.43.27,20.11,0h.29a4.59,4.59,0,0,0,4.5-4.5l.48-10.61,1.31-28.88,1.94-42.72,2.37-52.11,2.59-57.08,2.6-57.39,2.44-53.73,2.06-45.4,1.48-32.64c.23-5.13.61-10.28.7-15.42,0-.23,0-.45,0-.68a4.56,4.56,0,0,0-3.3-4.34l-18.24-5.08-43.79-12.21-52.73-14.69-45.61-12.71c-7.42-2.07-14.82-4.44-22.31-6.22l-.32-.09C119.11,1580.6,116.72,1589.28,122.3,1590.84Z" transform="translate(-118.95 -645.94)"/><g class="cls-2"><polygon class="cls-3" points="263.55 1026.56 240.54 1403.22 1246.55 1403.22 1252.86 1270.4 263.55 1026.56"/><path class="cls-3" d="M378,1672.5l-2.29,37.57-5.48,89.71-6.66,109-5.73,93.85-1.9,31.22c-.3,4.81-1.06,9.84-.9,14.66,0,.22,0,.44,0,.65a4.55,4.55,0,0,0,4.5,4.5h965.12c13.06,0,26.14.24,39.2,0h1.68a4.59,4.59,0,0,0,4.5-4.5l5.52-116,.79-16.76a4.53,4.53,0,0,0-3.3-4.34l-26.48-6.53-72-17.75-106.56-26.27-130-32-141.89-35L752.33,1759l-134-33-112.87-27.82L423.77,1678c-12.8-3.16-25.57-6.5-38.41-9.47l-1.66-.41c-5.63-1.39-8,7.29-2.4,8.68l26.48,6.53,72.05,17.75,106.56,26.27,130,32,141.88,35L1002,1829.83l134,33,112.88,27.82,81.7,20.14c12.69,3.13,25.52,7.21,38.41,9.47.55.1,1.11.27,1.66.41l-3.31-4.34-5.51,116.05-.8,16.76,4.5-4.5H400.38c-12.95,0-26.28-.92-39.2,0-.55,0-1.12,0-1.68,0l4.5,4.5,2.29-37.57,5.48-89.71,6.66-109,5.73-93.85,1.9-31.22c.3-4.81,1.06-9.84.9-14.66,0-.22,0-.44,0-.65C387.35,1666.72,378.35,1666.74,378,1672.5Z" transform="translate(-118.95 -645.94)"/></g><polygon class="cls-4" points="263.55 1011.56 240.54 1388.22 1246.55 1388.22 1252.86 1255.4 263.55 1011.56"/><path class="cls-5" d="M378,1657.5l-2.29,37.57-5.48,89.71-6.66,109-5.73,93.85-1.9,31.22c-.3,4.81-1.06,9.84-.9,14.66,0,.22,0,.44,0,.65a4.55,4.55,0,0,0,4.5,4.5h965.12c13.06,0,26.14.24,39.2,0h1.68a4.59,4.59,0,0,0,4.5-4.5l5.52-116.05.79-16.76a4.53,4.53,0,0,0-3.3-4.34l-26.48-6.53-72-17.75-106.56-26.27-130-32-141.89-35L752.33,1744l-134-33-112.87-27.82L423.77,1663c-12.8-3.16-25.57-6.5-38.41-9.47l-1.66-.41c-5.63-1.39-8,7.29-2.4,8.68l26.48,6.53,72.05,17.75,106.56,26.27,130,32,141.88,35L1002,1814.83l134,33,112.88,27.82,81.7,20.14c12.69,3.13,25.52,7.21,38.41,9.47.55.1,1.11.27,1.66.41l-3.31-4.34-5.51,116.05-.8,16.76,4.5-4.5H400.38c-12.95,0-26.28-.92-39.2,0-.55,0-1.12,0-1.68,0l4.5,4.5,2.29-37.57,5.48-89.71,6.66-109,5.73-93.85,1.9-31.22c.3-4.81,1.06-9.84.9-14.66,0-.22,0-.44,0-.65C387.35,1651.72,378.35,1651.74,378,1657.5Z" transform="translate(-118.95 -645.94)"/><g class="cls-2"><path class="cls-3" d="M433,665.5H942.2l-7.86,217.43-98.88-7.1s18.71,43.22-95.05,40.17-319.18-18.85-319.18-18.85Z" transform="translate(-118.95 -645.94)"/><path class="cls-3" d="M433,670H921.53c6.58,0,13.25.32,19.82,0h.85l-4.5-4.5-.78,21.66-1.88,52-2.27,62.62-2,54.37L930.16,874c-.1,2.81-.48,5.76-.31,8.56,0,.12,0,.24,0,.37l4.5-4.5L901,876l-53.23-3.82-12.28-.88c-3.78-.27-5.1,3.94-3.88,6.77-1-2.36,0,.35.19,1,.07.34.13.68.2,1,.3,1.47-.06-1.17,0,.23a27.68,27.68,0,0,1,.07,3c0,.61-.44,2.39,0,.58-.15.63-.21,1.27-.36,1.9s-.32,1.22-.52,1.82c-.1.28-.22.56-.31.84-.29.91.55-1-.1.22a33.9,33.9,0,0,1-2.38,4c-.49.71.72-.86.15-.2l-.44.54c-.26.29-.52.6-.79.89-.69.74-1.42,1.45-2.18,2.13-.41.36-.83.7-1.25,1-.74.61.64-.48.13-.1l-.59.44c-1,.71-2,1.4-3.09,2s-2.16,1.24-3.27,1.8c-.66.33-1.32.65-2,.95l-.69.32a5.38,5.38,0,0,1-.72.31,105.38,105.38,0,0,1-21.6,5.87c-21.52,3.72-43.56,3-65.29,2.31-41.84-1.39-83.65-3.68-125.43-6.18q-59.5-3.55-118.95-7.79-20.3-1.44-40.59-2.93c-6.56-.48-13.19-1.32-19.77-1.48l-.83-.06,4.5,4.5,1.18-23.07,2.81-55.39L433.11,752,436.05,694c.47-9.34,1.45-18.8,1.43-28.15,0-.13,0-.26,0-.39.29-5.79-8.71-5.77-9,0l-1.17,23.07L424.51,744l-3.38,66.72-2.95,57.93c-.47,9.33-1.44,18.79-1.43,28.14,0,.13,0,.27,0,.4-.13,2.56,2.18,4.32,4.5,4.5q25.65,2,51.3,3.77,58.7,4.19,117.43,7.81c42.91,2.62,85.85,5,128.82,6.58,22.39.81,44.92,1.77,67.22-1.1,14.06-1.81,29.36-4.68,41.26-12.94C837,899,844.12,887.15,840,875.12c-.18-.53-.41-1-.63-1.56l-3.89,6.77,33.37,2.39,53.23,3.82,12.28.89c2.49.17,4.41-2.21,4.5-4.5l.78-21.66,1.88-52,2.27-62.63,2-54.37c.32-8.76,1.09-17.64,1-26.41,0-.12,0-.25,0-.37a4.55,4.55,0,0,0-4.5-4.5H453.67c-6.6,0-13.21-.13-19.81,0H433C427.21,661,427.2,670,433,670Z" transform="translate(-118.95 -645.94)"/></g><path class="cls-4" d="M433,650.5H942.2l-7.86,217.43-98.88-7.1s18.71,43.22-95.05,40.17-319.18-18.85-319.18-18.85Z" transform="translate(-118.95 -645.94)"/><path class="cls-5" d="M433,655H921.53c6.58,0,13.25.32,19.82,0h.85l-4.5-4.5-.78,21.66-1.88,52-2.27,62.62-2,54.37L930.16,859c-.1,2.81-.48,5.76-.31,8.56,0,.12,0,.24,0,.37l4.5-4.5L901,861l-53.23-3.82-12.28-.88c-3.78-.27-5.1,3.94-3.88,6.77-1-2.36,0,.35.19,1,.07.34.13.68.2,1,.3,1.47-.06-1.17,0,.23a27.68,27.68,0,0,1,.07,3c0,.61-.44,2.39,0,.58-.15.63-.21,1.27-.36,1.9s-.32,1.22-.52,1.82c-.1.28-.22.56-.31.84-.29.91.55-1-.1.22a33.9,33.9,0,0,1-2.38,4c-.49.71.72-.86.15-.2l-.44.54c-.26.29-.52.6-.79.89-.69.74-1.42,1.45-2.18,2.13-.41.36-.83.7-1.25,1-.74.61.64-.48.13-.1l-.59.44c-1,.71-2,1.4-3.09,2s-2.16,1.24-3.27,1.8c-.66.33-1.32.65-2,.95l-.69.32a5.38,5.38,0,0,1-.72.31,105.38,105.38,0,0,1-21.6,5.87c-21.52,3.72-43.56,3-65.29,2.31-41.84-1.39-83.65-3.68-125.43-6.18q-59.5-3.55-118.95-7.79-20.3-1.44-40.59-2.93c-6.56-.48-13.19-1.32-19.77-1.48l-.83-.06,4.5,4.5,1.18-23.07,2.81-55.39L433.11,737,436.05,679c.47-9.34,1.45-18.8,1.43-28.15,0-.13,0-.26,0-.39.29-5.79-8.71-5.77-9,0l-1.17,23.07L424.51,729l-3.38,66.72-2.95,57.93c-.47,9.33-1.44,18.79-1.43,28.14,0,.13,0,.27,0,.4-.13,2.56,2.18,4.32,4.5,4.5q25.65,2,51.3,3.77,58.7,4.19,117.43,7.81c42.91,2.62,85.85,5,128.82,6.58,22.39.81,44.92,1.77,67.22-1.1,14.06-1.81,29.36-4.68,41.26-12.94C837,884,844.12,872.15,840,860.12c-.18-.53-.41-1-.63-1.56l-3.89,6.77,33.37,2.39,53.23,3.82,12.28.89c2.49.17,4.41-2.21,4.5-4.5l.78-21.66,1.88-52,2.27-62.63,2-54.37c.32-8.76,1.09-17.64,1-26.41,0-.12,0-.25,0-.37a4.55,4.55,0,0,0-4.5-4.5H453.67c-6.6,0-13.21-.13-19.81,0H433C427.21,646,427.2,655,433,655Z" transform="translate(-118.95 -645.94)"/><g class="cls-2"><polygon class="cls-3" points="867.23 20.06 856.36 237.91 1322.05 257.85 1338.33 20.06 867.23 20.06"/><path class="cls-3" d="M981.68,666l-1.08,21.65-2.59,52-3.14,62.92L972.15,857c-.44,8.79-1.32,17.68-1.32,26.49,0,.12,0,.25,0,.38a4.58,4.58,0,0,0,4.5,4.5l12.51.53,33.88,1.45,50.06,2.15,61.3,2.62L1200,898l67.53,2.89,63,2.7,53.23,2.28,38.41,1.64c6,.26,12.08.66,18.11.78l.78,0c2.55.11,4.34-2.16,4.5-4.5l1.62-23.69,3.9-56.89,4.69-68.54,4.07-59.29,1.35-19.73c.21-3.06.59-6.17.63-9.24,0-.13,0-.27,0-.41.17-2.43-2.2-4.5-4.5-4.5h-452c-6.11,0-12.23-.12-18.34,0h-.79c-5.79,0-5.8,9,0,9h452c6.09,0,12.25.28,18.34,0h.79l-4.5-4.5-1.62,23.69-3.9,56.89-4.7,68.54-4.06,59.28-1.35,19.74c-.21,3-.68,6.19-.63,9.24,0,.13,0,.27,0,.41l4.5-4.5-12.51-.54-33.88-1.45-50.06-2.14-61.3-2.62-66.91-2.87-67.53-2.89-63-2.69-53.23-2.28-38.41-1.64c-6-.26-12.09-.77-18.11-.78l-.78,0,4.5,4.5,1.08-21.65,2.6-52,3.14-62.92,2.71-54.42c.44-8.79,1.32-17.69,1.32-26.49,0-.13,0-.25,0-.38C991,660.21,982,660.23,981.68,666Z" transform="translate(-118.95 -645.94)"/></g><polygon class="cls-4" points="867.23 5.06 856.36 222.91 1322.05 242.84 1338.33 5.06 867.23 5.06"/><path class="cls-5" d="M981.68,651l-1.08,21.65-2.59,52-3.14,62.92L972.15,842c-.44,8.79-1.32,17.68-1.32,26.49,0,.12,0,.25,0,.38a4.58,4.58,0,0,0,4.5,4.5l12.51.53,33.88,1.45,50.06,2.15,61.3,2.62L1200,883l67.53,2.89,63,2.7,53.23,2.28,38.41,1.64c6,.26,12.08.66,18.11.78l.78,0c2.55.11,4.34-2.16,4.5-4.5l1.62-23.69,3.9-56.89,4.69-68.54,4.07-59.29,1.35-19.73c.21-3.06.59-6.17.63-9.24,0-.13,0-.27,0-.41.17-2.43-2.2-4.5-4.5-4.5h-452c-6.11,0-12.23-.12-18.34,0h-.79c-5.79,0-5.8,9,0,9h452c6.09,0,12.25.28,18.34,0h.79l-4.5-4.5-1.62,23.69-3.9,56.89-4.7,68.54-4.06,59.28-1.35,19.74c-.21,3-.68,6.19-.63,9.24,0,.13,0,.27,0,.41l4.5-4.5-12.51-.54-33.88-1.45-50.06-2.14-61.3-2.62-66.91-2.87-67.53-2.89-63-2.69-53.23-2.28-38.41-1.64c-6-.26-12.09-.77-18.11-.78l-.78,0,4.5,4.5,1.08-21.65,2.6-52,3.14-62.92,2.71-54.42c.44-8.79,1.32-17.69,1.32-26.49,0-.13,0-.25,0-.38C991,645.21,982,645.23,981.68,651Z" transform="translate(-118.95 -645.94)"/><g class="cls-2"><polygon class="cls-3" points="1411.13 19.56 1687.9 20.06 1687.9 246.44 1393.11 226.17 1411.13 19.56"/><path class="cls-3" d="M1530.08,670h7.45l20.06,0,29.89.05,36.2.07,39.93.07,40.16.07,37.45.07,31.64.06,22.76,0c3.59,0,7.19.12,10.78,0h.46l-4.5-4.5V883.16c0,2.94-.11,5.91,0,8.84v.38l4.5-4.5-7.9-.54-21.49-1.48-31.78-2.18L1707.06,881l-42.31-2.91-42.84-2.94-40-2.75-33.75-2.32L1524,868.44c-3.82-.26-7.65-.62-11.47-.79l-.5,0,4.5,4.5.48-5.52,1.31-15,1.93-22.2,2.38-27.23,2.58-29.69,2.62-30,2.43-28,2.06-23.62,1.49-17c.23-2.69.57-5.39.7-8.09l0-.34c.21-2.35-2.22-4.6-4.5-4.5a4.62,4.62,0,0,0-4.5,4.5l-.48,5.51-1.31,15-1.93,22.2-2.38,27.23-2.59,29.69-2.61,30-2.44,27.95-2,23.62-1.49,17c-.23,2.69-.57,5.4-.7,8.1l0,.34c-.22,2.54,2.25,4.34,4.5,4.5l7.9.54,21.49,1.48,31.78,2.18,38.63,2.66,42.3,2.91,42.85,2.94,40,2.75,33.74,2.32,24.18,1.66c3.82.26,7.65.61,11.47.79l.5,0c2.43.17,4.5-2.19,4.5-4.5V675.22c0-3,.06-5.9,0-8.84V666a4.56,4.56,0,0,0-4.5-4.5h-7.45l-20.07,0-29.88-.05-36.2-.07-39.93-.07-40.16-.07-37.45-.07-31.64-.06-22.76,0c-3.59,0-7.19-.07-10.78,0h-.46a4.5,4.5,0,0,0,0,9Z" transform="translate(-118.95 -645.94)"/></g><polygon class="cls-4" points="1411.13 4.56 1687.9 5.06 1687.9 231.44 1393.11 211.17 1411.13 4.56"/><path class="cls-5" d="M1530.08,655h7.45l20.06,0,29.89.05,36.2.07,39.93.07,40.16.07,37.45.07,31.64.06,22.76,0c3.59,0,7.19.12,10.78,0h.46l-4.5-4.5V868.16c0,2.94-.11,5.91,0,8.84v.38l4.5-4.5-7.9-.54-21.49-1.48-31.78-2.18L1707.06,866l-42.31-2.91-42.84-2.94-40-2.75-33.75-2.32L1524,853.44c-3.82-.26-7.65-.62-11.47-.79l-.5,0,4.5,4.5.48-5.52,1.31-15,1.93-22.2,2.38-27.23,2.58-29.69,2.62-30,2.43-28,2.06-23.62,1.49-17c.23-2.69.57-5.39.7-8.09l0-.34c.21-2.35-2.22-4.6-4.5-4.5a4.62,4.62,0,0,0-4.5,4.5l-.48,5.51-1.31,15-1.93,22.2-2.38,27.23-2.59,29.69-2.61,30-2.44,27.95-2,23.62-1.49,17c-.23,2.69-.57,5.4-.7,8.1l0,.34c-.22,2.54,2.25,4.34,4.5,4.5l7.9.54,21.49,1.48,31.78,2.18,38.63,2.66,42.3,2.91,42.85,2.94,40,2.75,33.74,2.32,24.18,1.66c3.82.26,7.65.61,11.47.79l.5,0c2.43.17,4.5-2.19,4.5-4.5V660.22c0-3,.06-5.9,0-8.84V651a4.56,4.56,0,0,0-4.5-4.5h-7.45l-20.07,0-29.88-.05-36.2-.07-39.93-.07-40.16-.07-37.45-.07-31.64-.06-22.76,0c-3.59,0-7.19-.07-10.78,0h-.46a4.5,4.5,0,0,0,0,9Z" transform="translate(-118.95 -645.94)"/><g class="cls-2"><polygon class="cls-3" points="1393.11 261.85 1687.9 282.46 1687.9 675.68 1361.47 665.24 1393.11 261.85"/><path class="cls-3" d="M1512.07,912.29l7.86.55,21.51,1.5,31.69,2.22,38.64,2.7,42.33,3,42.94,3,39.85,2.78,33.68,2.36,24.33,1.7c3.81.27,7.65.73,11.47.8l.49,0-4.5-4.5v377.25c0,5.09-.21,10.22,0,15.3,0,.22,0,.44,0,.66l4.5-4.5-8.71-.28-23.72-.76-35.25-1.12-42.83-1.37-46.92-1.5-47.35-1.52-44.16-1.41L1520.6,1308l-26.86-.86c-4.24-.14-8.53-.48-12.77-.41a4.87,4.87,0,0,1-.54,0l4.5,4.5.85-10.82,2.3-29.32,3.41-43.51,4.15-52.9,4.54-57.93,4.6-58.67,4.28-54.52,3.63-46.23,2.59-33.12c.41-5.22,1-10.46,1.23-15.69l.06-.68c.19-2.43-2.21-4.5-4.5-4.5a4.59,4.59,0,0,0-4.5,4.5l-.85,10.82-2.3,29.33L1501,991.45l-4.15,52.89-4.55,57.93-4.6,58.68-4.27,54.52-3.63,46.22-2.6,33.12c-.41,5.22-1,10.46-1.23,15.7,0,.22,0,.45,0,.67-.19,2.49,2.22,4.43,4.5,4.5l8.71.28,23.72.76,35.25,1.13,42.83,1.37,46.92,1.5,47.35,1.51,44.16,1.41,37.32,1.2,26.86.85c4.25.14,8.52.4,12.77.41l.54,0a4.55,4.55,0,0,0,4.5-4.5V944.37c0-5.1.1-10.21,0-15.3v-.66a4.6,4.6,0,0,0-4.5-4.5l-7.86-.55-21.52-1.51-31.68-2.21-38.65-2.71-42.33-3-42.93-3L1582,908.18l-33.68-2.35L1524,904.12c-3.81-.26-7.64-.68-11.46-.8l-.49,0c-2.43-.17-4.5,2.19-4.5,4.5A4.58,4.58,0,0,0,1512.07,912.29Z" transform="translate(-118.95 -645.94)"/></g><polygon class="cls-4" points="1393.11 246.84 1687.9 267.46 1687.9 660.68 1361.47 650.24 1393.11 246.84"/><path class="cls-5" d="M1512.07,897.29l7.86.55,21.51,1.5,31.69,2.22,38.64,2.7,42.33,3,42.94,3,39.85,2.78,33.68,2.36,24.33,1.7c3.81.27,7.65.73,11.47.8l.49,0-4.5-4.5v377.25c0,5.09-.21,10.22,0,15.3,0,.22,0,.44,0,.66l4.5-4.5-8.71-.28-23.72-.76-35.25-1.12-42.83-1.37-46.92-1.5-47.35-1.52-44.16-1.41L1520.6,1293l-26.86-.86c-4.24-.14-8.53-.48-12.77-.41a4.87,4.87,0,0,1-.54,0l4.5,4.5.85-10.82,2.3-29.32,3.41-43.51,4.15-52.9,4.54-57.93,4.6-58.67,4.28-54.52,3.63-46.23,2.59-33.12c.41-5.22,1-10.46,1.23-15.69l.06-.68c.19-2.43-2.21-4.5-4.5-4.5a4.59,4.59,0,0,0-4.5,4.5l-.85,10.82-2.3,29.33L1501,976.45l-4.15,52.89-4.55,57.93-4.6,58.68-4.27,54.52-3.63,46.22-2.6,33.12c-.41,5.22-1,10.46-1.23,15.7,0,.22,0,.45,0,.67-.19,2.49,2.22,4.43,4.5,4.5l8.71.28,23.72.76,35.25,1.13,42.83,1.37,46.92,1.5,47.35,1.51,44.16,1.41,37.32,1.2,26.86.85c4.25.14,8.52.4,12.77.41l.54,0a4.55,4.55,0,0,0,4.5-4.5V929.37c0-5.1.1-10.21,0-15.3v-.66a4.6,4.6,0,0,0-4.5-4.5l-7.86-.55-21.52-1.51-31.68-2.21-38.65-2.71-42.33-3-42.93-3L1582,893.18l-33.68-2.35L1524,889.12c-3.81-.26-7.64-.68-11.46-.8l-.49,0c-2.43-.17-4.5,2.19-4.5,4.5A4.58,4.58,0,0,0,1512.07,897.29Z" transform="translate(-118.95 -645.94)"/><g class="cls-2"><path class="cls-3" d="M1806.86,1365.54l-326.43-11.39L1441,1869.71a585.31,585.31,0,0,0,127.18,8.31c63.09-2.9,101-15.28,177.47-13,26,.77,47.26,3,61.21,4.7Z" transform="translate(-118.95 -645.94)"/><path class="cls-3" d="M1806.86,1361l-32.56-1.13-78.14-2.73-94-3.28-81.65-2.85c-13.16-.45-26.42-1.47-39.59-1.38l-.53,0c-2.57-.09-4.32,2.15-4.5,4.5l-1.06,13.86-2.86,37.38-4.25,55.64-5.18,67.66-5.67,74.11-5.72,74.8-5.33,69.75-4.52,59.14-3.23,42.23c-.52,6.7-1.23,13.43-1.54,20.14,0,.29,0,.57-.07.85a4.49,4.49,0,0,0,3.3,4.34,593.86,593.86,0,0,0,144.86,7.47c22-1.65,43.89-4.67,65.8-7.28a659,659,0,0,1,70.74-5,640.31,640.31,0,0,1,85.66,5c2.42.3,4.5-2.3,4.5-4.5V1365.54c0-5.79-9-5.8-9,0v504.17l4.5-4.5a632,632,0,0,0-148.36-.9c-21.48,2.41-42.88,5.5-64.42,7.43a575.5,575.5,0,0,1-63.38,2.24,594.29,594.29,0,0,1-88.5-8.61l3.3,4.34,1.06-13.85,2.86-37.38,4.25-55.64,5.18-67.66,5.67-74.11,5.72-74.8,5.33-69.75,4.52-59.14,3.23-42.23c.52-6.69,1.31-13.43,1.54-20.15,0-.28.05-.56.07-.85l-4.5,4.5,32.55,1.14,78.15,2.73,94,3.28,81.65,2.85c13.16.45,26.42,1.47,39.59,1.38h.53C1812.65,1370.25,1812.64,1361.25,1806.86,1361Z" transform="translate(-118.95 -645.94)"/></g><path class="cls-4" d="M1806.86,1350.54l-326.43-11.39L1441,1854.71a585.31,585.31,0,0,0,127.18,8.31c63.09-2.9,101-15.28,177.47-13,26,.77,47.26,3,61.21,4.7Z" transform="translate(-118.95 -645.94)"/><path class="cls-5" d="M1806.86,1346l-32.56-1.13-78.14-2.73-94-3.28-81.65-2.85c-13.16-.45-26.42-1.47-39.59-1.38l-.53,0c-2.57-.09-4.32,2.15-4.5,4.5l-1.06,13.86-2.86,37.38-4.25,55.64-5.18,67.66-5.67,74.11-5.72,74.8-5.33,69.75-4.52,59.14-3.23,42.23c-.52,6.7-1.23,13.43-1.54,20.14,0,.29,0,.57-.07.85a4.49,4.49,0,0,0,3.3,4.34,593.86,593.86,0,0,0,144.86,7.47c22-1.65,43.89-4.67,65.8-7.28a659,659,0,0,1,70.74-5,640.31,640.31,0,0,1,85.66,5c2.42.3,4.5-2.3,4.5-4.5V1350.54c0-5.79-9-5.8-9,0v504.17l4.5-4.5a632,632,0,0,0-148.36-.9c-21.48,2.41-42.88,5.5-64.42,7.43a575.5,575.5,0,0,1-63.38,2.24,594.29,594.29,0,0,1-88.5-8.61l3.3,4.34,1.06-13.85,2.86-37.38,4.25-55.64,5.18-67.66,5.67-74.11,5.72-74.8,5.33-69.75,4.52-59.14,3.23-42.23c.52-6.69,1.31-13.43,1.54-20.15,0-.28.05-.56.07-.85l-4.5,4.5,32.55,1.14,78.15,2.73,94,3.28,81.65,2.85c13.16.45,26.42,1.47,39.59,1.38h.53C1812.65,1355.25,1812.64,1346.25,1806.86,1346Z" transform="translate(-118.95 -645.94)"/><g class="cls-2"><path class="cls-3" d="M1434.31,2048.9l6.69-121.61c48.87,11.11,88.23,12.35,114.31,11.63,68.23-1.9,103.34-18.89,180.94-17.63a520.71,520.71,0,0,1,70.61,6V2048.9Z" transform="translate(-118.95 -645.94)"/><path class="cls-3" d="M1438.81,2048.9l2.27-41.24,3.59-65.3.83-15.07-5.7,4.34a480,480,0,0,0,80.1,11.32,433.9,433.9,0,0,0,64.69-1.34c22.15-2.13,44-6.07,66-9.47a507.7,507.7,0,0,1,72.62-6.39q21.81-.21,43.58,1.45,9.17.69,18.32,1.7c5.14.57,10,1.19,14.41,1.82,2,.29,4.1.6,6.15.91l-3.3-4.34V2048.9l4.5-4.5H1449.43c-4.82,0-9.66-.08-14.48,0h-.64c-5.79,0-5.8,9,0,9h357.43c4.82,0,9.66.08,14.49,0h.63a4.57,4.57,0,0,0,4.5-4.5V1927.29c0-1.78-1.39-4-3.3-4.34a527.73,527.73,0,0,0-72.54-6.17,494.51,494.51,0,0,0-77,5.14c-21.39,3-43,7.17-64,9.63a437.15,437.15,0,0,1-65.61,2.79,454.64,454.64,0,0,1-75.62-9q-5.57-1.12-11.08-2.39a4.58,4.58,0,0,0-5.7,4.34l-2.27,41.25-3.59,65.3-.83,15.06a4.5,4.5,0,0,0,9,0Z" transform="translate(-118.95 -645.94)"/></g><path class="cls-4" d="M1434.31,2033.9l6.69-121.61c48.87,11.11,88.23,12.35,114.31,11.63,68.23-1.9,103.34-18.89,180.94-17.63a520.71,520.71,0,0,1,70.61,6V2033.9Z" transform="translate(-118.95 -645.94)"/><path class="cls-5" d="M1438.81,2033.9l2.27-41.24,3.59-65.3.83-15.07-5.7,4.34a480,480,0,0,0,80.1,11.32,433.9,433.9,0,0,0,64.69-1.34c22.15-2.13,44-6.07,66-9.47a507.7,507.7,0,0,1,72.62-6.39q21.81-.21,43.58,1.45,9.17.69,18.32,1.7c5.14.57,10,1.19,14.41,1.82,2,.29,4.1.6,6.15.91l-3.3-4.34V2033.9l4.5-4.5H1449.43c-4.82,0-9.66-.08-14.48,0h-.64c-5.79,0-5.8,9,0,9h357.43c4.82,0,9.66.08,14.49,0h.63a4.57,4.57,0,0,0,4.5-4.5V1912.29c0-1.78-1.39-4-3.3-4.34a527.73,527.73,0,0,0-72.54-6.17,494.51,494.51,0,0,0-77,5.14c-21.39,3-43,7.17-64,9.63a437.15,437.15,0,0,1-65.61,2.79,454.64,454.64,0,0,1-75.62-9q-5.57-1.12-11.08-2.39a4.58,4.58,0,0,0-5.7,4.34l-2.27,41.25-3.59,65.3-.83,15.06a4.5,4.5,0,0,0,9,0Z" transform="translate(-118.95 -645.94)"/><circle class="cls-6" cx="1121.05" cy="333.06" r="50"/><path class="cls-7" d="M1287,979a47,47,0,0,1-30.73,44.12,46.61,46.61,0,0,1-14.51,2.85,45.74,45.74,0,0,1-14.69-1.77,47.09,47.09,0,0,1-23.49-15.47c-12.48-15.08-14-37.38-3.71-54.2a47.27,47.27,0,0,1,20.89-18.44,49.77,49.77,0,0,1,13.68-3.78,48.32,48.32,0,0,1,14.71.57,47,47,0,0,1,24.88,13.7,46.07,46.07,0,0,1,8,11.4,47.6,47.6,0,0,1,4.43,13.88A50.6,50.6,0,0,1,1287,979c0,3.86,6,3.87,6,0a53.07,53.07,0,0,0-9.77-30.65,54,54,0,0,0-25.37-19.26,53,53,0,1,0-7.11,101.81c21.19-4.28,38.3-22.1,41.57-43.5a57.55,57.55,0,0,0,.68-8.4C1293,975.14,1287,975.13,1287,979Z" transform="translate(-118.95 -645.94)"/><path class="cls-7" d="M418,1619.5a84.48,84.48,0,0,1-107.77,81.25A82.5,82.5,0,0,1,287,1690a77.26,77.26,0,0,1-9.76-7.52,88.61,88.61,0,0,1-9.05-9.43A84,84,0,0,1,261,1663q-1.69-2.84-3.18-5.77c-.95-1.9-1.89-3.94-2.57-5.62a87.2,87.2,0,0,1-4-12.42,79.3,79.3,0,0,1-2.05-13,84.35,84.35,0,0,1,2.13-26.66,82.62,82.62,0,0,1,9.83-23.76,83.93,83.93,0,0,1,16.22-19.45,84.23,84.23,0,0,1,72.78-19.62,84.64,84.64,0,0,1,66.84,70,88.36,88.36,0,0,1,.95,12.86c0,3.86,6,3.87,6,0a90.68,90.68,0,0,0-16.64-52.29,90.49,90.49,0,1,0-55.55,140.93,90.53,90.53,0,0,0,71.08-74.53A95.18,95.18,0,0,0,424,1619.5C424,1615.64,418,1615.63,418,1619.5Z" transform="translate(-118.95 -645.94)"/><circle class="cls-8" cx="393.75" cy="196.37" r="35.29"/><path class="cls-7" d="M545,842.32a31.21,31.21,0,0,1-1.62,10.13,32.14,32.14,0,0,1-4.42,8.69,32.82,32.82,0,0,1-15,11.47,32.35,32.35,0,0,1-36.27-9.87,31,31,0,0,1-2.66-3.8c-.42-.7-.82-1.42-1.19-2.15s-.82-1.73-.93-2a33.87,33.87,0,0,1-1.63-5.09,25.9,25.9,0,0,1-.75-4.77,32.18,32.18,0,0,1,4.59-19.39,32.53,32.53,0,0,1,14.32-12.69,34.77,34.77,0,0,1,9.29-2.61,33.93,33.93,0,0,1,10.22.37,32.58,32.58,0,0,1,25.71,26.8,36.94,36.94,0,0,1,.35,4.9c0,3.86,6,3.87,6,0a38.39,38.39,0,1,0-.51,6.15,42.28,42.28,0,0,0,.51-6.15C551,838.46,545,838.45,545,842.32Z" transform="translate(-118.95 -645.94)"/><rect class="cls-8" x="295" y="846" width="182" height="105" transform="translate(-653.86 581.54) rotate(-86.41)"/><path class="cls-7" d="M432.7,989.61,422.31,989l-25.09-1.58L367,985.49l-26.14-1.64-8.63-.55c-1.37-.08-2.76-.26-4.13-.25l-.17,0,3,3,.3-4.83L332,968l1.22-19.51,1.5-23.91,1.64-26.08,1.65-26.32,1.55-24.66,1.3-20.74.94-14.92c.14-2.37.4-4.75.44-7.12,0-.1,0-.2,0-.3l-3,3,10.39.65,25.09,1.58L405,811.51l26.14,1.64,8.63.55c1.37.08,2.76.26,4.13.25l.17,0-3-3-.3,4.83L440,829.05l-1.22,19.51-1.5,23.91-1.64,26.08L434,924.87l-1.55,24.66-1.3,20.74-.94,14.92c-.14,2.37-.37,4.75-.44,7.12,0,.1,0,.2,0,.3a3,3,0,0,0,6,0l.3-4.84.83-13.25,1.23-19.5,1.5-23.92L441.19,905l1.65-26.32,1.55-24.66,1.3-20.74.94-14.93c.15-2.37.38-4.74.45-7.11,0-.1,0-.2,0-.3a3,3,0,0,0-3-3l-10.39-.66-25.09-1.57-30.23-1.9-26.15-1.64c-4.23-.26-8.51-.75-12.75-.8h-.18a3.06,3.06,0,0,0-3,3l-.3,4.84-.83,13.25L333.94,842l-1.5,23.92L330.81,892l-1.65,26.32L327.61,943l-1.3,20.74-.94,14.93c-.15,2.37-.38,4.74-.45,7.11,0,.1,0,.2,0,.3a3,3,0,0,0,3,3l10.39.66,25.09,1.57,30.23,1.9,26.15,1.64c4.23.26,8.51.75,12.75.8h.18a3,3,0,0,0,0-6Z" transform="translate(-118.95 -645.94)"/></g></g></svg>