<svg xmlns="http://www.w3.org/2000/svg" viewBox="0 0 390.05 149.07"><defs><style>.cls-1{fill:#eb714a;}.cls-2{fill:#fff;}.cls-3{fill:#f5f2e9;}</style></defs><g id="圖層_2" data-name="圖層 2"><g id="圖層_1-2" data-name="圖層 1"><rect class="cls-1" width="307.04" height="112" rx="26.83"/><path class="cls-2" d="M56.23,33.35a78.42,78.42,0,0,1-4.42,9.74V76.55H44.75V53.89c-.67.82-1.34,1.54-2,2.26A48.49,48.49,0,0,0,39,48.61,48.52,48.52,0,0,0,49.46,31.19Zm16,12v4H84v6.34H72.26V60H84.6v6.48H72.26V76.6h-7.2V45.35h-.91a51.65,51.65,0,0,1-6.1,8.93,42.82,42.82,0,0,0-5.28-4.9c4.18-4.22,7.92-11.13,10-18l6.72,1.78a59.24,59.24,0,0,1-2.16,5.57H85.27v6.62Z"/><path class="cls-2" d="M98.94,54.47H118V76.41h-7V74.3h-5.52v2.3H98.94Zm35.86-3.41H105.33V32.82H134.8ZM105.52,61.14v6.48H111V61.14Zm22.13-21.65h-15.6v4.95h15.6Zm13.3,15V76.41h-7V74.3h-5.86v2.3h-6.67V54.47Zm-7,13.15V61.14h-5.86v6.48Z"/><path class="cls-2" d="M199.7,67.14V74.2H155.39V67.14h16.85V31.52h7.54V44.77h16.51v7.06H179.78V67.14Z"/><path class="cls-2" d="M252.16,61.43h5.76v5.23h-5.76V70.5c0,2.93-.52,4.47-2.64,5.33s-4.65.87-8,.87a24.1,24.1,0,0,0-1.54-5l-4.9,3.07a36.27,36.27,0,0,0-5.42-6.67l2.3-1.4h-6V61.43h19.53V59.94c-6.62.2-13,.34-17.95.44L227,55.29c3.31,0,7.49,0,12-.1V53.8H228.74V40.26H239V39H226.77V37.14C225.91,39.06,225,41,224,42.9V76.55h-6.63V53.22c-.77,1-1.58,1.88-2.35,2.74a47.36,47.36,0,0,0-3.65-7.35,49.15,49.15,0,0,0,10.42-17.42l6.57,2.06-.28.77H239V31.38h6.77V34h11.76V39H245.73v1.29h10.61V53.8h-1.49a28.31,28.31,0,0,1,3.79,4.61L253.7,61.1c-.24-.44-.53-.87-.86-1.4l-.68,0ZM235.07,45.3H239V43.91h-3.89ZM239,50.15V48.76h-3.89v1.39Zm6.48,16.51h-8.83A36.68,36.68,0,0,1,240.4,71c1.64,0,3.6,0,4.13,0s.91-.19.91-.72Zm.29-22.75V45.3h3.94V43.91Zm3.94,4.85h-3.94v1.39h3.94Zm-3.94,6.38,3.36,0c-.38-.44-.77-.82-1.15-1.21l.19-.09h-2.4Z"/><path d="M308.58,81c2.08-7.16,7-9.38,14.59-6.84,1.93-7.84,8.9-9.82,14.74-7a4.7,4.7,0,0,0,.29-.7c2-7.68,10.71-10.19,16.4-4.6,7.68,7.54,15.2,15.23,22.86,22.78,3.7,3.66,7.08,7.5,9.33,12.25a34.77,34.77,0,0,1-5.71,38c-4.57,5-9.49,9.49-16,11.86a34.18,34.18,0,0,1-28.3-1.62c-10.09-5.14-20.13-10.41-30.18-15.65a9.62,9.62,0,0,1,3.52-18.26l1.13-.1c-.45-.49-.74-.85-1.06-1.17q-15.36-15.37-30.73-30.73A9.63,9.63,0,1,1,293,65.51c4.81,4.75,9.57,9.56,14.36,14.34C307.67,80.21,308.06,80.54,308.58,81Z"/><path class="cls-3" d="M352.62,145.36c2.41-.36,4.85-.6,7.23-1.11,7.12-1.53,12.56-5.73,17.44-10.92,12.1-12.84,11.89-31.43-.57-43.9L364.07,76.77c-4.1-4.1-8.18-8.23-12.33-12.29a5.81,5.81,0,0,0-8.21-.09,5.73,5.73,0,0,0,.05,8.18c1.77,1.84,3.6,3.62,5.41,5.43,1.5,1.51,3.09,3,4.48,4.55a2.68,2.68,0,0,1,.46,2.13,1.92,1.92,0,0,1-1.48,1.15,3.33,3.33,0,0,1-2-1c-4.37-4.29-8.67-8.65-13-13-2.64-2.62-6.2-2.78-8.56-.45s-2.28,5.88.43,8.64l.68.67q5.25,5.25,10.5,10.5c1.11,1.11,1.2,2.25.26,3.06s-2,.63-2.94-.29l-3.95-4c-3.81-3.8-7.61-7.61-11.43-11.39a5.74,5.74,0,0,0-6.18-1.48,5.41,5.41,0,0,0-3.72,4.41,5.73,5.73,0,0,0,1.89,5.34l12,12c1.51,1.52,1.76,2.58.84,3.52s-2,.72-3.52-.76l-7.24-7.22q-13-13-26-26a5.83,5.83,0,0,0-6.56-1.63c-4.12,1.55-4.88,6.5-1.59,9.8l38.19,38.18c.87.87,1.7,1.76.82,3s-2.09.87-3.25.27c-1.69-.89-3.38-1.82-5.13-2.59a5.64,5.64,0,0,0-6.53,1.57,5.46,5.46,0,0,0-.42,6.8,9.08,9.08,0,0,0,3,2.47c9.8,5.16,19.63,10.24,29.45,15.35A33.54,33.54,0,0,0,352.62,145.36Z"/></g></g></svg>