<svg xmlns="http://www.w3.org/2000/svg" viewBox="0 0 283.46 72.85"><defs><style>.cls-1{fill:#3e3a39;}.cls-2{fill:#0f3675;}.cls-3{fill:#37a7ca;}.cls-4{fill:#ea5520;}.cls-5{fill:#d18f40;}</style></defs><g id="圖層_2" data-name="圖層 2"><g id="圖層_1-2" data-name="圖層 1"><path class="cls-1" d="M72.65,42a.24.24,0,0,1,.24-.24h2.6a11.11,11.11,0,0,1,1.59.22,4.52,4.52,0,0,1,1.45.68,3.31,3.31,0,0,1,.94,1.1,3.27,3.27,0,0,1,.33,1.49,3.56,3.56,0,0,1-.28,1.42,3.39,3.39,0,0,1-.83,1.16,4.17,4.17,0,0,1-1.34.77,8.23,8.23,0,0,1-1.59.27l-.47,0h-2.4a.24.24,0,0,1-.24-.24Zm1.75,5.93a.24.24,0,0,0,.24.24h.46a4,4,0,0,0,.48,0,3.17,3.17,0,0,0,.73-.16,2.36,2.36,0,0,0,.8-.56,2.65,2.65,0,0,0,.54-.91,3.6,3.6,0,0,0,.2-1.23,3.31,3.31,0,0,0-.19-1.11,2.61,2.61,0,0,0-.52-.89,2.41,2.41,0,0,0-.79-.59,3.07,3.07,0,0,0-.77-.19l-.48,0h-.46a.24.24,0,0,0-.24.24Z"/><path class="cls-1" d="M86.35,41.71a.24.24,0,0,1,.24.24v.13a.23.23,0,0,1-.24.23H83.24a.23.23,0,0,0-.23.24v1.88a.23.23,0,0,0,.23.24h2.5a.24.24,0,0,1,.24.24v.14a.23.23,0,0,1-.24.23h-2.5a.23.23,0,0,0-.23.24v2.36a.23.23,0,0,0,.23.24h3.11a.24.24,0,0,1,.24.24v.25a.24.24,0,0,1-.24.24H81.49a.23.23,0,0,1-.23-.24V42a.23.23,0,0,1,.23-.24Z"/><path class="cls-1" d="M88,42a.24.24,0,0,1,.24-.24h2.49a5.71,5.71,0,0,1,.88.12,2.89,2.89,0,0,1,.91.37,1.93,1.93,0,0,1,.61.63,1.67,1.67,0,0,1,.23.88,1.77,1.77,0,0,1-.22.88,2.05,2.05,0,0,1-.58.63,2.55,2.55,0,0,1-.82.37,3.69,3.69,0,0,1-.71.11l-.47,0H90a.24.24,0,0,0-.24.24v2.64a.24.24,0,0,1-.24.24H88.28a.24.24,0,0,1-.24-.24Zm1.76,2.89a.24.24,0,0,0,.24.24h.09l.48,0a.9.9,0,0,0,.28-.08,1.09,1.09,0,0,0,.37-.3,1,1,0,0,0,.22-.43,1.67,1.67,0,0,0,0-1.08,1.11,1.11,0,0,0-.26-.42,1.2,1.2,0,0,0-.4-.26,1,1,0,0,0-.24-.07l-.48,0h0a.24.24,0,0,0-.24.24Z"/><path class="cls-1" d="M97.15,41.55a.42.42,0,0,1,.34.22l3.14,6.86a.14.14,0,0,1-.13.22H99.18a.42.42,0,0,1-.34-.22l-.69-1.51a.41.41,0,0,0-.34-.22H95.52a.44.44,0,0,0-.35.21l-.73,1.52a.41.41,0,0,1-.34.22h-.72a.14.14,0,0,1-.13-.22l3.28-6.86a.42.42,0,0,1,.34-.22ZM95.71,46a.13.13,0,0,0,.13.21h1.68a.15.15,0,0,0,.14-.22l-.86-1.87c-.06-.12-.15-.12-.21,0Z"/><path class="cls-1" d="M101.62,42a.23.23,0,0,1,.23-.24h2.69a6.74,6.74,0,0,1,1,.13,2.7,2.7,0,0,1,.87.41,1.71,1.71,0,0,1,.52.62,1.64,1.64,0,0,1,.17.77,1.43,1.43,0,0,1-.12.58,1.45,1.45,0,0,1-.33.5,2.19,2.19,0,0,1-.52.41c-.2.11-.44.21-.44.21a.17.17,0,0,0-.08.27l2.26,3c.08.1,0,.19-.1.19h-1.42a.56.56,0,0,1-.38-.19l-2.12-2.85a.46.46,0,0,0-.3-.2c-.08,0-.15.11-.15.24v2.76a.24.24,0,0,1-.24.24h-1.28a.23.23,0,0,1-.23-.24Zm1.75,2.81a.22.22,0,0,0,.19.24l.43,0a1.53,1.53,0,0,0,.35-.07,1.59,1.59,0,0,0,.48-.26,1.27,1.27,0,0,0,.31-.41,1.23,1.23,0,0,0,.12-.55,1.46,1.46,0,0,0-.09-.52,1.52,1.52,0,0,0-.24-.41,1.18,1.18,0,0,0-.37-.26.76.76,0,0,0-.23-.08l-.48,0h-.24a.23.23,0,0,0-.23.24Z"/><path class="cls-1" d="M114.3,41.71a.24.24,0,0,1,.24.24v.13a.23.23,0,0,1-.24.23h-2a.24.24,0,0,0-.24.24v6.06a.24.24,0,0,1-.24.24h-1.27a.24.24,0,0,1-.24-.24V42.55a.24.24,0,0,0-.24-.24h-2a.23.23,0,0,1-.23-.23V42a.23.23,0,0,1,.23-.24Z"/><path class="cls-1" d="M115.79,42a.24.24,0,0,1,.24-.24h1.23a.43.43,0,0,1,.35.21l2.25,4.45c.06.12.15.12.21,0l2.23-4.45a.41.41,0,0,1,.34-.21h1.2a.23.23,0,0,1,.23.24v6.66a.23.23,0,0,1-.23.24h-1.28a.24.24,0,0,1-.24-.24V44.43c0-.13,0-.14-.1,0l-2.12,4.23a.45.45,0,0,1-.35.21h-.2a.43.43,0,0,1-.34-.21L117,44.35c-.06-.11-.11-.1-.11,0v4.23a.24.24,0,0,1-.24.24H116a.24.24,0,0,1-.24-.24Z"/><path class="cls-1" d="M130.92,41.71a.24.24,0,0,1,.24.24v.13a.23.23,0,0,1-.24.23h-3.1a.24.24,0,0,0-.24.24v1.88a.24.24,0,0,0,.24.24h2.5a.23.23,0,0,1,.23.24v.14a.23.23,0,0,1-.23.23h-2.5a.24.24,0,0,0-.24.24v2.36a.24.24,0,0,0,.24.24h3.1a.24.24,0,0,1,.24.24v.25a.24.24,0,0,1-.24.24h-4.85a.24.24,0,0,1-.24-.24V42a.24.24,0,0,1,.24-.24Z"/><path class="cls-1" d="M132.61,42a.24.24,0,0,1,.24-.24h.64a.6.6,0,0,1,.4.18l3.76,4.18c.08.1.15.07.15-.06V42a.24.24,0,0,1,.24-.24h.62a.23.23,0,0,1,.24.24v6.77a.24.24,0,0,1-.24.24h-.28a.59.59,0,0,1-.39-.18l-4.11-4.66c-.09-.1-.16-.07-.16.06v4.43a.24.24,0,0,1-.24.24h-.63a.24.24,0,0,1-.24-.24Z"/><path class="cls-1" d="M146.61,41.71a.24.24,0,0,1,.24.24v.13a.23.23,0,0,1-.24.23h-2a.24.24,0,0,0-.24.24v6.06a.24.24,0,0,1-.24.24h-1.27a.24.24,0,0,1-.24-.24V42.55a.24.24,0,0,0-.24-.24h-2a.23.23,0,0,1-.24-.23V42a.23.23,0,0,1,.24-.24Z"/><path class="cls-1" d="M154.7,49a4.44,4.44,0,0,1-1.11-.13,4.1,4.1,0,0,1-1-.36,4.29,4.29,0,0,1-.82-.57,3.49,3.49,0,0,1-.63-.76,3.61,3.61,0,0,1-.4-.92,3.65,3.65,0,0,1,0-2.07,3.41,3.41,0,0,1,.4-.89,3.34,3.34,0,0,1,.63-.73,3.84,3.84,0,0,1,.82-.56,4.54,4.54,0,0,1,1-.34,4.76,4.76,0,0,1,2.21,0,3.93,3.93,0,0,1,1,.35,3.8,3.8,0,0,1,.82.55,3.34,3.34,0,0,1,.63.73,3.11,3.11,0,0,1,.4.89,3.4,3.4,0,0,1,.15,1,3.74,3.74,0,0,1-.15,1.07,3.29,3.29,0,0,1-.4.92,3.22,3.22,0,0,1-.63.75,3.55,3.55,0,0,1-.82.57,4.39,4.39,0,0,1-1,.36A4.94,4.94,0,0,1,154.7,49Zm0-.61a1.78,1.78,0,0,0,.92-.24,2,2,0,0,0,.67-.66,3.22,3.22,0,0,0,.4-1,5.1,5.1,0,0,0,.14-1.27,4.8,4.8,0,0,0-.14-1.24,3,3,0,0,0-.4-1,2.26,2.26,0,0,0-.67-.64,2.05,2.05,0,0,0-1.85,0,2,2,0,0,0-.67.64,3,3,0,0,0-.41,1,5.28,5.28,0,0,0-.14,1.24,5.61,5.61,0,0,0,.14,1.27,3.23,3.23,0,0,0,.41,1,1.84,1.84,0,0,0,.67.66A1.76,1.76,0,0,0,154.7,48.4Z"/><path class="cls-1" d="M165,41.71a.23.23,0,0,1,.24.24v.13a.23.23,0,0,1-.24.23h-2.89a.24.24,0,0,0-.24.24v1.88a.24.24,0,0,0,.24.24h2.49a.24.24,0,0,1,.24.24v.14a.23.23,0,0,1-.24.23h-2.49a.24.24,0,0,0-.24.24v3.09a.24.24,0,0,1-.24.24H160.4a.24.24,0,0,1-.24-.24V42a.23.23,0,0,1,.24-.24Z"/><path class="cls-1" d="M177.6,41.71a.24.24,0,0,1,.24.24v.13a.23.23,0,0,1-.24.23h-3.11a.24.24,0,0,0-.24.24v1.88a.24.24,0,0,0,.24.24H177a.24.24,0,0,1,.24.24v.14a.23.23,0,0,1-.24.23h-2.5a.24.24,0,0,0-.24.24v2.36a.24.24,0,0,0,.24.24h3.11a.24.24,0,0,1,.24.24v.25a.24.24,0,0,1-.24.24h-4.86a.24.24,0,0,1-.24-.24V42a.24.24,0,0,1,.24-.24Z"/><path class="cls-1" d="M179.29,42a.24.24,0,0,1,.24-.24h2.59a11.18,11.18,0,0,1,1.6.22,4.37,4.37,0,0,1,1.44.68,3.19,3.19,0,0,1,.94,1.1,3.27,3.27,0,0,1,.34,1.49,3.57,3.57,0,0,1-.29,1.42,3.26,3.26,0,0,1-.83,1.16,4.06,4.06,0,0,1-1.34.77,8.17,8.17,0,0,1-1.58.27l-.48,0h-2.39a.24.24,0,0,1-.24-.24ZM181,47.88a.24.24,0,0,0,.24.24h.45a3.75,3.75,0,0,0,.48,0,3.31,3.31,0,0,0,.74-.16,2.32,2.32,0,0,0,.79-.56,2.65,2.65,0,0,0,.54-.91,3.6,3.6,0,0,0,.2-1.23,3.08,3.08,0,0,0-.19-1.11,2.59,2.59,0,0,0-.51-.89,2.45,2.45,0,0,0-.8-.59,3.07,3.07,0,0,0-.77-.19l-.48,0h-.45a.24.24,0,0,0-.24.24Z"/><path class="cls-1" d="M187.89,42a.24.24,0,0,1,.24-.24h1.28a.24.24,0,0,1,.24.24v4.11c0,.13,0,.34,0,.47a3.14,3.14,0,0,0,.11.55,2,2,0,0,0,.37.63,1.79,1.79,0,0,0,.58.43,1.88,1.88,0,0,0,.76.16,1.84,1.84,0,0,0,.76-.16,1.76,1.76,0,0,0,.94-1.06,2.35,2.35,0,0,0,.11-.55c0-.13,0-.34,0-.47V42a.24.24,0,0,1,.24-.24h.63a.24.24,0,0,1,.24.24v4.11a3.71,3.71,0,0,1,0,.47,3.82,3.82,0,0,1-.16.81,2.32,2.32,0,0,1-.59.87,2.92,2.92,0,0,1-1,.58,4.48,4.48,0,0,1-1.5.22,3.94,3.94,0,0,1-1.39-.22,2.87,2.87,0,0,1-1-.59,2.33,2.33,0,0,1-.61-.87,3.42,3.42,0,0,1-.19-.81c0-.13,0-.35,0-.48Z"/><path class="cls-1" d="M197.82,45.27A3.37,3.37,0,0,0,198,46.5a2.6,2.6,0,0,0,.56.89,2.34,2.34,0,0,0,.8.55,2.5,2.5,0,0,0,.94.18A1.82,1.82,0,0,0,201,48a2.42,2.42,0,0,0,.6-.35,3.12,3.12,0,0,0,.53-.5c.17-.2.33-.42.33-.42a.24.24,0,0,1,.34,0l.34.25a.24.24,0,0,1,.06.34,6.16,6.16,0,0,1-.43.54,4.13,4.13,0,0,1-.75.62,4,4,0,0,1-.91.43,3.24,3.24,0,0,1-1,.16,5.18,5.18,0,0,1-1.7-.27,4,4,0,0,1-1.33-.76,3.42,3.42,0,0,1-.88-1.18,3.47,3.47,0,0,1-.32-1.53,3.88,3.88,0,0,1,.13-1,4,4,0,0,1,.39-.9,3.44,3.44,0,0,1,.62-.75,4.07,4.07,0,0,1,.83-.57,4,4,0,0,1,1-.36,4.85,4.85,0,0,1,1.16-.13,4,4,0,0,1,1.13.15,3.18,3.18,0,0,1,.94.4,3.59,3.59,0,0,1,.74.61,6,6,0,0,1,.45.58.25.25,0,0,1-.06.33l-.35.25a.25.25,0,0,1-.34-.06s-.17-.22-.35-.41a3.78,3.78,0,0,0-.56-.5,2.59,2.59,0,0,0-.64-.33,1.8,1.8,0,0,0-.69-.13,2.32,2.32,0,0,0-.94.19,2.28,2.28,0,0,0-.78.54A2.72,2.72,0,0,0,198,44,3.61,3.61,0,0,0,197.82,45.27Z"/><path class="cls-1" d="M208,41.55a.41.41,0,0,1,.34.22l3.15,6.86a.15.15,0,0,1-.14.22H210a.39.39,0,0,1-.33-.22l-.7-1.51a.39.39,0,0,0-.34-.22h-2.29a.42.42,0,0,0-.34.21l-.73,1.52a.44.44,0,0,1-.35.22h-.71a.14.14,0,0,1-.14-.22l3.28-6.86a.42.42,0,0,1,.34-.22ZM206.51,46a.13.13,0,0,0,.13.21h1.68a.15.15,0,0,0,.14-.22l-.86-1.87c-.06-.12-.15-.12-.2,0Z"/><path class="cls-1" d="M217.64,41.71a.24.24,0,0,1,.24.24v.13a.23.23,0,0,1-.24.23h-2a.24.24,0,0,0-.24.24v6.06a.24.24,0,0,1-.24.24H213.9a.24.24,0,0,1-.24-.24V42.55a.24.24,0,0,0-.24-.24h-2a.23.23,0,0,1-.23-.23V42a.23.23,0,0,1,.23-.24Z"/><path class="cls-1" d="M219.21,42a.24.24,0,0,1,.24-.24h1.27A.24.24,0,0,1,221,42v6.66a.24.24,0,0,1-.24.24h-1.27a.24.24,0,0,1-.24-.24Z"/><path class="cls-1" d="M226.5,49a4.44,4.44,0,0,1-1.11-.13,4.1,4.1,0,0,1-1-.36,4.29,4.29,0,0,1-.82-.57,3.49,3.49,0,0,1-.63-.76,3.61,3.61,0,0,1-.4-.92,3.65,3.65,0,0,1,0-2.07,3.41,3.41,0,0,1,.4-.89,3.34,3.34,0,0,1,.63-.73,3.84,3.84,0,0,1,.82-.56,4.54,4.54,0,0,1,1-.34,4.76,4.76,0,0,1,2.21,0,3.93,3.93,0,0,1,1,.35,3.8,3.8,0,0,1,.82.55,3.34,3.34,0,0,1,.63.73,3.11,3.11,0,0,1,.4.89,3.4,3.4,0,0,1,.15,1,3.74,3.74,0,0,1-.15,1.07,3.29,3.29,0,0,1-.4.92,3.22,3.22,0,0,1-.63.75,3.55,3.55,0,0,1-.82.57,4.39,4.39,0,0,1-1,.36A4.94,4.94,0,0,1,226.5,49Zm0-.61a1.78,1.78,0,0,0,.92-.24,2,2,0,0,0,.67-.66,3.22,3.22,0,0,0,.4-1,5.1,5.1,0,0,0,.14-1.27,4.8,4.8,0,0,0-.14-1.24,3,3,0,0,0-.4-1,2.26,2.26,0,0,0-.67-.64,2.05,2.05,0,0,0-1.85,0,2,2,0,0,0-.67.64,3,3,0,0,0-.41,1,5.28,5.28,0,0,0-.14,1.24,5.61,5.61,0,0,0,.14,1.27,3.23,3.23,0,0,0,.41,1,1.84,1.84,0,0,0,.67.66A1.76,1.76,0,0,0,226.5,48.4Z"/><path class="cls-1" d="M232,42a.23.23,0,0,1,.24-.24h.64a.57.57,0,0,1,.39.18L237,46.07c.09.1.16.07.16-.06V42a.23.23,0,0,1,.24-.24H238a.24.24,0,0,1,.24.24v6.77A.24.24,0,0,1,238,49h-.28a.62.62,0,0,1-.4-.18l-4.11-4.66c-.08-.1-.15-.07-.15.06v4.43a.24.24,0,0,1-.24.24h-.63a.24.24,0,0,1-.24-.24Z"/><path class="cls-1" d="M78.61,54.57a.24.24,0,0,1,.24.24v.13a.24.24,0,0,1-.24.24h-2a.23.23,0,0,0-.23.24v6.06a.24.24,0,0,1-.24.24H74.86a.23.23,0,0,1-.23-.24V55.42a.24.24,0,0,0-.24-.24h-2a.24.24,0,0,1-.24-.24v-.13a.24.24,0,0,1,.24-.24Z"/><path class="cls-1" d="M82.5,54.42a.41.41,0,0,1,.34.22L86,61.5a.15.15,0,0,1-.14.22H84.53a.39.39,0,0,1-.33-.22L83.5,60a.38.38,0,0,0-.34-.21H80.87a.4.4,0,0,0-.34.21l-.74,1.52a.41.41,0,0,1-.34.22h-.71c-.14,0-.2-.1-.14-.22l3.28-6.87a.43.43,0,0,1,.34-.21Zm-1.44,4.46a.14.14,0,0,0,.13.22h1.68a.15.15,0,0,0,.14-.22L82.15,57c-.06-.12-.15-.12-.2,0Z"/><path class="cls-1" d="M87,54.81a.24.24,0,0,1,.24-.24h1.28a.23.23,0,0,1,.23.24v6.67a.23.23,0,0,1-.23.24H87.28a.24.24,0,0,1-.24-.24Z"/><path class="cls-1" d="M90.62,54.81a.24.24,0,0,1,.24-.24h2l.48,0a6.7,6.7,0,0,1,.89.11,3,3,0,0,1,.91.38,2,2,0,0,1,.61.63,1.67,1.67,0,0,1,.22.88,1.69,1.69,0,0,1-.22.88,2.05,2.05,0,0,1-.58.63,2.67,2.67,0,0,1-.82.37,4.85,4.85,0,0,1-.71.11l-.47,0h-.56a.23.23,0,0,0-.24.23v2.65a.23.23,0,0,1-.23.24H90.86a.24.24,0,0,1-.24-.24Zm1.76,2.9a.24.24,0,0,0,.24.24h.1l.47,0a1.07,1.07,0,0,0,.66-.38,1.59,1.59,0,0,0,.22-.43,1.7,1.7,0,0,0,.07-.51A1.48,1.48,0,0,0,94,56a1.11,1.11,0,0,0-.26-.42,1.16,1.16,0,0,0-.64-.33l-.47,0h0a.23.23,0,0,0-.24.23Z"/><path class="cls-1" d="M102.53,54.57a.24.24,0,0,1,.24.24v.13a.24.24,0,0,1-.24.24H99.42a.24.24,0,0,0-.24.24V57.3a.24.24,0,0,0,.24.24h2.5a.24.24,0,0,1,.24.24v.13a.24.24,0,0,1-.24.24h-2.5a.24.24,0,0,0-.24.24v2.36a.23.23,0,0,0,.24.23h3.11a.24.24,0,0,1,.24.24v.26a.24.24,0,0,1-.24.24H97.67a.24.24,0,0,1-.24-.24V54.81a.24.24,0,0,1,.24-.24Z"/><path class="cls-1" d="M104.29,54.81a.24.24,0,0,1,.24-.24h1.28a.24.24,0,0,1,.24.24v6.67a.24.24,0,0,1-.24.24h-1.28a.24.24,0,0,1-.24-.24Z"/><path class="cls-1" d="M112.4,58.14a3.28,3.28,0,0,0,.21,1.22,2.87,2.87,0,0,0,.56.9,2.5,2.5,0,0,0,1.75.73,1.82,1.82,0,0,0,.7-.13,2.61,2.61,0,0,0,.6-.35,3.18,3.18,0,0,0,.53-.51c.17-.19.33-.41.33-.41a.25.25,0,0,1,.34-.06l.34.26a.25.25,0,0,1,.06.34,5.27,5.27,0,0,1-.43.53,4.41,4.41,0,0,1-.75.62,3.65,3.65,0,0,1-.91.44,3.54,3.54,0,0,1-1,.16,5.18,5.18,0,0,1-1.7-.27,4.1,4.1,0,0,1-1.34-.76,3.69,3.69,0,0,1-.88-1.18,3.64,3.64,0,0,1-.31-1.53,3.88,3.88,0,0,1,.13-1,3.52,3.52,0,0,1,.39-.91,4,4,0,0,1,.62-.75,3.67,3.67,0,0,1,.83-.56,4.4,4.4,0,0,1,1-.37,5.43,5.43,0,0,1,1.16-.12,4.43,4.43,0,0,1,1.13.14,3.5,3.5,0,0,1,1.68,1,4.91,4.91,0,0,1,.45.58.25.25,0,0,1-.06.33l-.36.25a.24.24,0,0,1-.33-.06s-.17-.22-.35-.41a3.72,3.72,0,0,0-.56-.5,3.59,3.59,0,0,0-.64-.34,2,2,0,0,0-.69-.12,2.5,2.5,0,0,0-.94.18,2.36,2.36,0,0,0-.78.55,2.56,2.56,0,0,0-.54.89A3.6,3.6,0,0,0,112.4,58.14Z"/><path class="cls-1" d="M119.49,54.81a.23.23,0,0,1,.23-.24H121a.24.24,0,0,1,.24.24v6.67a.24.24,0,0,1-.24.24h-1.28a.23.23,0,0,1-.23-.24Z"/><path class="cls-1" d="M129,54.57a.24.24,0,0,1,.24.24v.13a.24.24,0,0,1-.24.24h-2a.24.24,0,0,0-.24.24v6.06a.24.24,0,0,1-.24.24h-1.27a.24.24,0,0,1-.24-.24V55.42a.24.24,0,0,0-.24-.24h-2a.24.24,0,0,1-.24-.24v-.13a.24.24,0,0,1,.24-.24Z"/><path class="cls-1" d="M131.23,54.57a.53.53,0,0,1,.38.2l2.07,2.83a.16.16,0,0,0,.28,0l1.93-2.82a.49.49,0,0,1,.37-.2H137c.13,0,.18.09.1.2l-2.51,3.66a.94.94,0,0,0-.13.43v2.62a.24.24,0,0,1-.24.24h-1.28a.24.24,0,0,1-.24-.24V59a.84.84,0,0,0-.14-.43l-2.75-3.77c-.08-.11,0-.2.09-.2Z"/><path class="cls-1" d="M145.24,58.47a.24.24,0,0,1,.24-.24H148a.24.24,0,0,1,.24.24v2.28a.41.41,0,0,1-.21.34s-.25.13-.48.23a6.19,6.19,0,0,1-.73.27,7.34,7.34,0,0,1-1.88.24,5.41,5.41,0,0,1-1.7-.26,4,4,0,0,1-1.34-.73A3.27,3.27,0,0,1,141,59.7a3.24,3.24,0,0,1-.32-1.47,4.07,4.07,0,0,1,.14-1.07,3.77,3.77,0,0,1,.41-.94,3.61,3.61,0,0,1,1.49-1.33,4.56,4.56,0,0,1,1-.37,5.52,5.52,0,0,1,1.17-.12,4.09,4.09,0,0,1,1,.14,4.8,4.8,0,0,1,.93.39,4.9,4.9,0,0,1,.77.56,5.38,5.38,0,0,1,.42.46.27.27,0,0,1,0,.35l-.37.34a.22.22,0,0,1-.32,0s-.17-.23-.33-.41a4.69,4.69,0,0,0-.53-.48,2.89,2.89,0,0,0-.6-.32,1.9,1.9,0,0,0-.68-.11,2.75,2.75,0,0,0-1,.19,2.5,2.5,0,0,0-.82.58,2.65,2.65,0,0,0-.54.93,3.66,3.66,0,0,0-.2,1.24,3.37,3.37,0,0,0,.21,1.23,2.62,2.62,0,0,0,.57.89,2.42,2.42,0,0,0,.85.56,3,3,0,0,0,1,.18,2.59,2.59,0,0,0,.63-.08,1.53,1.53,0,0,0,.33-.15.45.45,0,0,0,.21-.36V59.08a.24.24,0,0,0-.24-.24h-.74a.24.24,0,0,1-.24-.24Z"/><path class="cls-1" d="M153.67,61.88a4.94,4.94,0,0,1-1.1-.13,4.41,4.41,0,0,1-1-.37,3.55,3.55,0,0,1-.82-.57,3.22,3.22,0,0,1-.63-.75,3.8,3.8,0,0,1-.41-.92,4,4,0,0,1-.14-1,3.77,3.77,0,0,1,.14-1,3.44,3.44,0,0,1,.41-.89,3.39,3.39,0,0,1,.63-.74,4.2,4.2,0,0,1,.82-.55,4.38,4.38,0,0,1,1-.35,5.15,5.15,0,0,1,2.21,0,4.29,4.29,0,0,1,1,.35,4,4,0,0,1,.83.56,3.68,3.68,0,0,1,.63.73,3.64,3.64,0,0,1,.55,1.9,3.69,3.69,0,0,1-.15,1.07,3.53,3.53,0,0,1-.4.93,3.8,3.8,0,0,1-.63.75,4.07,4.07,0,0,1-.83.57,4.29,4.29,0,0,1-1,.35A4.44,4.44,0,0,1,153.67,61.88Zm0-.61a1.73,1.73,0,0,0,.92-.24,2,2,0,0,0,.67-.66,3.19,3.19,0,0,0,.41-1,5.52,5.52,0,0,0,.14-1.26,5.37,5.37,0,0,0-.14-1.25,3.05,3.05,0,0,0-.41-1,1.92,1.92,0,0,0-.67-.63,2,2,0,0,0-1.84,0,1.84,1.84,0,0,0-.67.63,3.05,3.05,0,0,0-.41,1,5.37,5.37,0,0,0-.14,1.25,5.52,5.52,0,0,0,.14,1.26,3.19,3.19,0,0,0,.41,1,1.92,1.92,0,0,0,.67.66A1.73,1.73,0,0,0,153.67,61.27Z"/><path class="cls-1" d="M159.51,54.57a.42.42,0,0,1,.34.22l2.16,4.5c.05.12.14.12.19,0l2-4.5a.39.39,0,0,1,.33-.22h.65a.15.15,0,0,1,.15.22l-3,6.82a.42.42,0,0,1-.34.22h-.35a.42.42,0,0,1-.34-.22L158,54.79a.14.14,0,0,1,.13-.22Z"/><path class="cls-1" d="M171.39,54.57a.24.24,0,0,1,.24.24v.13a.24.24,0,0,1-.24.24h-3.1a.24.24,0,0,0-.24.24V57.3a.24.24,0,0,0,.24.24h2.5a.23.23,0,0,1,.23.24v.13a.23.23,0,0,1-.23.24h-2.5a.24.24,0,0,0-.24.24v2.36a.23.23,0,0,0,.24.23h3.1a.24.24,0,0,1,.24.24v.26a.24.24,0,0,1-.24.24h-4.85a.24.24,0,0,1-.24-.24V54.81a.24.24,0,0,1,.24-.24Z"/><path class="cls-1" d="M173.09,54.81a.23.23,0,0,1,.23-.24h2.21l.48,0a5.62,5.62,0,0,1,1,.13,2.51,2.51,0,0,1,.87.41,1.77,1.77,0,0,1,.52.61,1.85,1.85,0,0,1,.17.78,1.39,1.39,0,0,1-.12.57,1.65,1.65,0,0,1-.33.51,2.39,2.39,0,0,1-.52.4,3.13,3.13,0,0,1-.44.21.17.17,0,0,0-.08.28l2.26,3c.08.11,0,.2-.1.2h-1.42a.53.53,0,0,1-.38-.2l-2.12-2.85a.48.48,0,0,0-.3-.19c-.08,0-.15.11-.15.24v2.76a.24.24,0,0,1-.24.24h-1.28a.23.23,0,0,1-.23-.24Zm1.75,2.82a.21.21,0,0,0,.19.23h.42a2,2,0,0,0,.36-.08,1.57,1.57,0,0,0,.48-.25,1.31,1.31,0,0,0,.31-.42,1.19,1.19,0,0,0,.12-.54,1.46,1.46,0,0,0-.09-.52,1.38,1.38,0,0,0-.24-.41,1.22,1.22,0,0,0-.37-.27.9.9,0,0,0-.23-.07l-.48,0h-.24a.23.23,0,0,0-.23.23Z"/><path class="cls-1" d="M180.24,54.81a.24.24,0,0,1,.24-.24h.64a.57.57,0,0,1,.39.18l3.76,4.19c.09.1.16.07.16-.06V54.81a.24.24,0,0,1,.24-.24h.62a.24.24,0,0,1,.24.24v6.78a.24.24,0,0,1-.24.24H186a.62.62,0,0,1-.4-.18L181.5,57c-.08-.1-.15-.07-.15.06v4.43a.24.24,0,0,1-.24.24h-.63a.24.24,0,0,1-.24-.24Z"/><path class="cls-1" d="M188.28,54.81a.24.24,0,0,1,.24-.24h1.23a.42.42,0,0,1,.34.22l2.26,4.45c.06.12.15.12.21,0l2.22-4.45a.44.44,0,0,1,.35-.22h1.19a.24.24,0,0,1,.24.24v6.67a.24.24,0,0,1-.24.24h-1.27a.24.24,0,0,1-.24-.24V57.3c0-.13-.05-.14-.11,0l-2.11,4.23a.44.44,0,0,1-.35.22H192a.44.44,0,0,1-.35-.22l-2.19-4.28c-.06-.12-.11-.11-.11,0v4.23a.24.24,0,0,1-.24.24h-.63a.24.24,0,0,1-.24-.24Z"/><path class="cls-1" d="M203.41,54.57a.24.24,0,0,1,.24.24v.13a.24.24,0,0,1-.24.24H200.3a.23.23,0,0,0-.23.24V57.3a.23.23,0,0,0,.23.24h2.5a.24.24,0,0,1,.24.24v.13a.24.24,0,0,1-.24.24h-2.5a.23.23,0,0,0-.23.24v2.36a.23.23,0,0,0,.23.23h3.11a.24.24,0,0,1,.24.24v.26a.24.24,0,0,1-.24.24h-4.86a.23.23,0,0,1-.23-.24V54.81a.23.23,0,0,1,.23-.24Z"/><path class="cls-1" d="M205.1,54.81a.24.24,0,0,1,.24-.24H206a.62.62,0,0,1,.4.18l3.75,4.19c.09.1.16.07.16-.06V54.81a.24.24,0,0,1,.24-.24h.62a.24.24,0,0,1,.24.24v6.78a.24.24,0,0,1-.24.24h-.28a.57.57,0,0,1-.39-.18L206.37,57c-.09-.1-.16-.07-.16.06v4.43a.24.24,0,0,1-.24.24h-.63a.24.24,0,0,1-.24-.24Z"/><path class="cls-1" d="M219.1,54.57a.24.24,0,0,1,.24.24v.13a.24.24,0,0,1-.24.24h-2a.23.23,0,0,0-.23.24v6.06a.24.24,0,0,1-.24.24h-1.28a.23.23,0,0,1-.23-.24V55.42a.24.24,0,0,0-.24-.24h-2a.24.24,0,0,1-.24-.24v-.13a.24.24,0,0,1,.24-.24Z"/><polygon class="cls-2" points="0 36.43 29.14 48.57 0 60.71 0 36.43"/><polygon class="cls-2" points="0 12.14 29.14 24.28 0 36.43 0 12.14"/><polygon class="cls-3" points="29.14 0 0 12.14 29.14 24.28 58.28 12.14 29.14 0"/><polygon class="cls-4" points="29.14 24.28 0 36.42 29.14 48.57 58.28 36.42 29.14 24.28"/><polygon class="cls-5" points="29.14 48.57 0 60.71 29.14 72.85 58.28 60.71 29.14 48.57"/><path class="cls-1" d="M150.71,15.28c-1.27-2.14-2.15-.71-2.15-.71h-7.43a.49.49,0,0,1-.49-.48V12.43a.48.48,0,0,0-.48-.49l-2-.48a.49.49,0,0,0-.49.48v2.15a.49.49,0,0,1-.48.48h-9a.49.49,0,0,0-.48.49v.55a.49.49,0,0,0,.48.49h9a.48.48,0,0,1,.48.48v3a.48.48,0,0,1-.48.48h-7.53a.49.49,0,0,0-.49.49V31.39a.49.49,0,0,0,.49.48h1.93a.49.49,0,0,0,.49-.48V22.31a.49.49,0,0,1,.48-.49h4.63a.49.49,0,0,1,.48.49V34a.48.48,0,0,0,.49.48h2a.47.47,0,0,0,.48-.48V22.31a.49.49,0,0,1,.49-.49H146a.48.48,0,0,1,.48.49v5.9c0,2.35-2.54,3.1-2.54,3.1a.56.56,0,0,0,.55.48h1.82a7.77,7.77,0,0,0,1-.07,3.4,3.4,0,0,0,1.37-.58,2.23,2.23,0,0,0,.66-1.12,5.13,5.13,0,0,0,.11-1V20.51a.49.49,0,0,0-.49-.49h-7.77a.48.48,0,0,1-.49-.48v-3a.48.48,0,0,1,.49-.48h9.32C150.71,16.1,151,15.84,150.71,15.28Z"/><path class="cls-1" d="M178.6,16.18c-1.26-2-2.5-.93-2.66-.77h-5.88c-.26,0-.45-.08-.42-.19s.13-.4.22-.65l.71-2.4a.42.42,0,0,0-.35-.54l-1.68-.29a.57.57,0,0,0-.62.4s-.89,3-1.3,4-2.08,3.95-2.08,3.95a.63.63,0,0,0,.15.74l.18.15.37.31.38.3.24.19c.2.17.31.33.45.14s.52-.75.62-.91.22-.14.26.05a48.7,48.7,0,0,0,2.56,6.52c0,.08.14.31.21.45a.12.12,0,0,1,0,0,.14.14,0,0,1,0,.07,18.74,18.74,0,0,1-1.94,2L166.44,31l-.9.64c-.12.07-.22-.09-.22-.36V30.12a.36.36,0,0,0-.47-.37l-1.64.35-.65.14c-.09,0-.17-.19-.17-.46V23.57a.49.49,0,0,1,.49-.48H164a.49.49,0,0,0,.49-.49v-.72a.49.49,0,0,0-.49-.49h-1.13a.48.48,0,0,1-.49-.48V14.58a.49.49,0,0,1,.48-.48h2.89c.29,0,.69-.36.29-.89-1.16-2.05-2.34-.6-2.34-.6h-8.77a.49.49,0,0,0-.49.48v.52a.49.49,0,0,0,.49.49h4.14a.52.52,0,0,1,.48.3V30.11c0,.45-.21.7-.47.75l-.94.17a.39.39,0,0,1-.47-.4V19a.49.49,0,0,0-.49-.48h-1.6a.49.49,0,0,0-.49.48V31c0,.27,0,.49-.12.5l-.49.06a.68.68,0,0,0-.5.85l.23,1.09a.47.47,0,0,0,.56.4l9-1.69.57-.12s.22.15.37.38l1,1.42a.55.55,0,0,0,.7.17,35.16,35.16,0,0,0,4.59-3.41l.62-.6a.14.14,0,0,1,.21,0c0,.07,1.58,1.49,1.58,1.49l2.74,2.31a.49.49,0,0,0,.68-.09L178.11,32a.46.46,0,0,0-.1-.67,15.23,15.23,0,0,1-4.52-3.65.13.13,0,0,1,0-.1.38.38,0,0,1,0-.1,12.32,12.32,0,0,1,.58-1.16c1.37-2.52,2.57-9.12,2.57-9.24a.22.22,0,0,1,.2-.2h1.44A.41.41,0,0,0,178.6,16.18Zm-4.87.93s-1,5.32-1.55,6.81c-.05.13-.09.26-.13.37h0a.32.32,0,0,1-.3.2.29.29,0,0,1-.23-.12c-.05-.09-.09-.18-.13-.26l0-.13s-.34-.92-.75-2.07-1-3.74-1.25-4.72a.17.17,0,0,1,0-.07.23.23,0,0,1,.23-.24h3.95a.21.21,0,0,1,.16.08.16.16,0,0,1,.06.13Z"/><path class="cls-1" d="M220.94,27.93a.57.57,0,0,0,.46-.57l-.05-.42a.42.42,0,0,0-.5-.4l-3.93.55-.53.07a.25.25,0,0,1-.24-.18,1.12,1.12,0,0,1,0-.27h0c0-.13,0-.46,0-.59s.06-.37.54-.6a19,19,0,0,0,2-1.24c.79-.58,1.4-1.09,1.4-1.09a.53.53,0,0,0,.09-.71s-.51-1-1.3-1h-4c-.27,0-.34-.11-.16-.25s2-1.87,2-1.91a.9.9,0,0,1,.55-.27h2.37a.49.49,0,0,0,.48-.48V18.1a.49.49,0,0,0-.48-.49h-.37c-.27,0-.55-.08-.48-.23s.07-.16.1-.23a15.62,15.62,0,0,0,1.3-4.73.54.54,0,0,0-.68.21l-1,1.59-.13-.24c-1.2-2-2.36-.61-2.36-.61h-.37a.47.47,0,0,1-.47-.48v-1a.49.49,0,0,0-.49-.48h-1.81a.49.49,0,0,0-.48.48v1a.49.49,0,0,1-.49.49h-2.75a.48.48,0,0,0-.48.48v.56a.49.49,0,0,0,.48.48h2.75a.49.49,0,0,1,.49.49v1.76a.48.48,0,0,1-.48.46h-3.42a.49.49,0,0,0-.49.49v.49a.49.49,0,0,0,.49.48h4.46c.27,0,.33.12.13.26S207.43,23,207.43,23a.5.5,0,0,0-.21.66l.53,1a.51.51,0,0,0,.66.23l2.89-1.64.46-.25a3.8,3.8,0,0,1,.51,0h4.78c.27,0,.3.11.07.26l-1.74,1.25a2.9,2.9,0,0,1-1.08.26h-.5a.49.49,0,0,0-.49.48V27a1.23,1.23,0,0,1,0,.29.27.27,0,0,1-.24.22h0l-.47,0-4.68.52a.44.44,0,0,0-.42.51l.24,1a.53.53,0,0,0,.56.43l4.24-.84.49-.07h0a.28.28,0,0,1,.26.24,1.8,1.8,0,0,1,0,.21v.61c0,.26,0,1-.05,1.29,0,.42-.53,1.91-3.28,2.48-.26.05.29.48.56.48h2.9a5.16,5.16,0,0,0,.78-.08,3.21,3.21,0,0,0,1.17-.45A1.55,1.55,0,0,0,216,33a4.41,4.41,0,0,0,.12-1V29.16a2.66,2.66,0,0,1,0-.3h0a.25.25,0,0,1,.22-.22h0l.47-.07Zm-5.79-12.54a.48.48,0,0,1,.48-.49H218l-.15.18c-.14.19-1.74,2.11-1.74,2.11a1,1,0,0,1-.71.42c-.15,0-.27-.21-.27-.46V15.39Zm15.77,1.3h.61c.33,0,.63-.28.33-.77-1.34-2.15-2.65-.78-2.68-.75H225.4c-.27,0-.46-.08-.44-.18s.1-.39.16-.65l.43-2.14a.45.45,0,0,0-.4-.53l-1.42-.21a.54.54,0,0,0-.58.42s-.68,3.11-1,4c-.12.34-.28.73-.45,1.14-.68,1.59-1.61,3.47-1.61,3.47a.63.63,0,0,0,.2.73s.72.35,1.08.54.55.28.6.2.26-.46.37-.64.21-.16.26,0,.13.58.21.83c.53,1.77,1.46,4.19,1.73,4.81a.2.2,0,0,1,0,.24h0A40.22,40.22,0,0,1,219.18,32a.5.5,0,0,0-.14.68l.79,1.24a.49.49,0,0,0,.67.15,17.79,17.79,0,0,0,4.95-3.63c.18-.19.46-.5.65-.68a.14.14,0,0,1,.12.06c.05.07.24.31.41.51l3.19,3.44a.46.46,0,0,0,.67,0l1.23-1.38a.5.5,0,0,0,0-.69,31.17,31.17,0,0,1-3.19-3.44q-.3-.39-.6-.81a.3.3,0,0,1,0-.23h0c1.5-3.11,2.46-9.45,2.46-9.45C230.38,17.45,230.38,16.69,230.92,16.69Zm-4.55,6.83c0,.13-.11.24-.24.24a.26.26,0,0,1-.24-.22c-.4-1.57-1.7-6.33-1.7-6.35s0-.17,0-.23a.28.28,0,0,1,.28-.28h3a.25.25,0,0,1,.18.08.31.31,0,0,1,.08.11.43.43,0,0,1,0,.19C227.66,17.19,226.68,22,226.37,23.52Z"/><path class="cls-1" d="M258.61,13.89c-1.15-1.92-2.25-.71-2.33-.62h-8.09a.49.49,0,0,1-.48-.48v-.63a.49.49,0,0,0-.49-.49l-2.07-.35a.48.48,0,0,0-.49.48v1a.49.49,0,0,1-.48.48h-9.45a.49.49,0,0,0-.49.49v.54a.49.49,0,0,0,.49.48h5.54c.27,0,.32.2.25.32s-1.35,2.54-1.35,2.54l-.32.45a.2.2,0,0,1-.11.06h-.2l-2.77,0a.42.42,0,0,0-.42.48l.18,1.31a.56.56,0,0,0,.56.46l17-.89.56,0a.16.16,0,0,1,.11.05s.2.21.37.41l.39.45a.65.65,0,0,0,.75.14l1.74-.91a.34.34,0,0,0,.09-.57l-3.73-3.91c-.14-.16-.08-.37.23-.37h4.71C258.61,14.78,259,14.48,258.61,13.89Zm-6.92,3.86-.82,0-7.41.27-1.15,0c-.17,0-.22-.1-.12-.23s1.45-2.35,1.81-2.93h0a.22.22,0,0,1,.21-.14H251c.27,0,.23.12.11.36l-.42.77c-.14.23-.23.43,0,.6l.5.44.61.56C251.91,17.63,251.87,17.74,251.69,17.75Z"/><path class="cls-1" d="M255.24,21.87H237.43a.48.48,0,0,0-.49.48V34a.48.48,0,0,0,.49.48h2a.48.48,0,0,0,.49-.48V30.22a.49.49,0,0,1,.48-.49h10.77c.24,0,.55-.25.24-.75-1-1.65-2-.5-2-.5h-9.06a.49.49,0,0,1-.48-.49V27a.49.49,0,0,1,.48-.49h10.77c.24,0,.55-.25.24-.75-1-1.66-2-.51-2-.51h-9.06a.49.49,0,0,1-.48-.49V23.56a.49.49,0,0,1,.48-.49h11.82a.49.49,0,0,1,.49.49v6.53c0,.52,0,1.85-1,2.08l-.21,0h-1c-.27,0-.49,0-.81.48a3.87,3.87,0,0,0-.57,1.1c0,.27.27.49.54.49H252c.26,0,1.06,0,1.32-.08a3.86,3.86,0,0,0,1.43-.47,2,2,0,0,0,.93-1.34,7.61,7.61,0,0,0,.08-1V22.35A.48.48,0,0,0,255.24,21.87Z"/><path class="cls-1" d="M192.1,16.76,190,16.5a.56.56,0,0,0-.61.39,26.53,26.53,0,0,1-1.34,4.2,36.83,36.83,0,0,1-2.66,4.65.57.57,0,0,0,.09.72l1.41.82a.45.45,0,0,0,.63,0c.15-.17.62-.75.76-.92s.26-.1.26.16v7.39a.49.49,0,0,0,.48.49h1.58a.48.48,0,0,0,.48-.49V23c0-.27-.09-.49-.21-.49a.13.13,0,0,1-.12-.2l.28-.65,1.45-4.38A.41.41,0,0,0,192.1,16.76Z"/><path class="cls-1" d="M204,20.79h-1.33a.49.49,0,0,1-.49-.48V17.22a.49.49,0,0,0-.48-.49H199.9a.49.49,0,0,0-.49.49v3.09a.49.49,0,0,1-.48.48H193a.49.49,0,0,0-.49.49V22a.49.49,0,0,0,.49.48h5.93c.26,0,.48.4.48.67v7.16c0,.27,0,.88,0,1.14s-.57.84-1.55.84h-1a.9.9,0,0,0-.87.48l-.53,1c-.13.24.27.48.54.48h3a6.12,6.12,0,0,0,1-.08,3.71,3.71,0,0,0,1.44-.6,2.09,2.09,0,0,0,.72-1,4.26,4.26,0,0,0,.12-1V23.1c0-.27.22-.67.49-.67H204a.49.49,0,0,0,.48-.48v-.67A.49.49,0,0,0,204,20.79Z"/><path class="cls-1" d="M197.09,29.32a.42.42,0,0,0,.34-.64l-1.82-3.63a1.06,1.06,0,0,0-1-.7h-1a.46.46,0,0,0-.48.65L195,28.85a.86.86,0,0,0,.76.48Z"/><path class="cls-1" d="M198.61,15.36H204c.29,0,.67-.31.29-.9-1.19-2-2.33-.61-2.33-.61H195.5a.49.49,0,0,1-.48-.49V12.28a.49.49,0,0,0-.49-.49l-2.06-.36a.48.48,0,0,0-.48.49v1.45a.49.49,0,0,1-.49.49H183a.48.48,0,0,0-.49.48V24.91a38.86,38.86,0,0,1-1.6,9.26.44.44,0,0,0,.63-.18s3.14-3.64,3.76-6.17a40.29,40.29,0,0,0,.43-7.33c0-.14,0-.33,0-.51s0-.34,0-.46V15.84a.48.48,0,0,1,.48-.49h12.39Z"/><path class="cls-1" d="M277.76,29.52v-4.7a.48.48,0,0,0-.48-.49h-9.59a.49.49,0,0,0-.49.49v5.63a.45.45,0,0,0,.49.48c.58-.1,2.19-.46,2.19-.72s.22-.2.48-.2h6.92A.48.48,0,0,0,277.76,29.52ZM275,28.21a.49.49,0,0,1-.49.49h-4.16a.49.49,0,0,1-.49-.49v-2a.49.49,0,0,1,.49-.48h4.16a.49.49,0,0,1,.49.48Z"/><path class="cls-1" d="M280.36,34.13c2.77-.75,3-3.94,3.05-5.54s0-2.7,0-2.7V21.13a.48.48,0,0,0-.48-.49H266.23a.49.49,0,0,1-.48-.49V19a.49.49,0,0,1,.48-.49H281.8a.48.48,0,0,0,.49-.48V12.82a.49.49,0,0,0-.49-.49H263.27a.49.49,0,0,0-.49.49v3.95s0,1,0,2.4h0v5.28a39.27,39.27,0,0,1-1.55,9.33l-.16.57a.47.47,0,0,0,.67-.19s2.85-3.89,3.51-6.59a23.68,23.68,0,0,0,.42-4.58h0a.79.79,0,0,1,.77-.89h13.31a.79.79,0,0,1,.77.89V24.7c0,3.35-.13,5.67-.41,6.34s-.67,1.12-1.39,1.12h-1a1.12,1.12,0,0,0-.87.48,3.13,3.13,0,0,0-.57,1.22c0,.26.29.48.56.48h2a6.36,6.36,0,0,0,1-.09S280,34.21,280.36,34.13ZM265.75,14.38a.48.48,0,0,1,.48-.48h12.85a.48.48,0,0,1,.48.48v2.26a.49.49,0,0,1-.48.48H266.23a.49.49,0,0,1-.48-.48Z"/><path class="cls-1" d="M123.92,28.16c-.6-.34-1.62-.87-1.62-.87a.41.41,0,0,0-.5.39s-.1,2.12-.16,2.59a2.83,2.83,0,0,1-.29,1.11,1,1,0,0,1-.56.42,8.24,8.24,0,0,1-1.58.07h-1.06a1.38,1.38,0,0,1-.88-.28.63.63,0,0,1-.24-.33,6.12,6.12,0,0,1-.09-1v-8a1.26,1.26,0,0,1,.56-1l6.14-3.79c.26-.21.09-.77-.71-1.22s-2,.3-2,.3l-3.7,2.34h0a.5.5,0,0,1-.12,0,.2.2,0,0,1-.19-.12h0a.13.13,0,0,1,0-.06.61.61,0,0,1,0-.15V13a.69.69,0,0,0-.48-.62l-2.1-.72a.49.49,0,0,0-.49.48V30.9a7.75,7.75,0,0,0,.07,1,3.32,3.32,0,0,0,.54,1.42,2.73,2.73,0,0,0,1.85.8,24.57,24.57,0,0,0,2.7.15,15.87,15.87,0,0,0,3.29-.23,2.89,2.89,0,0,0,1.47-.89,2.69,2.69,0,0,0,.53-1.2,7.77,7.77,0,0,0,.08-1V28.74C124.4,28.47,124.15,28.3,123.92,28.16Z"/><path class="cls-1" d="M109.83,11.76l-2.09.49a.48.48,0,0,0-.49.48v4.89a.49.49,0,0,1-.48.48h-5.58a.48.48,0,0,0-.48.47v.71a.48.48,0,0,0,.48.47h5.58a.48.48,0,0,1,.48.48v8.23a2.3,2.3,0,0,1,0,.28A.35.35,0,0,1,107,29l-.43.11-5.84,1.35a.44.44,0,0,0-.35.56l.5,1.47c.07.25.34.17.6.1l4.94-1.12.48-.15h0l.11,0a.23.23,0,0,1,.21.16.88.88,0,0,1,0,.24v1.71a.49.49,0,0,0,.49.49h2.09a.49.49,0,0,0,.48-.49V12.25A.49.49,0,0,0,109.83,11.76Z"/><path class="cls-1" d="M75.28,24.58h0a.26.26,0,0,0,.15-.24v-.45a.47.47,0,0,1,.47-.46H93.45a.47.47,0,0,1,.46.46v.45a.27.27,0,0,0,.15.24h0c.56.26,2.45,1.08,2.45.14v-2.4a.47.47,0,0,0-.47-.46H73.3a.47.47,0,0,0-.47.46v2.4C72.83,25.66,74.72,24.84,75.28,24.58Z"/><path class="cls-1" d="M96.74,33.31c-1.53-2.56-3-.63-3-.61H87.07a.2.2,0,0,1-.11,0,.63.63,0,0,1-.5-.62.64.64,0,0,1,.46-.61.33.33,0,0,1,.15,0h7.1a.47.47,0,0,0,.47-.47v-.38a.47.47,0,0,0-.47-.46H86.89c-.25,0-.46-.39-.46-.65v-.07c0-.26.2-.66.46-.68l3.85-.27a1.33,1.33,0,0,1,.82.28l.74.84c.19.18.45.11.69,0l1.07-.38a.33.33,0,0,0,.08-.56l-2.22-2.58c-.2-.15-.17-.28.08-.28a.46.46,0,0,0,.45-.47v-.45a.47.47,0,0,0-.47-.47H77.32a.46.46,0,0,0-.46.47v.45a.46.46,0,0,0,.46.47h1.73c.26,0,.35.17.19.38l-.32.43c-.16.2-.5.55-.75.54l-2.31,0a.43.43,0,0,0-.44.46l0,1A.48.48,0,0,0,76,29l6.41-.13c.26,0,.47.36.47.59s-.21.61-.47.61H74.63a.47.47,0,0,0-.47.46v.38a.47.47,0,0,0,.47.47h7.55a.24.24,0,0,1,.15,0,.63.63,0,0,1,.45.6.65.65,0,0,1-.48.62l-.12,0h-9a.47.47,0,0,0-.47.47V34a.47.47,0,0,0,.47.47H96.37C96.74,34.48,97.24,34.08,96.74,33.31Zm-14.3-6.19c-.26,0-.35-.16-.2-.37l.29-.59a1,1,0,0,1,.73-.38h4.89c.25,0,.84,1,1,1.13s.1.05-.16.05Z"/><path class="cls-1" d="M73.71,13.71h8.65a.52.52,0,0,1,.47.5.55.55,0,0,1-.47.54H74.93a.47.47,0,0,0-.47.47v.35a.47.47,0,0,0,.47.47H94.37a.47.47,0,0,0,.47-.47v-.35a.47.47,0,0,0-.47-.47H86.89a.55.55,0,0,1-.46-.53.52.52,0,0,1,.46-.51h8.87c.21,0,.5-.23.21-.67-.85-1.42-1.68-.53-1.74-.46H86.89a.44.44,0,0,1-.46-.4.44.44,0,0,0-.47-.41H83.29a.44.44,0,0,0-.46.41.44.44,0,0,1-.47.4H73.71a.47.47,0,0,0-.46.47v.19A.47.47,0,0,0,73.71,13.71Z"/><path class="cls-1" d="M93.66,17h-18a.47.47,0,0,0-.47.47v2.77a.47.47,0,0,0,.47.46h18a.47.47,0,0,0,.47-.46V17.5A.47.47,0,0,0,93.66,17ZM92.41,18.9a.58.58,0,0,1-.58.58H77.52a.58.58,0,0,1-.58-.58v0a.58.58,0,0,1,.58-.57H91.83a.58.58,0,0,1,.58.57Z"/></g></g></svg>