<svg xmlns="http://www.w3.org/2000/svg" viewBox="0 0 375.78 51.48"><defs><style>.cls-1{fill:#df0011;}.cls-2{fill:#fff;}.cls-3{fill:#231815;}</style></defs><g id="圖層_2" data-name="圖層 2"><g id="圖層_1-2" data-name="圖層 1"><path d="M71.36,40.73c.21.11.35.21.35.32a.74.74,0,0,1-.28.55,31.26,31.26,0,0,1-3.94,5.86L64.64,46.1a21,21,0,0,0,4.21-6.55Zm8.51-1.6H66.13v-22H79.87Zm-3-19.31H69.1v3.66h7.77Zm0,6.24H69.1v4h7.77Zm0,6.55H69.1v3.8h7.77ZM81.65,45.4l-2.86,1.78a27.93,27.93,0,0,1-4.64-6.41l2.72-1.22a20.2,20.2,0,0,0,4.78,5.85m8.57-23V16.12l3.38.42c.35,0,.56.17.56.42s-.28.59-.8.94v4.5h3v3h-3v18.1a3.4,3.4,0,0,1-1.53,3.06q-1.26,1.05-6.39,1.05l-1.21-3.14h3.83c1.33,0,2.06-.49,2.16-1.5V28.78A51.27,51.27,0,0,1,87.57,35a41.09,41.09,0,0,1-5.12,7.54L79.73,40.1A38.67,38.67,0,0,0,85.44,33a46.56,46.56,0,0,0,3.42-7.57H80.7v-3Z"/><path d="M130.12,17.1V47.46h-3v-1h-23v1h-3V17.1ZM116.42,44l-1-2.44h1.89c.66,0,1-.28,1.11-.83V39.69h-6.55a25.49,25.49,0,0,1,2.44,2.05l-1.74,1.64a21.5,21.5,0,0,0-3.14-2.75l1-.94h-5.13V37.52h13.07V35.68c-3.06.28-6.72.55-11,.87-.21.28-.39.42-.53.42s-.28-.11-.31-.38L106,34.25c2.78-.07,5.5-.21,8.15-.35V32.47h-6.52V24.31h6.52v-1h-8.57V21.18h8.57V20l2.58.17c.46,0,.7.14.7.35s-.18.42-.52.7h8.71v2.16H117v1h6.51v7.88a33.66,33.66,0,0,1,2.86,3.56l-2,1.36c-.42-.67-.8-1.29-1.22-1.85-.63.07-1.25.14-1.92.17v2.09H126v2.17h-4.88v1.49a2.85,2.85,0,0,1-.9,2.34,1.86,1.86,0,0,1-1,.52h7.91V19.54h-23V44ZM114.19,26.2h-3.66v1.36h3.66Zm0,3h-3.66v1.36h3.66ZM117,27.56h3.66V26.2H117Zm3.66,1.63H117v1.36h3.66Zm.13,3.28H117v1.26c1.6-.08,3.13-.18,4.67-.32-.32-.35-.6-.66-.88-.94"/><path d="M142,29.33l-2,2.2a37.9,37.9,0,0,0-5.33-4l2.2-2.16A28.86,28.86,0,0,1,142,29.33m1.78,8.19a91,91,0,0,1-5.71,8.82c0,.73-.25,1.12-.67,1.12l-2.61-2.2a59.45,59.45,0,0,0,7.07-10.07Zm.95-17.43-2,2.17a41.63,41.63,0,0,0-5.43-3.94l2.15-2.2a30.46,30.46,0,0,1,5.31,4m8.6,2v-6l2.86.24c.53.07.8.22.8.46s-.21.45-.56.8v4.5h7.64V25h-7.64v5.58H166v2.86H143.77V30.55h9.55V25h-7.49V22.12ZM155,35.05c.41.07.62.21.62.42s-.21.42-.55.7a38.19,38.19,0,0,1-3.45,6.27c2.78-.25,5.57-.56,8.29-.91-.87-1.25-1.74-2.4-2.65-3.48l2.16-1.78a53.08,53.08,0,0,1,7,9.41l-2.85,1.92c-.63-1.22-1.29-2.37-1.92-3.42-3.48.56-8.57,1.22-15.27,2.06-.21.42-.45.66-.66.66s-.38-.21-.42-.56l-.8-3.38,3.21-.21a33.6,33.6,0,0,0,4.95-8.5Z"/><path d="M187.3,16.54c.59,0,.9.14.9.42s-.27.73-.83,1.08V20a45.31,45.31,0,0,1-.53,7.21,32.4,32.4,0,0,0,4.43,8.3,41.43,41.43,0,0,0,10.11,9.13L197.44,47a54.38,54.38,0,0,1-9.13-10.21,38,38,0,0,1-2.58-4.95c-.14.38-.24.73-.35,1a22.65,22.65,0,0,1-5.82,8.43,38.1,38.1,0,0,1-7.18,5.58l-2.86-2.58a40.35,40.35,0,0,0,6.76-4.67,20.58,20.58,0,0,0,5.4-6.87A30.85,30.85,0,0,0,184.09,20V18.84a22.83,22.83,0,0,0-.24-2.58Z"/><path d="M213,18V16l2.9.25c.52.07.8.2.8.45s-.21.45-.55.8V18h8.71V16l2.86.25c.55.07.83.2.83.45s-.21.45-.55.8V18h7.77v2.3H228v1.25h-3.14V20.34h-8.71v1.77H213V20.34h-8.29V18Zm15.73,6.34q-3.55.32-7.11.53v1.56h12.93v2.34H221.59V30h9.79v9.24h-9.79v1.25h10.32v2.16H221.59V43.9h13.07v2.44h-28.9V43.9h13V42.68h-10V40.52h10V39.27h-9.56V30h9.56V28.81H206V26.47h12.69V25.11c-2.93.18-5.89.32-8.86.42l-1.77-2.44c4.32-.07,8-.21,11.08-.42,2.79-.13,6.2-.41,10.28-.83l2,1.88a.61.61,0,0,1,.21.45c0,.21-.14.28-.42.28l-.77-.17c-.48,0-1.08,0-1.77.1m-10,8h-6.56v1.36h6.56Zm0,3.28h-6.56V37h6.56Zm2.86-1.92h6.79V32.33h-6.79Zm6.79,1.92h-6.79V37h6.79Z"/><path d="M264,20c-1.56.34-3.13.62-4.67.87a.85.85,0,0,0-.14.21,68.92,68.92,0,0,0,.42,8h8.68v3h-8.23a25.44,25.44,0,0,0,.84,3.73,18,18,0,0,0,3.38,6.52c.67.73,1.22,1.08,1.71,1.08s1.43-1.39,2.58-4.25l2.47,2c-1.91,4.08-3.55,6.14-4.91,6.14-1,0-2.37-.84-3.9-2.44a21.16,21.16,0,0,1-4.64-9.24,27.6,27.6,0,0,1-.66-3.59H246.11V41.5A87.43,87.43,0,0,0,255,39.27v2.86c-2.82.94-7.21,2.16-13.21,3.69-.24.42-.48.66-.69.66s-.38-.21-.42-.55l-.8-3.39c1-.14,2-.27,3-.45V18.32l2.31,1.15a86.32,86.32,0,0,0,9.2-.81,98.84,98.84,0,0,0,10.14-1.84l2.34,2.3a.82.82,0,0,1,.24.56c0,.21-.14.28-.38.28l-.94-.21A9,9,0,0,0,264,20m-7.81,1.35c-3.3.5-6.65.88-10.07,1.16v6.58h10.46c-.21-2.26-.35-4.84-.39-7.74"/><path d="M282.49,18.32V15.74l2.76.21c.48.06.76.21.76.45s-.17.39-.52.7v1.22h9.1V15.74l2.75.21c.53.06.8.21.8.45s-.21.39-.56.7v1.22h5.58V21h-5.58V31.53h7.64v2.72h-7.84a13.79,13.79,0,0,0,2.54,2.47,24.7,24.7,0,0,0,6.66,3.38l-3,2.3a23.21,23.21,0,0,1-5.19-3.13,6.56,6.56,0,0,1-1.08-.91v2.16h-5.86v3.24h11.47v2.72H277.16V43.76h11.33V40.52h-5.86V38.47a1.13,1.13,0,0,0-.21.17,35,35,0,0,1-6.2,3.9L273.5,40.1a35.87,35.87,0,0,0,6.8-3.45,20.47,20.47,0,0,0,2.92-2.4h-8.5V31.53h7.77V21h-5.33V18.32Zm6,19.59v-3l2.75.25c.49.06.77.2.77.45s-.21.38-.56.66v1.64h5.4A17.73,17.73,0,0,1,294,34.25h-7.5a30.28,30.28,0,0,1-3.24,3.66ZM294.59,21h-9.1V23h9.1Zm0,4.22h-9.1v1.91h9.1Zm0,4.21h-9.1v2.06h9.1Z"/><path d="M327.51,16.64c.39.18.6.39.6.6s-.32.38-.95.52c-.13.14-.27.28-.38.42a20.37,20.37,0,0,0,5.79,4.88,24.88,24.88,0,0,0,8.33,3.41l-2.58,3.28a39,39,0,0,1-8.16-4.53A26.29,26.29,0,0,1,325,20c-1.57,1.61-3.1,3.1-4.6,4.43a60.51,60.51,0,0,1-8.65,5.89L309,27.83a38.91,38.91,0,0,0,8.61-5.16,47.59,47.59,0,0,0,7.07-7.07Zm4.82,10.67v2.86h-5.86v3.66h9.83v2.72h-9.83V44h4.74L328.94,43a16.55,16.55,0,0,0,3.39-5.33l2.54,1.19c.21.1.31.2.31.31a.84.84,0,0,1-.24.56A26.45,26.45,0,0,1,332,44h7V46.9H310.68V44h7.39c-1-1.67-2-3.34-3.17-5l2.71-1.39A59.52,59.52,0,0,1,320.75,43L319,44h4.22V36.55h-10V33.83h10V30.17h-6V27.31Z"/><path d="M362.19,16.44c.34.13.52.31.52.52s-.21.35-.63.45a29.31,29.31,0,0,0,6.55,2.82A46.07,46.07,0,0,0,375.78,22l-2.16,3a53.08,53.08,0,0,1-8.09-2.78,33.17,33.17,0,0,1-5.82-3.38c-1.67,1-3.28,1.91-4.84,2.75a71.94,71.94,0,0,1-9,3.56L343.4,23a54.27,54.27,0,0,0,9-3.17,49.3,49.3,0,0,0,7.36-4.32Zm10.21,9.75v9.28h-3v-.8H350.06v.8h-3V26.19Zm-2.72,10.22V47.32h-3.14v-1H353.05v1.12h-3.14V36.41Zm-16.42-4.22a25.26,25.26,0,0,0-1.15-2.72l2.44-.56a27.66,27.66,0,0,1,1.36,3.28h2.2V28.67h-8.05v3.52Zm13.28,6.42H353.05v1.91h13.49Zm0,3.93H353.05v1.64h13.49Zm-.69-18H353.33V22.4h12.52ZM363,32.19l1.78-3.28,2,1q.42.21.42.42c0,.28-.18.49-.53.66l-.83,1.22h3.55V28.67h-8.58v3.52Z"/><path class="cls-1" d="M59.24,22.4,36.8,4.18a8.55,8.55,0,0,0-10.26,0L4.1,22.4c-2.82,2.29-1.86,4.16,2.12,4.16h4.34v19.2A3.25,3.25,0,0,0,13.83,49h35.7a3.26,3.26,0,0,0,3.28-3.24V26.56h4.3c4,0,5-1.87,2.13-4.16"/><path class="cls-2" d="M13.83,51.48a5.75,5.75,0,0,1-5.75-5.72V29H6.22a9.73,9.73,0,0,1-3-.39A4.64,4.64,0,0,1,.74,27,3.69,3.69,0,0,1,0,24.8a4.69,4.69,0,0,1,.82-2.51,9.14,9.14,0,0,1,1.72-1.81L25,2.27a11,11,0,0,1,13.36,0L60.79,20.48a8.6,8.6,0,0,1,1.72,1.81,4.55,4.55,0,0,1,.81,2.51,3.49,3.49,0,0,1-.73,2.2A4.37,4.37,0,0,1,61,28.3a8.8,8.8,0,0,1-3.87.73H55.28V45.76a5.74,5.74,0,0,1-5.75,5.72ZM10.56,24.09a2.54,2.54,0,0,1,1.75.72A2.51,2.51,0,0,1,13,26.56v19.2a.8.8,0,0,0,.8.77h35.7a.8.8,0,0,0,.8-.77V26.56a2.48,2.48,0,0,1,2.48-2.47h4.58l-22.16-18A5.68,5.68,0,0,0,31.66,5a5.62,5.62,0,0,0-3.55,1.16l-22.17,18h4.62ZM59.23,20.7l-1.34,1.65Z"/><path class="cls-1" d="M59.24,22.4,36.8,4.18a8.55,8.55,0,0,0-10.26,0L4.1,22.4c-2.82,2.29-1.86,4.16,2.12,4.16h4.34v19.2A3.25,3.25,0,0,0,13.83,49h35.7a3.26,3.26,0,0,0,3.28-3.24V26.56h4.3c4,0,5-1.87,2.13-4.16"/><path class="cls-2" d="M46.88,29.66a15,15,0,1,1-15-15,15,15,0,0,1,15,15"/><rect class="cls-3" x="42.78" y="29.43" width="0.75" height="4.48"/><rect class="cls-3" x="44.09" y="29.43" width="0.73" height="4.48"/><rect class="cls-3" x="19.97" y="29.43" width="22.2" height="4.48"/><path class="cls-3" d="M36.16,18.61v.55s-1.72.43-1.72,1.85A2.14,2.14,0,0,0,37,23.1V24c0,1.38-.13,1.67,1.51,1.67H41c1,0,1.82.39,1.82,1.62v1.36h-.63v-1c0-.52,0-1.32-1.29-1.32h-3c-.56,0-1.43-.08-1.43-1.13V23.64s-2.62-.1-2.62-2.48a2.52,2.52,0,0,1,2.37-2.55"/><path class="cls-3" d="M37.5,19.46v.62a2.11,2.11,0,0,1,2,1.51,2.65,2.65,0,0,1-.28,2.1s-.35.42.19.46,2.35-.12,3.17.34c.6.34.94.69.94,2.39v1.8h.62v-1.8a3.2,3.2,0,0,0-.64-2.46c-.83-.81-1.73-.86-3.62-.86a3.35,3.35,0,0,0,.07-2.43,2.92,2.92,0,0,0-2.42-1.67"/><polygon class="cls-1" points="40.49 42.92 43.99 39.84 21.48 17.27 18.01 20.34 40.49 42.92"/><path class="cls-1" d="M17.84,20.33l3.64-3.22L44.17,39.85,40.56,43l-.07.07ZM40.49,42.92l.08-.08ZM18.19,20.34l22.3,22.43,3.33-2.93L21.48,17.42Z"/></g></g></svg>